G04 Layer_Color=8388736*
%FSLAX24Y24*%
%MOIN*%
G70*
G01*
G75*
%ADD39R,0.0454X0.0395*%
%ADD40O,0.0297X0.0769*%
%ADD41O,0.0769X0.0297*%
%ADD42R,0.0671X0.0395*%
%ADD43R,0.0316X0.0513*%
%ADD44C,0.0680*%
%ADD45C,0.0671*%
%ADD46R,0.0671X0.0671*%
%ADD47R,0.0580X0.0580*%
%ADD48C,0.0580*%
%ADD49C,0.0879*%
%ADD50R,0.0671X0.0671*%
%ADD51C,0.1138*%
%ADD52C,0.0080*%
%ADD53C,0.0930*%
%ADD54C,0.0881*%
D39*
X40500Y4665D02*
D03*
Y5335D02*
D03*
X14700Y11315D02*
D03*
Y11985D02*
D03*
X23200Y11315D02*
D03*
Y11985D02*
D03*
X31700Y11315D02*
D03*
Y11985D02*
D03*
X40200Y11315D02*
D03*
Y11985D02*
D03*
X48700Y11315D02*
D03*
Y11985D02*
D03*
X57200Y11315D02*
D03*
Y11985D02*
D03*
X19200Y11985D02*
D03*
Y11315D02*
D03*
X27700Y11985D02*
D03*
Y11315D02*
D03*
X36200Y11985D02*
D03*
Y11315D02*
D03*
X44700Y11985D02*
D03*
Y11315D02*
D03*
X53200Y11985D02*
D03*
Y11315D02*
D03*
X61700Y11985D02*
D03*
Y11315D02*
D03*
X14677Y9815D02*
D03*
Y10485D02*
D03*
X23177Y9815D02*
D03*
Y10485D02*
D03*
X31677Y9815D02*
D03*
Y10485D02*
D03*
X40177Y9815D02*
D03*
Y10485D02*
D03*
X48677Y9815D02*
D03*
Y10485D02*
D03*
X57177Y9815D02*
D03*
Y10485D02*
D03*
X19200Y9315D02*
D03*
Y9985D02*
D03*
X27700Y9315D02*
D03*
Y9985D02*
D03*
X36200Y9315D02*
D03*
Y9985D02*
D03*
X44700Y9315D02*
D03*
Y9985D02*
D03*
X53200Y9315D02*
D03*
Y9985D02*
D03*
X61700Y9315D02*
D03*
Y9985D02*
D03*
D40*
X45925Y776D02*
D03*
X46240D02*
D03*
X46555D02*
D03*
X46870D02*
D03*
X47185D02*
D03*
X47500D02*
D03*
X47815D02*
D03*
X48130D02*
D03*
X48445D02*
D03*
X48760D02*
D03*
X49075D02*
D03*
Y5224D02*
D03*
X48760D02*
D03*
X48445D02*
D03*
X48130D02*
D03*
X47815D02*
D03*
X47500D02*
D03*
X47185D02*
D03*
X46870D02*
D03*
X46555D02*
D03*
X46240D02*
D03*
X45925D02*
D03*
D41*
X49724Y1425D02*
D03*
Y1740D02*
D03*
Y2055D02*
D03*
Y2370D02*
D03*
Y2685D02*
D03*
Y3000D02*
D03*
Y3315D02*
D03*
Y3630D02*
D03*
Y3945D02*
D03*
Y4260D02*
D03*
Y4575D02*
D03*
X45276D02*
D03*
Y4260D02*
D03*
Y3945D02*
D03*
Y3630D02*
D03*
Y3315D02*
D03*
Y3000D02*
D03*
Y2685D02*
D03*
Y2370D02*
D03*
Y2055D02*
D03*
Y1740D02*
D03*
Y1425D02*
D03*
D42*
X60561Y10050D02*
D03*
Y10550D02*
D03*
Y11050D02*
D03*
Y11550D02*
D03*
X58100Y10050D02*
D03*
Y10550D02*
D03*
Y11050D02*
D03*
Y11550D02*
D03*
X52061Y10050D02*
D03*
Y10550D02*
D03*
Y11050D02*
D03*
Y11550D02*
D03*
X49600Y10050D02*
D03*
Y10550D02*
D03*
Y11050D02*
D03*
Y11550D02*
D03*
X43561Y10050D02*
D03*
Y10550D02*
D03*
Y11050D02*
D03*
Y11550D02*
D03*
X41100Y10050D02*
D03*
Y10550D02*
D03*
Y11050D02*
D03*
Y11550D02*
D03*
X35061Y10050D02*
D03*
Y10550D02*
D03*
Y11050D02*
D03*
Y11550D02*
D03*
X32600Y10050D02*
D03*
Y10550D02*
D03*
Y11050D02*
D03*
Y11550D02*
D03*
X26561Y10050D02*
D03*
Y10550D02*
D03*
Y11050D02*
D03*
Y11550D02*
D03*
X24100Y10050D02*
D03*
Y10550D02*
D03*
Y11050D02*
D03*
Y11550D02*
D03*
X18061Y10050D02*
D03*
Y10550D02*
D03*
Y11050D02*
D03*
Y11550D02*
D03*
X15600Y10050D02*
D03*
Y10550D02*
D03*
Y11050D02*
D03*
Y11550D02*
D03*
D43*
X39374Y5551D02*
D03*
X38626D02*
D03*
Y4449D02*
D03*
X39000D02*
D03*
X39374D02*
D03*
D44*
X41500Y3500D02*
D03*
Y4500D02*
D03*
Y5500D02*
D03*
X42500Y3500D02*
D03*
Y4500D02*
D03*
Y5500D02*
D03*
D45*
X40000Y1000D02*
D03*
Y2000D02*
D03*
X38800Y1000D02*
D03*
Y2000D02*
D03*
X53000Y2500D02*
D03*
Y1000D02*
D03*
D46*
X40000Y3000D02*
D03*
X38800D02*
D03*
D47*
X48500Y13500D02*
D03*
Y24500D02*
D03*
X57000D02*
D03*
Y13500D02*
D03*
X40000D02*
D03*
Y24500D02*
D03*
X31500D02*
D03*
Y13500D02*
D03*
X23000D02*
D03*
Y24500D02*
D03*
X14500D02*
D03*
Y13500D02*
D03*
D48*
X49500D02*
D03*
X50500D02*
D03*
X51500D02*
D03*
X52500D02*
D03*
X53500D02*
D03*
X54500D02*
D03*
X55500D02*
D03*
X49500Y24500D02*
D03*
X50500D02*
D03*
X51500D02*
D03*
X52500D02*
D03*
X53500D02*
D03*
X54500D02*
D03*
X55500D02*
D03*
X64000D02*
D03*
X63000D02*
D03*
X62000D02*
D03*
X61000D02*
D03*
X60000D02*
D03*
X59000D02*
D03*
X58000D02*
D03*
X64000Y13500D02*
D03*
X63000D02*
D03*
X62000D02*
D03*
X61000D02*
D03*
X60000D02*
D03*
X59000D02*
D03*
X58000D02*
D03*
X41000D02*
D03*
X42000D02*
D03*
X43000D02*
D03*
X44000D02*
D03*
X45000D02*
D03*
X46000D02*
D03*
X47000D02*
D03*
X41000Y24500D02*
D03*
X42000D02*
D03*
X43000D02*
D03*
X44000D02*
D03*
X45000D02*
D03*
X46000D02*
D03*
X47000D02*
D03*
X38500D02*
D03*
X37500D02*
D03*
X36500D02*
D03*
X35500D02*
D03*
X34500D02*
D03*
X33500D02*
D03*
X32500D02*
D03*
X38500Y13500D02*
D03*
X37500D02*
D03*
X36500D02*
D03*
X35500D02*
D03*
X34500D02*
D03*
X33500D02*
D03*
X32500D02*
D03*
X24000D02*
D03*
X25000D02*
D03*
X26000D02*
D03*
X27000D02*
D03*
X28000D02*
D03*
X29000D02*
D03*
X30000D02*
D03*
X24000Y24500D02*
D03*
X25000D02*
D03*
X26000D02*
D03*
X27000D02*
D03*
X28000D02*
D03*
X29000D02*
D03*
X30000D02*
D03*
X21500D02*
D03*
X20500D02*
D03*
X19500D02*
D03*
X18500D02*
D03*
X17500D02*
D03*
X16500D02*
D03*
X15500D02*
D03*
X21500Y13500D02*
D03*
X20500D02*
D03*
X19500D02*
D03*
X18500D02*
D03*
X17500D02*
D03*
X16500D02*
D03*
X15500D02*
D03*
D49*
X28500Y6000D02*
D03*
X18500D02*
D03*
X20500D02*
D03*
X22500D02*
D03*
X24500D02*
D03*
X26500D02*
D03*
D50*
X54000Y2500D02*
D03*
Y1000D02*
D03*
D51*
X12500Y1500D02*
D03*
X11500Y2500D02*
D03*
X12500Y4500D02*
D03*
X11500Y5500D02*
D03*
X16000Y23000D02*
D03*
Y17000D02*
D03*
X24500Y23000D02*
D03*
Y17000D02*
D03*
X33000Y23000D02*
D03*
Y17000D02*
D03*
X41500Y23000D02*
D03*
Y17000D02*
D03*
X50000Y23000D02*
D03*
Y17000D02*
D03*
X58500Y23000D02*
D03*
Y17000D02*
D03*
D52*
X31500Y2500D02*
D03*
X15500D02*
D03*
X8040Y7000D02*
D03*
X960Y3400D02*
D03*
D53*
X6460Y7000D02*
D03*
X4480D02*
D03*
X2500D02*
D03*
X2540Y3400D02*
D03*
X4520D02*
D03*
X6500D02*
D03*
D54*
X9622Y11598D02*
D03*
X11000D02*
D03*
Y24000D02*
D03*
X9622D02*
D03*
X11000Y22622D02*
D03*
X9622D02*
D03*
X11000Y21244D02*
D03*
X9622D02*
D03*
X11000Y19866D02*
D03*
X9622D02*
D03*
X11000Y18488D02*
D03*
X9622D02*
D03*
X11000Y17110D02*
D03*
X9622D02*
D03*
X11000Y15732D02*
D03*
X9622D02*
D03*
X11000Y14354D02*
D03*
X9622D02*
D03*
X11000Y12976D02*
D03*
X9622D02*
D03*
M02*
