G04 Layer_Physical_Order=2*
G04 Layer_Color=16711680*
%FSLAX24Y24*%
%MOIN*%
G70*
G01*
G75*
%ADD11C,0.0200*%
%ADD12C,0.0400*%
%ADD14C,0.0100*%
%ADD15C,0.0600*%
%ADD16R,0.0728X0.0728*%
%ADD17C,0.0728*%
%ADD18C,0.0799*%
%ADD19C,0.0950*%
%ADD20C,0.0644*%
%ADD21R,0.0644X0.0644*%
%ADD22C,0.0650*%
%ADD23R,0.0644X0.0644*%
%ADD24C,0.0290*%
%ADD25R,0.3000X0.3000*%
G36*
X68796Y4004D02*
X56204D01*
Y7100D01*
X56188Y7178D01*
X56144Y7244D01*
X56078Y7288D01*
X56000Y7304D01*
X19800D01*
X19722Y7288D01*
X19656Y7244D01*
X19612Y7178D01*
X19596Y7100D01*
Y4104D01*
X3304D01*
Y83496D01*
X68796D01*
Y4004D01*
D02*
G37*
%LPC*%
G36*
X49700Y32500D02*
X49644Y32456D01*
X49600Y32400D01*
X49700D01*
Y32500D01*
D02*
G37*
G36*
X48300D02*
Y32400D01*
X48400D01*
X48356Y32456D01*
X48300Y32500D01*
D02*
G37*
G36*
X50300D02*
Y32400D01*
X50400D01*
X50356Y32456D01*
X50300Y32500D01*
D02*
G37*
G36*
X12222Y32724D02*
X11578D01*
X11539Y32716D01*
X11506Y32694D01*
X11484Y32661D01*
X11476Y32622D01*
Y31978D01*
X11484Y31939D01*
X11506Y31906D01*
X11539Y31884D01*
X11578Y31876D01*
X12222D01*
X12261Y31884D01*
X12294Y31906D01*
X12316Y31939D01*
X12324Y31978D01*
Y32622D01*
X12316Y32661D01*
X12294Y32694D01*
X12261Y32716D01*
X12222Y32724D01*
D02*
G37*
G36*
X20000Y35602D02*
X17000D01*
X16961Y35594D01*
X16928Y35572D01*
X16906Y35539D01*
X16898Y35500D01*
Y32500D01*
X16906Y32461D01*
X16928Y32428D01*
X16961Y32406D01*
X17000Y32398D01*
X20000D01*
X20039Y32406D01*
X20072Y32428D01*
X20094Y32461D01*
X20102Y32500D01*
Y35500D01*
X20094Y35539D01*
X20072Y35572D01*
X20039Y35594D01*
X20000Y35602D01*
D02*
G37*
G36*
X47700Y32500D02*
X47644Y32456D01*
X47600Y32400D01*
X47700D01*
Y32500D01*
D02*
G37*
G36*
X33500Y34004D02*
X33370Y33987D01*
X33248Y33936D01*
X33144Y33856D01*
X33064Y33752D01*
X33013Y33630D01*
X32996Y33500D01*
X33013Y33370D01*
X33064Y33248D01*
X33144Y33144D01*
X33248Y33064D01*
X33370Y33013D01*
X33500Y32996D01*
X33630Y33013D01*
X33752Y33064D01*
X33856Y33144D01*
X33936Y33248D01*
X33987Y33370D01*
X34004Y33500D01*
X33987Y33630D01*
X33936Y33752D01*
X33856Y33856D01*
X33752Y33936D01*
X33630Y33987D01*
X33500Y34004D01*
D02*
G37*
G36*
X48000Y34604D02*
X47870Y34587D01*
X47748Y34536D01*
X47644Y34456D01*
X47564Y34352D01*
X47513Y34230D01*
X47496Y34100D01*
X47513Y33970D01*
X47564Y33848D01*
X47644Y33744D01*
X47748Y33664D01*
X47870Y33613D01*
X48000Y33596D01*
X48130Y33613D01*
X48252Y33664D01*
X48356Y33744D01*
X48436Y33848D01*
X48487Y33970D01*
X48504Y34100D01*
X48487Y34230D01*
X48436Y34352D01*
X48356Y34456D01*
X48252Y34536D01*
X48130Y34587D01*
X48000Y34604D01*
D02*
G37*
G36*
X50000D02*
X49870Y34587D01*
X49748Y34536D01*
X49644Y34456D01*
X49564Y34352D01*
X49513Y34230D01*
X49496Y34100D01*
X49513Y33970D01*
X49564Y33848D01*
X49644Y33744D01*
X49748Y33664D01*
X49870Y33613D01*
X50000Y33596D01*
X50130Y33613D01*
X50252Y33664D01*
X50356Y33744D01*
X50436Y33848D01*
X50487Y33970D01*
X50504Y34100D01*
X50487Y34230D01*
X50436Y34352D01*
X50356Y34456D01*
X50252Y34536D01*
X50130Y34587D01*
X50000Y34604D01*
D02*
G37*
G36*
X33500Y36004D02*
X33370Y35987D01*
X33248Y35936D01*
X33144Y35856D01*
X33064Y35752D01*
X33013Y35630D01*
X32996Y35500D01*
X33013Y35370D01*
X33064Y35248D01*
X33144Y35144D01*
X33248Y35064D01*
X33370Y35013D01*
X33500Y34996D01*
X33630Y35013D01*
X33752Y35064D01*
X33856Y35144D01*
X33936Y35248D01*
X33987Y35370D01*
X34004Y35500D01*
X33987Y35630D01*
X33936Y35752D01*
X33856Y35856D01*
X33752Y35936D01*
X33630Y35987D01*
X33500Y36004D01*
D02*
G37*
G36*
X35500Y34004D02*
X35370Y33987D01*
X35248Y33936D01*
X35144Y33856D01*
X35064Y33752D01*
X35013Y33630D01*
X34996Y33500D01*
X35013Y33370D01*
X35064Y33248D01*
X35144Y33144D01*
X35248Y33064D01*
X35370Y33013D01*
X35500Y32996D01*
X35630Y33013D01*
X35752Y33064D01*
X35856Y33144D01*
X35936Y33248D01*
X35987Y33370D01*
X36004Y33500D01*
X35987Y33630D01*
X35936Y33752D01*
X35856Y33856D01*
X35752Y33936D01*
X35630Y33987D01*
X35500Y34004D01*
D02*
G37*
G36*
X63100D02*
X62970Y33987D01*
X62848Y33936D01*
X62744Y33856D01*
X62664Y33752D01*
X62613Y33630D01*
X62596Y33500D01*
X62613Y33370D01*
X62664Y33248D01*
X62744Y33144D01*
X62848Y33064D01*
X62970Y33013D01*
X63100Y32996D01*
X63230Y33013D01*
X63352Y33064D01*
X63456Y33144D01*
X63536Y33248D01*
X63587Y33370D01*
X63604Y33500D01*
X63587Y33630D01*
X63536Y33752D01*
X63456Y33856D01*
X63352Y33936D01*
X63230Y33987D01*
X63100Y34004D01*
D02*
G37*
G36*
X65100D02*
X64970Y33987D01*
X64848Y33936D01*
X64744Y33856D01*
X64664Y33752D01*
X64613Y33630D01*
X64596Y33500D01*
X64613Y33370D01*
X64664Y33248D01*
X64744Y33144D01*
X64848Y33064D01*
X64970Y33013D01*
X65100Y32996D01*
X65230Y33013D01*
X65352Y33064D01*
X65456Y33144D01*
X65536Y33248D01*
X65587Y33370D01*
X65604Y33500D01*
X65587Y33630D01*
X65536Y33752D01*
X65456Y33856D01*
X65352Y33936D01*
X65230Y33987D01*
X65100Y34004D01*
D02*
G37*
G36*
X63100Y32004D02*
X62970Y31987D01*
X62848Y31936D01*
X62744Y31856D01*
X62664Y31752D01*
X62613Y31630D01*
X62596Y31500D01*
X62613Y31370D01*
X62664Y31248D01*
X62744Y31144D01*
X62848Y31064D01*
X62970Y31013D01*
X63100Y30996D01*
X63230Y31013D01*
X63352Y31064D01*
X63456Y31144D01*
X63536Y31248D01*
X63587Y31370D01*
X63604Y31500D01*
X63587Y31630D01*
X63536Y31752D01*
X63456Y31856D01*
X63352Y31936D01*
X63230Y31987D01*
X63100Y32004D01*
D02*
G37*
G36*
X65100D02*
X64970Y31987D01*
X64848Y31936D01*
X64744Y31856D01*
X64664Y31752D01*
X64613Y31630D01*
X64596Y31500D01*
X64613Y31370D01*
X64664Y31248D01*
X64744Y31144D01*
X64848Y31064D01*
X64970Y31013D01*
X65100Y30996D01*
X65230Y31013D01*
X65352Y31064D01*
X65456Y31144D01*
X65536Y31248D01*
X65587Y31370D01*
X65604Y31500D01*
X65587Y31630D01*
X65536Y31752D01*
X65456Y31856D01*
X65352Y31936D01*
X65230Y31987D01*
X65100Y32004D01*
D02*
G37*
G36*
X11600Y31016D02*
X11598D01*
X11599Y31015D01*
X11600Y31014D01*
Y31016D01*
D02*
G37*
G36*
X11054Y31027D02*
X11014D01*
X10922Y31008D01*
X10885Y30993D01*
X10807Y30941D01*
X10779Y30913D01*
X10727Y30835D01*
X10711Y30798D01*
X10693Y30706D01*
Y30696D01*
X10691Y30686D01*
X10693Y30676D01*
Y30666D01*
X10711Y30574D01*
X10727Y30537D01*
X10779Y30459D01*
X10807Y30431D01*
X10885Y30379D01*
X10922Y30363D01*
X11014Y30345D01*
X11054D01*
X11146Y30363D01*
X11183Y30379D01*
X11261Y30431D01*
X11289Y30459D01*
X11341Y30537D01*
X11356Y30574D01*
X11375Y30666D01*
Y30676D01*
X11377Y30686D01*
X11375Y30696D01*
Y30706D01*
X11356Y30798D01*
X11341Y30835D01*
X11289Y30913D01*
X11261Y30941D01*
X11183Y30993D01*
X11146Y31008D01*
X11054Y31027D01*
X11054Y31027D01*
D02*
G37*
G36*
X33500Y32004D02*
X33370Y31987D01*
X33248Y31936D01*
X33144Y31856D01*
X33064Y31752D01*
X33013Y31630D01*
X32996Y31500D01*
X33013Y31370D01*
X33064Y31248D01*
X33144Y31144D01*
X33248Y31064D01*
X33370Y31013D01*
X33500Y30996D01*
X33630Y31013D01*
X33752Y31064D01*
X33856Y31144D01*
X33936Y31248D01*
X33987Y31370D01*
X34004Y31500D01*
X33987Y31630D01*
X33936Y31752D01*
X33856Y31856D01*
X33752Y31936D01*
X33630Y31987D01*
X33500Y32004D01*
D02*
G37*
G36*
X35500D02*
X35370Y31987D01*
X35248Y31936D01*
X35144Y31856D01*
X35064Y31752D01*
X35013Y31630D01*
X34996Y31500D01*
X35013Y31370D01*
X35064Y31248D01*
X35144Y31144D01*
X35248Y31064D01*
X35370Y31013D01*
X35500Y30996D01*
X35630Y31013D01*
X35752Y31064D01*
X35856Y31144D01*
X35936Y31248D01*
X35987Y31370D01*
X36004Y31500D01*
X35987Y31630D01*
X35936Y31752D01*
X35856Y31856D01*
X35752Y31936D01*
X35630Y31987D01*
X35500Y32004D01*
D02*
G37*
G36*
X12202Y31016D02*
X12200D01*
Y31014D01*
X12201Y31015D01*
X12202Y31016D01*
D02*
G37*
G36*
X49700Y31800D02*
X49600D01*
X49644Y31744D01*
X49700Y31700D01*
Y31800D01*
D02*
G37*
G36*
X48400D02*
X48300D01*
Y31700D01*
X48356Y31744D01*
X48400Y31800D01*
D02*
G37*
G36*
X50400D02*
X50300D01*
Y31700D01*
X50356Y31744D01*
X50400Y31800D01*
D02*
G37*
G36*
X11600Y31617D02*
X11599Y31617D01*
X11598Y31616D01*
X11600D01*
Y31617D01*
D02*
G37*
G36*
X12200D02*
Y31616D01*
X12202D01*
X12201Y31617D01*
X12200Y31617D01*
D02*
G37*
G36*
X47700Y31800D02*
X47600D01*
X47644Y31744D01*
X47700Y31700D01*
Y31800D01*
D02*
G37*
G36*
X35500Y36004D02*
X35370Y35987D01*
X35248Y35936D01*
X35144Y35856D01*
X35064Y35752D01*
X35013Y35630D01*
X34996Y35500D01*
X35013Y35370D01*
X35064Y35248D01*
X35144Y35144D01*
X35248Y35064D01*
X35370Y35013D01*
X35500Y34996D01*
X35630Y35013D01*
X35752Y35064D01*
X35856Y35144D01*
X35936Y35248D01*
X35987Y35370D01*
X36004Y35500D01*
X35987Y35630D01*
X35936Y35752D01*
X35856Y35856D01*
X35752Y35936D01*
X35630Y35987D01*
X35500Y36004D01*
D02*
G37*
G36*
X63100Y40004D02*
X62970Y39987D01*
X62848Y39936D01*
X62744Y39856D01*
X62664Y39752D01*
X62613Y39630D01*
X62596Y39500D01*
X62613Y39370D01*
X62664Y39248D01*
X62744Y39144D01*
X62848Y39064D01*
X62970Y39013D01*
X63100Y38996D01*
X63230Y39013D01*
X63352Y39064D01*
X63456Y39144D01*
X63536Y39248D01*
X63587Y39370D01*
X63604Y39500D01*
X63587Y39630D01*
X63536Y39752D01*
X63456Y39856D01*
X63352Y39936D01*
X63230Y39987D01*
X63100Y40004D01*
D02*
G37*
G36*
X65100D02*
X64970Y39987D01*
X64848Y39936D01*
X64744Y39856D01*
X64664Y39752D01*
X64613Y39630D01*
X64596Y39500D01*
X64613Y39370D01*
X64664Y39248D01*
X64744Y39144D01*
X64848Y39064D01*
X64970Y39013D01*
X65100Y38996D01*
X65230Y39013D01*
X65352Y39064D01*
X65456Y39144D01*
X65536Y39248D01*
X65587Y39370D01*
X65604Y39500D01*
X65587Y39630D01*
X65536Y39752D01*
X65456Y39856D01*
X65352Y39936D01*
X65230Y39987D01*
X65100Y40004D01*
D02*
G37*
G36*
X48000Y40604D02*
X47870Y40587D01*
X47748Y40536D01*
X47644Y40456D01*
X47564Y40352D01*
X47513Y40230D01*
X47496Y40100D01*
X47513Y39970D01*
X47564Y39848D01*
X47644Y39744D01*
X47748Y39664D01*
X47870Y39613D01*
X48000Y39596D01*
X48130Y39613D01*
X48252Y39664D01*
X48356Y39744D01*
X48436Y39848D01*
X48487Y39970D01*
X48504Y40100D01*
X48487Y40230D01*
X48436Y40352D01*
X48356Y40456D01*
X48252Y40536D01*
X48130Y40587D01*
X48000Y40604D01*
D02*
G37*
G36*
X22000Y40004D02*
X21870Y39987D01*
X21748Y39936D01*
X21644Y39856D01*
X21564Y39752D01*
X21513Y39630D01*
X21496Y39500D01*
X21513Y39370D01*
X21564Y39248D01*
X21644Y39144D01*
X21748Y39064D01*
X21870Y39013D01*
X22000Y38996D01*
X22130Y39013D01*
X22252Y39064D01*
X22356Y39144D01*
X22436Y39248D01*
X22487Y39370D01*
X22504Y39500D01*
X22487Y39630D01*
X22436Y39752D01*
X22356Y39856D01*
X22252Y39936D01*
X22130Y39987D01*
X22000Y40004D01*
D02*
G37*
G36*
X33500D02*
X33370Y39987D01*
X33248Y39936D01*
X33144Y39856D01*
X33064Y39752D01*
X33013Y39630D01*
X32996Y39500D01*
X33013Y39370D01*
X33064Y39248D01*
X33144Y39144D01*
X33248Y39064D01*
X33370Y39013D01*
X33500Y38996D01*
X33630Y39013D01*
X33752Y39064D01*
X33856Y39144D01*
X33936Y39248D01*
X33987Y39370D01*
X34004Y39500D01*
X33987Y39630D01*
X33936Y39752D01*
X33856Y39856D01*
X33752Y39936D01*
X33630Y39987D01*
X33500Y40004D01*
D02*
G37*
G36*
X35500D02*
X35370Y39987D01*
X35248Y39936D01*
X35144Y39856D01*
X35064Y39752D01*
X35013Y39630D01*
X34996Y39500D01*
X35013Y39370D01*
X35064Y39248D01*
X35144Y39144D01*
X35248Y39064D01*
X35370Y39013D01*
X35500Y38996D01*
X35630Y39013D01*
X35752Y39064D01*
X35856Y39144D01*
X35936Y39248D01*
X35987Y39370D01*
X36004Y39500D01*
X35987Y39630D01*
X35936Y39752D01*
X35856Y39856D01*
X35752Y39936D01*
X35630Y39987D01*
X35500Y40004D01*
D02*
G37*
G36*
X50000Y40604D02*
X49870Y40587D01*
X49748Y40536D01*
X49644Y40456D01*
X49564Y40352D01*
X49513Y40230D01*
X49496Y40100D01*
X49513Y39970D01*
X49564Y39848D01*
X49644Y39744D01*
X49748Y39664D01*
X49870Y39613D01*
X50000Y39596D01*
X50130Y39613D01*
X50252Y39664D01*
X50356Y39744D01*
X50436Y39848D01*
X50487Y39970D01*
X50504Y40100D01*
X50487Y40230D01*
X50436Y40352D01*
X50356Y40456D01*
X50252Y40536D01*
X50130Y40587D01*
X50000Y40604D01*
D02*
G37*
G36*
X65100Y42004D02*
X64970Y41987D01*
X64848Y41936D01*
X64744Y41856D01*
X64664Y41752D01*
X64613Y41630D01*
X64596Y41500D01*
X64613Y41370D01*
X64664Y41248D01*
X64744Y41144D01*
X64848Y41064D01*
X64970Y41013D01*
X65100Y40996D01*
X65230Y41013D01*
X65352Y41064D01*
X65456Y41144D01*
X65536Y41248D01*
X65587Y41370D01*
X65604Y41500D01*
X65587Y41630D01*
X65536Y41752D01*
X65456Y41856D01*
X65352Y41936D01*
X65230Y41987D01*
X65100Y42004D01*
D02*
G37*
G36*
X33200Y41200D02*
X33100D01*
X33144Y41144D01*
X33200Y41100D01*
Y41200D01*
D02*
G37*
G36*
X35200D02*
X35100D01*
X35144Y41144D01*
X35200Y41100D01*
Y41200D01*
D02*
G37*
G36*
X20000Y42004D02*
X19870Y41987D01*
X19748Y41936D01*
X19644Y41856D01*
X19564Y41752D01*
X19513Y41630D01*
X19496Y41500D01*
X19513Y41370D01*
X19564Y41248D01*
X19644Y41144D01*
X19748Y41064D01*
X19870Y41013D01*
X20000Y40996D01*
X20130Y41013D01*
X20252Y41064D01*
X20356Y41144D01*
X20436Y41248D01*
X20487Y41370D01*
X20504Y41500D01*
X20487Y41630D01*
X20436Y41752D01*
X20356Y41856D01*
X20252Y41936D01*
X20130Y41987D01*
X20000Y42004D01*
D02*
G37*
G36*
X22000D02*
X21870Y41987D01*
X21748Y41936D01*
X21644Y41856D01*
X21564Y41752D01*
X21513Y41630D01*
X21496Y41500D01*
X21513Y41370D01*
X21564Y41248D01*
X21644Y41144D01*
X21748Y41064D01*
X21870Y41013D01*
X22000Y40996D01*
X22130Y41013D01*
X22252Y41064D01*
X22356Y41144D01*
X22436Y41248D01*
X22487Y41370D01*
X22504Y41500D01*
X22487Y41630D01*
X22436Y41752D01*
X22356Y41856D01*
X22252Y41936D01*
X22130Y41987D01*
X22000Y42004D01*
D02*
G37*
G36*
X63100D02*
X62970Y41987D01*
X62848Y41936D01*
X62744Y41856D01*
X62664Y41752D01*
X62613Y41630D01*
X62596Y41500D01*
X62613Y41370D01*
X62664Y41248D01*
X62744Y41144D01*
X62848Y41064D01*
X62970Y41013D01*
X63100Y40996D01*
X63230Y41013D01*
X63352Y41064D01*
X63456Y41144D01*
X63536Y41248D01*
X63587Y41370D01*
X63604Y41500D01*
X63587Y41630D01*
X63536Y41752D01*
X63456Y41856D01*
X63352Y41936D01*
X63230Y41987D01*
X63100Y42004D01*
D02*
G37*
G36*
X50000Y36604D02*
X49870Y36587D01*
X49748Y36536D01*
X49644Y36456D01*
X49564Y36352D01*
X49513Y36230D01*
X49496Y36100D01*
X49513Y35970D01*
X49564Y35848D01*
X49644Y35744D01*
X49748Y35664D01*
X49870Y35613D01*
X50000Y35596D01*
X50130Y35613D01*
X50252Y35664D01*
X50356Y35744D01*
X50436Y35848D01*
X50487Y35970D01*
X50504Y36100D01*
X50487Y36230D01*
X50436Y36352D01*
X50356Y36456D01*
X50252Y36536D01*
X50130Y36587D01*
X50000Y36604D01*
D02*
G37*
G36*
X20000Y38004D02*
X19870Y37987D01*
X19748Y37936D01*
X19644Y37856D01*
X19564Y37752D01*
X19513Y37630D01*
X19496Y37500D01*
X19513Y37370D01*
X19564Y37248D01*
X19644Y37144D01*
X19748Y37064D01*
X19870Y37013D01*
X20000Y36996D01*
X20130Y37013D01*
X20252Y37064D01*
X20356Y37144D01*
X20436Y37248D01*
X20487Y37370D01*
X20504Y37500D01*
X20487Y37630D01*
X20436Y37752D01*
X20356Y37856D01*
X20252Y37936D01*
X20130Y37987D01*
X20000Y38004D01*
D02*
G37*
G36*
X22000D02*
X21870Y37987D01*
X21748Y37936D01*
X21644Y37856D01*
X21564Y37752D01*
X21513Y37630D01*
X21496Y37500D01*
X21513Y37370D01*
X21564Y37248D01*
X21644Y37144D01*
X21748Y37064D01*
X21870Y37013D01*
X22000Y36996D01*
X22130Y37013D01*
X22252Y37064D01*
X22356Y37144D01*
X22436Y37248D01*
X22487Y37370D01*
X22504Y37500D01*
X22487Y37630D01*
X22436Y37752D01*
X22356Y37856D01*
X22252Y37936D01*
X22130Y37987D01*
X22000Y38004D01*
D02*
G37*
G36*
X63100Y36004D02*
X62970Y35987D01*
X62848Y35936D01*
X62744Y35856D01*
X62664Y35752D01*
X62613Y35630D01*
X62596Y35500D01*
X62613Y35370D01*
X62664Y35248D01*
X62744Y35144D01*
X62848Y35064D01*
X62970Y35013D01*
X63100Y34996D01*
X63230Y35013D01*
X63352Y35064D01*
X63456Y35144D01*
X63536Y35248D01*
X63587Y35370D01*
X63604Y35500D01*
X63587Y35630D01*
X63536Y35752D01*
X63456Y35856D01*
X63352Y35936D01*
X63230Y35987D01*
X63100Y36004D01*
D02*
G37*
G36*
X65100D02*
X64970Y35987D01*
X64848Y35936D01*
X64744Y35856D01*
X64664Y35752D01*
X64613Y35630D01*
X64596Y35500D01*
X64613Y35370D01*
X64664Y35248D01*
X64744Y35144D01*
X64848Y35064D01*
X64970Y35013D01*
X65100Y34996D01*
X65230Y35013D01*
X65352Y35064D01*
X65456Y35144D01*
X65536Y35248D01*
X65587Y35370D01*
X65604Y35500D01*
X65587Y35630D01*
X65536Y35752D01*
X65456Y35856D01*
X65352Y35936D01*
X65230Y35987D01*
X65100Y36004D01*
D02*
G37*
G36*
X48000Y36604D02*
X47870Y36587D01*
X47748Y36536D01*
X47644Y36456D01*
X47564Y36352D01*
X47513Y36230D01*
X47496Y36100D01*
X47513Y35970D01*
X47564Y35848D01*
X47644Y35744D01*
X47748Y35664D01*
X47870Y35613D01*
X48000Y35596D01*
X48130Y35613D01*
X48252Y35664D01*
X48356Y35744D01*
X48436Y35848D01*
X48487Y35970D01*
X48504Y36100D01*
X48487Y36230D01*
X48436Y36352D01*
X48356Y36456D01*
X48252Y36536D01*
X48130Y36587D01*
X48000Y36604D01*
D02*
G37*
G36*
X33500Y38004D02*
X33370Y37987D01*
X33248Y37936D01*
X33144Y37856D01*
X33064Y37752D01*
X33013Y37630D01*
X32996Y37500D01*
X33013Y37370D01*
X33064Y37248D01*
X33144Y37144D01*
X33248Y37064D01*
X33370Y37013D01*
X33500Y36996D01*
X33630Y37013D01*
X33752Y37064D01*
X33856Y37144D01*
X33936Y37248D01*
X33987Y37370D01*
X34004Y37500D01*
X33987Y37630D01*
X33936Y37752D01*
X33856Y37856D01*
X33752Y37936D01*
X33630Y37987D01*
X33500Y38004D01*
D02*
G37*
G36*
X48000Y38604D02*
X47870Y38587D01*
X47748Y38536D01*
X47644Y38456D01*
X47564Y38352D01*
X47513Y38230D01*
X47496Y38100D01*
X47513Y37970D01*
X47564Y37848D01*
X47644Y37744D01*
X47748Y37664D01*
X47870Y37613D01*
X48000Y37596D01*
X48130Y37613D01*
X48252Y37664D01*
X48356Y37744D01*
X48436Y37848D01*
X48487Y37970D01*
X48504Y38100D01*
X48487Y38230D01*
X48436Y38352D01*
X48356Y38456D01*
X48252Y38536D01*
X48130Y38587D01*
X48000Y38604D01*
D02*
G37*
G36*
X50000D02*
X49870Y38587D01*
X49748Y38536D01*
X49644Y38456D01*
X49564Y38352D01*
X49513Y38230D01*
X49496Y38100D01*
X49513Y37970D01*
X49564Y37848D01*
X49644Y37744D01*
X49748Y37664D01*
X49870Y37613D01*
X50000Y37596D01*
X50130Y37613D01*
X50252Y37664D01*
X50356Y37744D01*
X50436Y37848D01*
X50487Y37970D01*
X50504Y38100D01*
X50487Y38230D01*
X50436Y38352D01*
X50356Y38456D01*
X50252Y38536D01*
X50130Y38587D01*
X50000Y38604D01*
D02*
G37*
G36*
X20000Y40004D02*
X19870Y39987D01*
X19748Y39936D01*
X19644Y39856D01*
X19564Y39752D01*
X19513Y39630D01*
X19496Y39500D01*
X19513Y39370D01*
X19564Y39248D01*
X19644Y39144D01*
X19748Y39064D01*
X19870Y39013D01*
X20000Y38996D01*
X20130Y39013D01*
X20252Y39064D01*
X20356Y39144D01*
X20436Y39248D01*
X20487Y39370D01*
X20504Y39500D01*
X20487Y39630D01*
X20436Y39752D01*
X20356Y39856D01*
X20252Y39936D01*
X20130Y39987D01*
X20000Y40004D01*
D02*
G37*
G36*
X35500Y38004D02*
X35370Y37987D01*
X35248Y37936D01*
X35144Y37856D01*
X35064Y37752D01*
X35013Y37630D01*
X34996Y37500D01*
X35013Y37370D01*
X35064Y37248D01*
X35144Y37144D01*
X35248Y37064D01*
X35370Y37013D01*
X35500Y36996D01*
X35630Y37013D01*
X35752Y37064D01*
X35856Y37144D01*
X35936Y37248D01*
X35987Y37370D01*
X36004Y37500D01*
X35987Y37630D01*
X35936Y37752D01*
X35856Y37856D01*
X35752Y37936D01*
X35630Y37987D01*
X35500Y38004D01*
D02*
G37*
G36*
X63100D02*
X62970Y37987D01*
X62848Y37936D01*
X62744Y37856D01*
X62664Y37752D01*
X62613Y37630D01*
X62596Y37500D01*
X62613Y37370D01*
X62664Y37248D01*
X62744Y37144D01*
X62848Y37064D01*
X62970Y37013D01*
X63100Y36996D01*
X63230Y37013D01*
X63352Y37064D01*
X63456Y37144D01*
X63536Y37248D01*
X63587Y37370D01*
X63604Y37500D01*
X63587Y37630D01*
X63536Y37752D01*
X63456Y37856D01*
X63352Y37936D01*
X63230Y37987D01*
X63100Y38004D01*
D02*
G37*
G36*
X65100D02*
X64970Y37987D01*
X64848Y37936D01*
X64744Y37856D01*
X64664Y37752D01*
X64613Y37630D01*
X64596Y37500D01*
X64613Y37370D01*
X64664Y37248D01*
X64744Y37144D01*
X64848Y37064D01*
X64970Y37013D01*
X65100Y36996D01*
X65230Y37013D01*
X65352Y37064D01*
X65456Y37144D01*
X65536Y37248D01*
X65587Y37370D01*
X65604Y37500D01*
X65587Y37630D01*
X65536Y37752D01*
X65456Y37856D01*
X65352Y37936D01*
X65230Y37987D01*
X65100Y38004D01*
D02*
G37*
G36*
X25350Y17830D02*
X25200Y17810D01*
X25060Y17752D01*
X24940Y17660D01*
X24848Y17540D01*
X24790Y17400D01*
X24770Y17250D01*
X24790Y17100D01*
X24848Y16960D01*
X24940Y16840D01*
X25060Y16748D01*
X25200Y16690D01*
X25350Y16670D01*
X25500Y16690D01*
X25640Y16748D01*
X25760Y16840D01*
X25852Y16960D01*
X25910Y17100D01*
X25930Y17250D01*
X25910Y17400D01*
X25852Y17540D01*
X25760Y17660D01*
X25640Y17752D01*
X25500Y17810D01*
X25350Y17830D01*
D02*
G37*
G36*
X6500Y17749D02*
X6389Y17734D01*
X6286Y17691D01*
X6197Y17623D01*
X6129Y17534D01*
X6086Y17431D01*
X6071Y17320D01*
X6086Y17209D01*
X6129Y17106D01*
X6197Y17017D01*
X6286Y16949D01*
X6389Y16906D01*
X6500Y16891D01*
X6611Y16906D01*
X6714Y16949D01*
X6803Y17017D01*
X6871Y17106D01*
X6914Y17209D01*
X6929Y17320D01*
X6914Y17431D01*
X6871Y17534D01*
X6803Y17623D01*
X6714Y17691D01*
X6611Y17734D01*
X6500Y17749D01*
D02*
G37*
G36*
X7680D02*
X7569Y17734D01*
X7466Y17691D01*
X7377Y17623D01*
X7309Y17534D01*
X7266Y17431D01*
X7251Y17320D01*
X7266Y17209D01*
X7309Y17106D01*
X7377Y17017D01*
X7466Y16949D01*
X7569Y16906D01*
X7680Y16891D01*
X7791Y16906D01*
X7894Y16949D01*
X7983Y17017D01*
X8051Y17106D01*
X8094Y17209D01*
X8109Y17320D01*
X8094Y17431D01*
X8051Y17534D01*
X7983Y17623D01*
X7894Y17691D01*
X7791Y17734D01*
X7680Y17749D01*
D02*
G37*
G36*
X16500Y16826D02*
X16284Y16610D01*
X16368Y16585D01*
X16500Y16572D01*
X16632Y16585D01*
X16716Y16610D01*
X16500Y16826D01*
D02*
G37*
G36*
X19450D02*
X19234Y16610D01*
X19318Y16585D01*
X19450Y16572D01*
X19582Y16585D01*
X19666Y16610D01*
X19450Y16826D01*
D02*
G37*
G36*
X22400Y17830D02*
X22250Y17810D01*
X22110Y17752D01*
X21990Y17660D01*
X21898Y17540D01*
X21840Y17400D01*
X21820Y17250D01*
X21840Y17100D01*
X21898Y16960D01*
X21990Y16840D01*
X22110Y16748D01*
X22250Y16690D01*
X22400Y16670D01*
X22550Y16690D01*
X22690Y16748D01*
X22810Y16840D01*
X22902Y16960D01*
X22960Y17100D01*
X22980Y17250D01*
X22960Y17400D01*
X22902Y17540D01*
X22810Y17660D01*
X22690Y17752D01*
X22550Y17810D01*
X22400Y17830D01*
D02*
G37*
G36*
X8860Y17749D02*
X8749Y17734D01*
X8646Y17691D01*
X8557Y17623D01*
X8489Y17534D01*
X8446Y17431D01*
X8431Y17320D01*
X8446Y17209D01*
X8489Y17106D01*
X8557Y17017D01*
X8646Y16949D01*
X8749Y16906D01*
X8860Y16891D01*
X8971Y16906D01*
X9074Y16949D01*
X9163Y17017D01*
X9231Y17106D01*
X9274Y17209D01*
X9289Y17320D01*
X9274Y17431D01*
X9231Y17534D01*
X9163Y17623D01*
X9074Y17691D01*
X8971Y17734D01*
X8860Y17749D01*
D02*
G37*
G36*
X42500Y18580D02*
X42350Y18560D01*
X42210Y18502D01*
X42090Y18410D01*
X41998Y18290D01*
X41940Y18150D01*
X41920Y18000D01*
X41940Y17850D01*
X41998Y17710D01*
X42090Y17590D01*
X42210Y17498D01*
X42350Y17440D01*
X42500Y17420D01*
X42650Y17440D01*
X42790Y17498D01*
X42910Y17590D01*
X43002Y17710D01*
X43060Y17850D01*
X43080Y18000D01*
X43060Y18150D01*
X43002Y18290D01*
X42910Y18410D01*
X42790Y18502D01*
X42650Y18560D01*
X42500Y18580D01*
D02*
G37*
G36*
X36300Y17700D02*
X36105D01*
X36190Y17590D01*
X36300Y17505D01*
Y17700D01*
D02*
G37*
G36*
X37095D02*
X36900D01*
Y17505D01*
X37010Y17590D01*
X37095Y17700D01*
D02*
G37*
G36*
X9740Y17020D02*
X9735D01*
X9737Y17017D01*
X9740Y17014D01*
Y17020D01*
D02*
G37*
G36*
X10345D02*
X10340D01*
Y17014D01*
X10343Y17017D01*
X10345Y17020D01*
D02*
G37*
G36*
X39550Y18580D02*
X39400Y18560D01*
X39260Y18502D01*
X39140Y18410D01*
X39048Y18290D01*
X38990Y18150D01*
X38970Y18000D01*
X38990Y17850D01*
X39048Y17710D01*
X39140Y17590D01*
X39260Y17498D01*
X39400Y17440D01*
X39550Y17420D01*
X39700Y17440D01*
X39840Y17498D01*
X39960Y17590D01*
X40052Y17710D01*
X40110Y17850D01*
X40130Y18000D01*
X40110Y18150D01*
X40052Y18290D01*
X39960Y18410D01*
X39840Y18502D01*
X39700Y18560D01*
X39550Y18580D01*
D02*
G37*
G36*
X10303Y8000D02*
X10100D01*
Y7797D01*
X10104Y7800D01*
X10205Y7877D01*
X10213Y7887D01*
X10223Y7895D01*
X10300Y7996D01*
X10303Y8000D01*
D02*
G37*
G36*
X63200Y8703D02*
X63196Y8700D01*
X63095Y8623D01*
X63087Y8613D01*
X63077Y8605D01*
X63000Y8504D01*
X62997Y8500D01*
X63200D01*
Y8703D01*
D02*
G37*
G36*
X63800Y8703D02*
Y8500D01*
X64003D01*
X64000Y8504D01*
X63923Y8605D01*
X63913Y8613D01*
X63905Y8623D01*
X63804Y8700D01*
X63800Y8703D01*
D02*
G37*
G36*
X63200Y7900D02*
X62997D01*
X63000Y7896D01*
X63077Y7795D01*
X63087Y7787D01*
X63095Y7777D01*
X63196Y7700D01*
X63200Y7697D01*
Y7900D01*
D02*
G37*
G36*
X64003D02*
X63800D01*
Y7697D01*
X63804Y7700D01*
X63905Y7777D01*
X63913Y7787D01*
X63923Y7795D01*
X64000Y7896D01*
X64003Y7900D01*
D02*
G37*
G36*
X9500Y8000D02*
X9297D01*
X9300Y7996D01*
X9377Y7895D01*
X9387Y7887D01*
X9395Y7877D01*
X9496Y7800D01*
X9500Y7797D01*
Y8000D01*
D02*
G37*
G36*
Y8803D02*
X9496Y8800D01*
X9395Y8723D01*
X9387Y8713D01*
X9377Y8705D01*
X9300Y8604D01*
X9297Y8600D01*
X9500D01*
Y8803D01*
D02*
G37*
G36*
X28484Y11925D02*
X28374Y11911D01*
X28272Y11868D01*
X28183Y11801D01*
X28116Y11713D01*
X28073Y11610D01*
X28059Y11500D01*
X28073Y11390D01*
X28116Y11287D01*
X28183Y11199D01*
X28272Y11132D01*
X28374Y11089D01*
X28484Y11075D01*
X28594Y11089D01*
X28697Y11132D01*
X28785Y11199D01*
X28853Y11287D01*
X28895Y11390D01*
X28910Y11500D01*
X28895Y11610D01*
X28853Y11713D01*
X28785Y11801D01*
X28697Y11868D01*
X28594Y11911D01*
X28484Y11925D01*
D02*
G37*
G36*
X27822Y11924D02*
X27178D01*
X27139Y11916D01*
X27106Y11894D01*
X27084Y11861D01*
X27076Y11822D01*
Y11178D01*
X27084Y11139D01*
X27106Y11106D01*
X27139Y11084D01*
X27178Y11076D01*
X27822D01*
X27861Y11084D01*
X27894Y11106D01*
X27916Y11139D01*
X27924Y11178D01*
Y11822D01*
X27916Y11861D01*
X27894Y11894D01*
X27861Y11916D01*
X27822Y11924D01*
D02*
G37*
G36*
X17764Y12566D02*
X17036D01*
X16997Y12558D01*
X16964Y12536D01*
X16942Y12503D01*
X16934Y12464D01*
Y11736D01*
X16942Y11697D01*
X16964Y11664D01*
X16997Y11642D01*
X17036Y11634D01*
X17764D01*
X17803Y11642D01*
X17836Y11664D01*
X17858Y11697D01*
X17866Y11736D01*
Y12464D01*
X17858Y12503D01*
X17836Y12536D01*
X17803Y12558D01*
X17764Y12566D01*
D02*
G37*
G36*
X10100Y8803D02*
Y8600D01*
X10303D01*
X10300Y8604D01*
X10223Y8705D01*
X10213Y8713D01*
X10205Y8723D01*
X10104Y8800D01*
X10100Y8803D01*
D02*
G37*
G36*
X17400Y10568D02*
X17279Y10552D01*
X17166Y10505D01*
X17069Y10431D01*
X16995Y10334D01*
X16948Y10221D01*
X16932Y10100D01*
X16948Y9979D01*
X16995Y9866D01*
X17069Y9769D01*
X17166Y9695D01*
X17279Y9648D01*
X17400Y9632D01*
X17521Y9648D01*
X17634Y9695D01*
X17731Y9769D01*
X17805Y9866D01*
X17852Y9979D01*
X17868Y10100D01*
X17852Y10221D01*
X17805Y10334D01*
X17731Y10431D01*
X17634Y10505D01*
X17521Y10552D01*
X17400Y10568D01*
D02*
G37*
G36*
X29114Y10977D02*
X29104Y10975D01*
X29094D01*
X29002Y10956D01*
X28965Y10941D01*
X28887Y10889D01*
X28859Y10861D01*
X28807Y10783D01*
X28792Y10746D01*
X28773Y10654D01*
Y10614D01*
X28792Y10522D01*
X28807Y10485D01*
X28859Y10407D01*
X28887Y10379D01*
X28965Y10327D01*
X29002Y10311D01*
X29094Y10293D01*
X29104D01*
X29114Y10291D01*
X29124Y10293D01*
X29134D01*
X29226Y10311D01*
X29263Y10327D01*
X29341Y10379D01*
X29369Y10407D01*
X29421Y10485D01*
X29437Y10522D01*
X29455Y10614D01*
Y10654D01*
X29437Y10746D01*
X29421Y10783D01*
X29369Y10861D01*
X29341Y10889D01*
X29263Y10941D01*
X29226Y10956D01*
X29134Y10975D01*
X29124D01*
X29114Y10977D01*
D02*
G37*
G36*
X9740Y17625D02*
X9737Y17623D01*
X9735Y17620D01*
X9740D01*
Y17625D01*
D02*
G37*
G36*
X42500Y19830D02*
X42350Y19810D01*
X42210Y19752D01*
X42090Y19660D01*
X41998Y19540D01*
X41940Y19400D01*
X41920Y19250D01*
X41940Y19100D01*
X41998Y18960D01*
X42090Y18840D01*
X42210Y18748D01*
X42350Y18690D01*
X42500Y18670D01*
X42650Y18690D01*
X42790Y18748D01*
X42910Y18840D01*
X43002Y18960D01*
X43060Y19100D01*
X43080Y19250D01*
X43060Y19400D01*
X43002Y19540D01*
X42910Y19660D01*
X42790Y19752D01*
X42650Y19810D01*
X42500Y19830D01*
D02*
G37*
G36*
X36300Y18950D02*
X36105D01*
X36190Y18840D01*
X36300Y18755D01*
Y18950D01*
D02*
G37*
G36*
X37095D02*
X36900D01*
Y18755D01*
X37010Y18840D01*
X37095Y18950D01*
D02*
G37*
G36*
X34730Y18595D02*
X34725Y18594D01*
X34720Y18594D01*
X34604Y18583D01*
X34595Y18580D01*
X34585Y18579D01*
X34474Y18545D01*
X34465Y18541D01*
X34455Y18538D01*
X34353Y18483D01*
X34345Y18476D01*
X34336Y18472D01*
X34246Y18398D01*
X34240Y18390D01*
X34232Y18384D01*
X34158Y18294D01*
X34154Y18285D01*
X34147Y18277D01*
X34092Y18175D01*
X34089Y18165D01*
X34085Y18156D01*
X34051Y18045D01*
X34050Y18035D01*
X34047Y18026D01*
X34036Y17910D01*
X34037Y17900D01*
X34036Y17890D01*
X34047Y17774D01*
X34050Y17765D01*
X34051Y17755D01*
X34085Y17644D01*
X34089Y17635D01*
X34092Y17625D01*
X34147Y17523D01*
X34154Y17515D01*
X34158Y17506D01*
X34232Y17416D01*
X34240Y17410D01*
X34246Y17402D01*
X34336Y17328D01*
X34345Y17324D01*
X34353Y17317D01*
X34455Y17262D01*
X34465Y17259D01*
X34474Y17255D01*
X34585Y17221D01*
X34595Y17220D01*
X34604Y17217D01*
X34720Y17206D01*
X34725Y17206D01*
X34730Y17205D01*
X34735Y17206D01*
X34740Y17206D01*
X34856Y17217D01*
X34865Y17220D01*
X34875Y17221D01*
X34986Y17255D01*
X34995Y17259D01*
X35005Y17262D01*
X35107Y17317D01*
X35115Y17324D01*
X35124Y17328D01*
X35214Y17402D01*
X35220Y17410D01*
X35228Y17416D01*
X35302Y17506D01*
X35306Y17515D01*
X35313Y17523D01*
X35368Y17625D01*
X35371Y17635D01*
X35375Y17644D01*
X35409Y17755D01*
X35410Y17765D01*
X35413Y17774D01*
X35424Y17890D01*
X35423Y17900D01*
X35424Y17910D01*
X35413Y18026D01*
X35410Y18035D01*
X35409Y18045D01*
X35375Y18156D01*
X35371Y18165D01*
X35368Y18175D01*
X35313Y18277D01*
X35306Y18285D01*
X35302Y18294D01*
X35228Y18384D01*
X35220Y18390D01*
X35214Y18398D01*
X35124Y18472D01*
X35115Y18476D01*
X35107Y18483D01*
X35005Y18538D01*
X34995Y18541D01*
X34986Y18545D01*
X34875Y18579D01*
X34865Y18580D01*
X34856Y18583D01*
X34740Y18594D01*
X34735Y18594D01*
X34730Y18595D01*
D02*
G37*
G36*
X44370D02*
X44365Y18594D01*
X44360Y18594D01*
X44244Y18583D01*
X44235Y18580D01*
X44225Y18579D01*
X44114Y18545D01*
X44105Y18541D01*
X44095Y18538D01*
X43993Y18483D01*
X43985Y18476D01*
X43976Y18472D01*
X43886Y18398D01*
X43880Y18390D01*
X43872Y18384D01*
X43798Y18294D01*
X43794Y18285D01*
X43787Y18277D01*
X43732Y18175D01*
X43729Y18165D01*
X43725Y18156D01*
X43691Y18045D01*
X43690Y18035D01*
X43687Y18026D01*
X43676Y17910D01*
X43677Y17900D01*
X43676Y17890D01*
X43687Y17774D01*
X43690Y17765D01*
X43691Y17755D01*
X43725Y17644D01*
X43729Y17635D01*
X43732Y17625D01*
X43787Y17523D01*
X43794Y17515D01*
X43798Y17506D01*
X43872Y17416D01*
X43880Y17410D01*
X43886Y17402D01*
X43976Y17328D01*
X43985Y17324D01*
X43993Y17317D01*
X44095Y17262D01*
X44105Y17259D01*
X44114Y17255D01*
X44225Y17221D01*
X44235Y17220D01*
X44244Y17217D01*
X44360Y17206D01*
X44365Y17206D01*
X44370Y17205D01*
X44375Y17206D01*
X44380Y17206D01*
X44496Y17217D01*
X44505Y17220D01*
X44515Y17221D01*
X44626Y17255D01*
X44635Y17259D01*
X44645Y17262D01*
X44747Y17317D01*
X44755Y17324D01*
X44764Y17328D01*
X44854Y17402D01*
X44860Y17410D01*
X44868Y17416D01*
X44942Y17506D01*
X44946Y17515D01*
X44953Y17523D01*
X45008Y17625D01*
X45011Y17635D01*
X45015Y17644D01*
X45049Y17755D01*
X45050Y17765D01*
X45053Y17774D01*
X45064Y17890D01*
X45063Y17900D01*
X45064Y17910D01*
X45053Y18026D01*
X45050Y18035D01*
X45049Y18045D01*
X45015Y18156D01*
X45011Y18165D01*
X45008Y18175D01*
X44953Y18277D01*
X44946Y18285D01*
X44942Y18294D01*
X44868Y18384D01*
X44860Y18390D01*
X44854Y18398D01*
X44764Y18472D01*
X44755Y18476D01*
X44747Y18483D01*
X44645Y18538D01*
X44635Y18541D01*
X44626Y18545D01*
X44515Y18579D01*
X44505Y18580D01*
X44496Y18583D01*
X44380Y18594D01*
X44375Y18594D01*
X44370Y18595D01*
D02*
G37*
G36*
X39550Y19830D02*
X39400Y19810D01*
X39260Y19752D01*
X39140Y19660D01*
X39048Y19540D01*
X38990Y19400D01*
X38970Y19250D01*
X38990Y19100D01*
X39048Y18960D01*
X39140Y18840D01*
X39260Y18748D01*
X39400Y18690D01*
X39550Y18670D01*
X39700Y18690D01*
X39840Y18748D01*
X39960Y18840D01*
X40052Y18960D01*
X40110Y19100D01*
X40130Y19250D01*
X40110Y19400D01*
X40052Y19540D01*
X39960Y19660D01*
X39840Y19752D01*
X39700Y19810D01*
X39550Y19830D01*
D02*
G37*
G36*
X16500Y19178D02*
X16368Y19165D01*
X16284Y19140D01*
X16500Y18924D01*
X16716Y19140D01*
X16632Y19165D01*
X16500Y19178D01*
D02*
G37*
G36*
X36300Y19745D02*
X36190Y19660D01*
X36105Y19550D01*
X36300D01*
Y19745D01*
D02*
G37*
G36*
X36900D02*
Y19550D01*
X37095D01*
X37010Y19660D01*
X36900Y19745D01*
D02*
G37*
G36*
X6000Y22803D02*
X5922Y22792D01*
X5849Y22762D01*
X5786Y22714D01*
X5738Y22651D01*
X5708Y22578D01*
X5697Y22500D01*
X5708Y22422D01*
X5738Y22349D01*
X5786Y22286D01*
X7286Y20786D01*
X7349Y20738D01*
X7422Y20708D01*
X7500Y20697D01*
X7578Y20708D01*
X7651Y20738D01*
X7714Y20786D01*
X7762Y20849D01*
X7792Y20922D01*
X7803Y21000D01*
X7792Y21078D01*
X7762Y21151D01*
X7714Y21214D01*
X6214Y22714D01*
X6151Y22762D01*
X6078Y22792D01*
X6000Y22803D01*
D02*
G37*
G36*
X19450Y19178D02*
X19318Y19165D01*
X19234Y19140D01*
X19450Y18924D01*
X19666Y19140D01*
X19582Y19165D01*
X19450Y19178D01*
D02*
G37*
G36*
X14630Y19295D02*
X14625Y19294D01*
X14620Y19294D01*
X14504Y19283D01*
X14495Y19280D01*
X14485Y19279D01*
X14374Y19245D01*
X14365Y19241D01*
X14355Y19238D01*
X14253Y19183D01*
X14245Y19176D01*
X14236Y19172D01*
X14146Y19098D01*
X14140Y19090D01*
X14132Y19084D01*
X14058Y18994D01*
X14054Y18985D01*
X14047Y18977D01*
X13992Y18875D01*
X13989Y18865D01*
X13985Y18856D01*
X13951Y18745D01*
X13950Y18735D01*
X13947Y18726D01*
X13936Y18610D01*
X13937Y18600D01*
X13936Y18590D01*
X13947Y18474D01*
X13950Y18465D01*
X13951Y18455D01*
X13985Y18344D01*
X13989Y18335D01*
X13992Y18325D01*
X14047Y18223D01*
X14054Y18215D01*
X14058Y18206D01*
X14132Y18116D01*
X14140Y18110D01*
X14146Y18102D01*
X14236Y18028D01*
X14245Y18024D01*
X14253Y18017D01*
X14355Y17962D01*
X14365Y17959D01*
X14374Y17955D01*
X14485Y17921D01*
X14495Y17920D01*
X14504Y17917D01*
X14620Y17906D01*
X14625Y17906D01*
X14630Y17905D01*
X14635Y17906D01*
X14640Y17906D01*
X14756Y17917D01*
X14765Y17920D01*
X14775Y17921D01*
X14886Y17955D01*
X14895Y17959D01*
X14905Y17962D01*
X15007Y18017D01*
X15015Y18024D01*
X15024Y18028D01*
X15114Y18102D01*
X15120Y18110D01*
X15128Y18116D01*
X15202Y18206D01*
X15206Y18215D01*
X15213Y18223D01*
X15268Y18325D01*
X15271Y18335D01*
X15275Y18344D01*
X15309Y18455D01*
X15310Y18465D01*
X15313Y18474D01*
X15324Y18590D01*
X15323Y18600D01*
X15324Y18610D01*
X15313Y18726D01*
X15310Y18735D01*
X15309Y18745D01*
X15275Y18856D01*
X15271Y18865D01*
X15268Y18875D01*
X15213Y18977D01*
X15206Y18985D01*
X15202Y18994D01*
X15128Y19084D01*
X15120Y19090D01*
X15114Y19098D01*
X15024Y19172D01*
X15015Y19176D01*
X15007Y19183D01*
X14905Y19238D01*
X14895Y19241D01*
X14886Y19245D01*
X14775Y19279D01*
X14765Y19280D01*
X14756Y19283D01*
X14640Y19294D01*
X14635Y19294D01*
X14630Y19295D01*
D02*
G37*
G36*
X27220D02*
X27215Y19294D01*
X27210Y19294D01*
X27094Y19283D01*
X27085Y19280D01*
X27075Y19279D01*
X26964Y19245D01*
X26955Y19241D01*
X26945Y19238D01*
X26843Y19183D01*
X26835Y19176D01*
X26826Y19172D01*
X26736Y19098D01*
X26730Y19090D01*
X26722Y19084D01*
X26648Y18994D01*
X26644Y18985D01*
X26637Y18977D01*
X26582Y18875D01*
X26579Y18865D01*
X26575Y18856D01*
X26541Y18745D01*
X26540Y18735D01*
X26537Y18726D01*
X26526Y18610D01*
X26527Y18600D01*
X26526Y18590D01*
X26537Y18474D01*
X26540Y18465D01*
X26541Y18455D01*
X26575Y18344D01*
X26579Y18335D01*
X26582Y18325D01*
X26637Y18223D01*
X26644Y18215D01*
X26648Y18206D01*
X26722Y18116D01*
X26730Y18110D01*
X26736Y18102D01*
X26826Y18028D01*
X26835Y18024D01*
X26843Y18017D01*
X26945Y17962D01*
X26955Y17959D01*
X26964Y17955D01*
X27075Y17921D01*
X27085Y17920D01*
X27094Y17917D01*
X27210Y17906D01*
X27215Y17906D01*
X27220Y17905D01*
X27225Y17906D01*
X27230Y17906D01*
X27346Y17917D01*
X27355Y17920D01*
X27365Y17921D01*
X27476Y17955D01*
X27485Y17959D01*
X27495Y17962D01*
X27597Y18017D01*
X27605Y18024D01*
X27614Y18028D01*
X27704Y18102D01*
X27710Y18110D01*
X27718Y18116D01*
X27792Y18206D01*
X27796Y18215D01*
X27803Y18223D01*
X27858Y18325D01*
X27861Y18335D01*
X27865Y18344D01*
X27899Y18455D01*
X27900Y18465D01*
X27903Y18474D01*
X27914Y18590D01*
X27913Y18600D01*
X27914Y18610D01*
X27903Y18726D01*
X27900Y18735D01*
X27899Y18745D01*
X27865Y18856D01*
X27861Y18865D01*
X27858Y18875D01*
X27803Y18977D01*
X27796Y18985D01*
X27792Y18994D01*
X27718Y19084D01*
X27710Y19090D01*
X27704Y19098D01*
X27614Y19172D01*
X27605Y19176D01*
X27597Y19183D01*
X27495Y19238D01*
X27485Y19241D01*
X27476Y19245D01*
X27365Y19279D01*
X27355Y19280D01*
X27346Y19283D01*
X27230Y19294D01*
X27225Y19294D01*
X27220Y19295D01*
D02*
G37*
G36*
X6500Y18929D02*
X6389Y18914D01*
X6286Y18871D01*
X6197Y18803D01*
X6129Y18714D01*
X6086Y18611D01*
X6071Y18500D01*
X6086Y18389D01*
X6129Y18286D01*
X6197Y18197D01*
X6286Y18129D01*
X6389Y18086D01*
X6500Y18071D01*
X6611Y18086D01*
X6714Y18129D01*
X6803Y18197D01*
X6871Y18286D01*
X6914Y18389D01*
X6929Y18500D01*
X6914Y18611D01*
X6871Y18714D01*
X6803Y18803D01*
X6714Y18871D01*
X6611Y18914D01*
X6500Y18929D01*
D02*
G37*
G36*
X7680Y18929D02*
X7569Y18914D01*
X7466Y18871D01*
X7377Y18803D01*
X7309Y18714D01*
X7266Y18611D01*
X7251Y18500D01*
X7266Y18389D01*
X7309Y18286D01*
X7377Y18197D01*
X7466Y18129D01*
X7569Y18086D01*
X7680Y18071D01*
X7791Y18086D01*
X7894Y18129D01*
X7983Y18197D01*
X8051Y18286D01*
X8094Y18389D01*
X8109Y18500D01*
X8094Y18611D01*
X8051Y18714D01*
X7983Y18803D01*
X7894Y18871D01*
X7791Y18914D01*
X7680Y18929D01*
D02*
G37*
G36*
X8860D02*
X8749Y18914D01*
X8646Y18871D01*
X8557Y18803D01*
X8489Y18714D01*
X8446Y18611D01*
X8431Y18500D01*
X8446Y18389D01*
X8489Y18286D01*
X8557Y18197D01*
X8646Y18129D01*
X8749Y18086D01*
X8860Y18071D01*
X8971Y18086D01*
X9074Y18129D01*
X9163Y18197D01*
X9231Y18286D01*
X9274Y18389D01*
X9289Y18500D01*
X9274Y18611D01*
X9231Y18714D01*
X9163Y18803D01*
X9074Y18871D01*
X8971Y18914D01*
X8860Y18929D01*
D02*
G37*
G36*
X10340Y17625D02*
Y17620D01*
X10345D01*
X10343Y17623D01*
X10340Y17625D01*
D02*
G37*
G36*
X22400Y19080D02*
X22250Y19060D01*
X22110Y19002D01*
X21990Y18910D01*
X21898Y18790D01*
X21840Y18650D01*
X21820Y18500D01*
X21840Y18350D01*
X21898Y18210D01*
X21990Y18090D01*
X22110Y17998D01*
X22250Y17940D01*
X22400Y17920D01*
X22550Y17940D01*
X22690Y17998D01*
X22810Y18090D01*
X22902Y18210D01*
X22960Y18350D01*
X22980Y18500D01*
X22960Y18650D01*
X22902Y18790D01*
X22810Y18910D01*
X22690Y19002D01*
X22550Y19060D01*
X22400Y19080D01*
D02*
G37*
G36*
X25350D02*
X25200Y19060D01*
X25060Y19002D01*
X24940Y18910D01*
X24848Y18790D01*
X24790Y18650D01*
X24770Y18500D01*
X24790Y18350D01*
X24848Y18210D01*
X24940Y18090D01*
X25060Y17998D01*
X25200Y17940D01*
X25350Y17920D01*
X25500Y17940D01*
X25640Y17998D01*
X25760Y18090D01*
X25852Y18210D01*
X25910Y18350D01*
X25930Y18500D01*
X25910Y18650D01*
X25852Y18790D01*
X25760Y18910D01*
X25640Y19002D01*
X25500Y19060D01*
X25350Y19080D01*
D02*
G37*
G36*
X10040Y18929D02*
X9929Y18914D01*
X9826Y18871D01*
X9737Y18803D01*
X9669Y18714D01*
X9626Y18611D01*
X9611Y18500D01*
X9626Y18389D01*
X9669Y18286D01*
X9737Y18197D01*
X9826Y18129D01*
X9929Y18086D01*
X10040Y18071D01*
X10151Y18086D01*
X10254Y18129D01*
X10343Y18197D01*
X10411Y18286D01*
X10454Y18389D01*
X10469Y18500D01*
X10454Y18611D01*
X10411Y18714D01*
X10343Y18803D01*
X10254Y18871D01*
X10151Y18914D01*
X10040Y18929D01*
D02*
G37*
G36*
X36900Y18495D02*
Y18300D01*
X37095D01*
X37010Y18410D01*
X36900Y18495D01*
D02*
G37*
G36*
X5320Y19176D02*
X5310Y19174D01*
X5300D01*
X5222Y19158D01*
X5185Y19143D01*
X5119Y19099D01*
X5119Y19099D01*
X5091Y19071D01*
X5091Y19071D01*
X5047Y19005D01*
X5032Y18968D01*
X5016Y18890D01*
Y18850D01*
X5032Y18772D01*
X5047Y18735D01*
X5091Y18669D01*
X5091Y18669D01*
X5119Y18641D01*
X5119Y18641D01*
X5185Y18597D01*
X5222Y18582D01*
X5300Y18566D01*
X5310D01*
X5320Y18564D01*
X5330Y18566D01*
X5340D01*
X5418Y18582D01*
X5455Y18597D01*
X5521Y18641D01*
X5521Y18641D01*
X5549Y18669D01*
X5549Y18669D01*
X5593Y18735D01*
X5608Y18772D01*
X5624Y18850D01*
Y18890D01*
X5608Y18968D01*
X5593Y19005D01*
X5549Y19071D01*
X5549Y19071D01*
X5521Y19099D01*
X5521Y19099D01*
X5455Y19143D01*
X5418Y19158D01*
X5340Y19174D01*
X5330D01*
X5320Y19176D01*
D02*
G37*
G36*
X11220D02*
X11210Y19174D01*
X11200D01*
X11122Y19158D01*
X11085Y19143D01*
X11019Y19099D01*
X11019Y19099D01*
X10991Y19071D01*
X10991Y19071D01*
X10947Y19005D01*
X10932Y18968D01*
X10916Y18890D01*
Y18850D01*
X10932Y18772D01*
X10947Y18735D01*
X10991Y18669D01*
X10991Y18669D01*
X11019Y18641D01*
X11019Y18641D01*
X11085Y18597D01*
X11122Y18582D01*
X11200Y18566D01*
X11210D01*
X11220Y18564D01*
X11230Y18566D01*
X11240D01*
X11318Y18582D01*
X11355Y18597D01*
X11421Y18641D01*
X11421Y18641D01*
X11449Y18669D01*
X11449Y18669D01*
X11493Y18735D01*
X11508Y18772D01*
X11524Y18850D01*
Y18890D01*
X11508Y18968D01*
X11493Y19005D01*
X11449Y19071D01*
X11449Y19071D01*
X11421Y19099D01*
X11421Y19099D01*
X11355Y19143D01*
X11318Y19158D01*
X11240Y19174D01*
X11230D01*
X11220Y19176D01*
D02*
G37*
G36*
X17140Y18716D02*
X16712Y18288D01*
X16500Y18500D01*
X16288Y18288D01*
X15860Y18716D01*
X15835Y18632D01*
X15822Y18500D01*
X15835Y18368D01*
X15873Y18240D01*
X15936Y18123D01*
X16020Y18020D01*
X16123Y17936D01*
X16191Y17900D01*
Y17850D01*
X16123Y17814D01*
X16020Y17730D01*
X15936Y17627D01*
X15873Y17510D01*
X15835Y17382D01*
X15822Y17250D01*
X15835Y17118D01*
X15860Y17034D01*
X16288Y17462D01*
X16500Y17250D01*
X16712Y17462D01*
X17140Y17034D01*
X17165Y17118D01*
X17178Y17250D01*
X17165Y17382D01*
X17127Y17510D01*
X17064Y17627D01*
X16980Y17730D01*
X16877Y17814D01*
X16809Y17850D01*
Y17900D01*
X16877Y17936D01*
X16980Y18020D01*
X17064Y18123D01*
X17127Y18240D01*
X17165Y18368D01*
X17178Y18500D01*
X17165Y18632D01*
X17140Y18716D01*
D02*
G37*
G36*
X20090D02*
X19662Y18288D01*
X19450Y18500D01*
X19238Y18288D01*
X18810Y18716D01*
X18785Y18632D01*
X18772Y18500D01*
X18785Y18368D01*
X18823Y18240D01*
X18886Y18123D01*
X18970Y18020D01*
X19073Y17936D01*
X19141Y17900D01*
Y17850D01*
X19073Y17814D01*
X18970Y17730D01*
X18886Y17627D01*
X18823Y17510D01*
X18785Y17382D01*
X18772Y17250D01*
X18785Y17118D01*
X18810Y17034D01*
X19238Y17462D01*
X19450Y17250D01*
X19662Y17462D01*
X20090Y17034D01*
X20115Y17118D01*
X20128Y17250D01*
X20115Y17382D01*
X20077Y17510D01*
X20014Y17627D01*
X19930Y17730D01*
X19827Y17814D01*
X19759Y17850D01*
Y17900D01*
X19827Y17936D01*
X19930Y18020D01*
X20014Y18123D01*
X20077Y18240D01*
X20115Y18368D01*
X20128Y18500D01*
X20115Y18632D01*
X20090Y18716D01*
D02*
G37*
G36*
X36300Y18495D02*
X36190Y18410D01*
X36105Y18300D01*
X36300D01*
Y18495D01*
D02*
G37*
G36*
X33900Y41200D02*
X33800D01*
Y41100D01*
X33856Y41144D01*
X33900Y41200D01*
D02*
G37*
G36*
X20300Y55900D02*
Y55800D01*
X20400D01*
X20356Y55856D01*
X20300Y55900D01*
D02*
G37*
G36*
X22300D02*
Y55800D01*
X22400D01*
X22356Y55856D01*
X22300Y55900D01*
D02*
G37*
G36*
X9000Y57804D02*
X8870Y57787D01*
X8748Y57736D01*
X8644Y57656D01*
X8564Y57552D01*
X8513Y57430D01*
X8496Y57300D01*
X8513Y57170D01*
X8564Y57048D01*
X8644Y56944D01*
X8748Y56864D01*
X8870Y56813D01*
X9000Y56796D01*
X9130Y56813D01*
X9252Y56864D01*
X9356Y56944D01*
X9436Y57048D01*
X9487Y57170D01*
X9504Y57300D01*
X9487Y57430D01*
X9436Y57552D01*
X9356Y57656D01*
X9252Y57736D01*
X9130Y57787D01*
X9000Y57804D01*
D02*
G37*
G36*
X22400Y55200D02*
X22300D01*
Y55100D01*
X22356Y55144D01*
X22400Y55200D01*
D02*
G37*
G36*
X19700Y55900D02*
X19644Y55856D01*
X19600Y55800D01*
X19700D01*
Y55900D01*
D02*
G37*
G36*
X21700D02*
X21644Y55856D01*
X21600Y55800D01*
X21700D01*
Y55900D01*
D02*
G37*
G36*
X11000Y57804D02*
X10870Y57787D01*
X10748Y57736D01*
X10644Y57656D01*
X10564Y57552D01*
X10513Y57430D01*
X10496Y57300D01*
X10513Y57170D01*
X10564Y57048D01*
X10644Y56944D01*
X10748Y56864D01*
X10870Y56813D01*
X11000Y56796D01*
X11130Y56813D01*
X11252Y56864D01*
X11356Y56944D01*
X11436Y57048D01*
X11487Y57170D01*
X11504Y57300D01*
X11487Y57430D01*
X11436Y57552D01*
X11356Y57656D01*
X11252Y57736D01*
X11130Y57787D01*
X11000Y57804D01*
D02*
G37*
G36*
Y59804D02*
X10870Y59787D01*
X10748Y59736D01*
X10644Y59656D01*
X10564Y59552D01*
X10513Y59430D01*
X10496Y59300D01*
X10513Y59170D01*
X10564Y59048D01*
X10644Y58944D01*
X10748Y58864D01*
X10870Y58813D01*
X11000Y58796D01*
X11130Y58813D01*
X11252Y58864D01*
X11356Y58944D01*
X11436Y59048D01*
X11487Y59170D01*
X11504Y59300D01*
X11487Y59430D01*
X11436Y59552D01*
X11356Y59656D01*
X11252Y59736D01*
X11130Y59787D01*
X11000Y59804D01*
D02*
G37*
G36*
X37500Y61849D02*
X37422Y61839D01*
X37349Y61809D01*
X37286Y61760D01*
X37238Y61698D01*
X37208Y61625D01*
X37197Y61546D01*
Y60500D01*
X37208Y60422D01*
X37238Y60349D01*
X37286Y60286D01*
X37349Y60238D01*
X37422Y60208D01*
X37500Y60197D01*
X37578Y60208D01*
X37651Y60238D01*
X37714Y60286D01*
X37762Y60349D01*
X37792Y60422D01*
X37803Y60500D01*
Y61546D01*
X37792Y61625D01*
X37762Y61698D01*
X37714Y61760D01*
X37651Y61809D01*
X37578Y61839D01*
X37500Y61849D01*
D02*
G37*
G36*
X9000Y61804D02*
X8870Y61787D01*
X8748Y61736D01*
X8644Y61656D01*
X8564Y61552D01*
X8513Y61430D01*
X8496Y61300D01*
X8513Y61170D01*
X8564Y61048D01*
X8644Y60944D01*
X8748Y60864D01*
X8870Y60813D01*
X9000Y60796D01*
X9130Y60813D01*
X9252Y60864D01*
X9356Y60944D01*
X9436Y61048D01*
X9487Y61170D01*
X9504Y61300D01*
X9487Y61430D01*
X9436Y61552D01*
X9356Y61656D01*
X9252Y61736D01*
X9130Y61787D01*
X9000Y61804D01*
D02*
G37*
G36*
X64500Y60102D02*
X61500D01*
X61461Y60094D01*
X61428Y60072D01*
X61406Y60039D01*
X61398Y60000D01*
Y57000D01*
X61406Y56961D01*
X61428Y56928D01*
X61461Y56906D01*
X61500Y56898D01*
X64500D01*
X64539Y56906D01*
X64572Y56928D01*
X64594Y56961D01*
X64602Y57000D01*
Y60000D01*
X64594Y60039D01*
X64572Y60072D01*
X64539Y60094D01*
X64500Y60102D01*
D02*
G37*
G36*
X20500Y60602D02*
X17500D01*
X17461Y60594D01*
X17428Y60572D01*
X17406Y60539D01*
X17398Y60500D01*
Y57500D01*
X17406Y57461D01*
X17428Y57428D01*
X17461Y57406D01*
X17500Y57398D01*
X20500D01*
X20539Y57406D01*
X20572Y57428D01*
X20594Y57461D01*
X20602Y57500D01*
Y60500D01*
X20594Y60539D01*
X20572Y60572D01*
X20539Y60594D01*
X20500Y60602D01*
D02*
G37*
G36*
X9000Y59804D02*
X8870Y59787D01*
X8748Y59736D01*
X8644Y59656D01*
X8564Y59552D01*
X8513Y59430D01*
X8496Y59300D01*
X8513Y59170D01*
X8564Y59048D01*
X8644Y58944D01*
X8748Y58864D01*
X8870Y58813D01*
X9000Y58796D01*
X9130Y58813D01*
X9252Y58864D01*
X9356Y58944D01*
X9436Y59048D01*
X9487Y59170D01*
X9504Y59300D01*
X9487Y59430D01*
X9436Y59552D01*
X9356Y59656D01*
X9252Y59736D01*
X9130Y59787D01*
X9000Y59804D01*
D02*
G37*
G36*
X8700Y53700D02*
X8644Y53656D01*
X8600Y53600D01*
X8700D01*
Y53700D01*
D02*
G37*
G36*
X10700D02*
X10644Y53656D01*
X10600Y53600D01*
X10700D01*
Y53700D01*
D02*
G37*
G36*
X9300D02*
Y53600D01*
X9400D01*
X9356Y53656D01*
X9300Y53700D01*
D02*
G37*
G36*
X20000Y54004D02*
X19870Y53987D01*
X19748Y53936D01*
X19644Y53856D01*
X19564Y53752D01*
X19513Y53630D01*
X19496Y53500D01*
X19513Y53370D01*
X19564Y53248D01*
X19644Y53144D01*
X19748Y53064D01*
X19870Y53013D01*
X20000Y52996D01*
X20130Y53013D01*
X20252Y53064D01*
X20356Y53144D01*
X20436Y53248D01*
X20487Y53370D01*
X20504Y53500D01*
X20487Y53630D01*
X20436Y53752D01*
X20356Y53856D01*
X20252Y53936D01*
X20130Y53987D01*
X20000Y54004D01*
D02*
G37*
G36*
X22000D02*
X21870Y53987D01*
X21748Y53936D01*
X21644Y53856D01*
X21564Y53752D01*
X21513Y53630D01*
X21496Y53500D01*
X21513Y53370D01*
X21564Y53248D01*
X21644Y53144D01*
X21748Y53064D01*
X21870Y53013D01*
X22000Y52996D01*
X22130Y53013D01*
X22252Y53064D01*
X22356Y53144D01*
X22436Y53248D01*
X22487Y53370D01*
X22504Y53500D01*
X22487Y53630D01*
X22436Y53752D01*
X22356Y53856D01*
X22252Y53936D01*
X22130Y53987D01*
X22000Y54004D01*
D02*
G37*
G36*
X57600Y54403D02*
X57496Y54390D01*
X57398Y54349D01*
X57315Y54285D01*
X57251Y54202D01*
X57210Y54104D01*
X57197Y54000D01*
X57210Y53896D01*
X57251Y53798D01*
X57315Y53715D01*
X57398Y53651D01*
X57496Y53610D01*
X57600Y53597D01*
X57704Y53610D01*
X57802Y53651D01*
X57885Y53715D01*
X57949Y53798D01*
X57990Y53896D01*
X58003Y54000D01*
X57990Y54104D01*
X57949Y54202D01*
X57885Y54285D01*
X57802Y54349D01*
X57704Y54390D01*
X57600Y54403D01*
D02*
G37*
G36*
X11300Y53700D02*
Y53600D01*
X11400D01*
X11356Y53656D01*
X11300Y53700D01*
D02*
G37*
G36*
X21700Y55200D02*
X21600D01*
X21644Y55144D01*
X21700Y55100D01*
Y55200D01*
D02*
G37*
G36*
X19700D02*
X19600D01*
X19644Y55144D01*
X19700Y55100D01*
Y55200D01*
D02*
G37*
G36*
X20400D02*
X20300D01*
Y55100D01*
X20356Y55144D01*
X20400Y55200D01*
D02*
G37*
G36*
X52100Y54503D02*
X51996Y54490D01*
X51898Y54449D01*
X51815Y54385D01*
X51751Y54302D01*
X51710Y54204D01*
X51697Y54100D01*
X51710Y53996D01*
X51751Y53898D01*
X51815Y53815D01*
X51898Y53751D01*
X51996Y53710D01*
X52100Y53697D01*
X52204Y53710D01*
X52302Y53751D01*
X52385Y53815D01*
X52449Y53898D01*
X52490Y53996D01*
X52503Y54100D01*
X52490Y54204D01*
X52449Y54302D01*
X52385Y54385D01*
X52302Y54449D01*
X52204Y54490D01*
X52100Y54503D01*
D02*
G37*
G36*
X9000Y55804D02*
X8870Y55787D01*
X8748Y55736D01*
X8644Y55656D01*
X8564Y55552D01*
X8513Y55430D01*
X8496Y55300D01*
X8513Y55170D01*
X8564Y55048D01*
X8644Y54944D01*
X8748Y54864D01*
X8870Y54813D01*
X9000Y54796D01*
X9130Y54813D01*
X9252Y54864D01*
X9356Y54944D01*
X9436Y55048D01*
X9487Y55170D01*
X9504Y55300D01*
X9487Y55430D01*
X9436Y55552D01*
X9356Y55656D01*
X9252Y55736D01*
X9130Y55787D01*
X9000Y55804D01*
D02*
G37*
G36*
X11000D02*
X10870Y55787D01*
X10748Y55736D01*
X10644Y55656D01*
X10564Y55552D01*
X10513Y55430D01*
X10496Y55300D01*
X10513Y55170D01*
X10564Y55048D01*
X10644Y54944D01*
X10748Y54864D01*
X10870Y54813D01*
X11000Y54796D01*
X11130Y54813D01*
X11252Y54864D01*
X11356Y54944D01*
X11436Y55048D01*
X11487Y55170D01*
X11504Y55300D01*
X11487Y55430D01*
X11436Y55552D01*
X11356Y55656D01*
X11252Y55736D01*
X11130Y55787D01*
X11000Y55804D01*
D02*
G37*
G36*
Y61804D02*
X10870Y61787D01*
X10748Y61736D01*
X10644Y61656D01*
X10564Y61552D01*
X10513Y61430D01*
X10496Y61300D01*
X10513Y61170D01*
X10564Y61048D01*
X10644Y60944D01*
X10748Y60864D01*
X10870Y60813D01*
X11000Y60796D01*
X11130Y60813D01*
X11252Y60864D01*
X11356Y60944D01*
X11436Y61048D01*
X11487Y61170D01*
X11504Y61300D01*
X11487Y61430D01*
X11436Y61552D01*
X11356Y61656D01*
X11252Y61736D01*
X11130Y61787D01*
X11000Y61804D01*
D02*
G37*
G36*
X7000Y73903D02*
X6896Y73890D01*
X6798Y73849D01*
X6715Y73785D01*
X6651Y73702D01*
X6610Y73604D01*
X6597Y73500D01*
X6610Y73396D01*
X6651Y73298D01*
X6715Y73215D01*
X6798Y73151D01*
X6896Y73110D01*
X7000Y73097D01*
X7104Y73110D01*
X7202Y73151D01*
X7285Y73215D01*
X7349Y73298D01*
X7390Y73396D01*
X7403Y73500D01*
X7390Y73604D01*
X7349Y73702D01*
X7285Y73785D01*
X7202Y73849D01*
X7104Y73890D01*
X7000Y73903D01*
D02*
G37*
G36*
X23000D02*
X22896Y73890D01*
X22798Y73849D01*
X22737Y73803D01*
X22263D01*
X22202Y73849D01*
X22104Y73890D01*
X22000Y73903D01*
X21896Y73890D01*
X21798Y73849D01*
X21715Y73785D01*
X21651Y73702D01*
X21610Y73604D01*
X21597Y73500D01*
X21610Y73396D01*
X21651Y73298D01*
X21715Y73215D01*
X21798Y73151D01*
X21896Y73110D01*
X22000Y73097D01*
X22104Y73110D01*
X22202Y73151D01*
X22263Y73197D01*
X22737D01*
X22798Y73151D01*
X22896Y73110D01*
X23000Y73097D01*
X23104Y73110D01*
X23202Y73151D01*
X23285Y73215D01*
X23349Y73298D01*
X23390Y73396D01*
X23403Y73500D01*
X23390Y73604D01*
X23349Y73702D01*
X23285Y73785D01*
X23202Y73849D01*
X23104Y73890D01*
X23000Y73903D01*
D02*
G37*
G36*
X63300Y76500D02*
X63097D01*
X63100Y76496D01*
X63177Y76395D01*
X63187Y76387D01*
X63195Y76377D01*
X63296Y76300D01*
X63300Y76297D01*
Y76500D01*
D02*
G37*
G36*
X23000Y71403D02*
X22896Y71390D01*
X22798Y71349D01*
X22737Y71303D01*
X22263D01*
X22202Y71349D01*
X22104Y71390D01*
X22000Y71403D01*
X21896Y71390D01*
X21798Y71349D01*
X21715Y71285D01*
X21651Y71202D01*
X21610Y71104D01*
X21597Y71000D01*
X21610Y70896D01*
X21651Y70798D01*
X21715Y70715D01*
X21798Y70651D01*
X21896Y70610D01*
X22000Y70597D01*
X22104Y70610D01*
X22202Y70651D01*
X22263Y70697D01*
X22737D01*
X22798Y70651D01*
X22896Y70610D01*
X23000Y70597D01*
X23104Y70610D01*
X23202Y70651D01*
X23285Y70715D01*
X23349Y70798D01*
X23390Y70896D01*
X23403Y71000D01*
X23390Y71104D01*
X23349Y71202D01*
X23285Y71285D01*
X23202Y71349D01*
X23104Y71390D01*
X23000Y71403D01*
D02*
G37*
G36*
X7000Y72903D02*
X6896Y72890D01*
X6798Y72849D01*
X6715Y72785D01*
X6651Y72702D01*
X6610Y72604D01*
X6597Y72500D01*
X6610Y72396D01*
X6651Y72298D01*
X6715Y72215D01*
X6798Y72151D01*
X6896Y72110D01*
X7000Y72097D01*
X7104Y72110D01*
X7202Y72151D01*
X7285Y72215D01*
X7349Y72298D01*
X7390Y72396D01*
X7403Y72500D01*
X7390Y72604D01*
X7349Y72702D01*
X7285Y72785D01*
X7202Y72849D01*
X7104Y72890D01*
X7000Y72903D01*
D02*
G37*
G36*
X23000D02*
X22896Y72890D01*
X22798Y72849D01*
X22737Y72803D01*
X22263D01*
X22202Y72849D01*
X22104Y72890D01*
X22000Y72903D01*
X21896Y72890D01*
X21798Y72849D01*
X21715Y72785D01*
X21651Y72702D01*
X21610Y72604D01*
X21597Y72500D01*
X21610Y72396D01*
X21651Y72298D01*
X21715Y72215D01*
X21798Y72151D01*
X21896Y72110D01*
X22000Y72097D01*
X22104Y72110D01*
X22202Y72151D01*
X22263Y72197D01*
X22737D01*
X22798Y72151D01*
X22896Y72110D01*
X23000Y72097D01*
X23104Y72110D01*
X23202Y72151D01*
X23285Y72215D01*
X23349Y72298D01*
X23390Y72396D01*
X23403Y72500D01*
X23390Y72604D01*
X23349Y72702D01*
X23285Y72785D01*
X23202Y72849D01*
X23104Y72890D01*
X23000Y72903D01*
D02*
G37*
G36*
X64103Y76500D02*
X63900D01*
Y76297D01*
X63904Y76300D01*
X64005Y76377D01*
X64013Y76387D01*
X64023Y76395D01*
X64100Y76496D01*
X64103Y76500D01*
D02*
G37*
G36*
X10303Y79700D02*
X10100D01*
Y79497D01*
X10104Y79500D01*
X10205Y79577D01*
X10213Y79587D01*
X10223Y79595D01*
X10300Y79696D01*
X10303Y79700D01*
D02*
G37*
G36*
X9500Y80503D02*
X9496Y80500D01*
X9395Y80423D01*
X9387Y80413D01*
X9377Y80405D01*
X9300Y80304D01*
X9297Y80300D01*
X9500D01*
Y80503D01*
D02*
G37*
G36*
X10100Y80503D02*
Y80300D01*
X10303D01*
X10300Y80304D01*
X10223Y80405D01*
X10213Y80413D01*
X10205Y80423D01*
X10104Y80500D01*
X10100Y80503D01*
D02*
G37*
G36*
X63300Y77303D02*
X63296Y77300D01*
X63195Y77223D01*
X63187Y77213D01*
X63177Y77205D01*
X63100Y77104D01*
X63097Y77100D01*
X63300D01*
Y77303D01*
D02*
G37*
G36*
X63900Y77303D02*
Y77100D01*
X64103D01*
X64100Y77104D01*
X64023Y77205D01*
X64013Y77213D01*
X64005Y77223D01*
X63904Y77300D01*
X63900Y77303D01*
D02*
G37*
G36*
X9500Y79700D02*
X9297D01*
X9300Y79696D01*
X9377Y79595D01*
X9387Y79587D01*
X9395Y79577D01*
X9496Y79500D01*
X9500Y79497D01*
Y79700D01*
D02*
G37*
G36*
X9000Y63804D02*
X8870Y63787D01*
X8748Y63736D01*
X8644Y63656D01*
X8564Y63552D01*
X8513Y63430D01*
X8496Y63300D01*
X8513Y63170D01*
X8564Y63048D01*
X8644Y62944D01*
X8748Y62864D01*
X8870Y62813D01*
X9000Y62796D01*
X9130Y62813D01*
X9252Y62864D01*
X9356Y62944D01*
X9436Y63048D01*
X9487Y63170D01*
X9504Y63300D01*
X9487Y63430D01*
X9436Y63552D01*
X9356Y63656D01*
X9252Y63736D01*
X9130Y63787D01*
X9000Y63804D01*
D02*
G37*
G36*
X11000D02*
X10870Y63787D01*
X10748Y63736D01*
X10644Y63656D01*
X10564Y63552D01*
X10513Y63430D01*
X10496Y63300D01*
X10513Y63170D01*
X10564Y63048D01*
X10644Y62944D01*
X10748Y62864D01*
X10870Y62813D01*
X11000Y62796D01*
X11130Y62813D01*
X11252Y62864D01*
X11356Y62944D01*
X11436Y63048D01*
X11487Y63170D01*
X11504Y63300D01*
X11487Y63430D01*
X11436Y63552D01*
X11356Y63656D01*
X11252Y63736D01*
X11130Y63787D01*
X11000Y63804D01*
D02*
G37*
G36*
X24622Y65424D02*
X23978D01*
X23939Y65416D01*
X23906Y65394D01*
X23884Y65361D01*
X23876Y65322D01*
Y64678D01*
X23884Y64639D01*
X23906Y64606D01*
X23939Y64584D01*
X23978Y64576D01*
X24622D01*
X24661Y64584D01*
X24694Y64606D01*
X24716Y64639D01*
X24724Y64678D01*
Y65322D01*
X24716Y65361D01*
X24694Y65394D01*
X24661Y65416D01*
X24622Y65424D01*
D02*
G37*
G36*
X25400Y62800D02*
X25304Y62781D01*
X25223Y62727D01*
X25169Y62646D01*
X25150Y62550D01*
X25169Y62454D01*
X25223Y62373D01*
X25296Y62325D01*
Y62158D01*
X25246Y62131D01*
X25232Y62139D01*
X25231Y62146D01*
X25177Y62227D01*
X25096Y62281D01*
X25000Y62300D01*
X24904Y62281D01*
X24823Y62227D01*
X24769Y62146D01*
X24750Y62050D01*
X24769Y61954D01*
X24823Y61873D01*
X24896Y61825D01*
Y60636D01*
X24869Y60596D01*
X24850Y60500D01*
X24869Y60404D01*
X24923Y60323D01*
X25004Y60269D01*
X25100Y60250D01*
X25196Y60269D01*
X25277Y60323D01*
X25323D01*
X25404Y60269D01*
X25500Y60250D01*
X25596Y60269D01*
X25677Y60323D01*
X25731Y60404D01*
X25750Y60500D01*
X25731Y60596D01*
X25704Y60636D01*
Y62450D01*
X25688Y62528D01*
X25644Y62594D01*
X25640Y62598D01*
X25631Y62646D01*
X25577Y62727D01*
X25496Y62781D01*
X25400Y62800D01*
D02*
G37*
G36*
X48000D02*
X47904Y62781D01*
X47823Y62727D01*
X47769Y62646D01*
X47750Y62550D01*
X47769Y62454D01*
X47796Y62414D01*
Y62274D01*
X47746Y62247D01*
X47696Y62281D01*
X47600Y62300D01*
X47504Y62281D01*
X47423Y62227D01*
X47369Y62146D01*
X47350Y62050D01*
X47369Y61954D01*
X47396Y61914D01*
Y60736D01*
X47369Y60696D01*
X47350Y60600D01*
X47369Y60504D01*
X47423Y60423D01*
X47504Y60369D01*
X47600Y60350D01*
X47696Y60369D01*
X47777Y60423D01*
X47823D01*
X47904Y60369D01*
X48000Y60350D01*
X48096Y60369D01*
X48177Y60423D01*
X48223D01*
X48304Y60369D01*
X48400Y60350D01*
X48496Y60369D01*
X48577Y60423D01*
X48631Y60504D01*
X48650Y60600D01*
X48631Y60696D01*
X48604Y60736D01*
Y61414D01*
X48631Y61454D01*
X48650Y61550D01*
X48631Y61646D01*
X48577Y61727D01*
X48496Y61781D01*
X48400Y61800D01*
X48304Y61781D01*
X48254Y61747D01*
X48204Y61774D01*
Y62414D01*
X48231Y62454D01*
X48250Y62550D01*
X48231Y62646D01*
X48177Y62727D01*
X48096Y62781D01*
X48000Y62800D01*
D02*
G37*
G36*
X15500Y62803D02*
X15422Y62792D01*
X15349Y62762D01*
X15286Y62714D01*
X15238Y62651D01*
X15208Y62578D01*
X15197Y62500D01*
Y62283D01*
X15184Y62276D01*
X15147Y62264D01*
X15078Y62292D01*
X15000Y62303D01*
X14922Y62292D01*
X14849Y62262D01*
X14786Y62214D01*
X14738Y62151D01*
X14708Y62078D01*
X14697Y62000D01*
Y60000D01*
X14708Y59922D01*
X14738Y59849D01*
X14786Y59786D01*
X14849Y59738D01*
X14922Y59708D01*
X15000Y59697D01*
X15078Y59708D01*
X15151Y59738D01*
X15214Y59786D01*
X15225Y59800D01*
X15275D01*
X15286Y59786D01*
X15349Y59738D01*
X15422Y59708D01*
X15500Y59697D01*
X15578Y59708D01*
X15651Y59738D01*
X15714Y59786D01*
X15762Y59849D01*
X15792Y59922D01*
X15803Y60000D01*
Y62500D01*
X15792Y62578D01*
X15762Y62651D01*
X15714Y62714D01*
X15651Y62762D01*
X15578Y62792D01*
X15500Y62803D01*
D02*
G37*
G36*
X20500Y66803D02*
X20422Y66792D01*
X20349Y66762D01*
X20286Y66714D01*
X18686Y65114D01*
X18638Y65051D01*
X18608Y64978D01*
X18597Y64900D01*
X18608Y64822D01*
X18638Y64749D01*
X18686Y64686D01*
X18749Y64638D01*
X18822Y64608D01*
X18900Y64597D01*
X18978Y64608D01*
X19051Y64638D01*
X19114Y64686D01*
X20714Y66286D01*
X20762Y66349D01*
X20792Y66422D01*
X20803Y66500D01*
X20792Y66578D01*
X20762Y66651D01*
X20714Y66714D01*
X20651Y66762D01*
X20578Y66792D01*
X20500Y66803D01*
D02*
G37*
G36*
X22000Y68403D02*
X21896Y68390D01*
X21798Y68349D01*
X21715Y68285D01*
X21651Y68202D01*
X21610Y68104D01*
X21597Y68000D01*
X21610Y67896D01*
X21651Y67798D01*
X21715Y67715D01*
X21798Y67651D01*
X21896Y67610D01*
X22000Y67597D01*
X22104Y67610D01*
X22202Y67651D01*
X22285Y67715D01*
X22349Y67798D01*
X22390Y67896D01*
X22403Y68000D01*
X22390Y68104D01*
X22349Y68202D01*
X22285Y68285D01*
X22202Y68349D01*
X22104Y68390D01*
X22000Y68403D01*
D02*
G37*
G36*
X23000D02*
X22896Y68390D01*
X22798Y68349D01*
X22715Y68285D01*
X22651Y68202D01*
X22610Y68104D01*
X22597Y68000D01*
X22610Y67896D01*
X22651Y67798D01*
X22715Y67715D01*
X22798Y67651D01*
X22896Y67610D01*
X23000Y67597D01*
X23104Y67610D01*
X23202Y67651D01*
X23285Y67715D01*
X23349Y67798D01*
X23390Y67896D01*
X23403Y68000D01*
X23390Y68104D01*
X23349Y68202D01*
X23285Y68285D01*
X23202Y68349D01*
X23104Y68390D01*
X23000Y68403D01*
D02*
G37*
G36*
Y70403D02*
X22896Y70390D01*
X22798Y70349D01*
X22737Y70303D01*
X22263D01*
X22202Y70349D01*
X22104Y70390D01*
X22000Y70403D01*
X21896Y70390D01*
X21798Y70349D01*
X21715Y70285D01*
X21651Y70202D01*
X21610Y70104D01*
X21597Y70000D01*
X21610Y69896D01*
X21651Y69798D01*
X21715Y69715D01*
X21798Y69651D01*
X21896Y69610D01*
X22000Y69597D01*
X22104Y69610D01*
X22202Y69651D01*
X22263Y69697D01*
X22737D01*
X22798Y69651D01*
X22896Y69610D01*
X23000Y69597D01*
X23104Y69610D01*
X23202Y69651D01*
X23285Y69715D01*
X23349Y69798D01*
X23390Y69896D01*
X23403Y70000D01*
X23390Y70104D01*
X23349Y70202D01*
X23285Y70285D01*
X23202Y70349D01*
X23104Y70390D01*
X23000Y70403D01*
D02*
G37*
G36*
X11500Y68602D02*
X8500D01*
X8461Y68594D01*
X8428Y68572D01*
X8406Y68539D01*
X8398Y68500D01*
Y65500D01*
X8406Y65461D01*
X8428Y65428D01*
X8461Y65406D01*
X8500Y65398D01*
X11500D01*
X11539Y65406D01*
X11572Y65428D01*
X11594Y65461D01*
X11602Y65500D01*
Y68500D01*
X11594Y68539D01*
X11572Y68572D01*
X11539Y68594D01*
X11500Y68602D01*
D02*
G37*
G36*
X24300Y66410D02*
X24190Y66395D01*
X24087Y66353D01*
X23999Y66285D01*
X23932Y66197D01*
X23889Y66094D01*
X23875Y65984D01*
X23889Y65874D01*
X23932Y65772D01*
X23999Y65683D01*
X24087Y65616D01*
X24190Y65573D01*
X24300Y65559D01*
X24410Y65573D01*
X24513Y65616D01*
X24601Y65683D01*
X24668Y65772D01*
X24711Y65874D01*
X24725Y65984D01*
X24711Y66094D01*
X24668Y66197D01*
X24601Y66285D01*
X24513Y66353D01*
X24410Y66395D01*
X24300Y66410D01*
D02*
G37*
G36*
X25186Y66955D02*
X25146D01*
X25054Y66937D01*
X25017Y66921D01*
X24939Y66869D01*
X24911Y66841D01*
X24859Y66763D01*
X24844Y66726D01*
X24825Y66634D01*
Y66624D01*
X24823Y66614D01*
X24825Y66604D01*
Y66594D01*
X24844Y66502D01*
X24859Y66465D01*
X24911Y66387D01*
X24939Y66359D01*
X25017Y66307D01*
X25054Y66292D01*
X25146Y66273D01*
X25186D01*
X25278Y66292D01*
X25315Y66307D01*
X25393Y66359D01*
X25421Y66387D01*
X25473Y66465D01*
X25489Y66502D01*
X25507Y66594D01*
Y66604D01*
X25509Y66614D01*
X25507Y66624D01*
Y66634D01*
X25489Y66726D01*
X25473Y66763D01*
X25421Y66841D01*
X25393Y66869D01*
X25315Y66921D01*
X25278Y66937D01*
X25186Y66955D01*
X25186Y66955D01*
D02*
G37*
G36*
X11400Y53000D02*
X11300D01*
Y52900D01*
X11356Y52944D01*
X11400Y53000D01*
D02*
G37*
G36*
X65100Y46004D02*
X64970Y45987D01*
X64848Y45936D01*
X64744Y45856D01*
X64664Y45752D01*
X64613Y45630D01*
X64596Y45500D01*
X64613Y45370D01*
X64664Y45248D01*
X64744Y45144D01*
X64848Y45064D01*
X64970Y45013D01*
X65100Y44996D01*
X65230Y45013D01*
X65352Y45064D01*
X65456Y45144D01*
X65536Y45248D01*
X65577Y45347D01*
X66708D01*
X66723Y45323D01*
X66804Y45269D01*
X66900Y45250D01*
X66996Y45269D01*
X67077Y45323D01*
X67131Y45404D01*
X67150Y45500D01*
X67131Y45596D01*
X67077Y45677D01*
X66996Y45731D01*
X66900Y45750D01*
X66804Y45731D01*
X66723Y45677D01*
X66708Y45653D01*
X65577D01*
X65536Y45752D01*
X65456Y45856D01*
X65352Y45936D01*
X65230Y45987D01*
X65100Y46004D01*
D02*
G37*
G36*
X48000Y46604D02*
X47870Y46587D01*
X47748Y46536D01*
X47644Y46456D01*
X47564Y46352D01*
X47513Y46230D01*
X47496Y46100D01*
X47513Y45970D01*
X47564Y45848D01*
X47644Y45744D01*
X47748Y45664D01*
X47870Y45613D01*
X48000Y45596D01*
X48130Y45613D01*
X48252Y45664D01*
X48356Y45744D01*
X48436Y45848D01*
X48487Y45970D01*
X48504Y46100D01*
X48487Y46230D01*
X48436Y46352D01*
X48356Y46456D01*
X48252Y46536D01*
X48130Y46587D01*
X48000Y46604D01*
D02*
G37*
G36*
X50000D02*
X49870Y46587D01*
X49748Y46536D01*
X49644Y46456D01*
X49564Y46352D01*
X49513Y46230D01*
X49496Y46100D01*
X49513Y45970D01*
X49564Y45848D01*
X49644Y45744D01*
X49748Y45664D01*
X49870Y45613D01*
X50000Y45596D01*
X50130Y45613D01*
X50252Y45664D01*
X50356Y45744D01*
X50436Y45848D01*
X50487Y45970D01*
X50504Y46100D01*
X50487Y46230D01*
X50436Y46352D01*
X50356Y46456D01*
X50252Y46536D01*
X50130Y46587D01*
X50000Y46604D01*
D02*
G37*
G36*
X20000Y46004D02*
X19870Y45987D01*
X19748Y45936D01*
X19644Y45856D01*
X19564Y45752D01*
X19513Y45630D01*
X19496Y45500D01*
X19513Y45370D01*
X19564Y45248D01*
X19644Y45144D01*
X19748Y45064D01*
X19870Y45013D01*
X20000Y44996D01*
X20130Y45013D01*
X20252Y45064D01*
X20356Y45144D01*
X20436Y45248D01*
X20487Y45370D01*
X20504Y45500D01*
X20487Y45630D01*
X20436Y45752D01*
X20356Y45856D01*
X20252Y45936D01*
X20130Y45987D01*
X20000Y46004D01*
D02*
G37*
G36*
X22000D02*
X21870Y45987D01*
X21748Y45936D01*
X21644Y45856D01*
X21564Y45752D01*
X21513Y45630D01*
X21496Y45500D01*
X21513Y45370D01*
X21564Y45248D01*
X21644Y45144D01*
X21748Y45064D01*
X21870Y45013D01*
X22000Y44996D01*
X22130Y45013D01*
X22252Y45064D01*
X22356Y45144D01*
X22436Y45248D01*
X22487Y45370D01*
X22504Y45500D01*
X22487Y45630D01*
X22436Y45752D01*
X22356Y45856D01*
X22252Y45936D01*
X22130Y45987D01*
X22000Y46004D01*
D02*
G37*
G36*
X63100D02*
X62970Y45987D01*
X62848Y45936D01*
X62744Y45856D01*
X62664Y45752D01*
X62613Y45630D01*
X62596Y45500D01*
X62613Y45370D01*
X62664Y45248D01*
X62744Y45144D01*
X62848Y45064D01*
X62970Y45013D01*
X63100Y44996D01*
X63230Y45013D01*
X63352Y45064D01*
X63456Y45144D01*
X63536Y45248D01*
X63587Y45370D01*
X63604Y45500D01*
X63587Y45630D01*
X63536Y45752D01*
X63456Y45856D01*
X63352Y45936D01*
X63230Y45987D01*
X63100Y46004D01*
D02*
G37*
G36*
X20000Y48004D02*
X19870Y47987D01*
X19748Y47936D01*
X19644Y47856D01*
X19564Y47752D01*
X19513Y47630D01*
X19496Y47500D01*
X19513Y47370D01*
X19564Y47248D01*
X19644Y47144D01*
X19748Y47064D01*
X19870Y47013D01*
X20000Y46996D01*
X20130Y47013D01*
X20252Y47064D01*
X20356Y47144D01*
X20436Y47248D01*
X20487Y47370D01*
X20504Y47500D01*
X20487Y47630D01*
X20436Y47752D01*
X20356Y47856D01*
X20252Y47936D01*
X20130Y47987D01*
X20000Y48004D01*
D02*
G37*
G36*
X48000Y48604D02*
X47870Y48587D01*
X47748Y48536D01*
X47644Y48456D01*
X47564Y48352D01*
X47513Y48230D01*
X47496Y48100D01*
X47513Y47970D01*
X47564Y47848D01*
X47644Y47744D01*
X47748Y47664D01*
X47870Y47613D01*
X48000Y47596D01*
X48130Y47613D01*
X48252Y47664D01*
X48356Y47744D01*
X48436Y47848D01*
X48487Y47970D01*
X48504Y48100D01*
X48487Y48230D01*
X48436Y48352D01*
X48356Y48456D01*
X48252Y48536D01*
X48130Y48587D01*
X48000Y48604D01*
D02*
G37*
G36*
X50000D02*
X49870Y48587D01*
X49748Y48536D01*
X49644Y48456D01*
X49564Y48352D01*
X49513Y48230D01*
X49496Y48100D01*
X49513Y47970D01*
X49564Y47848D01*
X49644Y47744D01*
X49748Y47664D01*
X49870Y47613D01*
X50000Y47596D01*
X50130Y47613D01*
X50252Y47664D01*
X50356Y47744D01*
X50436Y47848D01*
X50487Y47970D01*
X50504Y48100D01*
X50487Y48230D01*
X50436Y48352D01*
X50356Y48456D01*
X50252Y48536D01*
X50130Y48587D01*
X50000Y48604D01*
D02*
G37*
G36*
X11500Y51102D02*
X8500D01*
X8461Y51094D01*
X8428Y51072D01*
X8406Y51039D01*
X8398Y51000D01*
Y48000D01*
X8406Y47961D01*
X8428Y47928D01*
X8461Y47906D01*
X8500Y47898D01*
X11500D01*
X11539Y47906D01*
X11572Y47928D01*
X11594Y47961D01*
X11602Y48000D01*
Y51000D01*
X11594Y51039D01*
X11572Y51072D01*
X11539Y51094D01*
X11500Y51102D01*
D02*
G37*
G36*
X22000Y48004D02*
X21870Y47987D01*
X21748Y47936D01*
X21644Y47856D01*
X21564Y47752D01*
X21513Y47630D01*
X21496Y47500D01*
X21513Y47370D01*
X21564Y47248D01*
X21644Y47144D01*
X21748Y47064D01*
X21870Y47013D01*
X22000Y46996D01*
X22130Y47013D01*
X22252Y47064D01*
X22356Y47144D01*
X22436Y47248D01*
X22487Y47370D01*
X22504Y47500D01*
X22487Y47630D01*
X22436Y47752D01*
X22356Y47856D01*
X22252Y47936D01*
X22130Y47987D01*
X22000Y48004D01*
D02*
G37*
G36*
X63100D02*
X62970Y47987D01*
X62848Y47936D01*
X62744Y47856D01*
X62664Y47752D01*
X62613Y47630D01*
X62596Y47500D01*
X62613Y47370D01*
X62664Y47248D01*
X62744Y47144D01*
X62848Y47064D01*
X62970Y47013D01*
X63100Y46996D01*
X63230Y47013D01*
X63352Y47064D01*
X63456Y47144D01*
X63536Y47248D01*
X63587Y47370D01*
X63604Y47500D01*
X63587Y47630D01*
X63536Y47752D01*
X63456Y47856D01*
X63352Y47936D01*
X63230Y47987D01*
X63100Y48004D01*
D02*
G37*
G36*
X65100D02*
X64970Y47987D01*
X64848Y47936D01*
X64744Y47856D01*
X64664Y47752D01*
X64613Y47630D01*
X64596Y47500D01*
X64613Y47370D01*
X64664Y47248D01*
X64744Y47144D01*
X64848Y47064D01*
X64970Y47013D01*
X65100Y46996D01*
X65230Y47013D01*
X65352Y47064D01*
X65456Y47144D01*
X65536Y47248D01*
X65577Y47347D01*
X67308D01*
X67323Y47323D01*
X67404Y47269D01*
X67500Y47250D01*
X67596Y47269D01*
X67677Y47323D01*
X67731Y47404D01*
X67750Y47500D01*
X67731Y47596D01*
X67677Y47677D01*
X67596Y47731D01*
X67500Y47750D01*
X67404Y47731D01*
X67323Y47677D01*
X67308Y47653D01*
X65577D01*
X65536Y47752D01*
X65456Y47856D01*
X65352Y47936D01*
X65230Y47987D01*
X65100Y48004D01*
D02*
G37*
G36*
X33200Y41900D02*
X33144Y41856D01*
X33100Y41800D01*
X33200D01*
Y41900D01*
D02*
G37*
G36*
X35200D02*
X35144Y41856D01*
X35100Y41800D01*
X35200D01*
Y41900D01*
D02*
G37*
G36*
X33800D02*
Y41800D01*
X33900D01*
X33856Y41856D01*
X33800Y41900D01*
D02*
G37*
G36*
X35900Y41200D02*
X35800D01*
Y41100D01*
X35856Y41144D01*
X35900Y41200D01*
D02*
G37*
G36*
X48000Y42604D02*
X47870Y42587D01*
X47748Y42536D01*
X47644Y42456D01*
X47564Y42352D01*
X47513Y42230D01*
X47496Y42100D01*
X47513Y41970D01*
X47564Y41848D01*
X47644Y41744D01*
X47748Y41664D01*
X47870Y41613D01*
X48000Y41596D01*
X48130Y41613D01*
X48252Y41664D01*
X48356Y41744D01*
X48436Y41848D01*
X48487Y41970D01*
X48504Y42100D01*
X48487Y42230D01*
X48436Y42352D01*
X48356Y42456D01*
X48252Y42536D01*
X48130Y42587D01*
X48000Y42604D01*
D02*
G37*
G36*
X50000D02*
X49870Y42587D01*
X49748Y42536D01*
X49644Y42456D01*
X49564Y42352D01*
X49513Y42230D01*
X49496Y42100D01*
X49513Y41970D01*
X49564Y41848D01*
X49644Y41744D01*
X49748Y41664D01*
X49870Y41613D01*
X50000Y41596D01*
X50130Y41613D01*
X50252Y41664D01*
X50356Y41744D01*
X50436Y41848D01*
X50487Y41970D01*
X50504Y42100D01*
X50487Y42230D01*
X50436Y42352D01*
X50356Y42456D01*
X50252Y42536D01*
X50130Y42587D01*
X50000Y42604D01*
D02*
G37*
G36*
X35800Y41900D02*
Y41800D01*
X35900D01*
X35856Y41856D01*
X35800Y41900D01*
D02*
G37*
G36*
X65100Y44004D02*
X64970Y43987D01*
X64848Y43936D01*
X64744Y43856D01*
X64664Y43752D01*
X64613Y43630D01*
X64596Y43500D01*
X64613Y43370D01*
X64664Y43248D01*
X64744Y43144D01*
X64848Y43064D01*
X64970Y43013D01*
X65100Y42996D01*
X65230Y43013D01*
X65352Y43064D01*
X65456Y43144D01*
X65536Y43248D01*
X65587Y43370D01*
X65604Y43500D01*
X65587Y43630D01*
X65536Y43752D01*
X65456Y43856D01*
X65352Y43936D01*
X65230Y43987D01*
X65100Y44004D01*
D02*
G37*
G36*
X48000Y44604D02*
X47870Y44587D01*
X47748Y44536D01*
X47644Y44456D01*
X47564Y44352D01*
X47513Y44230D01*
X47496Y44100D01*
X47513Y43970D01*
X47564Y43848D01*
X47644Y43744D01*
X47748Y43664D01*
X47870Y43613D01*
X48000Y43596D01*
X48130Y43613D01*
X48252Y43664D01*
X48356Y43744D01*
X48436Y43848D01*
X48487Y43970D01*
X48504Y44100D01*
X48487Y44230D01*
X48436Y44352D01*
X48356Y44456D01*
X48252Y44536D01*
X48130Y44587D01*
X48000Y44604D01*
D02*
G37*
G36*
X50000D02*
X49870Y44587D01*
X49748Y44536D01*
X49644Y44456D01*
X49564Y44352D01*
X49513Y44230D01*
X49496Y44100D01*
X49513Y43970D01*
X49564Y43848D01*
X49644Y43744D01*
X49748Y43664D01*
X49870Y43613D01*
X50000Y43596D01*
X50130Y43613D01*
X50252Y43664D01*
X50356Y43744D01*
X50436Y43848D01*
X50487Y43970D01*
X50504Y44100D01*
X50487Y44230D01*
X50436Y44352D01*
X50356Y44456D01*
X50252Y44536D01*
X50130Y44587D01*
X50000Y44604D01*
D02*
G37*
G36*
X20000Y44004D02*
X19870Y43987D01*
X19748Y43936D01*
X19644Y43856D01*
X19564Y43752D01*
X19513Y43630D01*
X19496Y43500D01*
X19513Y43370D01*
X19564Y43248D01*
X19644Y43144D01*
X19748Y43064D01*
X19870Y43013D01*
X20000Y42996D01*
X20130Y43013D01*
X20252Y43064D01*
X20356Y43144D01*
X20436Y43248D01*
X20487Y43370D01*
X20504Y43500D01*
X20487Y43630D01*
X20436Y43752D01*
X20356Y43856D01*
X20252Y43936D01*
X20130Y43987D01*
X20000Y44004D01*
D02*
G37*
G36*
X22000D02*
X21870Y43987D01*
X21748Y43936D01*
X21644Y43856D01*
X21564Y43752D01*
X21513Y43630D01*
X21496Y43500D01*
X21513Y43370D01*
X21564Y43248D01*
X21644Y43144D01*
X21748Y43064D01*
X21870Y43013D01*
X22000Y42996D01*
X22130Y43013D01*
X22252Y43064D01*
X22356Y43144D01*
X22436Y43248D01*
X22487Y43370D01*
X22504Y43500D01*
X22487Y43630D01*
X22436Y43752D01*
X22356Y43856D01*
X22252Y43936D01*
X22130Y43987D01*
X22000Y44004D01*
D02*
G37*
G36*
X63100D02*
X62970Y43987D01*
X62848Y43936D01*
X62744Y43856D01*
X62664Y43752D01*
X62613Y43630D01*
X62596Y43500D01*
X62613Y43370D01*
X62664Y43248D01*
X62744Y43144D01*
X62848Y43064D01*
X62970Y43013D01*
X63100Y42996D01*
X63230Y43013D01*
X63352Y43064D01*
X63456Y43144D01*
X63536Y43248D01*
X63587Y43370D01*
X63604Y43500D01*
X63587Y43630D01*
X63536Y43752D01*
X63456Y43856D01*
X63352Y43936D01*
X63230Y43987D01*
X63100Y44004D01*
D02*
G37*
G36*
X35200Y48386D02*
X35193Y48385D01*
X35187Y48386D01*
X35061Y48369D01*
X35049Y48365D01*
X35036Y48362D01*
X34919Y48314D01*
X34908Y48306D01*
X34896Y48300D01*
X34795Y48223D01*
X34787Y48213D01*
X34777Y48205D01*
X34700Y48104D01*
X34694Y48092D01*
X34686Y48081D01*
X34638Y47964D01*
X34635Y47951D01*
X34631Y47939D01*
X34614Y47813D01*
X34615Y47800D01*
X34614Y47787D01*
X34631Y47661D01*
X34635Y47649D01*
X34638Y47636D01*
X34686Y47519D01*
X34694Y47508D01*
X34700Y47496D01*
X34777Y47395D01*
X34787Y47387D01*
X34795Y47377D01*
X34896Y47300D01*
X34908Y47294D01*
X34919Y47286D01*
X35036Y47238D01*
X35049Y47235D01*
X35061Y47231D01*
X35187Y47214D01*
X35193Y47215D01*
X35200Y47214D01*
X35207Y47215D01*
X35213Y47214D01*
X35339Y47231D01*
X35351Y47235D01*
X35364Y47238D01*
X35481Y47286D01*
X35492Y47294D01*
X35504Y47300D01*
X35605Y47377D01*
X35613Y47387D01*
X35623Y47395D01*
X35700Y47496D01*
X35706Y47508D01*
X35714Y47519D01*
X35762Y47636D01*
X35765Y47649D01*
X35769Y47661D01*
X35786Y47787D01*
X35785Y47800D01*
X35786Y47813D01*
X35769Y47939D01*
X35765Y47951D01*
X35762Y47964D01*
X35714Y48081D01*
X35706Y48092D01*
X35700Y48104D01*
X35623Y48205D01*
X35613Y48213D01*
X35605Y48223D01*
X35504Y48300D01*
X35492Y48306D01*
X35481Y48314D01*
X35364Y48362D01*
X35351Y48365D01*
X35339Y48369D01*
X35213Y48386D01*
X35207Y48385D01*
X35200Y48386D01*
D02*
G37*
G36*
X48300Y50500D02*
Y50400D01*
X48400D01*
X48356Y50456D01*
X48300Y50500D01*
D02*
G37*
G36*
X50300D02*
Y50400D01*
X50400D01*
X50356Y50456D01*
X50300Y50500D01*
D02*
G37*
G36*
X20000Y52004D02*
X19870Y51987D01*
X19748Y51936D01*
X19644Y51856D01*
X19564Y51752D01*
X19513Y51630D01*
X19496Y51500D01*
X19513Y51370D01*
X19564Y51248D01*
X19644Y51144D01*
X19748Y51064D01*
X19870Y51013D01*
X20000Y50996D01*
X20130Y51013D01*
X20252Y51064D01*
X20356Y51144D01*
X20436Y51248D01*
X20487Y51370D01*
X20504Y51500D01*
X20487Y51630D01*
X20436Y51752D01*
X20356Y51856D01*
X20252Y51936D01*
X20130Y51987D01*
X20000Y52004D01*
D02*
G37*
G36*
X65400Y49900D02*
Y49800D01*
X65500D01*
X65456Y49856D01*
X65400Y49900D01*
D02*
G37*
G36*
X47700Y50500D02*
X47644Y50456D01*
X47600Y50400D01*
X47700D01*
Y50500D01*
D02*
G37*
G36*
X49700D02*
X49644Y50456D01*
X49600Y50400D01*
X49700D01*
Y50500D01*
D02*
G37*
G36*
X22000Y52004D02*
X21870Y51987D01*
X21748Y51936D01*
X21644Y51856D01*
X21564Y51752D01*
X21513Y51630D01*
X21496Y51500D01*
X21513Y51370D01*
X21564Y51248D01*
X21644Y51144D01*
X21748Y51064D01*
X21870Y51013D01*
X22000Y50996D01*
X22130Y51013D01*
X22252Y51064D01*
X22356Y51144D01*
X22436Y51248D01*
X22487Y51370D01*
X22504Y51500D01*
X22487Y51630D01*
X22436Y51752D01*
X22356Y51856D01*
X22252Y51936D01*
X22130Y51987D01*
X22000Y52004D01*
D02*
G37*
G36*
X10700Y53000D02*
X10600D01*
X10644Y52944D01*
X10700Y52900D01*
Y53000D01*
D02*
G37*
G36*
X8700D02*
X8600D01*
X8644Y52944D01*
X8700Y52900D01*
Y53000D01*
D02*
G37*
G36*
X9400D02*
X9300D01*
Y52900D01*
X9356Y52944D01*
X9400Y53000D01*
D02*
G37*
G36*
X57600Y53403D02*
X57496Y53390D01*
X57398Y53349D01*
X57315Y53285D01*
X57251Y53202D01*
X57210Y53104D01*
X57197Y53000D01*
X57210Y52896D01*
X57251Y52798D01*
X57315Y52715D01*
X57398Y52651D01*
X57496Y52610D01*
X57600Y52597D01*
X57704Y52610D01*
X57802Y52651D01*
X57885Y52715D01*
X57949Y52798D01*
X57990Y52896D01*
X58003Y53000D01*
X57990Y53104D01*
X57949Y53202D01*
X57885Y53285D01*
X57802Y53349D01*
X57704Y53390D01*
X57600Y53403D01*
D02*
G37*
G36*
X52100Y53503D02*
X51996Y53490D01*
X51898Y53449D01*
X51815Y53385D01*
X51751Y53302D01*
X51710Y53204D01*
X51697Y53100D01*
X51710Y52996D01*
X51751Y52898D01*
X51815Y52815D01*
X51898Y52751D01*
X51996Y52710D01*
X52100Y52697D01*
X52204Y52710D01*
X52302Y52751D01*
X52385Y52815D01*
X52449Y52898D01*
X52490Y52996D01*
X52503Y53100D01*
X52490Y53204D01*
X52449Y53302D01*
X52385Y53385D01*
X52302Y53449D01*
X52204Y53490D01*
X52100Y53503D01*
D02*
G37*
G36*
X25100Y54150D02*
X25004Y54131D01*
X24923Y54077D01*
X24869Y53996D01*
X24850Y53900D01*
X24869Y53804D01*
X24896Y53764D01*
Y53136D01*
X24869Y53096D01*
X24850Y53000D01*
X24869Y52904D01*
X24923Y52823D01*
X25004Y52769D01*
X25100Y52750D01*
X25196Y52769D01*
X25277Y52823D01*
X25331Y52904D01*
X25350Y53000D01*
X25331Y53096D01*
X25304Y53136D01*
Y53764D01*
X25331Y53804D01*
X25350Y53900D01*
X25331Y53996D01*
X25277Y54077D01*
X25196Y54131D01*
X25100Y54150D01*
D02*
G37*
G36*
X64800Y49200D02*
X64700D01*
X64744Y49144D01*
X64800Y49100D01*
Y49200D01*
D02*
G37*
G36*
X63500D02*
X63400D01*
Y49100D01*
X63456Y49144D01*
X63500Y49200D01*
D02*
G37*
G36*
X65500D02*
X65400D01*
Y49100D01*
X65456Y49144D01*
X65500Y49200D01*
D02*
G37*
G36*
X20000Y50004D02*
X19870Y49987D01*
X19748Y49936D01*
X19644Y49856D01*
X19564Y49752D01*
X19513Y49630D01*
X19496Y49500D01*
X19513Y49370D01*
X19564Y49248D01*
X19644Y49144D01*
X19748Y49064D01*
X19870Y49013D01*
X20000Y48996D01*
X20130Y49013D01*
X20252Y49064D01*
X20356Y49144D01*
X20436Y49248D01*
X20487Y49370D01*
X20504Y49500D01*
X20487Y49630D01*
X20436Y49752D01*
X20356Y49856D01*
X20252Y49936D01*
X20130Y49987D01*
X20000Y50004D01*
D02*
G37*
G36*
X22000D02*
X21870Y49987D01*
X21748Y49936D01*
X21644Y49856D01*
X21564Y49752D01*
X21513Y49630D01*
X21496Y49500D01*
X21513Y49370D01*
X21564Y49248D01*
X21644Y49144D01*
X21748Y49064D01*
X21870Y49013D01*
X22000Y48996D01*
X22130Y49013D01*
X22252Y49064D01*
X22356Y49144D01*
X22436Y49248D01*
X22487Y49370D01*
X22504Y49500D01*
X22487Y49630D01*
X22436Y49752D01*
X22356Y49856D01*
X22252Y49936D01*
X22130Y49987D01*
X22000Y50004D01*
D02*
G37*
G36*
X62800Y49200D02*
X62700D01*
X62744Y49144D01*
X62800Y49100D01*
Y49200D01*
D02*
G37*
G36*
X47700Y49800D02*
X47600D01*
X47644Y49744D01*
X47700Y49700D01*
Y49800D01*
D02*
G37*
G36*
X62800Y49900D02*
X62744Y49856D01*
X62700Y49800D01*
X62800D01*
Y49900D01*
D02*
G37*
G36*
X64800D02*
X64744Y49856D01*
X64700Y49800D01*
X64800D01*
Y49900D01*
D02*
G37*
G36*
X63400D02*
Y49800D01*
X63500D01*
X63456Y49856D01*
X63400Y49900D01*
D02*
G37*
G36*
X49700Y49800D02*
X49600D01*
X49644Y49744D01*
X49700Y49700D01*
Y49800D01*
D02*
G37*
G36*
X48400D02*
X48300D01*
Y49700D01*
X48356Y49744D01*
X48400Y49800D01*
D02*
G37*
G36*
X50400D02*
X50300D01*
Y49700D01*
X50356Y49744D01*
X50400Y49800D01*
D02*
G37*
%LPD*%
D11*
X47600Y60600D02*
Y62050D01*
X25000D02*
X25100Y61950D01*
Y60500D02*
Y61950D01*
Y53000D02*
Y53900D01*
X48000Y60600D02*
Y62550D01*
X25400D02*
X25500Y62450D01*
Y60500D02*
Y62450D01*
X48400Y60600D02*
Y61550D01*
D12*
X37500Y60500D02*
Y61546D01*
X18900Y64900D02*
X20500Y66500D01*
X22000Y73500D02*
X23000D01*
X22000Y72500D02*
X23000D01*
X22000Y71000D02*
X23000D01*
X22000Y70000D02*
X23000D01*
X15500Y60000D02*
Y62500D01*
X15000Y60000D02*
Y62000D01*
X6000Y22500D02*
X7500Y21000D01*
D14*
X65100Y47500D02*
X67500D01*
X65100Y45500D02*
X66900D01*
D15*
X35200Y47800D02*
D03*
X63600Y76800D02*
D03*
X9800Y80000D02*
D03*
X63500Y8200D02*
D03*
X9800Y8300D02*
D03*
X7000Y73500D02*
D03*
Y72500D02*
D03*
X23000Y70000D02*
D03*
X22000D02*
D03*
X23000Y71000D02*
D03*
X22000D02*
D03*
X23000Y72500D02*
D03*
X22000D02*
D03*
X23000Y73500D02*
D03*
X22000D02*
D03*
X23000Y68000D02*
D03*
X22000D02*
D03*
X52100Y53100D02*
D03*
Y54100D02*
D03*
X57600Y53000D02*
D03*
Y54000D02*
D03*
D16*
X17400Y12100D02*
D03*
D17*
Y10100D02*
D03*
D18*
X63100Y49500D02*
D03*
Y47500D02*
D03*
Y45500D02*
D03*
Y43500D02*
D03*
Y41500D02*
D03*
Y39500D02*
D03*
X65100D02*
D03*
Y41500D02*
D03*
Y43500D02*
D03*
Y45500D02*
D03*
Y47500D02*
D03*
Y49500D02*
D03*
X63100Y31500D02*
D03*
X65100D02*
D03*
Y37500D02*
D03*
Y35500D02*
D03*
Y33500D02*
D03*
X63100D02*
D03*
Y35500D02*
D03*
Y37500D02*
D03*
X48000Y50100D02*
D03*
Y48100D02*
D03*
Y46100D02*
D03*
Y44100D02*
D03*
Y42100D02*
D03*
Y40100D02*
D03*
X50000D02*
D03*
Y42100D02*
D03*
Y44100D02*
D03*
Y46100D02*
D03*
Y48100D02*
D03*
Y50100D02*
D03*
X48000Y32100D02*
D03*
X50000D02*
D03*
Y38100D02*
D03*
Y36100D02*
D03*
Y34100D02*
D03*
X48000D02*
D03*
Y36100D02*
D03*
Y38100D02*
D03*
X20000Y53500D02*
D03*
Y51500D02*
D03*
X35500Y41500D02*
D03*
Y39500D02*
D03*
Y37500D02*
D03*
Y35500D02*
D03*
Y33500D02*
D03*
Y31500D02*
D03*
X33500D02*
D03*
Y33500D02*
D03*
Y35500D02*
D03*
Y37500D02*
D03*
Y39500D02*
D03*
Y41500D02*
D03*
X20000Y43500D02*
D03*
Y41500D02*
D03*
Y39500D02*
D03*
X22000D02*
D03*
Y41500D02*
D03*
Y43500D02*
D03*
Y37500D02*
D03*
X20000D02*
D03*
X22000Y55500D02*
D03*
Y53500D02*
D03*
Y51500D02*
D03*
Y49500D02*
D03*
Y47500D02*
D03*
Y45500D02*
D03*
X20000D02*
D03*
Y47500D02*
D03*
Y49500D02*
D03*
Y55500D02*
D03*
X11000Y63300D02*
D03*
Y61300D02*
D03*
Y59300D02*
D03*
Y57300D02*
D03*
Y55300D02*
D03*
Y53300D02*
D03*
X9000D02*
D03*
Y55300D02*
D03*
Y57300D02*
D03*
Y59300D02*
D03*
Y61300D02*
D03*
Y63300D02*
D03*
D19*
X14630Y18600D02*
D03*
X27220D02*
D03*
X25350Y17250D02*
D03*
X22400D02*
D03*
X19450D02*
D03*
X16500D02*
D03*
Y18500D02*
D03*
X19450D02*
D03*
X22400D02*
D03*
X25350D02*
D03*
X34730Y17900D02*
D03*
X44370D02*
D03*
X42500Y19250D02*
D03*
X39550D02*
D03*
X36600D02*
D03*
Y18000D02*
D03*
X39550D02*
D03*
X42500D02*
D03*
D20*
X28484Y11500D02*
D03*
X11900Y31316D02*
D03*
X24300Y65984D02*
D03*
D21*
X27500Y11500D02*
D03*
D22*
X8860Y18500D02*
D03*
Y17320D02*
D03*
X10040D02*
D03*
X7680D02*
D03*
X6500D02*
D03*
X10040Y18500D02*
D03*
X7680D02*
D03*
X6500Y18500D02*
D03*
D23*
X11900Y32300D02*
D03*
X24300Y65000D02*
D03*
D24*
X66900Y45500D02*
D03*
X67500Y47500D02*
D03*
X47600Y60600D02*
D03*
Y62050D02*
D03*
X25100Y53900D02*
D03*
Y53000D02*
D03*
Y60500D02*
D03*
X25000Y62050D02*
D03*
X48000Y60600D02*
D03*
Y62550D02*
D03*
X25400D02*
D03*
X25500Y60500D02*
D03*
X48400Y61550D02*
D03*
Y60600D02*
D03*
X37500Y60500D02*
D03*
Y61546D02*
D03*
X18900Y64900D02*
D03*
X20500Y66500D02*
D03*
X15500Y60000D02*
D03*
X15000D02*
D03*
Y62000D02*
D03*
X15500Y62500D02*
D03*
X6000Y22500D02*
D03*
X7500Y21000D02*
D03*
D25*
X63000Y58500D02*
D03*
X10000Y67000D02*
D03*
Y49500D02*
D03*
X19000Y59000D02*
D03*
X18500Y34000D02*
D03*
M02*
