G04 Layer_Color=8388736*
%FSLAX24Y24*%
%MOIN*%
G70*
G01*
G75*
%ADD31R,0.1580X0.0700*%
%ADD32C,0.0680*%
%ADD33R,0.0808X0.0808*%
%ADD34C,0.0808*%
%ADD35C,0.0879*%
%ADD36C,0.1030*%
%ADD37C,0.0080*%
%ADD38C,0.0724*%
%ADD39R,0.0724X0.0724*%
%ADD40C,0.0730*%
%ADD41R,0.0724X0.0724*%
D31*
X28110Y35900D02*
D03*
Y32000D02*
D03*
X30500D02*
D03*
Y35900D02*
D03*
X23000Y28000D02*
D03*
Y24100D02*
D03*
X20610D02*
D03*
Y28000D02*
D03*
X25610D02*
D03*
Y24100D02*
D03*
X28000D02*
D03*
Y28000D02*
D03*
D32*
X35200Y47800D02*
D03*
X63600Y76800D02*
D03*
X9800Y80000D02*
D03*
X63500Y8200D02*
D03*
X9800Y8300D02*
D03*
X7000Y73500D02*
D03*
Y72500D02*
D03*
X23000Y70000D02*
D03*
X22000D02*
D03*
X23000Y71000D02*
D03*
X22000D02*
D03*
X23000Y72500D02*
D03*
X22000D02*
D03*
X23000Y73500D02*
D03*
X22000D02*
D03*
X23000Y68000D02*
D03*
X22000D02*
D03*
X52100Y53100D02*
D03*
Y54100D02*
D03*
X57600Y53000D02*
D03*
Y54000D02*
D03*
D33*
X17400Y12100D02*
D03*
D34*
Y10100D02*
D03*
D35*
X63100Y49500D02*
D03*
Y47500D02*
D03*
Y45500D02*
D03*
Y43500D02*
D03*
Y41500D02*
D03*
Y39500D02*
D03*
X65100D02*
D03*
Y41500D02*
D03*
Y43500D02*
D03*
Y45500D02*
D03*
Y47500D02*
D03*
Y49500D02*
D03*
X63100Y31500D02*
D03*
X65100D02*
D03*
Y37500D02*
D03*
Y35500D02*
D03*
Y33500D02*
D03*
X63100D02*
D03*
Y35500D02*
D03*
Y37500D02*
D03*
X48000Y50100D02*
D03*
Y48100D02*
D03*
Y46100D02*
D03*
Y44100D02*
D03*
Y42100D02*
D03*
Y40100D02*
D03*
X50000D02*
D03*
Y42100D02*
D03*
Y44100D02*
D03*
Y46100D02*
D03*
Y48100D02*
D03*
Y50100D02*
D03*
X48000Y32100D02*
D03*
X50000D02*
D03*
Y38100D02*
D03*
Y36100D02*
D03*
Y34100D02*
D03*
X48000D02*
D03*
Y36100D02*
D03*
Y38100D02*
D03*
X20000Y53500D02*
D03*
Y51500D02*
D03*
X35500Y41500D02*
D03*
Y39500D02*
D03*
Y37500D02*
D03*
Y35500D02*
D03*
Y33500D02*
D03*
Y31500D02*
D03*
X33500D02*
D03*
Y33500D02*
D03*
Y35500D02*
D03*
Y37500D02*
D03*
Y39500D02*
D03*
Y41500D02*
D03*
X20000Y43500D02*
D03*
Y41500D02*
D03*
Y39500D02*
D03*
X22000D02*
D03*
Y41500D02*
D03*
Y43500D02*
D03*
Y37500D02*
D03*
X20000D02*
D03*
X22000Y55500D02*
D03*
Y53500D02*
D03*
Y51500D02*
D03*
Y49500D02*
D03*
Y47500D02*
D03*
Y45500D02*
D03*
X20000D02*
D03*
Y47500D02*
D03*
Y49500D02*
D03*
Y55500D02*
D03*
X11000Y63300D02*
D03*
Y61300D02*
D03*
Y59300D02*
D03*
Y57300D02*
D03*
Y55300D02*
D03*
Y53300D02*
D03*
X9000D02*
D03*
Y55300D02*
D03*
Y57300D02*
D03*
Y59300D02*
D03*
Y61300D02*
D03*
Y63300D02*
D03*
D36*
X14630Y18600D02*
D03*
X27220D02*
D03*
X25350Y17250D02*
D03*
X22400D02*
D03*
X19450D02*
D03*
X16500D02*
D03*
Y18500D02*
D03*
X19450D02*
D03*
X22400D02*
D03*
X25350D02*
D03*
X34730Y17900D02*
D03*
X44370D02*
D03*
X42500Y19250D02*
D03*
X39550D02*
D03*
X36600D02*
D03*
Y18000D02*
D03*
X39550D02*
D03*
X42500D02*
D03*
D37*
X29114Y10634D02*
D03*
X11220Y18870D02*
D03*
X5320D02*
D03*
X11034Y30686D02*
D03*
X25166Y66614D02*
D03*
D38*
X28484Y11500D02*
D03*
X11900Y31316D02*
D03*
X24300Y65984D02*
D03*
D39*
X27500Y11500D02*
D03*
D40*
X8860Y18500D02*
D03*
Y17320D02*
D03*
X10040D02*
D03*
X7680D02*
D03*
X6500D02*
D03*
X10040Y18500D02*
D03*
X7680D02*
D03*
X6500Y18500D02*
D03*
D41*
X11900Y32300D02*
D03*
X24300Y65000D02*
D03*
M02*
