G04 Layer_Physical_Order=2*
G04 Layer_Color=16711680*
%FSLAX24Y24*%
%MOIN*%
G70*
G01*
G75*
%ADD10R,0.0157X0.0157*%
%ADD12O,0.0236X0.0709*%
%ADD14R,0.0315X0.0374*%
%ADD19O,0.0177X0.0630*%
%ADD20R,0.1080X0.0850*%
%ADD21R,0.0256X0.0689*%
%ADD22C,0.0100*%
%ADD24C,0.1900*%
%ADD25C,0.1037*%
%ADD26C,0.0551*%
%ADD27C,0.0600*%
%ADD28C,0.0669*%
%ADD29C,0.0799*%
%ADD30C,0.1250*%
%ADD31C,0.0630*%
%ADD32C,0.0290*%
%ADD33C,0.2640*%
%ADD34R,0.0551X0.0453*%
%ADD35R,0.0236X0.0532*%
%ADD36R,0.0480X0.0358*%
%ADD37R,0.0453X0.0551*%
G36*
X7250Y18900D02*
X9000D01*
Y17600D01*
X3750D01*
Y17829D01*
X3774Y17869D01*
X3800Y17869D01*
X3953D01*
Y18227D01*
X3800D01*
X3774Y18227D01*
X3750Y18267D01*
Y18610D01*
X3800Y18625D01*
X3820Y18595D01*
X3892Y18547D01*
X3977Y18530D01*
X4063Y18547D01*
X4135Y18595D01*
X4183Y18667D01*
X4197Y18738D01*
X3977D01*
Y19238D01*
X4197D01*
X4183Y19310D01*
X4135Y19382D01*
X4063Y19430D01*
X3977Y19447D01*
X3892Y19430D01*
X3820Y19382D01*
X3800Y19351D01*
X3750Y19367D01*
Y19600D01*
X7250D01*
Y18900D01*
D02*
G37*
G36*
X9000Y22998D02*
X9000Y20318D01*
X7117Y20318D01*
Y20931D01*
X5838D01*
Y20318D01*
X2663Y20318D01*
Y20556D01*
X2885D01*
Y20750D01*
X2657D01*
Y21250D01*
X2885D01*
Y21444D01*
X2663D01*
X2663Y22969D01*
X2698Y23004D01*
X9000Y22998D01*
D02*
G37*
G36*
X46296Y204D02*
X204D01*
Y24796D01*
X14533D01*
X14543Y24747D01*
X14522Y24738D01*
X14381Y24652D01*
X14255Y24545D01*
X14148Y24419D01*
X14062Y24278D01*
X13998Y24125D01*
X13960Y23965D01*
X13958Y23948D01*
X11564Y21553D01*
X10486D01*
Y21921D01*
X10513Y21930D01*
X10621Y21987D01*
X10715Y22064D01*
X10793Y22159D01*
X10850Y22266D01*
X10885Y22383D01*
X10897Y22504D01*
X10885Y22625D01*
X10850Y22742D01*
X10793Y22849D01*
X10715Y22944D01*
X10621Y23021D01*
X10513Y23078D01*
X10397Y23114D01*
X10276Y23126D01*
X10154Y23114D01*
X10038Y23078D01*
X9930Y23021D01*
X9836Y22944D01*
X9759Y22849D01*
X9701Y22742D01*
X9666Y22625D01*
X9654Y22504D01*
X9666Y22383D01*
X9701Y22266D01*
X9759Y22159D01*
X9836Y22064D01*
X9930Y21987D01*
X10038Y21930D01*
X10154Y21894D01*
X10180Y21892D01*
Y21553D01*
X9936D01*
X9245Y22245D01*
X9119Y22352D01*
X9102Y22363D01*
Y22998D01*
X9098Y23017D01*
X9094Y23037D01*
X9094Y23037D01*
X9094Y23037D01*
X9083Y23054D01*
X9072Y23070D01*
X9072Y23070D01*
X9072Y23070D01*
X9056Y23081D01*
X9039Y23092D01*
X9039Y23092D01*
X9039Y23092D01*
X9020Y23096D01*
X9000Y23100D01*
X2698Y23106D01*
X2698Y23106D01*
X2698Y23106D01*
X2678Y23102D01*
X2659Y23099D01*
X2659Y23099D01*
X2659Y23099D01*
X2642Y23087D01*
X2626Y23077D01*
X2626Y23077D01*
X2626Y23077D01*
X2591Y23041D01*
X2591Y23041D01*
X2590Y23041D01*
X2579Y23025D01*
X2568Y23008D01*
X2568Y23008D01*
X2568Y23008D01*
X2564Y22989D01*
X2561Y22969D01*
X2561Y22969D01*
X2561Y22969D01*
X2561Y21444D01*
X2429D01*
Y20556D01*
X2561D01*
Y20340D01*
X2556Y20333D01*
X2522Y20306D01*
X2513Y20303D01*
X2461Y20313D01*
X2388Y20299D01*
X2333Y20262D01*
X2279Y20299D01*
X2205Y20313D01*
X2170Y20306D01*
X2120Y20346D01*
Y20511D01*
X2108Y20569D01*
X2075Y20619D01*
X1965Y20729D01*
Y21713D01*
X2070D01*
Y22287D01*
X1555D01*
Y21713D01*
X1659D01*
Y20665D01*
X1671Y20607D01*
X1704Y20557D01*
X1814Y20447D01*
Y20320D01*
X1775Y20299D01*
X1764Y20299D01*
X1694Y20313D01*
X1620Y20299D01*
X1558Y20257D01*
X1516Y20194D01*
X1501Y20121D01*
Y19668D01*
X1516Y19595D01*
X1541Y19558D01*
Y18539D01*
X1516Y18502D01*
X1501Y18428D01*
Y17975D01*
X1516Y17902D01*
X1558Y17839D01*
X1620Y17798D01*
X1694Y17783D01*
X1767Y17798D01*
X1822Y17834D01*
X1876Y17798D01*
X1950Y17783D01*
X2002Y17793D01*
X2035Y17784D01*
X2056Y17760D01*
X2064Y17721D01*
X2097Y17671D01*
X2228Y17540D01*
X2278Y17507D01*
X2337Y17495D01*
X3777D01*
X3792Y17498D01*
X6947D01*
Y10921D01*
X6863Y10837D01*
X6755Y10745D01*
X6648Y10619D01*
X6562Y10478D01*
X6498Y10325D01*
X6460Y10165D01*
X6447Y10000D01*
Y9050D01*
X6460Y8885D01*
X6498Y8725D01*
X6562Y8572D01*
X6648Y8431D01*
X6755Y8305D01*
X8012Y7049D01*
X7988Y7002D01*
X7870Y6987D01*
X7748Y6936D01*
X7644Y6856D01*
X7564Y6752D01*
X7513Y6630D01*
X7496Y6500D01*
X7513Y6370D01*
X7564Y6248D01*
X7644Y6144D01*
X7748Y6064D01*
X7870Y6013D01*
X8000Y5996D01*
X8130Y6013D01*
X8252Y6064D01*
X8356Y6144D01*
X8436Y6248D01*
X8487Y6370D01*
X8502Y6488D01*
X8549Y6512D01*
X9098Y5963D01*
X9148Y5881D01*
X9255Y5755D01*
X9381Y5648D01*
X9522Y5562D01*
X9675Y5498D01*
X9835Y5460D01*
X10000Y5447D01*
X12000D01*
X12165Y5460D01*
X12325Y5498D01*
X12478Y5562D01*
X12619Y5648D01*
X12745Y5755D01*
X12852Y5881D01*
X12938Y6022D01*
X13002Y6175D01*
X13040Y6335D01*
X13053Y6500D01*
X13040Y6665D01*
X13002Y6825D01*
X12938Y6978D01*
X12852Y7119D01*
X12745Y7245D01*
X12619Y7352D01*
X12478Y7438D01*
X12325Y7502D01*
X12165Y7540D01*
X12000Y7553D01*
X10486D01*
X8553Y9486D01*
Y9548D01*
X8745Y9739D01*
X8852Y9865D01*
X8938Y10006D01*
X9002Y10159D01*
X9040Y10319D01*
X9053Y10484D01*
Y17500D01*
X9052Y17515D01*
X9072Y17528D01*
X9094Y17561D01*
X9102Y17600D01*
Y18900D01*
X9094Y18939D01*
X9072Y18972D01*
X9039Y18994D01*
X9000Y19002D01*
X7352D01*
Y19600D01*
X7344Y19639D01*
X7322Y19672D01*
X7289Y19694D01*
X7250Y19702D01*
X3750D01*
X3711Y19694D01*
X3678Y19672D01*
X3656Y19639D01*
X3648Y19600D01*
Y19433D01*
X3598Y19406D01*
X3563Y19430D01*
X3477Y19447D01*
X3392Y19430D01*
X3320Y19382D01*
X3272Y19310D01*
X3255Y19224D01*
Y18982D01*
X3094Y18821D01*
X3061Y18771D01*
X3049Y18713D01*
Y18355D01*
X2654D01*
Y18428D01*
X2639Y18502D01*
X2597Y18564D01*
X2535Y18606D01*
X2461Y18620D01*
X2408Y18610D01*
X2376Y18619D01*
X2354Y18643D01*
X2347Y18682D01*
X2314Y18732D01*
X2271Y18775D01*
X2221Y18808D01*
X2163Y18819D01*
X1847D01*
Y19455D01*
X1897Y19486D01*
X1950Y19476D01*
X2023Y19490D01*
X2077Y19527D01*
X2132Y19490D01*
X2205Y19476D01*
X2279Y19490D01*
X2333Y19527D01*
X2388Y19490D01*
X2461Y19476D01*
X2535Y19490D01*
X2597Y19532D01*
X2639Y19595D01*
X2654Y19668D01*
Y19742D01*
X2824D01*
X2882Y19753D01*
X2932Y19786D01*
X3361Y20216D01*
X5838Y20216D01*
Y19881D01*
X6427D01*
Y20406D01*
X6527D01*
Y19881D01*
X7117D01*
Y20216D01*
X8295Y20216D01*
X8755Y19755D01*
X8881Y19648D01*
X9022Y19562D01*
X9175Y19498D01*
X9335Y19460D01*
X9500Y19447D01*
X12000D01*
X12165Y19460D01*
X12325Y19498D01*
X12478Y19562D01*
X12619Y19648D01*
X12745Y19755D01*
X15745Y22755D01*
X15852Y22881D01*
X15938Y23022D01*
X16002Y23175D01*
X16040Y23335D01*
X16053Y23500D01*
Y23800D01*
X16040Y23965D01*
X16002Y24125D01*
X15938Y24278D01*
X15852Y24419D01*
X15745Y24545D01*
X15619Y24652D01*
X15478Y24738D01*
X15457Y24747D01*
X15467Y24796D01*
X46296D01*
Y204D01*
D02*
G37*
G36*
X3648Y18544D02*
Y18267D01*
X3650Y18259D01*
X3649Y18251D01*
X3653Y18240D01*
X3656Y18228D01*
X3660Y18221D01*
X3663Y18214D01*
X3687Y18174D01*
X3695Y18165D01*
X3702Y18155D01*
X3709Y18150D01*
X3714Y18144D01*
X3725Y18139D01*
X3735Y18133D01*
X3743Y18131D01*
X3750Y18128D01*
X3762Y18127D01*
X3774Y18125D01*
X3774D01*
Y17971D01*
X3774D01*
X3762Y17969D01*
X3750Y17968D01*
X3743Y17965D01*
X3735Y17963D01*
X3725Y17957D01*
X3714Y17952D01*
X3709Y17946D01*
X3702Y17941D01*
X3695Y17931D01*
X3687Y17922D01*
X3663Y17882D01*
X3660Y17875D01*
X3656Y17868D01*
X3653Y17856D01*
X3649Y17845D01*
X3615Y17801D01*
X2623D01*
X2605Y17851D01*
X2639Y17902D01*
X2654Y17975D01*
Y18049D01*
X3155D01*
X3180Y18054D01*
X3223Y18010D01*
Y17869D01*
X3581D01*
Y18227D01*
X3439D01*
X3355Y18311D01*
Y18516D01*
X3405Y18544D01*
X3477Y18530D01*
X3563Y18547D01*
X3598Y18570D01*
X3648Y18544D01*
D02*
G37*
%LPC*%
G36*
X21724Y13752D02*
X21603Y13740D01*
X21486Y13704D01*
X21379Y13647D01*
X21285Y13570D01*
X21207Y13475D01*
X21150Y13368D01*
X21115Y13251D01*
X21103Y13130D01*
X21115Y13009D01*
X21150Y12892D01*
X21207Y12785D01*
X21285Y12690D01*
X21379Y12613D01*
X21486Y12556D01*
X21603Y12520D01*
X21724Y12508D01*
X21846Y12520D01*
X21962Y12556D01*
X22070Y12613D01*
X22164Y12690D01*
X22241Y12785D01*
X22299Y12892D01*
X22334Y13009D01*
X22346Y13130D01*
X22334Y13251D01*
X22299Y13368D01*
X22241Y13475D01*
X22164Y13570D01*
X22070Y13647D01*
X21962Y13704D01*
X21846Y13740D01*
X21724Y13752D01*
D02*
G37*
G36*
X31440Y12450D02*
X31093D01*
Y12103D01*
X31148Y12110D01*
X31245Y12151D01*
X31329Y12215D01*
X31393Y12298D01*
X31433Y12396D01*
X31440Y12450D01*
D02*
G37*
G36*
X30993D02*
X30646D01*
X30654Y12396D01*
X30694Y12298D01*
X30758Y12215D01*
X30842Y12151D01*
X30939Y12110D01*
X30993Y12103D01*
Y12450D01*
D02*
G37*
G36*
X15000Y13756D02*
X14879Y13744D01*
X14762Y13708D01*
X14655Y13651D01*
X14560Y13573D01*
X14483Y13479D01*
X14426Y13372D01*
X14390Y13255D01*
X14378Y13134D01*
X14390Y13013D01*
X14426Y12896D01*
X14483Y12788D01*
X14560Y12694D01*
X14655Y12617D01*
X14762Y12559D01*
X14879Y12524D01*
X15000Y12512D01*
X15121Y12524D01*
X15238Y12559D01*
X15345Y12617D01*
X15440Y12694D01*
X15517Y12788D01*
X15574Y12896D01*
X15610Y13013D01*
X15622Y13134D01*
X15610Y13255D01*
X15574Y13372D01*
X15517Y13479D01*
X15440Y13573D01*
X15345Y13651D01*
X15238Y13708D01*
X15121Y13744D01*
X15000Y13756D01*
D02*
G37*
G36*
X30993Y12897D02*
X30939Y12890D01*
X30842Y12849D01*
X30758Y12785D01*
X30694Y12702D01*
X30654Y12604D01*
X30646Y12550D01*
X30993D01*
Y12897D01*
D02*
G37*
G36*
X31093D02*
Y12550D01*
X31440D01*
X31433Y12604D01*
X31393Y12702D01*
X31329Y12785D01*
X31245Y12849D01*
X31148Y12890D01*
X31093Y12897D01*
D02*
G37*
G36*
X31043Y13903D02*
X30939Y13890D01*
X30842Y13849D01*
X30758Y13785D01*
X30694Y13702D01*
X30654Y13604D01*
X30640Y13500D01*
X30654Y13396D01*
X30694Y13298D01*
X30758Y13215D01*
X30842Y13151D01*
X30939Y13110D01*
X31043Y13097D01*
X31148Y13110D01*
X31245Y13151D01*
X31329Y13215D01*
X31393Y13298D01*
X31433Y13396D01*
X31447Y13500D01*
X31433Y13604D01*
X31393Y13702D01*
X31329Y13785D01*
X31245Y13849D01*
X31148Y13890D01*
X31043Y13903D01*
D02*
G37*
G36*
X43500Y12903D02*
X43396Y12890D01*
X43298Y12849D01*
X43215Y12785D01*
X43151Y12702D01*
X43110Y12604D01*
X43097Y12500D01*
X43110Y12396D01*
X43151Y12298D01*
X43215Y12215D01*
X43298Y12151D01*
X43396Y12110D01*
X43500Y12097D01*
X43604Y12110D01*
X43702Y12151D01*
X43785Y12215D01*
X43849Y12298D01*
X43890Y12396D01*
X43903Y12500D01*
X43890Y12604D01*
X43849Y12702D01*
X43785Y12785D01*
X43702Y12849D01*
X43604Y12890D01*
X43500Y12903D01*
D02*
G37*
G36*
X13996Y12379D02*
X13898Y12366D01*
X13807Y12328D01*
X13728Y12268D01*
X13668Y12189D01*
X13630Y12098D01*
X13617Y12000D01*
X13630Y11902D01*
X13668Y11811D01*
X13728Y11732D01*
X13807Y11672D01*
X13898Y11634D01*
X13996Y11621D01*
X14094Y11634D01*
X14185Y11672D01*
X14264Y11732D01*
X14324Y11811D01*
X14362Y11902D01*
X14375Y12000D01*
X14362Y12098D01*
X14324Y12189D01*
X14264Y12268D01*
X14185Y12328D01*
X14094Y12366D01*
X13996Y12379D01*
D02*
G37*
G36*
X11004D02*
X10906Y12366D01*
X10815Y12328D01*
X10736Y12268D01*
X10676Y12189D01*
X10638Y12098D01*
X10625Y12000D01*
X10638Y11902D01*
X10676Y11811D01*
X10736Y11732D01*
X10815Y11672D01*
X10906Y11634D01*
X11004Y11621D01*
X11102Y11634D01*
X11193Y11672D01*
X11272Y11732D01*
X11332Y11811D01*
X11370Y11902D01*
X11383Y12000D01*
X11370Y12098D01*
X11332Y12189D01*
X11272Y12268D01*
X11193Y12328D01*
X11102Y12366D01*
X11004Y12379D01*
D02*
G37*
G36*
X27423Y11787D02*
X27215D01*
Y11550D01*
X27423D01*
Y11787D01*
D02*
G37*
G36*
X15504Y12379D02*
X15406Y12366D01*
X15315Y12328D01*
X15236Y12268D01*
X15176Y12189D01*
X15138Y12098D01*
X15125Y12000D01*
X15138Y11902D01*
X15176Y11811D01*
X15236Y11732D01*
X15315Y11672D01*
X15406Y11634D01*
X15504Y11621D01*
X15602Y11634D01*
X15693Y11672D01*
X15772Y11732D01*
X15832Y11811D01*
X15870Y11902D01*
X15883Y12000D01*
X15870Y12098D01*
X15832Y12189D01*
X15772Y12268D01*
X15693Y12328D01*
X15602Y12366D01*
X15504Y12379D01*
D02*
G37*
G36*
X41500Y12903D02*
X41396Y12890D01*
X41298Y12849D01*
X41215Y12785D01*
X41151Y12702D01*
X41110Y12604D01*
X41097Y12500D01*
X41110Y12396D01*
X41151Y12298D01*
X41215Y12215D01*
X41298Y12151D01*
X41396Y12110D01*
X41500Y12097D01*
X41604Y12110D01*
X41702Y12151D01*
X41785Y12215D01*
X41849Y12298D01*
X41890Y12396D01*
X41903Y12500D01*
X41890Y12604D01*
X41849Y12702D01*
X41785Y12785D01*
X41702Y12849D01*
X41604Y12890D01*
X41500Y12903D01*
D02*
G37*
G36*
X39500D02*
X39396Y12890D01*
X39298Y12849D01*
X39215Y12785D01*
X39151Y12702D01*
X39110Y12604D01*
X39097Y12500D01*
X39110Y12396D01*
X39151Y12298D01*
X39215Y12215D01*
X39298Y12151D01*
X39396Y12110D01*
X39500Y12097D01*
X39604Y12110D01*
X39702Y12151D01*
X39785Y12215D01*
X39849Y12298D01*
X39890Y12396D01*
X39903Y12500D01*
X39890Y12604D01*
X39849Y12702D01*
X39785Y12785D01*
X39702Y12849D01*
X39604Y12890D01*
X39500Y12903D01*
D02*
G37*
G36*
X18496Y12379D02*
X18398Y12366D01*
X18307Y12328D01*
X18228Y12268D01*
X18168Y12189D01*
X18130Y12098D01*
X18117Y12000D01*
X18130Y11902D01*
X18168Y11811D01*
X18228Y11732D01*
X18307Y11672D01*
X18398Y11634D01*
X18496Y11621D01*
X18594Y11634D01*
X18685Y11672D01*
X18764Y11732D01*
X18824Y11811D01*
X18862Y11902D01*
X18875Y12000D01*
X18862Y12098D01*
X18824Y12189D01*
X18764Y12268D01*
X18685Y12328D01*
X18594Y12366D01*
X18496Y12379D01*
D02*
G37*
G36*
X39500Y13903D02*
X39396Y13890D01*
X39298Y13849D01*
X39215Y13785D01*
X39151Y13702D01*
X39110Y13604D01*
X39097Y13500D01*
X39110Y13396D01*
X39151Y13298D01*
X39215Y13215D01*
X39298Y13151D01*
X39396Y13110D01*
X39500Y13097D01*
X39604Y13110D01*
X39702Y13151D01*
X39785Y13215D01*
X39849Y13298D01*
X39890Y13396D01*
X39903Y13500D01*
X39890Y13604D01*
X39849Y13702D01*
X39785Y13785D01*
X39702Y13849D01*
X39604Y13890D01*
X39500Y13903D01*
D02*
G37*
G36*
X40100Y15850D02*
X40004Y15831D01*
X39923Y15777D01*
X39869Y15696D01*
X39850Y15600D01*
X39869Y15504D01*
X39923Y15423D01*
X39947Y15408D01*
Y14992D01*
X39923Y14977D01*
X39869Y14896D01*
X39850Y14800D01*
X39869Y14704D01*
X39923Y14623D01*
X40004Y14569D01*
X40100Y14550D01*
X40196Y14569D01*
X40277Y14623D01*
X40331Y14704D01*
X40350Y14800D01*
X40331Y14896D01*
X40277Y14977D01*
X40253Y14992D01*
Y15408D01*
X40277Y15423D01*
X40331Y15504D01*
X40350Y15600D01*
X40331Y15696D01*
X40277Y15777D01*
X40196Y15831D01*
X40100Y15850D01*
D02*
G37*
G36*
X25143Y16229D02*
X25001Y16215D01*
X24865Y16173D01*
X24739Y16106D01*
X24628Y16015D01*
X24538Y15905D01*
X24470Y15779D01*
X24429Y15642D01*
X24415Y15500D01*
X24429Y15358D01*
X24470Y15221D01*
X24538Y15095D01*
X24628Y14985D01*
X24739Y14894D01*
X24865Y14827D01*
X25001Y14785D01*
X25143Y14771D01*
X25285Y14785D01*
X25422Y14827D01*
X25548Y14894D01*
X25658Y14985D01*
X25749Y15095D01*
X25816Y15221D01*
X25858Y15358D01*
X25872Y15500D01*
X25858Y15642D01*
X25816Y15779D01*
X25749Y15905D01*
X25658Y16015D01*
X25548Y16106D01*
X25422Y16173D01*
X25285Y16215D01*
X25143Y16229D01*
D02*
G37*
G36*
X43550Y13897D02*
Y13550D01*
X43897D01*
X43890Y13604D01*
X43849Y13702D01*
X43785Y13785D01*
X43702Y13849D01*
X43604Y13890D01*
X43550Y13897D01*
D02*
G37*
G36*
X31043Y14903D02*
X30939Y14890D01*
X30842Y14849D01*
X30758Y14785D01*
X30694Y14702D01*
X30654Y14604D01*
X30640Y14500D01*
X30654Y14396D01*
X30694Y14298D01*
X30758Y14215D01*
X30842Y14151D01*
X30939Y14110D01*
X31043Y14097D01*
X31148Y14110D01*
X31245Y14151D01*
X31329Y14215D01*
X31393Y14298D01*
X31433Y14396D01*
X31447Y14500D01*
X31433Y14604D01*
X31393Y14702D01*
X31329Y14785D01*
X31245Y14849D01*
X31148Y14890D01*
X31043Y14903D01*
D02*
G37*
G36*
X42600Y17350D02*
X42504Y17331D01*
X42423Y17277D01*
X42408Y17253D01*
X42152D01*
X42136Y17277D01*
X42055Y17331D01*
X41960Y17350D01*
X41864Y17331D01*
X41783Y17277D01*
X41729Y17196D01*
X41710Y17100D01*
X41729Y17004D01*
X41783Y16923D01*
X41864Y16869D01*
X41960Y16850D01*
X42055Y16869D01*
X42136Y16923D01*
X42152Y16947D01*
X42408D01*
X42423Y16923D01*
X42504Y16869D01*
X42600Y16850D01*
X42696Y16869D01*
X42777Y16923D01*
X42831Y17004D01*
X42850Y17100D01*
X42831Y17196D01*
X42777Y17277D01*
X42696Y17331D01*
X42600Y17350D01*
D02*
G37*
G36*
X43600Y17650D02*
X43504Y17631D01*
X43433Y17583D01*
X43400Y17579D01*
X43367Y17583D01*
X43296Y17631D01*
X43200Y17650D01*
X43104Y17631D01*
X43023Y17577D01*
X42969Y17496D01*
X42950Y17400D01*
X42969Y17304D01*
X43023Y17223D01*
X43047Y17208D01*
Y16392D01*
X43023Y16377D01*
X42969Y16296D01*
X42950Y16200D01*
X42969Y16104D01*
X43023Y16023D01*
X43104Y15969D01*
X43200Y15950D01*
X43296Y15969D01*
X43367Y16017D01*
X43400Y16021D01*
X43433Y16017D01*
X43504Y15969D01*
X43600Y15950D01*
X43696Y15969D01*
X43777Y16023D01*
X43831Y16104D01*
X43850Y16200D01*
X43831Y16296D01*
X43777Y16377D01*
X43753Y16392D01*
Y17208D01*
X43777Y17223D01*
X43831Y17304D01*
X43850Y17400D01*
X43831Y17496D01*
X43777Y17577D01*
X43696Y17631D01*
X43600Y17650D01*
D02*
G37*
G36*
X44500Y17403D02*
X44396Y17390D01*
X44298Y17349D01*
X44215Y17285D01*
X44151Y17202D01*
X44110Y17104D01*
X44097Y17000D01*
X44110Y16896D01*
X44151Y16798D01*
X44215Y16715D01*
X44298Y16651D01*
X44396Y16610D01*
X44500Y16597D01*
X44604Y16610D01*
X44702Y16651D01*
X44785Y16715D01*
X44849Y16798D01*
X44890Y16896D01*
X44903Y17000D01*
X44890Y17104D01*
X44849Y17202D01*
X44785Y17285D01*
X44702Y17349D01*
X44604Y17390D01*
X44500Y17403D01*
D02*
G37*
G36*
X45500D02*
X45396Y17390D01*
X45298Y17349D01*
X45215Y17285D01*
X45151Y17202D01*
X45110Y17104D01*
X45097Y17000D01*
X45110Y16896D01*
X45151Y16798D01*
X45215Y16715D01*
X45298Y16651D01*
X45396Y16610D01*
X45500Y16597D01*
X45604Y16610D01*
X45702Y16651D01*
X45785Y16715D01*
X45849Y16798D01*
X45890Y16896D01*
X45903Y17000D01*
X45890Y17104D01*
X45849Y17202D01*
X45785Y17285D01*
X45702Y17349D01*
X45604Y17390D01*
X45500Y17403D01*
D02*
G37*
G36*
X41550Y13897D02*
Y13550D01*
X41897D01*
X41890Y13604D01*
X41849Y13702D01*
X41785Y13785D01*
X41702Y13849D01*
X41604Y13890D01*
X41550Y13897D01*
D02*
G37*
G36*
X41897Y13450D02*
X41550D01*
Y13103D01*
X41604Y13110D01*
X41702Y13151D01*
X41785Y13215D01*
X41849Y13298D01*
X41890Y13396D01*
X41897Y13450D01*
D02*
G37*
G36*
X43897D02*
X43550D01*
Y13103D01*
X43604Y13110D01*
X43702Y13151D01*
X43785Y13215D01*
X43849Y13298D01*
X43890Y13396D01*
X43897Y13450D01*
D02*
G37*
G36*
X41450D02*
X41103D01*
X41110Y13396D01*
X41151Y13298D01*
X41215Y13215D01*
X41298Y13151D01*
X41396Y13110D01*
X41450Y13103D01*
Y13450D01*
D02*
G37*
G36*
X43450D02*
X43103D01*
X43110Y13396D01*
X43151Y13298D01*
X43215Y13215D01*
X43298Y13151D01*
X43396Y13110D01*
X43450Y13103D01*
Y13450D01*
D02*
G37*
G36*
X41450Y13897D02*
X41396Y13890D01*
X41298Y13849D01*
X41215Y13785D01*
X41151Y13702D01*
X41110Y13604D01*
X41103Y13550D01*
X41450D01*
Y13897D01*
D02*
G37*
G36*
X43450D02*
X43396Y13890D01*
X43298Y13849D01*
X43215Y13785D01*
X43151Y13702D01*
X43110Y13604D01*
X43103Y13550D01*
X43450D01*
Y13897D01*
D02*
G37*
G36*
X17000Y14460D02*
X16879Y14448D01*
X16762Y14413D01*
X16655Y14355D01*
X16560Y14278D01*
X16483Y14184D01*
X16426Y14076D01*
X16390Y13960D01*
X16378Y13839D01*
X16390Y13717D01*
X16426Y13601D01*
X16483Y13493D01*
X16560Y13399D01*
X16655Y13322D01*
X16762Y13264D01*
X16879Y13229D01*
X17000Y13217D01*
X17121Y13229D01*
X17238Y13264D01*
X17345Y13322D01*
X17440Y13399D01*
X17517Y13493D01*
X17574Y13601D01*
X17610Y13717D01*
X17622Y13839D01*
X17610Y13960D01*
X17574Y14076D01*
X17517Y14184D01*
X17440Y14278D01*
X17345Y14355D01*
X17238Y14413D01*
X17121Y14448D01*
X17000Y14460D01*
D02*
G37*
G36*
X10276Y14464D02*
X10154Y14452D01*
X10038Y14417D01*
X9930Y14359D01*
X9836Y14282D01*
X9759Y14188D01*
X9701Y14080D01*
X9666Y13964D01*
X9654Y13843D01*
X9666Y13721D01*
X9701Y13605D01*
X9759Y13497D01*
X9836Y13403D01*
X9930Y13326D01*
X10038Y13268D01*
X10154Y13233D01*
X10276Y13221D01*
X10397Y13233D01*
X10513Y13268D01*
X10621Y13326D01*
X10715Y13403D01*
X10793Y13497D01*
X10850Y13605D01*
X10885Y13721D01*
X10897Y13843D01*
X10885Y13964D01*
X10850Y14080D01*
X10793Y14188D01*
X10715Y14282D01*
X10621Y14359D01*
X10513Y14417D01*
X10397Y14452D01*
X10276Y14464D01*
D02*
G37*
G36*
X27115Y11787D02*
X26908D01*
Y11550D01*
X27115D01*
Y11787D01*
D02*
G37*
G36*
X24050Y6997D02*
Y6550D01*
X24497D01*
X24487Y6630D01*
X24436Y6752D01*
X24356Y6856D01*
X24252Y6936D01*
X24130Y6987D01*
X24050Y6997D01*
D02*
G37*
G36*
X30000Y9403D02*
X29896Y9390D01*
X29798Y9349D01*
X29715Y9285D01*
X29651Y9202D01*
X29610Y9104D01*
X29597Y9000D01*
X29610Y8896D01*
X29651Y8798D01*
X29715Y8715D01*
X29798Y8651D01*
X29896Y8610D01*
X30000Y8597D01*
X30104Y8610D01*
X30202Y8651D01*
X30285Y8715D01*
X30349Y8798D01*
X30390Y8896D01*
X30403Y9000D01*
X30390Y9104D01*
X30349Y9202D01*
X30285Y9285D01*
X30202Y9349D01*
X30104Y9390D01*
X30000Y9403D01*
D02*
G37*
G36*
X24497Y6450D02*
X24050D01*
Y6003D01*
X24130Y6013D01*
X24252Y6064D01*
X24356Y6144D01*
X24436Y6248D01*
X24487Y6370D01*
X24497Y6450D01*
D02*
G37*
G36*
X23950Y6997D02*
X23870Y6987D01*
X23748Y6936D01*
X23644Y6856D01*
X23564Y6752D01*
X23513Y6630D01*
X23503Y6550D01*
X23950D01*
Y6997D01*
D02*
G37*
G36*
X30950Y8950D02*
X30603D01*
X30610Y8896D01*
X30651Y8798D01*
X30715Y8715D01*
X30798Y8651D01*
X30896Y8610D01*
X30950Y8603D01*
Y8950D01*
D02*
G37*
G36*
X31050Y9397D02*
Y9050D01*
X31397D01*
X31390Y9104D01*
X31349Y9202D01*
X31285Y9285D01*
X31202Y9349D01*
X31104Y9390D01*
X31050Y9397D01*
D02*
G37*
G36*
X29500Y10850D02*
X29404Y10831D01*
X29323Y10777D01*
X29269Y10696D01*
X29250Y10600D01*
X29269Y10504D01*
X29323Y10423D01*
X29347Y10408D01*
Y9992D01*
X29323Y9977D01*
X29269Y9896D01*
X29250Y9800D01*
X29269Y9704D01*
X29323Y9623D01*
X29404Y9569D01*
X29500Y9550D01*
X29596Y9569D01*
X29677Y9623D01*
X29731Y9704D01*
X29750Y9800D01*
X29731Y9896D01*
X29677Y9977D01*
X29653Y9992D01*
Y10408D01*
X29677Y10423D01*
X29731Y10504D01*
X29750Y10600D01*
X29731Y10696D01*
X29677Y10777D01*
X29596Y10831D01*
X29500Y10850D01*
D02*
G37*
G36*
X31397Y8950D02*
X31050D01*
Y8603D01*
X31104Y8610D01*
X31202Y8651D01*
X31285Y8715D01*
X31349Y8798D01*
X31390Y8896D01*
X31397Y8950D01*
D02*
G37*
G36*
X30950Y9397D02*
X30896Y9390D01*
X30798Y9349D01*
X30715Y9285D01*
X30651Y9202D01*
X30610Y9104D01*
X30603Y9050D01*
X30950D01*
Y9397D01*
D02*
G37*
G36*
X6000Y7004D02*
X5870Y6987D01*
X5748Y6936D01*
X5644Y6856D01*
X5564Y6752D01*
X5513Y6630D01*
X5496Y6500D01*
X5513Y6370D01*
X5564Y6248D01*
X5644Y6144D01*
X5748Y6064D01*
X5870Y6013D01*
X6000Y5996D01*
X6130Y6013D01*
X6252Y6064D01*
X6356Y6144D01*
X6436Y6248D01*
X6487Y6370D01*
X6504Y6500D01*
X6487Y6630D01*
X6436Y6752D01*
X6356Y6856D01*
X6252Y6936D01*
X6130Y6987D01*
X6000Y7004D01*
D02*
G37*
G36*
X14000D02*
X13870Y6987D01*
X13748Y6936D01*
X13644Y6856D01*
X13564Y6752D01*
X13513Y6630D01*
X13496Y6500D01*
X13513Y6370D01*
X13564Y6248D01*
X13644Y6144D01*
X13748Y6064D01*
X13870Y6013D01*
X14000Y5996D01*
X14130Y6013D01*
X14252Y6064D01*
X14356Y6144D01*
X14436Y6248D01*
X14487Y6370D01*
X14504Y6500D01*
X14487Y6630D01*
X14436Y6752D01*
X14356Y6856D01*
X14252Y6936D01*
X14130Y6987D01*
X14000Y7004D01*
D02*
G37*
G36*
X2300Y3524D02*
X2077Y3507D01*
X1860Y3455D01*
X1653Y3369D01*
X1463Y3252D01*
X1293Y3107D01*
X1148Y2937D01*
X1031Y2747D01*
X945Y2540D01*
X893Y2323D01*
X876Y2100D01*
X893Y1877D01*
X945Y1660D01*
X1031Y1453D01*
X1148Y1263D01*
X1293Y1093D01*
X1463Y948D01*
X1653Y831D01*
X1860Y745D01*
X2077Y693D01*
X2300Y676D01*
X2523Y693D01*
X2740Y745D01*
X2947Y831D01*
X3137Y948D01*
X3307Y1093D01*
X3452Y1263D01*
X3569Y1453D01*
X3655Y1660D01*
X3707Y1877D01*
X3724Y2100D01*
X3707Y2323D01*
X3655Y2540D01*
X3569Y2747D01*
X3452Y2937D01*
X3307Y3107D01*
X3137Y3252D01*
X2947Y3369D01*
X2740Y3455D01*
X2523Y3507D01*
X2300Y3524D01*
D02*
G37*
G36*
X27300D02*
X27077Y3507D01*
X26860Y3455D01*
X26653Y3369D01*
X26463Y3252D01*
X26293Y3107D01*
X26148Y2937D01*
X26031Y2747D01*
X25945Y2540D01*
X25893Y2323D01*
X25876Y2100D01*
X25893Y1877D01*
X25945Y1660D01*
X26031Y1453D01*
X26148Y1263D01*
X26293Y1093D01*
X26463Y948D01*
X26653Y831D01*
X26860Y745D01*
X27077Y693D01*
X27300Y676D01*
X27523Y693D01*
X27740Y745D01*
X27947Y831D01*
X28137Y948D01*
X28307Y1093D01*
X28452Y1263D01*
X28569Y1453D01*
X28655Y1660D01*
X28707Y1877D01*
X28724Y2100D01*
X28707Y2323D01*
X28655Y2540D01*
X28569Y2747D01*
X28452Y2937D01*
X28307Y3107D01*
X28137Y3252D01*
X27947Y3369D01*
X27740Y3455D01*
X27523Y3507D01*
X27300Y3524D01*
D02*
G37*
G36*
X16000Y7004D02*
X15870Y6987D01*
X15748Y6936D01*
X15644Y6856D01*
X15564Y6752D01*
X15513Y6630D01*
X15496Y6500D01*
X15513Y6370D01*
X15564Y6248D01*
X15644Y6144D01*
X15748Y6064D01*
X15870Y6013D01*
X16000Y5996D01*
X16130Y6013D01*
X16252Y6064D01*
X16356Y6144D01*
X16436Y6248D01*
X16487Y6370D01*
X16504Y6500D01*
X16487Y6630D01*
X16436Y6752D01*
X16356Y6856D01*
X16252Y6936D01*
X16130Y6987D01*
X16000Y7004D01*
D02*
G37*
G36*
X22000D02*
X21870Y6987D01*
X21748Y6936D01*
X21644Y6856D01*
X21564Y6752D01*
X21513Y6630D01*
X21496Y6500D01*
X21513Y6370D01*
X21564Y6248D01*
X21644Y6144D01*
X21748Y6064D01*
X21870Y6013D01*
X22000Y5996D01*
X22130Y6013D01*
X22252Y6064D01*
X22356Y6144D01*
X22436Y6248D01*
X22487Y6370D01*
X22504Y6500D01*
X22487Y6630D01*
X22436Y6752D01*
X22356Y6856D01*
X22252Y6936D01*
X22130Y6987D01*
X22000Y7004D01*
D02*
G37*
G36*
X23950Y6450D02*
X23503D01*
X23513Y6370D01*
X23564Y6248D01*
X23644Y6144D01*
X23748Y6064D01*
X23870Y6013D01*
X23950Y6003D01*
Y6450D01*
D02*
G37*
G36*
X18000Y7004D02*
X17870Y6987D01*
X17748Y6936D01*
X17644Y6856D01*
X17564Y6752D01*
X17513Y6630D01*
X17496Y6500D01*
X17513Y6370D01*
X17564Y6248D01*
X17644Y6144D01*
X17748Y6064D01*
X17870Y6013D01*
X18000Y5996D01*
X18130Y6013D01*
X18252Y6064D01*
X18356Y6144D01*
X18436Y6248D01*
X18487Y6370D01*
X18504Y6500D01*
X18487Y6630D01*
X18436Y6752D01*
X18356Y6856D01*
X18252Y6936D01*
X18130Y6987D01*
X18000Y7004D01*
D02*
G37*
G36*
X20000D02*
X19870Y6987D01*
X19748Y6936D01*
X19644Y6856D01*
X19564Y6752D01*
X19513Y6630D01*
X19496Y6500D01*
X19513Y6370D01*
X19564Y6248D01*
X19644Y6144D01*
X19748Y6064D01*
X19870Y6013D01*
X20000Y5996D01*
X20130Y6013D01*
X20252Y6064D01*
X20356Y6144D01*
X20436Y6248D01*
X20487Y6370D01*
X20504Y6500D01*
X20487Y6630D01*
X20436Y6752D01*
X20356Y6856D01*
X20252Y6936D01*
X20130Y6987D01*
X20000Y7004D01*
D02*
G37*
G36*
X9434Y10412D02*
X9376Y10404D01*
X9275Y10362D01*
X9188Y10296D01*
X9122Y10209D01*
X9080Y10108D01*
X9072Y10050D01*
X9434D01*
Y10412D01*
D02*
G37*
G36*
X9534D02*
Y10050D01*
X9896D01*
X9889Y10108D01*
X9847Y10209D01*
X9780Y10296D01*
X9694Y10362D01*
X9593Y10404D01*
X9534Y10412D01*
D02*
G37*
G36*
X4934D02*
X4876Y10404D01*
X4775Y10362D01*
X4688Y10296D01*
X4622Y10209D01*
X4580Y10108D01*
X4572Y10050D01*
X4934D01*
Y10412D01*
D02*
G37*
G36*
X5034D02*
Y10050D01*
X5396D01*
X5389Y10108D01*
X5347Y10209D01*
X5280Y10296D01*
X5194Y10362D01*
X5093Y10404D01*
X5034Y10412D01*
D02*
G37*
G36*
X25143Y12229D02*
X25001Y12215D01*
X24865Y12173D01*
X24739Y12106D01*
X24628Y12015D01*
X24538Y11905D01*
X24470Y11779D01*
X24429Y11642D01*
X24415Y11500D01*
X24429Y11358D01*
X24470Y11221D01*
X24538Y11095D01*
X24628Y10985D01*
X24739Y10894D01*
X24865Y10827D01*
X25001Y10785D01*
X25143Y10771D01*
X25285Y10785D01*
X25422Y10827D01*
X25548Y10894D01*
X25658Y10985D01*
X25749Y11095D01*
X25816Y11221D01*
X25858Y11358D01*
X25872Y11500D01*
X25858Y11642D01*
X25816Y11779D01*
X25749Y11905D01*
X25658Y12015D01*
X25548Y12106D01*
X25422Y12173D01*
X25285Y12215D01*
X25143Y12229D01*
D02*
G37*
G36*
X28000Y12250D02*
X27904Y12231D01*
X27823Y12177D01*
X27769Y12096D01*
X27750Y12000D01*
X27756Y11972D01*
X27727Y11943D01*
X27693Y11893D01*
X27682Y11835D01*
Y11787D01*
X27577D01*
Y11213D01*
X28092D01*
Y11769D01*
X28096Y11769D01*
X28177Y11823D01*
X28231Y11904D01*
X28250Y12000D01*
X28231Y12096D01*
X28177Y12177D01*
X28096Y12231D01*
X28000Y12250D01*
D02*
G37*
G36*
X29500Y12550D02*
X29404Y12531D01*
X29323Y12477D01*
X29269Y12396D01*
X29250Y12300D01*
X29269Y12204D01*
X29323Y12123D01*
X29347Y12108D01*
Y11892D01*
X29323Y11877D01*
X29269Y11796D01*
X29250Y11700D01*
X29269Y11604D01*
X29323Y11523D01*
X29404Y11469D01*
X29500Y11450D01*
X29596Y11469D01*
X29677Y11523D01*
X29731Y11604D01*
X29750Y11700D01*
X29731Y11796D01*
X29677Y11877D01*
X29653Y11892D01*
Y12108D01*
X29677Y12123D01*
X29731Y12204D01*
X29750Y12300D01*
X29731Y12396D01*
X29677Y12477D01*
X29596Y12531D01*
X29500Y12550D01*
D02*
G37*
G36*
X27115Y11450D02*
X26908D01*
Y11213D01*
X27115D01*
Y11450D01*
D02*
G37*
G36*
X27423D02*
X27215D01*
Y11213D01*
X27423D01*
Y11450D01*
D02*
G37*
G36*
X5396Y9950D02*
X5034D01*
Y9588D01*
X5093Y9596D01*
X5194Y9638D01*
X5280Y9704D01*
X5347Y9791D01*
X5389Y9892D01*
X5396Y9950D01*
D02*
G37*
G36*
X9434D02*
X9072D01*
X9080Y9892D01*
X9122Y9791D01*
X9188Y9704D01*
X9275Y9638D01*
X9376Y9596D01*
X9434Y9588D01*
Y9950D01*
D02*
G37*
G36*
X3016Y10419D02*
X2907Y10404D01*
X2806Y10362D01*
X2720Y10296D01*
X2653Y10209D01*
X2611Y10108D01*
X2597Y10000D01*
X2611Y9892D01*
X2653Y9791D01*
X2720Y9704D01*
X2806Y9638D01*
X2907Y9596D01*
X3016Y9581D01*
X3124Y9596D01*
X3225Y9638D01*
X3312Y9704D01*
X3378Y9791D01*
X3420Y9892D01*
X3434Y10000D01*
X3420Y10108D01*
X3378Y10209D01*
X3312Y10296D01*
X3225Y10362D01*
X3124Y10404D01*
X3016Y10419D01*
D02*
G37*
G36*
X4934Y9950D02*
X4572D01*
X4580Y9892D01*
X4622Y9791D01*
X4688Y9704D01*
X4775Y9638D01*
X4876Y9596D01*
X4934Y9588D01*
Y9950D01*
D02*
G37*
G36*
X9896D02*
X9534D01*
Y9588D01*
X9593Y9596D01*
X9694Y9638D01*
X9780Y9704D01*
X9847Y9791D01*
X9889Y9892D01*
X9896Y9950D01*
D02*
G37*
G36*
X11900Y10838D02*
X11787Y10823D01*
X11681Y10780D01*
X11590Y10710D01*
X11520Y10619D01*
X11477Y10513D01*
X11462Y10400D01*
X11477Y10287D01*
X11520Y10181D01*
X11590Y10090D01*
X11681Y10020D01*
X11787Y9977D01*
X11900Y9962D01*
X12013Y9977D01*
X12119Y10020D01*
X12210Y10090D01*
X12280Y10181D01*
X12323Y10287D01*
X12338Y10400D01*
X12323Y10513D01*
X12280Y10619D01*
X12210Y10710D01*
X12119Y10780D01*
X12013Y10823D01*
X11900Y10838D01*
D02*
G37*
G36*
X13888D02*
X13775Y10823D01*
X13669Y10780D01*
X13578Y10710D01*
X13509Y10619D01*
X13465Y10513D01*
X13450Y10400D01*
X13465Y10287D01*
X13509Y10181D01*
X13578Y10090D01*
X13669Y10020D01*
X13775Y9977D01*
X13888Y9962D01*
X14002Y9977D01*
X14107Y10020D01*
X14198Y10090D01*
X14268Y10181D01*
X14312Y10287D01*
X14327Y10400D01*
X14312Y10513D01*
X14268Y10619D01*
X14198Y10710D01*
X14107Y10780D01*
X14002Y10823D01*
X13888Y10838D01*
D02*
G37*
G36*
X15900Y10738D02*
X15787Y10723D01*
X15681Y10680D01*
X15590Y10610D01*
X15520Y10519D01*
X15477Y10413D01*
X15462Y10300D01*
X15477Y10187D01*
X15520Y10081D01*
X15590Y9990D01*
X15681Y9920D01*
X15787Y9877D01*
X15900Y9862D01*
X16013Y9877D01*
X16119Y9920D01*
X16210Y9990D01*
X16280Y10081D01*
X16323Y10187D01*
X16338Y10300D01*
X16323Y10413D01*
X16280Y10519D01*
X16210Y10610D01*
X16119Y10680D01*
X16013Y10723D01*
X15900Y10738D01*
D02*
G37*
G36*
X17888D02*
X17775Y10723D01*
X17669Y10680D01*
X17578Y10610D01*
X17509Y10519D01*
X17465Y10413D01*
X17450Y10300D01*
X17465Y10187D01*
X17509Y10081D01*
X17578Y9990D01*
X17669Y9920D01*
X17775Y9877D01*
X17888Y9862D01*
X18002Y9877D01*
X18107Y9920D01*
X18198Y9990D01*
X18268Y10081D01*
X18312Y10187D01*
X18327Y10300D01*
X18312Y10413D01*
X18268Y10519D01*
X18198Y10610D01*
X18107Y10680D01*
X18002Y10723D01*
X17888Y10738D01*
D02*
G37*
G36*
X6227Y18415D02*
X5838D01*
Y18140D01*
X6227D01*
Y18415D01*
D02*
G37*
G36*
X26950Y22814D02*
X26624D01*
Y22538D01*
X26950D01*
Y22814D01*
D02*
G37*
G36*
X27376D02*
X27050D01*
Y22538D01*
X27376D01*
Y22814D01*
D02*
G37*
G36*
X1093Y22287D02*
X885D01*
Y22050D01*
X1093D01*
Y22287D01*
D02*
G37*
G36*
X1400D02*
X1193D01*
Y22050D01*
X1400D01*
Y22287D01*
D02*
G37*
G36*
X44500Y23403D02*
X44396Y23390D01*
X44298Y23349D01*
X44215Y23285D01*
X44151Y23202D01*
X44110Y23104D01*
X44097Y23000D01*
X44110Y22896D01*
X44151Y22798D01*
X44215Y22715D01*
X44298Y22651D01*
X44396Y22610D01*
X44500Y22597D01*
X44604Y22610D01*
X44702Y22651D01*
X44785Y22715D01*
X44849Y22798D01*
X44890Y22896D01*
X44903Y23000D01*
X44890Y23104D01*
X44849Y23202D01*
X44785Y23285D01*
X44702Y23349D01*
X44604Y23390D01*
X44500Y23403D01*
D02*
G37*
G36*
X45500D02*
X45396Y23390D01*
X45298Y23349D01*
X45215Y23285D01*
X45151Y23202D01*
X45110Y23104D01*
X45097Y23000D01*
X45110Y22896D01*
X45151Y22798D01*
X45215Y22715D01*
X45298Y22651D01*
X45396Y22610D01*
X45500Y22597D01*
X45604Y22610D01*
X45702Y22651D01*
X45785Y22715D01*
X45849Y22798D01*
X45890Y22896D01*
X45903Y23000D01*
X45890Y23104D01*
X45849Y23202D01*
X45785Y23285D01*
X45702Y23349D01*
X45604Y23390D01*
X45500Y23403D01*
D02*
G37*
G36*
X29450Y22814D02*
X29124D01*
Y22538D01*
X29450D01*
Y22814D01*
D02*
G37*
G36*
X29876D02*
X29550D01*
Y22538D01*
X29876D01*
Y22814D01*
D02*
G37*
G36*
X17000Y23122D02*
X16879Y23110D01*
X16762Y23074D01*
X16655Y23017D01*
X16560Y22940D01*
X16483Y22845D01*
X16426Y22738D01*
X16390Y22621D01*
X16378Y22500D01*
X16390Y22379D01*
X16426Y22262D01*
X16483Y22155D01*
X16560Y22060D01*
X16655Y21983D01*
X16762Y21926D01*
X16879Y21890D01*
X17000Y21878D01*
X17121Y21890D01*
X17238Y21926D01*
X17345Y21983D01*
X17440Y22060D01*
X17517Y22155D01*
X17574Y22262D01*
X17610Y22379D01*
X17622Y22500D01*
X17610Y22621D01*
X17574Y22738D01*
X17517Y22845D01*
X17440Y22940D01*
X17345Y23017D01*
X17238Y23074D01*
X17121Y23110D01*
X17000Y23122D01*
D02*
G37*
G36*
X39700Y22750D02*
X39604Y22731D01*
X39523Y22677D01*
X39469Y22596D01*
X39450Y22500D01*
X39469Y22404D01*
X39523Y22323D01*
X39547Y22308D01*
Y21892D01*
X39523Y21877D01*
X39469Y21796D01*
X39450Y21700D01*
X39469Y21604D01*
X39523Y21523D01*
X39604Y21469D01*
X39700Y21450D01*
X39796Y21469D01*
X39877Y21523D01*
X39931Y21604D01*
X39950Y21700D01*
X39931Y21796D01*
X39877Y21877D01*
X39853Y21892D01*
Y22308D01*
X39877Y22323D01*
X39931Y22404D01*
X39950Y22500D01*
X39931Y22596D01*
X39877Y22677D01*
X39796Y22731D01*
X39700Y22750D01*
D02*
G37*
G36*
X31043Y22403D02*
X30939Y22390D01*
X30842Y22349D01*
X30758Y22285D01*
X30694Y22202D01*
X30654Y22104D01*
X30640Y22000D01*
X30654Y21896D01*
X30694Y21798D01*
X30758Y21715D01*
X30842Y21651D01*
X30939Y21610D01*
X31043Y21597D01*
X31148Y21610D01*
X31245Y21651D01*
X31329Y21715D01*
X31393Y21798D01*
X31433Y21896D01*
X31447Y22000D01*
X31433Y22104D01*
X31393Y22202D01*
X31329Y22285D01*
X31245Y22349D01*
X31148Y22390D01*
X31043Y22403D01*
D02*
G37*
G36*
X1526Y21444D02*
X1348D01*
Y21050D01*
X1526D01*
Y21444D01*
D02*
G37*
G36*
X45500Y21903D02*
X45396Y21890D01*
X45298Y21849D01*
X45215Y21785D01*
X45151Y21702D01*
X45110Y21604D01*
X45097Y21500D01*
X45110Y21396D01*
X45151Y21298D01*
X45215Y21215D01*
X45298Y21151D01*
X45396Y21110D01*
X45500Y21097D01*
X45604Y21110D01*
X45702Y21151D01*
X45785Y21215D01*
X45849Y21298D01*
X45890Y21396D01*
X45903Y21500D01*
X45890Y21604D01*
X45849Y21702D01*
X45785Y21785D01*
X45702Y21849D01*
X45604Y21890D01*
X45500Y21903D01*
D02*
G37*
G36*
X1093Y21950D02*
X885D01*
Y21713D01*
X1093D01*
Y21950D01*
D02*
G37*
G36*
X1400D02*
X1193D01*
Y21713D01*
X1400D01*
Y21950D01*
D02*
G37*
G36*
X41600Y22050D02*
X41504Y22031D01*
X41423Y21977D01*
X41369Y21896D01*
X41350Y21800D01*
X41369Y21704D01*
X41383Y21684D01*
X41353Y21639D01*
X41300Y21650D01*
X41204Y21631D01*
X41123Y21577D01*
X41069Y21496D01*
X41050Y21400D01*
X41069Y21304D01*
X41123Y21223D01*
X41204Y21169D01*
X41300Y21150D01*
X41396Y21169D01*
X41477Y21223D01*
X41492Y21247D01*
X41861D01*
X41919Y21259D01*
X41969Y21292D01*
X42079Y21402D01*
X43382D01*
X43847Y20937D01*
Y20000D01*
X43859Y19941D01*
X43892Y19892D01*
X44131Y19653D01*
X44110Y19604D01*
X44097Y19500D01*
X44110Y19396D01*
X44151Y19298D01*
X44215Y19215D01*
X44298Y19151D01*
X44396Y19110D01*
X44500Y19097D01*
X44604Y19110D01*
X44702Y19151D01*
X44785Y19215D01*
X44849Y19298D01*
X44890Y19396D01*
X44903Y19500D01*
X44890Y19604D01*
X44849Y19702D01*
X44785Y19785D01*
X44702Y19849D01*
X44604Y19890D01*
X44500Y19903D01*
X44396Y19890D01*
X44347Y19870D01*
X44153Y20063D01*
Y20217D01*
X44200Y20234D01*
X44215Y20215D01*
X44298Y20151D01*
X44396Y20110D01*
X44500Y20097D01*
X44604Y20110D01*
X44702Y20151D01*
X44785Y20215D01*
X44849Y20298D01*
X44890Y20396D01*
X44903Y20500D01*
X44890Y20604D01*
X44849Y20702D01*
X44785Y20785D01*
X44702Y20849D01*
X44604Y20890D01*
X44500Y20903D01*
X44396Y20890D01*
X44298Y20849D01*
X44215Y20785D01*
X44200Y20766D01*
X44153Y20783D01*
Y21000D01*
X44141Y21059D01*
X44108Y21108D01*
X43615Y21601D01*
X43635Y21647D01*
X44083D01*
X44101Y21620D01*
X44109Y21597D01*
X44097Y21500D01*
X44110Y21396D01*
X44151Y21298D01*
X44215Y21215D01*
X44298Y21151D01*
X44396Y21110D01*
X44500Y21097D01*
X44604Y21110D01*
X44702Y21151D01*
X44785Y21215D01*
X44849Y21298D01*
X44890Y21396D01*
X44903Y21500D01*
X44890Y21604D01*
X44849Y21702D01*
X44785Y21785D01*
X44702Y21849D01*
X44604Y21890D01*
X44500Y21903D01*
X44423Y21893D01*
X44408Y21908D01*
X44359Y21941D01*
X44300Y21953D01*
X41792D01*
X41777Y21977D01*
X41696Y22031D01*
X41600Y22050D01*
D02*
G37*
G36*
X25143Y23729D02*
X25001Y23715D01*
X24865Y23673D01*
X24739Y23606D01*
X24628Y23515D01*
X24538Y23405D01*
X24470Y23279D01*
X24429Y23142D01*
X24415Y23000D01*
X24429Y22858D01*
X24470Y22721D01*
X24538Y22595D01*
X24628Y22485D01*
X24739Y22394D01*
X24865Y22327D01*
X25001Y22285D01*
X25143Y22271D01*
X25285Y22285D01*
X25422Y22327D01*
X25538Y22389D01*
X25838Y22089D01*
X25888Y22056D01*
X25946Y22044D01*
X26624D01*
Y21809D01*
X27376D01*
Y21907D01*
X27508D01*
Y21694D01*
X27944D01*
Y22411D01*
X27944Y22425D01*
X27977Y22461D01*
X28050D01*
Y22777D01*
X27882D01*
Y22475D01*
X27882Y22461D01*
X27849Y22425D01*
X27508D01*
Y22212D01*
X27376D01*
Y22462D01*
X26624D01*
Y22350D01*
X26009D01*
X25754Y22605D01*
X25816Y22721D01*
X25858Y22858D01*
X25872Y23000D01*
X25858Y23142D01*
X25816Y23279D01*
X25749Y23405D01*
X25658Y23515D01*
X25548Y23606D01*
X25422Y23673D01*
X25285Y23715D01*
X25143Y23729D01*
D02*
G37*
G36*
X23100Y22750D02*
X23004Y22731D01*
X22923Y22677D01*
X22908Y22653D01*
X20592D01*
X20577Y22677D01*
X20496Y22731D01*
X20400Y22750D01*
X20304Y22731D01*
X20223Y22677D01*
X20169Y22596D01*
X20150Y22500D01*
X20169Y22404D01*
X20223Y22323D01*
X20304Y22269D01*
X20400Y22250D01*
X20496Y22269D01*
X20577Y22323D01*
X20592Y22347D01*
X22908D01*
X22923Y22323D01*
X23004Y22269D01*
X23100Y22250D01*
X23196Y22269D01*
X23277Y22323D01*
X23331Y22404D01*
X23350Y22500D01*
X23331Y22596D01*
X23277Y22677D01*
X23196Y22731D01*
X23100Y22750D01*
D02*
G37*
G36*
X31476Y23362D02*
X31150D01*
Y23086D01*
X31476D01*
Y23362D01*
D02*
G37*
G36*
X34450Y23462D02*
X34124D01*
Y23186D01*
X34450D01*
Y23462D01*
D02*
G37*
G36*
X29876Y23191D02*
X29550D01*
Y22914D01*
X29876D01*
Y23191D01*
D02*
G37*
G36*
X31050Y23362D02*
X30724D01*
Y23086D01*
X31050D01*
Y23362D01*
D02*
G37*
G36*
X30300Y24150D02*
X30204Y24131D01*
X30123Y24077D01*
X30069Y23996D01*
X30050Y23900D01*
X30069Y23804D01*
X30123Y23723D01*
X30204Y23669D01*
X30300Y23650D01*
X30328Y23656D01*
X30377Y23623D01*
X30436Y23611D01*
X30724D01*
Y23438D01*
X31476D01*
Y24091D01*
X30724D01*
Y23917D01*
X30546D01*
X30531Y23996D01*
X30477Y24077D01*
X30396Y24131D01*
X30300Y24150D01*
D02*
G37*
G36*
X33900Y24450D02*
X33804Y24431D01*
X33723Y24377D01*
X33669Y24296D01*
X33650Y24200D01*
X33669Y24104D01*
X33723Y24023D01*
X33804Y23969D01*
X33900Y23950D01*
X33928Y23956D01*
X34124Y23759D01*
Y23538D01*
X34876D01*
Y24191D01*
X34158D01*
X34150Y24200D01*
X34131Y24296D01*
X34077Y24377D01*
X33996Y24431D01*
X33900Y24450D01*
D02*
G37*
G36*
X34876Y23462D02*
X34550D01*
Y23186D01*
X34876D01*
Y23462D01*
D02*
G37*
G36*
X21724Y24618D02*
X21603Y24606D01*
X21486Y24570D01*
X21379Y24513D01*
X21285Y24436D01*
X21207Y24341D01*
X21150Y24234D01*
X21115Y24117D01*
X21103Y23996D01*
X21115Y23875D01*
X21150Y23758D01*
X21207Y23651D01*
X21285Y23556D01*
X21379Y23479D01*
X21486Y23422D01*
X21603Y23386D01*
X21724Y23374D01*
X21846Y23386D01*
X21962Y23422D01*
X22070Y23479D01*
X22164Y23556D01*
X22241Y23651D01*
X22299Y23758D01*
X22334Y23875D01*
X22346Y23996D01*
X22334Y24117D01*
X22299Y24234D01*
X22241Y24341D01*
X22164Y24436D01*
X22070Y24513D01*
X21962Y24570D01*
X21846Y24606D01*
X21724Y24618D01*
D02*
G37*
G36*
X29450Y23191D02*
X29124D01*
Y22914D01*
X29450D01*
Y23191D01*
D02*
G37*
G36*
X34450Y23086D02*
X34124D01*
Y22809D01*
X34450D01*
Y23086D01*
D02*
G37*
G36*
X34876D02*
X34550D01*
Y22809D01*
X34876D01*
Y23086D01*
D02*
G37*
G36*
X31050Y22986D02*
X30724D01*
Y22709D01*
X31050D01*
Y22986D01*
D02*
G37*
G36*
X31476D02*
X31150D01*
Y22709D01*
X31476D01*
Y22986D01*
D02*
G37*
G36*
X26950Y23191D02*
X26624D01*
Y22914D01*
X26950D01*
Y23191D01*
D02*
G37*
G36*
X27376D02*
X27050D01*
Y22914D01*
X27376D01*
Y23191D01*
D02*
G37*
G36*
X28050Y23193D02*
X27882D01*
Y22877D01*
X28050D01*
Y23193D01*
D02*
G37*
G36*
X28318D02*
X28150D01*
Y22877D01*
X28318D01*
Y23193D01*
D02*
G37*
G36*
X36340Y19135D02*
X36050D01*
Y18906D01*
X36340D01*
Y19135D01*
D02*
G37*
G36*
X6227Y19190D02*
X5838D01*
Y18915D01*
X6227D01*
Y19190D01*
D02*
G37*
G36*
X42100Y20050D02*
X42004Y20031D01*
X41923Y19977D01*
X41869Y19896D01*
X41850Y19800D01*
X41856Y19772D01*
X41659Y19576D01*
X41538D01*
Y18824D01*
X42191D01*
Y19568D01*
X42196Y19569D01*
X42277Y19623D01*
X42331Y19704D01*
X42350Y19800D01*
X42331Y19896D01*
X42277Y19977D01*
X42196Y20031D01*
X42100Y20050D01*
D02*
G37*
G36*
X35950Y19135D02*
X35660D01*
Y18906D01*
X35950D01*
Y19135D01*
D02*
G37*
G36*
X27423Y19287D02*
X27215D01*
Y19050D01*
X27423D01*
Y19287D01*
D02*
G37*
G36*
X37450Y19306D02*
X37160D01*
Y19077D01*
X37450D01*
Y19306D01*
D02*
G37*
G36*
X7117Y19190D02*
X6727D01*
Y18915D01*
X7117D01*
Y19190D01*
D02*
G37*
G36*
X27115Y19287D02*
X26908D01*
Y19050D01*
X27115D01*
Y19287D01*
D02*
G37*
G36*
X41462Y19150D02*
X41186D01*
Y18824D01*
X41462D01*
Y19150D01*
D02*
G37*
G36*
X35950Y18806D02*
X35660D01*
Y18577D01*
X35950D01*
Y18806D01*
D02*
G37*
G36*
X36340D02*
X36050D01*
Y18577D01*
X36340D01*
Y18806D01*
D02*
G37*
G36*
X7117Y18415D02*
X6727D01*
Y18140D01*
X7117D01*
Y18415D01*
D02*
G37*
G36*
X25143Y19729D02*
X25001Y19715D01*
X24865Y19673D01*
X24739Y19606D01*
X24628Y19515D01*
X24538Y19405D01*
X24470Y19279D01*
X24429Y19142D01*
X24415Y19000D01*
X24429Y18858D01*
X24470Y18721D01*
X24538Y18595D01*
X24628Y18485D01*
X24739Y18394D01*
X24865Y18327D01*
X25001Y18285D01*
X25143Y18271D01*
X25285Y18285D01*
X25422Y18327D01*
X25548Y18394D01*
X25658Y18485D01*
X25749Y18595D01*
X25816Y18721D01*
X25858Y18858D01*
X25872Y19000D01*
X25858Y19142D01*
X25816Y19279D01*
X25749Y19405D01*
X25658Y19515D01*
X25548Y19606D01*
X25422Y19673D01*
X25285Y19715D01*
X25143Y19729D01*
D02*
G37*
G36*
X28000Y19750D02*
X27904Y19731D01*
X27823Y19677D01*
X27769Y19596D01*
X27750Y19500D01*
X27756Y19472D01*
X27727Y19443D01*
X27693Y19393D01*
X27682Y19335D01*
Y19287D01*
X27577D01*
Y18713D01*
X28092D01*
Y19269D01*
X28096Y19269D01*
X28177Y19323D01*
X28231Y19404D01*
X28250Y19500D01*
X28231Y19596D01*
X28177Y19677D01*
X28096Y19731D01*
X28000Y19750D01*
D02*
G37*
G36*
X41086Y19150D02*
X40809D01*
Y18824D01*
X41086D01*
Y19150D01*
D02*
G37*
G36*
X27115Y18950D02*
X26908D01*
Y18713D01*
X27115D01*
Y18950D01*
D02*
G37*
G36*
X27423D02*
X27215D01*
Y18713D01*
X27423D01*
Y18950D01*
D02*
G37*
G36*
X37840Y19306D02*
X37550D01*
Y19077D01*
X37840D01*
Y19306D01*
D02*
G37*
G36*
X45500Y20903D02*
X45396Y20890D01*
X45298Y20849D01*
X45215Y20785D01*
X45151Y20702D01*
X45110Y20604D01*
X45097Y20500D01*
X45110Y20396D01*
X45151Y20298D01*
X45215Y20215D01*
X45298Y20151D01*
X45396Y20110D01*
X45500Y20097D01*
X45604Y20110D01*
X45702Y20151D01*
X45785Y20215D01*
X45849Y20298D01*
X45890Y20396D01*
X45903Y20500D01*
X45890Y20604D01*
X45849Y20702D01*
X45785Y20785D01*
X45702Y20849D01*
X45604Y20890D01*
X45500Y20903D01*
D02*
G37*
G36*
X35700Y20935D02*
X35604Y20916D01*
X35523Y20862D01*
X35469Y20781D01*
X35450Y20685D01*
X35469Y20589D01*
X35484Y20567D01*
X35461Y20523D01*
X35192D01*
X35177Y20547D01*
X35096Y20601D01*
X35000Y20620D01*
X34904Y20601D01*
X34823Y20547D01*
X34769Y20466D01*
X34750Y20370D01*
X34769Y20274D01*
X34823Y20193D01*
X34904Y20139D01*
X35000Y20120D01*
X35096Y20139D01*
X35177Y20193D01*
X35192Y20217D01*
X35660D01*
Y19865D01*
X36340D01*
Y20423D01*
X35937D01*
X35898Y20462D01*
X35888Y20484D01*
X35909Y20532D01*
X37160D01*
Y20365D01*
X37840D01*
Y20923D01*
X37160D01*
Y20838D01*
X35892D01*
X35877Y20862D01*
X35796Y20916D01*
X35700Y20935D01*
D02*
G37*
G36*
X30993Y20397D02*
X30939Y20390D01*
X30842Y20349D01*
X30758Y20285D01*
X30694Y20202D01*
X30654Y20104D01*
X30646Y20050D01*
X30993D01*
Y20397D01*
D02*
G37*
G36*
X31093D02*
Y20050D01*
X31440D01*
X31433Y20104D01*
X31393Y20202D01*
X31329Y20285D01*
X31245Y20349D01*
X31148Y20390D01*
X31093Y20397D01*
D02*
G37*
G36*
X28318Y22777D02*
X28150D01*
Y22461D01*
X28223D01*
X28256Y22425D01*
X28256Y22411D01*
Y21694D01*
X28692D01*
Y21907D01*
X28962D01*
X29021Y21918D01*
X29070Y21951D01*
X29078Y21959D01*
X29124Y21940D01*
Y21809D01*
X29876D01*
Y21886D01*
X29922Y21905D01*
X30674Y21153D01*
X30654Y21104D01*
X30640Y21000D01*
X30654Y20896D01*
X30694Y20798D01*
X30758Y20715D01*
X30842Y20651D01*
X30939Y20610D01*
X31043Y20597D01*
X31148Y20610D01*
X31245Y20651D01*
X31329Y20715D01*
X31393Y20798D01*
X31433Y20896D01*
X31447Y21000D01*
X31433Y21104D01*
X31393Y21202D01*
X31329Y21285D01*
X31245Y21349D01*
X31148Y21390D01*
X31043Y21403D01*
X30939Y21390D01*
X30890Y21370D01*
X29954Y22305D01*
X29905Y22339D01*
X29876Y22344D01*
Y22462D01*
X29124D01*
Y22350D01*
X29100D01*
X29041Y22339D01*
X28992Y22305D01*
X28899Y22212D01*
X28692D01*
Y22425D01*
X28351D01*
X28318Y22461D01*
X28318Y22475D01*
Y22777D01*
D02*
G37*
G36*
X1248Y21444D02*
X1070D01*
Y21050D01*
X1248D01*
Y21444D01*
D02*
G37*
G36*
Y20950D02*
X1070D01*
Y20556D01*
X1248D01*
Y20950D01*
D02*
G37*
G36*
X1526D02*
X1348D01*
Y20556D01*
X1526D01*
Y20950D01*
D02*
G37*
G36*
X31440Y19950D02*
X30646D01*
X30654Y19896D01*
X30694Y19798D01*
X30758Y19715D01*
X30777Y19700D01*
X30761Y19653D01*
X30392D01*
X30377Y19677D01*
X30296Y19731D01*
X30200Y19750D01*
X30104Y19731D01*
X30023Y19677D01*
X29969Y19596D01*
X29950Y19500D01*
X29969Y19404D01*
X30023Y19323D01*
X30104Y19269D01*
X30200Y19250D01*
X30296Y19269D01*
X30377Y19323D01*
X30392Y19347D01*
X32008D01*
X32023Y19323D01*
X32104Y19269D01*
X32200Y19250D01*
X32296Y19269D01*
X32377Y19323D01*
X32431Y19404D01*
X32450Y19500D01*
X32431Y19596D01*
X32377Y19677D01*
X32296Y19731D01*
X32200Y19750D01*
X32104Y19731D01*
X32023Y19677D01*
X32008Y19653D01*
X31326D01*
X31310Y19700D01*
X31329Y19715D01*
X31393Y19798D01*
X31433Y19896D01*
X31440Y19950D01*
D02*
G37*
G36*
X41086Y19576D02*
X40809D01*
Y19250D01*
X41086D01*
Y19576D01*
D02*
G37*
G36*
X41462D02*
X41186D01*
Y19250D01*
X41462D01*
Y19576D01*
D02*
G37*
G36*
X45450Y19450D02*
X45103D01*
X45110Y19396D01*
X45151Y19298D01*
X45215Y19215D01*
X45298Y19151D01*
X45396Y19110D01*
X45450Y19103D01*
Y19450D01*
D02*
G37*
G36*
X45897D02*
X45550D01*
Y19103D01*
X45604Y19110D01*
X45702Y19151D01*
X45785Y19215D01*
X45849Y19298D01*
X45890Y19396D01*
X45897Y19450D01*
D02*
G37*
G36*
X45450Y19897D02*
X45396Y19890D01*
X45298Y19849D01*
X45215Y19785D01*
X45151Y19702D01*
X45110Y19604D01*
X45103Y19550D01*
X45450D01*
Y19897D01*
D02*
G37*
G36*
X45550D02*
Y19550D01*
X45897D01*
X45890Y19604D01*
X45849Y19702D01*
X45785Y19785D01*
X45702Y19849D01*
X45604Y19890D01*
X45550Y19897D01*
D02*
G37*
G36*
X37450Y19635D02*
X37160D01*
Y19406D01*
X37450D01*
Y19635D01*
D02*
G37*
G36*
X37840D02*
X37550D01*
Y19406D01*
X37840D01*
Y19635D01*
D02*
G37*
%LPD*%
D10*
X3402Y18048D02*
D03*
X3953D02*
D03*
D12*
X4977Y18988D02*
D03*
X4477D02*
D03*
X3977D02*
D03*
X3477D02*
D03*
X4977Y21035D02*
D03*
X4477D02*
D03*
X3977D02*
D03*
X3477D02*
D03*
D14*
X27165Y19000D02*
D03*
X27835D02*
D03*
X27165Y11500D02*
D03*
X27835D02*
D03*
X1143Y22000D02*
D03*
X1812D02*
D03*
D19*
X2461Y18202D02*
D03*
X2205D02*
D03*
X1950D02*
D03*
X1694D02*
D03*
X2461Y19894D02*
D03*
X2205D02*
D03*
X1950D02*
D03*
X1694D02*
D03*
D20*
X6477Y18665D02*
D03*
Y20406D02*
D03*
D21*
X1298Y21000D02*
D03*
X2657D02*
D03*
D22*
X39700Y21700D02*
Y22500D01*
X43600Y16200D02*
Y17400D01*
X29500Y9800D02*
Y10600D01*
X43445Y21555D02*
X44000Y21000D01*
X42016Y21555D02*
X43445D01*
X41960Y17100D02*
X42600D01*
X29846Y22197D02*
X31043Y21000D01*
X29100Y22197D02*
X29846D01*
X28962Y22059D02*
X29100Y22197D01*
X28474Y22059D02*
X28962D01*
X27238D02*
X27726D01*
X27100Y22197D02*
X27238Y22059D01*
X25946Y22197D02*
X27100D01*
X25143Y23000D02*
X25946Y22197D01*
X10333Y21333D02*
Y22638D01*
X27835Y11835D02*
X28000Y12000D01*
X27835Y11500D02*
Y11835D01*
Y19000D02*
Y19335D01*
X28000Y19500D01*
X30300Y23900D02*
X30436Y23764D01*
X31100D01*
X33900Y24200D02*
X34236Y23864D01*
X34500D01*
X44400Y19400D02*
X44500Y19500D01*
X41746Y19446D02*
X42100Y19800D01*
X41746Y19200D02*
Y19446D01*
X29500Y11700D02*
Y12300D01*
X44000Y20000D02*
X44500Y19500D01*
X44000Y20000D02*
Y21000D01*
X44500Y21500D02*
Y21600D01*
X35700Y20685D02*
X37459D01*
X35000Y20370D02*
X35774D01*
X36000Y20144D01*
X6200Y19823D02*
X7123D01*
X1143Y21156D02*
X1298Y21000D01*
X1143Y21156D02*
Y22000D01*
X1967Y19912D02*
Y20511D01*
X1950Y19894D02*
X1967Y19912D01*
X1812Y20665D02*
X1967Y20511D01*
X1812Y20665D02*
Y22000D01*
X3202Y18248D02*
X3402Y18048D01*
X3202Y18713D02*
X3477Y18988D01*
X2461Y18202D02*
X3155D01*
X3202Y18248D02*
Y18713D01*
X3155Y18202D02*
X3202Y18248D01*
X2337Y17648D02*
X3777D01*
X2205Y17779D02*
X2337Y17648D01*
X2205Y18202D02*
Y18624D01*
X2163Y18667D02*
X2205Y18624D01*
Y17779D02*
Y18202D01*
X1694D02*
Y18564D01*
X1796Y18667D02*
X2163D01*
X1694Y18564D02*
X1796Y18667D01*
X1694Y18564D02*
Y19894D01*
X3477Y20548D02*
Y21035D01*
X2824Y19894D02*
X3477Y20548D01*
X2461Y19894D02*
X2824D01*
X2657Y21000D02*
X3442D01*
X6237Y18988D02*
X6477Y18748D01*
Y20406D02*
X6775Y20703D01*
X6577Y20506D02*
X6775Y20703D01*
X3777Y17648D02*
X3953Y17824D01*
Y18048D01*
Y18964D01*
X3977Y18988D01*
X40100Y14800D02*
Y15600D01*
X43200Y16200D02*
Y17400D01*
X30200Y19500D02*
X32200D01*
X41861Y21400D02*
X42016Y21555D01*
X41300Y21400D02*
X41861D01*
X41600Y21800D02*
X44300D01*
X44500Y21600D01*
X20400Y22500D02*
X23100D01*
D24*
X15000Y23500D02*
Y23800D01*
X12000Y20500D02*
X15000Y23500D01*
X7500Y9050D02*
X10000Y6550D01*
Y6500D02*
Y6550D01*
Y6500D02*
X12000D01*
X9500Y20500D02*
X12000D01*
X8000Y10484D02*
Y17500D01*
X7516Y10000D02*
X8000Y10484D01*
X7500Y9050D02*
Y10000D01*
X8500Y21500D02*
X9500Y20500D01*
D25*
X17000Y13839D02*
D03*
Y22500D02*
D03*
X21724Y13130D02*
D03*
Y23996D02*
D03*
X15000Y24000D02*
D03*
Y13134D02*
D03*
X10276Y22504D02*
D03*
Y13843D02*
D03*
D26*
X13996Y12000D02*
D03*
X11004D02*
D03*
X15504D02*
D03*
X18496D02*
D03*
D27*
X31000Y9000D02*
D03*
X30000D02*
D03*
X45500Y21500D02*
D03*
Y20500D02*
D03*
Y19500D02*
D03*
X44500Y21500D02*
D03*
Y20500D02*
D03*
Y19500D02*
D03*
X45500Y17000D02*
D03*
X44500D02*
D03*
X45500Y23000D02*
D03*
X44500D02*
D03*
X31043Y22000D02*
D03*
Y20000D02*
D03*
Y21000D02*
D03*
Y14500D02*
D03*
Y12500D02*
D03*
Y13500D02*
D03*
X43500Y12500D02*
D03*
Y13500D02*
D03*
X41500Y12500D02*
D03*
Y13500D02*
D03*
X39500Y12500D02*
D03*
Y13500D02*
D03*
D28*
X11900Y10400D02*
D03*
X13888D02*
D03*
X15900Y10300D02*
D03*
X17888D02*
D03*
D29*
X6000Y6500D02*
D03*
X8000D02*
D03*
X10000D02*
D03*
X12000D02*
D03*
X14000D02*
D03*
X16000D02*
D03*
X18000D02*
D03*
X20000D02*
D03*
X22000D02*
D03*
X24000D02*
D03*
D30*
X25143Y23000D02*
D03*
Y19000D02*
D03*
Y15500D02*
D03*
Y11500D02*
D03*
D31*
X7516Y10000D02*
D03*
X9484D02*
D03*
X3016D02*
D03*
X4984D02*
D03*
D32*
X40100Y22500D02*
D03*
X39700D02*
D03*
X43600Y17400D02*
D03*
Y16200D02*
D03*
X6679Y16500D02*
D03*
X29500Y9800D02*
D03*
X39700Y21700D02*
D03*
X39185Y21315D02*
D03*
X31800Y23800D02*
D03*
X34291Y21791D02*
D03*
Y13209D02*
D03*
Y16791D02*
D03*
Y18209D02*
D03*
X37626Y18974D02*
D03*
X41330Y19900D02*
D03*
X42600Y17100D02*
D03*
X41960D02*
D03*
X30200Y19500D02*
D03*
X28000D02*
D03*
Y12000D02*
D03*
X23100Y22500D02*
D03*
X30300Y23900D02*
D03*
X33900Y24200D02*
D03*
X42100Y19800D02*
D03*
X29500Y12300D02*
D03*
Y11700D02*
D03*
Y10600D02*
D03*
X35700Y20685D02*
D03*
X35000Y20370D02*
D03*
X1400Y16165D02*
D03*
X1143Y21578D02*
D03*
X40100Y14800D02*
D03*
Y15600D02*
D03*
X43200Y16200D02*
D03*
Y17400D02*
D03*
X32200Y19500D02*
D03*
X41300Y21400D02*
D03*
X41600Y21800D02*
D03*
X42100Y21200D02*
D03*
X20400Y22500D02*
D03*
D33*
X2300Y2100D02*
D03*
X27300D02*
D03*
D34*
X34500Y23136D02*
D03*
Y23864D02*
D03*
X31100Y23036D02*
D03*
Y23764D02*
D03*
X29500Y22864D02*
D03*
Y22136D02*
D03*
X27000Y22864D02*
D03*
Y22136D02*
D03*
D35*
X28474Y22059D02*
D03*
X27726D02*
D03*
X28100Y22827D02*
D03*
D36*
X37500Y20644D02*
D03*
Y19356D02*
D03*
X36000Y20144D02*
D03*
Y18856D02*
D03*
D37*
X41136Y19200D02*
D03*
X41864D02*
D03*
M02*
