G04 Layer_Color=8421504*
%FSLAX24Y24*%
%MOIN*%
G70*
G01*
G75*
%ADD10R,0.0157X0.0157*%
%ADD11R,0.0236X0.0551*%
%ADD12O,0.0236X0.0709*%
%ADD13R,0.0374X0.0315*%
%ADD14R,0.0315X0.0374*%
%ADD15R,0.0551X0.0827*%
%ADD16R,0.0433X0.0236*%
%ADD17O,0.0217X0.0689*%
%ADD18O,0.0689X0.0217*%
%ADD19O,0.0177X0.0630*%
%ADD20R,0.1080X0.0850*%
%ADD21R,0.0256X0.0689*%
%ADD22R,0.0492X0.0472*%
D10*
X4576Y13013D02*
D03*
X4024D02*
D03*
D11*
X38000Y17626D02*
D03*
X37626Y18374D02*
D03*
X38374D02*
D03*
D12*
X3000Y13953D02*
D03*
X3500D02*
D03*
X4000D02*
D03*
X4500D02*
D03*
X3000Y16000D02*
D03*
X3500D02*
D03*
X4000D02*
D03*
X4500D02*
D03*
D13*
X31500Y15665D02*
D03*
Y16335D02*
D03*
X32000Y21165D02*
D03*
Y21835D02*
D03*
D14*
X45335Y18500D02*
D03*
X44665D02*
D03*
X6835Y16965D02*
D03*
X6165D02*
D03*
X26665Y12000D02*
D03*
X27335D02*
D03*
X26665Y19500D02*
D03*
X27335D02*
D03*
X39831Y8100D02*
D03*
X40500D02*
D03*
X39865Y7200D02*
D03*
X40535D02*
D03*
D15*
X35382Y16791D02*
D03*
X33618D02*
D03*
Y13209D02*
D03*
X35382D02*
D03*
X33618Y18209D02*
D03*
X35382D02*
D03*
Y21791D02*
D03*
X33618D02*
D03*
D16*
X33351Y23426D02*
D03*
Y24174D02*
D03*
X32249D02*
D03*
Y23800D02*
D03*
Y23426D02*
D03*
D17*
X39125Y18776D02*
D03*
X39440D02*
D03*
X39755D02*
D03*
X40070D02*
D03*
X40385D02*
D03*
X40700D02*
D03*
X41015D02*
D03*
X41330D02*
D03*
X41645D02*
D03*
X41960D02*
D03*
X42275D02*
D03*
Y23224D02*
D03*
X41960D02*
D03*
X41645D02*
D03*
X41330D02*
D03*
X41015D02*
D03*
X40700D02*
D03*
X40385D02*
D03*
X40070D02*
D03*
X39755D02*
D03*
X39440D02*
D03*
X39125D02*
D03*
D18*
X42924Y19425D02*
D03*
Y19740D02*
D03*
Y20055D02*
D03*
Y20370D02*
D03*
Y20685D02*
D03*
Y21000D02*
D03*
Y21315D02*
D03*
Y21630D02*
D03*
Y21945D02*
D03*
Y22260D02*
D03*
Y22575D02*
D03*
X38476D02*
D03*
Y22260D02*
D03*
Y21945D02*
D03*
Y21630D02*
D03*
Y21315D02*
D03*
Y21000D02*
D03*
Y20685D02*
D03*
Y20370D02*
D03*
Y20055D02*
D03*
Y19740D02*
D03*
Y19425D02*
D03*
D19*
X5516Y13166D02*
D03*
X5772D02*
D03*
X6028D02*
D03*
X6284D02*
D03*
X5516Y14859D02*
D03*
X5772D02*
D03*
X6028D02*
D03*
X6284D02*
D03*
D20*
X1500Y13630D02*
D03*
Y15370D02*
D03*
D21*
X6679Y15965D02*
D03*
X5321D02*
D03*
D22*
X43456Y7000D02*
D03*
X44144D02*
D03*
X43456Y8300D02*
D03*
X44144D02*
D03*
M02*
