G04 Layer_Color=65535*
%FSLAX24Y24*%
%MOIN*%
G70*
G01*
G75*
%ADD21C,0.0100*%
%ADD33C,0.0236*%
%ADD34C,0.0098*%
%ADD35C,0.0039*%
%ADD36C,0.0079*%
%ADD37C,0.0070*%
%ADD38C,0.0200*%
%ADD39C,0.0300*%
D21*
X1898Y9222D02*
X2843D01*
X87D02*
X756D01*
X87D02*
Y10600D01*
Y11978D01*
X756D01*
X1898D02*
X2843D01*
X21500Y11500D02*
X23500D01*
X21500Y8500D02*
Y11500D01*
Y8500D02*
X23500D01*
Y11500D01*
D33*
X6819Y11899D02*
G03*
X6819Y11899I-118J0D01*
G01*
X2732Y3106D02*
G03*
X2732Y3106I-118J0D01*
G01*
X18437Y11819D02*
G03*
X18437Y11819I-118J0D01*
G01*
D34*
X5854Y12352D02*
G03*
X5854Y12352I-49J0D01*
G01*
X2348Y2142D02*
G03*
X2348Y2142I-49J0D01*
G01*
X18949Y12715D02*
G03*
X18949Y12715I-49J0D01*
G01*
D35*
X5762Y15887D02*
G03*
X5565Y16084I-197J0D01*
G01*
X1235D02*
G03*
X1038Y15887I0J-197D01*
G01*
Y14313D02*
G03*
X1235Y14116I197J0D01*
G01*
X5565D02*
G03*
X5762Y14313I0J197D01*
G01*
Y15691D02*
Y15887D01*
X3400Y16084D02*
X5565D01*
X1235D02*
X3400D01*
X1038Y15691D02*
Y15887D01*
Y14313D02*
Y14509D01*
X1235Y14116D02*
X3400D01*
X5565D01*
X5762Y14313D02*
Y14509D01*
D36*
X4461Y862D02*
X4539D01*
X4461Y1138D02*
X4539D01*
X4648Y7480D02*
Y7520D01*
X4352Y7480D02*
Y7520D01*
X4648Y8980D02*
Y9020D01*
X4352Y8980D02*
Y9020D01*
X3648Y7480D02*
Y7520D01*
X3352Y7480D02*
Y7520D01*
X15852Y6480D02*
Y6520D01*
X16148Y6480D02*
Y6520D01*
X16852Y6480D02*
Y6520D01*
X17148Y6480D02*
Y6520D01*
X20852Y8980D02*
Y9020D01*
X21148Y8980D02*
Y9020D01*
Y10980D02*
Y11020D01*
X20852Y10980D02*
Y11020D01*
X18852Y6480D02*
Y6520D01*
X19148Y6480D02*
Y6520D01*
X5162Y2261D02*
Y2339D01*
X5438Y2261D02*
Y2339D01*
X1462Y3661D02*
Y3739D01*
X1738Y3661D02*
Y3739D01*
X1462Y2161D02*
Y2239D01*
X1738Y2161D02*
Y2239D01*
X2961Y862D02*
X3039D01*
X2961Y1138D02*
X3039D01*
X18138Y6461D02*
Y6539D01*
X17862Y6461D02*
Y6539D01*
X6307Y8907D02*
X9693D01*
X6307Y12293D02*
X9693D01*
Y8907D02*
Y12293D01*
X6307Y8907D02*
Y12293D01*
X4780Y2713D02*
Y4287D01*
X2220Y2713D02*
Y4287D01*
X4780D01*
X2220Y2713D02*
X4780D01*
X15287Y12213D02*
X18713D01*
X15287Y8787D02*
X18713D01*
Y12213D01*
X15287Y8787D02*
Y12213D01*
D37*
X5410Y13830D02*
Y13580D01*
X5460Y13530D01*
X5560D01*
X5610Y13580D01*
Y13830D01*
X5860Y13530D02*
Y13830D01*
X5710Y13680D01*
X5910D01*
X6010Y13830D02*
Y13530D01*
X6160D01*
X6210Y13580D01*
Y13780D01*
X6160Y13830D01*
X6010D01*
X2000Y12500D02*
X2200Y12200D01*
Y12500D02*
X2000Y12200D01*
X2500D02*
X2300D01*
X2500Y12400D01*
Y12450D01*
X2450Y12500D01*
X2350D01*
X2300Y12450D01*
X2600Y12500D02*
Y12200D01*
X2750D01*
X2800Y12250D01*
Y12450D01*
X2750Y12500D01*
X2600D01*
X9890Y3510D02*
X10090Y3210D01*
Y3510D02*
X9890Y3210D01*
X10190Y3460D02*
X10240Y3510D01*
X10340D01*
X10390Y3460D01*
Y3410D01*
X10340Y3360D01*
X10290D01*
X10340D01*
X10390Y3310D01*
Y3260D01*
X10340Y3210D01*
X10240D01*
X10190Y3260D01*
X10490Y3510D02*
Y3210D01*
X10640D01*
X10690Y3260D01*
Y3460D01*
X10640Y3510D01*
X10490D01*
X2600Y550D02*
X2550Y600D01*
X2450D01*
X2400Y550D01*
Y350D01*
X2450Y300D01*
X2550D01*
X2600Y350D01*
X2700Y550D02*
X2750Y600D01*
X2850D01*
X2900Y550D01*
Y500D01*
X2850Y450D01*
X2900Y400D01*
Y350D01*
X2850Y300D01*
X2750D01*
X2700Y350D01*
Y400D01*
X2750Y450D01*
X2700Y500D01*
Y550D01*
X2750Y450D02*
X2850D01*
X3000Y600D02*
Y300D01*
X3150D01*
X3200Y350D01*
Y550D01*
X3150Y600D01*
X3000D01*
X850Y1900D02*
X800Y1850D01*
Y1750D01*
X850Y1700D01*
X1050D01*
X1100Y1750D01*
Y1850D01*
X1050Y1900D01*
Y2000D02*
X1100Y2050D01*
Y2150D01*
X1050Y2200D01*
X850D01*
X800Y2150D01*
Y2050D01*
X850Y2000D01*
X900D01*
X950Y2050D01*
Y2200D01*
X800Y2300D02*
X1100D01*
Y2450D01*
X1050Y2500D01*
X850D01*
X800Y2450D01*
Y2300D01*
X850Y3400D02*
X800Y3350D01*
Y3250D01*
X850Y3200D01*
X1050D01*
X1100Y3250D01*
Y3350D01*
X1050Y3400D01*
X1100Y3500D02*
Y3600D01*
Y3550D01*
X800D01*
X850Y3500D01*
Y3750D02*
X800Y3800D01*
Y3900D01*
X850Y3950D01*
X1050D01*
X1100Y3900D01*
Y3800D01*
X1050Y3750D01*
X850D01*
X800Y4050D02*
X1100D01*
Y4200D01*
X1050Y4250D01*
X850D01*
X800Y4200D01*
Y4050D01*
X6050Y2700D02*
X6100Y2750D01*
Y2850D01*
X6050Y2900D01*
X5850D01*
X5800Y2850D01*
Y2750D01*
X5850Y2700D01*
X5800Y2600D02*
Y2500D01*
Y2550D01*
X6100D01*
X6050Y2600D01*
X5800Y2150D02*
Y2350D01*
X6000Y2150D01*
X6050D01*
X6100Y2200D01*
Y2300D01*
X6050Y2350D01*
X6100Y2050D02*
X5800D01*
Y1900D01*
X5850Y1850D01*
X6050D01*
X6100Y1900D01*
Y2050D01*
X4300Y550D02*
X4250Y600D01*
X4150D01*
X4100Y550D01*
Y350D01*
X4150Y300D01*
X4250D01*
X4300Y350D01*
X4400Y300D02*
X4500D01*
X4450D01*
Y600D01*
X4400Y550D01*
X4650Y300D02*
X4750D01*
X4700D01*
Y600D01*
X4650Y550D01*
X4900Y600D02*
Y300D01*
X5050D01*
X5100Y350D01*
Y550D01*
X5050Y600D01*
X4900D01*
X3000Y7000D02*
X2700D01*
Y7150D01*
X2750Y7200D01*
X2850D01*
X2900Y7150D01*
Y7000D01*
Y7100D02*
X3000Y7200D01*
X2700Y7500D02*
X2750Y7400D01*
X2850Y7300D01*
X2950D01*
X3000Y7350D01*
Y7450D01*
X2950Y7500D01*
X2900D01*
X2850Y7450D01*
Y7300D01*
X2700Y7600D02*
X3000D01*
Y7750D01*
X2950Y7800D01*
X2750D01*
X2700Y7750D01*
Y7600D01*
X5300Y7000D02*
X5000D01*
Y7150D01*
X5050Y7200D01*
X5150D01*
X5200Y7150D01*
Y7000D01*
Y7100D02*
X5300Y7200D01*
X5050Y7300D02*
X5000Y7350D01*
Y7450D01*
X5050Y7500D01*
X5100D01*
X5150Y7450D01*
X5200Y7500D01*
X5250D01*
X5300Y7450D01*
Y7350D01*
X5250Y7300D01*
X5200D01*
X5150Y7350D01*
X5100Y7300D01*
X5050D01*
X5150Y7350D02*
Y7450D01*
X5000Y7600D02*
X5300D01*
Y7750D01*
X5250Y7800D01*
X5050D01*
X5000Y7750D01*
Y7600D01*
X1100Y13900D02*
Y13850D01*
X1200Y13750D01*
X1300Y13850D01*
Y13900D01*
X1200Y13750D02*
Y13600D01*
X1400D02*
X1500D01*
X1450D01*
Y13900D01*
X1400Y13850D01*
X1650Y13900D02*
Y13600D01*
X1800D01*
X1850Y13650D01*
Y13850D01*
X1800Y13900D01*
X1650D01*
X2170Y5960D02*
Y5710D01*
X2220Y5660D01*
X2320D01*
X2370Y5710D01*
Y5960D01*
X2470Y5910D02*
X2520Y5960D01*
X2620D01*
X2670Y5910D01*
Y5860D01*
X2620Y5810D01*
X2570D01*
X2620D01*
X2670Y5760D01*
Y5710D01*
X2620Y5660D01*
X2520D01*
X2470Y5710D01*
X2770Y5960D02*
Y5660D01*
X2920D01*
X2970Y5710D01*
Y5910D01*
X2920Y5960D01*
X2770D01*
X5300Y8600D02*
X5000D01*
Y8750D01*
X5050Y8800D01*
X5150D01*
X5200Y8750D01*
Y8600D01*
Y8700D02*
X5300Y8800D01*
X5000Y8900D02*
Y9100D01*
X5050D01*
X5250Y8900D01*
X5300D01*
X5000Y9200D02*
X5300D01*
Y9350D01*
X5250Y9400D01*
X5050D01*
X5000Y9350D01*
Y9200D01*
X21520Y12120D02*
X21720Y11820D01*
Y12120D02*
X21520Y11820D01*
X21820D02*
X21920D01*
X21870D01*
Y12120D01*
X21820Y12070D01*
X22070Y12120D02*
Y11820D01*
X22220D01*
X22270Y11870D01*
Y12070D01*
X22220Y12120D01*
X22070D01*
X14390Y13750D02*
Y13500D01*
X14440Y13450D01*
X14540D01*
X14590Y13500D01*
Y13750D01*
X14890Y13450D02*
X14690D01*
X14890Y13650D01*
Y13700D01*
X14840Y13750D01*
X14740D01*
X14690Y13700D01*
X14990Y13750D02*
Y13450D01*
X15140D01*
X15190Y13500D01*
Y13700D01*
X15140Y13750D01*
X14990D01*
X16000Y5500D02*
X16300D01*
Y5350D01*
X16250Y5300D01*
X16150D01*
X16100Y5350D01*
Y5500D01*
Y5400D02*
X16000Y5300D01*
X16300Y5000D02*
Y5200D01*
X16150D01*
X16200Y5100D01*
Y5050D01*
X16150Y5000D01*
X16050D01*
X16000Y5050D01*
Y5150D01*
X16050Y5200D01*
X16300Y4900D02*
X16000D01*
Y4750D01*
X16050Y4700D01*
X16250D01*
X16300Y4750D01*
Y4900D01*
X17000Y5500D02*
X17300D01*
Y5350D01*
X17250Y5300D01*
X17150D01*
X17100Y5350D01*
Y5500D01*
Y5400D02*
X17000Y5300D01*
Y5050D02*
X17300D01*
X17150Y5200D01*
Y5000D01*
X17300Y4900D02*
X17000D01*
Y4750D01*
X17050Y4700D01*
X17250D01*
X17300Y4750D01*
Y4900D01*
X20538Y8577D02*
X20238D01*
Y8727D01*
X20288Y8777D01*
X20388D01*
X20438Y8727D01*
Y8577D01*
Y8677D02*
X20538Y8777D01*
X20288Y8877D02*
X20238Y8927D01*
Y9027D01*
X20288Y9077D01*
X20338D01*
X20388Y9027D01*
Y8977D01*
Y9027D01*
X20438Y9077D01*
X20488D01*
X20538Y9027D01*
Y8927D01*
X20488Y8877D01*
X20238Y9177D02*
X20538D01*
Y9327D01*
X20488Y9377D01*
X20288D01*
X20238Y9327D01*
Y9177D01*
X20500Y10500D02*
X20200D01*
Y10650D01*
X20250Y10700D01*
X20350D01*
X20400Y10650D01*
Y10500D01*
Y10600D02*
X20500Y10700D01*
Y11000D02*
Y10800D01*
X20300Y11000D01*
X20250D01*
X20200Y10950D01*
Y10850D01*
X20250Y10800D01*
X20200Y11100D02*
X20500D01*
Y11250D01*
X20450Y11300D01*
X20250D01*
X20200Y11250D01*
Y11100D01*
X19000Y5500D02*
X19300D01*
Y5350D01*
X19250Y5300D01*
X19150D01*
X19100Y5350D01*
Y5500D01*
Y5400D02*
X19000Y5300D01*
Y5200D02*
Y5100D01*
Y5150D01*
X19300D01*
X19250Y5200D01*
X19300Y4950D02*
X19000D01*
Y4800D01*
X19050Y4750D01*
X19250D01*
X19300Y4800D01*
Y4950D01*
X18250Y5300D02*
X18300Y5350D01*
Y5450D01*
X18250Y5500D01*
X18050D01*
X18000Y5450D01*
Y5350D01*
X18050Y5300D01*
X18000Y5000D02*
Y5200D01*
X18200Y5000D01*
X18250D01*
X18300Y5050D01*
Y5150D01*
X18250Y5200D01*
X18300Y4900D02*
X18000D01*
Y4750D01*
X18050Y4700D01*
X18250D01*
X18300Y4750D01*
Y4900D01*
D38*
X9557Y18214D02*
Y18271D01*
X9614Y18385D01*
X9671Y18443D01*
X9786Y18500D01*
X10014D01*
X10128Y18443D01*
X10186Y18385D01*
X10243Y18271D01*
Y18157D01*
X10186Y18043D01*
X10071Y17871D01*
X9500Y17300D01*
X10300D01*
X10625Y17414D02*
X10568Y17357D01*
X10625Y17300D01*
X10683Y17357D01*
X10625Y17414D01*
X11060Y18500D02*
X11688D01*
X11345Y18043D01*
X11517D01*
X11631Y17986D01*
X11688Y17928D01*
X11745Y17757D01*
Y17643D01*
X11688Y17471D01*
X11574Y17357D01*
X11402Y17300D01*
X11231D01*
X11060Y17357D01*
X11003Y17414D01*
X10945Y17529D01*
X12299Y18500D02*
X12128Y18443D01*
X12071Y18328D01*
Y18214D01*
X12128Y18100D01*
X12242Y18043D01*
X12471Y17986D01*
X12642Y17928D01*
X12756Y17814D01*
X12814Y17700D01*
Y17529D01*
X12756Y17414D01*
X12699Y17357D01*
X12528Y17300D01*
X12299D01*
X12128Y17357D01*
X12071Y17414D01*
X12014Y17529D01*
Y17700D01*
X12071Y17814D01*
X12185Y17928D01*
X12357Y17986D01*
X12585Y18043D01*
X12699Y18100D01*
X12756Y18214D01*
Y18328D01*
X12699Y18443D01*
X12528Y18500D01*
X12299D01*
X14025Y18100D02*
X14653Y17300D01*
Y18100D02*
X14025Y17300D01*
X15847Y18271D02*
X15961Y18328D01*
X16133Y18500D01*
Y17300D01*
X16784Y17414D02*
X16727Y17357D01*
X16784Y17300D01*
X16841Y17357D01*
X16784Y17414D01*
X17790Y18328D02*
X17733Y18443D01*
X17561Y18500D01*
X17447D01*
X17275Y18443D01*
X17161Y18271D01*
X17104Y17986D01*
Y17700D01*
X17161Y17471D01*
X17275Y17357D01*
X17447Y17300D01*
X17504D01*
X17675Y17357D01*
X17790Y17471D01*
X17847Y17643D01*
Y17700D01*
X17790Y17871D01*
X17675Y17986D01*
X17504Y18043D01*
X17447D01*
X17275Y17986D01*
X17161Y17871D01*
X17104Y17700D01*
X18795Y18500D02*
X18224D01*
X18167Y17986D01*
X18224Y18043D01*
X18395Y18100D01*
X18567D01*
X18738Y18043D01*
X18852Y17928D01*
X18909Y17757D01*
Y17643D01*
X18852Y17471D01*
X18738Y17357D01*
X18567Y17300D01*
X18395D01*
X18224Y17357D01*
X18167Y17414D01*
X18110Y17529D01*
X20235Y18500D02*
X20292Y18443D01*
X20349Y18500D01*
X20292Y18557D01*
X20235Y18500D01*
X20292Y18100D02*
Y17300D01*
X20560Y18100D02*
Y17300D01*
Y17871D02*
X20732Y18043D01*
X20846Y18100D01*
X21018D01*
X21132Y18043D01*
X21189Y17871D01*
Y17300D01*
X22189Y17928D02*
X22074Y18043D01*
X21960Y18100D01*
X21789D01*
X21675Y18043D01*
X21560Y17928D01*
X21503Y17757D01*
Y17643D01*
X21560Y17471D01*
X21675Y17357D01*
X21789Y17300D01*
X21960D01*
X22074Y17357D01*
X22189Y17471D01*
X22446Y18500D02*
Y17300D01*
Y17871D02*
X22617Y18043D01*
X22731Y18100D01*
X22903D01*
X23017Y18043D01*
X23074Y17871D01*
Y17300D01*
D39*
X21400Y900D02*
X22686D01*
X22943Y986D01*
X23114Y1157D01*
X23200Y1414D01*
Y1586D01*
X23114Y1843D01*
X22943Y2014D01*
X22686Y2100D01*
X21400D01*
Y2597D02*
X23200D01*
X21400D02*
Y3368D01*
X21486Y3625D01*
X21572Y3711D01*
X21743Y3797D01*
X21915D01*
X22086Y3711D01*
X22172Y3625D01*
X22257Y3368D01*
Y2597D01*
Y3197D02*
X23200Y3797D01*
X21829Y5485D02*
X21657Y5399D01*
X21486Y5228D01*
X21400Y5056D01*
Y4713D01*
X21486Y4542D01*
X21657Y4371D01*
X21829Y4285D01*
X22086Y4199D01*
X22514D01*
X22772Y4285D01*
X22943Y4371D01*
X23114Y4542D01*
X23200Y4713D01*
Y5056D01*
X23114Y5228D01*
X22943Y5399D01*
X22772Y5485D01*
X10100Y15643D02*
X9928Y15814D01*
X9671Y15900D01*
X9328D01*
X9071Y15814D01*
X8900Y15643D01*
Y15471D01*
X8986Y15300D01*
X9071Y15214D01*
X9243Y15128D01*
X9757Y14957D01*
X9928Y14871D01*
X10014Y14786D01*
X10100Y14614D01*
Y14357D01*
X9928Y14186D01*
X9671Y14100D01*
X9328D01*
X9071Y14186D01*
X8900Y14357D01*
X10503Y14786D02*
X11531D01*
Y14957D01*
X11445Y15128D01*
X11359Y15214D01*
X11188Y15300D01*
X10931D01*
X10760Y15214D01*
X10588Y15043D01*
X10503Y14786D01*
Y14614D01*
X10588Y14357D01*
X10760Y14186D01*
X10931Y14100D01*
X11188D01*
X11359Y14186D01*
X11531Y14357D01*
X11917Y15300D02*
Y14100D01*
Y14786D02*
X12002Y15043D01*
X12174Y15214D01*
X12345Y15300D01*
X12602D01*
X12936Y15900D02*
X13022Y15814D01*
X13108Y15900D01*
X13022Y15985D01*
X12936Y15900D01*
X13022Y15300D02*
Y14100D01*
X14453Y15300D02*
Y14100D01*
Y15043D02*
X14282Y15214D01*
X14110Y15300D01*
X13853D01*
X13682Y15214D01*
X13510Y15043D01*
X13425Y14786D01*
Y14614D01*
X13510Y14357D01*
X13682Y14186D01*
X13853Y14100D01*
X14110D01*
X14282Y14186D01*
X14453Y14357D01*
X14933Y15900D02*
Y14100D01*
X16724Y15900D02*
Y14100D01*
Y15900D02*
X17495D01*
X17752Y15814D01*
X17838Y15728D01*
X17924Y15557D01*
Y15385D01*
X17838Y15214D01*
X17752Y15128D01*
X17495Y15043D01*
X16724D02*
X17495D01*
X17752Y14957D01*
X17838Y14871D01*
X17924Y14700D01*
Y14443D01*
X17838Y14271D01*
X17752Y14186D01*
X17495Y14100D01*
X16724D01*
X18755Y15300D02*
X18584Y15214D01*
X18412Y15043D01*
X18327Y14786D01*
Y14614D01*
X18412Y14357D01*
X18584Y14186D01*
X18755Y14100D01*
X19012D01*
X19184Y14186D01*
X19355Y14357D01*
X19441Y14614D01*
Y14786D01*
X19355Y15043D01*
X19184Y15214D01*
X19012Y15300D01*
X18755D01*
X20863D02*
Y14100D01*
Y15043D02*
X20692Y15214D01*
X20520Y15300D01*
X20263D01*
X20092Y15214D01*
X19921Y15043D01*
X19835Y14786D01*
Y14614D01*
X19921Y14357D01*
X20092Y14186D01*
X20263Y14100D01*
X20520D01*
X20692Y14186D01*
X20863Y14357D01*
X21343Y15300D02*
Y14100D01*
Y14786D02*
X21429Y15043D01*
X21600Y15214D01*
X21772Y15300D01*
X22029D01*
X23220Y15900D02*
Y14100D01*
Y15043D02*
X23048Y15214D01*
X22877Y15300D01*
X22620D01*
X22449Y15214D01*
X22277Y15043D01*
X22191Y14786D01*
Y14614D01*
X22277Y14357D01*
X22449Y14186D01*
X22620Y14100D01*
X22877D01*
X23048Y14186D01*
X23220Y14357D01*
M02*
