G04 Layer_Color=8388736*
%FSLAX24Y24*%
%MOIN*%
G70*
G01*
G75*
%ADD40R,0.0887X0.0297*%
%ADD41R,0.0966X0.1084*%
%ADD42R,0.0395X0.0454*%
%ADD43R,0.0474X0.0415*%
%ADD44R,0.0454X0.0395*%
%ADD45O,0.0218X0.0789*%
%ADD46O,0.0789X0.0218*%
%ADD47O,0.0277X0.0927*%
%ADD48O,0.0317X0.0789*%
%ADD49O,0.0789X0.0317*%
%ADD50R,0.2265X0.0887*%
%ADD51C,0.0612*%
%ADD52C,0.0100*%
%ADD53C,0.0506*%
%ADD54C,0.0700*%
D40*
X3493Y11230D02*
D03*
Y10915D02*
D03*
Y9970D02*
D03*
Y10285D02*
D03*
Y10600D02*
D03*
D41*
X3394Y12254D02*
D03*
Y8946D02*
D03*
X1307D02*
D03*
Y12254D02*
D03*
D42*
X4844Y1000D02*
D03*
X4156D02*
D03*
X3344D02*
D03*
X2656D02*
D03*
D43*
X4500Y7835D02*
D03*
Y7165D02*
D03*
Y9335D02*
D03*
Y8665D02*
D03*
X3500Y7835D02*
D03*
Y7165D02*
D03*
X16000Y6165D02*
D03*
Y6835D02*
D03*
X17000Y6165D02*
D03*
Y6835D02*
D03*
X21000Y8665D02*
D03*
Y9335D02*
D03*
Y11335D02*
D03*
Y10665D02*
D03*
X19000Y6165D02*
D03*
Y6835D02*
D03*
D44*
X5300Y1956D02*
D03*
Y2644D02*
D03*
X1600Y3356D02*
D03*
Y4044D02*
D03*
Y1856D02*
D03*
Y2544D02*
D03*
X18000Y6844D02*
D03*
Y6156D02*
D03*
D45*
X6524Y12795D02*
D03*
X6720D02*
D03*
X6917D02*
D03*
X7114D02*
D03*
X7311D02*
D03*
X7508D02*
D03*
X7705D02*
D03*
X7902D02*
D03*
X8098D02*
D03*
X8295D02*
D03*
X8492D02*
D03*
X8689D02*
D03*
X8886D02*
D03*
X9083D02*
D03*
X9280D02*
D03*
X9476D02*
D03*
Y8405D02*
D03*
X9280D02*
D03*
X9083D02*
D03*
X8886D02*
D03*
X8689D02*
D03*
X8492D02*
D03*
X8295D02*
D03*
X8098D02*
D03*
X7902D02*
D03*
X7705D02*
D03*
X7508D02*
D03*
X7311D02*
D03*
X7114D02*
D03*
X6917D02*
D03*
X6720D02*
D03*
X6524D02*
D03*
D46*
X10195Y12076D02*
D03*
Y11880D02*
D03*
Y11683D02*
D03*
Y11486D02*
D03*
Y11289D02*
D03*
Y11092D02*
D03*
Y10895D02*
D03*
Y10698D02*
D03*
Y10502D02*
D03*
Y10305D02*
D03*
Y10108D02*
D03*
Y9911D02*
D03*
Y9714D02*
D03*
Y9517D02*
D03*
Y9320D02*
D03*
Y9124D02*
D03*
X5805D02*
D03*
Y9320D02*
D03*
Y9517D02*
D03*
Y9714D02*
D03*
Y9911D02*
D03*
Y10108D02*
D03*
Y10305D02*
D03*
Y10502D02*
D03*
Y10698D02*
D03*
Y10895D02*
D03*
Y11092D02*
D03*
Y11289D02*
D03*
Y11486D02*
D03*
Y11683D02*
D03*
Y11880D02*
D03*
Y12076D02*
D03*
D47*
X4396Y4858D02*
D03*
X4140D02*
D03*
X3884D02*
D03*
X3628D02*
D03*
X3372D02*
D03*
X3116D02*
D03*
X2860D02*
D03*
X2604D02*
D03*
X4396Y2142D02*
D03*
X4140D02*
D03*
X3884D02*
D03*
X3628D02*
D03*
X3372D02*
D03*
X3116D02*
D03*
X2860D02*
D03*
X2604D02*
D03*
D48*
X18575Y12715D02*
D03*
X18260D02*
D03*
X17945D02*
D03*
X17630D02*
D03*
X17315D02*
D03*
X17000D02*
D03*
X16685D02*
D03*
X16370D02*
D03*
X16055D02*
D03*
X15740D02*
D03*
X15425D02*
D03*
Y8285D02*
D03*
X15740D02*
D03*
X16055D02*
D03*
X16370D02*
D03*
X16685D02*
D03*
X17000D02*
D03*
X17315D02*
D03*
X17630D02*
D03*
X17945D02*
D03*
X18260D02*
D03*
X18575D02*
D03*
D49*
X14785Y12075D02*
D03*
Y11760D02*
D03*
Y11445D02*
D03*
Y11130D02*
D03*
Y10815D02*
D03*
Y10500D02*
D03*
Y10185D02*
D03*
Y9870D02*
D03*
Y9555D02*
D03*
Y9240D02*
D03*
Y8925D02*
D03*
X19215D02*
D03*
Y9240D02*
D03*
Y9555D02*
D03*
Y9870D02*
D03*
Y10185D02*
D03*
Y10500D02*
D03*
Y10815D02*
D03*
Y11130D02*
D03*
Y11445D02*
D03*
Y11760D02*
D03*
Y12075D02*
D03*
D50*
X5270Y15100D02*
D03*
X1530D02*
D03*
D51*
X2607Y9911D02*
D03*
Y11289D02*
D03*
D52*
X7900Y2300D02*
D03*
X17900D02*
D03*
D53*
X14700Y2200D02*
D03*
X14200D02*
D03*
X13700D02*
D03*
X13200D02*
D03*
X12700D02*
D03*
X11700D02*
D03*
X12200D02*
D03*
X11200D02*
D03*
X10700D02*
D03*
Y2700D02*
D03*
X11200D02*
D03*
X11700D02*
D03*
X12200D02*
D03*
X12700D02*
D03*
X13200D02*
D03*
X13700D02*
D03*
X14200D02*
D03*
X14700D02*
D03*
X15200D02*
D03*
Y2200D02*
D03*
D54*
X22000Y9000D02*
D03*
Y10000D02*
D03*
Y11000D02*
D03*
X23000Y9000D02*
D03*
Y10000D02*
D03*
Y11000D02*
D03*
M02*
