G04 Layer_Physical_Order=1*
G04 Layer_Color=255*
%FSLAX24Y24*%
%MOIN*%
G70*
G01*
G75*
%ADD10R,0.0787X0.0197*%
%ADD11R,0.0866X0.0984*%
%ADD12R,0.0295X0.0354*%
%ADD13R,0.0374X0.0315*%
%ADD14R,0.0354X0.0295*%
%ADD15O,0.0118X0.0689*%
%ADD16O,0.0689X0.0118*%
%ADD17O,0.0177X0.0827*%
%ADD18O,0.0217X0.0689*%
%ADD19O,0.0689X0.0217*%
%ADD20R,0.2165X0.0787*%
%ADD21C,0.0100*%
%ADD22C,0.0512*%
%ADD23C,0.0406*%
%ADD24C,0.0600*%
%ADD25C,0.0290*%
D10*
X3493Y11230D02*
D03*
Y10915D02*
D03*
Y9970D02*
D03*
Y10285D02*
D03*
Y10600D02*
D03*
D11*
X3394Y12254D02*
D03*
Y8946D02*
D03*
X1307D02*
D03*
Y12254D02*
D03*
D12*
X4844Y1000D02*
D03*
X4156D02*
D03*
X3344D02*
D03*
X2656D02*
D03*
D13*
X4500Y7835D02*
D03*
Y7165D02*
D03*
Y9335D02*
D03*
Y8665D02*
D03*
X3500Y7835D02*
D03*
Y7165D02*
D03*
X16000Y6165D02*
D03*
Y6835D02*
D03*
X17000Y6165D02*
D03*
Y6835D02*
D03*
X21000Y8665D02*
D03*
Y9335D02*
D03*
Y11335D02*
D03*
Y10665D02*
D03*
X19000Y6165D02*
D03*
Y6835D02*
D03*
D14*
X5300Y1956D02*
D03*
Y2644D02*
D03*
X1600Y3356D02*
D03*
Y4044D02*
D03*
Y1856D02*
D03*
Y2544D02*
D03*
X18000Y6844D02*
D03*
Y6156D02*
D03*
D15*
X6524Y12795D02*
D03*
X6720D02*
D03*
X6917D02*
D03*
X7114D02*
D03*
X7311D02*
D03*
X7508D02*
D03*
X7705D02*
D03*
X7902D02*
D03*
X8098D02*
D03*
X8295D02*
D03*
X8492D02*
D03*
X8689D02*
D03*
X8886D02*
D03*
X9083D02*
D03*
X9280D02*
D03*
X9476D02*
D03*
Y8405D02*
D03*
X9280D02*
D03*
X9083D02*
D03*
X8886D02*
D03*
X8689D02*
D03*
X8492D02*
D03*
X8295D02*
D03*
X8098D02*
D03*
X7902D02*
D03*
X7705D02*
D03*
X7508D02*
D03*
X7311D02*
D03*
X7114D02*
D03*
X6917D02*
D03*
X6720D02*
D03*
X6524D02*
D03*
D16*
X10195Y12076D02*
D03*
Y11880D02*
D03*
Y11683D02*
D03*
Y11486D02*
D03*
Y11289D02*
D03*
Y11092D02*
D03*
Y10895D02*
D03*
Y10698D02*
D03*
Y10502D02*
D03*
Y10305D02*
D03*
Y10108D02*
D03*
Y9911D02*
D03*
Y9714D02*
D03*
Y9517D02*
D03*
Y9320D02*
D03*
Y9124D02*
D03*
X5805D02*
D03*
Y9320D02*
D03*
Y9517D02*
D03*
Y9714D02*
D03*
Y9911D02*
D03*
Y10108D02*
D03*
Y10305D02*
D03*
Y10502D02*
D03*
Y10698D02*
D03*
Y10895D02*
D03*
Y11092D02*
D03*
Y11289D02*
D03*
Y11486D02*
D03*
Y11683D02*
D03*
Y11880D02*
D03*
Y12076D02*
D03*
D17*
X4396Y4858D02*
D03*
X4140D02*
D03*
X3884D02*
D03*
X3628D02*
D03*
X3372D02*
D03*
X3116D02*
D03*
X2860D02*
D03*
X2604D02*
D03*
X4396Y2142D02*
D03*
X4140D02*
D03*
X3884D02*
D03*
X3628D02*
D03*
X3372D02*
D03*
X3116D02*
D03*
X2860D02*
D03*
X2604D02*
D03*
D18*
X18575Y12715D02*
D03*
X18260D02*
D03*
X17945D02*
D03*
X17630D02*
D03*
X17315D02*
D03*
X17000D02*
D03*
X16685D02*
D03*
X16370D02*
D03*
X16055D02*
D03*
X15740D02*
D03*
X15425D02*
D03*
Y8285D02*
D03*
X15740D02*
D03*
X16055D02*
D03*
X16370D02*
D03*
X16685D02*
D03*
X17000D02*
D03*
X17315D02*
D03*
X17630D02*
D03*
X17945D02*
D03*
X18260D02*
D03*
X18575D02*
D03*
D19*
X14785Y12075D02*
D03*
Y11760D02*
D03*
Y11445D02*
D03*
Y11130D02*
D03*
Y10815D02*
D03*
Y10500D02*
D03*
Y10185D02*
D03*
Y9870D02*
D03*
Y9555D02*
D03*
Y9240D02*
D03*
Y8925D02*
D03*
X19215D02*
D03*
Y9240D02*
D03*
Y9555D02*
D03*
Y9870D02*
D03*
Y10185D02*
D03*
Y10500D02*
D03*
Y10815D02*
D03*
Y11130D02*
D03*
Y11445D02*
D03*
Y11760D02*
D03*
Y12075D02*
D03*
D20*
X5270Y15100D02*
D03*
X1530D02*
D03*
D21*
X6356Y11400D02*
X6500D01*
X6400Y11739D02*
Y12000D01*
X6165Y11504D02*
X6400Y11739D01*
X5805Y11504D02*
X6165D01*
X5805Y11486D02*
Y11504D01*
X6254Y11298D02*
X6356Y11400D01*
X5805Y11298D02*
X6254D01*
X6408Y11092D02*
X6500Y11000D01*
X8092Y4952D02*
X11748D01*
X6175Y3035D02*
X8092Y4952D01*
X3465Y3035D02*
X6175D01*
X3200Y3300D02*
X3465Y3035D01*
X5122Y2842D02*
X5300Y2664D01*
X4063Y2842D02*
X5122D01*
X3845Y2624D02*
X4063Y2842D01*
X3845Y2142D02*
Y2624D01*
X6200Y3300D02*
X8022Y5122D01*
X3800Y3300D02*
X6200D01*
X8022Y5122D02*
X11875D01*
X3065Y3635D02*
X4735D01*
X7100Y6000D01*
X9280Y8405D02*
Y8747D01*
X15877Y6077D02*
X16000Y6200D01*
X14777Y6077D02*
X15877D01*
X16877Y6200D02*
X17287Y5789D01*
X16000Y6200D02*
X16877D01*
X18862Y8665D02*
X21000D01*
X18990Y6844D02*
Y8656D01*
X18000Y6844D02*
X18990D01*
X20500Y9200D02*
Y10300D01*
X20200Y8900D02*
X20500Y9200D01*
X19240Y8900D02*
X20200D01*
X20865Y10665D02*
X21000D01*
X20500Y10300D02*
X20865Y10665D01*
X19215Y8925D02*
X19240Y8900D01*
X18750Y8778D02*
X18862Y8665D01*
X21665Y11335D02*
X22000Y11000D01*
X21000Y11335D02*
X21665D01*
X21665Y9335D02*
X22000Y9000D01*
X21000Y9335D02*
X21665D01*
X8100Y6900D02*
X11700D01*
X7311Y7689D02*
X8100Y6900D01*
X7311Y7689D02*
Y8405D01*
X17593Y6136D02*
X18000D01*
X5100Y12002D02*
X5402Y11700D01*
X5270Y12073D02*
X5463Y11880D01*
X5805D01*
X5402Y11700D02*
X5787D01*
X5805Y11683D01*
X5100Y12002D02*
Y13900D01*
X5270Y12073D02*
Y14400D01*
X4900Y14100D02*
X5100Y13900D01*
X2530Y14100D02*
X4900D01*
X5270Y14400D02*
Y15100D01*
X2330Y14300D02*
X2530Y14100D01*
X5270Y15100D02*
X5364Y15194D01*
X5300Y15258D02*
X5364Y15194D01*
X1530Y15100D02*
X2330Y14300D01*
X1600Y15242D02*
X1636Y15206D01*
X5700Y12182D02*
Y12300D01*
Y12182D02*
X5805Y12076D01*
X3493Y10895D02*
X5805D01*
X1900Y11300D02*
X2300Y11700D01*
X1900Y9275D02*
Y11300D01*
Y9275D02*
X3252Y7923D01*
X2300Y11700D02*
X2800D01*
X3270Y11230D01*
X3493D01*
X8800Y11300D02*
Y12000D01*
X5100Y9900D02*
X5794D01*
X5805Y9911D01*
X8100Y7700D02*
Y8404D01*
X8098Y8405D02*
X8100Y8404D01*
X9700Y13000D02*
X9800D01*
X9509Y12809D02*
X9700Y13000D01*
X8917Y13400D02*
X9065Y13252D01*
X8800Y13400D02*
X8917D01*
X9065Y12813D02*
Y13252D01*
X7177Y11800D02*
X7700D01*
X8100Y11400D01*
X6524Y12453D02*
X7177Y11800D01*
X14700Y2200D02*
X15200Y2700D01*
X10195Y10108D02*
X11692D01*
X10195Y10305D02*
X11736D01*
X3364Y1000D02*
Y1530D01*
X3372Y1764D02*
Y2142D01*
X2813Y2189D02*
X2860Y2142D01*
X9476Y12795D02*
X9500Y12818D01*
X3628Y1778D02*
Y2142D01*
X3116Y1778D02*
X3364Y1530D01*
X3116Y1778D02*
Y2142D01*
X2604Y1032D02*
X2636Y1000D01*
X2604Y1032D02*
Y2142D01*
X3372Y1764D02*
X4136Y1000D01*
X3628Y1778D02*
X3797Y1608D01*
X4256D01*
X4864Y1000D01*
X2394Y4858D02*
X2604D01*
X1600Y4064D02*
X2394Y4858D01*
X2813Y2189D02*
Y2553D01*
X2691Y2675D02*
X2813Y2553D01*
X1600Y2675D02*
X2691D01*
X1600Y3336D02*
X1960D01*
X2028Y3268D02*
X2028D01*
X1960Y3336D02*
X2028Y3268D01*
X4736Y1936D02*
X5300D01*
X3252Y7923D02*
X3500D01*
Y7077D02*
X3654D01*
X4500Y7923D01*
Y8577D01*
X3493Y9970D02*
X4170D01*
X4500Y6600D02*
Y7077D01*
X3493Y10895D02*
Y10915D01*
Y10600D02*
X4700D01*
X4798Y10698D01*
X5805D01*
Y11289D02*
Y11298D01*
Y10108D02*
Y10305D01*
X4500Y9423D02*
X4594Y9517D01*
X5805D01*
Y9320D02*
X6147D01*
X5805Y9911D02*
X5810Y9906D01*
X22594Y11000D02*
X23000D01*
X22174Y10580D02*
X22594Y11000D01*
X21826Y10580D02*
X22174D01*
X21406Y11000D02*
X21826Y10580D01*
X19500Y10500D02*
X19900D01*
X20400Y11000D01*
X21406D01*
X17000Y12715D02*
Y13018D01*
X17945Y12715D02*
Y13026D01*
X14200Y2200D02*
X14700Y2700D01*
X14123D02*
X14200D01*
X13820Y2277D02*
X14123Y2580D01*
X13700Y2200D02*
Y2277D01*
X13820D01*
X15200Y2700D02*
Y3800D01*
X16900Y5500D01*
X14200Y2700D02*
Y4200D01*
X14123Y2580D02*
Y2700D01*
X10195Y9911D02*
X10953D01*
X11500Y9364D01*
X5805Y9714D02*
X6147D01*
X5805Y9320D02*
X6500D01*
X6147D02*
X6270Y9443D01*
Y9591D01*
X6147Y9714D02*
X6270Y9591D01*
X3581Y4906D02*
X3628Y4858D01*
X3581Y4906D02*
Y5781D01*
X3900Y6100D01*
X9065Y12813D02*
X9083Y12795D01*
X7100Y6000D02*
Y8384D01*
Y6000D02*
X10400D01*
X14785Y10185D02*
X14800Y10200D01*
X15400D01*
X17600Y8315D02*
X17630Y8285D01*
X18600Y10185D02*
X19215D01*
X16370Y12715D02*
X16400Y12685D01*
Y12100D02*
Y12685D01*
X17000Y9500D02*
Y11300D01*
X17600Y8315D02*
Y8900D01*
X17945Y8285D02*
Y9255D01*
X14785Y9870D02*
X15430D01*
X15800Y9500D01*
X17700D01*
X17945Y9255D01*
X18600Y10500D02*
X19215D01*
X16055Y11945D02*
Y12715D01*
Y11945D02*
X16700Y11300D01*
X17800D01*
X18600Y10500D01*
X14700Y2700D02*
Y3800D01*
X16400Y5500D01*
X16377Y7300D02*
X16500D01*
X16000Y6923D02*
X16377Y7300D01*
X16500D02*
X17000Y7800D01*
Y8285D01*
X15736Y6500D02*
X17229D01*
X17593Y6136D01*
X17287Y5789D02*
X18713D01*
X19000Y6077D01*
X18970Y9240D02*
X19215D01*
X18750Y9020D02*
X18970Y9240D01*
X18750Y8778D02*
Y9020D01*
X18559Y6518D02*
X19000Y6077D01*
X17945Y7548D02*
Y8285D01*
X10195Y10895D02*
X10895D01*
X11300Y11300D01*
X9220Y11880D02*
X10195D01*
X11500Y8600D02*
Y9364D01*
X8492Y7965D02*
Y8405D01*
Y7965D02*
X8847Y7610D01*
X8295Y7922D02*
Y8405D01*
Y7922D02*
X8917Y7300D01*
X11240D01*
X8847Y7610D02*
X11310D01*
X14115Y10815D02*
X14785D01*
X8098Y12795D02*
Y13235D01*
X9280Y12795D02*
X9297Y12813D01*
X9217Y9517D02*
X10195D01*
X7096Y8387D02*
Y8729D01*
Y8387D02*
X7100Y8384D01*
X7096Y8729D02*
X7467Y9100D01*
X8926D02*
X9280Y8747D01*
X8098Y12355D02*
Y12795D01*
X6100Y12600D02*
X6295Y12795D01*
X6524D01*
X9500Y12818D02*
X9509Y12809D01*
X10190Y9906D02*
X10195Y9911D01*
X10190Y10900D02*
X10195Y10895D01*
X7467Y9100D02*
X8800D01*
X8926D01*
X11310Y7610D02*
X11900Y8200D01*
X8098Y12355D02*
X8400Y12054D01*
Y12000D02*
Y12054D01*
X5805Y11092D02*
X6408D01*
X6524Y12453D02*
Y12795D01*
X1600Y1836D02*
X1764Y2000D01*
X2100D01*
X13200Y2200D02*
X13700Y2700D01*
X12700Y2200D02*
X13200Y2700D01*
X12200Y2200D02*
Y2277D01*
X12320D02*
X12623Y2580D01*
Y2700D02*
X12700D01*
X12200Y2277D02*
X12320D01*
X11700Y2200D02*
X12200Y2700D01*
X11200Y2200D02*
X11700Y2700D01*
X12623Y2580D02*
Y2700D01*
X12200D02*
Y4500D01*
X11748Y4952D02*
X12200Y4500D01*
X11875Y5122D02*
X12700Y4297D01*
Y2700D02*
Y4297D01*
X11100Y3200D02*
X11200Y3100D01*
Y2700D02*
Y3100D01*
X10100Y3000D02*
X10300Y3200D01*
X11100D01*
X14000Y8200D02*
Y10175D01*
X14325Y10500D01*
X14500D01*
X13700Y10400D02*
X14115Y10815D01*
X13700Y7900D02*
Y10400D01*
X14736Y7500D02*
X15736Y6500D01*
X14000Y7500D02*
X14736D01*
X11736Y10305D02*
X13400Y8640D01*
X11240Y7300D02*
X11840Y7900D01*
X12100D01*
X11900Y8200D02*
X12300D01*
X11700Y6900D02*
X12300Y7500D01*
X11692Y10108D02*
X13200Y8600D01*
Y2700D02*
Y8600D01*
X8098Y13235D02*
X8529Y13665D01*
X8910D01*
X9297Y13277D01*
Y12813D02*
Y13277D01*
X9200Y10900D02*
X10190D01*
X8700Y11200D02*
X8800Y11300D01*
X8400Y10900D02*
Y12000D01*
X8100Y11000D02*
Y11400D01*
X5805Y10108D02*
X6508D01*
X5805Y10502D02*
X5823Y10484D01*
X6691Y10300D02*
X8400D01*
X5823Y10484D02*
X6507D01*
X6691Y10300D01*
X9755Y9911D02*
X10195D01*
X8700Y10966D02*
Y11200D01*
Y10966D02*
X9755Y9911D01*
X8800Y9100D02*
Y10300D01*
X8400Y10900D02*
X8800Y10500D01*
Y10300D02*
Y10500D01*
X2785Y10915D02*
X3493D01*
X2800Y10600D02*
X3493D01*
X2610Y10410D02*
X2800Y10600D01*
X2570Y10700D02*
X2785Y10915D01*
X2300Y10700D02*
X2570D01*
X6524Y7824D02*
Y8405D01*
X5805Y7530D02*
Y9124D01*
X3884Y4858D02*
Y5609D01*
X5805Y7530D01*
X4800Y6100D02*
X6524Y7824D01*
X2860Y4858D02*
X2900Y4818D01*
Y4200D02*
Y4818D01*
X3116Y4359D02*
Y4858D01*
X3610Y4100D02*
X3800D01*
X3116Y4359D02*
X3200Y4275D01*
X3372Y4337D02*
Y4858D01*
Y4337D02*
X3610Y4100D01*
X3200Y3900D02*
Y4275D01*
X2604Y4096D02*
Y4858D01*
Y4096D02*
X3065Y3635D01*
X10100Y1200D02*
Y3000D01*
X13400Y4700D02*
Y8640D01*
Y4700D02*
X13700Y4400D01*
Y2700D02*
Y4400D01*
X17675Y6518D02*
X18559D01*
X17604Y6588D02*
X17675Y6518D01*
X17604Y6588D02*
Y7207D01*
X17945Y7548D01*
X17315Y7238D02*
Y7500D01*
Y8285D01*
X17000Y6923D02*
X17315Y7238D01*
D22*
X2607Y9911D02*
D03*
Y11289D02*
D03*
D23*
X14700Y2200D02*
D03*
X14200D02*
D03*
X13700D02*
D03*
X13200D02*
D03*
X12700D02*
D03*
X11700D02*
D03*
X12200D02*
D03*
X11200D02*
D03*
X10700D02*
D03*
Y2700D02*
D03*
X11200D02*
D03*
X11700D02*
D03*
X12200D02*
D03*
X12700D02*
D03*
X13200D02*
D03*
X13700D02*
D03*
X14200D02*
D03*
X14700D02*
D03*
X15200D02*
D03*
Y2200D02*
D03*
D24*
X22000Y9000D02*
D03*
Y10000D02*
D03*
Y11000D02*
D03*
X23000Y9000D02*
D03*
Y10000D02*
D03*
Y11000D02*
D03*
D25*
X6500Y11400D02*
D03*
Y11000D02*
D03*
X6400Y12000D02*
D03*
X3800Y3300D02*
D03*
X8926Y9100D02*
D03*
X5270Y14400D02*
D03*
X2330Y14300D02*
D03*
X5700Y12300D02*
D03*
X8800Y12000D02*
D03*
X5100Y9900D02*
D03*
X8100Y7700D02*
D03*
X9800Y13000D02*
D03*
X8800Y13400D02*
D03*
X2028Y3268D02*
D03*
X4736Y1936D02*
D03*
X4170Y9970D02*
D03*
X4500Y6600D02*
D03*
X16900Y5500D02*
D03*
X14200Y4200D02*
D03*
X6500Y9320D02*
D03*
X3900Y6100D02*
D03*
X10400Y6000D02*
D03*
X15400Y10200D02*
D03*
X18600Y10185D02*
D03*
X16400Y12100D02*
D03*
X17600Y8900D02*
D03*
X16400Y5500D02*
D03*
X16500Y7300D02*
D03*
X14777Y6077D02*
D03*
X11300Y11300D02*
D03*
X9220Y11880D02*
D03*
X11500Y8600D02*
D03*
X9217Y9517D02*
D03*
X16055Y11945D02*
D03*
X6100Y12600D02*
D03*
X8400Y12000D02*
D03*
X2100Y2000D02*
D03*
X14000Y8200D02*
D03*
X13700Y7900D02*
D03*
X14000Y7500D02*
D03*
X12100Y7900D02*
D03*
X12300Y8200D02*
D03*
Y7500D02*
D03*
X9200Y10900D02*
D03*
X8700Y11200D02*
D03*
X8100Y11000D02*
D03*
X6500Y10116D02*
D03*
X8400Y10300D02*
D03*
X8800D02*
D03*
X1900Y11000D02*
D03*
X2610Y10410D02*
D03*
X2300Y10700D02*
D03*
X4800Y6100D02*
D03*
X3800Y4100D02*
D03*
X2900Y4200D02*
D03*
X3200Y3900D02*
D03*
Y3300D02*
D03*
X10100Y1200D02*
D03*
X17315Y7500D02*
D03*
M02*
