G04 Layer_Color=32896*
%FSLAX24Y24*%
%MOIN*%
G70*
G01*
G75*
%ADD21C,0.0100*%
%ADD36C,0.0079*%
%ADD37C,0.0070*%
D21*
X11953Y4701D02*
Y5213D01*
Y4701D02*
X13410D01*
X11953Y7299D02*
X13410D01*
X11953Y6787D02*
Y7299D01*
D36*
X10441Y8264D02*
X10559D01*
X10441Y8736D02*
X10559D01*
X7480Y10648D02*
X7520D01*
X7480Y10352D02*
X7520D01*
X2461Y15138D02*
X2539D01*
X2461Y14862D02*
X2539D01*
X4461Y14862D02*
X4539D01*
X4461Y15138D02*
X4539D01*
X10161Y11038D02*
X10239D01*
X10161Y10762D02*
X10239D01*
X7461Y13638D02*
X7539D01*
X7461Y13362D02*
X7539D01*
X7441Y14736D02*
X7559D01*
X7441Y14264D02*
X7559D01*
X10141Y10036D02*
X10259D01*
X10141Y9564D02*
X10259D01*
X10102Y12276D02*
X10298D01*
X10102Y11724D02*
X10298D01*
X7402Y12776D02*
X7598D01*
X7402Y12224D02*
X7598D01*
X10736Y4641D02*
Y4759D01*
X10264Y4641D02*
Y4759D01*
X7441Y11736D02*
X7559D01*
X7441Y11264D02*
X7559D01*
X8827Y8169D02*
X8945D01*
X8827Y8641D02*
X8945D01*
X15941Y13236D02*
X16059D01*
X15941Y12764D02*
X16059D01*
D37*
X8700Y14550D02*
X8650Y14500D01*
X8550D01*
X8500Y14550D01*
Y14750D01*
X8550Y14800D01*
X8650D01*
X8700Y14750D01*
X8950Y14800D02*
Y14500D01*
X8800Y14650D01*
X9000D01*
X9100Y14500D02*
Y14800D01*
X9250D01*
X9300Y14750D01*
Y14550D01*
X9250Y14500D01*
X9100D01*
X11600Y9850D02*
X11650Y9900D01*
X11750D01*
X11800Y9850D01*
Y9650D01*
X11750Y9600D01*
X11650D01*
X11600Y9650D01*
X11300Y9900D02*
X11500D01*
Y9750D01*
X11400Y9800D01*
X11350D01*
X11300Y9750D01*
Y9650D01*
X11350Y9600D01*
X11450D01*
X11500Y9650D01*
X11200Y9900D02*
Y9600D01*
X11050D01*
X11000Y9650D01*
Y9850D01*
X11050Y9900D01*
X11200D01*
X8600Y13550D02*
X8550Y13500D01*
X8450D01*
X8400Y13550D01*
Y13750D01*
X8450Y13800D01*
X8550D01*
X8600Y13750D01*
X8900Y13500D02*
X8800Y13550D01*
X8700Y13650D01*
Y13750D01*
X8750Y13800D01*
X8850D01*
X8900Y13750D01*
Y13700D01*
X8850Y13650D01*
X8700D01*
X9000Y13500D02*
Y13800D01*
X9150D01*
X9200Y13750D01*
Y13550D01*
X9150Y13500D01*
X9000D01*
X11900Y11050D02*
X11950Y11100D01*
X12050D01*
X12100Y11050D01*
Y10850D01*
X12050Y10800D01*
X11950D01*
X11900Y10850D01*
X11800Y11100D02*
X11600D01*
Y11050D01*
X11800Y10850D01*
Y10800D01*
X11500Y11100D02*
Y10800D01*
X11350D01*
X11300Y10850D01*
Y11050D01*
X11350Y11100D01*
X11500D01*
X10100Y9050D02*
X10050Y9000D01*
X9950D01*
X9900Y9050D01*
Y9250D01*
X9950Y9300D01*
X10050D01*
X10100Y9250D01*
X10200Y9300D02*
X10300D01*
X10250D01*
Y9000D01*
X10200Y9050D01*
X10450D02*
X10500Y9000D01*
X10600D01*
X10650Y9050D01*
Y9100D01*
X10600Y9150D01*
X10550D01*
X10600D01*
X10650Y9200D01*
Y9250D01*
X10600Y9300D01*
X10500D01*
X10450Y9250D01*
X10750Y9000D02*
Y9300D01*
X10900D01*
X10950Y9250D01*
Y9050D01*
X10900Y9000D01*
X10750D01*
X8600Y11550D02*
X8550Y11500D01*
X8450D01*
X8400Y11550D01*
Y11750D01*
X8450Y11800D01*
X8550D01*
X8600Y11750D01*
X8700Y11800D02*
X8800D01*
X8750D01*
Y11500D01*
X8700Y11550D01*
X9150Y11500D02*
X8950D01*
Y11650D01*
X9050Y11600D01*
X9100D01*
X9150Y11650D01*
Y11750D01*
X9100Y11800D01*
X9000D01*
X8950Y11750D01*
X9250Y11500D02*
Y11800D01*
X9400D01*
X9450Y11750D01*
Y11550D01*
X9400Y11500D01*
X9250D01*
X4800Y15750D02*
X4850Y15800D01*
X4950D01*
X5000Y15750D01*
Y15550D01*
X4950Y15500D01*
X4850D01*
X4800Y15550D01*
X4700Y15500D02*
X4600D01*
X4650D01*
Y15800D01*
X4700Y15750D01*
X4250Y15800D02*
X4350Y15750D01*
X4450Y15650D01*
Y15550D01*
X4400Y15500D01*
X4300D01*
X4250Y15550D01*
Y15600D01*
X4300Y15650D01*
X4450D01*
X4150Y15800D02*
Y15500D01*
X4000D01*
X3950Y15550D01*
Y15750D01*
X4000Y15800D01*
X4150D01*
X2800Y15750D02*
X2850Y15800D01*
X2950D01*
X3000Y15750D01*
Y15550D01*
X2950Y15500D01*
X2850D01*
X2800Y15550D01*
X2700Y15500D02*
X2600D01*
X2650D01*
Y15800D01*
X2700Y15750D01*
X2450Y15800D02*
X2250D01*
Y15750D01*
X2450Y15550D01*
Y15500D01*
X2150Y15800D02*
Y15500D01*
X2000D01*
X1950Y15550D01*
Y15750D01*
X2000Y15800D01*
X2150D01*
X8586Y8955D02*
X8536Y8905D01*
X8436D01*
X8386Y8955D01*
Y9155D01*
X8436Y9205D01*
X8536D01*
X8586Y9155D01*
X8686Y9205D02*
X8786D01*
X8736D01*
Y8905D01*
X8686Y8955D01*
X9086Y9205D02*
Y8905D01*
X8936Y9055D01*
X9136D01*
X9236Y8905D02*
Y9205D01*
X9385D01*
X9435Y9155D01*
Y8955D01*
X9385Y8905D01*
X9236D01*
X11800Y12200D02*
Y11900D01*
X11600D01*
X11500D02*
X11400D01*
X11450D01*
Y12200D01*
X11500Y12150D01*
X11250Y12200D02*
Y11900D01*
X11100D01*
X11050Y11950D01*
Y12150D01*
X11100Y12200D01*
X11250D01*
X8400Y12500D02*
Y12800D01*
X8600D01*
X8900D02*
X8700D01*
X8900Y12600D01*
Y12550D01*
X8850Y12500D01*
X8750D01*
X8700Y12550D01*
X9000Y12500D02*
Y12800D01*
X9150D01*
X9200Y12750D01*
Y12550D01*
X9150Y12500D01*
X9000D01*
X7800Y9700D02*
Y10000D01*
X7650D01*
X7600Y9950D01*
Y9850D01*
X7650Y9800D01*
X7800D01*
X7700D02*
X7600Y9700D01*
X7500Y9750D02*
X7450Y9700D01*
X7350D01*
X7300Y9750D01*
Y9950D01*
X7350Y10000D01*
X7450D01*
X7500Y9950D01*
Y9900D01*
X7450Y9850D01*
X7300D01*
X7200Y10000D02*
Y9700D01*
X7050D01*
X7000Y9750D01*
Y9950D01*
X7050Y10000D01*
X7200D01*
X16430Y13910D02*
X16480Y13960D01*
X16580D01*
X16630Y13910D01*
Y13710D01*
X16580Y13660D01*
X16480D01*
X16430Y13710D01*
X16330Y13910D02*
X16280Y13960D01*
X16180D01*
X16130Y13910D01*
Y13860D01*
X16180Y13810D01*
X16230D01*
X16180D01*
X16130Y13760D01*
Y13710D01*
X16180Y13660D01*
X16280D01*
X16330Y13710D01*
X16030Y13960D02*
Y13660D01*
X15880D01*
X15830Y13710D01*
Y13910D01*
X15880Y13960D01*
X16030D01*
X10620Y5920D02*
X10670Y5970D01*
X10770D01*
X10820Y5920D01*
Y5720D01*
X10770Y5670D01*
X10670D01*
X10620Y5720D01*
X10520Y5670D02*
X10420D01*
X10470D01*
Y5970D01*
X10520Y5920D01*
X10270Y5970D02*
Y5670D01*
X10120D01*
X10070Y5720D01*
Y5920D01*
X10120Y5970D01*
X10270D01*
X14270Y7920D02*
Y7670D01*
X14220Y7620D01*
X14120D01*
X14070Y7670D01*
Y7920D01*
X13971Y7620D02*
X13871D01*
X13921D01*
Y7920D01*
X13971Y7870D01*
X13721Y7920D02*
Y7620D01*
X13571D01*
X13521Y7670D01*
Y7870D01*
X13571Y7920D01*
X13721D01*
M02*
