M48
;Layer_Color=9474304
;FILE_FORMAT=2:4
INCH,TZ
;TYPE=PLATED
T1F00S00C0.0150
T2F00S00C0.0206
T3F00S00C0.0354
T4F00S00C0.0400
T5F00S00C0.1100
%
T01
X2100Y2000
X4736Y1936
X10100Y1200
X10400Y6000
X12300Y7500
X12100Y7900
X12300Y8200
X11500Y8600
X11300Y11300
X9200Y10900
X8700Y11200
X8100Y11000
X8400Y10300
X8800
X9217Y9517
X8926Y9100
X8100Y7700
X6500Y9320
Y10116
Y11000
Y11400
X6400Y12000
X6100Y12600
X5700Y12300
X8400Y12000
X8800
X9220Y11880
X9800Y13000
X8800Y13400
X16055Y11945
X16400Y12100
X15400Y10200
X18600Y10185
X17600Y8900
X17315Y7500
X16500Y7300
X16400Y5500
X16900
X14777Y6077
X14000Y7500
Y8200
X13700Y7900
X14200Y4200
X3800Y4100
Y3300
X3200
Y3900
X2900Y4200
X2028Y3268
X3900Y6100
X4800
X4500Y6600
X4170Y9970
X5100Y9900
X2610Y10410
X2300Y10700
X1900Y11000
X2330Y14300
X5270Y14400
T02
X10700Y2200
X11200
X11700
X12200
X12700
X13200
X13700
X14200
X14700
Y2700
X14200
X13700
X13200
X12700
X12200
X11700
X11200
X10700
X15200
Y2200
T03
X2607Y9911
Y11289
T04
X22000Y9000
Y10000
Y11000
X23000
Y10000
Y9000
T05
X7900Y2300
X17900
M30
