G04 Layer_Color=16711935*
%FSLAX24Y24*%
%MOIN*%
G70*
G01*
G75*
%ADD42R,0.0395X0.0454*%
%ADD51C,0.0612*%
%ADD52C,0.0100*%
%ADD53C,0.0506*%
%ADD54C,0.0700*%
%ADD55R,0.0553X0.0651*%
%ADD56R,0.0415X0.0474*%
%ADD57R,0.0946X0.0474*%
%ADD58R,0.0946X0.1380*%
%ADD59R,0.0435X0.0730*%
%ADD60R,0.0651X0.0553*%
D42*
X2844Y15000D02*
D03*
X2156D02*
D03*
X4156D02*
D03*
X4844D02*
D03*
X10544Y10900D02*
D03*
X9856D02*
D03*
X7844Y13500D02*
D03*
X7156D02*
D03*
D51*
X2607Y9911D02*
D03*
Y11289D02*
D03*
D52*
X7900Y2300D02*
D03*
X17900D02*
D03*
D53*
X14700Y2200D02*
D03*
X14200D02*
D03*
X13700D02*
D03*
X13200D02*
D03*
X12700D02*
D03*
X11700D02*
D03*
X12200D02*
D03*
X11200D02*
D03*
X10700D02*
D03*
Y2700D02*
D03*
X11200D02*
D03*
X11700D02*
D03*
X12200D02*
D03*
X12700D02*
D03*
X13200D02*
D03*
X13700D02*
D03*
X14200D02*
D03*
X14700D02*
D03*
X15200D02*
D03*
Y2200D02*
D03*
D54*
X22000Y9000D02*
D03*
Y10000D02*
D03*
Y11000D02*
D03*
X23000Y9000D02*
D03*
Y10000D02*
D03*
Y11000D02*
D03*
D55*
X10136Y8500D02*
D03*
X10864D02*
D03*
X7864Y14500D02*
D03*
X7136D02*
D03*
X10564Y9800D02*
D03*
X9836D02*
D03*
X7864Y11500D02*
D03*
X7136D02*
D03*
X8522Y8405D02*
D03*
X9250D02*
D03*
X16364Y13000D02*
D03*
X15636D02*
D03*
D56*
X7835Y10500D02*
D03*
X7165D02*
D03*
D57*
X13882Y6000D02*
D03*
Y5094D02*
D03*
Y6906D02*
D03*
D58*
X11599Y6000D02*
D03*
D59*
X10623Y12000D02*
D03*
X9777D02*
D03*
X7923Y12500D02*
D03*
X7077D02*
D03*
D60*
X10500Y4336D02*
D03*
Y5064D02*
D03*
M02*
