G04 Layer_Physical_Order=2*
G04 Layer_Color=16711680*
%FSLAX24Y24*%
%MOIN*%
G70*
G01*
G75*
%ADD12R,0.0295X0.0354*%
%ADD21C,0.0100*%
%ADD22C,0.0512*%
%ADD23C,0.0406*%
%ADD24C,0.0600*%
%ADD25C,0.0290*%
%ADD26C,0.2640*%
%ADD27R,0.0453X0.0551*%
%ADD28R,0.0315X0.0374*%
%ADD29R,0.0846X0.0374*%
%ADD30R,0.0846X0.1280*%
%ADD31R,0.0335X0.0630*%
%ADD32R,0.0551X0.0453*%
G36*
X10980Y2038D02*
X11005Y2005D01*
X11062Y1962D01*
X11078Y1955D01*
Y1893D01*
X10362Y1177D01*
X10359Y1179D01*
X10318Y1204D01*
X10303Y1284D01*
X10255Y1355D01*
X10184Y1403D01*
X10153Y1409D01*
X10136Y1463D01*
X10613Y1940D01*
X10629Y1934D01*
X10700Y1925D01*
X10771Y1934D01*
X10838Y1962D01*
X10895Y2005D01*
X10920Y2038D01*
X10920Y2039D01*
X10980D01*
X10980Y2038D01*
D02*
G37*
G36*
X23627Y173D02*
X9775D01*
X9754Y223D01*
X11287Y1756D01*
X11313Y1795D01*
X11322Y1842D01*
Y1955D01*
X11338Y1962D01*
X11395Y2005D01*
X11420Y2038D01*
X11420Y2039D01*
X11480D01*
X11480Y2038D01*
X11505Y2005D01*
X11562Y1962D01*
X11629Y1934D01*
X11700Y1925D01*
X11771Y1934D01*
X11838Y1962D01*
X11895Y2005D01*
X11920Y2038D01*
X11920Y2039D01*
X11980D01*
X11980Y2038D01*
X12005Y2005D01*
X12062Y1962D01*
X12129Y1934D01*
X12200Y1925D01*
X12271Y1934D01*
X12338Y1962D01*
X12395Y2005D01*
X12420Y2038D01*
X12420Y2039D01*
X12480D01*
X12480Y2038D01*
X12505Y2005D01*
X12562Y1962D01*
X12629Y1934D01*
X12700Y1925D01*
X12771Y1934D01*
X12838Y1962D01*
X12895Y2005D01*
X12920Y2038D01*
X12920Y2039D01*
X12980D01*
X12980Y2038D01*
X13005Y2005D01*
X13062Y1962D01*
X13129Y1934D01*
X13200Y1925D01*
X13271Y1934D01*
X13338Y1962D01*
X13395Y2005D01*
X13420Y2038D01*
X13420Y2039D01*
X13480D01*
X13480Y2038D01*
X13505Y2005D01*
X13562Y1962D01*
X13629Y1934D01*
X13700Y1925D01*
X13771Y1934D01*
X13838Y1962D01*
X13895Y2005D01*
X13920Y2038D01*
X13920Y2039D01*
X13980D01*
X13980Y2038D01*
X14005Y2005D01*
X14062Y1962D01*
X14129Y1934D01*
X14200Y1925D01*
X14271Y1934D01*
X14338Y1962D01*
X14395Y2005D01*
X14420Y2038D01*
X14420Y2039D01*
X14480D01*
X14480Y2038D01*
X14505Y2005D01*
X14562Y1962D01*
X14629Y1934D01*
X14700Y1925D01*
X14771Y1934D01*
X14838Y1962D01*
X14895Y2005D01*
X14900Y2012D01*
X14963D01*
X14984Y1984D01*
X15047Y1935D01*
X15121Y1905D01*
X15150Y1901D01*
Y2200D01*
X15200D01*
Y2250D01*
X15499D01*
X15495Y2279D01*
X15465Y2353D01*
X15416Y2416D01*
X15388Y2437D01*
Y2500D01*
X15395Y2505D01*
X15438Y2562D01*
X15466Y2629D01*
X15475Y2700D01*
X15466Y2771D01*
X15438Y2838D01*
X15395Y2895D01*
X15338Y2938D01*
X15271Y2966D01*
X15200Y2975D01*
X15129Y2966D01*
X15062Y2938D01*
X15005Y2895D01*
X14980Y2862D01*
X14980Y2861D01*
X14920D01*
X14920Y2862D01*
X14895Y2895D01*
X14838Y2938D01*
X14771Y2966D01*
X14700Y2975D01*
X14629Y2966D01*
X14562Y2938D01*
X14505Y2895D01*
X14480Y2862D01*
X14480Y2861D01*
X14420D01*
X14420Y2862D01*
X14395Y2895D01*
X14338Y2938D01*
X14271Y2966D01*
X14200Y2975D01*
X14129Y2966D01*
X14062Y2938D01*
X14005Y2895D01*
X13980Y2862D01*
X13980Y2861D01*
X13920D01*
X13920Y2862D01*
X13895Y2895D01*
X13838Y2938D01*
X13771Y2966D01*
X13700Y2975D01*
X13629Y2966D01*
X13562Y2938D01*
X13505Y2895D01*
X13480Y2862D01*
X13480Y2861D01*
X13420D01*
X13420Y2862D01*
X13395Y2895D01*
X13338Y2938D01*
X13271Y2966D01*
X13200Y2975D01*
X13129Y2966D01*
X13062Y2938D01*
X13005Y2895D01*
X12980Y2862D01*
X12980Y2861D01*
X12920D01*
X12920Y2862D01*
X12895Y2895D01*
X12838Y2938D01*
X12771Y2966D01*
X12700Y2975D01*
X12629Y2966D01*
X12562Y2938D01*
X12505Y2895D01*
X12480Y2862D01*
X12480Y2861D01*
X12420D01*
X12420Y2862D01*
X12395Y2895D01*
X12338Y2938D01*
X12271Y2966D01*
X12200Y2975D01*
X12129Y2966D01*
X12062Y2938D01*
X12005Y2895D01*
X11980Y2862D01*
X11980Y2861D01*
X11920D01*
X11920Y2862D01*
X11895Y2895D01*
X11838Y2938D01*
X11771Y2966D01*
X11700Y2975D01*
X11629Y2966D01*
X11562Y2938D01*
X11505Y2895D01*
X11480Y2862D01*
X11480Y2861D01*
X11420D01*
X11420Y2862D01*
X11395Y2895D01*
X11338Y2938D01*
X11271Y2966D01*
X11200Y2975D01*
X11129Y2966D01*
X11062Y2938D01*
X11005Y2895D01*
X11000Y2888D01*
X10937D01*
X10916Y2916D01*
X10853Y2965D01*
X10779Y2995D01*
X10750Y2999D01*
Y2700D01*
X10700D01*
Y2650D01*
X10401D01*
X10405Y2621D01*
X10435Y2547D01*
X10484Y2484D01*
X10512Y2463D01*
Y2400D01*
X10505Y2395D01*
X10462Y2338D01*
X10434Y2271D01*
X10425Y2200D01*
X10434Y2129D01*
X10440Y2113D01*
X9049Y722D01*
X3051D01*
X1022Y2751D01*
Y9639D01*
X1671Y10288D01*
X2428D01*
X2453Y10258D01*
X2455Y10255D01*
X2456Y10254D01*
X2461Y10249D01*
X2456Y10201D01*
X2442Y10196D01*
X2374Y10143D01*
X2322Y10075D01*
X2289Y9996D01*
X2278Y9911D01*
X2289Y9826D01*
X2322Y9747D01*
X2374Y9679D01*
X2442Y9626D01*
X2522Y9594D01*
X2607Y9582D01*
X2692Y9594D01*
X2771Y9626D01*
X2839Y9679D01*
X2891Y9747D01*
X2924Y9826D01*
X2935Y9911D01*
X2924Y9996D01*
X2891Y10075D01*
X2839Y10143D01*
X2771Y10196D01*
X2762Y10200D01*
X2757Y10249D01*
X2765Y10255D01*
X2813Y10326D01*
X2829Y10410D01*
X2813Y10494D01*
X2765Y10565D01*
X2694Y10613D01*
X2610Y10629D01*
X2554Y10618D01*
X2511Y10658D01*
X2519Y10700D01*
X2503Y10784D01*
X2455Y10855D01*
X2384Y10903D01*
X2300Y10919D01*
X2216Y10903D01*
X2145Y10855D01*
X2142Y10850D01*
X2119Y10851D01*
X2094Y10903D01*
X2103Y10916D01*
X2119Y11000D01*
X2103Y11084D01*
X2055Y11155D01*
X1984Y11203D01*
X1900Y11219D01*
X1816Y11203D01*
X1745Y11155D01*
X1723Y11122D01*
X1460D01*
X1413Y11113D01*
X1373Y11087D01*
X443Y10157D01*
X417Y10117D01*
X408Y10070D01*
Y2589D01*
X417Y2542D01*
X443Y2503D01*
X2723Y223D01*
X2702Y173D01*
X173D01*
Y16327D01*
X23627D01*
Y173D01*
D02*
G37*
%LPC*%
G36*
X10086Y8876D02*
X9809D01*
Y8550D01*
X10086D01*
Y8876D01*
D02*
G37*
G36*
X8848Y8781D02*
X8572D01*
Y8455D01*
X8848D01*
Y8781D01*
D02*
G37*
G36*
X22950Y8950D02*
X22603D01*
X22610Y8896D01*
X22651Y8798D01*
X22715Y8715D01*
X22798Y8651D01*
X22896Y8610D01*
X22950Y8603D01*
Y8950D01*
D02*
G37*
G36*
X10462Y8876D02*
X10186D01*
Y8550D01*
X10462D01*
Y8876D01*
D02*
G37*
G36*
X8472Y8781D02*
X8195D01*
Y8455D01*
X8472D01*
Y8781D01*
D02*
G37*
G36*
X10462Y8450D02*
X10186D01*
Y8124D01*
X10462D01*
Y8450D01*
D02*
G37*
G36*
X14000Y8419D02*
X13916Y8403D01*
X13845Y8355D01*
X13823Y8322D01*
X12477D01*
X12455Y8355D01*
X12384Y8403D01*
X12300Y8419D01*
X12216Y8403D01*
X12145Y8355D01*
X12097Y8284D01*
X12081Y8200D01*
X12097Y8119D01*
X12016Y8103D01*
X11945Y8055D01*
X11897Y7984D01*
X11881Y7900D01*
X11897Y7816D01*
X11945Y7745D01*
X12016Y7697D01*
X12100Y7681D01*
X12102Y7681D01*
X12132Y7636D01*
X12097Y7584D01*
X12081Y7500D01*
X12097Y7416D01*
X12145Y7345D01*
X12216Y7297D01*
X12300Y7281D01*
X12384Y7297D01*
X12455Y7345D01*
X12477Y7378D01*
X13823D01*
X13845Y7345D01*
X13916Y7297D01*
X14000Y7281D01*
X14084Y7297D01*
X14155Y7345D01*
X14203Y7416D01*
X14219Y7500D01*
X14203Y7584D01*
X14155Y7655D01*
X14084Y7703D01*
X14000Y7719D01*
X13916Y7703D01*
X13845Y7655D01*
X13823Y7622D01*
X12477D01*
X12455Y7655D01*
X12384Y7703D01*
X12340Y7711D01*
X12313Y7768D01*
X12318Y7778D01*
X13523D01*
X13545Y7745D01*
X13616Y7697D01*
X13700Y7681D01*
X13784Y7697D01*
X13855Y7745D01*
X13903Y7816D01*
X13919Y7900D01*
X13910Y7948D01*
X13952Y7990D01*
X14000Y7981D01*
X14084Y7997D01*
X14155Y8045D01*
X14203Y8116D01*
X14219Y8200D01*
X14203Y8284D01*
X14155Y8355D01*
X14084Y8403D01*
X14000Y8419D01*
D02*
G37*
G36*
X10086Y8450D02*
X9809D01*
Y8124D01*
X10086D01*
Y8450D01*
D02*
G37*
G36*
X11161Y8846D02*
X10568D01*
Y8154D01*
X11161D01*
Y8478D01*
X11323D01*
X11345Y8445D01*
X11416Y8397D01*
X11500Y8381D01*
X11584Y8397D01*
X11655Y8445D01*
X11703Y8516D01*
X11719Y8600D01*
X11703Y8684D01*
X11655Y8755D01*
X11584Y8803D01*
X11500Y8819D01*
X11416Y8803D01*
X11345Y8755D01*
X11323Y8722D01*
X11161D01*
Y8846D01*
D02*
G37*
G36*
X23397Y8950D02*
X23050D01*
Y8603D01*
X23104Y8610D01*
X23202Y8651D01*
X23285Y8715D01*
X23349Y8798D01*
X23390Y8896D01*
X23397Y8950D01*
D02*
G37*
G36*
X23000Y10373D02*
X22903Y10360D01*
X22813Y10323D01*
X22736Y10264D01*
X22677Y10187D01*
X22640Y10097D01*
X22627Y10000D01*
X22640Y9903D01*
X22677Y9813D01*
X22736Y9736D01*
X22813Y9677D01*
X22903Y9640D01*
X23000Y9627D01*
X23097Y9640D01*
X23187Y9677D01*
X23264Y9736D01*
X23323Y9813D01*
X23360Y9903D01*
X23373Y10000D01*
X23360Y10097D01*
X23323Y10187D01*
X23264Y10264D01*
X23187Y10323D01*
X23097Y10360D01*
X23000Y10373D01*
D02*
G37*
G36*
X22000D02*
X21903Y10360D01*
X21813Y10323D01*
X21736Y10264D01*
X21677Y10187D01*
X21640Y10097D01*
X21627Y10000D01*
X21640Y9903D01*
X21677Y9813D01*
X21736Y9736D01*
X21813Y9677D01*
X21903Y9640D01*
X22000Y9627D01*
X22097Y9640D01*
X22187Y9677D01*
X22264Y9736D01*
X22323Y9813D01*
X22360Y9903D01*
X22373Y10000D01*
X22360Y10097D01*
X22323Y10187D01*
X22264Y10264D01*
X22187Y10323D01*
X22097Y10360D01*
X22000Y10373D01*
D02*
G37*
G36*
X10891Y10176D02*
X10614D01*
Y9850D01*
X10891D01*
Y10176D01*
D02*
G37*
G36*
X10514D02*
X10238D01*
Y9850D01*
X10514D01*
Y10176D01*
D02*
G37*
G36*
X10891Y9750D02*
X10614D01*
Y9424D01*
X10891D01*
Y9750D01*
D02*
G37*
G36*
X22950Y9397D02*
X22896Y9390D01*
X22798Y9349D01*
X22715Y9285D01*
X22651Y9202D01*
X22610Y9104D01*
X22603Y9050D01*
X22950D01*
Y9397D01*
D02*
G37*
G36*
X22000Y9373D02*
X21903Y9360D01*
X21813Y9323D01*
X21736Y9264D01*
X21677Y9187D01*
X21640Y9097D01*
X21627Y9000D01*
X21640Y8903D01*
X21677Y8813D01*
X21736Y8736D01*
X21813Y8677D01*
X21903Y8640D01*
X22000Y8627D01*
X22097Y8640D01*
X22187Y8677D01*
X22264Y8736D01*
X22323Y8813D01*
X22360Y8903D01*
X22373Y9000D01*
X22360Y9097D01*
X22323Y9187D01*
X22264Y9264D01*
X22187Y9323D01*
X22097Y9360D01*
X22000Y9373D01*
D02*
G37*
G36*
X10514Y9750D02*
X10238D01*
Y9424D01*
X10514D01*
Y9750D01*
D02*
G37*
G36*
X23050Y9397D02*
Y9050D01*
X23397D01*
X23390Y9104D01*
X23349Y9202D01*
X23285Y9285D01*
X23202Y9349D01*
X23104Y9390D01*
X23050Y9397D01*
D02*
G37*
G36*
X14375Y5351D02*
X13389D01*
Y4837D01*
X13760D01*
Y4518D01*
X13769Y4471D01*
X13796Y4431D01*
X13988Y4239D01*
X13981Y4200D01*
X13997Y4116D01*
X14045Y4045D01*
X14116Y3997D01*
X14200Y3981D01*
X14284Y3997D01*
X14355Y4045D01*
X14403Y4116D01*
X14419Y4200D01*
X14403Y4284D01*
X14355Y4355D01*
X14284Y4403D01*
X14200Y4419D01*
X14161Y4412D01*
X14004Y4569D01*
Y4837D01*
X14375D01*
Y5351D01*
D02*
G37*
G36*
X3800Y4319D02*
X3716Y4303D01*
X3645Y4255D01*
X3597Y4184D01*
X3581Y4100D01*
X3597Y4016D01*
X3645Y3945D01*
X3678Y3923D01*
Y3477D01*
X3645Y3455D01*
X3597Y3384D01*
X3581Y3300D01*
X3597Y3216D01*
X3645Y3145D01*
X3716Y3097D01*
X3800Y3081D01*
X3884Y3097D01*
X3955Y3145D01*
X4003Y3216D01*
X4019Y3300D01*
X4003Y3384D01*
X3955Y3455D01*
X3922Y3477D01*
Y3923D01*
X3955Y3945D01*
X4003Y4016D01*
X4019Y4100D01*
X4003Y4184D01*
X3955Y4255D01*
X3884Y4303D01*
X3800Y4319D01*
D02*
G37*
G36*
X10846Y4632D02*
X10154D01*
Y4039D01*
X10846D01*
Y4632D01*
D02*
G37*
G36*
X17315Y7719D02*
X17231Y7703D01*
X17160Y7655D01*
X17112Y7584D01*
X17096Y7500D01*
X17112Y7416D01*
X17160Y7345D01*
X17193Y7323D01*
Y5966D01*
X16939Y5712D01*
X16900Y5719D01*
X16816Y5703D01*
X16745Y5655D01*
X16697Y5584D01*
X16681Y5500D01*
X16697Y5416D01*
X16745Y5345D01*
X16816Y5297D01*
X16900Y5281D01*
X16984Y5297D01*
X17055Y5345D01*
X17103Y5416D01*
X17119Y5500D01*
X17112Y5539D01*
X17401Y5828D01*
X17428Y5868D01*
X17437Y5915D01*
Y7323D01*
X17470Y7345D01*
X17517Y7416D01*
X17534Y7500D01*
X17517Y7584D01*
X17470Y7655D01*
X17399Y7703D01*
X17315Y7719D01*
D02*
G37*
G36*
X16500Y7519D02*
X16416Y7503D01*
X16345Y7455D01*
X16297Y7384D01*
X16281Y7300D01*
X16297Y7216D01*
X16312Y7195D01*
X16287Y7157D01*
X16278Y7111D01*
Y5677D01*
X16245Y5655D01*
X16197Y5584D01*
X16181Y5500D01*
X16197Y5416D01*
X16245Y5345D01*
X16316Y5297D01*
X16400Y5281D01*
X16484Y5297D01*
X16555Y5345D01*
X16603Y5416D01*
X16619Y5500D01*
X16603Y5584D01*
X16555Y5655D01*
X16522Y5677D01*
Y7060D01*
X16554Y7092D01*
X16584Y7097D01*
X16655Y7145D01*
X16703Y7216D01*
X16719Y7300D01*
X16703Y7384D01*
X16655Y7455D01*
X16584Y7503D01*
X16500Y7519D01*
D02*
G37*
G36*
X17900Y3694D02*
X17682Y3677D01*
X17469Y3626D01*
X17267Y3542D01*
X17080Y3428D01*
X16914Y3286D01*
X16772Y3120D01*
X16658Y2933D01*
X16574Y2731D01*
X16523Y2518D01*
X16506Y2300D01*
X16523Y2082D01*
X16574Y1869D01*
X16658Y1667D01*
X16772Y1480D01*
X16914Y1314D01*
X17080Y1172D01*
X17267Y1058D01*
X17469Y974D01*
X17682Y923D01*
X17900Y906D01*
X18118Y923D01*
X18331Y974D01*
X18533Y1058D01*
X18720Y1172D01*
X18886Y1314D01*
X19028Y1480D01*
X19142Y1667D01*
X19226Y1869D01*
X19277Y2082D01*
X19294Y2300D01*
X19277Y2518D01*
X19226Y2731D01*
X19142Y2933D01*
X19028Y3120D01*
X18886Y3286D01*
X18720Y3428D01*
X18533Y3542D01*
X18331Y3626D01*
X18118Y3677D01*
X17900Y3694D01*
D02*
G37*
G36*
X7900D02*
X7682Y3677D01*
X7469Y3626D01*
X7267Y3542D01*
X7080Y3428D01*
X6914Y3286D01*
X6772Y3120D01*
X6658Y2933D01*
X6574Y2731D01*
X6523Y2518D01*
X6506Y2300D01*
X6523Y2082D01*
X6574Y1869D01*
X6658Y1667D01*
X6772Y1480D01*
X6914Y1314D01*
X7080Y1172D01*
X7267Y1058D01*
X7469Y974D01*
X7682Y923D01*
X7900Y906D01*
X8118Y923D01*
X8331Y974D01*
X8533Y1058D01*
X8720Y1172D01*
X8886Y1314D01*
X9028Y1480D01*
X9142Y1667D01*
X9226Y1869D01*
X9277Y2082D01*
X9294Y2300D01*
X9277Y2518D01*
X9226Y2731D01*
X9142Y2933D01*
X9028Y3120D01*
X8886Y3286D01*
X8720Y3428D01*
X8533Y3542D01*
X8331Y3626D01*
X8118Y3677D01*
X7900Y3694D01*
D02*
G37*
G36*
X15499Y2150D02*
X15250D01*
Y1901D01*
X15279Y1905D01*
X15353Y1935D01*
X15416Y1984D01*
X15465Y2047D01*
X15495Y2121D01*
X15499Y2150D01*
D02*
G37*
G36*
X3200Y4119D02*
X3116Y4103D01*
X3045Y4055D01*
X2997Y3984D01*
X2981Y3900D01*
X2997Y3816D01*
X3045Y3745D01*
X3078Y3723D01*
Y3477D01*
X3045Y3455D01*
X2997Y3384D01*
X2981Y3300D01*
X2997Y3216D01*
X3045Y3145D01*
X3116Y3097D01*
X3200Y3081D01*
X3284Y3097D01*
X3355Y3145D01*
X3403Y3216D01*
X3419Y3300D01*
X3403Y3384D01*
X3355Y3455D01*
X3322Y3477D01*
Y3723D01*
X3355Y3745D01*
X3403Y3816D01*
X3419Y3900D01*
X3403Y3984D01*
X3355Y4055D01*
X3284Y4103D01*
X3200Y4119D01*
D02*
G37*
G36*
X10650Y2999D02*
X10621Y2995D01*
X10547Y2965D01*
X10484Y2916D01*
X10435Y2853D01*
X10405Y2779D01*
X10401Y2750D01*
X10650D01*
Y2999D01*
D02*
G37*
G36*
X14405Y7193D02*
X13932D01*
Y6956D01*
X14405D01*
Y7193D01*
D02*
G37*
G36*
X13832D02*
X13359D01*
Y6956D01*
X13832D01*
Y7193D01*
D02*
G37*
G36*
X8472Y8355D02*
X8195D01*
Y8030D01*
X8472D01*
Y8355D01*
D02*
G37*
G36*
X8926Y9319D02*
X8843Y9303D01*
X8771Y9255D01*
X8724Y9184D01*
X8707Y9100D01*
X8724Y9016D01*
X8771Y8945D01*
X8843Y8897D01*
X8926Y8881D01*
X8965Y8888D01*
X9057Y8797D01*
X9037Y8751D01*
X8954D01*
Y8060D01*
X9546D01*
Y8751D01*
X9372D01*
Y8776D01*
X9363Y8823D01*
X9337Y8863D01*
X9138Y9061D01*
X9146Y9100D01*
X9129Y9184D01*
X9081Y9255D01*
X9010Y9303D01*
X8926Y9319D01*
D02*
G37*
G36*
X8848Y8355D02*
X8572D01*
Y8030D01*
X8848D01*
Y8355D01*
D02*
G37*
G36*
X14777Y6296D02*
X14693Y6279D01*
X14622Y6232D01*
X14574Y6161D01*
X14567Y6122D01*
X14375D01*
Y6257D01*
X13389D01*
Y5743D01*
X14375D01*
Y5878D01*
X14688D01*
X14693Y5874D01*
X14777Y5858D01*
X14861Y5874D01*
X14932Y5922D01*
X14979Y5993D01*
X14996Y6077D01*
X14979Y6161D01*
X14932Y6232D01*
X14861Y6279D01*
X14777Y6296D01*
D02*
G37*
G36*
X12092Y6710D02*
X11105D01*
Y6122D01*
X10577D01*
X10555Y6155D01*
X10484Y6203D01*
X10400Y6219D01*
X10316Y6203D01*
X10245Y6155D01*
X10197Y6084D01*
X10181Y6000D01*
X10197Y5916D01*
X10245Y5845D01*
X10316Y5797D01*
X10400Y5781D01*
X10484Y5797D01*
X10555Y5845D01*
X10577Y5878D01*
X11105D01*
Y5680D01*
X10786Y5361D01*
X10154D01*
Y4768D01*
X10846D01*
Y5074D01*
X11075Y5303D01*
X11105Y5290D01*
Y5290D01*
X12092D01*
Y6710D01*
D02*
G37*
G36*
X4800Y6319D02*
X4716Y6303D01*
X4645Y6255D01*
X4623Y6222D01*
X4077D01*
X4055Y6255D01*
X3984Y6303D01*
X3900Y6319D01*
X3816Y6303D01*
X3745Y6255D01*
X3697Y6184D01*
X3681Y6100D01*
X3697Y6016D01*
X3745Y5945D01*
X3816Y5897D01*
X3900Y5881D01*
X3984Y5897D01*
X4055Y5945D01*
X4077Y5978D01*
X4623D01*
X4645Y5945D01*
X4716Y5897D01*
X4800Y5881D01*
X4884Y5897D01*
X4955Y5945D01*
X5003Y6016D01*
X5019Y6100D01*
X5003Y6184D01*
X4955Y6255D01*
X4884Y6303D01*
X4800Y6319D01*
D02*
G37*
G36*
X14405Y6856D02*
X13932D01*
Y6618D01*
X14405D01*
Y6856D01*
D02*
G37*
G36*
X13832D02*
X13359D01*
Y6618D01*
X13832D01*
Y6856D01*
D02*
G37*
G36*
X2373Y15247D02*
X1938D01*
Y14753D01*
X2013D01*
Y14494D01*
X2023Y14447D01*
X2049Y14408D01*
X2118Y14339D01*
X2111Y14300D01*
X2127Y14216D01*
X2175Y14145D01*
X2246Y14097D01*
X2330Y14081D01*
X2414Y14097D01*
X2485Y14145D01*
X2532Y14216D01*
X2549Y14300D01*
X2532Y14384D01*
X2485Y14455D01*
X2414Y14503D01*
X2330Y14519D01*
X2295Y14512D01*
X2258Y14545D01*
Y14753D01*
X2373D01*
Y15247D01*
D02*
G37*
G36*
X8092Y13777D02*
X7894D01*
Y13550D01*
X8092D01*
Y13777D01*
D02*
G37*
G36*
X7814Y14450D02*
X7538D01*
Y14124D01*
X7814D01*
Y14450D01*
D02*
G37*
G36*
X5062Y15247D02*
X4627D01*
Y14753D01*
X4755D01*
X4778Y14719D01*
X5059Y14439D01*
X5051Y14400D01*
X5068Y14316D01*
X5115Y14245D01*
X5186Y14197D01*
X5270Y14181D01*
X5354Y14197D01*
X5425Y14245D01*
X5473Y14316D01*
X5489Y14400D01*
X5473Y14484D01*
X5425Y14555D01*
X5354Y14603D01*
X5270Y14619D01*
X5232Y14612D01*
X5062Y14781D01*
Y15247D01*
D02*
G37*
G36*
X8191Y14450D02*
X7914D01*
Y14124D01*
X8191D01*
Y14450D01*
D02*
G37*
G36*
X16691Y13376D02*
X16414D01*
Y13050D01*
X16691D01*
Y13376D01*
D02*
G37*
G36*
X16314D02*
X16038D01*
Y13050D01*
X16314D01*
Y13376D01*
D02*
G37*
G36*
X7794Y13450D02*
X7597D01*
Y13223D01*
X7794D01*
Y13450D01*
D02*
G37*
G36*
Y13777D02*
X7597D01*
Y13550D01*
X7794D01*
Y13777D01*
D02*
G37*
G36*
X8092Y13450D02*
X7894D01*
Y13223D01*
X8092D01*
Y13450D01*
D02*
G37*
G36*
X4106Y15277D02*
X3908D01*
Y15050D01*
X4106D01*
Y15277D01*
D02*
G37*
G36*
X4403Y14950D02*
X4206D01*
Y14723D01*
X4403D01*
Y14950D01*
D02*
G37*
G36*
X2794Y15277D02*
X2597D01*
Y15050D01*
X2794D01*
Y15277D01*
D02*
G37*
G36*
X4403D02*
X4206D01*
Y15050D01*
X4403D01*
Y15277D01*
D02*
G37*
G36*
X3092D02*
X2894D01*
Y15050D01*
X3092D01*
Y15277D01*
D02*
G37*
G36*
X8191Y14876D02*
X7914D01*
Y14550D01*
X8191D01*
Y14876D01*
D02*
G37*
G36*
X7814D02*
X7538D01*
Y14550D01*
X7814D01*
Y14876D01*
D02*
G37*
G36*
X2794Y14950D02*
X2597D01*
Y14723D01*
X2794D01*
Y14950D01*
D02*
G37*
G36*
X4106D02*
X3908D01*
Y14723D01*
X4106D01*
Y14950D01*
D02*
G37*
G36*
X3092D02*
X2894D01*
Y14723D01*
X3092D01*
Y14950D01*
D02*
G37*
G36*
X16691Y12950D02*
X16414D01*
Y12624D01*
X16691D01*
Y12950D01*
D02*
G37*
G36*
X22000Y11373D02*
X21903Y11360D01*
X21813Y11323D01*
X21736Y11264D01*
X21677Y11187D01*
X21640Y11097D01*
X21627Y11000D01*
X21640Y10903D01*
X21677Y10813D01*
X21736Y10736D01*
X21813Y10677D01*
X21903Y10640D01*
X22000Y10627D01*
X22097Y10640D01*
X22187Y10677D01*
X22264Y10736D01*
X22323Y10813D01*
X22360Y10903D01*
X22373Y11000D01*
X22360Y11097D01*
X22323Y11187D01*
X22264Y11264D01*
X22187Y11323D01*
X22097Y11360D01*
X22000Y11373D01*
D02*
G37*
G36*
X10792Y10850D02*
X10594D01*
Y10623D01*
X10792D01*
Y10850D01*
D02*
G37*
G36*
X23000Y11373D02*
X22903Y11360D01*
X22813Y11323D01*
X22736Y11264D01*
X22677Y11187D01*
X22640Y11097D01*
X22627Y11000D01*
X22640Y10903D01*
X22677Y10813D01*
X22736Y10736D01*
X22813Y10677D01*
X22903Y10640D01*
X23000Y10627D01*
X23097Y10640D01*
X23187Y10677D01*
X23264Y10736D01*
X23323Y10813D01*
X23360Y10903D01*
X23373Y11000D01*
X23360Y11097D01*
X23323Y11187D01*
X23264Y11264D01*
X23187Y11323D01*
X23097Y11360D01*
X23000Y11373D01*
D02*
G37*
G36*
X10792Y11177D02*
X10594D01*
Y10950D01*
X10792D01*
Y11177D01*
D02*
G37*
G36*
X10494D02*
X10297D01*
Y10950D01*
X10494D01*
Y11177D01*
D02*
G37*
G36*
X8092Y10450D02*
X7885D01*
Y10213D01*
X8092D01*
Y10450D01*
D02*
G37*
G36*
X7785D02*
X7577D01*
Y10213D01*
X7785D01*
Y10450D01*
D02*
G37*
G36*
X6500Y11219D02*
X6416Y11203D01*
X6345Y11155D01*
X6297Y11084D01*
X6281Y11000D01*
X6297Y10916D01*
X6345Y10845D01*
X6416Y10797D01*
X6500Y10781D01*
X6584Y10797D01*
X6611Y10816D01*
X6938Y10489D01*
Y10243D01*
X7393D01*
Y10757D01*
X7016D01*
X6706Y11067D01*
X6703Y11084D01*
X6655Y11155D01*
X6584Y11203D01*
X6500Y11219D01*
D02*
G37*
G36*
X10494Y10850D02*
X10297D01*
Y10623D01*
X10494D01*
Y10850D01*
D02*
G37*
G36*
X7785Y10787D02*
X7577D01*
Y10550D01*
X7785D01*
Y10787D01*
D02*
G37*
G36*
X15932Y13346D02*
X15339D01*
Y12654D01*
X15513D01*
Y12364D01*
X15523Y12317D01*
X15549Y12278D01*
X15844Y11983D01*
X15836Y11945D01*
X15853Y11861D01*
X15900Y11790D01*
X15971Y11742D01*
X16055Y11726D01*
X16139Y11742D01*
X16210Y11790D01*
X16258Y11861D01*
X16274Y11945D01*
X16258Y12029D01*
X16210Y12100D01*
X16139Y12147D01*
X16055Y12164D01*
X16017Y12156D01*
X15758Y12415D01*
Y12654D01*
X15932D01*
Y13346D01*
D02*
G37*
G36*
X7462Y11876D02*
X7186D01*
Y11550D01*
X7462D01*
Y11876D01*
D02*
G37*
G36*
X7432Y14846D02*
X6839D01*
Y14154D01*
X7013D01*
Y13747D01*
X6938D01*
Y13253D01*
X7013D01*
Y12885D01*
X6839D01*
Y12604D01*
X6813Y12587D01*
X6439Y12212D01*
X6400Y12219D01*
X6316Y12203D01*
X6272Y12173D01*
X6222Y12200D01*
Y12423D01*
X6255Y12445D01*
X6303Y12516D01*
X6319Y12600D01*
X6303Y12684D01*
X6255Y12755D01*
X6184Y12803D01*
X6100Y12819D01*
X6016Y12803D01*
X5945Y12755D01*
X5897Y12684D01*
X5881Y12600D01*
X5897Y12516D01*
X5945Y12445D01*
X5978Y12423D01*
Y10951D01*
X5139Y10112D01*
X5100Y10119D01*
X5016Y10103D01*
X4945Y10055D01*
X4897Y9984D01*
X4881Y9900D01*
X4897Y9816D01*
X4945Y9745D01*
X5016Y9697D01*
X5100Y9681D01*
X5184Y9697D01*
X5255Y9745D01*
X5303Y9816D01*
X5319Y9900D01*
X5312Y9939D01*
X6187Y10813D01*
X6213Y10853D01*
X6222Y10900D01*
Y11800D01*
X6272Y11827D01*
X6316Y11797D01*
X6400Y11781D01*
X6484Y11797D01*
X6555Y11845D01*
X6603Y11916D01*
X6619Y12000D01*
X6612Y12039D01*
X6793Y12220D01*
X6839Y12201D01*
Y12115D01*
X7314D01*
Y12885D01*
X7258D01*
Y13253D01*
X7373D01*
Y13747D01*
X7258D01*
Y14154D01*
X7432D01*
Y14846D01*
D02*
G37*
G36*
X16314Y12950D02*
X16038D01*
Y12624D01*
X16314D01*
Y12950D01*
D02*
G37*
G36*
X9800Y13219D02*
X9716Y13203D01*
X9645Y13155D01*
X9597Y13084D01*
X9581Y13000D01*
X9588Y12961D01*
X8839Y12212D01*
X8800Y12219D01*
X8716Y12203D01*
X8645Y12155D01*
X8625Y12125D01*
X8575D01*
X8555Y12155D01*
X8484Y12203D01*
X8400Y12219D01*
X8381Y12215D01*
X8161Y12436D01*
Y12885D01*
X7686D01*
Y12115D01*
X7801D01*
Y11846D01*
X7568D01*
Y11154D01*
X7892D01*
X7915Y11110D01*
X7897Y11084D01*
X7881Y11000D01*
X7897Y10916D01*
X7945Y10845D01*
X7957Y10837D01*
X7942Y10787D01*
X7885D01*
Y10550D01*
X8092D01*
X8092Y10774D01*
X8100Y10781D01*
X8118Y10784D01*
X8184Y10797D01*
X8255Y10845D01*
X8277Y10878D01*
X8500D01*
X8547Y10887D01*
X8587Y10913D01*
X8626Y10953D01*
X8633Y10952D01*
X8649Y10896D01*
X8313Y10561D01*
X8287Y10522D01*
X8278Y10477D01*
X8245Y10455D01*
X8197Y10384D01*
X8181Y10300D01*
X8197Y10216D01*
X8245Y10145D01*
X8316Y10097D01*
X8400Y10081D01*
X8484Y10097D01*
X8555Y10145D01*
X8575Y10175D01*
X8625D01*
X8645Y10145D01*
X8716Y10097D01*
X8800Y10081D01*
X8884Y10097D01*
X8955Y10145D01*
X9003Y10216D01*
X9019Y10300D01*
X9003Y10384D01*
X8955Y10455D01*
X8953Y10480D01*
X9161Y10688D01*
X9200Y10681D01*
X9284Y10697D01*
X9355Y10745D01*
X9403Y10816D01*
X9419Y10900D01*
X9403Y10984D01*
X9355Y11055D01*
X9284Y11103D01*
X9267Y11106D01*
X9252Y11154D01*
X9376Y11278D01*
X9654D01*
Y11147D01*
X9638D01*
Y10653D01*
X9654D01*
Y10146D01*
X9539D01*
Y9454D01*
X10132D01*
Y10146D01*
X9899D01*
Y10653D01*
X10073D01*
Y11147D01*
X9899D01*
Y11615D01*
X10014D01*
Y12385D01*
X9539D01*
Y11615D01*
X9654D01*
Y11522D01*
X9325D01*
X9278Y11513D01*
X9239Y11487D01*
X8967Y11215D01*
X8913Y11231D01*
X8903Y11284D01*
X8855Y11355D01*
X8784Y11403D01*
X8700Y11419D01*
X8616Y11403D01*
X8545Y11355D01*
X8497Y11284D01*
X8481Y11200D01*
X8488Y11161D01*
X8449Y11122D01*
X8277D01*
X8255Y11155D01*
X8184Y11203D01*
X8161Y11207D01*
Y11846D01*
X8046D01*
Y12115D01*
X8135D01*
X8192Y12058D01*
X8181Y12000D01*
X8197Y11916D01*
X8245Y11845D01*
X8316Y11797D01*
X8400Y11781D01*
X8484Y11797D01*
X8555Y11845D01*
X8575Y11875D01*
X8625D01*
X8645Y11845D01*
X8716Y11797D01*
X8800Y11781D01*
X8884Y11797D01*
X8955Y11845D01*
X9003Y11916D01*
X9019Y12000D01*
X9012Y12039D01*
X9761Y12788D01*
X9800Y12781D01*
X9884Y12797D01*
X9955Y12845D01*
X10003Y12916D01*
X10019Y13000D01*
X10003Y13084D01*
X9955Y13155D01*
X9884Y13203D01*
X9800Y13219D01*
D02*
G37*
G36*
X10861Y12385D02*
X10386D01*
Y11615D01*
X10812D01*
X11088Y11339D01*
X11081Y11300D01*
X11097Y11216D01*
X11145Y11145D01*
X11216Y11097D01*
X11300Y11081D01*
X11384Y11097D01*
X11455Y11145D01*
X11503Y11216D01*
X11519Y11300D01*
X11503Y11384D01*
X11455Y11455D01*
X11384Y11503D01*
X11300Y11519D01*
X11261Y11512D01*
X10861Y11912D01*
Y12385D01*
D02*
G37*
G36*
X2607Y11618D02*
X2522Y11606D01*
X2442Y11574D01*
X2374Y11521D01*
X2322Y11453D01*
X2289Y11374D01*
X2278Y11289D01*
X2289Y11204D01*
X2322Y11125D01*
X2374Y11057D01*
X2442Y11004D01*
X2522Y10971D01*
X2607Y10960D01*
X2692Y10971D01*
X2771Y11004D01*
X2839Y11057D01*
X2891Y11125D01*
X2924Y11204D01*
X2935Y11289D01*
X2924Y11374D01*
X2891Y11453D01*
X2839Y11521D01*
X2771Y11574D01*
X2692Y11606D01*
X2607Y11618D01*
D02*
G37*
G36*
X7086Y11450D02*
X6809D01*
Y11124D01*
X7086D01*
Y11450D01*
D02*
G37*
G36*
Y11876D02*
X6809D01*
Y11550D01*
X7086D01*
Y11876D01*
D02*
G37*
G36*
X7462Y11450D02*
X7186D01*
Y11124D01*
X7462D01*
Y11450D01*
D02*
G37*
%LPD*%
D12*
X2844Y15000D02*
D03*
X2156D02*
D03*
X4156D02*
D03*
X4844D02*
D03*
X10544Y10900D02*
D03*
X9856D02*
D03*
X7844Y13500D02*
D03*
X7156D02*
D03*
D21*
X6100Y10900D02*
Y12600D01*
X5100Y9900D02*
X6100Y10900D01*
X6500Y11000D02*
X6600D01*
X6400Y12000D02*
X6900Y12500D01*
X3800Y3300D02*
Y4100D01*
X9250Y8405D02*
Y8776D01*
X8926Y9100D02*
X9250Y8776D01*
X530Y2589D02*
X2859Y260D01*
X700Y2660D02*
X2930Y430D01*
X9100Y600D02*
X10700Y2200D01*
X3000Y600D02*
X9100D01*
X900Y2700D02*
X3000Y600D01*
X2136Y14494D02*
X2330Y14300D01*
X2136Y14494D02*
Y15000D01*
X4864Y14806D02*
Y15000D01*
Y14806D02*
X5270Y14400D01*
X8800Y12000D02*
X9800Y13000D01*
X6600Y11000D02*
X7077Y10523D01*
X13882Y4518D02*
Y5094D01*
X9777Y10900D02*
X9836D01*
X9777Y9859D02*
Y10900D01*
X13882Y4518D02*
X14200Y4200D01*
X10400Y6000D02*
X11599D01*
X16400Y5500D02*
Y7111D01*
X16500Y7211D01*
Y7300D01*
X13882Y6000D02*
X14700D01*
X14777Y6077D01*
X10623Y11977D02*
X11300Y11300D01*
X10623Y11977D02*
Y12000D01*
X10964Y8600D02*
X11500D01*
X10864Y8500D02*
X10964Y8600D01*
X10663Y5064D02*
X11599Y6000D01*
X10500Y5064D02*
X10663D01*
X15636Y12364D02*
X16055Y11945D01*
X15636Y12364D02*
Y13000D01*
X7077Y12500D02*
X7136Y12559D01*
Y13500D01*
Y14500D01*
X7923Y11559D02*
Y12500D01*
X7864Y11500D02*
X7923Y11559D01*
X7077Y10500D02*
Y10523D01*
X6900Y12500D02*
X7077D01*
X7923D02*
X8400Y12023D01*
Y12000D02*
Y12023D01*
X9777Y10900D02*
Y11400D01*
Y12000D01*
X700Y2660D02*
Y10000D01*
X530Y2589D02*
Y10070D01*
X12100Y7900D02*
X13700D01*
X12300Y8200D02*
X14000D01*
X12300Y7500D02*
X14000D01*
X8500Y11000D02*
X8700Y11200D01*
X8100Y11000D02*
X8500D01*
X8400Y10300D02*
Y10475D01*
X9325Y11400D01*
X9777D01*
X8800Y10500D02*
X9200Y10900D01*
X8800Y10300D02*
Y10500D01*
X530Y10070D02*
X1460Y11000D01*
X1900D01*
X900Y2700D02*
Y9690D01*
X700Y10000D02*
X1400Y10700D01*
X900Y9690D02*
X1620Y10410D01*
X2610D01*
X1400Y10700D02*
X2300D01*
X3900Y6100D02*
X4800D01*
X3200Y3300D02*
Y3900D01*
X11200Y1842D02*
Y2200D01*
X2859Y260D02*
X9618D01*
X11200Y1842D01*
X2930Y430D02*
X9330D01*
X10100Y1200D01*
X16900Y5500D02*
X17315Y5915D01*
Y7500D01*
D22*
X2607Y9911D02*
D03*
Y11289D02*
D03*
D23*
X14700Y2200D02*
D03*
X14200D02*
D03*
X13700D02*
D03*
X13200D02*
D03*
X12700D02*
D03*
X11700D02*
D03*
X12200D02*
D03*
X11200D02*
D03*
X10700D02*
D03*
Y2700D02*
D03*
X11200D02*
D03*
X11700D02*
D03*
X12200D02*
D03*
X12700D02*
D03*
X13200D02*
D03*
X13700D02*
D03*
X14200D02*
D03*
X14700D02*
D03*
X15200D02*
D03*
Y2200D02*
D03*
D24*
X22000Y9000D02*
D03*
Y10000D02*
D03*
Y11000D02*
D03*
X23000Y9000D02*
D03*
Y10000D02*
D03*
Y11000D02*
D03*
D25*
X6500Y11400D02*
D03*
Y11000D02*
D03*
X6400Y12000D02*
D03*
X3800Y3300D02*
D03*
X8926Y9100D02*
D03*
X5270Y14400D02*
D03*
X2330Y14300D02*
D03*
X5700Y12300D02*
D03*
X8800Y12000D02*
D03*
X5100Y9900D02*
D03*
X8100Y7700D02*
D03*
X9800Y13000D02*
D03*
X8800Y13400D02*
D03*
X2028Y3268D02*
D03*
X4736Y1936D02*
D03*
X4170Y9970D02*
D03*
X4500Y6600D02*
D03*
X16900Y5500D02*
D03*
X14200Y4200D02*
D03*
X6500Y9320D02*
D03*
X3900Y6100D02*
D03*
X10400Y6000D02*
D03*
X15400Y10200D02*
D03*
X18600Y10185D02*
D03*
X16400Y12100D02*
D03*
X17600Y8900D02*
D03*
X16400Y5500D02*
D03*
X16500Y7300D02*
D03*
X14777Y6077D02*
D03*
X11300Y11300D02*
D03*
X9220Y11880D02*
D03*
X11500Y8600D02*
D03*
X9217Y9517D02*
D03*
X16055Y11945D02*
D03*
X6100Y12600D02*
D03*
X8400Y12000D02*
D03*
X2100Y2000D02*
D03*
X14000Y8200D02*
D03*
X13700Y7900D02*
D03*
X14000Y7500D02*
D03*
X12100Y7900D02*
D03*
X12300Y8200D02*
D03*
Y7500D02*
D03*
X9200Y10900D02*
D03*
X8700Y11200D02*
D03*
X8100Y11000D02*
D03*
X6500Y10116D02*
D03*
X8400Y10300D02*
D03*
X8800D02*
D03*
X1900Y11000D02*
D03*
X2610Y10410D02*
D03*
X2300Y10700D02*
D03*
X4800Y6100D02*
D03*
X3800Y4100D02*
D03*
X2900Y4200D02*
D03*
X3200Y3900D02*
D03*
Y3300D02*
D03*
X10100Y1200D02*
D03*
X17315Y7500D02*
D03*
D26*
X7900Y2300D02*
D03*
X17900D02*
D03*
D27*
X10136Y8500D02*
D03*
X10864D02*
D03*
X7864Y14500D02*
D03*
X7136D02*
D03*
X10564Y9800D02*
D03*
X9836D02*
D03*
X7864Y11500D02*
D03*
X7136D02*
D03*
X8522Y8405D02*
D03*
X9250D02*
D03*
X16364Y13000D02*
D03*
X15636D02*
D03*
D28*
X7835Y10500D02*
D03*
X7165D02*
D03*
D29*
X13882Y6000D02*
D03*
Y5094D02*
D03*
Y6906D02*
D03*
D30*
X11599Y6000D02*
D03*
D31*
X10623Y12000D02*
D03*
X9777D02*
D03*
X7923Y12500D02*
D03*
X7077D02*
D03*
D32*
X10500Y4336D02*
D03*
Y5064D02*
D03*
M02*
