G04 Layer_Color=65535*
%FSLAX24Y24*%
%MOIN*%
G70*
G01*
G75*
%ADD19C,0.0100*%
%ADD35C,0.0098*%
%ADD36C,0.0236*%
%ADD37C,0.0079*%
%ADD38C,0.0197*%
%ADD39C,0.0039*%
%ADD40C,0.0010*%
%ADD41C,0.0070*%
%ADD42C,0.0060*%
%ADD43C,0.0300*%
D19*
X58353Y12022D02*
G03*
X58353Y12022I-56J0D01*
G01*
X49853D02*
G03*
X49853Y12022I-56J0D01*
G01*
X41353D02*
G03*
X41353Y12022I-56J0D01*
G01*
X32853D02*
G03*
X32853Y12022I-56J0D01*
G01*
X24353D02*
G03*
X24353Y12022I-56J0D01*
G01*
X15853D02*
G03*
X15853Y12022I-56J0D01*
G01*
X21600Y22500D02*
G03*
X21600Y22500I-400J0D01*
G01*
X15200Y16200D02*
G03*
X15200Y16200I-400J0D01*
G01*
X23700D02*
G03*
X23700Y16200I-400J0D01*
G01*
X30100Y22500D02*
G03*
X30100Y22500I-400J0D01*
G01*
X38600D02*
G03*
X38600Y22500I-400J0D01*
G01*
X32200Y16200D02*
G03*
X32200Y16200I-400J0D01*
G01*
X40700D02*
G03*
X40700Y16200I-400J0D01*
G01*
X47100Y22500D02*
G03*
X47100Y22500I-400J0D01*
G01*
X64100D02*
G03*
X64100Y22500I-400J0D01*
G01*
X57700Y16200D02*
G03*
X57700Y16200I-400J0D01*
G01*
X49200D02*
G03*
X49200Y16200I-400J0D01*
G01*
X55600Y22500D02*
G03*
X55600Y22500I-400J0D01*
G01*
X41000Y6000D02*
X43000D01*
X41000Y3000D02*
Y6000D01*
Y3000D02*
X43000D01*
Y6000D01*
X17122Y2063D02*
X29878D01*
Y6787D01*
X17122D02*
X29878D01*
X17122Y2063D02*
Y6787D01*
X39610Y4685D02*
Y5315D01*
X38390Y4685D02*
Y5315D01*
X800Y5400D02*
Y8700D01*
X7000D01*
X8500Y7200D01*
Y6800D02*
Y7200D01*
X7100Y5400D02*
X8500Y6800D01*
X800Y5400D02*
X7100D01*
X8200Y1700D02*
Y5000D01*
X2000Y1700D02*
X8200D01*
X500Y3200D02*
X2000Y1700D01*
X500Y3200D02*
Y3600D01*
X1900Y5000D01*
X8200D01*
X5951Y10604D02*
X11207D01*
X5951Y25004D02*
X11207D01*
Y10604D02*
Y25004D01*
X5951Y10604D02*
Y25004D01*
X14000Y26000D02*
X22000D01*
X14000Y13000D02*
Y26000D01*
X22000Y13000D02*
Y26000D01*
X14000Y13000D02*
X22000D01*
X22500D02*
X30500D01*
Y26000D01*
X22500Y13000D02*
Y26000D01*
X30500D01*
X31000D02*
X39000D01*
X31000Y13000D02*
Y26000D01*
X39000Y13000D02*
Y26000D01*
X31000Y13000D02*
X39000D01*
X39500D02*
X47500D01*
Y26000D01*
X39500Y13000D02*
Y26000D01*
X47500D01*
X56500D02*
X64500D01*
X56500Y13000D02*
Y26000D01*
X64500Y13000D02*
Y26000D01*
X56500Y13000D02*
X64500D01*
X48000D02*
X56000D01*
Y26000D01*
X48000Y13000D02*
Y26000D01*
X56000D01*
X57500Y4200D02*
X57400Y4300D01*
X57200D01*
X57100Y4200D01*
Y4100D01*
X57200Y4000D01*
X57400D01*
X57500Y3900D01*
Y3800D01*
X57400Y3700D01*
X57200D01*
X57100Y3800D01*
X57700Y3500D02*
Y4100D01*
X58000D01*
X58100Y4000D01*
Y3800D01*
X58000Y3700D01*
X57700D01*
X58400D02*
X58600D01*
X58699Y3800D01*
Y4000D01*
X58600Y4100D01*
X58400D01*
X58300Y4000D01*
Y3800D01*
X58400Y3700D01*
X58899D02*
Y4100D01*
X59199D01*
X59299Y4000D01*
Y3700D01*
X59499D02*
X59799D01*
X59899Y3800D01*
X59799Y3900D01*
X59599D01*
X59499Y4000D01*
X59599Y4100D01*
X59899D01*
X60199Y3700D02*
X60399D01*
X60499Y3800D01*
Y4000D01*
X60399Y4100D01*
X60199D01*
X60099Y4000D01*
Y3800D01*
X60199Y3700D01*
X60699Y4100D02*
Y3700D01*
Y3900D01*
X60799Y4000D01*
X60899Y4100D01*
X60999D01*
X61599Y3700D02*
X61399D01*
X61299Y3800D01*
Y4000D01*
X61399Y4100D01*
X61599D01*
X61699Y4000D01*
Y3900D01*
X61299D01*
X62298Y4300D02*
Y3700D01*
X61998D01*
X61898Y3800D01*
Y4000D01*
X61998Y4100D01*
X62298D01*
X63098Y4300D02*
Y3700D01*
X63398D01*
X63498Y3800D01*
Y3900D01*
X63398Y4000D01*
X63098D01*
X63398D01*
X63498Y4100D01*
Y4200D01*
X63398Y4300D01*
X63098D01*
X63698Y4100D02*
Y3800D01*
X63798Y3700D01*
X64098D01*
Y3600D01*
X63998Y3500D01*
X63898D01*
X64098Y3700D02*
Y4100D01*
X64298D02*
X64398D01*
Y4000D01*
X64298D01*
Y4100D01*
Y3800D02*
X64398D01*
Y3700D01*
X64298D01*
Y3800D01*
D35*
X45650Y776D02*
G03*
X45650Y776I-49J0D01*
G01*
D36*
X46299Y1681D02*
G03*
X46299Y1681I-118J0D01*
G01*
D37*
X59205Y11800D02*
G03*
X59455Y11800I125J0D01*
G01*
X50705D02*
G03*
X50955Y11800I125J0D01*
G01*
X42205D02*
G03*
X42455Y11800I125J0D01*
G01*
X33705D02*
G03*
X33955Y11800I125J0D01*
G01*
X25205D02*
G03*
X25455Y11800I125J0D01*
G01*
X16705D02*
G03*
X16955Y11800I125J0D01*
G01*
X40352Y4980D02*
Y5020D01*
X40648Y4980D02*
Y5020D01*
X39500Y3500D02*
X40500D01*
Y500D02*
Y3500D01*
X39500Y500D02*
X40500D01*
X39500D02*
Y3500D01*
X38300D02*
X39300D01*
Y500D02*
Y3500D01*
X38300Y500D02*
X39300D01*
X38300D02*
Y3500D01*
X45787Y1287D02*
X49213D01*
X45787Y4713D02*
X49213D01*
X45787Y1287D02*
Y4713D01*
X49213Y1287D02*
Y4713D01*
X58724Y9800D02*
Y11800D01*
Y9800D02*
X59937D01*
Y11800D01*
X59455D02*
X59937D01*
X58724D02*
X59205D01*
X50224Y9800D02*
Y11800D01*
Y9800D02*
X51437D01*
Y11800D01*
X50955D02*
X51437D01*
X50224D02*
X50705D01*
X41724Y9800D02*
Y11800D01*
Y9800D02*
X42937D01*
Y11800D01*
X42455D02*
X42937D01*
X41724D02*
X42205D01*
X33224Y9800D02*
Y11800D01*
Y9800D02*
X34437D01*
Y11800D01*
X33955D02*
X34437D01*
X33224D02*
X33705D01*
X24724Y9800D02*
Y11800D01*
Y9800D02*
X25937D01*
Y11800D01*
X25455D02*
X25937D01*
X24724D02*
X25205D01*
X16224Y9800D02*
Y11800D01*
Y9800D02*
X17437D01*
Y11800D01*
X16955D02*
X17437D01*
X16224D02*
X16705D01*
X52500Y2000D02*
X54500D01*
Y3000D01*
X52500D02*
X54500D01*
X52500Y2000D02*
Y3000D01*
Y500D02*
X54500D01*
Y1500D01*
X52500D02*
X54500D01*
X52500Y500D02*
Y1500D01*
X14552Y11630D02*
Y11670D01*
X14848Y11630D02*
Y11670D01*
X23052Y11630D02*
Y11670D01*
X23348Y11630D02*
Y11670D01*
X31552Y11630D02*
Y11670D01*
X31848Y11630D02*
Y11670D01*
X40052Y11630D02*
Y11670D01*
X40348Y11630D02*
Y11670D01*
X48552Y11630D02*
Y11670D01*
X48848Y11630D02*
Y11670D01*
X57052Y11630D02*
Y11670D01*
X57348Y11630D02*
Y11670D01*
X19348Y11630D02*
Y11670D01*
X19052Y11630D02*
Y11670D01*
X27848Y11630D02*
Y11670D01*
X27552Y11630D02*
Y11670D01*
X36348Y11630D02*
Y11670D01*
X36052Y11630D02*
Y11670D01*
X44848Y11630D02*
Y11670D01*
X44552Y11630D02*
Y11670D01*
X53348Y11630D02*
Y11670D01*
X53052Y11630D02*
Y11670D01*
X61848Y11630D02*
Y11670D01*
X61552Y11630D02*
Y11670D01*
X14529Y10219D02*
Y10258D01*
X14824Y10219D02*
Y10258D01*
X23029Y10130D02*
Y10170D01*
X23324Y10130D02*
Y10170D01*
X31529Y10130D02*
Y10170D01*
X31824Y10130D02*
Y10170D01*
X40029Y10130D02*
Y10170D01*
X40324Y10130D02*
Y10170D01*
X48529Y10130D02*
Y10170D01*
X48824Y10130D02*
Y10170D01*
X57029Y10130D02*
Y10170D01*
X57324Y10130D02*
Y10170D01*
X19052Y9630D02*
Y9670D01*
X19348Y9630D02*
Y9670D01*
X27552Y9630D02*
Y9670D01*
X27848Y9630D02*
Y9670D01*
X36052Y9630D02*
Y9670D01*
X36348Y9630D02*
Y9670D01*
X44552Y9630D02*
Y9670D01*
X44848Y9630D02*
Y9670D01*
X53052Y9630D02*
Y9670D01*
X53348Y9630D02*
Y9670D01*
X61552Y9630D02*
Y9670D01*
X61848Y9630D02*
Y9670D01*
X55746Y5948D02*
X55785D01*
X55746Y5652D02*
X55785D01*
X55746Y4848D02*
X55785D01*
X55746Y4552D02*
X55785D01*
D38*
X38291Y4449D02*
G03*
X38291Y4449I-0J0D01*
G01*
D39*
X59538Y5182D02*
G03*
X59538Y5182I-51J0D01*
G01*
X59494Y6182D02*
G03*
X59494Y6182I-51J0D01*
G01*
X59487Y4406D02*
Y5036D01*
X59330Y5194D02*
X59487Y5036D01*
X57913Y5194D02*
X59330D01*
X57913Y4406D02*
X59487D01*
X57913D02*
Y5194D01*
X59443Y5406D02*
Y6036D01*
X59285Y6194D02*
X59443Y6036D01*
X57868Y6194D02*
X59285D01*
X57868Y5406D02*
X59443D01*
X57868D02*
Y6194D01*
D40*
X58590Y3060D02*
X63960D01*
X58530Y3050D02*
X63960D01*
X58500Y3040D02*
X63960D01*
X58470Y3030D02*
X63960D01*
X58440Y3020D02*
X63960D01*
X58420Y3010D02*
X63960D01*
X58400Y3000D02*
X63960D01*
X58380Y2990D02*
X63960D01*
X58360Y2980D02*
X63960D01*
X58340Y2970D02*
X63960D01*
X58330Y2960D02*
X63960D01*
X58310Y2950D02*
X63960D01*
X58300Y2940D02*
X63960D01*
X58290Y2930D02*
X63960D01*
X58280Y2920D02*
X63960D01*
X58260Y2910D02*
X63960D01*
X58250Y2900D02*
X63960D01*
X58240Y2890D02*
X63960D01*
X58230Y2880D02*
X63960D01*
X58220Y2870D02*
X63960D01*
X58210Y2860D02*
X63960D01*
X58210Y2850D02*
X63960D01*
X58200Y2840D02*
X63960D01*
X58190Y2830D02*
X63960D01*
X58180Y2820D02*
X63960D01*
X58170Y2810D02*
X63960D01*
X58170Y2800D02*
X63960D01*
X58160Y2790D02*
X63960D01*
X58150Y2780D02*
X63960D01*
X58140Y2770D02*
X63960D01*
X58140Y2760D02*
X63960D01*
X58130Y2750D02*
X63960D01*
X58130Y2740D02*
X63960D01*
X58120Y2730D02*
X63960D01*
X58110Y2720D02*
X63960D01*
X58110Y2710D02*
X63960D01*
X58110Y2700D02*
X63960D01*
X58100Y2690D02*
X63960D01*
X58100Y2680D02*
X63960D01*
X58090Y2670D02*
X63960D01*
X58090Y2660D02*
X63960D01*
X58080Y2650D02*
X63960D01*
X58080Y2640D02*
X63960D01*
X58080Y2630D02*
X63960D01*
X58070Y2620D02*
X63960D01*
X58070Y2610D02*
X63960D01*
X58070Y2600D02*
X63960D01*
X58070Y2590D02*
X63960D01*
X58060Y2580D02*
X63960D01*
X58060Y2570D02*
X59300D01*
X59510D02*
X59890D01*
X60200D02*
X63960D01*
X58060Y2560D02*
X59240D01*
X59510D02*
X59880D01*
X60190D02*
X60340D01*
X60650D02*
X63960D01*
X58060Y2550D02*
X59210D01*
X59510D02*
X59880D01*
X60190D02*
X60340D01*
X60640D02*
X63960D01*
X58060Y2540D02*
X59180D01*
X59510D02*
X59880D01*
X60190D02*
X60330D01*
X60640D02*
X63960D01*
X58060Y2530D02*
X59160D01*
X59510D02*
X59880D01*
X60190D02*
X60330D01*
X60640D02*
X63960D01*
X58060Y2520D02*
X59140D01*
X59510D02*
X59870D01*
X60180D02*
X60330D01*
X60640D02*
X63960D01*
X58060Y2510D02*
X59120D01*
X59510D02*
X59870D01*
X60180D02*
X60330D01*
X60630D02*
X63960D01*
X58060Y2500D02*
X59110D01*
X59520D02*
X59870D01*
X60180D02*
X60320D01*
X60630D02*
X63960D01*
X58060Y2490D02*
X59090D01*
X59520D02*
X59870D01*
X60180D02*
X60320D01*
X60630D02*
X63960D01*
X58060Y2480D02*
X59080D01*
X59520D02*
X59860D01*
X60170D02*
X60320D01*
X60630D02*
X63960D01*
X58060Y2470D02*
X59070D01*
X59520D02*
X59860D01*
X60170D02*
X60320D01*
X60620D02*
X63960D01*
X58060Y2460D02*
X59060D01*
X59520D02*
X59860D01*
X60170D02*
X60310D01*
X60620D02*
X63960D01*
X58060Y2450D02*
X59050D01*
X59520D02*
X59860D01*
X60170D02*
X60310D01*
X60620D02*
X63960D01*
X58060Y2440D02*
X59040D01*
X59520D02*
X59850D01*
X60160D02*
X60310D01*
X60620D02*
X63960D01*
X58060Y2430D02*
X59030D01*
X59520D02*
X59850D01*
X60160D02*
X60310D01*
X60610D02*
X63960D01*
X58060Y2420D02*
X59020D01*
X59520D02*
X59850D01*
X60160D02*
X60300D01*
X60610D02*
X63960D01*
X58060Y2410D02*
X59010D01*
X59520D02*
X59850D01*
X60160D02*
X60300D01*
X60610D02*
X63960D01*
X58060Y2400D02*
X59000D01*
X59520D02*
X59840D01*
X60150D02*
X60300D01*
X60600D02*
X63960D01*
X58060Y2390D02*
X59000D01*
X59520D02*
X59840D01*
X60150D02*
X60300D01*
X60600D02*
X63960D01*
X58060Y2380D02*
X58990D01*
X59520D02*
X59840D01*
X60150D02*
X60290D01*
X60600D02*
X63960D01*
X58060Y2370D02*
X58980D01*
X59520D02*
X59840D01*
X60150D02*
X60290D01*
X60600D02*
X63960D01*
X58060Y2360D02*
X58980D01*
X59520D02*
X59840D01*
X60140D02*
X60290D01*
X60590D02*
X63960D01*
X58060Y2350D02*
X58970D01*
X59520D02*
X59830D01*
X60140D02*
X60290D01*
X60590D02*
X63960D01*
X58060Y2340D02*
X58970D01*
X59520D02*
X59830D01*
X60140D02*
X60280D01*
X60590D02*
X63960D01*
X58060Y2330D02*
X58960D01*
X59520D02*
X59830D01*
X60140D02*
X60280D01*
X60590D02*
X62710D01*
X62820D02*
X63190D01*
X63290D02*
X63960D01*
X58060Y2320D02*
X58960D01*
X59520D02*
X59830D01*
X60130D02*
X60280D01*
X60580D02*
X62650D01*
X62860D02*
X63130D01*
X63340D02*
X63960D01*
X58060Y2310D02*
X58950D01*
X59520D02*
X59820D01*
X60130D02*
X60280D01*
X60710D02*
X62620D01*
X62890D02*
X63100D01*
X63360D02*
X63960D01*
X58060Y2300D02*
X58950D01*
X59230D02*
X59240D01*
X59520D02*
X59820D01*
X60130D02*
X60270D01*
X60710D02*
X60820D01*
X61130D02*
X61260D01*
X61570D02*
X61740D01*
X62050D02*
X62200D01*
X62510D02*
X62600D01*
X62900D02*
X63080D01*
X63380D02*
X63960D01*
X58060Y2290D02*
X58940D01*
X59230D02*
X59240D01*
X59520D02*
X59820D01*
X60130D02*
X60270D01*
X60700D02*
X60820D01*
X61120D02*
X61260D01*
X61570D02*
X61740D01*
X62050D02*
X62200D01*
X62510D02*
X62580D01*
X62920D02*
X63060D01*
X63400D02*
X63960D01*
X58060Y2280D02*
X58940D01*
X59220D02*
X59240D01*
X59520D02*
X59820D01*
X60120D02*
X60270D01*
X60700D02*
X60810D01*
X61120D02*
X61260D01*
X61570D02*
X61740D01*
X62050D02*
X62200D01*
X62510D02*
X62570D01*
X62930D02*
X63040D01*
X63410D02*
X63960D01*
X58060Y2270D02*
X58930D01*
X59220D02*
X59240D01*
X59520D02*
X59810D01*
X60120D02*
X60270D01*
X60700D02*
X60810D01*
X61120D02*
X61260D01*
X61560D02*
X61740D01*
X62040D02*
X62190D01*
X62500D02*
X62550D01*
X62930D02*
X63020D01*
X63420D02*
X63960D01*
X58060Y2260D02*
X58930D01*
X59210D02*
X59240D01*
X59520D02*
X59810D01*
X60120D02*
X60260D01*
X60700D02*
X60810D01*
X61120D02*
X61250D01*
X61560D02*
X61730D01*
X62040D02*
X62190D01*
X62500D02*
X62540D01*
X62940D02*
X63010D01*
X63420D02*
X63960D01*
X58060Y2250D02*
X58920D01*
X59210D02*
X59240D01*
X59520D02*
X59810D01*
X60110D02*
X60260D01*
X60690D02*
X60810D01*
X61110D02*
X61250D01*
X61560D02*
X61730D01*
X62040D02*
X62190D01*
X62500D02*
X62530D01*
X62950D02*
X63000D01*
X63430D02*
X63960D01*
X58060Y2240D02*
X58910D01*
X59200D02*
X59240D01*
X59530D02*
X59810D01*
X60110D02*
X60260D01*
X60690D02*
X60800D01*
X61110D02*
X61250D01*
X61560D02*
X61730D01*
X62040D02*
X62190D01*
X62500D02*
X62520D01*
X62950D02*
X62990D01*
X63430D02*
X63960D01*
X58060Y2230D02*
X58910D01*
X59200D02*
X59240D01*
X59530D02*
X59800D01*
X60110D02*
X60260D01*
X60690D02*
X60800D01*
X61110D02*
X61250D01*
X61550D02*
X61730D01*
X62030D02*
X62180D01*
X62490D02*
X62510D01*
X62950D02*
X62980D01*
X63430D02*
X63960D01*
X58060Y2220D02*
X58900D01*
X59190D02*
X59240D01*
X59530D02*
X59800D01*
X60110D02*
X60250D01*
X60690D02*
X60800D01*
X61110D02*
X61240D01*
X61550D02*
X61720D01*
X62030D02*
X62180D01*
X62490D02*
X62500D01*
X62960D02*
X62970D01*
X63430D02*
X63960D01*
X58060Y2210D02*
X58900D01*
X59190D02*
X59240D01*
X59530D02*
X59800D01*
X60100D02*
X60250D01*
X60680D02*
X60800D01*
X61100D02*
X61240D01*
X61550D02*
X61720D01*
X62030D02*
X62180D01*
X63440D02*
X63960D01*
X58060Y2200D02*
X58890D01*
X59180D02*
X59240D01*
X59530D02*
X59800D01*
X60100D02*
X60250D01*
X60680D02*
X60790D01*
X61100D02*
X61240D01*
X61550D02*
X61720D01*
X62030D02*
X62180D01*
X63440D02*
X63960D01*
X58060Y2190D02*
X58890D01*
X59180D02*
X59240D01*
X59530D02*
X59790D01*
X60100D02*
X60250D01*
X60680D02*
X60790D01*
X61100D02*
X61240D01*
X61540D02*
X61720D01*
X62020D02*
X62170D01*
X63440D02*
X63960D01*
X58060Y2180D02*
X58880D01*
X59180D02*
X59240D01*
X59530D02*
X59790D01*
X60100D02*
X60240D01*
X60680D02*
X60790D01*
X61100D02*
X61230D01*
X61540D02*
X61710D01*
X62020D02*
X62170D01*
X63440D02*
X63960D01*
X58060Y2170D02*
X58880D01*
X59170D02*
X59240D01*
X59530D02*
X59790D01*
X60090D02*
X60240D01*
X60670D02*
X60790D01*
X61090D02*
X61230D01*
X61540D02*
X61710D01*
X62020D02*
X62170D01*
X63440D02*
X63960D01*
X58060Y2160D02*
X58870D01*
X59170D02*
X59240D01*
X59530D02*
X59790D01*
X60090D02*
X60240D01*
X60670D02*
X60780D01*
X61090D02*
X61230D01*
X61540D02*
X61710D01*
X62020D02*
X62170D01*
X63440D02*
X63960D01*
X58060Y2150D02*
X58870D01*
X59160D02*
X59240D01*
X59530D02*
X59780D01*
X60090D02*
X60240D01*
X60670D02*
X60780D01*
X61090D02*
X61230D01*
X61530D02*
X61710D01*
X62010D02*
X62160D01*
X63430D02*
X63960D01*
X58060Y2140D02*
X58860D01*
X59160D02*
X59240D01*
X59530D02*
X59780D01*
X60090D02*
X60230D01*
X60670D02*
X60780D01*
X61090D02*
X61220D01*
X61530D02*
X61700D01*
X62010D02*
X62160D01*
X63430D02*
X63960D01*
X58060Y2130D02*
X58860D01*
X59150D02*
X59230D01*
X59530D02*
X59780D01*
X60080D02*
X60230D01*
X60660D02*
X60780D01*
X61080D02*
X61220D01*
X61530D02*
X61700D01*
X62010D02*
X62160D01*
X63430D02*
X63960D01*
X58060Y2120D02*
X58850D01*
X59150D02*
X59230D01*
X59530D02*
X59780D01*
X60080D02*
X60230D01*
X60530D02*
X60770D01*
X61080D02*
X61220D01*
X61530D02*
X61700D01*
X62010D02*
X62160D01*
X62510D02*
X62600D01*
X62990D02*
X63080D01*
X63430D02*
X63960D01*
X58060Y2110D02*
X58840D01*
X59140D02*
X59230D01*
X59530D02*
X59770D01*
X60080D02*
X60230D01*
X60530D02*
X60770D01*
X61080D02*
X61220D01*
X61520D02*
X61700D01*
X62000D02*
X62150D01*
X62490D02*
X62610D01*
X62970D02*
X63090D01*
X63430D02*
X63960D01*
X58060Y2100D02*
X58840D01*
X59140D02*
X59230D01*
X59530D02*
X59770D01*
X60080D02*
X60220D01*
X60530D02*
X60770D01*
X61080D02*
X61210D01*
X61520D02*
X61690D01*
X62000D02*
X62150D01*
X62480D02*
X62620D01*
X62960D02*
X63100D01*
X63420D02*
X63960D01*
X58060Y2090D02*
X58830D01*
X59130D02*
X59230D01*
X59530D02*
X59770D01*
X60070D02*
X60220D01*
X60530D02*
X60770D01*
X61070D02*
X61210D01*
X61520D02*
X61690D01*
X62000D02*
X62150D01*
X62470D02*
X62620D01*
X62950D02*
X63100D01*
X63420D02*
X63960D01*
X58060Y2080D02*
X58830D01*
X59130D02*
X59230D01*
X59530D02*
X59770D01*
X60070D02*
X60220D01*
X60520D02*
X60760D01*
X61070D02*
X61210D01*
X61520D02*
X61690D01*
X62000D02*
X62150D01*
X62460D02*
X62620D01*
X62940D02*
X63100D01*
X63420D02*
X63960D01*
X58060Y2070D02*
X58820D01*
X59130D02*
X59230D01*
X59530D02*
X59760D01*
X60070D02*
X60220D01*
X60520D02*
X60760D01*
X61070D02*
X61210D01*
X61510D02*
X61690D01*
X61990D02*
X62140D01*
X62460D02*
X62620D01*
X62940D02*
X63110D01*
X63420D02*
X63960D01*
X58060Y2060D02*
X58820D01*
X59120D02*
X59230D01*
X59530D02*
X59760D01*
X60070D02*
X60210D01*
X60520D02*
X60760D01*
X61070D02*
X61200D01*
X61510D02*
X61680D01*
X61990D02*
X62140D01*
X62450D02*
X62620D01*
X62930D02*
X63100D01*
X63410D02*
X63960D01*
X58060Y2050D02*
X58810D01*
X59120D02*
X59230D01*
X59530D02*
X59760D01*
X60060D02*
X60210D01*
X60520D02*
X60760D01*
X61060D02*
X61200D01*
X61510D02*
X61680D01*
X61990D02*
X62140D01*
X62450D02*
X62620D01*
X62930D02*
X63100D01*
X63410D02*
X63960D01*
X58060Y2040D02*
X58810D01*
X59110D02*
X59230D01*
X59530D02*
X59760D01*
X60060D02*
X60210D01*
X60510D02*
X60750D01*
X61060D02*
X61200D01*
X61510D02*
X61680D01*
X61990D02*
X62140D01*
X62440D02*
X62620D01*
X62930D02*
X63100D01*
X63410D02*
X63960D01*
X58060Y2030D02*
X58800D01*
X59110D02*
X59230D01*
X59530D02*
X59750D01*
X60060D02*
X60210D01*
X60510D02*
X60750D01*
X61060D02*
X61200D01*
X61500D02*
X61680D01*
X61980D02*
X62130D01*
X62440D02*
X62620D01*
X62920D02*
X63100D01*
X63410D02*
X63960D01*
X58060Y2020D02*
X58800D01*
X59100D02*
X59230D01*
X59530D02*
X59750D01*
X60060D02*
X60200D01*
X60510D02*
X60750D01*
X61060D02*
X61190D01*
X61500D02*
X61670D01*
X61980D02*
X62130D01*
X62440D02*
X62610D01*
X62920D02*
X63100D01*
X63400D02*
X63960D01*
X58060Y2010D02*
X58790D01*
X59100D02*
X59230D01*
X59530D02*
X59750D01*
X60050D02*
X60200D01*
X60510D02*
X60750D01*
X61050D02*
X61190D01*
X61500D02*
X61670D01*
X61980D02*
X62130D01*
X62440D02*
X62610D01*
X62920D02*
X63090D01*
X63400D02*
X63960D01*
X58060Y2000D02*
X58790D01*
X59090D02*
X59230D01*
X59530D02*
X59750D01*
X60050D02*
X60200D01*
X60500D02*
X60740D01*
X61050D02*
X61190D01*
X61500D02*
X61670D01*
X61980D02*
X62130D01*
X62430D02*
X62610D01*
X62910D02*
X63090D01*
X63400D02*
X63960D01*
X58060Y1990D02*
X58780D01*
X59090D02*
X59230D01*
X59530D02*
X59740D01*
X60050D02*
X60190D01*
X60500D02*
X60740D01*
X61050D02*
X61190D01*
X61490D02*
X61670D01*
X61970D02*
X62120D01*
X62430D02*
X62610D01*
X62910D02*
X63090D01*
X63400D02*
X63960D01*
X58060Y1980D02*
X58780D01*
X59080D02*
X59230D01*
X59530D02*
X59740D01*
X60050D02*
X60190D01*
X60500D02*
X60740D01*
X61050D02*
X61180D01*
X61490D02*
X61660D01*
X61970D02*
X62120D01*
X62430D02*
X62600D01*
X62910D02*
X63090D01*
X63390D02*
X63960D01*
X58060Y1970D02*
X58770D01*
X59080D02*
X59230D01*
X59540D02*
X59740D01*
X60040D02*
X60190D01*
X60500D02*
X60740D01*
X61040D02*
X61180D01*
X61490D02*
X61660D01*
X61970D02*
X62120D01*
X62430D02*
X62600D01*
X62910D02*
X63080D01*
X63390D02*
X63960D01*
X58060Y1960D02*
X58760D01*
X59070D02*
X59230D01*
X59540D02*
X59740D01*
X60040D02*
X60190D01*
X60490D02*
X60730D01*
X61040D02*
X61180D01*
X61490D02*
X61660D01*
X61970D02*
X62120D01*
X62420D02*
X62600D01*
X62900D02*
X63080D01*
X63390D02*
X63960D01*
X58060Y1950D02*
X58760D01*
X59070D02*
X59220D01*
X59540D02*
X59730D01*
X60040D02*
X60180D01*
X60490D02*
X60730D01*
X61040D02*
X61180D01*
X61480D02*
X61660D01*
X61960D02*
X62110D01*
X62420D02*
X62600D01*
X62900D02*
X63080D01*
X63390D02*
X63960D01*
X58060Y1940D02*
X58750D01*
X59070D02*
X59220D01*
X59540D02*
X59730D01*
X60040D02*
X60180D01*
X60490D02*
X60730D01*
X61040D02*
X61170D01*
X61480D02*
X61650D01*
X61960D02*
X62110D01*
X62420D02*
X62590D01*
X62900D02*
X63080D01*
X63380D02*
X63960D01*
X58060Y1930D02*
X58750D01*
X59060D02*
X59220D01*
X59540D02*
X59730D01*
X60030D02*
X60180D01*
X60490D02*
X60730D01*
X61030D02*
X61170D01*
X61480D02*
X61650D01*
X61960D02*
X62110D01*
X62420D02*
X62590D01*
X62900D02*
X63070D01*
X63380D02*
X63960D01*
X58060Y1920D02*
X58740D01*
X59060D02*
X59220D01*
X59540D02*
X59730D01*
X60030D02*
X60180D01*
X60480D02*
X60720D01*
X61030D02*
X61170D01*
X61480D02*
X61650D01*
X61960D02*
X62110D01*
X62410D02*
X62590D01*
X62890D02*
X63070D01*
X63380D02*
X63960D01*
X58060Y1910D02*
X58740D01*
X59050D02*
X59220D01*
X59540D02*
X59720D01*
X60030D02*
X60170D01*
X60480D02*
X60720D01*
X61030D02*
X61170D01*
X61470D02*
X61650D01*
X61950D02*
X62100D01*
X62410D02*
X62590D01*
X62890D02*
X63070D01*
X63380D02*
X63960D01*
X58060Y1900D02*
X58730D01*
X59050D02*
X59220D01*
X59540D02*
X59720D01*
X60030D02*
X60170D01*
X60480D02*
X60720D01*
X61030D02*
X61160D01*
X61470D02*
X61640D01*
X61950D02*
X62100D01*
X62410D02*
X62580D01*
X62890D02*
X63070D01*
X63370D02*
X63960D01*
X58060Y1890D02*
X58730D01*
X59040D02*
X59220D01*
X59540D02*
X59720D01*
X60020D02*
X60170D01*
X60480D02*
X60720D01*
X61020D02*
X61160D01*
X61470D02*
X61640D01*
X61950D02*
X62100D01*
X62410D02*
X62580D01*
X62890D02*
X63060D01*
X63370D02*
X63960D01*
X58060Y1880D02*
X58720D01*
X59540D02*
X59720D01*
X60020D02*
X60170D01*
X60470D02*
X60710D01*
X61020D02*
X61160D01*
X61470D02*
X61640D01*
X61950D02*
X62100D01*
X62400D02*
X62580D01*
X62880D02*
X63060D01*
X63370D02*
X63960D01*
X58060Y1870D02*
X58720D01*
X59540D02*
X59710D01*
X60020D02*
X60160D01*
X60470D02*
X60710D01*
X61020D02*
X61160D01*
X61460D02*
X61640D01*
X61940D02*
X62090D01*
X62400D02*
X62580D01*
X62880D02*
X63060D01*
X63370D02*
X63960D01*
X58060Y1860D02*
X58710D01*
X59540D02*
X59710D01*
X60020D02*
X60160D01*
X60470D02*
X60710D01*
X61020D02*
X61150D01*
X61460D02*
X61630D01*
X61940D02*
X62090D01*
X62400D02*
X62570D01*
X62880D02*
X63060D01*
X63360D02*
X63960D01*
X58060Y1850D02*
X58710D01*
X59540D02*
X59710D01*
X60010D02*
X60160D01*
X60470D02*
X60710D01*
X61010D02*
X61150D01*
X61460D02*
X61630D01*
X61940D02*
X62090D01*
X62400D02*
X62570D01*
X62880D02*
X63050D01*
X63360D02*
X63960D01*
X58060Y1840D02*
X58700D01*
X59540D02*
X59710D01*
X60010D02*
X60160D01*
X60460D02*
X60700D01*
X61010D02*
X61150D01*
X61460D02*
X61630D01*
X61940D02*
X62090D01*
X62390D02*
X62570D01*
X62870D02*
X63050D01*
X63360D02*
X63960D01*
X58060Y1830D02*
X58690D01*
X59540D02*
X59700D01*
X60010D02*
X60150D01*
X60460D02*
X60700D01*
X61010D02*
X61150D01*
X61450D02*
X61630D01*
X61930D02*
X62080D01*
X62390D02*
X62570D01*
X62870D02*
X63050D01*
X63360D02*
X63960D01*
X58060Y1820D02*
X58690D01*
X59540D02*
X59700D01*
X60010D02*
X60150D01*
X60460D02*
X60700D01*
X61010D02*
X61140D01*
X61450D02*
X61620D01*
X61930D02*
X62080D01*
X62390D02*
X62560D01*
X62870D02*
X63050D01*
X63350D02*
X63960D01*
X58060Y1810D02*
X58680D01*
X59540D02*
X59700D01*
X60000D02*
X60150D01*
X60460D02*
X60700D01*
X61000D02*
X61140D01*
X61450D02*
X61620D01*
X61930D02*
X62080D01*
X62390D02*
X62560D01*
X62870D02*
X63040D01*
X63350D02*
X63960D01*
X58060Y1800D02*
X58680D01*
X59540D02*
X59700D01*
X60000D02*
X60150D01*
X60450D02*
X60690D01*
X61000D02*
X61140D01*
X61450D02*
X61620D01*
X61930D02*
X62080D01*
X62380D02*
X62560D01*
X62860D02*
X63040D01*
X63350D02*
X63960D01*
X58060Y1790D02*
X58670D01*
X59540D02*
X59690D01*
X60000D02*
X60140D01*
X60450D02*
X60690D01*
X61000D02*
X61140D01*
X61440D02*
X61620D01*
X61920D02*
X62070D01*
X62380D02*
X62560D01*
X62860D02*
X63040D01*
X63350D02*
X63960D01*
X58060Y1780D02*
X58670D01*
X59540D02*
X59690D01*
X60000D02*
X60140D01*
X60450D02*
X60690D01*
X61000D02*
X61130D01*
X61440D02*
X61610D01*
X61920D02*
X62070D01*
X62380D02*
X62550D01*
X62860D02*
X63040D01*
X63340D02*
X63960D01*
X58060Y1770D02*
X58660D01*
X59540D02*
X59690D01*
X59990D02*
X60140D01*
X60450D02*
X60690D01*
X60990D02*
X61130D01*
X61440D02*
X61610D01*
X61920D02*
X62070D01*
X62380D02*
X62550D01*
X62860D02*
X63030D01*
X63340D02*
X63960D01*
X58060Y1760D02*
X58660D01*
X59540D02*
X59690D01*
X59990D02*
X60140D01*
X60440D02*
X60680D01*
X60990D02*
X61130D01*
X61440D02*
X61610D01*
X61920D02*
X62070D01*
X62370D02*
X62550D01*
X62850D02*
X63030D01*
X63340D02*
X63960D01*
X58060Y1750D02*
X58650D01*
X59540D02*
X59680D01*
X59990D02*
X60130D01*
X60440D02*
X60680D01*
X60990D02*
X61130D01*
X61430D02*
X61610D01*
X61910D02*
X62060D01*
X62370D02*
X62550D01*
X62850D02*
X63030D01*
X63340D02*
X63960D01*
X58060Y1740D02*
X58650D01*
X59540D02*
X59680D01*
X59990D02*
X60130D01*
X60440D02*
X60680D01*
X60990D02*
X61120D01*
X61430D02*
X61600D01*
X61910D02*
X62060D01*
X62370D02*
X62540D01*
X62850D02*
X63030D01*
X63330D02*
X63960D01*
X58060Y1730D02*
X58640D01*
X59540D02*
X59680D01*
X59980D02*
X60130D01*
X60440D02*
X60680D01*
X60980D02*
X61120D01*
X61430D02*
X61600D01*
X61910D02*
X62060D01*
X62370D02*
X62540D01*
X62850D02*
X63020D01*
X63330D02*
X63960D01*
X58060Y1720D02*
X58640D01*
X59540D02*
X59680D01*
X59980D02*
X60130D01*
X60440D02*
X60670D01*
X60980D02*
X61120D01*
X61430D02*
X61590D01*
X61910D02*
X62060D01*
X62360D02*
X62540D01*
X62840D02*
X63020D01*
X63330D02*
X63960D01*
X58060Y1710D02*
X58630D01*
X59550D02*
X59670D01*
X59980D02*
X60120D01*
X60430D02*
X60670D01*
X60980D02*
X61120D01*
X61430D02*
X61590D01*
X61900D02*
X62050D01*
X62360D02*
X62540D01*
X62840D02*
X63020D01*
X63330D02*
X63960D01*
X58060Y1700D02*
X58630D01*
X59550D02*
X59670D01*
X59980D02*
X60120D01*
X60440D02*
X60670D01*
X60980D02*
X61110D01*
X61440D02*
X61580D01*
X61900D02*
X62050D01*
X62360D02*
X62530D01*
X62840D02*
X63020D01*
X63320D02*
X63960D01*
X58060Y1690D02*
X58620D01*
X59550D02*
X59670D01*
X59970D02*
X60120D01*
X60440D02*
X60670D01*
X60970D02*
X61110D01*
X61440D02*
X61570D01*
X61900D02*
X62050D01*
X62360D02*
X62530D01*
X62840D02*
X63010D01*
X63320D02*
X63960D01*
X58060Y1680D02*
X58610D01*
X59550D02*
X59670D01*
X59970D02*
X60120D01*
X60450D02*
X60660D01*
X60970D02*
X61110D01*
X61450D02*
X61550D01*
X61900D02*
X62050D01*
X62350D02*
X62530D01*
X62830D02*
X63010D01*
X63320D02*
X63960D01*
X58060Y1670D02*
X58610D01*
X58950D02*
X59210D01*
X59550D02*
X59660D01*
X59970D02*
X60110D01*
X60550D02*
X60660D01*
X60970D02*
X61110D01*
X61890D02*
X62040D01*
X62350D02*
X62530D01*
X62830D02*
X63010D01*
X63320D02*
X63960D01*
X58060Y1660D02*
X58600D01*
X58940D02*
X59210D01*
X59550D02*
X59660D01*
X59970D02*
X60110D01*
X60550D02*
X60660D01*
X60970D02*
X61100D01*
X61890D02*
X62040D01*
X62350D02*
X62520D01*
X62830D02*
X63010D01*
X63310D02*
X63960D01*
X58060Y1650D02*
X58600D01*
X58940D02*
X59210D01*
X59550D02*
X59660D01*
X59960D02*
X60110D01*
X60540D02*
X60660D01*
X60960D02*
X61100D01*
X61890D02*
X62040D01*
X62350D02*
X62520D01*
X62830D02*
X63000D01*
X63310D02*
X63960D01*
X58060Y1640D02*
X58590D01*
X58930D02*
X59210D01*
X59550D02*
X59660D01*
X59960D02*
X60110D01*
X60540D02*
X60650D01*
X60960D02*
X61100D01*
X61890D02*
X62040D01*
X62340D02*
X62520D01*
X62820D02*
X63000D01*
X63310D02*
X63960D01*
X58060Y1630D02*
X58590D01*
X58930D02*
X59210D01*
X59550D02*
X59650D01*
X59960D02*
X60110D01*
X60540D02*
X60650D01*
X60960D02*
X61100D01*
X61880D02*
X62030D01*
X62340D02*
X62520D01*
X62820D02*
X63000D01*
X63310D02*
X63960D01*
X58060Y1620D02*
X58580D01*
X58920D02*
X59210D01*
X59550D02*
X59650D01*
X59960D02*
X60110D01*
X60540D02*
X60650D01*
X60960D02*
X61100D01*
X61880D02*
X62030D01*
X62340D02*
X62510D01*
X62820D02*
X63000D01*
X63300D02*
X63960D01*
X58060Y1610D02*
X58580D01*
X58920D02*
X59210D01*
X59550D02*
X59650D01*
X59950D02*
X60110D01*
X60530D02*
X60650D01*
X60950D02*
X61100D01*
X61880D02*
X62030D01*
X62340D02*
X62510D01*
X62820D02*
X62990D01*
X63300D02*
X63960D01*
X58060Y1600D02*
X58570D01*
X58910D02*
X59210D01*
X59550D02*
X59650D01*
X59950D02*
X60110D01*
X60530D02*
X60640D01*
X60950D02*
X61100D01*
X61880D02*
X62030D01*
X62330D02*
X62510D01*
X62810D02*
X62990D01*
X63290D02*
X63960D01*
X58060Y1590D02*
X58570D01*
X58910D02*
X59210D01*
X59550D02*
X59640D01*
X59950D02*
X60110D01*
X60530D02*
X60640D01*
X60950D02*
X61100D01*
X61870D02*
X62020D01*
X62330D02*
X62510D01*
X62810D02*
X62990D01*
X63290D02*
X63960D01*
X58060Y1580D02*
X58560D01*
X58910D02*
X59200D01*
X59550D02*
X59640D01*
X59950D02*
X60110D01*
X60530D02*
X60640D01*
X60950D02*
X61100D01*
X61870D02*
X62020D01*
X62330D02*
X62500D01*
X62810D02*
X62990D01*
X63280D02*
X63960D01*
X58060Y1570D02*
X58560D01*
X58900D02*
X59200D01*
X59550D02*
X59640D01*
X59940D02*
X60110D01*
X60520D02*
X60640D01*
X60940D02*
X61110D01*
X61550D02*
X61560D01*
X61870D02*
X62020D01*
X62330D02*
X62500D01*
X62810D02*
X62980D01*
X63270D02*
X63370D01*
X63440D02*
X63450D01*
X63480D02*
X63530D01*
X63550D02*
X63960D01*
X58060Y1560D02*
X58550D01*
X58900D02*
X59200D01*
X59550D02*
X59640D01*
X59940D02*
X60110D01*
X60520D02*
X60630D01*
X60940D02*
X61110D01*
X61540D02*
X61560D01*
X61870D02*
X62020D01*
X62320D02*
X62500D01*
X62800D02*
X62980D01*
X63270D02*
X63390D01*
X63410D02*
X63450D01*
X63480D02*
X63520D01*
X63550D02*
X63960D01*
X58060Y1550D02*
X58540D01*
X58890D02*
X59200D01*
X59550D02*
X59630D01*
X59940D02*
X60110D01*
X60520D02*
X60630D01*
X60940D02*
X61110D01*
X61530D02*
X61560D01*
X61860D02*
X62010D01*
X62320D02*
X62500D01*
X62800D02*
X62980D01*
X63260D02*
X63390D01*
X63410D02*
X63450D01*
X63490D02*
X63520D01*
X63550D02*
X63960D01*
X58060Y1540D02*
X58540D01*
X58890D02*
X59200D01*
X59550D02*
X59630D01*
X59940D02*
X60120D01*
X60520D02*
X60630D01*
X60940D02*
X61120D01*
X61520D02*
X61560D01*
X61860D02*
X62010D01*
X62320D02*
X62490D01*
X62800D02*
X62980D01*
X63250D02*
X63390D01*
X63410D02*
X63450D01*
X63490D02*
X63520D01*
X63530D02*
X63540D01*
X63550D02*
X63960D01*
X58060Y1530D02*
X58530D01*
X58880D02*
X59200D01*
X59550D02*
X59630D01*
X59930D02*
X60120D01*
X60510D02*
X60630D01*
X60930D02*
X61120D01*
X61510D02*
X61550D01*
X61860D02*
X62010D01*
X62320D02*
X62490D01*
X62800D02*
X62970D01*
X63230D02*
X63390D01*
X63410D02*
X63450D01*
X63470D02*
X63480D01*
X63490D02*
X63510D01*
X63530D02*
X63540D01*
X63550D02*
X63960D01*
X58060Y1520D02*
X58530D01*
X58880D02*
X59200D01*
X59550D02*
X59630D01*
X59930D02*
X60130D01*
X60510D02*
X60620D01*
X60930D02*
X61130D01*
X61490D02*
X61550D01*
X61860D02*
X62010D01*
X62310D02*
X62490D01*
X62790D02*
X62970D01*
X63220D02*
X63390D01*
X63410D02*
X63450D01*
X63470D02*
X63480D01*
X63500D02*
X63510D01*
X63520D02*
X63540D01*
X63550D02*
X63960D01*
X58060Y1510D02*
X58520D01*
X58880D02*
X59200D01*
X59550D02*
X59620D01*
X59930D02*
X60150D01*
X60510D02*
X60620D01*
X60930D02*
X61140D01*
X61480D02*
X61550D01*
X61850D02*
X62000D01*
X62310D02*
X62490D01*
X62790D02*
X62970D01*
X63200D02*
X63390D01*
X63410D02*
X63450D01*
X63470D02*
X63490D01*
X63520D02*
X63540D01*
X63550D02*
X63960D01*
X58060Y1500D02*
X58520D01*
X58870D02*
X59200D01*
X59550D02*
X59620D01*
X59930D02*
X60170D01*
X60510D02*
X60620D01*
X60930D02*
X61160D01*
X61460D02*
X61550D01*
X61850D02*
X62000D01*
X62310D02*
X62480D01*
X62790D02*
X62970D01*
X63180D02*
X63390D01*
X63410D02*
X63450D01*
X63470D02*
X63490D01*
X63520D02*
X63540D01*
X63550D02*
X63960D01*
X58060Y1490D02*
X58510D01*
X58870D02*
X59200D01*
X59550D02*
X59620D01*
X59920D02*
X60200D01*
X60500D02*
X60620D01*
X60920D02*
X61180D01*
X61440D02*
X61540D01*
X61850D02*
X62000D01*
X62310D02*
X62480D01*
X62790D02*
X62960D01*
X63140D02*
X63390D01*
X63410D02*
X63450D01*
X63470D02*
X63490D01*
X63510D02*
X63540D01*
X63550D02*
X63960D01*
X58060Y1480D02*
X60290D01*
X60410D02*
X61200D01*
X61410D02*
X63960D01*
X58060Y1470D02*
X61250D01*
X61360D02*
X63960D01*
X58060Y1460D02*
X63960D01*
X58060Y1450D02*
X63960D01*
X58060Y1440D02*
X63960D01*
X58060Y1430D02*
X63960D01*
X58060Y1420D02*
X63960D01*
X58060Y1410D02*
X63960D01*
X58060Y1400D02*
X63960D01*
X58060Y1390D02*
X63960D01*
X58060Y1380D02*
X63960D01*
X58060Y1370D02*
X63960D01*
X58060Y1360D02*
X63960D01*
X58060Y1350D02*
X63960D01*
X58060Y1340D02*
X63960D01*
X58060Y1330D02*
X63960D01*
X58060Y1320D02*
X63960D01*
X58060Y1310D02*
X63960D01*
X58060Y1300D02*
X63960D01*
X58060Y1290D02*
X63960D01*
X58060Y1280D02*
X63960D01*
X58060Y1270D02*
X63960D01*
X58060Y1260D02*
X63960D01*
X58060Y1250D02*
X58950D01*
X58990D02*
X59860D01*
X59900D02*
X63370D01*
X63440D02*
X63450D01*
X63480D02*
X63530D01*
X63550D02*
X63960D01*
X58060Y1240D02*
X58950D01*
X58990D02*
X59120D01*
X59160D02*
X59860D01*
X59900D02*
X60890D01*
X60930D02*
X61900D01*
X61940D02*
X62950D01*
X62990D02*
X63400D01*
X63410D02*
X63450D01*
X63480D02*
X63520D01*
X63550D02*
X63960D01*
X58060Y1230D02*
X58500D01*
X58560D02*
X58650D01*
X58720D02*
X58950D01*
X58990D02*
X59120D01*
X59160D02*
X59690D01*
X59810D02*
X59860D01*
X59900D02*
X60890D01*
X60930D02*
X61370D01*
X61470D02*
X61900D01*
X61940D02*
X62460D01*
X62580D02*
X62950D01*
X62990D02*
X63400D01*
X63410D02*
X63450D01*
X63490D02*
X63520D01*
X63550D02*
X63960D01*
X58060Y1220D02*
X58500D01*
X58570D02*
X58650D01*
X58720D02*
X58950D01*
X58990D02*
X59120D01*
X59160D02*
X59690D01*
X59810D02*
X59860D01*
X59900D02*
X60300D01*
X60320D02*
X60890D01*
X60930D02*
X61370D01*
X61500D02*
X61900D01*
X61940D02*
X62460D01*
X62580D02*
X62950D01*
X62990D02*
X63400D01*
X63410D02*
X63450D01*
X63490D02*
X63510D01*
X63530D02*
X63540D01*
X63550D02*
X63960D01*
X58060Y1210D02*
X58500D01*
X58570D02*
X58650D01*
X58720D02*
X58950D01*
X58990D02*
X59690D01*
X59810D02*
X59860D01*
X59900D02*
X60280D01*
X60320D02*
X61370D01*
X61510D02*
X62460D01*
X62580D02*
X63400D01*
X63410D02*
X63450D01*
X63470D02*
X63480D01*
X63500D02*
X63510D01*
X63530D02*
X63540D01*
X63550D02*
X63960D01*
X58060Y1200D02*
X58500D01*
X58570D02*
X58640D01*
X58720D02*
X58950D01*
X58990D02*
X59690D01*
X59730D02*
X59860D01*
X59900D02*
X60280D01*
X60320D02*
X61370D01*
X61410D02*
X61450D01*
X61520D02*
X62460D01*
X62510D02*
X63400D01*
X63410D02*
X63450D01*
X63470D02*
X63480D01*
X63520D02*
X63540D01*
X63550D02*
X63960D01*
X58060Y1190D02*
X58500D01*
X58580D02*
X58640D01*
X58720D02*
X58950D01*
X58990D02*
X59690D01*
X59730D02*
X59860D01*
X59900D02*
X60280D01*
X60320D02*
X61370D01*
X61410D02*
X61470D01*
X61520D02*
X62460D01*
X62510D02*
X63400D01*
X63410D02*
X63450D01*
X63470D02*
X63490D01*
X63520D02*
X63540D01*
X63550D02*
X63960D01*
X58060Y1180D02*
X58500D01*
X58580D02*
X58640D01*
X58720D02*
X58790D01*
X58880D02*
X58950D01*
X58990D02*
X59030D01*
X59080D02*
X59120D01*
X59160D02*
X59220D01*
X59250D02*
X59270D01*
X59330D02*
X59430D01*
X59490D02*
X59500D01*
X59540D02*
X59690D01*
X59730D02*
X59860D01*
X59900D02*
X59980D01*
X60050D02*
X60160D01*
X60230D02*
X60250D01*
X60350D02*
X60400D01*
X60430D02*
X60450D01*
X60480D02*
X60550D01*
X60620D02*
X60700D01*
X60740D02*
X60760D01*
X60820D02*
X60890D01*
X60930D02*
X61010D01*
X61090D02*
X61140D01*
X61220D02*
X61370D01*
X61410D02*
X61480D01*
X61530D02*
X61610D01*
X61680D02*
X61770D01*
X61850D02*
X61900D01*
X61940D02*
X62010D01*
X62070D02*
X62090D01*
X62130D02*
X62180D01*
X62220D02*
X62230D01*
X62290D02*
X62460D01*
X62510D02*
X62650D01*
X62730D02*
X62820D01*
X62900D02*
X62950D01*
X62990D02*
X63070D01*
X63140D02*
X63220D01*
X63250D02*
X63270D01*
X63300D02*
X63400D01*
X63410D02*
X63450D01*
X63470D02*
X63490D01*
X63510D02*
X63540D01*
X63550D02*
X63960D01*
X58060Y1170D02*
X58500D01*
X58580D02*
X58630D01*
X58670D02*
X58680D01*
X58720D02*
X58780D01*
X58890D02*
X58950D01*
X58990D02*
X59020D01*
X59070D02*
X59120D01*
X59160D02*
X59220D01*
X59340D02*
X59420D01*
X59540D02*
X59690D01*
X59730D02*
X59860D01*
X59900D02*
X59970D01*
X60060D02*
X60140D01*
X60230D02*
X60250D01*
X60350D02*
X60400D01*
X60430D02*
X60440D01*
X60480D02*
X60530D01*
X60640D02*
X60700D01*
X60830D02*
X60890D01*
X60930D02*
X61000D01*
X61080D02*
X61130D01*
X61220D02*
X61370D01*
X61410D02*
X61480D01*
X61530D02*
X61590D01*
X61690D02*
X61760D01*
X61850D02*
X61900D01*
X61940D02*
X62000D01*
X62130D02*
X62180D01*
X62300D02*
X62460D01*
X62510D02*
X62640D01*
X62740D02*
X62810D01*
X62900D02*
X62950D01*
X62990D02*
X63060D01*
X63150D02*
X63220D01*
X63250D02*
X63260D01*
X63300D02*
X63960D01*
X58060Y1160D02*
X58500D01*
X58540D02*
X58550D01*
X58590D02*
X58630D01*
X58670D02*
X58680D01*
X58720D02*
X58780D01*
X58890D02*
X58950D01*
X58990D02*
X59020D01*
X59060D02*
X59120D01*
X59160D02*
X59220D01*
X59350D02*
X59410D01*
X59540D02*
X59690D01*
X59730D02*
X59860D01*
X59900D02*
X59960D01*
X60070D02*
X60130D01*
X60230D02*
X60250D01*
X60350D02*
X60400D01*
X60480D02*
X60520D01*
X60640D02*
X60700D01*
X60830D02*
X60890D01*
X60930D02*
X60990D01*
X61080D02*
X61120D01*
X61220D02*
X61370D01*
X61410D02*
X61490D01*
X61530D02*
X61590D01*
X61700D02*
X61750D01*
X61840D02*
X61900D01*
X61940D02*
X61990D01*
X62130D02*
X62180D01*
X62310D02*
X62460D01*
X62510D02*
X62640D01*
X62750D02*
X62800D01*
X62900D02*
X62950D01*
X62990D02*
X63050D01*
X63160D02*
X63220D01*
X63300D02*
X63960D01*
X58060Y1150D02*
X58500D01*
X58540D02*
X58550D01*
X58590D02*
X58630D01*
X58670D02*
X58680D01*
X58720D02*
X58780D01*
X58800D02*
X58860D01*
X58900D02*
X58950D01*
X58990D02*
X59010D01*
X59050D02*
X59120D01*
X59160D02*
X59220D01*
X59270D02*
X59310D01*
X59350D02*
X59400D01*
X59450D02*
X59490D01*
X59540D02*
X59690D01*
X59800D02*
X59860D01*
X59900D02*
X59950D01*
X59990D02*
X60040D01*
X60080D02*
X60130D01*
X60180D02*
X60280D01*
X60320D02*
X60400D01*
X60480D02*
X60510D01*
X60560D02*
X60600D01*
X60650D02*
X60700D01*
X60760D02*
X60790D01*
X60840D02*
X60890D01*
X60930D02*
X60980D01*
X61030D02*
X61120D01*
X61160D02*
X61370D01*
X61410D02*
X61490D01*
X61540D02*
X61580D01*
X61620D02*
X61670D01*
X61700D02*
X61750D01*
X61790D02*
X61900D01*
X61940D02*
X61990D01*
X62040D02*
X62070D01*
X62130D02*
X62180D01*
X62230D02*
X62270D01*
X62310D02*
X62460D01*
X62580D02*
X62640D01*
X62660D02*
X62710D01*
X62750D02*
X62800D01*
X62840D02*
X62950D01*
X62990D02*
X63040D01*
X63080D02*
X63130D01*
X63160D02*
X63220D01*
X63300D02*
X63960D01*
X58060Y1140D02*
X58500D01*
X58540D02*
X58560D01*
X58590D02*
X58630D01*
X58660D02*
X58680D01*
X58720D02*
X58860D01*
X58900D02*
X58950D01*
X58990D02*
X59000D01*
X59050D02*
X59120D01*
X59160D02*
X59220D01*
X59260D02*
X59310D01*
X59350D02*
X59400D01*
X59440D02*
X59500D01*
X59540D02*
X59690D01*
X59800D02*
X59860D01*
X59900D02*
X59950D01*
X59990D02*
X60040D01*
X60080D02*
X60120D01*
X60170D02*
X60280D01*
X60320D02*
X60400D01*
X60440D02*
X60510D01*
X60550D02*
X60610D01*
X60660D02*
X60700D01*
X60750D02*
X60800D01*
X60840D02*
X60890D01*
X60930D02*
X60980D01*
X61030D02*
X61120D01*
X61160D02*
X61370D01*
X61410D02*
X61490D01*
X61540D02*
X61580D01*
X61610D02*
X61670D01*
X61710D02*
X61750D01*
X61790D02*
X61900D01*
X61940D02*
X61980D01*
X62030D02*
X62080D01*
X62130D02*
X62180D01*
X62230D02*
X62270D01*
X62310D02*
X62460D01*
X62580D02*
X62720D01*
X62760D02*
X62800D01*
X62840D02*
X62950D01*
X62990D02*
X63040D01*
X63070D02*
X63130D01*
X63170D02*
X63220D01*
X63270D02*
X63960D01*
X58060Y1130D02*
X58500D01*
X58540D02*
X58560D01*
X58600D02*
X58620D01*
X58660D02*
X58680D01*
X58720D02*
X58860D01*
X58900D02*
X58950D01*
X59040D02*
X59120D01*
X59160D02*
X59220D01*
X59260D02*
X59310D01*
X59350D02*
X59400D01*
X59440D02*
X59500D01*
X59540D02*
X59690D01*
X59800D02*
X59860D01*
X59900D02*
X59950D01*
X59980D02*
X60050D01*
X60080D02*
X60120D01*
X60160D02*
X60280D01*
X60320D02*
X60400D01*
X60440D02*
X60510D01*
X60550D02*
X60620D01*
X60660D02*
X60700D01*
X60750D02*
X60800D01*
X60840D02*
X60890D01*
X60930D02*
X60980D01*
X61020D02*
X61120D01*
X61170D02*
X61370D01*
X61410D02*
X61490D01*
X61540D02*
X61570D01*
X61610D02*
X61670D01*
X61710D02*
X61750D01*
X61800D02*
X61900D01*
X61940D02*
X61980D01*
X62020D02*
X62080D01*
X62130D02*
X62180D01*
X62220D02*
X62270D01*
X62310D02*
X62460D01*
X62580D02*
X62720D01*
X62760D02*
X62800D01*
X62850D02*
X62950D01*
X62990D02*
X63030D01*
X63070D02*
X63130D01*
X63170D02*
X63220D01*
X63260D02*
X63960D01*
X58060Y1120D02*
X58500D01*
X58540D02*
X58560D01*
X58600D02*
X58620D01*
X58660D02*
X58680D01*
X58720D02*
X58790D01*
X58900D02*
X58950D01*
X59030D02*
X59120D01*
X59160D02*
X59220D01*
X59260D02*
X59310D01*
X59350D02*
X59400D01*
X59440D02*
X59500D01*
X59540D02*
X59690D01*
X59730D02*
X59860D01*
X59900D02*
X59950D01*
X60080D02*
X60120D01*
X60160D02*
X60280D01*
X60320D02*
X60400D01*
X60440D02*
X60510D01*
X60550D02*
X60620D01*
X60660D02*
X60700D01*
X60740D02*
X60800D01*
X60840D02*
X60890D01*
X60930D02*
X60980D01*
X61020D02*
X61120D01*
X61200D02*
X61370D01*
X61410D02*
X61490D01*
X61540D02*
X61570D01*
X61710D02*
X61750D01*
X61830D02*
X61900D01*
X61940D02*
X61980D01*
X62020D02*
X62090D01*
X62130D02*
X62180D01*
X62220D02*
X62280D01*
X62310D02*
X62460D01*
X62510D02*
X62650D01*
X62760D02*
X62800D01*
X62880D02*
X62950D01*
X62990D02*
X63030D01*
X63170D02*
X63220D01*
X63260D02*
X63960D01*
X58060Y1110D02*
X58500D01*
X58540D02*
X58560D01*
X58600D02*
X58620D01*
X58650D02*
X58680D01*
X58720D02*
X58780D01*
X58900D02*
X58950D01*
X59030D02*
X59120D01*
X59160D02*
X59220D01*
X59260D02*
X59310D01*
X59350D02*
X59400D01*
X59440D02*
X59500D01*
X59540D02*
X59690D01*
X59730D02*
X59860D01*
X59900D02*
X59950D01*
X60080D02*
X60120D01*
X60160D02*
X60280D01*
X60320D02*
X60400D01*
X60440D02*
X60510D01*
X60550D02*
X60620D01*
X60660D02*
X60700D01*
X60740D02*
X60800D01*
X60840D02*
X60890D01*
X60930D02*
X60980D01*
X61020D02*
X61130D01*
X61220D02*
X61370D01*
X61410D02*
X61490D01*
X61530D02*
X61570D01*
X61710D02*
X61760D01*
X61840D02*
X61900D01*
X61940D02*
X61980D01*
X62020D02*
X62090D01*
X62130D02*
X62180D01*
X62220D02*
X62280D01*
X62310D02*
X62460D01*
X62510D02*
X62640D01*
X62760D02*
X62810D01*
X62900D02*
X62950D01*
X62990D02*
X63030D01*
X63170D02*
X63220D01*
X63260D02*
X63960D01*
X58060Y1100D02*
X58500D01*
X58540D02*
X58570D01*
X58600D02*
X58610D01*
X58650D02*
X58680D01*
X58720D02*
X58770D01*
X58820D02*
X58860D01*
X58900D02*
X58950D01*
X59040D02*
X59120D01*
X59160D02*
X59220D01*
X59260D02*
X59310D01*
X59350D02*
X59400D01*
X59440D02*
X59500D01*
X59540D02*
X59690D01*
X59730D02*
X59860D01*
X59900D02*
X59950D01*
X60080D02*
X60120D01*
X60160D02*
X60280D01*
X60320D02*
X60400D01*
X60430D02*
X60510D01*
X60550D02*
X60620D01*
X60660D02*
X60700D01*
X60740D02*
X60800D01*
X60840D02*
X60890D01*
X60930D02*
X60980D01*
X61020D02*
X61150D01*
X61220D02*
X61370D01*
X61410D02*
X61480D01*
X61530D02*
X61570D01*
X61710D02*
X61780D01*
X61850D02*
X61900D01*
X61940D02*
X61980D01*
X62020D02*
X62090D01*
X62130D02*
X62180D01*
X62220D02*
X62280D01*
X62310D02*
X62460D01*
X62510D02*
X62630D01*
X62680D02*
X62720D01*
X62760D02*
X62840D01*
X62900D02*
X62950D01*
X62990D02*
X63030D01*
X63170D02*
X63220D01*
X63260D02*
X63960D01*
X58060Y1090D02*
X58500D01*
X58540D02*
X58570D01*
X58650D02*
X58680D01*
X58720D02*
X58770D01*
X58810D02*
X58860D01*
X58900D02*
X58950D01*
X58990D02*
X59000D01*
X59050D02*
X59120D01*
X59160D02*
X59220D01*
X59260D02*
X59310D01*
X59350D02*
X59400D01*
X59440D02*
X59500D01*
X59540D02*
X59690D01*
X59730D02*
X59860D01*
X59900D02*
X59950D01*
X59980D02*
X60120D01*
X60160D02*
X60280D01*
X60320D02*
X60400D01*
X60430D02*
X60510D01*
X60550D02*
X60620D01*
X60660D02*
X60700D01*
X60740D02*
X60800D01*
X60840D02*
X60890D01*
X60930D02*
X60980D01*
X61020D02*
X61180D01*
X61220D02*
X61370D01*
X61410D02*
X61480D01*
X61530D02*
X61570D01*
X61610D02*
X61810D01*
X61850D02*
X61900D01*
X61940D02*
X61980D01*
X62030D02*
X62080D01*
X62130D02*
X62180D01*
X62220D02*
X62280D01*
X62310D02*
X62460D01*
X62510D02*
X62630D01*
X62670D02*
X62720D01*
X62760D02*
X62860D01*
X62900D02*
X62950D01*
X62990D02*
X63030D01*
X63070D02*
X63220D01*
X63260D02*
X63960D01*
X58060Y1080D02*
X58500D01*
X58540D02*
X58570D01*
X58640D02*
X58680D01*
X58720D02*
X58770D01*
X58810D02*
X58860D01*
X58900D02*
X58950D01*
X58990D02*
X59010D01*
X59060D02*
X59120D01*
X59160D02*
X59220D01*
X59260D02*
X59310D01*
X59350D02*
X59400D01*
X59450D02*
X59490D01*
X59540D02*
X59690D01*
X59730D02*
X59860D01*
X59900D02*
X59950D01*
X59990D02*
X60120D01*
X60170D02*
X60280D01*
X60320D02*
X60400D01*
X60430D02*
X60510D01*
X60550D02*
X60610D01*
X60660D02*
X60700D01*
X60740D02*
X60800D01*
X60840D02*
X60890D01*
X60930D02*
X60980D01*
X61030D02*
X61180D01*
X61220D02*
X61370D01*
X61410D02*
X61460D01*
X61520D02*
X61580D01*
X61620D02*
X61810D01*
X61850D02*
X61900D01*
X61940D02*
X61980D01*
X62030D02*
X62080D01*
X62130D02*
X62180D01*
X62220D02*
X62280D01*
X62310D02*
X62460D01*
X62510D02*
X62630D01*
X62660D02*
X62720D01*
X62760D02*
X62860D01*
X62910D02*
X62950D01*
X62990D02*
X63040D01*
X63080D02*
X63220D01*
X63260D02*
X63960D01*
X58060Y1070D02*
X58500D01*
X58540D02*
X58580D01*
X58640D02*
X58680D01*
X58720D02*
X58770D01*
X58810D02*
X58850D01*
X58900D02*
X58950D01*
X58990D02*
X59020D01*
X59060D02*
X59120D01*
X59160D02*
X59220D01*
X59260D02*
X59310D01*
X59350D02*
X59400D01*
X59460D02*
X59480D01*
X59540D02*
X59690D01*
X59730D02*
X59860D01*
X59900D02*
X59950D01*
X60000D02*
X60060D01*
X60070D02*
X60130D01*
X60180D02*
X60280D01*
X60330D02*
X60400D01*
X60430D02*
X60510D01*
X60560D02*
X60600D01*
X60650D02*
X60700D01*
X60740D02*
X60800D01*
X60840D02*
X60890D01*
X60930D02*
X60980D01*
X61040D02*
X61180D01*
X61220D02*
X61370D01*
X61410D02*
X61440D01*
X61520D02*
X61580D01*
X61630D02*
X61690D01*
X61700D02*
X61810D01*
X61850D02*
X61900D01*
X61940D02*
X61990D01*
X62040D02*
X62070D01*
X62130D02*
X62180D01*
X62220D02*
X62280D01*
X62310D02*
X62460D01*
X62510D02*
X62630D01*
X62670D02*
X62710D01*
X62760D02*
X62860D01*
X62900D02*
X62950D01*
X62990D02*
X63040D01*
X63090D02*
X63150D01*
X63160D02*
X63220D01*
X63260D02*
X63960D01*
X58060Y1060D02*
X58500D01*
X58540D02*
X58580D01*
X58640D02*
X58680D01*
X58720D02*
X58770D01*
X58900D02*
X58950D01*
X58990D02*
X59020D01*
X59070D02*
X59120D01*
X59160D02*
X59220D01*
X59260D02*
X59310D01*
X59350D02*
X59410D01*
X59540D02*
X59690D01*
X59810D02*
X59860D01*
X59900D02*
X59960D01*
X60070D02*
X60130D01*
X60230D02*
X60280D01*
X60360D02*
X60400D01*
X60430D02*
X60520D01*
X60640D02*
X60700D01*
X60740D02*
X60800D01*
X60840D02*
X60890D01*
X60930D02*
X60990D01*
X61090D02*
X61120D01*
X61220D02*
X61370D01*
X61510D02*
X61590D01*
X61700D02*
X61750D01*
X61850D02*
X61900D01*
X61940D02*
X61990D01*
X62130D02*
X62180D01*
X62220D02*
X62280D01*
X62310D02*
X62460D01*
X62580D02*
X62630D01*
X62760D02*
X62800D01*
X62900D02*
X62950D01*
X62990D02*
X63050D01*
X63160D02*
X63220D01*
X63260D02*
X63960D01*
X58060Y1050D02*
X58500D01*
X58540D02*
X58580D01*
X58630D02*
X58680D01*
X58720D02*
X58780D01*
X58900D02*
X58950D01*
X58990D02*
X59030D01*
X59080D02*
X59120D01*
X59160D02*
X59220D01*
X59260D02*
X59310D01*
X59350D02*
X59420D01*
X59540D02*
X59690D01*
X59810D02*
X59860D01*
X59900D02*
X59970D01*
X60070D02*
X60140D01*
X60230D02*
X60290D01*
X60360D02*
X60400D01*
X60430D02*
X60530D01*
X60640D02*
X60700D01*
X60740D02*
X60800D01*
X60840D02*
X60890D01*
X60930D02*
X61000D01*
X61090D02*
X61120D01*
X61210D02*
X61370D01*
X61490D02*
X61600D01*
X61700D02*
X61750D01*
X61840D02*
X61900D01*
X61940D02*
X62000D01*
X62080D02*
X62090D01*
X62130D02*
X62180D01*
X62220D02*
X62280D01*
X62310D02*
X62460D01*
X62580D02*
X62630D01*
X62760D02*
X62800D01*
X62890D02*
X62950D01*
X62990D02*
X63060D01*
X63160D02*
X63220D01*
X63260D02*
X63960D01*
X58060Y1040D02*
X58500D01*
X58540D02*
X58590D01*
X58630D02*
X58680D01*
X58720D02*
X58790D01*
X58850D02*
X58870D01*
X58900D02*
X58950D01*
X58990D02*
X59040D01*
X59090D02*
X59120D01*
X59160D02*
X59220D01*
X59260D02*
X59310D01*
X59350D02*
X59430D01*
X59480D02*
X59500D01*
X59540D02*
X59690D01*
X59810D02*
X59860D01*
X59900D02*
X59990D01*
X60070D02*
X60160D01*
X60230D02*
X60300D01*
X60360D02*
X60400D01*
X60430D02*
X60550D01*
X60620D02*
X60700D01*
X60740D02*
X60800D01*
X60840D02*
X60890D01*
X60930D02*
X61020D01*
X61090D02*
X61120D01*
X61200D02*
X61370D01*
X61470D02*
X61610D01*
X61690D02*
X61750D01*
X61830D02*
X61900D01*
X61940D02*
X62020D01*
X62060D02*
X62090D01*
X62130D02*
X62180D01*
X62220D02*
X62280D01*
X62310D02*
X62460D01*
X62580D02*
X62650D01*
X62710D02*
X62720D01*
X62760D02*
X62800D01*
X62880D02*
X62950D01*
X62990D02*
X63070D01*
X63150D02*
X63220D01*
X63260D02*
X63960D01*
X58060Y1030D02*
X59500D01*
X59540D02*
X62080D01*
X62120D02*
X63960D01*
X58060Y1020D02*
X59490D01*
X59540D02*
X62080D01*
X62120D02*
X63960D01*
X58060Y1010D02*
X59410D01*
X59430D02*
X59480D01*
X59530D02*
X62000D01*
X62020D02*
X62070D01*
X62120D02*
X63960D01*
X58060Y1000D02*
X59410D01*
X59530D02*
X62000D01*
X62110D02*
X63960D01*
X58060Y990D02*
X59410D01*
X59520D02*
X62000D01*
X62100D02*
X63960D01*
X58060Y980D02*
X59420D01*
X59510D02*
X62010D01*
X62090D02*
X63960D01*
X58060Y970D02*
X63960D01*
X58060Y960D02*
X63960D01*
X58060Y950D02*
X63960D01*
X58060Y940D02*
X63960D01*
X58060Y930D02*
X63960D01*
X58060Y920D02*
X63960D01*
X58060Y910D02*
X63960D01*
X58060Y900D02*
X63960D01*
X58060Y890D02*
X63960D01*
X58060Y880D02*
X63960D01*
X58060Y870D02*
X63960D01*
X58060Y860D02*
X63960D01*
X58060Y850D02*
X63960D01*
X58060Y840D02*
X63960D01*
X58060Y830D02*
X63950D01*
X58060Y820D02*
X63950D01*
X58060Y810D02*
X63950D01*
X58060Y800D02*
X63940D01*
X58060Y790D02*
X63940D01*
X58060Y780D02*
X63940D01*
X58060Y770D02*
X63930D01*
X58060Y760D02*
X63930D01*
X58060Y750D02*
X63920D01*
X58060Y740D02*
X63920D01*
X58060Y730D02*
X63910D01*
X58060Y720D02*
X63900D01*
X58060Y710D02*
X63900D01*
X58060Y700D02*
X63890D01*
X58060Y690D02*
X63880D01*
X58060Y680D02*
X63870D01*
X58060Y670D02*
X63860D01*
X58060Y660D02*
X63850D01*
X58060Y650D02*
X63840D01*
X58060Y640D02*
X63830D01*
X58060Y630D02*
X63820D01*
X58060Y620D02*
X63810D01*
X58060Y610D02*
X63800D01*
X58060Y600D02*
X63780D01*
X58060Y590D02*
X63770D01*
X58060Y580D02*
X63750D01*
X58060Y570D02*
X63730D01*
X58060Y560D02*
X63710D01*
D41*
X39530Y3810D02*
Y4110D01*
X39680D01*
X39730Y4060D01*
Y3960D01*
X39680Y3910D01*
X39530D01*
X39830Y4060D02*
X39880Y4110D01*
X39980D01*
X40030Y4060D01*
Y4010D01*
X39980Y3960D01*
X40030Y3910D01*
Y3860D01*
X39980Y3810D01*
X39880D01*
X39830Y3860D01*
Y3910D01*
X39880Y3960D01*
X39830Y4010D01*
Y4060D01*
X39880Y3960D02*
X39980D01*
X40330Y4110D02*
X40130D01*
Y3960D01*
X40230D01*
X40130D01*
Y3810D01*
X38330D02*
Y4110D01*
X38480D01*
X38530Y4060D01*
Y3960D01*
X38480Y3910D01*
X38330D01*
X38830Y4110D02*
X38730Y4060D01*
X38630Y3960D01*
Y3860D01*
X38680Y3810D01*
X38780D01*
X38830Y3860D01*
Y3910D01*
X38780Y3960D01*
X38630D01*
X39130Y4110D02*
X38930D01*
Y3960D01*
X39030D01*
X38930D01*
Y3810D01*
X1100Y9000D02*
Y9300D01*
X1250D01*
X1300Y9250D01*
Y9150D01*
X1250Y9100D01*
X1100D01*
X1550Y9000D02*
Y9300D01*
X1400Y9150D01*
X1600D01*
X1900Y9300D02*
X1700D01*
Y9150D01*
X1800D01*
X1700D01*
Y9000D01*
X7400Y1100D02*
Y1400D01*
X7550D01*
X7600Y1350D01*
Y1250D01*
X7550Y1200D01*
X7400D01*
X7700Y1350D02*
X7750Y1400D01*
X7850D01*
X7900Y1350D01*
Y1300D01*
X7850Y1250D01*
X7800D01*
X7850D01*
X7900Y1200D01*
Y1150D01*
X7850Y1100D01*
X7750D01*
X7700Y1150D01*
X8200Y1400D02*
X8000D01*
Y1250D01*
X8100D01*
X8000D01*
Y1100D01*
X48020Y26370D02*
Y26670D01*
X48120Y26570D01*
X48220Y26670D01*
Y26370D01*
X48520Y26620D02*
X48470Y26670D01*
X48370D01*
X48320Y26620D01*
Y26420D01*
X48370Y26370D01*
X48470D01*
X48520Y26420D01*
X48620Y26370D02*
X48720D01*
X48670D01*
Y26670D01*
X48620Y26620D01*
X49070Y26670D02*
X48870D01*
Y26520D01*
X48970D01*
X48870D01*
Y26370D01*
X49170Y26320D02*
X49370D01*
X49470Y26370D02*
Y26670D01*
X49570Y26570D01*
X49669Y26670D01*
Y26370D01*
X49969Y26670D02*
X49769D01*
Y26520D01*
X49869Y26570D01*
X49919D01*
X49969Y26520D01*
Y26420D01*
X49919Y26370D01*
X49819D01*
X49769Y26420D01*
X56520Y26370D02*
Y26670D01*
X56620Y26570D01*
X56720Y26670D01*
Y26370D01*
X57020Y26620D02*
X56970Y26670D01*
X56870D01*
X56820Y26620D01*
Y26420D01*
X56870Y26370D01*
X56970D01*
X57020Y26420D01*
X57120Y26370D02*
X57220D01*
X57170D01*
Y26670D01*
X57120Y26620D01*
X57570Y26670D02*
X57370D01*
Y26520D01*
X57470D01*
X57370D01*
Y26370D01*
X57670Y26320D02*
X57870D01*
X57970Y26370D02*
Y26670D01*
X58070Y26570D01*
X58169Y26670D01*
Y26370D01*
X58469Y26670D02*
X58369Y26620D01*
X58269Y26520D01*
Y26420D01*
X58319Y26370D01*
X58419D01*
X58469Y26420D01*
Y26470D01*
X58419Y26520D01*
X58269D01*
X54800Y1200D02*
Y1500D01*
X54950D01*
X55000Y1450D01*
Y1350D01*
X54950Y1300D01*
X54800D01*
X55300Y1500D02*
X55100D01*
Y1350D01*
X55200Y1400D01*
X55250D01*
X55300Y1350D01*
Y1250D01*
X55250Y1200D01*
X55150D01*
X55100Y1250D01*
X55600Y1500D02*
X55400D01*
Y1350D01*
X55500D01*
X55400D01*
Y1200D01*
X54700Y2500D02*
Y2800D01*
X54850D01*
X54900Y2750D01*
Y2650D01*
X54850Y2600D01*
X54700D01*
X55000Y2800D02*
X55200D01*
Y2750D01*
X55000Y2550D01*
Y2500D01*
X55500Y2800D02*
X55300D01*
Y2650D01*
X55400D01*
X55300D01*
Y2500D01*
X38263Y6380D02*
Y6130D01*
X38313Y6080D01*
X38413D01*
X38463Y6130D01*
Y6380D01*
X38563Y6080D02*
X38663D01*
X38613D01*
Y6380D01*
X38563Y6330D01*
X39013Y6380D02*
X38813D01*
Y6230D01*
X38913D01*
X38813D01*
Y6080D01*
X44900Y6240D02*
Y5990D01*
X44950Y5940D01*
X45050D01*
X45100Y5990D01*
Y6240D01*
X45400Y5940D02*
X45200D01*
X45400Y6140D01*
Y6190D01*
X45350Y6240D01*
X45250D01*
X45200Y6190D01*
X45700Y6240D02*
X45500D01*
Y6090D01*
X45600D01*
X45500D01*
Y5940D01*
X39520Y26370D02*
Y26670D01*
X39620Y26570D01*
X39720Y26670D01*
Y26370D01*
X40020Y26620D02*
X39970Y26670D01*
X39870D01*
X39820Y26620D01*
Y26420D01*
X39870Y26370D01*
X39970D01*
X40020Y26420D01*
X40120Y26370D02*
X40220D01*
X40170D01*
Y26670D01*
X40120Y26620D01*
X40570Y26670D02*
X40370D01*
Y26520D01*
X40470D01*
X40370D01*
Y26370D01*
X40670Y26320D02*
X40870D01*
X40970Y26370D02*
Y26670D01*
X41069Y26570D01*
X41169Y26670D01*
Y26370D01*
X41419D02*
Y26670D01*
X41269Y26520D01*
X41469D01*
X31020Y26370D02*
Y26670D01*
X31120Y26570D01*
X31220Y26670D01*
Y26370D01*
X31520Y26620D02*
X31470Y26670D01*
X31370D01*
X31320Y26620D01*
Y26420D01*
X31370Y26370D01*
X31470D01*
X31520Y26420D01*
X31620Y26370D02*
X31720D01*
X31670D01*
Y26670D01*
X31620Y26620D01*
X32070Y26670D02*
X31870D01*
Y26520D01*
X31970D01*
X31870D01*
Y26370D01*
X32170Y26320D02*
X32370D01*
X32470Y26370D02*
Y26670D01*
X32569Y26570D01*
X32669Y26670D01*
Y26370D01*
X32769Y26620D02*
X32819Y26670D01*
X32919D01*
X32969Y26620D01*
Y26570D01*
X32919Y26520D01*
X32869D01*
X32919D01*
X32969Y26470D01*
Y26420D01*
X32919Y26370D01*
X32819D01*
X32769Y26420D01*
X22520Y26370D02*
Y26670D01*
X22620Y26570D01*
X22720Y26670D01*
Y26370D01*
X23020Y26620D02*
X22970Y26670D01*
X22870D01*
X22820Y26620D01*
Y26420D01*
X22870Y26370D01*
X22970D01*
X23020Y26420D01*
X23120Y26370D02*
X23220D01*
X23170D01*
Y26670D01*
X23120Y26620D01*
X23570Y26670D02*
X23370D01*
Y26520D01*
X23470D01*
X23370D01*
Y26370D01*
X23670Y26320D02*
X23870D01*
X23970Y26370D02*
Y26670D01*
X24069Y26570D01*
X24169Y26670D01*
Y26370D01*
X24469D02*
X24269D01*
X24469Y26570D01*
Y26620D01*
X24419Y26670D01*
X24319D01*
X24269Y26620D01*
X14020Y26370D02*
Y26670D01*
X14120Y26570D01*
X14220Y26670D01*
Y26370D01*
X14520Y26620D02*
X14470Y26670D01*
X14370D01*
X14320Y26620D01*
Y26420D01*
X14370Y26370D01*
X14470D01*
X14520Y26420D01*
X14620Y26370D02*
X14720D01*
X14670D01*
Y26670D01*
X14620Y26620D01*
X15070Y26670D02*
X14870D01*
Y26520D01*
X14970D01*
X14870D01*
Y26370D01*
X15170Y26320D02*
X15370D01*
X15470Y26370D02*
Y26670D01*
X15569Y26570D01*
X15669Y26670D01*
Y26370D01*
X15769D02*
X15869D01*
X15819D01*
Y26670D01*
X15769Y26620D01*
X62200Y10200D02*
X62500D01*
Y10050D01*
X62450Y10000D01*
X62350D01*
X62300Y10050D01*
Y10200D01*
Y10100D02*
X62200Y10000D01*
Y9750D02*
X62500D01*
X62350Y9900D01*
Y9700D01*
X62500Y9400D02*
Y9600D01*
X62350D01*
Y9500D01*
Y9600D01*
X62200D01*
X62150Y9300D02*
Y9100D01*
X62500Y9000D02*
X62250D01*
X62200Y8950D01*
Y8850D01*
X62250Y8800D01*
X62500D01*
Y8501D02*
X62450Y8601D01*
X62350Y8700D01*
X62250D01*
X62200Y8651D01*
Y8551D01*
X62250Y8501D01*
X62300D01*
X62350Y8551D01*
Y8700D01*
X53700Y10300D02*
X54000D01*
Y10150D01*
X53950Y10100D01*
X53850D01*
X53800Y10150D01*
Y10300D01*
Y10200D02*
X53700Y10100D01*
Y9850D02*
X54000D01*
X53850Y10000D01*
Y9800D01*
X54000Y9500D02*
Y9700D01*
X53850D01*
Y9600D01*
Y9700D01*
X53700D01*
X53650Y9400D02*
Y9200D01*
X54000Y9100D02*
X53750D01*
X53700Y9050D01*
Y8950D01*
X53750Y8900D01*
X54000D01*
Y8601D02*
Y8800D01*
X53850D01*
X53900Y8701D01*
Y8651D01*
X53850Y8601D01*
X53750D01*
X53700Y8651D01*
Y8751D01*
X53750Y8800D01*
X45300Y10300D02*
X45600D01*
Y10150D01*
X45550Y10100D01*
X45450D01*
X45400Y10150D01*
Y10300D01*
Y10200D02*
X45300Y10100D01*
Y9850D02*
X45600D01*
X45450Y10000D01*
Y9800D01*
X45600Y9500D02*
Y9700D01*
X45450D01*
Y9600D01*
Y9700D01*
X45300D01*
X45250Y9400D02*
Y9200D01*
X45600Y9100D02*
X45350D01*
X45300Y9050D01*
Y8950D01*
X45350Y8900D01*
X45600D01*
X45300Y8651D02*
X45600D01*
X45450Y8800D01*
Y8601D01*
X36800Y10200D02*
X37100D01*
Y10050D01*
X37050Y10000D01*
X36950D01*
X36900Y10050D01*
Y10200D01*
Y10100D02*
X36800Y10000D01*
Y9750D02*
X37100D01*
X36950Y9900D01*
Y9700D01*
X37100Y9400D02*
Y9600D01*
X36950D01*
Y9500D01*
Y9600D01*
X36800D01*
X36750Y9300D02*
Y9100D01*
X37100Y9000D02*
X36850D01*
X36800Y8950D01*
Y8850D01*
X36850Y8800D01*
X37100D01*
X37050Y8700D02*
X37100Y8651D01*
Y8551D01*
X37050Y8501D01*
X37000D01*
X36950Y8551D01*
Y8601D01*
Y8551D01*
X36900Y8501D01*
X36850D01*
X36800Y8551D01*
Y8651D01*
X36850Y8700D01*
X28200Y10200D02*
X28500D01*
Y10050D01*
X28450Y10000D01*
X28350D01*
X28300Y10050D01*
Y10200D01*
Y10100D02*
X28200Y10000D01*
Y9750D02*
X28500D01*
X28350Y9900D01*
Y9700D01*
X28500Y9400D02*
Y9600D01*
X28350D01*
Y9500D01*
Y9600D01*
X28200D01*
X28150Y9300D02*
Y9100D01*
X28500Y9000D02*
X28250D01*
X28200Y8950D01*
Y8850D01*
X28250Y8800D01*
X28500D01*
X28200Y8501D02*
Y8700D01*
X28400Y8501D01*
X28450D01*
X28500Y8551D01*
Y8651D01*
X28450Y8700D01*
X19800Y10200D02*
X20100D01*
Y10050D01*
X20050Y10000D01*
X19950D01*
X19900Y10050D01*
Y10200D01*
Y10100D02*
X19800Y10000D01*
Y9750D02*
X20100D01*
X19950Y9900D01*
Y9700D01*
X20100Y9400D02*
Y9600D01*
X19950D01*
Y9500D01*
Y9600D01*
X19800D01*
X19750Y9300D02*
Y9100D01*
X20100Y9000D02*
X19850D01*
X19800Y8950D01*
Y8850D01*
X19850Y8800D01*
X20100D01*
X19800Y8700D02*
Y8601D01*
Y8651D01*
X20100D01*
X20050Y8700D01*
X56600Y9000D02*
X56300D01*
Y9150D01*
X56350Y9200D01*
X56450D01*
X56500Y9150D01*
Y9000D01*
Y9100D02*
X56600Y9200D01*
X56350Y9300D02*
X56300Y9350D01*
Y9450D01*
X56350Y9500D01*
X56400D01*
X56450Y9450D01*
Y9400D01*
Y9450D01*
X56500Y9500D01*
X56550D01*
X56600Y9450D01*
Y9350D01*
X56550Y9300D01*
X56300Y9800D02*
Y9600D01*
X56450D01*
Y9700D01*
Y9600D01*
X56600D01*
X56650Y9900D02*
Y10100D01*
X56300Y10200D02*
X56550D01*
X56600Y10250D01*
Y10350D01*
X56550Y10400D01*
X56300D01*
Y10699D02*
X56350Y10599D01*
X56450Y10500D01*
X56550D01*
X56600Y10549D01*
Y10649D01*
X56550Y10699D01*
X56500D01*
X56450Y10649D01*
Y10500D01*
X48000Y9100D02*
X47700D01*
Y9250D01*
X47750Y9300D01*
X47850D01*
X47900Y9250D01*
Y9100D01*
Y9200D02*
X48000Y9300D01*
X47750Y9400D02*
X47700Y9450D01*
Y9550D01*
X47750Y9600D01*
X47800D01*
X47850Y9550D01*
Y9500D01*
Y9550D01*
X47900Y9600D01*
X47950D01*
X48000Y9550D01*
Y9450D01*
X47950Y9400D01*
X47700Y9900D02*
Y9700D01*
X47850D01*
Y9800D01*
Y9700D01*
X48000D01*
X48050Y10000D02*
Y10200D01*
X47700Y10300D02*
X47950D01*
X48000Y10350D01*
Y10450D01*
X47950Y10500D01*
X47700D01*
Y10799D02*
Y10600D01*
X47850D01*
X47800Y10699D01*
Y10749D01*
X47850Y10799D01*
X47950D01*
X48000Y10749D01*
Y10649D01*
X47950Y10600D01*
X39600Y8800D02*
X39300D01*
Y8950D01*
X39350Y9000D01*
X39450D01*
X39500Y8950D01*
Y8800D01*
Y8900D02*
X39600Y9000D01*
X39350Y9100D02*
X39300Y9150D01*
Y9250D01*
X39350Y9300D01*
X39400D01*
X39450Y9250D01*
Y9200D01*
Y9250D01*
X39500Y9300D01*
X39550D01*
X39600Y9250D01*
Y9150D01*
X39550Y9100D01*
X39300Y9600D02*
Y9400D01*
X39450D01*
Y9500D01*
Y9400D01*
X39600D01*
X39650Y9700D02*
Y9900D01*
X39300Y10000D02*
X39550D01*
X39600Y10050D01*
Y10150D01*
X39550Y10200D01*
X39300D01*
X39600Y10449D02*
X39300D01*
X39450Y10300D01*
Y10499D01*
X31100Y8900D02*
X30800D01*
Y9050D01*
X30850Y9100D01*
X30950D01*
X31000Y9050D01*
Y8900D01*
Y9000D02*
X31100Y9100D01*
X30850Y9200D02*
X30800Y9250D01*
Y9350D01*
X30850Y9400D01*
X30900D01*
X30950Y9350D01*
Y9300D01*
Y9350D01*
X31000Y9400D01*
X31050D01*
X31100Y9350D01*
Y9250D01*
X31050Y9200D01*
X30800Y9700D02*
Y9500D01*
X30950D01*
Y9600D01*
Y9500D01*
X31100D01*
X31150Y9800D02*
Y10000D01*
X30800Y10100D02*
X31050D01*
X31100Y10150D01*
Y10250D01*
X31050Y10300D01*
X30800D01*
X30850Y10400D02*
X30800Y10450D01*
Y10549D01*
X30850Y10599D01*
X30900D01*
X30950Y10549D01*
Y10499D01*
Y10549D01*
X31000Y10599D01*
X31050D01*
X31100Y10549D01*
Y10450D01*
X31050Y10400D01*
X22600Y9000D02*
X22300D01*
Y9150D01*
X22350Y9200D01*
X22450D01*
X22500Y9150D01*
Y9000D01*
Y9100D02*
X22600Y9200D01*
X22350Y9300D02*
X22300Y9350D01*
Y9450D01*
X22350Y9500D01*
X22400D01*
X22450Y9450D01*
Y9400D01*
Y9450D01*
X22500Y9500D01*
X22550D01*
X22600Y9450D01*
Y9350D01*
X22550Y9300D01*
X22300Y9800D02*
Y9600D01*
X22450D01*
Y9700D01*
Y9600D01*
X22600D01*
X22650Y9900D02*
Y10100D01*
X22300Y10200D02*
X22550D01*
X22600Y10250D01*
Y10350D01*
X22550Y10400D01*
X22300D01*
X22600Y10699D02*
Y10500D01*
X22400Y10699D01*
X22350D01*
X22300Y10649D01*
Y10549D01*
X22350Y10500D01*
X14100Y9189D02*
X13800D01*
Y9339D01*
X13850Y9389D01*
X13950D01*
X14000Y9339D01*
Y9189D01*
Y9289D02*
X14100Y9389D01*
X13850Y9488D02*
X13800Y9538D01*
Y9638D01*
X13850Y9688D01*
X13900D01*
X13950Y9638D01*
Y9588D01*
Y9638D01*
X14000Y9688D01*
X14050D01*
X14100Y9638D01*
Y9538D01*
X14050Y9488D01*
X13800Y9988D02*
Y9788D01*
X13950D01*
Y9888D01*
Y9788D01*
X14100D01*
X14150Y10088D02*
Y10288D01*
X13800Y10388D02*
X14050D01*
X14100Y10438D01*
Y10538D01*
X14050Y10588D01*
X13800D01*
X14100Y10688D02*
Y10788D01*
Y10738D01*
X13800D01*
X13850Y10688D01*
X62223Y12450D02*
X62523D01*
Y12300D01*
X62473Y12250D01*
X62373D01*
X62323Y12300D01*
Y12450D01*
Y12350D02*
X62223Y12250D01*
Y11950D02*
Y12150D01*
X62423Y11950D01*
X62473D01*
X62523Y12000D01*
Y12100D01*
X62473Y12150D01*
X62523Y11650D02*
Y11850D01*
X62373D01*
Y11750D01*
Y11850D01*
X62223D01*
X62173Y11550D02*
Y11350D01*
X62523Y11250D02*
X62273D01*
X62223Y11200D01*
Y11100D01*
X62273Y11050D01*
X62523D01*
Y10751D02*
X62473Y10850D01*
X62373Y10950D01*
X62273D01*
X62223Y10900D01*
Y10800D01*
X62273Y10751D01*
X62323D01*
X62373Y10800D01*
Y10950D01*
X53723Y12450D02*
X54023D01*
Y12300D01*
X53973Y12250D01*
X53873D01*
X53823Y12300D01*
Y12450D01*
Y12350D02*
X53723Y12250D01*
Y11950D02*
Y12150D01*
X53923Y11950D01*
X53973D01*
X54023Y12000D01*
Y12100D01*
X53973Y12150D01*
X54023Y11650D02*
Y11850D01*
X53873D01*
Y11750D01*
Y11850D01*
X53723D01*
X53673Y11550D02*
Y11350D01*
X54023Y11250D02*
X53773D01*
X53723Y11200D01*
Y11100D01*
X53773Y11050D01*
X54023D01*
Y10751D02*
Y10950D01*
X53873D01*
X53923Y10850D01*
Y10800D01*
X53873Y10751D01*
X53773D01*
X53723Y10800D01*
Y10900D01*
X53773Y10950D01*
X45223Y12450D02*
X45523D01*
Y12300D01*
X45473Y12250D01*
X45373D01*
X45323Y12300D01*
Y12450D01*
Y12350D02*
X45223Y12250D01*
Y11950D02*
Y12150D01*
X45423Y11950D01*
X45473D01*
X45523Y12000D01*
Y12100D01*
X45473Y12150D01*
X45523Y11650D02*
Y11850D01*
X45373D01*
Y11750D01*
Y11850D01*
X45223D01*
X45173Y11550D02*
Y11350D01*
X45523Y11250D02*
X45273D01*
X45223Y11200D01*
Y11100D01*
X45273Y11050D01*
X45523D01*
X45223Y10800D02*
X45523D01*
X45373Y10950D01*
Y10751D01*
X36723Y12450D02*
X37023D01*
Y12300D01*
X36973Y12250D01*
X36873D01*
X36823Y12300D01*
Y12450D01*
Y12350D02*
X36723Y12250D01*
Y11950D02*
Y12150D01*
X36923Y11950D01*
X36973D01*
X37023Y12000D01*
Y12100D01*
X36973Y12150D01*
X37023Y11650D02*
Y11850D01*
X36873D01*
Y11750D01*
Y11850D01*
X36723D01*
X36673Y11550D02*
Y11350D01*
X37023Y11250D02*
X36773D01*
X36723Y11200D01*
Y11100D01*
X36773Y11050D01*
X37023D01*
X36973Y10950D02*
X37023Y10900D01*
Y10800D01*
X36973Y10751D01*
X36923D01*
X36873Y10800D01*
Y10850D01*
Y10800D01*
X36823Y10751D01*
X36773D01*
X36723Y10800D01*
Y10900D01*
X36773Y10950D01*
X28223Y12450D02*
X28523D01*
Y12300D01*
X28473Y12250D01*
X28373D01*
X28323Y12300D01*
Y12450D01*
Y12350D02*
X28223Y12250D01*
Y11950D02*
Y12150D01*
X28423Y11950D01*
X28473D01*
X28523Y12000D01*
Y12100D01*
X28473Y12150D01*
X28523Y11650D02*
Y11850D01*
X28373D01*
Y11750D01*
Y11850D01*
X28223D01*
X28173Y11550D02*
Y11350D01*
X28523Y11250D02*
X28273D01*
X28223Y11200D01*
Y11100D01*
X28273Y11050D01*
X28523D01*
X28223Y10751D02*
Y10950D01*
X28423Y10751D01*
X28473D01*
X28523Y10800D01*
Y10900D01*
X28473Y10950D01*
X19723Y12350D02*
X20023D01*
Y12200D01*
X19973Y12150D01*
X19873D01*
X19823Y12200D01*
Y12350D01*
Y12250D02*
X19723Y12150D01*
Y11850D02*
Y12050D01*
X19923Y11850D01*
X19973D01*
X20023Y11900D01*
Y12000D01*
X19973Y12050D01*
X20023Y11550D02*
Y11750D01*
X19873D01*
Y11650D01*
Y11750D01*
X19723D01*
X19673Y11450D02*
Y11250D01*
X20023Y11150D02*
X19773D01*
X19723Y11100D01*
Y11000D01*
X19773Y10950D01*
X20023D01*
X19723Y10850D02*
Y10751D01*
Y10800D01*
X20023D01*
X19973Y10850D01*
X56600Y11100D02*
X56300D01*
Y11250D01*
X56350Y11300D01*
X56450D01*
X56500Y11250D01*
Y11100D01*
Y11200D02*
X56600Y11300D01*
Y11400D02*
Y11500D01*
Y11450D01*
X56300D01*
X56350Y11400D01*
X56300Y11850D02*
Y11650D01*
X56450D01*
Y11750D01*
Y11650D01*
X56600D01*
X56650Y11950D02*
Y12150D01*
X56300Y12250D02*
X56550D01*
X56600Y12300D01*
Y12400D01*
X56550Y12450D01*
X56300D01*
Y12749D02*
X56350Y12650D01*
X56450Y12550D01*
X56550D01*
X56600Y12600D01*
Y12699D01*
X56550Y12749D01*
X56500D01*
X56450Y12699D01*
Y12550D01*
X48000Y11100D02*
X47700D01*
Y11250D01*
X47750Y11300D01*
X47850D01*
X47900Y11250D01*
Y11100D01*
Y11200D02*
X48000Y11300D01*
Y11400D02*
Y11500D01*
Y11450D01*
X47700D01*
X47750Y11400D01*
X47700Y11850D02*
Y11650D01*
X47850D01*
Y11750D01*
Y11650D01*
X48000D01*
X48050Y11950D02*
Y12150D01*
X47700Y12250D02*
X47950D01*
X48000Y12300D01*
Y12400D01*
X47950Y12450D01*
X47700D01*
Y12749D02*
Y12550D01*
X47850D01*
X47800Y12650D01*
Y12699D01*
X47850Y12749D01*
X47950D01*
X48000Y12699D01*
Y12600D01*
X47950Y12550D01*
X39600Y11100D02*
X39300D01*
Y11250D01*
X39350Y11300D01*
X39450D01*
X39500Y11250D01*
Y11100D01*
Y11200D02*
X39600Y11300D01*
Y11400D02*
Y11500D01*
Y11450D01*
X39300D01*
X39350Y11400D01*
X39300Y11850D02*
Y11650D01*
X39450D01*
Y11750D01*
Y11650D01*
X39600D01*
X39650Y11950D02*
Y12150D01*
X39300Y12250D02*
X39550D01*
X39600Y12300D01*
Y12400D01*
X39550Y12450D01*
X39300D01*
X39600Y12699D02*
X39300D01*
X39450Y12550D01*
Y12749D01*
X31084Y10950D02*
X30784D01*
Y11100D01*
X30834Y11150D01*
X30934D01*
X30984Y11100D01*
Y10950D01*
Y11050D02*
X31084Y11150D01*
Y11250D02*
Y11350D01*
Y11300D01*
X30784D01*
X30834Y11250D01*
X30784Y11700D02*
Y11500D01*
X30934D01*
Y11600D01*
Y11500D01*
X31084D01*
X31134Y11800D02*
Y12000D01*
X30784Y12100D02*
X31034D01*
X31084Y12150D01*
Y12250D01*
X31034Y12300D01*
X30784D01*
X30834Y12400D02*
X30784Y12450D01*
Y12549D01*
X30834Y12599D01*
X30884D01*
X30934Y12549D01*
Y12500D01*
Y12549D01*
X30984Y12599D01*
X31034D01*
X31084Y12549D01*
Y12450D01*
X31034Y12400D01*
X22600Y11100D02*
X22300D01*
Y11250D01*
X22350Y11300D01*
X22450D01*
X22500Y11250D01*
Y11100D01*
Y11200D02*
X22600Y11300D01*
Y11400D02*
Y11500D01*
Y11450D01*
X22300D01*
X22350Y11400D01*
X22300Y11850D02*
Y11650D01*
X22450D01*
Y11750D01*
Y11650D01*
X22600D01*
X22650Y11950D02*
Y12150D01*
X22300Y12250D02*
X22550D01*
X22600Y12300D01*
Y12400D01*
X22550Y12450D01*
X22300D01*
X22600Y12749D02*
Y12550D01*
X22400Y12749D01*
X22350D01*
X22300Y12699D01*
Y12600D01*
X22350Y12550D01*
X14100Y11100D02*
X13800D01*
Y11250D01*
X13850Y11300D01*
X13950D01*
X14000Y11250D01*
Y11100D01*
Y11200D02*
X14100Y11300D01*
Y11400D02*
Y11500D01*
Y11450D01*
X13800D01*
X13850Y11400D01*
X13800Y11850D02*
Y11650D01*
X13950D01*
Y11750D01*
Y11650D01*
X14100D01*
X14150Y11950D02*
Y12150D01*
X13800Y12250D02*
X14050D01*
X14100Y12300D01*
Y12400D01*
X14050Y12450D01*
X13800D01*
X14100Y12550D02*
Y12650D01*
Y12600D01*
X13800D01*
X13850Y12550D01*
X59527Y12450D02*
X59427D01*
X59377Y12400D01*
Y12200D01*
X59427Y12150D01*
X59527D01*
X59577Y12200D01*
Y12400D01*
X59527Y12450D01*
X59677Y12150D02*
X59777D01*
X59727D01*
Y12450D01*
X59677Y12400D01*
X60127Y12450D02*
X59927D01*
Y12300D01*
X60027D01*
X59927D01*
Y12150D01*
X60226Y12100D02*
X60426D01*
X60526Y12450D02*
Y12200D01*
X60576Y12150D01*
X60676D01*
X60726Y12200D01*
Y12450D01*
X61026D02*
X60926Y12400D01*
X60826Y12300D01*
Y12200D01*
X60876Y12150D01*
X60976D01*
X61026Y12200D01*
Y12250D01*
X60976Y12300D01*
X60826D01*
X51027Y12450D02*
X50927D01*
X50877Y12400D01*
Y12200D01*
X50927Y12150D01*
X51027D01*
X51077Y12200D01*
Y12400D01*
X51027Y12450D01*
X51177Y12150D02*
X51277D01*
X51227D01*
Y12450D01*
X51177Y12400D01*
X51627Y12450D02*
X51427D01*
Y12300D01*
X51527D01*
X51427D01*
Y12150D01*
X51726Y12100D02*
X51926D01*
X52026Y12450D02*
Y12200D01*
X52076Y12150D01*
X52176D01*
X52226Y12200D01*
Y12450D01*
X52526D02*
X52326D01*
Y12300D01*
X52426Y12350D01*
X52476D01*
X52526Y12300D01*
Y12200D01*
X52476Y12150D01*
X52376D01*
X52326Y12200D01*
X42527Y12450D02*
X42427D01*
X42377Y12400D01*
Y12200D01*
X42427Y12150D01*
X42527D01*
X42577Y12200D01*
Y12400D01*
X42527Y12450D01*
X42677Y12150D02*
X42777D01*
X42727D01*
Y12450D01*
X42677Y12400D01*
X43127Y12450D02*
X42927D01*
Y12300D01*
X43027D01*
X42927D01*
Y12150D01*
X43226Y12100D02*
X43426D01*
X43526Y12450D02*
Y12200D01*
X43576Y12150D01*
X43676D01*
X43726Y12200D01*
Y12450D01*
X43976Y12150D02*
Y12450D01*
X43826Y12300D01*
X44026D01*
X34027Y12450D02*
X33927D01*
X33877Y12400D01*
Y12200D01*
X33927Y12150D01*
X34027D01*
X34077Y12200D01*
Y12400D01*
X34027Y12450D01*
X34177Y12150D02*
X34277D01*
X34227D01*
Y12450D01*
X34177Y12400D01*
X34627Y12450D02*
X34427D01*
Y12300D01*
X34527D01*
X34427D01*
Y12150D01*
X34727Y12100D02*
X34926D01*
X35026Y12450D02*
Y12200D01*
X35076Y12150D01*
X35176D01*
X35226Y12200D01*
Y12450D01*
X35326Y12400D02*
X35376Y12450D01*
X35476D01*
X35526Y12400D01*
Y12350D01*
X35476Y12300D01*
X35426D01*
X35476D01*
X35526Y12250D01*
Y12200D01*
X35476Y12150D01*
X35376D01*
X35326Y12200D01*
X25527Y12450D02*
X25427D01*
X25377Y12400D01*
Y12200D01*
X25427Y12150D01*
X25527D01*
X25577Y12200D01*
Y12400D01*
X25527Y12450D01*
X25677Y12150D02*
X25777D01*
X25727D01*
Y12450D01*
X25677Y12400D01*
X26127Y12450D02*
X25927D01*
Y12300D01*
X26027D01*
X25927D01*
Y12150D01*
X26226Y12100D02*
X26426D01*
X26526Y12450D02*
Y12200D01*
X26576Y12150D01*
X26676D01*
X26726Y12200D01*
Y12450D01*
X27026Y12150D02*
X26826D01*
X27026Y12350D01*
Y12400D01*
X26976Y12450D01*
X26876D01*
X26826Y12400D01*
X17027Y12450D02*
X16927D01*
X16877Y12400D01*
Y12200D01*
X16927Y12150D01*
X17027D01*
X17077Y12200D01*
Y12400D01*
X17027Y12450D01*
X17177Y12150D02*
X17277D01*
X17227D01*
Y12450D01*
X17177Y12400D01*
X17627Y12450D02*
X17427D01*
Y12300D01*
X17527D01*
X17427D01*
Y12150D01*
X17727Y12100D02*
X17926D01*
X18026Y12450D02*
Y12200D01*
X18076Y12150D01*
X18176D01*
X18226Y12200D01*
Y12450D01*
X18326Y12150D02*
X18426D01*
X18376D01*
Y12450D01*
X18326Y12400D01*
X17140Y7110D02*
Y7410D01*
X17290D01*
X17340Y7360D01*
Y7260D01*
X17290Y7210D01*
X17140D01*
X17440Y7110D02*
X17540D01*
X17490D01*
Y7410D01*
X17440Y7360D01*
X17890Y7410D02*
X17690D01*
Y7260D01*
X17790D01*
X17690D01*
Y7110D01*
X10500Y25300D02*
Y25600D01*
X10650D01*
X10700Y25550D01*
Y25450D01*
X10650Y25400D01*
X10500D01*
X11000Y25300D02*
X10800D01*
X11000Y25500D01*
Y25550D01*
X10950Y25600D01*
X10850D01*
X10800Y25550D01*
X11300Y25600D02*
X11100D01*
Y25450D01*
X11200D01*
X11100D01*
Y25300D01*
X40200Y5000D02*
X39900D01*
Y5150D01*
X39950Y5200D01*
X40050D01*
X40100Y5150D01*
Y5000D01*
Y5100D02*
X40200Y5200D01*
X39900Y5500D02*
Y5300D01*
X40050D01*
X40000Y5400D01*
Y5450D01*
X40050Y5500D01*
X40150D01*
X40200Y5450D01*
Y5350D01*
X40150Y5300D01*
X39900Y5800D02*
Y5600D01*
X40050D01*
Y5700D01*
Y5600D01*
X40200D01*
X42000Y6500D02*
X42200Y6200D01*
Y6500D02*
X42000Y6200D01*
X42300D02*
X42400D01*
X42350D01*
Y6500D01*
X42300Y6450D01*
X42750Y6500D02*
X42550D01*
Y6350D01*
X42650D01*
X42550D01*
Y6200D01*
X60000Y6000D02*
X60200D01*
X60100D01*
Y5700D01*
X60300Y6000D02*
X60500Y5700D01*
Y6000D02*
X60300Y5700D01*
X60000Y4700D02*
Y5000D01*
X60150D01*
X60200Y4950D01*
Y4850D01*
X60150Y4800D01*
X60000D01*
X60100D02*
X60200Y4700D01*
X60300Y5000D02*
X60500Y4700D01*
Y5000D02*
X60300Y4700D01*
X55500Y6200D02*
Y6500D01*
X55650D01*
X55700Y6450D01*
Y6350D01*
X55650Y6300D01*
X55500D01*
X55600D02*
X55700Y6200D01*
X56000Y6500D02*
X55900Y6450D01*
X55800Y6350D01*
Y6250D01*
X55850Y6200D01*
X55950D01*
X56000Y6250D01*
Y6300D01*
X55950Y6350D01*
X55800D01*
X56300Y6500D02*
X56100D01*
Y6350D01*
X56200D01*
X56100D01*
Y6200D01*
X55365Y5200D02*
Y5500D01*
X55515D01*
X55565Y5450D01*
Y5350D01*
X55515Y5300D01*
X55365D01*
X55465D02*
X55565Y5200D01*
X55665Y5500D02*
X55865D01*
Y5450D01*
X55665Y5250D01*
Y5200D01*
X56165Y5500D02*
X55965D01*
Y5350D01*
X56065D01*
X55965D01*
Y5200D01*
D42*
X48800Y23850D02*
X48750Y23900D01*
X48650D01*
X48600Y23850D01*
Y23650D01*
X48650Y23600D01*
X48750D01*
X48800Y23650D01*
Y23750D01*
X48700D01*
X48900Y23600D02*
Y23900D01*
X49100Y23600D01*
Y23900D01*
X49200D02*
Y23600D01*
X49350D01*
X49400Y23650D01*
Y23850D01*
X49350Y23900D01*
X49200D01*
X50550D02*
X50450D01*
X50400Y23850D01*
Y23650D01*
X50450Y23600D01*
X50550D01*
X50600Y23650D01*
Y23850D01*
X50550Y23900D01*
X50700D02*
Y23650D01*
X50750Y23600D01*
X50850D01*
X50900Y23650D01*
Y23900D01*
X51000D02*
X51200D01*
X51100D01*
Y23600D01*
X51300Y23900D02*
Y23600D01*
X51450D01*
X51500Y23650D01*
Y23700D01*
X51450Y23750D01*
X51300D01*
X51450D01*
X51500Y23800D01*
Y23850D01*
X51450Y23900D01*
X51300D01*
X52550D02*
X52450D01*
X52400Y23850D01*
Y23650D01*
X52450Y23600D01*
X52550D01*
X52600Y23650D01*
Y23850D01*
X52550Y23900D01*
X52700D02*
Y23650D01*
X52750Y23600D01*
X52850D01*
X52900Y23650D01*
Y23900D01*
X53000D02*
X53200D01*
X53100D01*
Y23600D01*
X53300D02*
Y23800D01*
X53400Y23900D01*
X53500Y23800D01*
Y23600D01*
Y23750D01*
X53300D01*
X54800Y23900D02*
Y23700D01*
X54900Y23600D01*
X55000Y23700D01*
Y23900D01*
X55100Y23750D02*
X55300D01*
X55200Y23850D02*
Y23650D01*
X55650Y14550D02*
X55450D01*
X55350Y14450D01*
X55450Y14350D01*
X55650D01*
X55500Y14250D02*
Y14050D01*
X55600Y14150D02*
X55400D01*
X54650Y14350D02*
Y14550D01*
X54500D01*
X54550Y14450D01*
Y14400D01*
X54500Y14350D01*
X54400D01*
X54350Y14400D01*
Y14500D01*
X54400Y14550D01*
X54650Y14250D02*
X54450D01*
X54350Y14150D01*
X54450Y14050D01*
X54650D01*
X53650Y14600D02*
Y14800D01*
X53500D01*
Y14700D01*
Y14800D01*
X53350D01*
X53650Y14300D02*
Y14500D01*
X53500D01*
Y14400D01*
Y14500D01*
X53350D01*
Y14000D02*
Y14200D01*
X53550Y14000D01*
X53600D01*
X53650Y14050D01*
Y14150D01*
X53600Y14200D01*
X52650Y14550D02*
Y14750D01*
X52500D01*
Y14650D01*
Y14750D01*
X52350D01*
X52650Y14250D02*
Y14450D01*
X52500D01*
Y14350D01*
Y14450D01*
X52350D01*
Y14150D02*
Y14050D01*
Y14100D01*
X52650D01*
X52600Y14150D01*
X51350Y15450D02*
X51650D01*
Y15300D01*
X51600Y15250D01*
X51500D01*
X51450Y15300D01*
Y15450D01*
Y15350D02*
X51350Y15250D01*
X51650Y14950D02*
Y15150D01*
X51350D01*
Y14950D01*
X51500Y15150D02*
Y15050D01*
X51600Y14650D02*
X51650Y14700D01*
Y14800D01*
X51600Y14850D01*
X51550D01*
X51500Y14800D01*
Y14700D01*
X51450Y14650D01*
X51400D01*
X51350Y14700D01*
Y14800D01*
X51400Y14850D01*
X51650Y14350D02*
Y14550D01*
X51350D01*
Y14350D01*
X51500Y14550D02*
Y14450D01*
X51650Y14250D02*
Y14050D01*
Y14150D01*
X51350D01*
X50350Y14850D02*
X50650D01*
Y14700D01*
X50600Y14650D01*
X50500D01*
X50450Y14700D01*
Y14850D01*
X50650Y14550D02*
X50350D01*
X50450Y14450D01*
X50350Y14350D01*
X50650D01*
X50350Y14250D02*
X50650D01*
X50550Y14150D01*
X50650Y14050D01*
X50350D01*
X49650Y14800D02*
X49350D01*
Y14650D01*
X49400Y14600D01*
X49600D01*
X49650Y14650D01*
Y14800D01*
Y14500D02*
Y14400D01*
Y14450D01*
X49350D01*
Y14500D01*
Y14400D01*
Y14250D02*
X49650D01*
Y14100D01*
X49600Y14050D01*
X49500D01*
X49450Y14100D01*
Y14250D01*
Y14150D02*
X49350Y14050D01*
X48600Y14650D02*
X48650Y14700D01*
Y14800D01*
X48600Y14850D01*
X48400D01*
X48350Y14800D01*
Y14700D01*
X48400Y14650D01*
X48500D01*
Y14750D01*
X48350Y14550D02*
X48650D01*
X48350Y14350D01*
X48650D01*
Y14250D02*
X48350D01*
Y14100D01*
X48400Y14050D01*
X48600D01*
X48650Y14100D01*
Y14250D01*
X57300Y23850D02*
X57250Y23900D01*
X57150D01*
X57100Y23850D01*
Y23650D01*
X57150Y23600D01*
X57250D01*
X57300Y23650D01*
Y23750D01*
X57200D01*
X57400Y23600D02*
Y23900D01*
X57600Y23600D01*
Y23900D01*
X57700D02*
Y23600D01*
X57850D01*
X57900Y23650D01*
Y23850D01*
X57850Y23900D01*
X57700D01*
X59050D02*
X58950D01*
X58900Y23850D01*
Y23650D01*
X58950Y23600D01*
X59050D01*
X59100Y23650D01*
Y23850D01*
X59050Y23900D01*
X59200D02*
Y23650D01*
X59250Y23600D01*
X59350D01*
X59400Y23650D01*
Y23900D01*
X59500D02*
X59700D01*
X59600D01*
Y23600D01*
X59800Y23900D02*
Y23600D01*
X59950D01*
X60000Y23650D01*
Y23700D01*
X59950Y23750D01*
X59800D01*
X59950D01*
X60000Y23800D01*
Y23850D01*
X59950Y23900D01*
X59800D01*
X61050D02*
X60950D01*
X60900Y23850D01*
Y23650D01*
X60950Y23600D01*
X61050D01*
X61100Y23650D01*
Y23850D01*
X61050Y23900D01*
X61200D02*
Y23650D01*
X61250Y23600D01*
X61350D01*
X61400Y23650D01*
Y23900D01*
X61500D02*
X61700D01*
X61600D01*
Y23600D01*
X61800D02*
Y23800D01*
X61900Y23900D01*
X62000Y23800D01*
Y23600D01*
Y23750D01*
X61800D01*
X63300Y23900D02*
Y23700D01*
X63400Y23600D01*
X63500Y23700D01*
Y23900D01*
X63600Y23750D02*
X63800D01*
X63700Y23850D02*
Y23650D01*
X64150Y14550D02*
X63950D01*
X63850Y14450D01*
X63950Y14350D01*
X64150D01*
X64000Y14250D02*
Y14050D01*
X64100Y14150D02*
X63900D01*
X63150Y14350D02*
Y14550D01*
X63000D01*
X63050Y14450D01*
Y14400D01*
X63000Y14350D01*
X62900D01*
X62850Y14400D01*
Y14500D01*
X62900Y14550D01*
X63150Y14250D02*
X62950D01*
X62850Y14150D01*
X62950Y14050D01*
X63150D01*
X62150Y14600D02*
Y14800D01*
X62000D01*
Y14700D01*
Y14800D01*
X61850D01*
X62150Y14300D02*
Y14500D01*
X62000D01*
Y14400D01*
Y14500D01*
X61850D01*
Y14000D02*
Y14200D01*
X62050Y14000D01*
X62100D01*
X62150Y14050D01*
Y14150D01*
X62100Y14200D01*
X61150Y14550D02*
Y14750D01*
X61000D01*
Y14650D01*
Y14750D01*
X60850D01*
X61150Y14250D02*
Y14450D01*
X61000D01*
Y14350D01*
Y14450D01*
X60850D01*
Y14150D02*
Y14050D01*
Y14100D01*
X61150D01*
X61100Y14150D01*
X59850Y15450D02*
X60150D01*
Y15300D01*
X60100Y15250D01*
X60000D01*
X59950Y15300D01*
Y15450D01*
Y15350D02*
X59850Y15250D01*
X60150Y14950D02*
Y15150D01*
X59850D01*
Y14950D01*
X60000Y15150D02*
Y15050D01*
X60100Y14650D02*
X60150Y14700D01*
Y14800D01*
X60100Y14850D01*
X60050D01*
X60000Y14800D01*
Y14700D01*
X59950Y14650D01*
X59900D01*
X59850Y14700D01*
Y14800D01*
X59900Y14850D01*
X60150Y14350D02*
Y14550D01*
X59850D01*
Y14350D01*
X60000Y14550D02*
Y14450D01*
X60150Y14250D02*
Y14050D01*
Y14150D01*
X59850D01*
X58850Y14850D02*
X59150D01*
Y14700D01*
X59100Y14650D01*
X59000D01*
X58950Y14700D01*
Y14850D01*
X59150Y14550D02*
X58850D01*
X58950Y14450D01*
X58850Y14350D01*
X59150D01*
X58850Y14250D02*
X59150D01*
X59050Y14150D01*
X59150Y14050D01*
X58850D01*
X58150Y14800D02*
X57850D01*
Y14650D01*
X57900Y14600D01*
X58100D01*
X58150Y14650D01*
Y14800D01*
Y14500D02*
Y14400D01*
Y14450D01*
X57850D01*
Y14500D01*
Y14400D01*
Y14250D02*
X58150D01*
Y14100D01*
X58100Y14050D01*
X58000D01*
X57950Y14100D01*
Y14250D01*
Y14150D02*
X57850Y14050D01*
X57100Y14650D02*
X57150Y14700D01*
Y14800D01*
X57100Y14850D01*
X56900D01*
X56850Y14800D01*
Y14700D01*
X56900Y14650D01*
X57000D01*
Y14750D01*
X56850Y14550D02*
X57150D01*
X56850Y14350D01*
X57150D01*
Y14250D02*
X56850D01*
Y14100D01*
X56900Y14050D01*
X57100D01*
X57150Y14100D01*
Y14250D01*
X40300Y23850D02*
X40250Y23900D01*
X40150D01*
X40100Y23850D01*
Y23650D01*
X40150Y23600D01*
X40250D01*
X40300Y23650D01*
Y23750D01*
X40200D01*
X40400Y23600D02*
Y23900D01*
X40600Y23600D01*
Y23900D01*
X40700D02*
Y23600D01*
X40850D01*
X40900Y23650D01*
Y23850D01*
X40850Y23900D01*
X40700D01*
X42050D02*
X41950D01*
X41900Y23850D01*
Y23650D01*
X41950Y23600D01*
X42050D01*
X42100Y23650D01*
Y23850D01*
X42050Y23900D01*
X42200D02*
Y23650D01*
X42250Y23600D01*
X42350D01*
X42400Y23650D01*
Y23900D01*
X42500D02*
X42700D01*
X42600D01*
Y23600D01*
X42800Y23900D02*
Y23600D01*
X42950D01*
X43000Y23650D01*
Y23700D01*
X42950Y23750D01*
X42800D01*
X42950D01*
X43000Y23800D01*
Y23850D01*
X42950Y23900D01*
X42800D01*
X44050D02*
X43950D01*
X43900Y23850D01*
Y23650D01*
X43950Y23600D01*
X44050D01*
X44100Y23650D01*
Y23850D01*
X44050Y23900D01*
X44200D02*
Y23650D01*
X44250Y23600D01*
X44350D01*
X44400Y23650D01*
Y23900D01*
X44500D02*
X44700D01*
X44600D01*
Y23600D01*
X44800D02*
Y23800D01*
X44900Y23900D01*
X45000Y23800D01*
Y23600D01*
Y23750D01*
X44800D01*
X46300Y23900D02*
Y23700D01*
X46400Y23600D01*
X46500Y23700D01*
Y23900D01*
X46600Y23750D02*
X46800D01*
X46700Y23850D02*
Y23650D01*
X47150Y14550D02*
X46950D01*
X46850Y14450D01*
X46950Y14350D01*
X47150D01*
X47000Y14250D02*
Y14050D01*
X47100Y14150D02*
X46900D01*
X46150Y14350D02*
Y14550D01*
X46000D01*
X46050Y14450D01*
Y14400D01*
X46000Y14350D01*
X45900D01*
X45850Y14400D01*
Y14500D01*
X45900Y14550D01*
X46150Y14250D02*
X45950D01*
X45850Y14150D01*
X45950Y14050D01*
X46150D01*
X45150Y14600D02*
Y14800D01*
X45000D01*
Y14700D01*
Y14800D01*
X44850D01*
X45150Y14300D02*
Y14500D01*
X45000D01*
Y14400D01*
Y14500D01*
X44850D01*
Y14000D02*
Y14200D01*
X45050Y14000D01*
X45100D01*
X45150Y14050D01*
Y14150D01*
X45100Y14200D01*
X44150Y14550D02*
Y14750D01*
X44000D01*
Y14650D01*
Y14750D01*
X43850D01*
X44150Y14250D02*
Y14450D01*
X44000D01*
Y14350D01*
Y14450D01*
X43850D01*
Y14150D02*
Y14050D01*
Y14100D01*
X44150D01*
X44100Y14150D01*
X42850Y15450D02*
X43150D01*
Y15300D01*
X43100Y15250D01*
X43000D01*
X42950Y15300D01*
Y15450D01*
Y15350D02*
X42850Y15250D01*
X43150Y14950D02*
Y15150D01*
X42850D01*
Y14950D01*
X43000Y15150D02*
Y15050D01*
X43100Y14650D02*
X43150Y14700D01*
Y14800D01*
X43100Y14850D01*
X43050D01*
X43000Y14800D01*
Y14700D01*
X42950Y14650D01*
X42900D01*
X42850Y14700D01*
Y14800D01*
X42900Y14850D01*
X43150Y14350D02*
Y14550D01*
X42850D01*
Y14350D01*
X43000Y14550D02*
Y14450D01*
X43150Y14250D02*
Y14050D01*
Y14150D01*
X42850D01*
X41850Y14850D02*
X42150D01*
Y14700D01*
X42100Y14650D01*
X42000D01*
X41950Y14700D01*
Y14850D01*
X42150Y14550D02*
X41850D01*
X41950Y14450D01*
X41850Y14350D01*
X42150D01*
X41850Y14250D02*
X42150D01*
X42050Y14150D01*
X42150Y14050D01*
X41850D01*
X41150Y14800D02*
X40850D01*
Y14650D01*
X40900Y14600D01*
X41100D01*
X41150Y14650D01*
Y14800D01*
Y14500D02*
Y14400D01*
Y14450D01*
X40850D01*
Y14500D01*
Y14400D01*
Y14250D02*
X41150D01*
Y14100D01*
X41100Y14050D01*
X41000D01*
X40950Y14100D01*
Y14250D01*
Y14150D02*
X40850Y14050D01*
X40100Y14650D02*
X40150Y14700D01*
Y14800D01*
X40100Y14850D01*
X39900D01*
X39850Y14800D01*
Y14700D01*
X39900Y14650D01*
X40000D01*
Y14750D01*
X39850Y14550D02*
X40150D01*
X39850Y14350D01*
X40150D01*
Y14250D02*
X39850D01*
Y14100D01*
X39900Y14050D01*
X40100D01*
X40150Y14100D01*
Y14250D01*
X31800Y23850D02*
X31750Y23900D01*
X31650D01*
X31600Y23850D01*
Y23650D01*
X31650Y23600D01*
X31750D01*
X31800Y23650D01*
Y23750D01*
X31700D01*
X31900Y23600D02*
Y23900D01*
X32100Y23600D01*
Y23900D01*
X32200D02*
Y23600D01*
X32350D01*
X32400Y23650D01*
Y23850D01*
X32350Y23900D01*
X32200D01*
X33550D02*
X33450D01*
X33400Y23850D01*
Y23650D01*
X33450Y23600D01*
X33550D01*
X33600Y23650D01*
Y23850D01*
X33550Y23900D01*
X33700D02*
Y23650D01*
X33750Y23600D01*
X33850D01*
X33900Y23650D01*
Y23900D01*
X34000D02*
X34200D01*
X34100D01*
Y23600D01*
X34300Y23900D02*
Y23600D01*
X34450D01*
X34500Y23650D01*
Y23700D01*
X34450Y23750D01*
X34300D01*
X34450D01*
X34500Y23800D01*
Y23850D01*
X34450Y23900D01*
X34300D01*
X35550D02*
X35450D01*
X35400Y23850D01*
Y23650D01*
X35450Y23600D01*
X35550D01*
X35600Y23650D01*
Y23850D01*
X35550Y23900D01*
X35700D02*
Y23650D01*
X35750Y23600D01*
X35850D01*
X35900Y23650D01*
Y23900D01*
X36000D02*
X36200D01*
X36100D01*
Y23600D01*
X36300D02*
Y23800D01*
X36400Y23900D01*
X36500Y23800D01*
Y23600D01*
Y23750D01*
X36300D01*
X37800Y23900D02*
Y23700D01*
X37900Y23600D01*
X38000Y23700D01*
Y23900D01*
X38100Y23750D02*
X38300D01*
X38200Y23850D02*
Y23650D01*
X38650Y14550D02*
X38450D01*
X38350Y14450D01*
X38450Y14350D01*
X38650D01*
X38500Y14250D02*
Y14050D01*
X38600Y14150D02*
X38400D01*
X37650Y14350D02*
Y14550D01*
X37500D01*
X37550Y14450D01*
Y14400D01*
X37500Y14350D01*
X37400D01*
X37350Y14400D01*
Y14500D01*
X37400Y14550D01*
X37650Y14250D02*
X37450D01*
X37350Y14150D01*
X37450Y14050D01*
X37650D01*
X36650Y14600D02*
Y14800D01*
X36500D01*
Y14700D01*
Y14800D01*
X36350D01*
X36650Y14300D02*
Y14500D01*
X36500D01*
Y14400D01*
Y14500D01*
X36350D01*
Y14000D02*
Y14200D01*
X36550Y14000D01*
X36600D01*
X36650Y14050D01*
Y14150D01*
X36600Y14200D01*
X35650Y14550D02*
Y14750D01*
X35500D01*
Y14650D01*
Y14750D01*
X35350D01*
X35650Y14250D02*
Y14450D01*
X35500D01*
Y14350D01*
Y14450D01*
X35350D01*
Y14150D02*
Y14050D01*
Y14100D01*
X35650D01*
X35600Y14150D01*
X34350Y15450D02*
X34650D01*
Y15300D01*
X34600Y15250D01*
X34500D01*
X34450Y15300D01*
Y15450D01*
Y15350D02*
X34350Y15250D01*
X34650Y14950D02*
Y15150D01*
X34350D01*
Y14950D01*
X34500Y15150D02*
Y15050D01*
X34600Y14650D02*
X34650Y14700D01*
Y14800D01*
X34600Y14850D01*
X34550D01*
X34500Y14800D01*
Y14700D01*
X34450Y14650D01*
X34400D01*
X34350Y14700D01*
Y14800D01*
X34400Y14850D01*
X34650Y14350D02*
Y14550D01*
X34350D01*
Y14350D01*
X34500Y14550D02*
Y14450D01*
X34650Y14250D02*
Y14050D01*
Y14150D01*
X34350D01*
X33350Y14850D02*
X33650D01*
Y14700D01*
X33600Y14650D01*
X33500D01*
X33450Y14700D01*
Y14850D01*
X33650Y14550D02*
X33350D01*
X33450Y14450D01*
X33350Y14350D01*
X33650D01*
X33350Y14250D02*
X33650D01*
X33550Y14150D01*
X33650Y14050D01*
X33350D01*
X32650Y14800D02*
X32350D01*
Y14650D01*
X32400Y14600D01*
X32600D01*
X32650Y14650D01*
Y14800D01*
Y14500D02*
Y14400D01*
Y14450D01*
X32350D01*
Y14500D01*
Y14400D01*
Y14250D02*
X32650D01*
Y14100D01*
X32600Y14050D01*
X32500D01*
X32450Y14100D01*
Y14250D01*
Y14150D02*
X32350Y14050D01*
X31600Y14650D02*
X31650Y14700D01*
Y14800D01*
X31600Y14850D01*
X31400D01*
X31350Y14800D01*
Y14700D01*
X31400Y14650D01*
X31500D01*
Y14750D01*
X31350Y14550D02*
X31650D01*
X31350Y14350D01*
X31650D01*
Y14250D02*
X31350D01*
Y14100D01*
X31400Y14050D01*
X31600D01*
X31650Y14100D01*
Y14250D01*
X23300Y23850D02*
X23250Y23900D01*
X23150D01*
X23100Y23850D01*
Y23650D01*
X23150Y23600D01*
X23250D01*
X23300Y23650D01*
Y23750D01*
X23200D01*
X23400Y23600D02*
Y23900D01*
X23600Y23600D01*
Y23900D01*
X23700D02*
Y23600D01*
X23850D01*
X23900Y23650D01*
Y23850D01*
X23850Y23900D01*
X23700D01*
X25050D02*
X24950D01*
X24900Y23850D01*
Y23650D01*
X24950Y23600D01*
X25050D01*
X25100Y23650D01*
Y23850D01*
X25050Y23900D01*
X25200D02*
Y23650D01*
X25250Y23600D01*
X25350D01*
X25400Y23650D01*
Y23900D01*
X25500D02*
X25700D01*
X25600D01*
Y23600D01*
X25800Y23900D02*
Y23600D01*
X25950D01*
X26000Y23650D01*
Y23700D01*
X25950Y23750D01*
X25800D01*
X25950D01*
X26000Y23800D01*
Y23850D01*
X25950Y23900D01*
X25800D01*
X27050D02*
X26950D01*
X26900Y23850D01*
Y23650D01*
X26950Y23600D01*
X27050D01*
X27100Y23650D01*
Y23850D01*
X27050Y23900D01*
X27200D02*
Y23650D01*
X27250Y23600D01*
X27350D01*
X27400Y23650D01*
Y23900D01*
X27500D02*
X27700D01*
X27600D01*
Y23600D01*
X27800D02*
Y23800D01*
X27900Y23900D01*
X28000Y23800D01*
Y23600D01*
Y23750D01*
X27800D01*
X29300Y23900D02*
Y23700D01*
X29400Y23600D01*
X29500Y23700D01*
Y23900D01*
X29600Y23750D02*
X29800D01*
X29700Y23850D02*
Y23650D01*
X30150Y14550D02*
X29950D01*
X29850Y14450D01*
X29950Y14350D01*
X30150D01*
X30000Y14250D02*
Y14050D01*
X30100Y14150D02*
X29900D01*
X29150Y14350D02*
Y14550D01*
X29000D01*
X29050Y14450D01*
Y14400D01*
X29000Y14350D01*
X28900D01*
X28850Y14400D01*
Y14500D01*
X28900Y14550D01*
X29150Y14250D02*
X28950D01*
X28850Y14150D01*
X28950Y14050D01*
X29150D01*
X28150Y14600D02*
Y14800D01*
X28000D01*
Y14700D01*
Y14800D01*
X27850D01*
X28150Y14300D02*
Y14500D01*
X28000D01*
Y14400D01*
Y14500D01*
X27850D01*
Y14000D02*
Y14200D01*
X28050Y14000D01*
X28100D01*
X28150Y14050D01*
Y14150D01*
X28100Y14200D01*
X27150Y14550D02*
Y14750D01*
X27000D01*
Y14650D01*
Y14750D01*
X26850D01*
X27150Y14250D02*
Y14450D01*
X27000D01*
Y14350D01*
Y14450D01*
X26850D01*
Y14150D02*
Y14050D01*
Y14100D01*
X27150D01*
X27100Y14150D01*
X25850Y15450D02*
X26150D01*
Y15300D01*
X26100Y15250D01*
X26000D01*
X25950Y15300D01*
Y15450D01*
Y15350D02*
X25850Y15250D01*
X26150Y14950D02*
Y15150D01*
X25850D01*
Y14950D01*
X26000Y15150D02*
Y15050D01*
X26100Y14650D02*
X26150Y14700D01*
Y14800D01*
X26100Y14850D01*
X26050D01*
X26000Y14800D01*
Y14700D01*
X25950Y14650D01*
X25900D01*
X25850Y14700D01*
Y14800D01*
X25900Y14850D01*
X26150Y14350D02*
Y14550D01*
X25850D01*
Y14350D01*
X26000Y14550D02*
Y14450D01*
X26150Y14250D02*
Y14050D01*
Y14150D01*
X25850D01*
X24850Y14850D02*
X25150D01*
Y14700D01*
X25100Y14650D01*
X25000D01*
X24950Y14700D01*
Y14850D01*
X25150Y14550D02*
X24850D01*
X24950Y14450D01*
X24850Y14350D01*
X25150D01*
X24850Y14250D02*
X25150D01*
X25050Y14150D01*
X25150Y14050D01*
X24850D01*
X24150Y14800D02*
X23850D01*
Y14650D01*
X23900Y14600D01*
X24100D01*
X24150Y14650D01*
Y14800D01*
Y14500D02*
Y14400D01*
Y14450D01*
X23850D01*
Y14500D01*
Y14400D01*
Y14250D02*
X24150D01*
Y14100D01*
X24100Y14050D01*
X24000D01*
X23950Y14100D01*
Y14250D01*
Y14150D02*
X23850Y14050D01*
X23100Y14650D02*
X23150Y14700D01*
Y14800D01*
X23100Y14850D01*
X22900D01*
X22850Y14800D01*
Y14700D01*
X22900Y14650D01*
X23000D01*
Y14750D01*
X22850Y14550D02*
X23150D01*
X22850Y14350D01*
X23150D01*
Y14250D02*
X22850D01*
Y14100D01*
X22900Y14050D01*
X23100D01*
X23150Y14100D01*
Y14250D01*
X14800Y23850D02*
X14750Y23900D01*
X14650D01*
X14600Y23850D01*
Y23650D01*
X14650Y23600D01*
X14750D01*
X14800Y23650D01*
Y23750D01*
X14700D01*
X14900Y23600D02*
Y23900D01*
X15100Y23600D01*
Y23900D01*
X15200D02*
Y23600D01*
X15350D01*
X15400Y23650D01*
Y23850D01*
X15350Y23900D01*
X15200D01*
X16550D02*
X16450D01*
X16400Y23850D01*
Y23650D01*
X16450Y23600D01*
X16550D01*
X16600Y23650D01*
Y23850D01*
X16550Y23900D01*
X16700D02*
Y23650D01*
X16750Y23600D01*
X16850D01*
X16900Y23650D01*
Y23900D01*
X17000D02*
X17200D01*
X17100D01*
Y23600D01*
X17300Y23900D02*
Y23600D01*
X17450D01*
X17500Y23650D01*
Y23700D01*
X17450Y23750D01*
X17300D01*
X17450D01*
X17500Y23800D01*
Y23850D01*
X17450Y23900D01*
X17300D01*
X18550D02*
X18450D01*
X18400Y23850D01*
Y23650D01*
X18450Y23600D01*
X18550D01*
X18600Y23650D01*
Y23850D01*
X18550Y23900D01*
X18700D02*
Y23650D01*
X18750Y23600D01*
X18850D01*
X18900Y23650D01*
Y23900D01*
X19000D02*
X19200D01*
X19100D01*
Y23600D01*
X19300D02*
Y23800D01*
X19400Y23900D01*
X19500Y23800D01*
Y23600D01*
Y23750D01*
X19300D01*
X20800Y23900D02*
Y23700D01*
X20900Y23600D01*
X21000Y23700D01*
Y23900D01*
X21100Y23750D02*
X21300D01*
X21200Y23850D02*
Y23650D01*
X21650Y14550D02*
X21450D01*
X21350Y14450D01*
X21450Y14350D01*
X21650D01*
X21500Y14250D02*
Y14050D01*
X21600Y14150D02*
X21400D01*
X20650Y14350D02*
Y14550D01*
X20500D01*
X20550Y14450D01*
Y14400D01*
X20500Y14350D01*
X20400D01*
X20350Y14400D01*
Y14500D01*
X20400Y14550D01*
X20650Y14250D02*
X20450D01*
X20350Y14150D01*
X20450Y14050D01*
X20650D01*
X19650Y14600D02*
Y14800D01*
X19500D01*
Y14700D01*
Y14800D01*
X19350D01*
X19650Y14300D02*
Y14500D01*
X19500D01*
Y14400D01*
Y14500D01*
X19350D01*
Y14000D02*
Y14200D01*
X19550Y14000D01*
X19600D01*
X19650Y14050D01*
Y14150D01*
X19600Y14200D01*
X18650Y14550D02*
Y14750D01*
X18500D01*
Y14650D01*
Y14750D01*
X18350D01*
X18650Y14250D02*
Y14450D01*
X18500D01*
Y14350D01*
Y14450D01*
X18350D01*
Y14150D02*
Y14050D01*
Y14100D01*
X18650D01*
X18600Y14150D01*
X17350Y15450D02*
X17650D01*
Y15300D01*
X17600Y15250D01*
X17500D01*
X17450Y15300D01*
Y15450D01*
Y15350D02*
X17350Y15250D01*
X17650Y14950D02*
Y15150D01*
X17350D01*
Y14950D01*
X17500Y15150D02*
Y15050D01*
X17600Y14650D02*
X17650Y14700D01*
Y14800D01*
X17600Y14850D01*
X17550D01*
X17500Y14800D01*
Y14700D01*
X17450Y14650D01*
X17400D01*
X17350Y14700D01*
Y14800D01*
X17400Y14850D01*
X17650Y14350D02*
Y14550D01*
X17350D01*
Y14350D01*
X17500Y14550D02*
Y14450D01*
X17650Y14250D02*
Y14050D01*
Y14150D01*
X17350D01*
X16350Y14850D02*
X16650D01*
Y14700D01*
X16600Y14650D01*
X16500D01*
X16450Y14700D01*
Y14850D01*
X16650Y14550D02*
X16350D01*
X16450Y14450D01*
X16350Y14350D01*
X16650D01*
X16350Y14250D02*
X16650D01*
X16550Y14150D01*
X16650Y14050D01*
X16350D01*
X15650Y14800D02*
X15350D01*
Y14650D01*
X15400Y14600D01*
X15600D01*
X15650Y14650D01*
Y14800D01*
Y14500D02*
Y14400D01*
Y14450D01*
X15350D01*
Y14500D01*
Y14400D01*
Y14250D02*
X15650D01*
Y14100D01*
X15600Y14050D01*
X15500D01*
X15450Y14100D01*
Y14250D01*
Y14150D02*
X15350Y14050D01*
X14600Y14650D02*
X14650Y14700D01*
Y14800D01*
X14600Y14850D01*
X14400D01*
X14350Y14800D01*
Y14700D01*
X14400Y14650D01*
X14500D01*
Y14750D01*
X14350Y14550D02*
X14650D01*
X14350Y14350D01*
X14650D01*
Y14250D02*
X14350D01*
Y14100D01*
X14400Y14050D01*
X14600D01*
X14650Y14100D01*
Y14250D01*
D43*
X44028Y30843D02*
X43943Y31014D01*
X43686Y31100D01*
X43514D01*
X43257Y31014D01*
X43086Y30757D01*
X43000Y30328D01*
Y29900D01*
X43086Y29557D01*
X43257Y29386D01*
X43514Y29300D01*
X43600D01*
X43857Y29386D01*
X44028Y29557D01*
X44114Y29814D01*
Y29900D01*
X44028Y30157D01*
X43857Y30328D01*
X43600Y30414D01*
X43514D01*
X43257Y30328D01*
X43086Y30157D01*
X43000Y29900D01*
X44594Y29471D02*
X44508Y29386D01*
X44594Y29300D01*
X44680Y29386D01*
X44594Y29471D01*
X46102Y31100D02*
X45245D01*
X45160Y30328D01*
X45245Y30414D01*
X45502Y30500D01*
X45759D01*
X46017Y30414D01*
X46188Y30243D01*
X46274Y29986D01*
Y29814D01*
X46188Y29557D01*
X46017Y29386D01*
X45759Y29300D01*
X45502D01*
X45245Y29386D01*
X45160Y29471D01*
X45074Y29643D01*
X47191Y31100D02*
X46933Y31014D01*
X46762Y30757D01*
X46676Y30328D01*
Y30071D01*
X46762Y29643D01*
X46933Y29386D01*
X47191Y29300D01*
X47362D01*
X47619Y29386D01*
X47790Y29643D01*
X47876Y30071D01*
Y30328D01*
X47790Y30757D01*
X47619Y31014D01*
X47362Y31100D01*
X47191D01*
X49693Y30500D02*
X50636Y29300D01*
Y30500D02*
X49693Y29300D01*
X52512Y30671D02*
Y30757D01*
X52598Y30928D01*
X52684Y31014D01*
X52855Y31100D01*
X53198D01*
X53369Y31014D01*
X53455Y30928D01*
X53541Y30757D01*
Y30585D01*
X53455Y30414D01*
X53284Y30157D01*
X52427Y29300D01*
X53626D01*
X54115Y29471D02*
X54029Y29386D01*
X54115Y29300D01*
X54200Y29386D01*
X54115Y29471D01*
X55023Y31100D02*
X54766Y31014D01*
X54680Y30843D01*
Y30671D01*
X54766Y30500D01*
X54937Y30414D01*
X55280Y30328D01*
X55537Y30243D01*
X55709Y30071D01*
X55794Y29900D01*
Y29643D01*
X55709Y29471D01*
X55623Y29386D01*
X55366Y29300D01*
X55023D01*
X54766Y29386D01*
X54680Y29471D01*
X54595Y29643D01*
Y29900D01*
X54680Y30071D01*
X54852Y30243D01*
X55109Y30328D01*
X55452Y30414D01*
X55623Y30500D01*
X55709Y30671D01*
Y30843D01*
X55623Y31014D01*
X55366Y31100D01*
X55023D01*
X56369D02*
X57311D01*
X56797Y30414D01*
X57054D01*
X57226Y30328D01*
X57311Y30243D01*
X57397Y29986D01*
Y29814D01*
X57311Y29557D01*
X57140Y29386D01*
X56883Y29300D01*
X56626D01*
X56369Y29386D01*
X56283Y29471D01*
X56197Y29643D01*
X59385Y31100D02*
X59471Y31014D01*
X59556Y31100D01*
X59471Y31185D01*
X59385Y31100D01*
X59471Y30500D02*
Y29300D01*
X59874Y30500D02*
Y29300D01*
Y30157D02*
X60131Y30414D01*
X60302Y30500D01*
X60559D01*
X60730Y30414D01*
X60816Y30157D01*
Y29300D01*
X62316Y30243D02*
X62144Y30414D01*
X61973Y30500D01*
X61716D01*
X61545Y30414D01*
X61373Y30243D01*
X61288Y29986D01*
Y29814D01*
X61373Y29557D01*
X61545Y29386D01*
X61716Y29300D01*
X61973D01*
X62144Y29386D01*
X62316Y29557D01*
X62702Y31100D02*
Y29300D01*
Y30157D02*
X62959Y30414D01*
X63130Y30500D01*
X63387D01*
X63558Y30414D01*
X63644Y30157D01*
Y29300D01*
X3400Y10500D02*
X5200D01*
X3400Y9900D02*
Y11100D01*
Y11314D02*
X5200D01*
X4343D02*
X4086Y11571D01*
X4000Y11742D01*
Y12000D01*
X4086Y12171D01*
X4343Y12257D01*
X5200D01*
X4000Y12728D02*
X5200D01*
X4514D02*
X4257Y12814D01*
X4086Y12985D01*
X4000Y13156D01*
Y13414D01*
Y13576D02*
X4857D01*
X5114Y13662D01*
X5200Y13833D01*
Y14091D01*
X5114Y14262D01*
X4857Y14519D01*
X4000D02*
X5200D01*
X4257Y15933D02*
X4086Y15847D01*
X4000Y15590D01*
Y15333D01*
X4086Y15076D01*
X4257Y14990D01*
X4429Y15076D01*
X4514Y15247D01*
X4600Y15676D01*
X4686Y15847D01*
X4857Y15933D01*
X4943D01*
X5114Y15847D01*
X5200Y15590D01*
Y15333D01*
X5114Y15076D01*
X4943Y14990D01*
X3400Y16567D02*
X4857D01*
X5114Y16653D01*
X5200Y16824D01*
Y16996D01*
X4000Y16310D02*
Y16910D01*
X4514Y17253D02*
Y18281D01*
X4343D01*
X4172Y18195D01*
X4086Y18110D01*
X4000Y17938D01*
Y17681D01*
X4086Y17510D01*
X4257Y17338D01*
X4514Y17253D01*
X4686D01*
X4943Y17338D01*
X5114Y17510D01*
X5200Y17681D01*
Y17938D01*
X5114Y18110D01*
X4943Y18281D01*
X4000Y18667D02*
X5200D01*
X4514D02*
X4257Y18752D01*
X4086Y18924D01*
X4000Y19095D01*
Y19352D01*
X3400Y20929D02*
X5200D01*
X3400D02*
Y21700D01*
X3486Y21957D01*
X3572Y22043D01*
X3743Y22129D01*
X3915D01*
X4086Y22043D01*
X4172Y21957D01*
X4257Y21700D01*
Y20929D02*
Y21700D01*
X4343Y21957D01*
X4429Y22043D01*
X4600Y22129D01*
X4857D01*
X5029Y22043D01*
X5114Y21957D01*
X5200Y21700D01*
Y20929D01*
X4000Y22960D02*
X4086Y22789D01*
X4257Y22617D01*
X4514Y22532D01*
X4686D01*
X4943Y22617D01*
X5114Y22789D01*
X5200Y22960D01*
Y23217D01*
X5114Y23389D01*
X4943Y23560D01*
X4686Y23646D01*
X4514D01*
X4257Y23560D01*
X4086Y23389D01*
X4000Y23217D01*
Y22960D01*
Y25068D02*
X5200D01*
X4257D02*
X4086Y24897D01*
X4000Y24725D01*
Y24468D01*
X4086Y24297D01*
X4257Y24126D01*
X4514Y24040D01*
X4686D01*
X4943Y24126D01*
X5114Y24297D01*
X5200Y24468D01*
Y24725D01*
X5114Y24897D01*
X4943Y25068D01*
X4000Y25548D02*
X5200D01*
X4514D02*
X4257Y25634D01*
X4086Y25805D01*
X4000Y25977D01*
Y26234D01*
X3400Y27425D02*
X5200D01*
X4257D02*
X4086Y27253D01*
X4000Y27082D01*
Y26825D01*
X4086Y26654D01*
X4257Y26482D01*
X4514Y26396D01*
X4686D01*
X4943Y26482D01*
X5114Y26654D01*
X5200Y26825D01*
Y27082D01*
X5114Y27253D01*
X4943Y27425D01*
M02*
