G04 Layer_Color=8388736*
%FSLAX24Y24*%
%MOIN*%
G70*
G01*
G75*
%ADD50R,0.0237X0.0237*%
%ADD51R,0.0316X0.0631*%
%ADD52O,0.0316X0.0789*%
%ADD53R,0.0454X0.0395*%
%ADD54R,0.0395X0.0454*%
%ADD55R,0.0631X0.0907*%
%ADD56R,0.0513X0.0316*%
%ADD57O,0.0297X0.0769*%
%ADD58O,0.0769X0.0297*%
%ADD59O,0.0257X0.0710*%
%ADD60R,0.1160X0.0930*%
%ADD61R,0.0336X0.0769*%
%ADD62R,0.0572X0.0552*%
%ADD63C,0.0080*%
%ADD64C,0.1117*%
%ADD65C,0.0631*%
%ADD66C,0.0680*%
%ADD67C,0.0749*%
%ADD68C,0.0879*%
%ADD69C,0.1330*%
%ADD70C,0.0710*%
D50*
X4576Y13013D02*
D03*
X4024D02*
D03*
D51*
X38000Y17626D02*
D03*
X37626Y18374D02*
D03*
X38374D02*
D03*
D52*
X3000Y13953D02*
D03*
X3500D02*
D03*
X4000D02*
D03*
X4500D02*
D03*
X3000Y16000D02*
D03*
X3500D02*
D03*
X4000D02*
D03*
X4500D02*
D03*
D53*
X31500Y15665D02*
D03*
Y16335D02*
D03*
X32000Y21165D02*
D03*
Y21835D02*
D03*
D54*
X45335Y18500D02*
D03*
X44665D02*
D03*
X6835Y16965D02*
D03*
X6165D02*
D03*
X26665Y12000D02*
D03*
X27335D02*
D03*
X26665Y19500D02*
D03*
X27335D02*
D03*
X39831Y8100D02*
D03*
X40500D02*
D03*
X39865Y7200D02*
D03*
X40535D02*
D03*
D55*
X35382Y16791D02*
D03*
X33618D02*
D03*
Y13209D02*
D03*
X35382D02*
D03*
X33618Y18209D02*
D03*
X35382D02*
D03*
Y21791D02*
D03*
X33618D02*
D03*
D56*
X33351Y23426D02*
D03*
Y24174D02*
D03*
X32249D02*
D03*
Y23800D02*
D03*
Y23426D02*
D03*
D57*
X39125Y18776D02*
D03*
X39440D02*
D03*
X39755D02*
D03*
X40070D02*
D03*
X40385D02*
D03*
X40700D02*
D03*
X41015D02*
D03*
X41330D02*
D03*
X41645D02*
D03*
X41960D02*
D03*
X42275D02*
D03*
Y23224D02*
D03*
X41960D02*
D03*
X41645D02*
D03*
X41330D02*
D03*
X41015D02*
D03*
X40700D02*
D03*
X40385D02*
D03*
X40070D02*
D03*
X39755D02*
D03*
X39440D02*
D03*
X39125D02*
D03*
D58*
X42924Y19425D02*
D03*
Y19740D02*
D03*
Y20055D02*
D03*
Y20370D02*
D03*
Y20685D02*
D03*
Y21000D02*
D03*
Y21315D02*
D03*
Y21630D02*
D03*
Y21945D02*
D03*
Y22260D02*
D03*
Y22575D02*
D03*
X38476D02*
D03*
Y22260D02*
D03*
Y21945D02*
D03*
Y21630D02*
D03*
Y21315D02*
D03*
Y21000D02*
D03*
Y20685D02*
D03*
Y20370D02*
D03*
Y20055D02*
D03*
Y19740D02*
D03*
Y19425D02*
D03*
D59*
X5516Y13166D02*
D03*
X5772D02*
D03*
X6028D02*
D03*
X6284D02*
D03*
X5516Y14859D02*
D03*
X5772D02*
D03*
X6028D02*
D03*
X6284D02*
D03*
D60*
X1500Y13630D02*
D03*
Y15370D02*
D03*
D61*
X6679Y15965D02*
D03*
X5321D02*
D03*
D62*
X43456Y7000D02*
D03*
X44144D02*
D03*
X43456Y8300D02*
D03*
X44144D02*
D03*
D63*
X27300Y2100D02*
D03*
X2300D02*
D03*
D64*
X17000Y13839D02*
D03*
Y22500D02*
D03*
X21724Y13130D02*
D03*
Y23996D02*
D03*
X15000Y24000D02*
D03*
Y13134D02*
D03*
X10276Y22504D02*
D03*
Y13843D02*
D03*
D65*
X13996Y12000D02*
D03*
X11004D02*
D03*
X15504D02*
D03*
X18496D02*
D03*
D66*
X31000Y9000D02*
D03*
X30000D02*
D03*
X45500Y21500D02*
D03*
Y20500D02*
D03*
Y19500D02*
D03*
X44500Y21500D02*
D03*
Y20500D02*
D03*
Y19500D02*
D03*
X45500Y17000D02*
D03*
X44500D02*
D03*
X45500Y23000D02*
D03*
X44500D02*
D03*
X31043Y22000D02*
D03*
Y20000D02*
D03*
Y21000D02*
D03*
Y14500D02*
D03*
Y12500D02*
D03*
Y13500D02*
D03*
X43500Y12500D02*
D03*
Y13500D02*
D03*
X41500Y12500D02*
D03*
Y13500D02*
D03*
X39500Y12500D02*
D03*
Y13500D02*
D03*
D67*
X11900Y10400D02*
D03*
X13888D02*
D03*
X15900Y10300D02*
D03*
X17888D02*
D03*
D68*
X6000Y6500D02*
D03*
X8000D02*
D03*
X10000D02*
D03*
X12000D02*
D03*
X14000D02*
D03*
X16000D02*
D03*
X18000D02*
D03*
X20000D02*
D03*
X22000D02*
D03*
X24000D02*
D03*
D69*
X25143Y23000D02*
D03*
Y19000D02*
D03*
Y15500D02*
D03*
Y11500D02*
D03*
D70*
X7516Y10000D02*
D03*
X9484D02*
D03*
X3016D02*
D03*
X4984D02*
D03*
M02*
