G04 Layer_Color=16711935*
%FSLAX24Y24*%
%MOIN*%
G70*
G01*
G75*
%ADD50R,0.0237X0.0237*%
%ADD52O,0.0316X0.0789*%
%ADD54R,0.0395X0.0454*%
%ADD59O,0.0257X0.0710*%
%ADD60R,0.1160X0.0930*%
%ADD61R,0.0336X0.0769*%
%ADD63C,0.0080*%
%ADD64C,0.1117*%
%ADD65C,0.0631*%
%ADD66C,0.0680*%
%ADD67C,0.0749*%
%ADD68C,0.0879*%
%ADD69C,0.1330*%
%ADD70C,0.0710*%
%ADD71R,0.0631X0.0533*%
%ADD72R,0.0316X0.0611*%
%ADD73R,0.0560X0.0438*%
%ADD74R,0.0533X0.0631*%
D50*
X3402Y18048D02*
D03*
X3953D02*
D03*
D52*
X4977Y18988D02*
D03*
X4477D02*
D03*
X3977D02*
D03*
X3477D02*
D03*
X4977Y21035D02*
D03*
X4477D02*
D03*
X3977D02*
D03*
X3477D02*
D03*
D54*
X27165Y19000D02*
D03*
X27835D02*
D03*
X27165Y11500D02*
D03*
X27835D02*
D03*
X1143Y22000D02*
D03*
X1812D02*
D03*
D59*
X2461Y18202D02*
D03*
X2205D02*
D03*
X1950D02*
D03*
X1694D02*
D03*
X2461Y19894D02*
D03*
X2205D02*
D03*
X1950D02*
D03*
X1694D02*
D03*
D60*
X6477Y18665D02*
D03*
Y20406D02*
D03*
D61*
X1298Y21000D02*
D03*
X2657D02*
D03*
D63*
X27300Y2100D02*
D03*
X2300D02*
D03*
D64*
X17000Y13839D02*
D03*
Y22500D02*
D03*
X21724Y13130D02*
D03*
Y23996D02*
D03*
X15000Y24000D02*
D03*
Y13134D02*
D03*
X10276Y22504D02*
D03*
Y13843D02*
D03*
D65*
X13996Y12000D02*
D03*
X11004D02*
D03*
X15504D02*
D03*
X18496D02*
D03*
D66*
X31000Y9000D02*
D03*
X30000D02*
D03*
X45500Y21500D02*
D03*
Y20500D02*
D03*
Y19500D02*
D03*
X44500Y21500D02*
D03*
Y20500D02*
D03*
Y19500D02*
D03*
X45500Y17000D02*
D03*
X44500D02*
D03*
X45500Y23000D02*
D03*
X44500D02*
D03*
X31043Y22000D02*
D03*
Y20000D02*
D03*
Y21000D02*
D03*
Y14500D02*
D03*
Y12500D02*
D03*
Y13500D02*
D03*
X43500Y12500D02*
D03*
Y13500D02*
D03*
X41500Y12500D02*
D03*
Y13500D02*
D03*
X39500Y12500D02*
D03*
Y13500D02*
D03*
D67*
X11900Y10400D02*
D03*
X13888D02*
D03*
X15900Y10300D02*
D03*
X17888D02*
D03*
D68*
X6000Y6500D02*
D03*
X8000D02*
D03*
X10000D02*
D03*
X12000D02*
D03*
X14000D02*
D03*
X16000D02*
D03*
X18000D02*
D03*
X20000D02*
D03*
X22000D02*
D03*
X24000D02*
D03*
D69*
X25143Y23000D02*
D03*
Y19000D02*
D03*
Y15500D02*
D03*
Y11500D02*
D03*
D70*
X7516Y10000D02*
D03*
X9484D02*
D03*
X3016D02*
D03*
X4984D02*
D03*
D71*
X34500Y23136D02*
D03*
Y23864D02*
D03*
X31100Y23036D02*
D03*
Y23764D02*
D03*
X29500Y22864D02*
D03*
Y22136D02*
D03*
X27000Y22864D02*
D03*
Y22136D02*
D03*
D72*
X28474Y22059D02*
D03*
X27726D02*
D03*
X28100Y22827D02*
D03*
D73*
X37500Y20644D02*
D03*
Y19356D02*
D03*
X36000Y20144D02*
D03*
Y18856D02*
D03*
D74*
X41136Y19200D02*
D03*
X41864D02*
D03*
M02*
