M48
;Layer_Color=9474304
;FILE_FORMAT=2:4
INCH,TZ
;TYPE=PLATED
T1F00S00C0.0150
T2F00S00C0.0280
T3F00S00C0.0394
T4F00S00C0.0400
T5F00S00C0.0472
T6F00S00C0.0512
T7F00S00C0.0602
T8F00S00C0.0837
T9F00S00C0.1050
T10F00S00C0.1100
%
T01
X29500Y9800
Y10600
Y11700
Y12300
X28000Y12000
X38200Y8000
Y7200
X40100Y14800
Y15600
X39600Y17900
X39000
X37626Y18974
X39185Y21315
X39700Y21700
Y22500
X40100
X41600Y21800
X41300Y21400
X42100Y21200
Y19800
X41330Y19900
X41960Y17100
X42600
X43200Y17400
X43600
Y16200
X43200
X34291Y16791
Y18209
X35000Y20370
X35700Y20685
X34291Y21791
X33900Y24200
X31800Y23800
X30300Y23900
X30200Y19500
X32200
X28000
X23100Y22500
X34291Y13209
X20400Y22500
X6679Y16500
X1400Y16165
X1143Y21578
T02
X43600Y9700
T03
X11004Y12000
X13996
X15504
X18496
X31043Y12500
Y13500
Y14500
Y20000
Y21000
Y22000
T04
X30000Y9000
X31000
X39500Y12500
X41500
X43500
Y13500
X41500
X39500
X44500Y17000
X45500
Y19500
Y20500
Y21500
X44500
Y20500
Y19500
Y23000
X45500
T05
X3016Y10000
X4984
X7516
X9484
T06
X11900Y10400
X13888
X15900Y10300
X17888
T07
X6000Y6500
X8000
X10000
X12000
X14000
X16000
X18000
X20000
X22000
X24000
T08
X21724Y13130
Y23996
X17000Y22500
X15000Y24000
X10276Y22504
Y13843
X15000Y13134
X17000Y13839
T09
X25143Y11500
Y15500
Y19000
Y23000
T10
X2300Y2100
X27300
M30
