M48
;Layer_Color=9474304
;FILE_FORMAT=2:5
INCH,LZ
;TYPE=PLATED
T1F00S00C0.01500
T2F00S00C0.04000
T3F00S00C0.05512
T4F00S00C0.06024
T5F00S00C0.11000
%
T01
X0226Y0097
X0259Y0083
X0275
X0267Y0125
X0142Y0124
X0122
X01175Y01225
X0083Y0125
Y0135
Y0115
Y0105
X0125Y0085083
X0185Y0076
T02
X0289Y0139
Y0149
X0195Y0075
Y0065
T03
X0213268Y0046181
X0288268
Y0096181
Y010878
Y0121299
Y0183819
X0213268
T04
X007Y0065
X009
X011
X013
X015
X005
T05
X002Y0023
X018
M30
