G04 Layer_Color=8388736*
%FSLAX25Y25*%
%MOIN*%
G70*
G01*
G75*
%ADD40R,0.04540X0.03950*%
%ADD41R,0.11036X0.05131*%
%ADD42R,0.05328X0.06312*%
%ADD43R,0.03753X0.04343*%
%ADD44R,0.22060X0.12217*%
%ADD45O,0.03162X0.09461*%
%ADD46R,0.04343X0.03753*%
%ADD47C,0.00800*%
%ADD48C,0.06800*%
%ADD49C,0.08674*%
%ADD50C,0.08792*%
D40*
X125000Y98347D02*
D03*
Y91654D02*
D03*
X115000Y98347D02*
D03*
Y91654D02*
D03*
D41*
X135000Y89685D02*
D03*
Y100315D02*
D03*
D42*
X98642Y135000D02*
D03*
X91358D02*
D03*
X98642Y125000D02*
D03*
X91358D02*
D03*
D43*
X91555Y115000D02*
D03*
X98445D02*
D03*
X91555Y105000D02*
D03*
X98445D02*
D03*
D44*
X170000Y90512D02*
D03*
Y129488D02*
D03*
D45*
X112500Y115551D02*
D03*
X117500D02*
D03*
X122500D02*
D03*
X127500D02*
D03*
X112500Y134449D02*
D03*
X117500D02*
D03*
X122500D02*
D03*
X127500D02*
D03*
D46*
X135000Y128445D02*
D03*
Y121555D02*
D03*
D47*
X180000Y23000D02*
D03*
X20000D02*
D03*
D48*
X289000Y149000D02*
D03*
Y139000D02*
D03*
X195000Y65000D02*
D03*
Y75000D02*
D03*
D49*
X288268Y108780D02*
D03*
Y121299D02*
D03*
Y96181D02*
D03*
Y46181D02*
D03*
Y183819D02*
D03*
X213268D02*
D03*
Y46181D02*
D03*
D50*
X130000Y65000D02*
D03*
X110000D02*
D03*
X90000D02*
D03*
X70000D02*
D03*
X50000D02*
D03*
X150000D02*
D03*
M02*
