G04 Layer_Color=32896*
%FSLAX25Y25*%
%MOIN*%
G70*
G01*
G75*
%ADD18C,0.01000*%
%ADD37C,0.00787*%
%ADD38C,0.00700*%
%ADD61C,0.00394*%
D18*
X156890Y137795D02*
G03*
X156890Y137795I-984J0D01*
G01*
X284000Y134000D02*
X294000D01*
X284000D02*
Y154236D01*
X294000D01*
Y134000D02*
Y154236D01*
X155905Y115945D02*
Y134055D01*
X144095Y115945D02*
Y134055D01*
X222559Y98898D02*
Y155984D01*
X212717Y98898D02*
X222559D01*
X195000Y155984D02*
X222559D01*
X167441D02*
X195000D01*
X167441Y98898D02*
X177284D01*
X167441D02*
Y155984D01*
X243000Y150000D02*
Y173000D01*
X277000Y150000D02*
Y173000D01*
X243999Y181000D02*
Y184999D01*
X245998Y182999D02*
X242000D01*
X195000Y161000D02*
X194000Y160000D01*
X192001D01*
X191001Y161000D01*
Y164998D01*
X192001Y165998D01*
X194000D01*
X195000Y164998D01*
Y163999D01*
X194000Y162999D01*
X191001D01*
X189002Y165998D02*
Y161999D01*
X187003Y160000D01*
X185003Y161999D01*
Y165998D01*
X177006Y160000D02*
Y165998D01*
X174007D01*
X173007Y164998D01*
Y162999D01*
X174007Y161999D01*
X177006D01*
X170008Y160000D02*
X168009D01*
X167009Y161000D01*
Y162999D01*
X168009Y163999D01*
X170008D01*
X171008Y162999D01*
Y161000D01*
X170008Y160000D01*
X165010Y163999D02*
Y161000D01*
X164010Y160000D01*
X163010Y161000D01*
X162011Y160000D01*
X161011Y161000D01*
Y163999D01*
X156013Y160000D02*
X158012D01*
X159012Y161000D01*
Y162999D01*
X158012Y163999D01*
X156013D01*
X155013Y162999D01*
Y161999D01*
X159012D01*
X153014Y163999D02*
Y160000D01*
Y161999D01*
X152014Y162999D01*
X151014Y163999D01*
X150015D01*
X137019Y164998D02*
X138018Y165998D01*
X140018D01*
X141017Y164998D01*
Y163999D01*
X140018Y162999D01*
X138018D01*
X137019Y161999D01*
Y161000D01*
X138018Y160000D01*
X140018D01*
X141017Y161000D01*
X135019Y163999D02*
Y161000D01*
X134020Y160000D01*
X131021D01*
Y163999D01*
X129021Y158001D02*
Y163999D01*
X126022D01*
X125023Y162999D01*
Y161000D01*
X126022Y160000D01*
X129021D01*
X123023Y158001D02*
Y163999D01*
X120024D01*
X119025Y162999D01*
Y161000D01*
X120024Y160000D01*
X123023D01*
X117025D02*
X115026D01*
X116025D01*
Y165998D01*
X117025D01*
X112027Y163999D02*
Y161000D01*
X111027Y160000D01*
X108028D01*
Y159000D01*
X109028Y158001D01*
X110028D01*
X108028Y160000D02*
Y163999D01*
D37*
X287953Y63425D02*
Y66575D01*
X282047Y63425D02*
Y66575D01*
X221378Y84606D02*
Y85394D01*
X218622Y84606D02*
Y85394D01*
X171378Y89606D02*
Y90394D01*
X168622Y89606D02*
Y90394D01*
X123524Y104803D02*
Y105197D01*
X126476Y104803D02*
Y105197D01*
X116378Y104606D02*
Y105394D01*
X113622Y104606D02*
Y105394D01*
D38*
X230000Y130000D02*
Y140000D01*
X250000D01*
Y126000D02*
Y140000D01*
Y126000D02*
X252000Y129000D01*
X248000D02*
X250000Y126000D01*
X293550Y157750D02*
Y160749D01*
X292051D01*
X291551Y160249D01*
Y159249D01*
X292051Y158750D01*
X293550D01*
X290551Y160249D02*
X290051Y160749D01*
X289052D01*
X288552Y160249D01*
Y159749D01*
X289052Y159249D01*
X289551D01*
X289052D01*
X288552Y158750D01*
Y158250D01*
X289052Y157750D01*
X290051D01*
X290551Y158250D01*
X285553Y160249D02*
X286052Y160749D01*
X287052D01*
X287552Y160249D01*
Y158250D01*
X287052Y157750D01*
X286052D01*
X285553Y158250D01*
X252001Y94499D02*
X252501Y94999D01*
X253500D01*
X254000Y94499D01*
Y93999D01*
X253500Y93499D01*
X252501D01*
X252001Y93000D01*
Y92500D01*
X252501Y92000D01*
X253500D01*
X254000Y92500D01*
X251001Y92000D02*
X250001D01*
X250501D01*
Y94999D01*
X251001Y94499D01*
X246502D02*
X247002Y94999D01*
X248002D01*
X248502Y94499D01*
Y92500D01*
X248002Y92000D01*
X247002D01*
X246502Y92500D01*
X274301Y86799D02*
X276300D01*
Y85299D01*
X275300D01*
X276300D01*
Y83800D01*
X273301D02*
X272301D01*
X272801D01*
Y86799D01*
X273301Y86299D01*
X268802D02*
X269302Y86799D01*
X270302D01*
X270802Y86299D01*
Y84300D01*
X270302Y83800D01*
X269302D01*
X268802Y84300D01*
X276900Y107700D02*
Y110699D01*
X275400D01*
X274901Y110199D01*
Y109200D01*
X275400Y108700D01*
X276900D01*
X275900D02*
X274901Y107700D01*
X273901D02*
X272901D01*
X273401D01*
Y110699D01*
X273901Y110199D01*
X269402D02*
X269902Y110699D01*
X270902D01*
X271402Y110199D01*
Y108200D01*
X270902Y107700D01*
X269902D01*
X269402Y108200D01*
X282501Y83001D02*
X282001Y83500D01*
Y84500D01*
X282501Y85000D01*
X284500D01*
X285000Y84500D01*
Y83500D01*
X284500Y83001D01*
X285000Y80002D02*
Y82001D01*
X283001Y80002D01*
X282501D01*
X282001Y80501D01*
Y81501D01*
X282501Y82001D01*
Y77003D02*
X282001Y77502D01*
Y78502D01*
X282501Y79002D01*
X284500D01*
X285000Y78502D01*
Y77502D01*
X284500Y77003D01*
X108501Y107001D02*
X108001Y107501D01*
Y108500D01*
X108501Y109000D01*
X110500D01*
X111000Y108500D01*
Y107501D01*
X110500Y107001D01*
X111000Y106001D02*
Y105001D01*
Y105501D01*
X108001D01*
X108501Y106001D01*
Y103502D02*
X108001Y103002D01*
Y102002D01*
X108501Y101502D01*
X110500D01*
X111000Y102002D01*
Y103002D01*
X110500Y103502D01*
X108501D01*
Y98503D02*
X108001Y99003D01*
Y100003D01*
X108501Y100503D01*
X110500D01*
X111000Y100003D01*
Y99003D01*
X110500Y98503D01*
X99501Y107001D02*
X99001Y107501D01*
Y108500D01*
X99501Y109000D01*
X101500D01*
X102000Y108500D01*
Y107501D01*
X101500Y107001D01*
X102000Y106001D02*
Y105001D01*
Y105501D01*
X99001D01*
X99501Y106001D01*
X102000Y103502D02*
Y102502D01*
Y103002D01*
X99001D01*
X99501Y103502D01*
Y99003D02*
X99001Y99503D01*
Y100503D01*
X99501Y101003D01*
X101500D01*
X102000Y100503D01*
Y99503D01*
X101500Y99003D01*
X156700Y144999D02*
Y142000D01*
X155201D01*
X154701Y142500D01*
Y144499D01*
X155201Y144999D01*
X156700D01*
X153701Y142000D02*
X152701D01*
X153201D01*
Y144999D01*
X153701Y144499D01*
X149202D02*
X149702Y144999D01*
X150702D01*
X151202Y144499D01*
Y142500D01*
X150702Y142000D01*
X149702D01*
X149202Y142500D01*
X132000Y108000D02*
X129001D01*
Y106500D01*
X129501Y106001D01*
X130500D01*
X131000Y106500D01*
Y108000D01*
Y107000D02*
X132000Y106001D01*
Y103501D02*
X129001D01*
X130500Y105001D01*
Y103002D01*
X129501Y100003D02*
X129001Y100502D01*
Y101502D01*
X129501Y102002D01*
X131500D01*
X132000Y101502D01*
Y100502D01*
X131500Y100003D01*
X222400Y162199D02*
Y159700D01*
X221900Y159200D01*
X220901D01*
X220401Y159700D01*
Y162199D01*
X219401Y159200D02*
X218401D01*
X218901D01*
Y162199D01*
X219401Y161699D01*
X214902D02*
X215402Y162199D01*
X216402D01*
X216902Y161699D01*
Y159700D01*
X216402Y159200D01*
X215402D01*
X214902Y159700D01*
X162501Y92001D02*
X162001Y92501D01*
Y93500D01*
X162501Y94000D01*
X164500D01*
X165000Y93500D01*
Y92501D01*
X164500Y92001D01*
X165000Y89501D02*
X162001D01*
X163500Y91001D01*
Y89002D01*
X162501Y86003D02*
X162001Y86502D01*
Y87502D01*
X162501Y88002D01*
X164500D01*
X165000Y87502D01*
Y86502D01*
X164500Y86003D01*
X220301Y96399D02*
X220800Y96899D01*
X221800D01*
X222300Y96399D01*
Y94400D01*
X221800Y93900D01*
X220800D01*
X220301Y94400D01*
X219301Y96399D02*
X218801Y96899D01*
X217801D01*
X217302Y96399D01*
Y95899D01*
X217801Y95399D01*
X218301D01*
X217801D01*
X217302Y94900D01*
Y94400D01*
X217801Y93900D01*
X218801D01*
X219301Y94400D01*
X214303Y96399D02*
X214802Y96899D01*
X215802D01*
X216302Y96399D01*
Y94400D01*
X215802Y93900D01*
X214802D01*
X214303Y94400D01*
X278001Y187499D02*
X278501Y187999D01*
X279500D01*
X280000Y187499D01*
Y185500D01*
X279500Y185000D01*
X278501D01*
X278001Y185500D01*
X277001Y185000D02*
X276001D01*
X276501D01*
Y187999D01*
X277001Y187499D01*
X272502D02*
X273002Y187999D01*
X274002D01*
X274502Y187499D01*
Y185500D01*
X274002Y185000D01*
X273002D01*
X272502Y185500D01*
X277001Y130499D02*
X277501Y130999D01*
X278500D01*
X279000Y130499D01*
Y129999D01*
X278500Y129499D01*
X277501D01*
X277001Y129000D01*
Y128500D01*
X277501Y128000D01*
X278500D01*
X279000Y128500D01*
X276001Y128000D02*
Y129999D01*
X274501D01*
X274002Y129499D01*
Y128000D01*
X273002D02*
X271502D01*
X271003Y128500D01*
X271502Y129000D01*
X272502D01*
X273002Y129499D01*
X272502Y129999D01*
X271003D01*
X226001Y127000D02*
X232000D01*
X226001D02*
Y124429D01*
X226287Y123572D01*
X226573Y123286D01*
X227144Y123001D01*
X227715D01*
X228287Y123286D01*
X228572Y123572D01*
X228858Y124429D01*
Y127000D01*
Y125000D02*
X232000Y123001D01*
X229715Y121658D02*
Y118230D01*
X229144D01*
X228572Y118516D01*
X228287Y118802D01*
X228001Y119373D01*
Y120230D01*
X228287Y120801D01*
X228858Y121373D01*
X229715Y121658D01*
X230286D01*
X231143Y121373D01*
X231714Y120801D01*
X232000Y120230D01*
Y119373D01*
X231714Y118802D01*
X231143Y118230D01*
X228858Y113803D02*
X228287Y114088D01*
X228001Y114945D01*
Y115802D01*
X228287Y116659D01*
X228858Y116945D01*
X229429Y116659D01*
X229715Y116088D01*
X230000Y114660D01*
X230286Y114088D01*
X230857Y113803D01*
X231143D01*
X231714Y114088D01*
X232000Y114945D01*
Y115802D01*
X231714Y116659D01*
X231143Y116945D01*
X229715Y112546D02*
Y109118D01*
X229144D01*
X228572Y109404D01*
X228287Y109689D01*
X228001Y110261D01*
Y111118D01*
X228287Y111689D01*
X228858Y112260D01*
X229715Y112546D01*
X230286D01*
X231143Y112260D01*
X231714Y111689D01*
X232000Y111118D01*
Y110261D01*
X231714Y109689D01*
X231143Y109118D01*
X226001Y106976D02*
X230857D01*
X231714Y106690D01*
X232000Y106119D01*
Y105547D01*
X228001Y107833D02*
Y105833D01*
X226001Y96264D02*
Y99977D01*
X232000D01*
Y96264D01*
X228858Y99977D02*
Y97692D01*
X226001Y95264D02*
X232000D01*
X229715Y94007D02*
Y90579D01*
X229144D01*
X228572Y90865D01*
X228287Y91150D01*
X228001Y91722D01*
Y92579D01*
X228287Y93150D01*
X228858Y93721D01*
X229715Y94007D01*
X230286D01*
X231143Y93721D01*
X231714Y93150D01*
X232000Y92579D01*
Y91722D01*
X231714Y91150D01*
X231143Y90579D01*
X228858Y85866D02*
X228287Y86437D01*
X228001Y87009D01*
Y87866D01*
X228287Y88437D01*
X228858Y89008D01*
X229715Y89294D01*
X230286D01*
X231143Y89008D01*
X231714Y88437D01*
X232000Y87866D01*
Y87009D01*
X231714Y86437D01*
X231143Y85866D01*
X226001Y83723D02*
X230857D01*
X231714Y83438D01*
X232000Y82867D01*
Y82295D01*
X228001Y84580D02*
Y82581D01*
Y81438D02*
X232000D01*
X229715D02*
X228858Y81153D01*
X228287Y80581D01*
X228001Y80010D01*
Y79153D01*
Y77182D02*
X228287Y77753D01*
X228858Y78325D01*
X229715Y78610D01*
X230286D01*
X231143Y78325D01*
X231714Y77753D01*
X232000Y77182D01*
Y76325D01*
X231714Y75754D01*
X231143Y75182D01*
X230286Y74897D01*
X229715D01*
X228858Y75182D01*
X228287Y75754D01*
X228001Y76325D01*
Y77182D01*
Y73583D02*
X232000D01*
X229144D02*
X228287Y72726D01*
X228001Y72155D01*
Y71298D01*
X228287Y70726D01*
X229144Y70441D01*
X232000D01*
X226001Y68298D02*
X226287Y68013D01*
X226001Y67727D01*
X225716Y68013D01*
X226001Y68298D01*
X228001Y68013D02*
X232000D01*
X228858Y63242D02*
X228287Y63814D01*
X228001Y64385D01*
Y65242D01*
X228287Y65813D01*
X228858Y66384D01*
X229715Y66670D01*
X230286D01*
X231143Y66384D01*
X231714Y65813D01*
X232000Y65242D01*
Y64385D01*
X231714Y63814D01*
X231143Y63242D01*
X228858Y58815D02*
X228287Y59100D01*
X228001Y59957D01*
Y60814D01*
X228287Y61671D01*
X228858Y61957D01*
X229429Y61671D01*
X229715Y61100D01*
X230000Y59672D01*
X230286Y59100D01*
X230857Y58815D01*
X231143D01*
X231714Y59100D01*
X232000Y59957D01*
Y60814D01*
X231714Y61671D01*
X231143Y61957D01*
X47930Y53215D02*
X47358Y53501D01*
X46787Y54072D01*
X46501Y54643D01*
Y55786D01*
X46787Y56357D01*
X47358Y56929D01*
X47930Y57214D01*
X48787Y57500D01*
X50215D01*
X51072Y57214D01*
X51643Y56929D01*
X52214Y56357D01*
X52500Y55786D01*
Y54643D01*
X52214Y54072D01*
X51643Y53501D01*
X51072Y53215D01*
X50215D01*
Y54643D02*
Y53215D01*
X46501Y51844D02*
X52500D01*
X46501D02*
X52500Y47845D01*
X46501D02*
X52500D01*
X46501Y46188D02*
X52500D01*
X46501D02*
Y44189D01*
X46787Y43332D01*
X47358Y42760D01*
X47930Y42475D01*
X48787Y42189D01*
X50215D01*
X51072Y42475D01*
X51643Y42760D01*
X52214Y43332D01*
X52500Y44189D01*
Y46188D01*
X66501Y57500D02*
X72500D01*
X66501Y53501D02*
X70500Y57500D01*
X69072Y56072D02*
X72500Y53501D01*
X66501Y52158D02*
X72500D01*
X66501Y50901D02*
X72500D01*
Y47474D01*
X66501Y46817D02*
X72500D01*
Y43389D01*
X67358Y34019D02*
X66787Y34591D01*
X66501Y35448D01*
Y36590D01*
X66787Y37447D01*
X67358Y38019D01*
X67930D01*
X68501Y37733D01*
X68787Y37447D01*
X69072Y36876D01*
X69643Y35162D01*
X69929Y34591D01*
X70215Y34305D01*
X70786Y34019D01*
X71643D01*
X72214Y34591D01*
X72500Y35448D01*
Y36590D01*
X72214Y37447D01*
X71643Y38019D01*
X66501Y32677D02*
X72500D01*
X67930Y27135D02*
X67358Y27421D01*
X66787Y27992D01*
X66501Y28563D01*
Y29706D01*
X66787Y30277D01*
X67358Y30849D01*
X67930Y31134D01*
X68787Y31420D01*
X70215D01*
X71072Y31134D01*
X71643Y30849D01*
X72214Y30277D01*
X72500Y29706D01*
Y28563D01*
X72214Y27992D01*
X71643Y27421D01*
X71072Y27135D01*
X70215D01*
Y28563D02*
Y27135D01*
X88501Y53786D02*
X89358Y54072D01*
X89929Y54643D01*
X90215Y55500D01*
Y55786D01*
X89929Y56643D01*
X89358Y57214D01*
X88501Y57500D01*
X88215D01*
X87358Y57214D01*
X86787Y56643D01*
X86501Y55786D01*
Y55500D01*
X86787Y54643D01*
X87358Y54072D01*
X88501Y53786D01*
X89929D01*
X91357Y54072D01*
X92214Y54643D01*
X92500Y55500D01*
Y56072D01*
X92214Y56929D01*
X91643Y57214D01*
X86501Y52158D02*
X92500Y49873D01*
X86501Y47588D02*
X92500Y49873D01*
X86501Y40389D02*
X86787Y40961D01*
X87358Y41532D01*
X87929Y41818D01*
X88787Y42103D01*
X90215D01*
X91072Y41818D01*
X91643Y41532D01*
X92214Y40961D01*
X92500Y40389D01*
Y39247D01*
X92214Y38675D01*
X91643Y38104D01*
X91072Y37819D01*
X90215Y37533D01*
X88787D01*
X87929Y37819D01*
X87358Y38104D01*
X86787Y38675D01*
X86501Y39247D01*
Y40389D01*
Y36133D02*
X90786D01*
X91643Y35847D01*
X92214Y35276D01*
X92500Y34419D01*
Y33848D01*
X92214Y32991D01*
X91643Y32420D01*
X90786Y32134D01*
X86501D01*
Y28478D02*
X92500D01*
X86501Y30477D02*
Y26478D01*
X107644Y57500D02*
X107358Y56929D01*
X106501Y56072D01*
X112500D01*
X107930Y52815D02*
X107644D01*
X107073Y52530D01*
X106787Y52244D01*
X106501Y51673D01*
Y50530D01*
X106787Y49959D01*
X107073Y49673D01*
X107644Y49387D01*
X108215D01*
X108786Y49673D01*
X109643Y50244D01*
X112500Y53101D01*
Y49102D01*
X106501Y47759D02*
X112500Y45474D01*
X106501Y43189D02*
X112500Y45474D01*
X106501Y35990D02*
X106787Y36562D01*
X107358Y37133D01*
X107930Y37419D01*
X108786Y37704D01*
X110215D01*
X111072Y37419D01*
X111643Y37133D01*
X112214Y36562D01*
X112500Y35990D01*
Y34848D01*
X112214Y34276D01*
X111643Y33705D01*
X111072Y33419D01*
X110215Y33134D01*
X108786D01*
X107930Y33419D01*
X107358Y33705D01*
X106787Y34276D01*
X106501Y34848D01*
Y35990D01*
Y31734D02*
X110786D01*
X111643Y31448D01*
X112214Y30877D01*
X112500Y30020D01*
Y29449D01*
X112214Y28592D01*
X111643Y28021D01*
X110786Y27735D01*
X106501D01*
Y24079D02*
X112500D01*
X106501Y26078D02*
Y22079D01*
X126501Y54072D02*
Y56929D01*
X129072Y57214D01*
X128787Y56929D01*
X128501Y56072D01*
Y55215D01*
X128787Y54358D01*
X129358Y53786D01*
X130215Y53501D01*
X130786D01*
X131643Y53786D01*
X132214Y54358D01*
X132500Y55215D01*
Y56072D01*
X132214Y56929D01*
X131929Y57214D01*
X131357Y57500D01*
X126501Y52158D02*
X132500Y49873D01*
X126501Y47588D02*
X132500Y49873D01*
X126501Y40389D02*
X126787Y40961D01*
X127358Y41532D01*
X127929Y41818D01*
X128787Y42103D01*
X130215D01*
X131072Y41818D01*
X131643Y41532D01*
X132214Y40961D01*
X132500Y40389D01*
Y39247D01*
X132214Y38675D01*
X131643Y38104D01*
X131072Y37819D01*
X130215Y37533D01*
X128787D01*
X127929Y37819D01*
X127358Y38104D01*
X126787Y38675D01*
X126501Y39247D01*
Y40389D01*
Y36133D02*
X130786D01*
X131643Y35847D01*
X132214Y35276D01*
X132500Y34419D01*
Y33848D01*
X132214Y32991D01*
X131643Y32420D01*
X130786Y32134D01*
X126501D01*
Y28478D02*
X132500D01*
X126501Y30477D02*
Y26478D01*
X147930Y57214D02*
X147644D01*
X147073Y56929D01*
X146787Y56643D01*
X146501Y56072D01*
Y54929D01*
X146787Y54358D01*
X147073Y54072D01*
X147644Y53786D01*
X148215D01*
X148786Y54072D01*
X149644Y54643D01*
X152500Y57500D01*
Y53501D01*
X146501Y49302D02*
X150500Y52158D01*
Y47873D01*
X146501Y49302D02*
X152500D01*
X146501Y46817D02*
X152500Y44531D01*
X146501Y42246D02*
X152500Y44531D01*
X146501Y36762D02*
X152500D01*
X146501Y35505D02*
X152500D01*
X146501D02*
X152500Y31506D01*
X146501D02*
X152500D01*
D61*
X263779Y95236D02*
X265748D01*
Y124764D01*
X263779D02*
X265748D01*
X234252D02*
X236221D01*
X234252Y95236D02*
Y124764D01*
Y95236D02*
X236221D01*
M02*
