M48
;Layer_Color=9474304
;FILE_FORMAT=2:4
INCH
;TYPE=PLATED
T1F00S00C0.0150
T2F00S00C0.0280
T3F00S00C0.0320
T4F00S00C0.0354
T5F00S00C0.0400
T6F00S00C0.0601
T7F00S00C0.0602
T8F00S00C0.0650
T9F00S00C0.0858
T10F00S00C0.1050
T11F00S00C0.1100
;TYPE=NON_PLATED
%
T01
X039000Y003900
X041900Y002400
X042300Y002800
X044700Y004200
Y004600
X045200Y005100
X045300Y005600
X046870Y004700
X046893Y004007
X047400Y004100
X048400Y004200
X048815Y003315
X048400Y002700
X047400Y003000
X046900Y002400
X046500Y002700
X046100Y003300
X046400Y001500
X046900
X047700Y001700
X048200Y001600
X050600Y005500
X051200
X051800
X054600Y004700
Y005800
X053200Y010700
X058700Y010527
X058400Y012700
X057600
X061700Y010700
X050200Y010527
X049900Y012700
X049100
X051000
X050900Y007300
X051205Y007005
X051526Y006774
X051900Y006400
X051500Y005800
X050900
X050600Y007600
X048700
X048100Y007500
X047500Y007100
X046800Y006800
X046200Y006500
X044600Y006400
Y006000
X044200Y006500
X044173Y006890
X043700Y006900
X043300Y005700
X042900Y006000
X039000Y005900
X037300Y005775
X041700Y010527
X041400Y012700
X040600
X042500
X044700Y010700
X036200
X033200Y010527
X032900Y012700
X032100
X034000
X027700Y010700
X024700Y010527
X024400Y012700
X023600
X025500
X022500Y008000
X019200Y010700
X016200Y010527
X015900Y012700
X017000
X013800Y009200
X013400
X013000
X012600
X012400Y008800
X012800
X013200
X013600
X013400Y008400
X013000
X012600
X012400Y008000
X012800
X013200
X013600
X013400Y007600
X013000
X012600
X012400Y007200
X012800
X013200
X013600
X013800Y007600
Y008400
T02
X059000Y007000
T03
X052500Y013500
X053500
X054500
X055500
X057000
X058000
X059000
X060000
X061000
X062000
X063000
X064000
X051500
X050500
X049500
X048500
X047000
X046000
X045000
X044000
X043000
X042000
X041000
X040000
X038500
X037500
X036500
X035500
X034500
X033500
X032500
X031500
X030000
X029000
X028000
X027000
X026000
X025000
X024000
X023000
X021500
X020500
X019500
X018500
X017500
X016500
X015500
X014500
Y024500
X015500
X016500
X017500
X018500
X019500
X020500
X021500
X023000
X024000
X025000
X026000
X027000
X028000
X029000
X030000
X031500
X032500
X033500
X034500
X035500
X036500
X037500
X038500
X040000
X041000
X042000
X043000
X044000
X045000
X046000
X047000
X048500
X049500
X050500
X051500
X052500
X053500
X054500
X055500
X057000
X058000
X059000
X060000
X061000
X062000
X063000
X064000
T04
X038800Y001000
Y002000
Y003000
X040000
Y002000
Y001000
X053000
X054000
Y002500
X053000
T05
X041500Y003500
Y004500
Y005500
X042500
Y004500
Y003500
T06
X009622Y011598
X011000
Y012976
Y014354
Y015732
Y017110
Y018488
Y019866
Y021244
X009622
Y019866
Y018488
Y017110
Y015732
Y014354
Y012976
Y022622
Y024000
X011000
Y022622
T07
X022500Y006000
X024500
X026500
X028500
X020500
X018500
T08
X002540Y003400
X004520
X006500
X006460Y007000
X004480
X002500
T09
X012500Y001500
X011500Y002500
X012500Y004500
X011500Y005500
X058500Y017000
X050000
X041500
X033000
X024500
X016000
Y023000
X024500
X033000
X041500
X050000
X058500
T10
X000960Y003400
X008040Y007000
T11
X015500Y002500
X031500
M30
