G04 Layer_Color=65535*
%FSLAX24Y24*%
%MOIN*%
G70*
G01*
G75*
%ADD11C,0.0200*%
%ADD12C,0.0400*%
%ADD14C,0.0100*%
%ADD26C,0.0098*%
%ADD27C,0.0079*%
%ADD28C,0.0010*%
%ADD29C,0.0070*%
%ADD30C,0.0300*%
D11*
X24200Y9700D02*
Y8500D01*
X25000Y9700D02*
X24200Y8900D01*
X24486Y9186D02*
X25000Y8500D01*
X25383Y9700D02*
X25440Y9643D01*
X25497Y9700D01*
X25440Y9757D01*
X25383Y9700D01*
X25440Y9300D02*
Y8500D01*
X25708Y9700D02*
Y8500D01*
X25960Y9700D02*
Y8500D01*
X27953Y9528D02*
X27839Y9643D01*
X27668Y9700D01*
X27439D01*
X27268Y9643D01*
X27154Y9528D01*
Y9414D01*
X27211Y9300D01*
X27268Y9243D01*
X27382Y9186D01*
X27725Y9071D01*
X27839Y9014D01*
X27896Y8957D01*
X27953Y8843D01*
Y8671D01*
X27839Y8557D01*
X27668Y8500D01*
X27439D01*
X27268Y8557D01*
X27154Y8671D01*
X28222Y9300D02*
X28451Y8500D01*
X28679Y9300D02*
X28451Y8500D01*
X28679Y9300D02*
X28908Y8500D01*
X29136Y9300D02*
X28908Y8500D01*
X29530Y9700D02*
X29587Y9643D01*
X29645Y9700D01*
X29587Y9757D01*
X29530Y9700D01*
X29587Y9300D02*
Y8500D01*
X30027Y9700D02*
Y8729D01*
X30084Y8557D01*
X30199Y8500D01*
X30313D01*
X29856Y9300D02*
X30256D01*
X31170Y9128D02*
X31056Y9243D01*
X30941Y9300D01*
X30770D01*
X30656Y9243D01*
X30542Y9128D01*
X30484Y8957D01*
Y8843D01*
X30542Y8671D01*
X30656Y8557D01*
X30770Y8500D01*
X30941D01*
X31056Y8557D01*
X31170Y8671D01*
X31427Y9700D02*
Y8500D01*
Y9071D02*
X31598Y9243D01*
X31713Y9300D01*
X31884D01*
X31998Y9243D01*
X32055Y9071D01*
Y8500D01*
D12*
X4500Y15000D02*
Y21500D01*
X29500Y15000D02*
Y21500D01*
X4500D02*
X7500D01*
X4500Y15000D02*
X7500D01*
X26500D02*
X29500D01*
X26500Y21500D02*
X29500D01*
D14*
X62541Y50898D02*
X65887D01*
Y30110D02*
Y50898D01*
X62541Y30110D02*
X65887D01*
X62541D02*
Y50898D01*
X47441Y51498D02*
X50787D01*
Y30710D02*
Y51498D01*
X47441Y30710D02*
X50787D01*
X47441D02*
Y51498D01*
X6500Y72000D02*
X7500D01*
Y74024D01*
X6500D02*
X7500D01*
X6500Y72000D02*
Y74024D01*
X21500Y69500D02*
Y71500D01*
Y69500D02*
X23500D01*
Y71500D01*
X21500D02*
X23500D01*
X22500Y69100D02*
Y71800D01*
X21500Y72000D02*
Y74000D01*
Y72000D02*
X23500D01*
Y74000D01*
X21500D02*
X23500D01*
X22500Y71600D02*
Y74300D01*
X21500Y67500D02*
Y68500D01*
Y67500D02*
X23524D01*
Y68500D01*
X21500D02*
X23524D01*
X32941Y30093D02*
Y42898D01*
Y30093D02*
X36287D01*
Y42898D01*
X32941D02*
X36287D01*
X13800Y20500D02*
X28020D01*
X27600Y15900D02*
X28020Y16320D01*
Y20500D01*
X13800Y16400D02*
Y20500D01*
Y16400D02*
X14300Y15900D01*
X27600D01*
X26520Y12860D02*
X29440D01*
Y10200D02*
Y12860D01*
X26520Y10200D02*
X29440D01*
X26520D02*
Y12860D01*
X5000Y16400D02*
X6100D01*
X5000D02*
Y19300D01*
X11500D01*
Y16400D02*
Y19300D01*
X6100Y16400D02*
X11500D01*
X19441Y36110D02*
Y56898D01*
Y36110D02*
X22787D01*
Y56898D01*
X19441D02*
X22787D01*
X8441Y51893D02*
Y64698D01*
Y51893D02*
X11787D01*
Y64698D01*
X8441D02*
X11787D01*
X30700Y30700D02*
Y31500D01*
X27900Y30700D02*
X30700D01*
X27900D02*
Y31500D01*
Y36400D02*
Y37100D01*
X30700D01*
Y36400D02*
Y37100D01*
Y32500D02*
Y35300D01*
X27900Y32500D02*
Y35300D01*
X20400Y24600D02*
Y27400D01*
X23200Y24600D02*
Y27400D01*
Y28500D02*
Y29200D01*
X20400D02*
X23200D01*
X20400Y28500D02*
Y29200D01*
Y22800D02*
Y23600D01*
Y22800D02*
X23200D01*
Y23600D01*
X28200Y22800D02*
Y23600D01*
X25400Y22800D02*
X28200D01*
X25400D02*
Y23600D01*
Y28500D02*
Y29200D01*
X28200D01*
Y28500D02*
Y29200D01*
Y24600D02*
Y27400D01*
X25400Y24600D02*
Y27400D01*
X13260Y30360D02*
Y33280D01*
X10600Y30360D02*
X13260D01*
X10600D02*
Y33280D01*
X13260D01*
X22940Y64020D02*
Y66940D01*
X25600D01*
Y64020D02*
Y66940D01*
X22940Y64020D02*
X25600D01*
X51600Y52600D02*
Y54624D01*
X52600D01*
Y52600D02*
Y54624D01*
X51600Y52600D02*
X52600D01*
X57100Y52500D02*
Y54524D01*
X58100D01*
Y52500D02*
Y54524D01*
X57100Y52500D02*
X58100D01*
X17360Y13870D02*
X17260Y13970D01*
X17060D01*
X16960Y13870D01*
Y13770D01*
X17060Y13670D01*
X17260D01*
X17360Y13570D01*
Y13470D01*
X17260Y13370D01*
X17060D01*
X16960Y13470D01*
X17560Y13370D02*
X17760D01*
X17660D01*
Y13970D01*
X17560Y13870D01*
X26565Y13205D02*
Y13805D01*
X26865D01*
X26965Y13705D01*
Y13505D01*
X26865Y13405D01*
X26565D01*
X27165Y13705D02*
X27265Y13805D01*
X27465D01*
X27565Y13705D01*
Y13605D01*
X27465Y13505D01*
X27565Y13405D01*
Y13305D01*
X27465Y13205D01*
X27265D01*
X27165Y13305D01*
Y13405D01*
X27265Y13505D01*
X27165Y13605D01*
Y13705D01*
X27265Y13505D02*
X27465D01*
X27765Y13205D02*
Y13605D01*
X27965Y13805D01*
X28164Y13605D01*
Y13205D01*
Y13505D01*
X27765D01*
X5500Y20000D02*
Y20600D01*
X5800D01*
X5900Y20500D01*
Y20300D01*
X5800Y20200D01*
X5500D01*
X6400Y20000D02*
Y20600D01*
X6100Y20300D01*
X6500D01*
X6700Y20000D02*
Y20400D01*
X6900Y20600D01*
X7099Y20400D01*
Y20000D01*
Y20300D01*
X6700D01*
X10400Y65000D02*
Y65600D01*
X10700D01*
X10800Y65500D01*
Y65300D01*
X10700Y65200D01*
X10400D01*
X11000Y65500D02*
X11100Y65600D01*
X11300D01*
X11400Y65500D01*
Y65400D01*
X11300Y65300D01*
X11200D01*
X11300D01*
X11400Y65200D01*
Y65100D01*
X11300Y65000D01*
X11100D01*
X11000Y65100D01*
X11600Y65000D02*
Y65400D01*
X11800Y65600D01*
X11999Y65400D01*
Y65000D01*
Y65300D01*
X11600D01*
X44800Y49900D02*
X44200D01*
Y50200D01*
X44300Y50300D01*
X44500D01*
X44600Y50200D01*
Y49900D01*
X44200Y50500D02*
Y50900D01*
X44300D01*
X44700Y50500D01*
X44800D01*
Y51100D02*
X44400D01*
X44200Y51300D01*
X44400Y51499D01*
X44800D01*
X44500D01*
Y51100D01*
X60100Y49300D02*
X59500D01*
Y49600D01*
X59600Y49700D01*
X59800D01*
X59900Y49600D01*
Y49300D01*
X60000Y49900D02*
X60100Y50000D01*
Y50200D01*
X60000Y50300D01*
X59600D01*
X59500Y50200D01*
Y50000D01*
X59600Y49900D01*
X59700D01*
X59800Y50000D01*
Y50300D01*
X60100Y50500D02*
X59700D01*
X59500Y50700D01*
X59700Y50899D01*
X60100D01*
X59800D01*
Y50500D01*
X19000Y55000D02*
X18400D01*
Y55300D01*
X18500Y55400D01*
X18700D01*
X18800Y55300D01*
Y55000D01*
X19000Y56000D02*
Y55600D01*
X18600Y56000D01*
X18500D01*
X18400Y55900D01*
Y55700D01*
X18500Y55600D01*
X19000Y56200D02*
X18600D01*
X18400Y56400D01*
X18600Y56599D01*
X19000D01*
X18700D01*
Y56200D01*
X35000Y43500D02*
Y44100D01*
X35300D01*
X35400Y44000D01*
Y43800D01*
X35300Y43700D01*
X35000D01*
X36000Y44100D02*
X35600D01*
Y43800D01*
X35800Y43900D01*
X35900D01*
X36000Y43800D01*
Y43600D01*
X35900Y43500D01*
X35700D01*
X35600Y43600D01*
X36200Y43500D02*
Y43900D01*
X36400Y44100D01*
X36599Y43900D01*
Y43500D01*
Y43800D01*
X36200D01*
X25320Y30070D02*
X24920D01*
Y29770D01*
X25120D01*
X24920D01*
Y29470D01*
X25520D02*
X25720D01*
X25620D01*
Y30070D01*
X25520Y29970D01*
X26020Y29470D02*
Y29870D01*
X26220Y30070D01*
X26420Y29870D01*
Y29470D01*
Y29770D01*
X26020D01*
X20320Y30070D02*
X19920D01*
Y29770D01*
X20120D01*
X19920D01*
Y29470D01*
X20920D02*
X20520D01*
X20920Y29870D01*
Y29970D01*
X20820Y30070D01*
X20620D01*
X20520Y29970D01*
X21120Y29470D02*
Y29870D01*
X21320Y30070D01*
X21519Y29870D01*
Y29470D01*
Y29770D01*
X21120D01*
X27820Y37970D02*
X27420D01*
Y37670D01*
X27620D01*
X27420D01*
Y37370D01*
X28020Y37870D02*
X28120Y37970D01*
X28320D01*
X28420Y37870D01*
Y37770D01*
X28320Y37670D01*
X28220D01*
X28320D01*
X28420Y37570D01*
Y37470D01*
X28320Y37370D01*
X28120D01*
X28020Y37470D01*
X28620Y37370D02*
Y37770D01*
X28820Y37970D01*
X29019Y37770D01*
Y37370D01*
Y37670D01*
X28620D01*
X14000Y21000D02*
Y21600D01*
X14300D01*
X14400Y21500D01*
Y21300D01*
X14300Y21200D01*
X14000D01*
X14600Y21000D02*
X14800D01*
X14700D01*
Y21600D01*
X14600Y21500D01*
X15100Y21000D02*
Y21400D01*
X15300Y21600D01*
X15500Y21400D01*
Y21000D01*
Y21300D01*
X15100D01*
X13605Y33235D02*
X14205D01*
Y32935D01*
X14105Y32835D01*
X13905D01*
X13805Y32935D01*
Y33235D01*
X13605Y32635D02*
Y32435D01*
Y32535D01*
X14205D01*
X14105Y32635D01*
Y32135D02*
X14205Y32035D01*
Y31835D01*
X14105Y31735D01*
X13705D01*
X13605Y31835D01*
Y32035D01*
X13705Y32135D01*
X14105D01*
X13605Y31536D02*
X14005D01*
X14205Y31336D01*
X14005Y31136D01*
X13605D01*
X13905D01*
Y31536D01*
X23400Y63300D02*
Y63900D01*
X23700D01*
X23800Y63800D01*
Y63600D01*
X23700Y63500D01*
X23400D01*
X24000Y63300D02*
X24200D01*
X24100D01*
Y63900D01*
X24000Y63800D01*
X24500Y63300D02*
X24700D01*
X24600D01*
Y63900D01*
X24500Y63800D01*
X24999Y63300D02*
Y63700D01*
X25199Y63900D01*
X25399Y63700D01*
Y63300D01*
Y63600D01*
X24999D01*
X51645Y55575D02*
X52045Y54975D01*
Y55575D02*
X51645Y54975D01*
X52645Y55575D02*
X52445Y55475D01*
X52245Y55275D01*
Y55075D01*
X52345Y54975D01*
X52545D01*
X52645Y55075D01*
Y55175D01*
X52545Y55275D01*
X52245D01*
X52845Y54975D02*
Y55375D01*
X53045Y55575D01*
X53244Y55375D01*
Y54975D01*
Y55275D01*
X52845D01*
X57145Y55475D02*
X57545Y54875D01*
Y55475D02*
X57145Y54875D01*
X57745Y55475D02*
X58145D01*
Y55375D01*
X57745Y54975D01*
Y54875D01*
X58345D02*
Y55275D01*
X58545Y55475D01*
X58744Y55275D01*
Y54875D01*
Y55175D01*
X58345D01*
X14500Y15600D02*
Y15000D01*
Y15600D02*
X14757D01*
X14843Y15571D01*
X14871Y15543D01*
X14900Y15486D01*
Y15428D01*
X14871Y15371D01*
X14843Y15343D01*
X14757Y15314D01*
X14500D02*
X14757D01*
X14843Y15286D01*
X14871Y15257D01*
X14900Y15200D01*
Y15114D01*
X14871Y15057D01*
X14843Y15029D01*
X14757Y15000D01*
X14500D01*
X15377Y15400D02*
Y15000D01*
Y15314D02*
X15320Y15371D01*
X15263Y15400D01*
X15177D01*
X15120Y15371D01*
X15063Y15314D01*
X15034Y15229D01*
Y15171D01*
X15063Y15086D01*
X15120Y15029D01*
X15177Y15000D01*
X15263D01*
X15320Y15029D01*
X15377Y15086D01*
X15623Y15600D02*
Y15114D01*
X15651Y15029D01*
X15708Y15000D01*
X15765D01*
X15537Y15400D02*
X15737D01*
X15937Y15600D02*
Y15114D01*
X15965Y15029D01*
X16023Y15000D01*
X16080D01*
X15851Y15400D02*
X16051D01*
X16165Y15229D02*
X16508D01*
Y15286D01*
X16480Y15343D01*
X16451Y15371D01*
X16394Y15400D01*
X16308D01*
X16251Y15371D01*
X16194Y15314D01*
X16165Y15229D01*
Y15171D01*
X16194Y15086D01*
X16251Y15029D01*
X16308Y15000D01*
X16394D01*
X16451Y15029D01*
X16508Y15086D01*
X16637Y15400D02*
Y15000D01*
Y15229D02*
X16665Y15314D01*
X16722Y15371D01*
X16780Y15400D01*
X16865D01*
X16977Y15600D02*
X17005Y15571D01*
X17034Y15600D01*
X17005Y15628D01*
X16977Y15600D01*
X17005Y15400D02*
Y15000D01*
X17139Y15229D02*
X17482D01*
Y15286D01*
X17454Y15343D01*
X17425Y15371D01*
X17368Y15400D01*
X17282D01*
X17225Y15371D01*
X17168Y15314D01*
X17139Y15229D01*
Y15171D01*
X17168Y15086D01*
X17225Y15029D01*
X17282Y15000D01*
X17368D01*
X17425Y15029D01*
X17482Y15086D01*
X17925Y15314D02*
X17896Y15371D01*
X17811Y15400D01*
X17725D01*
X17639Y15371D01*
X17611Y15314D01*
X17639Y15257D01*
X17696Y15229D01*
X17839Y15200D01*
X17896Y15171D01*
X17925Y15114D01*
Y15086D01*
X17896Y15029D01*
X17811Y15000D01*
X17725D01*
X17639Y15029D01*
X17611Y15086D01*
X5528Y16057D02*
X5500Y16114D01*
X5443Y16171D01*
X5386Y16200D01*
X5271D01*
X5214Y16171D01*
X5157Y16114D01*
X5129Y16057D01*
X5100Y15971D01*
Y15829D01*
X5129Y15743D01*
X5157Y15686D01*
X5214Y15629D01*
X5271Y15600D01*
X5386D01*
X5443Y15629D01*
X5500Y15686D01*
X5528Y15743D01*
X5840Y16000D02*
X5783Y15971D01*
X5726Y15914D01*
X5697Y15829D01*
Y15771D01*
X5726Y15686D01*
X5783Y15629D01*
X5840Y15600D01*
X5926D01*
X5983Y15629D01*
X6040Y15686D01*
X6068Y15771D01*
Y15829D01*
X6040Y15914D01*
X5983Y15971D01*
X5926Y16000D01*
X5840D01*
X6200D02*
Y15600D01*
Y15886D02*
X6285Y15971D01*
X6343Y16000D01*
X6428D01*
X6485Y15971D01*
X6514Y15886D01*
Y15600D01*
Y15886D02*
X6600Y15971D01*
X6657Y16000D01*
X6743D01*
X6800Y15971D01*
X6828Y15886D01*
Y15600D01*
X7017Y16000D02*
Y15400D01*
Y15914D02*
X7074Y15971D01*
X7131Y16000D01*
X7217D01*
X7274Y15971D01*
X7331Y15914D01*
X7360Y15829D01*
Y15771D01*
X7331Y15686D01*
X7274Y15629D01*
X7217Y15600D01*
X7131D01*
X7074Y15629D01*
X7017Y15686D01*
X7488Y16000D02*
Y15714D01*
X7517Y15629D01*
X7574Y15600D01*
X7659D01*
X7717Y15629D01*
X7802Y15714D01*
Y16000D02*
Y15600D01*
X8045Y16200D02*
Y15714D01*
X8074Y15629D01*
X8131Y15600D01*
X8188D01*
X7959Y16000D02*
X8159D01*
X8274Y15829D02*
X8616D01*
Y15886D01*
X8588Y15943D01*
X8559Y15971D01*
X8502Y16000D01*
X8416D01*
X8359Y15971D01*
X8302Y15914D01*
X8274Y15829D01*
Y15771D01*
X8302Y15686D01*
X8359Y15629D01*
X8416Y15600D01*
X8502D01*
X8559Y15629D01*
X8616Y15686D01*
X8745Y16000D02*
Y15600D01*
Y15829D02*
X8773Y15914D01*
X8831Y15971D01*
X8888Y16000D01*
X8973D01*
X29900Y27900D02*
X29300D01*
X29900D02*
Y27643D01*
X29871Y27557D01*
X29843Y27529D01*
X29786Y27500D01*
X29728D01*
X29671Y27529D01*
X29643Y27557D01*
X29614Y27643D01*
Y27900D02*
Y27643D01*
X29586Y27557D01*
X29557Y27529D01*
X29500Y27500D01*
X29414D01*
X29357Y27529D01*
X29329Y27557D01*
X29300Y27643D01*
Y27900D01*
X29700Y27023D02*
X29300D01*
X29614D02*
X29671Y27080D01*
X29700Y27137D01*
Y27223D01*
X29671Y27280D01*
X29614Y27337D01*
X29529Y27366D01*
X29471D01*
X29386Y27337D01*
X29329Y27280D01*
X29300Y27223D01*
Y27137D01*
X29329Y27080D01*
X29386Y27023D01*
X29900Y26777D02*
X29414D01*
X29329Y26749D01*
X29300Y26692D01*
Y26635D01*
X29700Y26863D02*
Y26663D01*
X29900Y26463D02*
X29414D01*
X29329Y26435D01*
X29300Y26377D01*
Y26320D01*
X29700Y26549D02*
Y26349D01*
X29300Y25778D02*
X29900Y26006D01*
X29300Y26235D01*
X29500Y26149D02*
Y25863D01*
X29900Y25166D02*
X29300D01*
X29900D02*
Y24795D01*
X29614Y25166D02*
Y24938D01*
X29700Y24726D02*
X29414D01*
X29329Y24698D01*
X29300Y24641D01*
Y24555D01*
X29329Y24498D01*
X29414Y24412D01*
X29700D02*
X29300D01*
X29614Y23941D02*
X29671Y23969D01*
X29700Y24055D01*
Y24141D01*
X29671Y24227D01*
X29614Y24255D01*
X29557Y24227D01*
X29529Y24169D01*
X29500Y24027D01*
X29471Y23969D01*
X29414Y23941D01*
X29386D01*
X29329Y23969D01*
X29300Y24055D01*
Y24141D01*
X29329Y24227D01*
X29386Y24255D01*
X29529Y23815D02*
Y23472D01*
X29586D01*
X29643Y23501D01*
X29671Y23530D01*
X29700Y23587D01*
Y23672D01*
X29671Y23729D01*
X29614Y23787D01*
X29529Y23815D01*
X29471D01*
X29386Y23787D01*
X29329Y23729D01*
X29300Y23672D01*
Y23587D01*
X29329Y23530D01*
X29386Y23472D01*
X18800Y23400D02*
X19400D01*
X18800D02*
Y23657D01*
X18829Y23743D01*
X18857Y23771D01*
X18914Y23800D01*
X18972D01*
X19029Y23771D01*
X19057Y23743D01*
X19086Y23657D01*
Y23400D02*
Y23657D01*
X19114Y23743D01*
X19143Y23771D01*
X19200Y23800D01*
X19286D01*
X19343Y23771D01*
X19371Y23743D01*
X19400Y23657D01*
Y23400D01*
X19000Y24277D02*
X19400D01*
X19086D02*
X19029Y24220D01*
X19000Y24163D01*
Y24077D01*
X19029Y24020D01*
X19086Y23963D01*
X19171Y23934D01*
X19229D01*
X19314Y23963D01*
X19371Y24020D01*
X19400Y24077D01*
Y24163D01*
X19371Y24220D01*
X19314Y24277D01*
X18800Y24523D02*
X19286D01*
X19371Y24551D01*
X19400Y24608D01*
Y24665D01*
X19000Y24437D02*
Y24637D01*
X18800Y24837D02*
X19286D01*
X19371Y24865D01*
X19400Y24923D01*
Y24980D01*
X19000Y24751D02*
Y24951D01*
X18800Y25065D02*
X19400D01*
X18800D02*
Y25322D01*
X18829Y25408D01*
X18857Y25437D01*
X18914Y25465D01*
X18972D01*
X19029Y25437D01*
X19057Y25408D01*
X19086Y25322D01*
Y25065D02*
Y25322D01*
X19114Y25408D01*
X19143Y25437D01*
X19200Y25465D01*
X19286D01*
X19343Y25437D01*
X19371Y25408D01*
X19400Y25322D01*
Y25065D01*
X18800Y26071D02*
X19400D01*
X18800D02*
Y26442D01*
X19086Y26071D02*
Y26299D01*
X19000Y26511D02*
X19286D01*
X19371Y26539D01*
X19400Y26596D01*
Y26682D01*
X19371Y26739D01*
X19286Y26825D01*
X19000D02*
X19400D01*
X19086Y27296D02*
X19029Y27268D01*
X19000Y27182D01*
Y27096D01*
X19029Y27011D01*
X19086Y26982D01*
X19143Y27011D01*
X19171Y27068D01*
X19200Y27211D01*
X19229Y27268D01*
X19286Y27296D01*
X19314D01*
X19371Y27268D01*
X19400Y27182D01*
Y27096D01*
X19371Y27011D01*
X19314Y26982D01*
X19171Y27422D02*
Y27765D01*
X19114D01*
X19057Y27736D01*
X19029Y27708D01*
X19000Y27651D01*
Y27565D01*
X19029Y27508D01*
X19086Y27451D01*
X19171Y27422D01*
X19229D01*
X19314Y27451D01*
X19371Y27508D01*
X19400Y27565D01*
Y27651D01*
X19371Y27708D01*
X19314Y27765D01*
X26200Y31500D02*
X26800D01*
X26200Y31300D02*
Y31700D01*
Y31771D02*
X26800D01*
X26514D02*
X26429Y31857D01*
X26400Y31914D01*
Y32000D01*
X26429Y32057D01*
X26514Y32086D01*
X26800D01*
X26400Y32243D02*
X26800D01*
X26571D02*
X26486Y32271D01*
X26429Y32328D01*
X26400Y32385D01*
Y32471D01*
Y32525D02*
X26686D01*
X26771Y32554D01*
X26800Y32611D01*
Y32697D01*
X26771Y32754D01*
X26686Y32840D01*
X26400D02*
X26800D01*
X26486Y33311D02*
X26429Y33282D01*
X26400Y33197D01*
Y33111D01*
X26429Y33025D01*
X26486Y32997D01*
X26543Y33025D01*
X26571Y33082D01*
X26600Y33225D01*
X26629Y33282D01*
X26686Y33311D01*
X26714D01*
X26771Y33282D01*
X26800Y33197D01*
Y33111D01*
X26771Y33025D01*
X26714Y32997D01*
X26200Y33522D02*
X26686D01*
X26771Y33551D01*
X26800Y33608D01*
Y33665D01*
X26400Y33437D02*
Y33637D01*
X26571Y33751D02*
Y34094D01*
X26514D01*
X26457Y34065D01*
X26429Y34037D01*
X26400Y33979D01*
Y33894D01*
X26429Y33837D01*
X26486Y33779D01*
X26571Y33751D01*
X26629D01*
X26714Y33779D01*
X26771Y33837D01*
X26800Y33894D01*
Y33979D01*
X26771Y34037D01*
X26714Y34094D01*
X26400Y34222D02*
X26800D01*
X26571D02*
X26486Y34251D01*
X26429Y34308D01*
X26400Y34365D01*
Y34451D01*
X26200Y34976D02*
X26800D01*
X26200D02*
Y35348D01*
X26486Y34976D02*
Y35205D01*
X26400Y35416D02*
X26686D01*
X26771Y35445D01*
X26800Y35502D01*
Y35588D01*
X26771Y35645D01*
X26686Y35730D01*
X26400D02*
X26800D01*
X26486Y36202D02*
X26429Y36173D01*
X26400Y36088D01*
Y36002D01*
X26429Y35916D01*
X26486Y35888D01*
X26543Y35916D01*
X26571Y35973D01*
X26600Y36116D01*
X26629Y36173D01*
X26686Y36202D01*
X26714D01*
X26771Y36173D01*
X26800Y36088D01*
Y36002D01*
X26771Y35916D01*
X26714Y35888D01*
X26571Y36328D02*
Y36670D01*
X26514D01*
X26457Y36642D01*
X26429Y36613D01*
X26400Y36556D01*
Y36470D01*
X26429Y36413D01*
X26486Y36356D01*
X26571Y36328D01*
X26629D01*
X26714Y36356D01*
X26771Y36413D01*
X26800Y36470D01*
Y36556D01*
X26771Y36613D01*
X26714Y36670D01*
X11500Y29800D02*
X11100D01*
Y29500D01*
X11300D01*
X11100D01*
Y29200D01*
X11800Y29600D02*
X12000D01*
X12100Y29500D01*
Y29200D01*
X11800D01*
X11700Y29300D01*
X11800Y29400D01*
X12100D01*
X12300Y29200D02*
Y29600D01*
X12600D01*
X12699Y29500D01*
Y29200D01*
X48700Y11400D02*
X48600Y11500D01*
X48400D01*
X48300Y11400D01*
Y11300D01*
X48400Y11200D01*
X48600D01*
X48700Y11100D01*
Y11000D01*
X48600Y10900D01*
X48400D01*
X48300Y11000D01*
X48900Y10700D02*
Y11300D01*
X49200D01*
X49300Y11200D01*
Y11000D01*
X49200Y10900D01*
X48900D01*
X49600D02*
X49800D01*
X49899Y11000D01*
Y11200D01*
X49800Y11300D01*
X49600D01*
X49500Y11200D01*
Y11000D01*
X49600Y10900D01*
X50099D02*
Y11300D01*
X50399D01*
X50499Y11200D01*
Y10900D01*
X50699D02*
X50999D01*
X51099Y11000D01*
X50999Y11100D01*
X50799D01*
X50699Y11200D01*
X50799Y11300D01*
X51099D01*
X51399Y10900D02*
X51599D01*
X51699Y11000D01*
Y11200D01*
X51599Y11300D01*
X51399D01*
X51299Y11200D01*
Y11000D01*
X51399Y10900D01*
X51899Y11300D02*
Y10900D01*
Y11100D01*
X51999Y11200D01*
X52099Y11300D01*
X52199D01*
X52799Y10900D02*
X52599D01*
X52499Y11000D01*
Y11200D01*
X52599Y11300D01*
X52799D01*
X52899Y11200D01*
Y11100D01*
X52499D01*
X53498Y11500D02*
Y10900D01*
X53198D01*
X53098Y11000D01*
Y11200D01*
X53198Y11300D01*
X53498D01*
X54298Y11500D02*
Y10900D01*
X54598D01*
X54698Y11000D01*
Y11100D01*
X54598Y11200D01*
X54298D01*
X54598D01*
X54698Y11300D01*
Y11400D01*
X54598Y11500D01*
X54298D01*
X54898Y11300D02*
Y11000D01*
X54998Y10900D01*
X55298D01*
Y10800D01*
X55198Y10700D01*
X55098D01*
X55298Y10900D02*
Y11300D01*
X55498D02*
X55598D01*
Y11200D01*
X55498D01*
Y11300D01*
Y11000D02*
X55598D01*
Y10900D01*
X55498D01*
Y11000D01*
D26*
X17449Y12974D02*
G03*
X17449Y12974I-49J0D01*
G01*
D27*
X17900Y9415D02*
Y12785D01*
X16900Y9415D02*
X17900D01*
X16900D02*
Y12785D01*
X17900D01*
D28*
X49010Y7860D02*
X54660D01*
X49010Y7870D02*
X54680D01*
X49010Y7880D02*
X54700D01*
X49010Y7890D02*
X54720D01*
X49010Y7900D02*
X54730D01*
X49010Y7910D02*
X54750D01*
X49010Y7920D02*
X54760D01*
X49010Y7930D02*
X54770D01*
X49010Y7940D02*
X54780D01*
X49010Y7950D02*
X54790D01*
X49010Y7960D02*
X54800D01*
X49010Y7970D02*
X54810D01*
X49010Y7980D02*
X54820D01*
X49010Y7990D02*
X54830D01*
X49010Y8000D02*
X54840D01*
X49010Y8010D02*
X54850D01*
X49010Y8020D02*
X54850D01*
X49010Y8030D02*
X54860D01*
X49010Y8040D02*
X54870D01*
X49010Y8050D02*
X54870D01*
X49010Y8060D02*
X54880D01*
X49010Y8070D02*
X54880D01*
X49010Y8080D02*
X54890D01*
X49010Y8090D02*
X54890D01*
X49010Y8100D02*
X54890D01*
X49010Y8110D02*
X54900D01*
X49010Y8120D02*
X54900D01*
X49010Y8130D02*
X54900D01*
X49010Y8140D02*
X54910D01*
X49010Y8150D02*
X54910D01*
X49010Y8160D02*
X54910D01*
X49010Y8170D02*
X54910D01*
X49010Y8180D02*
X54910D01*
X49010Y8190D02*
X54910D01*
X49010Y8200D02*
X54910D01*
X49010Y8210D02*
X54910D01*
X49010Y8220D02*
X54910D01*
X49010Y8230D02*
X54910D01*
X49010Y8240D02*
X54910D01*
X49010Y8250D02*
X54910D01*
X49010Y8260D02*
X54910D01*
X49010Y8270D02*
X54910D01*
X53040Y8280D02*
X54910D01*
X50460D02*
X52960D01*
X49010D02*
X50370D01*
X53050Y8290D02*
X54910D01*
X50470D02*
X52950D01*
X49010D02*
X50360D01*
X53060Y8300D02*
X54910D01*
X50480D02*
X52950D01*
X49010D02*
X50360D01*
X53070Y8310D02*
X54910D01*
X52970D02*
X53020D01*
X50480D02*
X52950D01*
X50380D02*
X50430D01*
X49010D02*
X50360D01*
X53070Y8320D02*
X54910D01*
X50490D02*
X53030D01*
X49010D02*
X50440D01*
X53070Y8330D02*
X54910D01*
X50490D02*
X53030D01*
X49010D02*
X50450D01*
X54210Y8340D02*
X54910D01*
X54100D02*
X54170D01*
X53940D02*
X54020D01*
X53830D02*
X53900D01*
X53710D02*
X53750D01*
X53660D02*
X53670D01*
X53530D02*
X53600D01*
X53260D02*
X53410D01*
X53170D02*
X53230D01*
X53080D02*
X53130D01*
X53010D02*
X53040D01*
X52890D02*
X52970D01*
X52780D02*
X52850D01*
X52640D02*
X52700D01*
X52420D02*
X52560D01*
X52150D02*
X52320D01*
X52040D02*
X52070D01*
X51880D02*
X51970D01*
X51790D02*
X51840D01*
X51690D02*
X51750D01*
X51570D02*
X51650D01*
X51380D02*
X51500D01*
X51310D02*
X51350D01*
X51180D02*
X51250D01*
X51020D02*
X51110D01*
X50850D02*
X50940D01*
X50760D02*
X50810D01*
X50490D02*
X50640D01*
X50430D02*
X50450D01*
X50300D02*
X50380D01*
X50210D02*
X50260D01*
X50110D02*
X50170D01*
X50040D02*
X50070D01*
X49940D02*
X49990D01*
X49850D02*
X49900D01*
X49800D02*
X49820D01*
X49670D02*
X49740D01*
X49580D02*
X49630D01*
X49490D02*
X49540D01*
X49010D02*
X49450D01*
X54210Y8350D02*
X54910D01*
X54110D02*
X54170D01*
X53940D02*
X54010D01*
X53840D02*
X53900D01*
X53710D02*
X53750D01*
X53530D02*
X53580D01*
X53260D02*
X53410D01*
X53170D02*
X53230D01*
X53080D02*
X53130D01*
X53030D02*
X53040D01*
X52890D02*
X52950D01*
X52790D02*
X52850D01*
X52650D02*
X52700D01*
X52440D02*
X52550D01*
X52160D02*
X52320D01*
X52040D02*
X52070D01*
X51880D02*
X51950D01*
X51790D02*
X51840D01*
X51690D02*
X51750D01*
X51590D02*
X51650D01*
X51380D02*
X51480D01*
X51310D02*
X51350D01*
X51180D02*
X51240D01*
X51020D02*
X51090D01*
X50850D02*
X50920D01*
X50760D02*
X50810D01*
X50490D02*
X50640D01*
X50300D02*
X50370D01*
X50210D02*
X50260D01*
X50110D02*
X50170D01*
X50030D02*
X50070D01*
X49940D02*
X49980D01*
X49850D02*
X49900D01*
X49670D02*
X49730D01*
X49580D02*
X49630D01*
X49490D02*
X49530D01*
X49010D02*
X49450D01*
X54210Y8360D02*
X54910D01*
X54110D02*
X54170D01*
X53940D02*
X54000D01*
X53850D02*
X53900D01*
X53710D02*
X53750D01*
X53530D02*
X53580D01*
X53260D02*
X53410D01*
X53170D02*
X53230D01*
X53080D02*
X53130D01*
X52890D02*
X52940D01*
X52800D02*
X52850D01*
X52650D02*
X52700D01*
X52460D02*
X52540D01*
X52170D02*
X52320D01*
X52040D02*
X52070D01*
X51880D02*
X51940D01*
X51790D02*
X51840D01*
X51690D02*
X51750D01*
X51590D02*
X51650D01*
X51380D02*
X51470D01*
X51310D02*
X51350D01*
X51180D02*
X51230D01*
X51020D02*
X51080D01*
X50850D02*
X50910D01*
X50760D02*
X50810D01*
X50490D02*
X50640D01*
X50300D02*
X50360D01*
X50210D02*
X50260D01*
X50110D02*
X50170D01*
X50020D02*
X50070D01*
X49940D02*
X49970D01*
X49850D02*
X49900D01*
X49670D02*
X49720D01*
X49590D02*
X49630D01*
X49490D02*
X49530D01*
X49010D02*
X49450D01*
X54210Y8370D02*
X54910D01*
X54110D02*
X54170D01*
X54040D02*
X54100D01*
X53940D02*
X53990D01*
X53850D02*
X53900D01*
X53710D02*
X53810D01*
X53620D02*
X53660D01*
X53460D02*
X53580D01*
X53260D02*
X53410D01*
X53170D02*
X53230D01*
X53080D02*
X53130D01*
X52990D02*
X53020D01*
X52890D02*
X52940D01*
X52800D02*
X52850D01*
X52650D02*
X52760D01*
X52580D02*
X52640D01*
X52470D02*
X52530D01*
X52360D02*
X52390D01*
X52170D02*
X52320D01*
X51990D02*
X52130D01*
X51880D02*
X51930D01*
X51790D02*
X51840D01*
X51690D02*
X51750D01*
X51600D02*
X51650D01*
X51510D02*
X51550D01*
X51380D02*
X51460D01*
X51280D02*
X51350D01*
X51130D02*
X51230D01*
X51020D02*
X51080D01*
X50950D02*
X51010D01*
X50850D02*
X50900D01*
X50680D02*
X50810D01*
X50490D02*
X50640D01*
X50410D02*
X50430D01*
X50300D02*
X50350D01*
X50210D02*
X50260D01*
X50110D02*
X50170D01*
X50010D02*
X50070D01*
X49940D02*
X49970D01*
X49850D02*
X49900D01*
X49760D02*
X49800D01*
X49670D02*
X49720D01*
X49590D02*
X49630D01*
X49490D02*
X49530D01*
X49010D02*
X49450D01*
X54210Y8380D02*
X54910D01*
X54030D02*
X54170D01*
X53940D02*
X53990D01*
X53860D02*
X53900D01*
X53710D02*
X53810D01*
X53610D02*
X53670D01*
X53460D02*
X53580D01*
X53260D02*
X53410D01*
X53170D02*
X53230D01*
X53080D02*
X53130D01*
X52980D02*
X53030D01*
X52890D02*
X52930D01*
X52800D02*
X52850D01*
X52570D02*
X52760D01*
X52470D02*
X52530D01*
X52360D02*
X52410D01*
X52170D02*
X52320D01*
X51980D02*
X52130D01*
X51880D02*
X51930D01*
X51790D02*
X51840D01*
X51690D02*
X51750D01*
X51610D02*
X51650D01*
X51500D02*
X51560D01*
X51380D02*
X51460D01*
X51270D02*
X51350D01*
X51120D02*
X51230D01*
X50940D02*
X51070D01*
X50850D02*
X50900D01*
X50680D02*
X50810D01*
X50490D02*
X50640D01*
X50400D02*
X50440D01*
X50300D02*
X50350D01*
X50210D02*
X50260D01*
X50110D02*
X50170D01*
X50010D02*
X50070D01*
X49940D02*
X49960D01*
X49850D02*
X49900D01*
X49760D02*
X49810D01*
X49670D02*
X49720D01*
X49590D02*
X49630D01*
X49490D02*
X49520D01*
X49010D02*
X49450D01*
X54210Y8390D02*
X54910D01*
X54020D02*
X54170D01*
X53940D02*
X53980D01*
X53850D02*
X53900D01*
X53710D02*
X53810D01*
X53620D02*
X53670D01*
X53460D02*
X53580D01*
X53260D02*
X53410D01*
X53170D02*
X53230D01*
X53080D02*
X53130D01*
X52980D02*
X53030D01*
X52890D02*
X52930D01*
X52800D02*
X52850D01*
X52560D02*
X52760D01*
X52480D02*
X52520D01*
X52360D02*
X52430D01*
X52170D02*
X52320D01*
X51970D02*
X52130D01*
X51880D02*
X51930D01*
X51790D02*
X51840D01*
X51690D02*
X51750D01*
X51610D02*
X51650D01*
X51500D02*
X51570D01*
X51380D02*
X51460D01*
X51270D02*
X51350D01*
X51110D02*
X51230D01*
X50930D02*
X51070D01*
X50850D02*
X50900D01*
X50680D02*
X50810D01*
X50490D02*
X50640D01*
X50390D02*
X50450D01*
X50300D02*
X50350D01*
X50210D02*
X50260D01*
X50110D02*
X50170D01*
X50000D02*
X50070D01*
X49940D02*
X49950D01*
X49850D02*
X49900D01*
X49760D02*
X49810D01*
X49670D02*
X49720D01*
X49600D02*
X49630D01*
X49490D02*
X49520D01*
X49010D02*
X49450D01*
X54210Y8400D02*
X54910D01*
X54120D02*
X54170D01*
X53940D02*
X53980D01*
X53850D02*
X53900D01*
X53710D02*
X53790D01*
X53630D02*
X53670D01*
X53460D02*
X53580D01*
X53260D02*
X53410D01*
X53170D02*
X53230D01*
X53080D02*
X53130D01*
X52970D02*
X53040D01*
X52890D02*
X52930D01*
X52800D02*
X52850D01*
X52660D02*
X52730D01*
X52480D02*
X52520D01*
X52360D02*
X52430D01*
X52170D02*
X52320D01*
X51970D02*
X52100D01*
X51880D02*
X51930D01*
X51790D02*
X51840D01*
X51690D02*
X51750D01*
X51610D02*
X51650D01*
X51500D02*
X51570D01*
X51380D02*
X51460D01*
X51270D02*
X51350D01*
X51110D02*
X51230D01*
X51030D02*
X51070D01*
X50850D02*
X50900D01*
X50680D02*
X50810D01*
X50490D02*
X50640D01*
X50390D02*
X50450D01*
X50300D02*
X50350D01*
X50210D02*
X50260D01*
X50110D02*
X50170D01*
X49990D02*
X50070D01*
X49850D02*
X49900D01*
X49770D02*
X49810D01*
X49670D02*
X49720D01*
X49600D02*
X49630D01*
X49550D02*
X49560D01*
X49490D02*
X49520D01*
X49010D02*
X49450D01*
X54210Y8410D02*
X54910D01*
X54120D02*
X54170D01*
X53940D02*
X53980D01*
X53850D02*
X53900D01*
X53710D02*
X53760D01*
X53460D02*
X53590D01*
X53260D02*
X53410D01*
X53170D02*
X53230D01*
X53080D02*
X53130D01*
X52970D02*
X53040D01*
X52890D02*
X52930D01*
X52790D02*
X52850D01*
X52660D02*
X52710D01*
X52480D02*
X52520D01*
X52360D02*
X52440D01*
X52170D02*
X52320D01*
X51970D02*
X52080D01*
X51880D02*
X51930D01*
X51790D02*
X51840D01*
X51690D02*
X51750D01*
X51610D02*
X51650D01*
X51500D02*
X51570D01*
X51390D02*
X51460D01*
X51270D02*
X51350D01*
X51110D02*
X51230D01*
X51030D02*
X51070D01*
X50850D02*
X50900D01*
X50680D02*
X50810D01*
X50490D02*
X50640D01*
X50390D02*
X50450D01*
X50300D02*
X50350D01*
X50210D02*
X50260D01*
X50110D02*
X50170D01*
X49980D02*
X50070D01*
X49850D02*
X49900D01*
X49670D02*
X49730D01*
X49600D02*
X49630D01*
X49550D02*
X49570D01*
X49490D02*
X49510D01*
X49010D02*
X49450D01*
X54210Y8420D02*
X54910D01*
X54120D02*
X54170D01*
X53940D02*
X53980D01*
X53830D02*
X53900D01*
X53710D02*
X53750D01*
X53460D02*
X53600D01*
X53260D02*
X53410D01*
X53170D02*
X53230D01*
X53080D02*
X53130D01*
X52970D02*
X53040D01*
X52890D02*
X52930D01*
X52780D02*
X52850D01*
X52660D02*
X52700D01*
X52490D02*
X52520D01*
X52360D02*
X52440D01*
X52150D02*
X52320D01*
X51970D02*
X52070D01*
X51880D02*
X51930D01*
X51790D02*
X51840D01*
X51690D02*
X51750D01*
X51610D02*
X51650D01*
X51500D02*
X51570D01*
X51390D02*
X51460D01*
X51270D02*
X51350D01*
X51110D02*
X51230D01*
X51030D02*
X51070D01*
X50850D02*
X50900D01*
X50680D02*
X50810D01*
X50490D02*
X50640D01*
X50390D02*
X50450D01*
X50300D02*
X50350D01*
X50210D02*
X50260D01*
X50110D02*
X50170D01*
X49980D02*
X50070D01*
X49850D02*
X49900D01*
X49670D02*
X49740D01*
X49610D02*
X49630D01*
X49550D02*
X49570D01*
X49490D02*
X49510D01*
X49010D02*
X49450D01*
X54210Y8430D02*
X54910D01*
X54120D02*
X54170D01*
X54020D02*
X54080D01*
X53940D02*
X53980D01*
X53800D02*
X53900D01*
X53710D02*
X53750D01*
X53530D02*
X53670D01*
X53260D02*
X53410D01*
X53170D02*
X53220D01*
X53080D02*
X53130D01*
X52970D02*
X53030D01*
X52890D02*
X52930D01*
X52750D02*
X52850D01*
X52660D02*
X52700D01*
X52560D02*
X52620D01*
X52490D02*
X52520D01*
X52360D02*
X52440D01*
X52120D02*
X52320D01*
X51970D02*
X52070D01*
X51880D02*
X51930D01*
X51790D02*
X51840D01*
X51700D02*
X51750D01*
X51610D02*
X51650D01*
X51500D02*
X51570D01*
X51390D02*
X51460D01*
X51270D02*
X51350D01*
X51110D02*
X51230D01*
X51030D02*
X51070D01*
X50930D02*
X51000D01*
X50850D02*
X50900D01*
X50750D02*
X50810D01*
X50490D02*
X50640D01*
X50390D02*
X50450D01*
X50300D02*
X50350D01*
X50210D02*
X50260D01*
X50110D02*
X50170D01*
X49990D02*
X50070D01*
X49850D02*
X49900D01*
X49670D02*
X49810D01*
X49610D02*
X49630D01*
X49550D02*
X49570D01*
X49490D02*
X49510D01*
X49010D02*
X49450D01*
X54220Y8440D02*
X54910D01*
X54120D02*
X54170D01*
X54020D02*
X54080D01*
X53940D02*
X53990D01*
X53790D02*
X53900D01*
X53710D02*
X53750D01*
X53530D02*
X53670D01*
X53260D02*
X53410D01*
X53180D02*
X53220D01*
X53080D02*
X53130D01*
X52980D02*
X53030D01*
X52890D02*
X52930D01*
X52740D02*
X52850D01*
X52660D02*
X52700D01*
X52560D02*
X52620D01*
X52490D02*
X52530D01*
X52360D02*
X52440D01*
X52110D02*
X52320D01*
X51980D02*
X52070D01*
X51880D02*
X51930D01*
X51790D02*
X51840D01*
X51700D02*
X51750D01*
X51610D02*
X51650D01*
X51500D02*
X51560D01*
X51390D02*
X51460D01*
X51270D02*
X51350D01*
X51120D02*
X51230D01*
X51030D02*
X51070D01*
X50940D02*
X50990D01*
X50850D02*
X50900D01*
X50750D02*
X50810D01*
X50490D02*
X50640D01*
X50390D02*
X50450D01*
X50300D02*
X50350D01*
X50210D02*
X50260D01*
X50110D02*
X50170D01*
X50000D02*
X50070D01*
X49940D02*
X49950D01*
X49850D02*
X49900D01*
X49670D02*
X49810D01*
X49610D02*
X49630D01*
X49540D02*
X49580D01*
X49490D02*
X49510D01*
X49010D02*
X49450D01*
X54250Y8450D02*
X54910D01*
X54110D02*
X54170D01*
X54030D02*
X54080D01*
X53940D02*
X53990D01*
X53790D02*
X53900D01*
X53700D02*
X53750D01*
X53610D02*
X53660D01*
X53530D02*
X53590D01*
X53260D02*
X53410D01*
X53180D02*
X53220D01*
X53080D02*
X53130D01*
X52990D02*
X53020D01*
X52890D02*
X52940D01*
X52740D02*
X52850D01*
X52650D02*
X52700D01*
X52570D02*
X52620D01*
X52490D02*
X52530D01*
X52360D02*
X52440D01*
X52110D02*
X52320D01*
X51980D02*
X52070D01*
X51880D02*
X51930D01*
X51790D02*
X51840D01*
X51710D02*
X51740D01*
X51600D02*
X51650D01*
X51510D02*
X51550D01*
X51430D02*
X51460D01*
X51270D02*
X51350D01*
X51130D02*
X51230D01*
X51030D02*
X51080D01*
X50940D02*
X50990D01*
X50850D02*
X50900D01*
X50750D02*
X50810D01*
X50490D02*
X50640D01*
X50400D02*
X50440D01*
X50300D02*
X50350D01*
X50220D02*
X50260D01*
X50110D02*
X50170D01*
X50000D02*
X50070D01*
X49940D02*
X49960D01*
X49850D02*
X49900D01*
X49750D02*
X49810D01*
X49670D02*
X49730D01*
X49620D02*
X49630D01*
X49540D02*
X49580D01*
X49490D02*
X49500D01*
X49010D02*
X49450D01*
X54250Y8460D02*
X54910D01*
X54110D02*
X54170D01*
X53940D02*
X54000D01*
X53850D02*
X53900D01*
X53700D02*
X53750D01*
X53460D02*
X53590D01*
X53260D02*
X53410D01*
X53080D02*
X53130D01*
X52890D02*
X52940D01*
X52790D02*
X52850D01*
X52650D02*
X52700D01*
X52480D02*
X52540D01*
X52360D02*
X52440D01*
X52170D02*
X52320D01*
X52030D02*
X52070D01*
X51880D02*
X51940D01*
X51780D02*
X51840D01*
X51590D02*
X51650D01*
X51430D02*
X51470D01*
X51300D02*
X51350D01*
X51180D02*
X51200D01*
X51020D02*
X51080D01*
X50850D02*
X50910D01*
X50680D02*
X50810D01*
X50490D02*
X50640D01*
X50300D02*
X50360D01*
X50110D02*
X50170D01*
X50010D02*
X50070D01*
X49940D02*
X49970D01*
X49840D02*
X49900D01*
X49670D02*
X49730D01*
X49620D02*
X49630D01*
X49540D02*
X49580D01*
X49490D02*
X49500D01*
X49010D02*
X49450D01*
X54250Y8470D02*
X54910D01*
X54200D02*
X54210D01*
X54100D02*
X54170D01*
X53940D02*
X54010D01*
X53850D02*
X53900D01*
X53690D02*
X53760D01*
X53460D02*
X53590D01*
X53250D02*
X53410D01*
X53080D02*
X53130D01*
X52890D02*
X52950D01*
X52800D02*
X52850D01*
X52640D02*
X52710D01*
X52480D02*
X52540D01*
X52360D02*
X52430D01*
X52170D02*
X52320D01*
X52030D02*
X52080D01*
X51880D02*
X51950D01*
X51780D02*
X51840D01*
X51590D02*
X51650D01*
X51430D02*
X51480D01*
X51380D02*
X51390D01*
X51300D02*
X51350D01*
X51180D02*
X51200D01*
X51010D02*
X51090D01*
X50850D02*
X50920D01*
X50680D02*
X50810D01*
X50490D02*
X50640D01*
X50290D02*
X50370D01*
X50110D02*
X50170D01*
X50020D02*
X50070D01*
X49940D02*
X49970D01*
X49840D02*
X49900D01*
X49670D02*
X49730D01*
X49620D02*
X49630D01*
X49530D02*
X49580D01*
X49010D02*
X49450D01*
X54500Y8480D02*
X54910D01*
X54460D02*
X54490D01*
X54420D02*
X54440D01*
X54360D02*
X54400D01*
X54250D02*
X54350D01*
X54200D02*
X54220D01*
X54090D02*
X54170D01*
X53940D02*
X54020D01*
X53850D02*
X53900D01*
X53680D02*
X53770D01*
X53460D02*
X53600D01*
X53240D02*
X53410D01*
X53170D02*
X53180D01*
X53080D02*
X53130D01*
X53020D02*
X53040D01*
X52890D02*
X52960D01*
X52800D02*
X52850D01*
X52630D02*
X52720D01*
X52480D02*
X52560D01*
X52360D02*
X52430D01*
X52170D02*
X52320D01*
X52040D02*
X52090D01*
X51880D02*
X51960D01*
X51770D02*
X51840D01*
X51690D02*
X51710D01*
X51570D02*
X51650D01*
X51430D02*
X51500D01*
X51380D02*
X51400D01*
X51300D02*
X51350D01*
X51180D02*
X51200D01*
X51000D02*
X51110D01*
X50850D02*
X50930D01*
X50680D02*
X50810D01*
X50490D02*
X50640D01*
X50440D02*
X50450D01*
X50280D02*
X50380D01*
X50200D02*
X50220D01*
X50110D02*
X50170D01*
X50030D02*
X50070D01*
X49940D02*
X49980D01*
X49830D02*
X49900D01*
X49670D02*
X49740D01*
X49530D02*
X49590D01*
X49010D02*
X49450D01*
X54500Y8490D02*
X54910D01*
X54470D02*
X54490D01*
X54420D02*
X54440D01*
X54360D02*
X54400D01*
X53460D02*
X54350D01*
X52470D02*
X53410D01*
X52360D02*
X52420D01*
X51270D02*
X52320D01*
X50850D02*
X51230D01*
X50680D02*
X50810D01*
X49940D02*
X50640D01*
X49670D02*
X49900D01*
X49530D02*
X49590D01*
X49010D02*
X49450D01*
X54500Y8500D02*
X54910D01*
X54470D02*
X54490D01*
X54420D02*
X54430D01*
X54360D02*
X54400D01*
X53460D02*
X54350D01*
X52470D02*
X53410D01*
X52360D02*
X52400D01*
X51270D02*
X52320D01*
X50850D02*
X51230D01*
X50680D02*
X50810D01*
X49940D02*
X50640D01*
X49670D02*
X49900D01*
X49520D02*
X49590D01*
X49010D02*
X49450D01*
X54500Y8510D02*
X54910D01*
X54480D02*
X54490D01*
X54450D02*
X54460D01*
X54420D02*
X54430D01*
X54360D02*
X54400D01*
X53530D02*
X54350D01*
X52460D02*
X53410D01*
X51270D02*
X52320D01*
X50850D02*
X51230D01*
X50760D02*
X50810D01*
X49940D02*
X50640D01*
X49670D02*
X49900D01*
X49520D02*
X49600D01*
X49010D02*
X49450D01*
X54500Y8520D02*
X54910D01*
X54480D02*
X54490D01*
X54440D02*
X54460D01*
X54360D02*
X54400D01*
X53940D02*
X54350D01*
X53530D02*
X53900D01*
X52890D02*
X53410D01*
X52450D02*
X52850D01*
X51880D02*
X52320D01*
X51270D02*
X51840D01*
X50850D02*
X51250D01*
X50760D02*
X50810D01*
X50110D02*
X50640D01*
X49940D02*
X50070D01*
X49670D02*
X49900D01*
X49520D02*
X49600D01*
X49010D02*
X49450D01*
X54500Y8530D02*
X54910D01*
X54440D02*
X54470D01*
X54360D02*
X54400D01*
X53940D02*
X54350D01*
X53530D02*
X53900D01*
X52890D02*
X53410D01*
X52420D02*
X52850D01*
X51880D02*
X52320D01*
X50850D02*
X51840D01*
X50760D02*
X50810D01*
X50110D02*
X50640D01*
X49940D02*
X50070D01*
X49670D02*
X49900D01*
X49510D02*
X49600D01*
X49010D02*
X49450D01*
X54500Y8540D02*
X54910D01*
X54430D02*
X54470D01*
X54360D02*
X54400D01*
X53940D02*
X54350D01*
X52890D02*
X53900D01*
X51880D02*
X52850D01*
X50850D02*
X51840D01*
X50110D02*
X50810D01*
X49940D02*
X50070D01*
X49010D02*
X49900D01*
X54500Y8550D02*
X54910D01*
X54430D02*
X54480D01*
X54390D02*
X54400D01*
X50850D02*
X54320D01*
X49940D02*
X50810D01*
X49010D02*
X49900D01*
X49010Y8560D02*
X54910D01*
X49010Y8570D02*
X54910D01*
X49010Y8580D02*
X54910D01*
X49010Y8590D02*
X54910D01*
X49010Y8600D02*
X54910D01*
X49010Y8610D02*
X54910D01*
X49010Y8620D02*
X54910D01*
X49010Y8630D02*
X54910D01*
X49010Y8640D02*
X54910D01*
X49010Y8650D02*
X54910D01*
X49010Y8660D02*
X54910D01*
X49010Y8670D02*
X54910D01*
X49010Y8680D02*
X54910D01*
X49010Y8690D02*
X54910D01*
X49010Y8700D02*
X54910D01*
X49010Y8710D02*
X54910D01*
X49010Y8720D02*
X54910D01*
X49010Y8730D02*
X54910D01*
X49010Y8740D02*
X54910D01*
X49010Y8750D02*
X54910D01*
X49010Y8760D02*
X54910D01*
X52310Y8770D02*
X54910D01*
X49010D02*
X52200D01*
X52360Y8780D02*
X54910D01*
X51360D02*
X52150D01*
X49010D02*
X51240D01*
X54500Y8790D02*
X54910D01*
X54460D02*
X54490D01*
X54420D02*
X54440D01*
X54360D02*
X54400D01*
X54090D02*
X54340D01*
X53740D02*
X53910D01*
X53260D02*
X53430D01*
X52800D02*
X52950D01*
X52390D02*
X52490D01*
X51870D02*
X52130D01*
X51450D02*
X51570D01*
X50870D02*
X51150D01*
X50500D02*
X50570D01*
X49820D02*
X50150D01*
X49010D02*
X49460D01*
X54500Y8800D02*
X54910D01*
X54470D02*
X54490D01*
X54420D02*
X54440D01*
X54360D02*
X54400D01*
X54130D02*
X54340D01*
X53740D02*
X53920D01*
X53260D02*
X53430D01*
X52800D02*
X52950D01*
X52410D02*
X52500D01*
X51880D02*
X52110D01*
X51460D02*
X51570D01*
X50880D02*
X51120D01*
X50500D02*
X50570D01*
X49820D02*
X50150D01*
X49010D02*
X49470D01*
X54500Y8810D02*
X54910D01*
X54470D02*
X54490D01*
X54420D02*
X54440D01*
X54360D02*
X54400D01*
X54150D02*
X54340D01*
X53740D02*
X53920D01*
X53260D02*
X53440D01*
X52800D02*
X52950D01*
X52430D02*
X52500D01*
X51880D02*
X52090D01*
X51460D02*
X51570D01*
X50880D02*
X51100D01*
X50500D02*
X50570D01*
X49830D02*
X50150D01*
X49010D02*
X49470D01*
X54500Y8820D02*
X54910D01*
X54470D02*
X54490D01*
X54450D02*
X54460D01*
X54420D02*
X54430D01*
X54360D02*
X54400D01*
X54170D02*
X54340D01*
X53740D02*
X53920D01*
X53260D02*
X53440D01*
X52810D02*
X52960D01*
X52440D02*
X52500D01*
X51880D02*
X52080D01*
X51460D02*
X51570D01*
X50880D02*
X51080D01*
X50500D02*
X50580D01*
X49830D02*
X50150D01*
X49010D02*
X49480D01*
X54500Y8830D02*
X54910D01*
X54480D02*
X54490D01*
X54440D02*
X54460D01*
X54420D02*
X54430D01*
X54360D02*
X54400D01*
X54180D02*
X54340D01*
X53750D02*
X53920D01*
X53270D02*
X53440D01*
X52810D02*
X52960D01*
X52460D02*
X52500D01*
X51880D02*
X52070D01*
X51460D02*
X51580D01*
X50880D02*
X51070D01*
X50500D02*
X50580D01*
X49830D02*
X50150D01*
X49010D02*
X49480D01*
X54500Y8840D02*
X54910D01*
X54480D02*
X54490D01*
X54440D02*
X54470D01*
X54360D02*
X54400D01*
X54200D02*
X54340D01*
X53750D02*
X53930D01*
X53270D02*
X53440D01*
X52810D02*
X52960D01*
X52470D02*
X52510D01*
X51890D02*
X52070D01*
X51470D02*
X51580D01*
X50890D02*
X51070D01*
X50500D02*
X50580D01*
X49840D02*
X50150D01*
X49010D02*
X49490D01*
X54500Y8850D02*
X54910D01*
X54440D02*
X54470D01*
X54360D02*
X54400D01*
X54210D02*
X54340D01*
X53750D02*
X53930D01*
X53270D02*
X53450D01*
X52810D02*
X52960D01*
X52480D02*
X52510D01*
X51890D02*
X52060D01*
X51470D02*
X51580D01*
X50890D02*
X51060D01*
X50500D02*
X50580D01*
X49840D02*
X50150D01*
X49010D02*
X49490D01*
X54500Y8860D02*
X54910D01*
X54430D02*
X54470D01*
X54360D02*
X54400D01*
X54220D02*
X54340D01*
X53750D02*
X53930D01*
X53270D02*
X53450D01*
X52820D02*
X52970D01*
X52490D02*
X52510D01*
X51890D02*
X52060D01*
X51470D02*
X51580D01*
X50890D02*
X51060D01*
X50500D02*
X50590D01*
X49850D02*
X50150D01*
X49010D02*
X49500D01*
X54500Y8870D02*
X54910D01*
X54430D02*
X54480D01*
X54390D02*
X54400D01*
X54220D02*
X54320D01*
X53760D02*
X53930D01*
X53280D02*
X53450D01*
X52820D02*
X52970D01*
X52500D02*
X52510D01*
X51890D02*
X52060D01*
X51470D02*
X51590D01*
X50890D02*
X51060D01*
X50500D02*
X50590D01*
X49850D02*
X50150D01*
X49010D02*
X49510D01*
X54230Y8880D02*
X54910D01*
X53760D02*
X53940D01*
X53280D02*
X53450D01*
X52820D02*
X52970D01*
X51900D02*
X52050D01*
X51480D02*
X51590D01*
X50900D02*
X51060D01*
X50500D02*
X50590D01*
X49860D02*
X50150D01*
X49010D02*
X49510D01*
X54240Y8890D02*
X54910D01*
X53760D02*
X53940D01*
X53280D02*
X53460D01*
X52820D02*
X52970D01*
X51900D02*
X52050D01*
X51480D02*
X51590D01*
X50900D02*
X51060D01*
X50500D02*
X50590D01*
X49860D02*
X50160D01*
X49010D02*
X49520D01*
X54240Y8900D02*
X54910D01*
X53760D02*
X53940D01*
X53280D02*
X53460D01*
X52830D02*
X52980D01*
X51900D02*
X52050D01*
X51480D02*
X51590D01*
X50900D02*
X51060D01*
X50500D02*
X50600D01*
X49860D02*
X50160D01*
X49010D02*
X49520D01*
X54250Y8910D02*
X54910D01*
X53770D02*
X53940D01*
X53290D02*
X53460D01*
X52830D02*
X52980D01*
X51900D02*
X52050D01*
X51480D02*
X51600D01*
X50900D02*
X51060D01*
X50500D02*
X50600D01*
X49870D02*
X50160D01*
X49010D02*
X49530D01*
X54250Y8920D02*
X54910D01*
X53770D02*
X53950D01*
X53290D02*
X53460D01*
X52830D02*
X52980D01*
X51910D02*
X52050D01*
X51490D02*
X51600D01*
X50910D02*
X51060D01*
X50500D02*
X50600D01*
X49870D02*
X50160D01*
X49010D02*
X49530D01*
X54260Y8930D02*
X54910D01*
X53770D02*
X53950D01*
X53290D02*
X53470D01*
X52830D02*
X52980D01*
X51910D02*
X52050D01*
X51490D02*
X51600D01*
X50910D02*
X51060D01*
X50500D02*
X50600D01*
X49880D02*
X50160D01*
X49010D02*
X49540D01*
X54260Y8940D02*
X54910D01*
X53770D02*
X53950D01*
X53290D02*
X53470D01*
X52840D02*
X52990D01*
X51910D02*
X52050D01*
X51490D02*
X51600D01*
X50910D02*
X51060D01*
X50500D02*
X50610D01*
X49880D02*
X50160D01*
X49010D02*
X49540D01*
X54260Y8950D02*
X54910D01*
X53780D02*
X53950D01*
X53300D02*
X53470D01*
X52840D02*
X52990D01*
X51910D02*
X52050D01*
X51490D02*
X51610D01*
X50910D02*
X51060D01*
X50500D02*
X50610D01*
X49890D02*
X50160D01*
X49010D02*
X49550D01*
X54260Y8960D02*
X54910D01*
X53780D02*
X53960D01*
X53300D02*
X53470D01*
X52840D02*
X52990D01*
X51920D02*
X52050D01*
X51500D02*
X51610D01*
X50920D02*
X51060D01*
X50500D02*
X50610D01*
X49890D02*
X50160D01*
X49010D02*
X49550D01*
X54270Y8970D02*
X54910D01*
X53780D02*
X53960D01*
X53300D02*
X53480D01*
X52840D02*
X52990D01*
X51920D02*
X52060D01*
X51500D02*
X51610D01*
X50920D02*
X51060D01*
X50500D02*
X50610D01*
X49900D02*
X50160D01*
X49010D02*
X49560D01*
X54270Y8980D02*
X54910D01*
X53780D02*
X53960D01*
X53300D02*
X53480D01*
X52850D02*
X53000D01*
X52400D02*
X52500D01*
X51920D02*
X52060D01*
X51400D02*
X51610D01*
X50920D02*
X51070D01*
X50500D02*
X50620D01*
X49010D02*
X49560D01*
X54270Y8990D02*
X54910D01*
X53790D02*
X53960D01*
X53310D02*
X53480D01*
X52850D02*
X53000D01*
X52390D02*
X52520D01*
X51920D02*
X52060D01*
X51390D02*
X51620D01*
X50920D02*
X51070D01*
X50500D02*
X50620D01*
X49010D02*
X49570D01*
X54270Y9000D02*
X54910D01*
X53790D02*
X53970D01*
X53310D02*
X53480D01*
X52850D02*
X53000D01*
X52390D02*
X52530D01*
X51930D02*
X52060D01*
X51390D02*
X51620D01*
X50930D02*
X51070D01*
X50500D02*
X50620D01*
X49010D02*
X49580D01*
X54280Y9010D02*
X54910D01*
X53790D02*
X53970D01*
X53310D02*
X53490D01*
X52850D02*
X53000D01*
X52380D02*
X52540D01*
X51930D02*
X52070D01*
X51380D02*
X51620D01*
X50930D02*
X51070D01*
X50500D02*
X50620D01*
X49010D02*
X49580D01*
X54280Y9020D02*
X54910D01*
X53790D02*
X53970D01*
X53310D02*
X53490D01*
X52860D02*
X53010D01*
X52380D02*
X52540D01*
X51930D02*
X52070D01*
X51390D02*
X51620D01*
X50930D02*
X51080D01*
X50490D02*
X50630D01*
X49010D02*
X49590D01*
X54280Y9030D02*
X54910D01*
X53800D02*
X53970D01*
X53320D02*
X53490D01*
X52860D02*
X53010D01*
X52380D02*
X52550D01*
X51930D02*
X52070D01*
X51390D02*
X51630D01*
X50930D02*
X51080D01*
X50490D02*
X50630D01*
X49010D02*
X49590D01*
X54280Y9040D02*
X54910D01*
X53800D02*
X53980D01*
X53320D02*
X53490D01*
X52860D02*
X53010D01*
X52380D02*
X52550D01*
X51940D02*
X52070D01*
X51390D02*
X51630D01*
X50940D02*
X51080D01*
X50490D02*
X50630D01*
X49010D02*
X49600D01*
X54290Y9050D02*
X54910D01*
X53800D02*
X53980D01*
X53320D02*
X53500D01*
X52860D02*
X53010D01*
X52380D02*
X52560D01*
X51940D02*
X52080D01*
X51390D02*
X51630D01*
X50940D02*
X51080D01*
X50490D02*
X50630D01*
X49010D02*
X49600D01*
X54290Y9060D02*
X54910D01*
X53800D02*
X53980D01*
X53320D02*
X53500D01*
X52870D02*
X53020D01*
X52390D02*
X52560D01*
X51940D02*
X52080D01*
X51390D02*
X51630D01*
X50940D02*
X51090D01*
X50490D02*
X50640D01*
X49010D02*
X49610D01*
X54290Y9070D02*
X54910D01*
X53810D02*
X53980D01*
X53330D02*
X53500D01*
X52870D02*
X53020D01*
X52390D02*
X52560D01*
X51940D02*
X52080D01*
X51400D02*
X51640D01*
X50940D02*
X51090D01*
X50490D02*
X50640D01*
X49010D02*
X49610D01*
X54290Y9080D02*
X54910D01*
X53810D02*
X53990D01*
X53330D02*
X53500D01*
X52870D02*
X53020D01*
X52390D02*
X52560D01*
X51950D02*
X52080D01*
X51400D02*
X51640D01*
X50950D02*
X51090D01*
X50490D02*
X50640D01*
X49010D02*
X49620D01*
X54300Y9090D02*
X54910D01*
X53810D02*
X53990D01*
X53330D02*
X53510D01*
X52870D02*
X53020D01*
X52390D02*
X52570D01*
X51950D02*
X52090D01*
X51400D02*
X51640D01*
X50950D02*
X51090D01*
X50490D02*
X50640D01*
X49010D02*
X49620D01*
X54300Y9100D02*
X54910D01*
X53810D02*
X53990D01*
X53330D02*
X53510D01*
X52880D02*
X53030D01*
X52400D02*
X52570D01*
X51950D02*
X52090D01*
X51400D02*
X51640D01*
X50950D02*
X51100D01*
X50490D02*
X50650D01*
X49010D02*
X49630D01*
X54300Y9110D02*
X54910D01*
X53820D02*
X53990D01*
X53340D02*
X53510D01*
X52880D02*
X53030D01*
X52400D02*
X52570D01*
X51950D02*
X52090D01*
X51410D02*
X51650D01*
X50950D02*
X51100D01*
X50490D02*
X50650D01*
X49010D02*
X49630D01*
X54300Y9120D02*
X54910D01*
X53820D02*
X54000D01*
X53340D02*
X53510D01*
X52880D02*
X53030D01*
X52400D02*
X52570D01*
X51960D02*
X52090D01*
X51410D02*
X51650D01*
X50960D02*
X51100D01*
X50490D02*
X50650D01*
X49010D02*
X49640D01*
X54310Y9130D02*
X54910D01*
X53820D02*
X54000D01*
X53340D02*
X53520D01*
X52880D02*
X53030D01*
X52400D02*
X52580D01*
X51960D02*
X52100D01*
X51410D02*
X51650D01*
X50960D02*
X51100D01*
X50490D02*
X50650D01*
X49010D02*
X49640D01*
X54310Y9140D02*
X54910D01*
X53820D02*
X54000D01*
X53340D02*
X53520D01*
X52890D02*
X53040D01*
X52410D02*
X52580D01*
X51960D02*
X52100D01*
X51410D02*
X51650D01*
X50960D02*
X51110D01*
X50490D02*
X50660D01*
X49010D02*
X49650D01*
X54310Y9150D02*
X54910D01*
X53830D02*
X54000D01*
X53350D02*
X53520D01*
X52890D02*
X53040D01*
X52410D02*
X52580D01*
X51960D02*
X52100D01*
X51420D02*
X51660D01*
X50960D02*
X51110D01*
X50490D02*
X50660D01*
X49010D02*
X49660D01*
X54310Y9160D02*
X54910D01*
X53830D02*
X54010D01*
X53350D02*
X53520D01*
X52890D02*
X53040D01*
X52410D02*
X52580D01*
X51970D02*
X52100D01*
X51420D02*
X51660D01*
X50970D02*
X51110D01*
X50490D02*
X50660D01*
X49010D02*
X49660D01*
X54320Y9170D02*
X54910D01*
X53830D02*
X54010D01*
X53350D02*
X53530D01*
X52890D02*
X53040D01*
X52410D02*
X52590D01*
X51970D02*
X52110D01*
X51420D02*
X51660D01*
X50970D02*
X51110D01*
X50490D02*
X50660D01*
X49010D02*
X49670D01*
X54320Y9180D02*
X54910D01*
X53830D02*
X54010D01*
X53350D02*
X53530D01*
X52900D02*
X53050D01*
X52420D02*
X52590D01*
X51970D02*
X52110D01*
X51420D02*
X51660D01*
X50970D02*
X51120D01*
X50490D02*
X50670D01*
X49010D02*
X49670D01*
X54320Y9190D02*
X54910D01*
X53840D02*
X54010D01*
X53360D02*
X53530D01*
X52900D02*
X53050D01*
X52420D02*
X52590D01*
X51970D02*
X52110D01*
X51430D02*
X51670D01*
X50970D02*
X51120D01*
X50490D02*
X50670D01*
X49990D02*
X50170D01*
X49010D02*
X49680D01*
X54320Y9200D02*
X54910D01*
X53840D02*
X54020D01*
X53360D02*
X53530D01*
X52900D02*
X53050D01*
X52420D02*
X52590D01*
X51980D02*
X52110D01*
X51430D02*
X51670D01*
X50980D02*
X51120D01*
X50490D02*
X50670D01*
X50000D02*
X50170D01*
X49010D02*
X49680D01*
X54330Y9210D02*
X54910D01*
X53840D02*
X54020D01*
X53360D02*
X53540D01*
X52900D02*
X53050D01*
X52420D02*
X52600D01*
X51980D02*
X52120D01*
X51430D02*
X51670D01*
X50980D02*
X51120D01*
X50490D02*
X50670D01*
X50000D02*
X50170D01*
X49010D02*
X49690D01*
X54330Y9220D02*
X54910D01*
X53840D02*
X54020D01*
X53360D02*
X53540D01*
X52910D02*
X53060D01*
X52430D02*
X52600D01*
X51980D02*
X52120D01*
X51430D02*
X51670D01*
X50980D02*
X51130D01*
X50490D02*
X50680D01*
X50010D02*
X50170D01*
X49010D02*
X49690D01*
X54330Y9230D02*
X54910D01*
X53850D02*
X54020D01*
X53370D02*
X53540D01*
X52910D02*
X53060D01*
X52430D02*
X52600D01*
X51980D02*
X52120D01*
X51440D02*
X51680D01*
X50980D02*
X51130D01*
X50490D02*
X50680D01*
X50010D02*
X50170D01*
X49010D02*
X49700D01*
X54330Y9240D02*
X54910D01*
X53850D02*
X54030D01*
X53370D02*
X53540D01*
X52910D02*
X53060D01*
X52430D02*
X52600D01*
X51990D02*
X52120D01*
X51440D02*
X51680D01*
X50990D02*
X51130D01*
X50490D02*
X50680D01*
X50020D02*
X50170D01*
X49010D02*
X49700D01*
X54340Y9250D02*
X54910D01*
X53850D02*
X54030D01*
X53370D02*
X53550D01*
X52910D02*
X53060D01*
X52430D02*
X52610D01*
X51990D02*
X52130D01*
X51440D02*
X51680D01*
X50990D02*
X51130D01*
X50490D02*
X50680D01*
X50020D02*
X50170D01*
X49010D02*
X49710D01*
X54340Y9260D02*
X54910D01*
X53850D02*
X54030D01*
X53370D02*
X53550D01*
X52920D02*
X53070D01*
X52440D02*
X52610D01*
X51990D02*
X52130D01*
X51440D02*
X51680D01*
X50990D02*
X51140D01*
X50490D02*
X50690D01*
X50020D02*
X50180D01*
X49010D02*
X49710D01*
X54340Y9270D02*
X54910D01*
X53860D02*
X54030D01*
X53380D02*
X53550D01*
X52920D02*
X53070D01*
X52440D02*
X52610D01*
X51990D02*
X52130D01*
X51450D02*
X51690D01*
X50990D02*
X51140D01*
X50490D02*
X50690D01*
X50030D02*
X50180D01*
X49010D02*
X49720D01*
X54340Y9280D02*
X54910D01*
X53860D02*
X54040D01*
X53380D02*
X53550D01*
X52920D02*
X53070D01*
X52440D02*
X52610D01*
X52000D02*
X52130D01*
X51450D02*
X51690D01*
X51000D02*
X51140D01*
X50480D02*
X50690D01*
X50030D02*
X50180D01*
X49010D02*
X49730D01*
X54350Y9290D02*
X54910D01*
X53860D02*
X54040D01*
X53380D02*
X53560D01*
X52920D02*
X53070D01*
X52440D02*
X52620D01*
X52000D02*
X52140D01*
X51450D02*
X51690D01*
X51000D02*
X51140D01*
X50480D02*
X50690D01*
X50040D02*
X50180D01*
X49010D02*
X49730D01*
X54350Y9300D02*
X54910D01*
X53860D02*
X54040D01*
X53380D02*
X53560D01*
X52930D02*
X53080D01*
X52450D02*
X52620D01*
X52000D02*
X52140D01*
X51450D02*
X51690D01*
X51000D02*
X51150D01*
X50480D02*
X50700D01*
X50040D02*
X50180D01*
X49010D02*
X49740D01*
X54350Y9310D02*
X54910D01*
X53870D02*
X54040D01*
X53390D02*
X53560D01*
X52930D02*
X53080D01*
X52450D02*
X52620D01*
X52000D02*
X52140D01*
X51460D02*
X51700D01*
X51000D02*
X51150D01*
X50480D02*
X50700D01*
X50050D02*
X50180D01*
X49010D02*
X49740D01*
X54350Y9320D02*
X54910D01*
X53870D02*
X54050D01*
X53390D02*
X53560D01*
X52930D02*
X53080D01*
X52450D02*
X52620D01*
X52010D02*
X52140D01*
X51460D02*
X51700D01*
X51010D02*
X51150D01*
X50480D02*
X50700D01*
X50050D02*
X50180D01*
X49010D02*
X49750D01*
X54360Y9330D02*
X54910D01*
X53870D02*
X54050D01*
X53390D02*
X53570D01*
X52930D02*
X53080D01*
X52450D02*
X52630D01*
X52010D02*
X52150D01*
X51460D02*
X51700D01*
X51010D02*
X51160D01*
X50480D02*
X50700D01*
X50060D02*
X50180D01*
X49010D02*
X49750D01*
X54360Y9340D02*
X54910D01*
X53880D02*
X54050D01*
X53390D02*
X53570D01*
X52940D02*
X53090D01*
X52460D02*
X52630D01*
X52010D02*
X52150D01*
X51460D02*
X51700D01*
X51010D02*
X51160D01*
X50480D02*
X50710D01*
X50060D02*
X50180D01*
X49010D02*
X49760D01*
X54360Y9350D02*
X54910D01*
X53880D02*
X54050D01*
X53400D02*
X53570D01*
X52940D02*
X53090D01*
X52460D02*
X52630D01*
X52010D02*
X52150D01*
X51470D02*
X51710D01*
X51010D02*
X51160D01*
X50480D02*
X50710D01*
X50070D02*
X50180D01*
X49010D02*
X49760D01*
X54360Y9360D02*
X54910D01*
X53880D02*
X54050D01*
X53400D02*
X53570D01*
X52940D02*
X53090D01*
X52460D02*
X52630D01*
X52020D02*
X52150D01*
X51470D02*
X51710D01*
X51020D02*
X51160D01*
X50480D02*
X50710D01*
X50070D02*
X50180D01*
X49010D02*
X49770D01*
X54370Y9370D02*
X54910D01*
X53890D02*
X54060D01*
X53410D02*
X53570D01*
X52940D02*
X53090D01*
X52460D02*
X52640D01*
X52020D02*
X52160D01*
X51470D02*
X51710D01*
X51020D02*
X51170D01*
X50480D02*
X50710D01*
X50080D02*
X50180D01*
X49010D02*
X49770D01*
X54370Y9380D02*
X54910D01*
X53890D02*
X54050D01*
X53410D02*
X53570D01*
X52950D02*
X53100D01*
X52470D02*
X52640D01*
X52020D02*
X52160D01*
X51470D02*
X51710D01*
X51020D02*
X51170D01*
X50480D02*
X50720D01*
X50080D02*
X50180D01*
X49010D02*
X49780D01*
X54370Y9390D02*
X54910D01*
X53900D02*
X54050D01*
X53420D02*
X53570D01*
X52950D02*
X53100D01*
X52470D02*
X52640D01*
X52020D02*
X52160D01*
X51480D02*
X51720D01*
X51020D02*
X51170D01*
X50480D02*
X50720D01*
X50080D02*
X50180D01*
X49010D02*
X49780D01*
X54370Y9400D02*
X54910D01*
X53910D02*
X54050D01*
X53430D02*
X53570D01*
X52950D02*
X53100D01*
X52470D02*
X52640D01*
X52030D02*
X52160D01*
X51480D02*
X51720D01*
X51030D02*
X51170D01*
X50480D02*
X50720D01*
X50090D02*
X50180D01*
X49010D02*
X49790D01*
X54380Y9410D02*
X54910D01*
X53920D02*
X54040D01*
X53440D02*
X53560D01*
X52950D02*
X53100D01*
X52470D02*
X52650D01*
X52030D02*
X52170D01*
X51480D02*
X51720D01*
X51030D02*
X51180D01*
X50480D02*
X50720D01*
X50090D02*
X50180D01*
X49010D02*
X49790D01*
X54380Y9420D02*
X54910D01*
X53940D02*
X54030D01*
X53460D02*
X53550D01*
X52960D02*
X53110D01*
X52480D02*
X52650D01*
X52030D02*
X52170D01*
X51480D02*
X51720D01*
X51030D02*
X51180D01*
X50480D02*
X50730D01*
X50100D02*
X50180D01*
X49010D02*
X49800D01*
X54380Y9430D02*
X54910D01*
X52960D02*
X53110D01*
X52480D02*
X52650D01*
X52030D02*
X52170D01*
X51610D02*
X51730D01*
X51030D02*
X51180D01*
X50480D02*
X50730D01*
X50100D02*
X50180D01*
X49010D02*
X49810D01*
X54380Y9440D02*
X54910D01*
X52960D02*
X53110D01*
X52480D02*
X52650D01*
X52040D02*
X52170D01*
X51620D02*
X51730D01*
X51040D02*
X51180D01*
X50480D02*
X50730D01*
X50110D02*
X50190D01*
X49010D02*
X49810D01*
X54380Y9450D02*
X54910D01*
X52960D02*
X53110D01*
X52480D02*
X52660D01*
X52040D02*
X52180D01*
X51620D02*
X51730D01*
X51040D02*
X51190D01*
X50480D02*
X50730D01*
X50110D02*
X50190D01*
X49010D02*
X49820D01*
X54390Y9460D02*
X54910D01*
X52970D02*
X53120D01*
X52490D02*
X52660D01*
X52040D02*
X52180D01*
X51620D02*
X51730D01*
X51040D02*
X51190D01*
X50480D02*
X50740D01*
X50120D02*
X50190D01*
X49010D02*
X49820D01*
X54390Y9470D02*
X54910D01*
X52970D02*
X53120D01*
X52490D02*
X52660D01*
X52040D02*
X52180D01*
X51620D02*
X51740D01*
X51040D02*
X51190D01*
X50480D02*
X50740D01*
X50120D02*
X50190D01*
X49010D02*
X49830D01*
X54390Y9480D02*
X54910D01*
X52970D02*
X53120D01*
X52490D02*
X52660D01*
X52050D02*
X52180D01*
X51630D02*
X51740D01*
X51050D02*
X51190D01*
X50480D02*
X50740D01*
X50130D02*
X50190D01*
X49010D02*
X49830D01*
X54390Y9490D02*
X54910D01*
X52970D02*
X53120D01*
X52490D02*
X52670D01*
X52050D02*
X52190D01*
X51630D02*
X51740D01*
X51050D02*
X51200D01*
X50480D02*
X50740D01*
X50130D02*
X50190D01*
X49010D02*
X49840D01*
X54390Y9500D02*
X54910D01*
X52980D02*
X53130D01*
X52500D02*
X52670D01*
X52050D02*
X52190D01*
X51630D02*
X51740D01*
X51050D02*
X51200D01*
X50480D02*
X50750D01*
X50130D02*
X50190D01*
X49010D02*
X49840D01*
X54390Y9510D02*
X54910D01*
X52980D02*
X53130D01*
X52500D02*
X52670D01*
X52050D02*
X52190D01*
X51630D02*
X51750D01*
X51050D02*
X51200D01*
X50480D02*
X50750D01*
X50140D02*
X50190D01*
X49010D02*
X49850D01*
X54380Y9520D02*
X54910D01*
X53910D02*
X53920D01*
X53440D02*
X53450D01*
X52980D02*
X53130D01*
X52500D02*
X52670D01*
X52060D02*
X52190D01*
X51640D02*
X51750D01*
X51060D02*
X51200D01*
X50480D02*
X50750D01*
X50140D02*
X50190D01*
X49010D02*
X49850D01*
X54380Y9530D02*
X54910D01*
X53900D02*
X53930D01*
X53440D02*
X53460D01*
X52980D02*
X53130D01*
X52500D02*
X52680D01*
X52060D02*
X52200D01*
X51640D02*
X51750D01*
X51060D02*
X51210D01*
X50480D02*
X50750D01*
X50150D02*
X50190D01*
X49010D02*
X49860D01*
X54380Y9540D02*
X54910D01*
X53900D02*
X53940D01*
X53450D02*
X53470D01*
X52990D02*
X53140D01*
X52510D02*
X52680D01*
X52060D02*
X52200D01*
X51640D02*
X51750D01*
X51060D02*
X51210D01*
X50480D02*
X50760D01*
X50150D02*
X50190D01*
X49010D02*
X49860D01*
X54380Y9550D02*
X54910D01*
X53900D02*
X53950D01*
X53450D02*
X53480D01*
X52990D02*
X53140D01*
X52510D02*
X52680D01*
X52060D02*
X52200D01*
X51640D02*
X51760D01*
X51060D02*
X51210D01*
X50470D02*
X50760D01*
X50160D02*
X50190D01*
X49010D02*
X49870D01*
X54370Y9560D02*
X54910D01*
X53890D02*
X53960D01*
X53450D02*
X53490D01*
X52990D02*
X53140D01*
X52510D02*
X52680D01*
X52070D02*
X52200D01*
X51650D02*
X51760D01*
X51070D02*
X51210D01*
X50470D02*
X50760D01*
X50160D02*
X50190D01*
X49010D02*
X49880D01*
X54370Y9570D02*
X54910D01*
X53880D02*
X53970D01*
X53450D02*
X53500D01*
X52990D02*
X53140D01*
X52510D02*
X52690D01*
X52070D02*
X52210D01*
X51650D02*
X51760D01*
X51070D02*
X51220D01*
X50470D02*
X50760D01*
X50170D02*
X50190D01*
X49010D02*
X49880D01*
X54360Y9580D02*
X54910D01*
X53880D02*
X53990D01*
X53460D02*
X53520D01*
X53000D02*
X53150D01*
X52520D02*
X52690D01*
X52070D02*
X52210D01*
X51650D02*
X51760D01*
X51070D02*
X51220D01*
X50470D02*
X50770D01*
X50170D02*
X50190D01*
X49010D02*
X49890D01*
X54350Y9590D02*
X54910D01*
X53870D02*
X54010D01*
X53460D02*
X53530D01*
X53000D02*
X53150D01*
X52520D02*
X52690D01*
X52070D02*
X52210D01*
X51650D02*
X51770D01*
X51080D02*
X51220D01*
X50470D02*
X50770D01*
X50180D02*
X50190D01*
X49010D02*
X49890D01*
X54330Y9600D02*
X54910D01*
X53850D02*
X54030D01*
X53460D02*
X53550D01*
X53000D02*
X53150D01*
X52520D02*
X52690D01*
X52080D02*
X52210D01*
X51660D02*
X51770D01*
X51080D02*
X51220D01*
X50470D02*
X50770D01*
X50180D02*
X50190D01*
X49010D02*
X49900D01*
X54310Y9610D02*
X54910D01*
X53840D02*
X54050D01*
X51660D02*
X53570D01*
X51080D02*
X51230D01*
X50470D02*
X50770D01*
X49010D02*
X49900D01*
X54290Y9620D02*
X54910D01*
X53810D02*
X54080D01*
X51530D02*
X53600D01*
X51080D02*
X51230D01*
X50470D02*
X50780D01*
X49010D02*
X49910D01*
X54240Y9630D02*
X54910D01*
X53770D02*
X54140D01*
X51540D02*
X53660D01*
X51090D02*
X51230D01*
X50470D02*
X50780D01*
X49010D02*
X49910D01*
X51540Y9640D02*
X54910D01*
X51090D02*
X51230D01*
X50470D02*
X50780D01*
X49010D02*
X49920D01*
X51540Y9650D02*
X54910D01*
X51090D02*
X51240D01*
X50470D02*
X50780D01*
X49010D02*
X49920D01*
X51540Y9660D02*
X54910D01*
X51090D02*
X51240D01*
X50470D02*
X50790D01*
X49010D02*
X49930D01*
X51550Y9670D02*
X54910D01*
X51100D02*
X51240D01*
X50470D02*
X50790D01*
X49010D02*
X49930D01*
X51550Y9680D02*
X54910D01*
X51100D02*
X51240D01*
X50470D02*
X50790D01*
X49010D02*
X49940D01*
X51550Y9690D02*
X54910D01*
X51100D02*
X51250D01*
X50470D02*
X50790D01*
X49010D02*
X49950D01*
X51550Y9700D02*
X54910D01*
X51100D02*
X51250D01*
X50470D02*
X50790D01*
X49010D02*
X49950D01*
X51560Y9710D02*
X54910D01*
X51110D02*
X51250D01*
X50470D02*
X50800D01*
X49010D02*
X49960D01*
X51560Y9720D02*
X54910D01*
X51110D02*
X51250D01*
X50470D02*
X50800D01*
X49010D02*
X49970D01*
X51560Y9730D02*
X54910D01*
X51110D02*
X51260D01*
X50470D02*
X50800D01*
X49010D02*
X49980D01*
X51570Y9740D02*
X54910D01*
X51110D02*
X51260D01*
X50470D02*
X50800D01*
X49010D02*
X49990D01*
X51570Y9750D02*
X54910D01*
X51120D02*
X51260D01*
X50470D02*
X50810D01*
X49010D02*
X50000D01*
X51570Y9760D02*
X54910D01*
X51120D02*
X51260D01*
X50470D02*
X50810D01*
X49010D02*
X50010D01*
X51570Y9770D02*
X54910D01*
X51120D02*
X51270D01*
X50470D02*
X50810D01*
X49010D02*
X50020D01*
X51580Y9780D02*
X54910D01*
X51120D02*
X51270D01*
X50470D02*
X50810D01*
X49010D02*
X50030D01*
X51580Y9790D02*
X54910D01*
X51130D02*
X51270D01*
X50470D02*
X50820D01*
X49010D02*
X50040D01*
X51580Y9800D02*
X54910D01*
X51130D02*
X51270D01*
X50470D02*
X50820D01*
X49010D02*
X50060D01*
X51580Y9810D02*
X54910D01*
X51130D02*
X51280D01*
X50460D02*
X50820D01*
X49010D02*
X50070D01*
X51590Y9820D02*
X54910D01*
X51130D02*
X51280D01*
X50460D02*
X50820D01*
X49010D02*
X50090D01*
X51590Y9830D02*
X54910D01*
X51140D02*
X51280D01*
X50460D02*
X50830D01*
X49010D02*
X50110D01*
X51590Y9840D02*
X54910D01*
X51140D02*
X51280D01*
X50460D02*
X50830D01*
X49010D02*
X50130D01*
X51590Y9850D02*
X54910D01*
X51140D02*
X51290D01*
X50460D02*
X50830D01*
X49010D02*
X50160D01*
X51600Y9860D02*
X54910D01*
X51140D02*
X51290D01*
X50460D02*
X50830D01*
X49010D02*
X50190D01*
X51150Y9870D02*
X54910D01*
X50460D02*
X50840D01*
X49010D02*
X50250D01*
X49010Y9880D02*
X54910D01*
X49020Y9890D02*
X54910D01*
X49020Y9900D02*
X54910D01*
X49020Y9910D02*
X54910D01*
X49020Y9920D02*
X54910D01*
X49030Y9930D02*
X54910D01*
X49030Y9940D02*
X54910D01*
X49030Y9950D02*
X54910D01*
X49040Y9960D02*
X54910D01*
X49040Y9970D02*
X54910D01*
X49050Y9980D02*
X54910D01*
X49050Y9990D02*
X54910D01*
X49060Y10000D02*
X54910D01*
X49060Y10010D02*
X54910D01*
X49060Y10020D02*
X54910D01*
X49070Y10030D02*
X54910D01*
X49080Y10040D02*
X54910D01*
X49080Y10050D02*
X54910D01*
X49090Y10060D02*
X54910D01*
X49090Y10070D02*
X54910D01*
X49100Y10080D02*
X54910D01*
X49110Y10090D02*
X54910D01*
X49120Y10100D02*
X54910D01*
X49120Y10110D02*
X54910D01*
X49130Y10120D02*
X54910D01*
X49140Y10130D02*
X54910D01*
X49150Y10140D02*
X54910D01*
X49160Y10150D02*
X54910D01*
X49160Y10160D02*
X54910D01*
X49170Y10170D02*
X54910D01*
X49180Y10180D02*
X54910D01*
X49190Y10190D02*
X54910D01*
X49200Y10200D02*
X54910D01*
X49210Y10210D02*
X54910D01*
X49230Y10220D02*
X54910D01*
X49240Y10230D02*
X54910D01*
X49250Y10240D02*
X54910D01*
X49260Y10250D02*
X54910D01*
X49280Y10260D02*
X54910D01*
X49290Y10270D02*
X54910D01*
X49310Y10280D02*
X54910D01*
X49330Y10290D02*
X54910D01*
X49350Y10300D02*
X54910D01*
X49370Y10310D02*
X54910D01*
X49390Y10320D02*
X54910D01*
X49420Y10330D02*
X54910D01*
X49450Y10340D02*
X54910D01*
X49480Y10350D02*
X54910D01*
X49540Y10360D02*
X54910D01*
D29*
X24000Y71528D02*
Y71828D01*
X24150D01*
X24200Y71778D01*
Y71678D01*
X24150Y71628D01*
X24000D01*
X24100D02*
X24200Y71528D01*
X24450D02*
X24350D01*
X24300Y71578D01*
Y71678D01*
X24350Y71728D01*
X24450D01*
X24500Y71678D01*
Y71628D01*
X24300D01*
X24600Y71528D02*
Y71728D01*
X24650D01*
X24700Y71678D01*
Y71528D01*
Y71678D01*
X24750Y71728D01*
X24800Y71678D01*
Y71528D01*
X24950D02*
X25050D01*
X25100Y71578D01*
Y71678D01*
X25050Y71728D01*
X24950D01*
X24900Y71678D01*
Y71578D01*
X24950Y71528D01*
X25250Y71778D02*
Y71728D01*
X25200D01*
X25300D01*
X25250D01*
Y71578D01*
X25300Y71528D01*
X25599D02*
X25500D01*
X25450Y71578D01*
Y71678D01*
X25500Y71728D01*
X25599D01*
X25649Y71678D01*
Y71628D01*
X25450D01*
X26049Y71528D02*
Y71828D01*
X26149Y71728D01*
X26249Y71828D01*
Y71528D01*
X26399Y71728D02*
X26499D01*
X26549Y71678D01*
Y71528D01*
X26399D01*
X26349Y71578D01*
X26399Y71628D01*
X26549D01*
X26649Y71528D02*
X26799D01*
X26849Y71578D01*
X26799Y71628D01*
X26699D01*
X26649Y71678D01*
X26699Y71728D01*
X26849D01*
X26999Y71778D02*
Y71728D01*
X26949D01*
X27049D01*
X26999D01*
Y71578D01*
X27049Y71528D01*
X27349D02*
X27249D01*
X27199Y71578D01*
Y71678D01*
X27249Y71728D01*
X27349D01*
X27399Y71678D01*
Y71628D01*
X27199D01*
X27499Y71728D02*
Y71528D01*
Y71628D01*
X27549Y71678D01*
X27599Y71728D01*
X27649D01*
X28299Y71778D02*
X28249Y71828D01*
X28149D01*
X28099Y71778D01*
Y71728D01*
X28149Y71678D01*
X28249D01*
X28299Y71628D01*
Y71578D01*
X28249Y71528D01*
X28149D01*
X28099Y71578D01*
X28399Y71728D02*
Y71578D01*
X28449Y71528D01*
X28499Y71578D01*
X28549Y71528D01*
X28599Y71578D01*
Y71728D01*
X28698Y71528D02*
X28798D01*
X28748D01*
Y71728D01*
X28698D01*
X28998Y71778D02*
Y71728D01*
X28948D01*
X29048D01*
X28998D01*
Y71578D01*
X29048Y71528D01*
X29398Y71728D02*
X29248D01*
X29198Y71678D01*
Y71578D01*
X29248Y71528D01*
X29398D01*
X29498Y71828D02*
Y71528D01*
Y71678D01*
X29548Y71728D01*
X29648D01*
X29698Y71678D01*
Y71528D01*
X24100Y71000D02*
X24000Y71100D01*
Y71200D01*
X24100Y71300D01*
X24250Y71000D02*
Y71300D01*
X24400D01*
X24450Y71250D01*
Y71150D01*
X24400Y71100D01*
X24250D01*
X24600Y71000D02*
X24700D01*
X24750Y71050D01*
Y71150D01*
X24700Y71200D01*
X24600D01*
X24550Y71150D01*
Y71050D01*
X24600Y71000D01*
X24850Y71200D02*
Y71000D01*
Y71100D01*
X24900Y71150D01*
X24950Y71200D01*
X25000D01*
X25200Y71250D02*
Y71200D01*
X25150D01*
X25250D01*
X25200D01*
Y71050D01*
X25250Y71000D01*
X25400D02*
X25500Y71100D01*
Y71200D01*
X25400Y71300D01*
X8070Y73598D02*
Y73298D01*
X8270D01*
X8420D02*
X8520D01*
X8570Y73348D01*
Y73448D01*
X8520Y73498D01*
X8420D01*
X8370Y73448D01*
Y73348D01*
X8420Y73298D01*
X8870Y73498D02*
X8720D01*
X8670Y73448D01*
Y73348D01*
X8720Y73298D01*
X8870D01*
X9020Y73498D02*
X9120D01*
X9170Y73448D01*
Y73298D01*
X9020D01*
X8970Y73348D01*
X9020Y73398D01*
X9170D01*
X9270Y73298D02*
X9370D01*
X9320D01*
Y73598D01*
X9270D01*
X10019Y73498D02*
X9869D01*
X9819Y73448D01*
Y73348D01*
X9869Y73298D01*
X10019D01*
X10169D02*
X10269D01*
X10319Y73348D01*
Y73448D01*
X10269Y73498D01*
X10169D01*
X10119Y73448D01*
Y73348D01*
X10169Y73298D01*
X10419D02*
Y73498D01*
X10469D01*
X10519Y73448D01*
Y73298D01*
Y73448D01*
X10569Y73498D01*
X10619Y73448D01*
Y73298D01*
X10719Y73198D02*
Y73498D01*
X10869D01*
X10919Y73448D01*
Y73348D01*
X10869Y73298D01*
X10719D01*
X11019Y73498D02*
Y73348D01*
X11069Y73298D01*
X11219D01*
Y73498D01*
X11369Y73548D02*
Y73498D01*
X11319D01*
X11419D01*
X11369D01*
Y73348D01*
X11419Y73298D01*
X11719D02*
X11619D01*
X11569Y73348D01*
Y73448D01*
X11619Y73498D01*
X11719D01*
X11769Y73448D01*
Y73398D01*
X11569D01*
X11869Y73498D02*
Y73298D01*
Y73398D01*
X11919Y73448D01*
X11969Y73498D01*
X12019D01*
X8070Y72570D02*
Y72870D01*
X8220D01*
X8270Y72820D01*
Y72720D01*
X8220Y72670D01*
X8070D01*
X8420D02*
X8520D01*
X8570Y72720D01*
Y72820D01*
X8520Y72870D01*
X8420D01*
X8370Y72820D01*
Y72720D01*
X8420Y72670D01*
X8670Y72870D02*
Y72720D01*
X8720Y72670D01*
X8770Y72720D01*
X8820Y72670D01*
X8870Y72720D01*
Y72870D01*
X9120Y72670D02*
X9020D01*
X8970Y72720D01*
Y72820D01*
X9020Y72870D01*
X9120D01*
X9170Y72820D01*
Y72770D01*
X8970D01*
X9270Y72870D02*
Y72670D01*
Y72770D01*
X9320Y72820D01*
X9370Y72870D01*
X9420D01*
X9869Y72670D02*
X9969D01*
X9919D01*
Y72970D01*
X9869D01*
X10119Y72670D02*
X10219D01*
X10169D01*
Y72870D01*
X10119D01*
X10369Y72670D02*
Y72870D01*
X10519D01*
X10569Y72820D01*
Y72670D01*
X10819D02*
X10719D01*
X10669Y72720D01*
Y72820D01*
X10719Y72870D01*
X10819D01*
X10869Y72820D01*
Y72770D01*
X10669D01*
X11269Y72670D02*
X11419D01*
X11469Y72720D01*
X11419Y72770D01*
X11319D01*
X11269Y72820D01*
X11319Y72870D01*
X11469D01*
X11719Y72670D02*
X11619D01*
X11569Y72720D01*
Y72820D01*
X11619Y72870D01*
X11719D01*
X11769Y72820D01*
Y72770D01*
X11569D01*
X11869Y72670D02*
Y72870D01*
X12019D01*
X12069Y72820D01*
Y72670D01*
X12169D02*
X12319D01*
X12369Y72720D01*
X12319Y72770D01*
X12219D01*
X12169Y72820D01*
X12219Y72870D01*
X12369D01*
X12619Y72670D02*
X12519D01*
X12469Y72720D01*
Y72820D01*
X12519Y72870D01*
X12619D01*
X12669Y72820D01*
Y72770D01*
X12469D01*
X24070Y73598D02*
Y73898D01*
X24220D01*
X24270Y73848D01*
Y73748D01*
X24220Y73698D01*
X24070D01*
X24170D02*
X24270Y73598D01*
X24520D02*
X24420D01*
X24370Y73648D01*
Y73748D01*
X24420Y73798D01*
X24520D01*
X24570Y73748D01*
Y73698D01*
X24370D01*
X24670Y73598D02*
Y73798D01*
X24720D01*
X24770Y73748D01*
Y73598D01*
Y73748D01*
X24820Y73798D01*
X24870Y73748D01*
Y73598D01*
X25020D02*
X25120D01*
X25170Y73648D01*
Y73748D01*
X25120Y73798D01*
X25020D01*
X24970Y73748D01*
Y73648D01*
X25020Y73598D01*
X25320Y73848D02*
Y73798D01*
X25270D01*
X25370D01*
X25320D01*
Y73648D01*
X25370Y73598D01*
X25669D02*
X25570D01*
X25520Y73648D01*
Y73748D01*
X25570Y73798D01*
X25669D01*
X25719Y73748D01*
Y73698D01*
X25520D01*
X26319Y73898D02*
X26119D01*
Y73598D01*
X26319D01*
X26119Y73748D02*
X26219D01*
X26419Y73598D02*
X26519D01*
X26469D01*
Y73898D01*
X26419D01*
X26819Y73598D02*
X26719D01*
X26669Y73648D01*
Y73748D01*
X26719Y73798D01*
X26819D01*
X26869Y73748D01*
Y73698D01*
X26669D01*
X27169Y73798D02*
X27019D01*
X26969Y73748D01*
Y73648D01*
X27019Y73598D01*
X27169D01*
X27319Y73848D02*
Y73798D01*
X27269D01*
X27369D01*
X27319D01*
Y73648D01*
X27369Y73598D01*
X27519Y73798D02*
Y73598D01*
Y73698D01*
X27569Y73748D01*
X27619Y73798D01*
X27669D01*
X27819Y73598D02*
X27919D01*
X27869D01*
Y73798D01*
X27819D01*
X28269D02*
X28119D01*
X28069Y73748D01*
Y73648D01*
X28119Y73598D01*
X28269D01*
X28419Y73798D02*
X28519D01*
X28569Y73748D01*
Y73598D01*
X28419D01*
X28369Y73648D01*
X28419Y73698D01*
X28569D01*
X28669Y73598D02*
X28768D01*
X28719D01*
Y73898D01*
X28669D01*
X29418Y73848D02*
X29368Y73898D01*
X29268D01*
X29218Y73848D01*
Y73798D01*
X29268Y73748D01*
X29368D01*
X29418Y73698D01*
Y73648D01*
X29368Y73598D01*
X29268D01*
X29218Y73648D01*
X29518Y73798D02*
Y73648D01*
X29568Y73598D01*
X29618Y73648D01*
X29668Y73598D01*
X29718Y73648D01*
Y73798D01*
X29818Y73598D02*
X29918D01*
X29868D01*
Y73798D01*
X29818D01*
X30118Y73848D02*
Y73798D01*
X30068D01*
X30168D01*
X30118D01*
Y73648D01*
X30168Y73598D01*
X30518Y73798D02*
X30368D01*
X30318Y73748D01*
Y73648D01*
X30368Y73598D01*
X30518D01*
X30618Y73898D02*
Y73598D01*
Y73748D01*
X30668Y73798D01*
X30768D01*
X30818Y73748D01*
Y73598D01*
X24170Y73070D02*
X24070Y73170D01*
Y73270D01*
X24170Y73370D01*
X24320Y73070D02*
Y73370D01*
X24470D01*
X24520Y73320D01*
Y73220D01*
X24470Y73170D01*
X24320D01*
X24670Y73070D02*
X24770D01*
X24820Y73120D01*
Y73220D01*
X24770Y73270D01*
X24670D01*
X24620Y73220D01*
Y73120D01*
X24670Y73070D01*
X24920Y73270D02*
Y73070D01*
Y73170D01*
X24970Y73220D01*
X25020Y73270D01*
X25070D01*
X25270Y73320D02*
Y73270D01*
X25220D01*
X25320D01*
X25270D01*
Y73120D01*
X25320Y73070D01*
X25470D02*
X25570Y73170D01*
Y73270D01*
X25470Y73370D01*
X26170Y66598D02*
X26070Y66698D01*
Y66798D01*
X26170Y66898D01*
X26520Y66848D02*
X26470Y66898D01*
X26370D01*
X26320Y66848D01*
Y66798D01*
X26370Y66748D01*
X26470D01*
X26520Y66698D01*
Y66648D01*
X26470Y66598D01*
X26370D01*
X26320Y66648D01*
X26770Y66598D02*
X26670D01*
X26620Y66648D01*
Y66748D01*
X26670Y66798D01*
X26770D01*
X26820Y66748D01*
Y66698D01*
X26620D01*
X27120Y66798D02*
X26970D01*
X26920Y66748D01*
Y66648D01*
X26970Y66598D01*
X27120D01*
X27270D02*
X27370D01*
X27420Y66648D01*
Y66748D01*
X27370Y66798D01*
X27270D01*
X27220Y66748D01*
Y66648D01*
X27270Y66598D01*
X27520D02*
Y66798D01*
X27669D01*
X27719Y66748D01*
Y66598D01*
X28019Y66898D02*
Y66598D01*
X27869D01*
X27819Y66648D01*
Y66748D01*
X27869Y66798D01*
X28019D01*
X28169D02*
X28269D01*
X28319Y66748D01*
Y66598D01*
X28169D01*
X28119Y66648D01*
X28169Y66698D01*
X28319D01*
X28419Y66798D02*
Y66598D01*
Y66698D01*
X28469Y66748D01*
X28519Y66798D01*
X28569D01*
X28719D02*
Y66648D01*
X28769Y66598D01*
X28919D01*
Y66548D01*
X28869Y66498D01*
X28819D01*
X28919Y66598D02*
Y66798D01*
X29019Y66598D02*
X29119Y66698D01*
Y66798D01*
X29019Y66898D01*
X26070Y65970D02*
Y66270D01*
X26220D01*
X26270Y66220D01*
Y66120D01*
X26220Y66070D01*
X26070D01*
X26170D02*
X26270Y65970D01*
X26520D02*
X26420D01*
X26370Y66020D01*
Y66120D01*
X26420Y66170D01*
X26520D01*
X26570Y66120D01*
Y66070D01*
X26370D01*
X26670Y65970D02*
Y66170D01*
X26720D01*
X26770Y66120D01*
Y65970D01*
Y66120D01*
X26820Y66170D01*
X26870Y66120D01*
Y65970D01*
X27020D02*
X27120D01*
X27170Y66020D01*
Y66120D01*
X27120Y66170D01*
X27020D01*
X26970Y66120D01*
Y66020D01*
X27020Y65970D01*
X27320Y66220D02*
Y66170D01*
X27270D01*
X27370D01*
X27320D01*
Y66020D01*
X27370Y65970D01*
X27669D02*
X27570D01*
X27520Y66020D01*
Y66120D01*
X27570Y66170D01*
X27669D01*
X27719Y66120D01*
Y66070D01*
X27520D01*
X28119Y66270D02*
Y65970D01*
Y66070D01*
X28319Y66270D01*
X28169Y66120D01*
X28319Y65970D01*
X28419D02*
X28519D01*
X28469D01*
Y66170D01*
X28419D01*
X28669Y65970D02*
X28769D01*
X28719D01*
Y66270D01*
X28669D01*
X28919Y65970D02*
X29019D01*
X28969D01*
Y66270D01*
X28919D01*
X29669Y66220D02*
X29619Y66270D01*
X29519D01*
X29469Y66220D01*
Y66170D01*
X29519Y66120D01*
X29619D01*
X29669Y66070D01*
Y66020D01*
X29619Y65970D01*
X29519D01*
X29469Y66020D01*
X29769Y66170D02*
Y66020D01*
X29819Y65970D01*
X29869Y66020D01*
X29919Y65970D01*
X29969Y66020D01*
Y66170D01*
X30069Y65970D02*
X30169D01*
X30119D01*
Y66170D01*
X30069D01*
X30369Y66220D02*
Y66170D01*
X30319D01*
X30419D01*
X30369D01*
Y66020D01*
X30419Y65970D01*
X30768Y66170D02*
X30619D01*
X30569Y66120D01*
Y66020D01*
X30619Y65970D01*
X30768D01*
X30868Y66270D02*
Y65970D01*
Y66120D01*
X30918Y66170D01*
X31018D01*
X31068Y66120D01*
Y65970D01*
X24200Y68300D02*
X24000D01*
Y68000D01*
X24200D01*
X24000Y68150D02*
X24100D01*
X24300Y68000D02*
X24400D01*
X24350D01*
Y68300D01*
X24300D01*
X24700Y68000D02*
X24600D01*
X24550Y68050D01*
Y68150D01*
X24600Y68200D01*
X24700D01*
X24750Y68150D01*
Y68100D01*
X24550D01*
X25050Y68200D02*
X24900D01*
X24850Y68150D01*
Y68050D01*
X24900Y68000D01*
X25050D01*
X25150D02*
Y68050D01*
X25200D01*
Y68000D01*
X25150D01*
X25899Y68250D02*
X25849Y68300D01*
X25749D01*
X25699Y68250D01*
Y68200D01*
X25749Y68150D01*
X25849D01*
X25899Y68100D01*
Y68050D01*
X25849Y68000D01*
X25749D01*
X25699Y68050D01*
X25999Y68300D02*
Y68000D01*
Y68150D01*
X26199D01*
Y68300D01*
Y68000D01*
X26299Y68300D02*
Y68000D01*
X26449D01*
X26499Y68050D01*
Y68250D01*
X26449Y68300D01*
X26299D01*
X26599Y68000D02*
Y68300D01*
X26799Y68000D01*
Y68300D01*
X27349D02*
X27249D01*
X27199Y68250D01*
Y68050D01*
X27249Y68000D01*
X27349D01*
X27399Y68050D01*
Y68250D01*
X27349Y68300D01*
X27499Y68200D02*
Y68050D01*
X27549Y68000D01*
X27699D01*
Y68200D01*
X27849Y68250D02*
Y68200D01*
X27799D01*
X27899D01*
X27849D01*
Y68050D01*
X27899Y68000D01*
X28049Y67900D02*
Y68200D01*
X28199D01*
X28249Y68150D01*
Y68050D01*
X28199Y68000D01*
X28049D01*
X28349Y68200D02*
Y68050D01*
X28399Y68000D01*
X28549D01*
Y68200D01*
X28698Y68250D02*
Y68200D01*
X28649D01*
X28748D01*
X28698D01*
Y68050D01*
X28748Y68000D01*
D30*
X45157Y36000D02*
X44986Y35828D01*
X44900Y35571D01*
Y35228D01*
X44986Y34971D01*
X45157Y34800D01*
X45329D01*
X45500Y34886D01*
X45586Y34971D01*
X45672Y35143D01*
X45843Y35657D01*
X45929Y35828D01*
X46014Y35914D01*
X46186Y36000D01*
X46443D01*
X46614Y35828D01*
X46700Y35571D01*
Y35228D01*
X46614Y34971D01*
X46443Y34800D01*
X46014Y36403D02*
Y37431D01*
X45843D01*
X45672Y37345D01*
X45586Y37259D01*
X45500Y37088D01*
Y36831D01*
X45586Y36660D01*
X45757Y36488D01*
X46014Y36403D01*
X46186D01*
X46443Y36488D01*
X46614Y36660D01*
X46700Y36831D01*
Y37088D01*
X46614Y37259D01*
X46443Y37431D01*
X45500Y37817D02*
X46700D01*
X45843D02*
X45586Y38074D01*
X45500Y38245D01*
Y38502D01*
X45586Y38673D01*
X45843Y38759D01*
X46700D01*
X45757Y40173D02*
X45586Y40087D01*
X45500Y39830D01*
Y39573D01*
X45586Y39316D01*
X45757Y39230D01*
X45929Y39316D01*
X46014Y39488D01*
X46100Y39916D01*
X46186Y40087D01*
X46357Y40173D01*
X46443D01*
X46614Y40087D01*
X46700Y39830D01*
Y39573D01*
X46614Y39316D01*
X46443Y39230D01*
X45500Y40979D02*
X45586Y40807D01*
X45757Y40636D01*
X46014Y40550D01*
X46186D01*
X46443Y40636D01*
X46614Y40807D01*
X46700Y40979D01*
Y41236D01*
X46614Y41407D01*
X46443Y41579D01*
X46186Y41664D01*
X46014D01*
X45757Y41579D01*
X45586Y41407D01*
X45500Y41236D01*
Y40979D01*
Y42058D02*
X46700D01*
X46014D02*
X45757Y42144D01*
X45586Y42316D01*
X45500Y42487D01*
Y42744D01*
X44900Y44321D02*
X46700D01*
X44900D02*
Y45092D01*
X44986Y45349D01*
X45072Y45435D01*
X45243Y45521D01*
X45415D01*
X45586Y45435D01*
X45672Y45349D01*
X45757Y45092D01*
Y44321D02*
Y45092D01*
X45843Y45349D01*
X45929Y45435D01*
X46100Y45521D01*
X46357D01*
X46529Y45435D01*
X46614Y45349D01*
X46700Y45092D01*
Y44321D01*
X45500Y46352D02*
X45586Y46180D01*
X45757Y46009D01*
X46014Y45923D01*
X46186D01*
X46443Y46009D01*
X46614Y46180D01*
X46700Y46352D01*
Y46609D01*
X46614Y46780D01*
X46443Y46952D01*
X46186Y47037D01*
X46014D01*
X45757Y46952D01*
X45586Y46780D01*
X45500Y46609D01*
Y46352D01*
Y48460D02*
X46700D01*
X45757D02*
X45586Y48289D01*
X45500Y48117D01*
Y47860D01*
X45586Y47689D01*
X45757Y47517D01*
X46014Y47432D01*
X46186D01*
X46443Y47517D01*
X46614Y47689D01*
X46700Y47860D01*
Y48117D01*
X46614Y48289D01*
X46443Y48460D01*
X45500Y48940D02*
X46700D01*
X46014D02*
X45757Y49026D01*
X45586Y49197D01*
X45500Y49368D01*
Y49625D01*
X44900Y50817D02*
X46700D01*
X45757D02*
X45586Y50645D01*
X45500Y50474D01*
Y50217D01*
X45586Y50045D01*
X45757Y49874D01*
X46014Y49788D01*
X46186D01*
X46443Y49874D01*
X46614Y50045D01*
X46700Y50217D01*
Y50474D01*
X46614Y50645D01*
X46443Y50817D01*
X36900Y27400D02*
X38700D01*
X36900Y26800D02*
Y28000D01*
Y28214D02*
X38700D01*
X37843D02*
X37586Y28471D01*
X37500Y28642D01*
Y28900D01*
X37586Y29071D01*
X37843Y29157D01*
X38700D01*
X37500Y29628D02*
X38700D01*
X38014D02*
X37757Y29714D01*
X37586Y29885D01*
X37500Y30056D01*
Y30314D01*
Y30476D02*
X38357D01*
X38614Y30562D01*
X38700Y30733D01*
Y30991D01*
X38614Y31162D01*
X38357Y31419D01*
X37500D02*
X38700D01*
X37757Y32833D02*
X37586Y32747D01*
X37500Y32490D01*
Y32233D01*
X37586Y31976D01*
X37757Y31890D01*
X37929Y31976D01*
X38014Y32147D01*
X38100Y32576D01*
X38186Y32747D01*
X38357Y32833D01*
X38443D01*
X38614Y32747D01*
X38700Y32490D01*
Y32233D01*
X38614Y31976D01*
X38443Y31890D01*
X36900Y33467D02*
X38357D01*
X38614Y33553D01*
X38700Y33724D01*
Y33896D01*
X37500Y33210D02*
Y33810D01*
X38014Y34153D02*
Y35181D01*
X37843D01*
X37672Y35095D01*
X37586Y35010D01*
X37500Y34838D01*
Y34581D01*
X37586Y34410D01*
X37757Y34238D01*
X38014Y34153D01*
X38186D01*
X38443Y34238D01*
X38614Y34410D01*
X38700Y34581D01*
Y34838D01*
X38614Y35010D01*
X38443Y35181D01*
X37500Y35567D02*
X38700D01*
X38014D02*
X37757Y35652D01*
X37586Y35824D01*
X37500Y35995D01*
Y36252D01*
X36900Y37829D02*
X38700D01*
X36900D02*
Y38600D01*
X36986Y38857D01*
X37072Y38943D01*
X37243Y39029D01*
X37415D01*
X37586Y38943D01*
X37672Y38857D01*
X37757Y38600D01*
Y37829D02*
Y38600D01*
X37843Y38857D01*
X37929Y38943D01*
X38100Y39029D01*
X38357D01*
X38529Y38943D01*
X38614Y38857D01*
X38700Y38600D01*
Y37829D01*
X37500Y39860D02*
X37586Y39689D01*
X37757Y39517D01*
X38014Y39432D01*
X38186D01*
X38443Y39517D01*
X38614Y39689D01*
X38700Y39860D01*
Y40117D01*
X38614Y40289D01*
X38443Y40460D01*
X38186Y40546D01*
X38014D01*
X37757Y40460D01*
X37586Y40289D01*
X37500Y40117D01*
Y39860D01*
Y41968D02*
X38700D01*
X37757D02*
X37586Y41797D01*
X37500Y41625D01*
Y41368D01*
X37586Y41197D01*
X37757Y41026D01*
X38014Y40940D01*
X38186D01*
X38443Y41026D01*
X38614Y41197D01*
X38700Y41368D01*
Y41625D01*
X38614Y41797D01*
X38443Y41968D01*
X37500Y42448D02*
X38700D01*
X38014D02*
X37757Y42534D01*
X37586Y42705D01*
X37500Y42877D01*
Y43134D01*
X36900Y44325D02*
X38700D01*
X37757D02*
X37586Y44153D01*
X37500Y43982D01*
Y43725D01*
X37586Y43554D01*
X37757Y43382D01*
X38014Y43296D01*
X38186D01*
X38443Y43382D01*
X38614Y43554D01*
X38700Y43725D01*
Y43982D01*
X38614Y44153D01*
X38443Y44325D01*
X4528Y85943D02*
X4443Y86114D01*
X4186Y86200D01*
X4014D01*
X3757Y86114D01*
X3586Y85857D01*
X3500Y85428D01*
Y85000D01*
X3586Y84657D01*
X3757Y84486D01*
X4014Y84400D01*
X4100D01*
X4357Y84486D01*
X4528Y84657D01*
X4614Y84914D01*
Y85000D01*
X4528Y85257D01*
X4357Y85428D01*
X4100Y85514D01*
X4014D01*
X3757Y85428D01*
X3586Y85257D01*
X3500Y85000D01*
X5094Y84571D02*
X5008Y84486D01*
X5094Y84400D01*
X5180Y84486D01*
X5094Y84571D01*
X6602Y86200D02*
X5745D01*
X5660Y85428D01*
X5745Y85514D01*
X6002Y85600D01*
X6259D01*
X6517Y85514D01*
X6688Y85343D01*
X6774Y85086D01*
Y84914D01*
X6688Y84657D01*
X6517Y84486D01*
X6259Y84400D01*
X6002D01*
X5745Y84486D01*
X5660Y84571D01*
X5574Y84743D01*
X7605Y86200D02*
X7348Y86114D01*
X7262Y85943D01*
Y85771D01*
X7348Y85600D01*
X7519Y85514D01*
X7862Y85428D01*
X8119Y85343D01*
X8290Y85171D01*
X8376Y85000D01*
Y84743D01*
X8290Y84571D01*
X8205Y84486D01*
X7948Y84400D01*
X7605D01*
X7348Y84486D01*
X7262Y84571D01*
X7176Y84743D01*
Y85000D01*
X7262Y85171D01*
X7433Y85343D01*
X7691Y85428D01*
X8033Y85514D01*
X8205Y85600D01*
X8290Y85771D01*
Y85943D01*
X8205Y86114D01*
X7948Y86200D01*
X7605D01*
X10193Y85600D02*
X11136Y84400D01*
Y85600D02*
X10193Y84400D01*
X15540Y86200D02*
X14683Y84400D01*
X14341Y86200D02*
X15540D01*
X16029Y84571D02*
X15943Y84486D01*
X16029Y84400D01*
X16114Y84486D01*
X16029Y84571D01*
X17623Y85600D02*
X17537Y85343D01*
X17366Y85171D01*
X17109Y85086D01*
X17023D01*
X16766Y85171D01*
X16594Y85343D01*
X16509Y85600D01*
Y85685D01*
X16594Y85943D01*
X16766Y86114D01*
X17023Y86200D01*
X17109D01*
X17366Y86114D01*
X17537Y85943D01*
X17623Y85600D01*
Y85171D01*
X17537Y84743D01*
X17366Y84486D01*
X17109Y84400D01*
X16937D01*
X16680Y84486D01*
X16594Y84657D01*
X19140Y86200D02*
X18283D01*
X18197Y85428D01*
X18283Y85514D01*
X18540Y85600D01*
X18797D01*
X19054Y85514D01*
X19225Y85343D01*
X19311Y85086D01*
Y84914D01*
X19225Y84657D01*
X19054Y84486D01*
X18797Y84400D01*
X18540D01*
X18283Y84486D01*
X18197Y84571D01*
X18111Y84743D01*
X21299Y86200D02*
X21385Y86114D01*
X21470Y86200D01*
X21385Y86285D01*
X21299Y86200D01*
X21385Y85600D02*
Y84400D01*
X21788Y85600D02*
Y84400D01*
Y85257D02*
X22045Y85514D01*
X22216Y85600D01*
X22473D01*
X22644Y85514D01*
X22730Y85257D01*
Y84400D01*
X24230Y85343D02*
X24058Y85514D01*
X23887Y85600D01*
X23630D01*
X23459Y85514D01*
X23287Y85343D01*
X23201Y85086D01*
Y84914D01*
X23287Y84657D01*
X23459Y84486D01*
X23630Y84400D01*
X23887D01*
X24058Y84486D01*
X24230Y84657D01*
X24615Y86200D02*
Y84400D01*
Y85257D02*
X24873Y85514D01*
X25044Y85600D01*
X25301D01*
X25472Y85514D01*
X25558Y85257D01*
Y84400D01*
X4500Y23357D02*
X5271D01*
X5528Y23443D01*
X5614Y23528D01*
X5700Y23700D01*
Y23957D01*
X5614Y24128D01*
X5528Y24214D01*
X5271Y24300D01*
X4500D01*
Y22500D01*
X6531Y23700D02*
X6360Y23614D01*
X6188Y23443D01*
X6103Y23186D01*
Y23014D01*
X6188Y22757D01*
X6360Y22586D01*
X6531Y22500D01*
X6788D01*
X6959Y22586D01*
X7131Y22757D01*
X7217Y23014D01*
Y23186D01*
X7131Y23443D01*
X6959Y23614D01*
X6788Y23700D01*
X6531D01*
X7611D02*
X7954Y22500D01*
X8296Y23700D02*
X7954Y22500D01*
X8296Y23700D02*
X8639Y22500D01*
X8982Y23700D02*
X8639Y22500D01*
X9402Y23186D02*
X10430D01*
Y23357D01*
X10344Y23528D01*
X10259Y23614D01*
X10087Y23700D01*
X9830D01*
X9659Y23614D01*
X9488Y23443D01*
X9402Y23186D01*
Y23014D01*
X9488Y22757D01*
X9659Y22586D01*
X9830Y22500D01*
X10087D01*
X10259Y22586D01*
X10430Y22757D01*
X10816Y23700D02*
Y22500D01*
Y23186D02*
X10901Y23443D01*
X11073Y23614D01*
X11244Y23700D01*
X11501D01*
X57657Y33200D02*
X57486Y33028D01*
X57400Y32771D01*
Y32428D01*
X57486Y32171D01*
X57657Y32000D01*
X57829D01*
X58000Y32086D01*
X58086Y32171D01*
X58172Y32343D01*
X58343Y32857D01*
X58429Y33028D01*
X58514Y33114D01*
X58686Y33200D01*
X58943D01*
X59114Y33028D01*
X59200Y32771D01*
Y32428D01*
X59114Y32171D01*
X58943Y32000D01*
X58514Y33603D02*
Y34631D01*
X58343D01*
X58172Y34545D01*
X58086Y34459D01*
X58000Y34288D01*
Y34031D01*
X58086Y33860D01*
X58257Y33688D01*
X58514Y33603D01*
X58686D01*
X58943Y33688D01*
X59114Y33860D01*
X59200Y34031D01*
Y34288D01*
X59114Y34459D01*
X58943Y34631D01*
X58000Y35017D02*
X59200D01*
X58514D02*
X58257Y35102D01*
X58086Y35274D01*
X58000Y35445D01*
Y35702D01*
X57400Y36036D02*
X57486Y36122D01*
X57400Y36208D01*
X57315Y36122D01*
X57400Y36036D01*
X58000Y36122D02*
X59200D01*
X58000Y37553D02*
X59200D01*
X58257D02*
X58086Y37382D01*
X58000Y37210D01*
Y36953D01*
X58086Y36782D01*
X58257Y36610D01*
X58514Y36525D01*
X58686D01*
X58943Y36610D01*
X59114Y36782D01*
X59200Y36953D01*
Y37210D01*
X59114Y37382D01*
X58943Y37553D01*
X57400Y38033D02*
X59200D01*
X57400Y39824D02*
X59200D01*
X57400D02*
Y40595D01*
X57486Y40852D01*
X57572Y40938D01*
X57743Y41024D01*
X57915D01*
X58086Y40938D01*
X58172Y40852D01*
X58257Y40595D01*
Y39824D02*
Y40595D01*
X58343Y40852D01*
X58429Y40938D01*
X58600Y41024D01*
X58857D01*
X59029Y40938D01*
X59114Y40852D01*
X59200Y40595D01*
Y39824D01*
X58000Y41855D02*
X58086Y41684D01*
X58257Y41512D01*
X58514Y41427D01*
X58686D01*
X58943Y41512D01*
X59114Y41684D01*
X59200Y41855D01*
Y42112D01*
X59114Y42284D01*
X58943Y42455D01*
X58686Y42541D01*
X58514D01*
X58257Y42455D01*
X58086Y42284D01*
X58000Y42112D01*
Y41855D01*
Y43963D02*
X59200D01*
X58257D02*
X58086Y43792D01*
X58000Y43620D01*
Y43363D01*
X58086Y43192D01*
X58257Y43021D01*
X58514Y42935D01*
X58686D01*
X58943Y43021D01*
X59114Y43192D01*
X59200Y43363D01*
Y43620D01*
X59114Y43792D01*
X58943Y43963D01*
X58000Y44443D02*
X59200D01*
X58514D02*
X58257Y44529D01*
X58086Y44700D01*
X58000Y44872D01*
Y45129D01*
X57400Y46320D02*
X59200D01*
X58257D02*
X58086Y46148D01*
X58000Y45977D01*
Y45720D01*
X58086Y45549D01*
X58257Y45377D01*
X58514Y45291D01*
X58686D01*
X58943Y45377D01*
X59114Y45549D01*
X59200Y45720D01*
Y45977D01*
X59114Y46148D01*
X58943Y46320D01*
X16143Y39000D02*
Y39771D01*
X16057Y40028D01*
X15972Y40114D01*
X15800Y40200D01*
X15543D01*
X15372Y40114D01*
X15286Y40028D01*
X15200Y39771D01*
Y39000D01*
X17000D01*
X15800Y41031D02*
X15886Y40860D01*
X16057Y40688D01*
X16314Y40603D01*
X16486D01*
X16743Y40688D01*
X16914Y40860D01*
X17000Y41031D01*
Y41288D01*
X16914Y41459D01*
X16743Y41631D01*
X16486Y41717D01*
X16314D01*
X16057Y41631D01*
X15886Y41459D01*
X15800Y41288D01*
Y41031D01*
Y42111D02*
X17000Y42454D01*
X15800Y42796D02*
X17000Y42454D01*
X15800Y42796D02*
X17000Y43139D01*
X15800Y43482D02*
X17000Y43139D01*
X16314Y43902D02*
Y44930D01*
X16143D01*
X15972Y44844D01*
X15886Y44759D01*
X15800Y44587D01*
Y44330D01*
X15886Y44159D01*
X16057Y43987D01*
X16314Y43902D01*
X16486D01*
X16743Y43987D01*
X16914Y44159D01*
X17000Y44330D01*
Y44587D01*
X16914Y44759D01*
X16743Y44930D01*
X15800Y45316D02*
X17000D01*
X16314D02*
X16057Y45401D01*
X15886Y45573D01*
X15800Y45744D01*
Y46001D01*
X15200Y47578D02*
X17000D01*
X15200D02*
Y48349D01*
X15286Y48607D01*
X15372Y48692D01*
X15543Y48778D01*
X15715D01*
X15886Y48692D01*
X15972Y48607D01*
X16057Y48349D01*
Y47578D02*
Y48349D01*
X16143Y48607D01*
X16229Y48692D01*
X16400Y48778D01*
X16657D01*
X16829Y48692D01*
X16914Y48607D01*
X17000Y48349D01*
Y47578D01*
X15800Y49609D02*
X15886Y49438D01*
X16057Y49266D01*
X16314Y49181D01*
X16486D01*
X16743Y49266D01*
X16914Y49438D01*
X17000Y49609D01*
Y49866D01*
X16914Y50038D01*
X16743Y50209D01*
X16486Y50295D01*
X16314D01*
X16057Y50209D01*
X15886Y50038D01*
X15800Y49866D01*
Y49609D01*
Y51717D02*
X17000D01*
X16057D02*
X15886Y51546D01*
X15800Y51374D01*
Y51117D01*
X15886Y50946D01*
X16057Y50775D01*
X16314Y50689D01*
X16486D01*
X16743Y50775D01*
X16914Y50946D01*
X17000Y51117D01*
Y51374D01*
X16914Y51546D01*
X16743Y51717D01*
X15800Y52197D02*
X17000D01*
X16314D02*
X16057Y52283D01*
X15886Y52454D01*
X15800Y52626D01*
Y52883D01*
X15200Y54074D02*
X17000D01*
X16057D02*
X15886Y53903D01*
X15800Y53731D01*
Y53474D01*
X15886Y53303D01*
X16057Y53131D01*
X16314Y53046D01*
X16486D01*
X16743Y53131D01*
X16914Y53303D01*
X17000Y53474D01*
Y53731D01*
X16914Y53903D01*
X16743Y54074D01*
X12629Y48285D02*
X12457Y48200D01*
X12286Y48028D01*
X12200Y47857D01*
Y47514D01*
X12286Y47343D01*
X12457Y47171D01*
X12629Y47086D01*
X12886Y47000D01*
X13314D01*
X13572Y47086D01*
X13743Y47171D01*
X13914Y47343D01*
X14000Y47514D01*
Y47857D01*
X13914Y48028D01*
X13743Y48200D01*
X13572Y48285D01*
X12800Y49220D02*
X12886Y49048D01*
X13057Y48877D01*
X13314Y48791D01*
X13486D01*
X13743Y48877D01*
X13914Y49048D01*
X14000Y49220D01*
Y49477D01*
X13914Y49648D01*
X13743Y49819D01*
X13486Y49905D01*
X13314D01*
X13057Y49819D01*
X12886Y49648D01*
X12800Y49477D01*
Y49220D01*
Y50299D02*
X14000D01*
X13143D02*
X12886Y50556D01*
X12800Y50728D01*
Y50985D01*
X12886Y51156D01*
X13143Y51242D01*
X14000D01*
X12800Y51713D02*
X14000Y52227D01*
X12800Y52742D02*
X14000Y52227D01*
X13314Y53033D02*
Y54061D01*
X13143D01*
X12972Y53976D01*
X12886Y53890D01*
X12800Y53719D01*
Y53461D01*
X12886Y53290D01*
X13057Y53119D01*
X13314Y53033D01*
X13486D01*
X13743Y53119D01*
X13914Y53290D01*
X14000Y53461D01*
Y53719D01*
X13914Y53890D01*
X13743Y54061D01*
X12800Y54447D02*
X14000D01*
X13314D02*
X13057Y54533D01*
X12886Y54704D01*
X12800Y54875D01*
Y55133D01*
X13057Y56238D02*
X12886Y56152D01*
X12800Y55895D01*
Y55638D01*
X12886Y55381D01*
X13057Y55295D01*
X13229Y55381D01*
X13314Y55552D01*
X13400Y55981D01*
X13486Y56152D01*
X13657Y56238D01*
X13743D01*
X13914Y56152D01*
X14000Y55895D01*
Y55638D01*
X13914Y55381D01*
X13743Y55295D01*
X12200Y56786D02*
X12286Y56872D01*
X12200Y56958D01*
X12115Y56872D01*
X12200Y56786D01*
X12800Y56872D02*
X14000D01*
X12800Y57703D02*
X12886Y57532D01*
X13057Y57361D01*
X13314Y57275D01*
X13486D01*
X13743Y57361D01*
X13914Y57532D01*
X14000Y57703D01*
Y57961D01*
X13914Y58132D01*
X13743Y58303D01*
X13486Y58389D01*
X13314D01*
X13057Y58303D01*
X12886Y58132D01*
X12800Y57961D01*
Y57703D01*
Y58783D02*
X14000D01*
X13143D02*
X12886Y59040D01*
X12800Y59212D01*
Y59469D01*
X12886Y59640D01*
X13143Y59726D01*
X14000D01*
X12200Y61611D02*
X14000D01*
X12200D02*
Y62382D01*
X12286Y62640D01*
X12372Y62725D01*
X12543Y62811D01*
X12715D01*
X12886Y62725D01*
X12972Y62640D01*
X13057Y62382D01*
Y61611D02*
Y62382D01*
X13143Y62640D01*
X13229Y62725D01*
X13400Y62811D01*
X13657D01*
X13829Y62725D01*
X13914Y62640D01*
X14000Y62382D01*
Y61611D01*
X12800Y63642D02*
X12886Y63471D01*
X13057Y63299D01*
X13314Y63214D01*
X13486D01*
X13743Y63299D01*
X13914Y63471D01*
X14000Y63642D01*
Y63899D01*
X13914Y64071D01*
X13743Y64242D01*
X13486Y64328D01*
X13314D01*
X13057Y64242D01*
X12886Y64071D01*
X12800Y63899D01*
Y63642D01*
Y65750D02*
X14000D01*
X13057D02*
X12886Y65579D01*
X12800Y65407D01*
Y65150D01*
X12886Y64979D01*
X13057Y64808D01*
X13314Y64722D01*
X13486D01*
X13743Y64808D01*
X13914Y64979D01*
X14000Y65150D01*
Y65407D01*
X13914Y65579D01*
X13743Y65750D01*
X12800Y66230D02*
X14000D01*
X13314D02*
X13057Y66316D01*
X12886Y66487D01*
X12800Y66659D01*
Y66916D01*
X12200Y68107D02*
X14000D01*
X13057D02*
X12886Y67936D01*
X12800Y67764D01*
Y67507D01*
X12886Y67336D01*
X13057Y67164D01*
X13314Y67079D01*
X13486D01*
X13743Y67164D01*
X13914Y67336D01*
X14000Y67507D01*
Y67764D01*
X13914Y67936D01*
X13743Y68107D01*
M02*
