G04 Layer_Color=32896*
%FSLAX24Y24*%
%MOIN*%
G70*
G01*
G75*
%ADD14C,0.0100*%
D14*
X34350Y20600D02*
X44750D01*
X33850Y16000D02*
X45170D01*
X44750Y20600D02*
X45170Y20180D01*
Y16000D02*
Y20180D01*
X33850Y16000D02*
Y20100D01*
X34350Y20600D01*
X33495Y20755D02*
X32895D01*
Y20455D01*
X32995Y20355D01*
X33195D01*
X33295Y20455D01*
Y20755D01*
X32895Y19755D02*
X32995Y19955D01*
X33195Y20155D01*
X33395D01*
X33495Y20055D01*
Y19855D01*
X33395Y19755D01*
X33295D01*
X33195Y19855D01*
Y20155D01*
X33495Y19555D02*
X33095D01*
X32895Y19355D01*
X33095Y19156D01*
X33495D01*
X33195D01*
Y19555D01*
X39000Y21014D02*
X39057Y20986D01*
X39143Y20900D01*
Y21500D01*
X39468Y21043D02*
Y21014D01*
X39497Y20957D01*
X39526Y20929D01*
X39583Y20900D01*
X39697D01*
X39754Y20929D01*
X39783Y20957D01*
X39811Y21014D01*
Y21072D01*
X39783Y21129D01*
X39726Y21214D01*
X39440Y21500D01*
X39840D01*
X39974Y20900D02*
X40203Y21500D01*
X40431Y20900D02*
X40203Y21500D01*
X41408Y21043D02*
X41379Y20986D01*
X41322Y20929D01*
X41265Y20900D01*
X41151D01*
X41094Y20929D01*
X41037Y20986D01*
X41008Y21043D01*
X40980Y21129D01*
Y21271D01*
X41008Y21357D01*
X41037Y21414D01*
X41094Y21471D01*
X41151Y21500D01*
X41265D01*
X41322Y21471D01*
X41379Y21414D01*
X41408Y21357D01*
X41719Y21100D02*
X41662Y21129D01*
X41605Y21186D01*
X41577Y21271D01*
Y21329D01*
X41605Y21414D01*
X41662Y21471D01*
X41719Y21500D01*
X41805D01*
X41862Y21471D01*
X41919Y21414D01*
X41948Y21329D01*
Y21271D01*
X41919Y21186D01*
X41862Y21129D01*
X41805Y21100D01*
X41719D01*
X42079D02*
Y21500D01*
Y21214D02*
X42165Y21129D01*
X42222Y21100D01*
X42308D01*
X42365Y21129D01*
X42394Y21214D01*
Y21500D01*
X42551Y21100D02*
X42722Y21500D01*
X42893Y21100D02*
X42722Y21500D01*
X42991Y21271D02*
X43333D01*
Y21214D01*
X43305Y21157D01*
X43276Y21129D01*
X43219Y21100D01*
X43133D01*
X43076Y21129D01*
X43019Y21186D01*
X42991Y21271D01*
Y21329D01*
X43019Y21414D01*
X43076Y21471D01*
X43133Y21500D01*
X43219D01*
X43276Y21471D01*
X43333Y21414D01*
X43462Y21100D02*
Y21500D01*
Y21271D02*
X43490Y21186D01*
X43548Y21129D01*
X43605Y21100D01*
X43690D01*
X43830Y20900D02*
Y21386D01*
X43859Y21471D01*
X43916Y21500D01*
X43973D01*
X43745Y21100D02*
X43945D01*
X44059Y21271D02*
X44402D01*
Y21214D01*
X44373Y21157D01*
X44345Y21129D01*
X44287Y21100D01*
X44202D01*
X44145Y21129D01*
X44087Y21186D01*
X44059Y21271D01*
Y21329D01*
X44087Y21414D01*
X44145Y21471D01*
X44202Y21500D01*
X44287D01*
X44345Y21471D01*
X44402Y21414D01*
X44530Y21100D02*
Y21500D01*
Y21271D02*
X44559Y21186D01*
X44616Y21129D01*
X44673Y21100D01*
X44759D01*
M02*
