G04 Layer_Color=65535*
%FSLAX24Y24*%
%MOIN*%
G70*
G01*
G75*
%ADD12C,0.0200*%
%ADD13C,0.0400*%
%ADD15C,0.0100*%
%ADD24C,0.0070*%
%ADD25C,0.0300*%
D12*
X18000Y11700D02*
Y10500D01*
X18800Y11700D02*
X18000Y10900D01*
X18286Y11186D02*
X18800Y10500D01*
X19183Y11700D02*
X19240Y11643D01*
X19297Y11700D01*
X19240Y11757D01*
X19183Y11700D01*
X19240Y11300D02*
Y10500D01*
X19508Y11700D02*
Y10500D01*
X19760Y11700D02*
Y10500D01*
X21753Y11528D02*
X21639Y11643D01*
X21468Y11700D01*
X21239D01*
X21068Y11643D01*
X20954Y11528D01*
Y11414D01*
X21011Y11300D01*
X21068Y11243D01*
X21182Y11186D01*
X21525Y11071D01*
X21639Y11014D01*
X21696Y10957D01*
X21753Y10843D01*
Y10671D01*
X21639Y10557D01*
X21468Y10500D01*
X21239D01*
X21068Y10557D01*
X20954Y10671D01*
X22022Y11300D02*
X22251Y10500D01*
X22479Y11300D02*
X22251Y10500D01*
X22479Y11300D02*
X22708Y10500D01*
X22936Y11300D02*
X22708Y10500D01*
X23330Y11700D02*
X23387Y11643D01*
X23445Y11700D01*
X23387Y11757D01*
X23330Y11700D01*
X23387Y11300D02*
Y10500D01*
X23827Y11700D02*
Y10729D01*
X23884Y10557D01*
X23999Y10500D01*
X24113D01*
X23656Y11300D02*
X24056D01*
X24970Y11128D02*
X24856Y11243D01*
X24741Y11300D01*
X24570D01*
X24456Y11243D01*
X24341Y11128D01*
X24284Y10957D01*
Y10843D01*
X24341Y10671D01*
X24456Y10557D01*
X24570Y10500D01*
X24741D01*
X24856Y10557D01*
X24970Y10671D01*
X25227Y11700D02*
Y10500D01*
Y11071D02*
X25398Y11243D01*
X25513Y11300D01*
X25684D01*
X25798Y11243D01*
X25855Y11071D01*
Y10500D01*
D13*
X4500Y15000D02*
Y21500D01*
X29500Y15000D02*
Y21500D01*
X4500D02*
X7500D01*
X4500Y15000D02*
X7500D01*
X26500D02*
X29500D01*
X26500Y21500D02*
X29500D01*
D15*
X6500Y72000D02*
X7500D01*
Y74024D01*
X6500D02*
X7500D01*
X6500Y72000D02*
Y74024D01*
X21500Y64500D02*
Y66500D01*
Y64500D02*
X23500D01*
Y66500D01*
X21500D02*
X23500D01*
X22500Y64100D02*
Y66800D01*
X21500Y69500D02*
Y71500D01*
Y69500D02*
X23500D01*
Y71500D01*
X21500D02*
X23500D01*
X22500Y69100D02*
Y71800D01*
X21500Y72000D02*
Y74000D01*
Y72000D02*
X23500D01*
Y74000D01*
X21500D02*
X23500D01*
X22500Y71600D02*
Y74300D01*
X21500Y67500D02*
Y68500D01*
Y67500D02*
X23524D01*
Y68500D01*
X21500D02*
X23524D01*
X32941Y30093D02*
Y42898D01*
Y30093D02*
X36287D01*
Y42898D01*
X32941D02*
X36287D01*
X13800Y20500D02*
X28020D01*
X27600Y15900D02*
X28020Y16320D01*
Y20500D01*
X13800Y16400D02*
Y20500D01*
Y16400D02*
X14300Y15900D01*
X27600D01*
X26520Y12860D02*
X29440D01*
Y10200D02*
Y12860D01*
X26520Y10200D02*
X29440D01*
X26520D02*
Y12860D01*
X5000Y16400D02*
X6100D01*
X5000D02*
Y19300D01*
X11500D01*
Y16400D02*
Y19300D01*
X6100Y16400D02*
X11500D01*
X65003Y51149D02*
Y56303D01*
X63901Y51145D02*
X65003Y51149D01*
X63901Y51145D02*
Y56303D01*
X65003D01*
X49901Y46603D02*
X51003D01*
X49901Y41445D02*
Y46603D01*
Y41445D02*
X51003Y41449D01*
Y46603D01*
X19441Y36110D02*
Y56898D01*
Y36110D02*
X22787D01*
Y56898D01*
X19441D02*
X22787D01*
X10541Y51893D02*
Y64698D01*
Y51893D02*
X13887D01*
Y64698D01*
X10541D02*
X13887D01*
X30700Y30700D02*
Y31500D01*
X27900Y30700D02*
X30700D01*
X27900D02*
Y31500D01*
Y36400D02*
Y37100D01*
X30700D01*
Y36400D02*
Y37100D01*
Y32500D02*
Y35300D01*
X27900Y32500D02*
Y35300D01*
X20400Y24600D02*
Y27400D01*
X23200Y24600D02*
Y27400D01*
Y28500D02*
Y29200D01*
X20400D02*
X23200D01*
X20400Y28500D02*
Y29200D01*
Y22800D02*
Y23600D01*
Y22800D02*
X23200D01*
Y23600D01*
X28200Y22800D02*
Y23600D01*
X25400Y22800D02*
X28200D01*
X25400D02*
Y23600D01*
Y28500D02*
Y29200D01*
X28200D01*
Y28500D02*
Y29200D01*
Y24600D02*
Y27400D01*
X25400Y24600D02*
Y27400D01*
X26565Y13205D02*
Y13805D01*
X26865D01*
X26965Y13705D01*
Y13505D01*
X26865Y13405D01*
X26565D01*
X27165Y13705D02*
X27265Y13805D01*
X27465D01*
X27565Y13705D01*
Y13605D01*
X27465Y13505D01*
X27565Y13405D01*
Y13305D01*
X27465Y13205D01*
X27265D01*
X27165Y13305D01*
Y13405D01*
X27265Y13505D01*
X27165Y13605D01*
Y13705D01*
X27265Y13505D02*
X27465D01*
X27765Y13205D02*
Y13605D01*
X27965Y13805D01*
X28164Y13605D01*
Y13205D01*
Y13505D01*
X27765D01*
X5500Y20000D02*
Y20600D01*
X5800D01*
X5900Y20500D01*
Y20300D01*
X5800Y20200D01*
X5500D01*
X6400Y20000D02*
Y20600D01*
X6100Y20300D01*
X6500D01*
X6700Y20000D02*
Y20400D01*
X6900Y20600D01*
X7099Y20400D01*
Y20000D01*
Y20300D01*
X6700D01*
X12500Y65000D02*
Y65600D01*
X12800D01*
X12900Y65500D01*
Y65300D01*
X12800Y65200D01*
X12500D01*
X13100Y65500D02*
X13200Y65600D01*
X13400D01*
X13500Y65500D01*
Y65400D01*
X13400Y65300D01*
X13300D01*
X13400D01*
X13500Y65200D01*
Y65100D01*
X13400Y65000D01*
X13200D01*
X13100Y65100D01*
X13700Y65000D02*
Y65400D01*
X13900Y65600D01*
X14099Y65400D01*
Y65000D01*
Y65300D01*
X13700D01*
X51000Y47000D02*
Y47600D01*
X51300D01*
X51400Y47500D01*
Y47300D01*
X51300Y47200D01*
X51000D01*
X51600Y47600D02*
X52000D01*
Y47500D01*
X51600Y47100D01*
Y47000D01*
X52200D02*
Y47400D01*
X52400Y47600D01*
X52599Y47400D01*
Y47000D01*
Y47300D01*
X52200D01*
X65000Y56500D02*
Y57100D01*
X65300D01*
X65400Y57000D01*
Y56800D01*
X65300Y56700D01*
X65000D01*
X65600Y56600D02*
X65700Y56500D01*
X65900D01*
X66000Y56600D01*
Y57000D01*
X65900Y57100D01*
X65700D01*
X65600Y57000D01*
Y56900D01*
X65700Y56800D01*
X66000D01*
X66200Y56500D02*
Y56900D01*
X66400Y57100D01*
X66599Y56900D01*
Y56500D01*
Y56800D01*
X66200D01*
X19000Y55000D02*
X18400D01*
Y55300D01*
X18500Y55400D01*
X18700D01*
X18800Y55300D01*
Y55000D01*
X19000Y56000D02*
Y55600D01*
X18600Y56000D01*
X18500D01*
X18400Y55900D01*
Y55700D01*
X18500Y55600D01*
X19000Y56200D02*
X18600D01*
X18400Y56400D01*
X18600Y56599D01*
X19000D01*
X18700D01*
Y56200D01*
X35000Y43500D02*
Y44100D01*
X35300D01*
X35400Y44000D01*
Y43800D01*
X35300Y43700D01*
X35000D01*
X36000Y44100D02*
X35600D01*
Y43800D01*
X35800Y43900D01*
X35900D01*
X36000Y43800D01*
Y43600D01*
X35900Y43500D01*
X35700D01*
X35600Y43600D01*
X36200Y43500D02*
Y43900D01*
X36400Y44100D01*
X36599Y43900D01*
Y43500D01*
Y43800D01*
X36200D01*
X25320Y30070D02*
X24920D01*
Y29770D01*
X25120D01*
X24920D01*
Y29470D01*
X25520D02*
X25720D01*
X25620D01*
Y30070D01*
X25520Y29970D01*
X26020Y29470D02*
Y29870D01*
X26220Y30070D01*
X26420Y29870D01*
Y29470D01*
Y29770D01*
X26020D01*
X20320Y30070D02*
X19920D01*
Y29770D01*
X20120D01*
X19920D01*
Y29470D01*
X20920D02*
X20520D01*
X20920Y29870D01*
Y29970D01*
X20820Y30070D01*
X20620D01*
X20520Y29970D01*
X21120Y29470D02*
Y29870D01*
X21320Y30070D01*
X21519Y29870D01*
Y29470D01*
Y29770D01*
X21120D01*
X27820Y37970D02*
X27420D01*
Y37670D01*
X27620D01*
X27420D01*
Y37370D01*
X28020Y37870D02*
X28120Y37970D01*
X28320D01*
X28420Y37870D01*
Y37770D01*
X28320Y37670D01*
X28220D01*
X28320D01*
X28420Y37570D01*
Y37470D01*
X28320Y37370D01*
X28120D01*
X28020Y37470D01*
X28620Y37370D02*
Y37770D01*
X28820Y37970D01*
X29019Y37770D01*
Y37370D01*
Y37670D01*
X28620D01*
X14000Y21000D02*
Y21600D01*
X14300D01*
X14400Y21500D01*
Y21300D01*
X14300Y21200D01*
X14000D01*
X14600Y21000D02*
X14800D01*
X14700D01*
Y21600D01*
X14600Y21500D01*
X15100Y21000D02*
Y21400D01*
X15300Y21600D01*
X15500Y21400D01*
Y21000D01*
Y21300D01*
X15100D01*
X14500Y15600D02*
Y15000D01*
Y15600D02*
X14757D01*
X14843Y15571D01*
X14871Y15543D01*
X14900Y15486D01*
Y15428D01*
X14871Y15371D01*
X14843Y15343D01*
X14757Y15314D01*
X14500D02*
X14757D01*
X14843Y15286D01*
X14871Y15257D01*
X14900Y15200D01*
Y15114D01*
X14871Y15057D01*
X14843Y15029D01*
X14757Y15000D01*
X14500D01*
X15377Y15400D02*
Y15000D01*
Y15314D02*
X15320Y15371D01*
X15263Y15400D01*
X15177D01*
X15120Y15371D01*
X15063Y15314D01*
X15034Y15229D01*
Y15171D01*
X15063Y15086D01*
X15120Y15029D01*
X15177Y15000D01*
X15263D01*
X15320Y15029D01*
X15377Y15086D01*
X15623Y15600D02*
Y15114D01*
X15651Y15029D01*
X15708Y15000D01*
X15765D01*
X15537Y15400D02*
X15737D01*
X15937Y15600D02*
Y15114D01*
X15965Y15029D01*
X16023Y15000D01*
X16080D01*
X15851Y15400D02*
X16051D01*
X16165Y15229D02*
X16508D01*
Y15286D01*
X16480Y15343D01*
X16451Y15371D01*
X16394Y15400D01*
X16308D01*
X16251Y15371D01*
X16194Y15314D01*
X16165Y15229D01*
Y15171D01*
X16194Y15086D01*
X16251Y15029D01*
X16308Y15000D01*
X16394D01*
X16451Y15029D01*
X16508Y15086D01*
X16637Y15400D02*
Y15000D01*
Y15229D02*
X16665Y15314D01*
X16722Y15371D01*
X16780Y15400D01*
X16865D01*
X16977Y15600D02*
X17005Y15571D01*
X17034Y15600D01*
X17005Y15628D01*
X16977Y15600D01*
X17005Y15400D02*
Y15000D01*
X17139Y15229D02*
X17482D01*
Y15286D01*
X17454Y15343D01*
X17425Y15371D01*
X17368Y15400D01*
X17282D01*
X17225Y15371D01*
X17168Y15314D01*
X17139Y15229D01*
Y15171D01*
X17168Y15086D01*
X17225Y15029D01*
X17282Y15000D01*
X17368D01*
X17425Y15029D01*
X17482Y15086D01*
X17925Y15314D02*
X17896Y15371D01*
X17811Y15400D01*
X17725D01*
X17639Y15371D01*
X17611Y15314D01*
X17639Y15257D01*
X17696Y15229D01*
X17839Y15200D01*
X17896Y15171D01*
X17925Y15114D01*
Y15086D01*
X17896Y15029D01*
X17811Y15000D01*
X17725D01*
X17639Y15029D01*
X17611Y15086D01*
X5528Y16057D02*
X5500Y16114D01*
X5443Y16171D01*
X5386Y16200D01*
X5271D01*
X5214Y16171D01*
X5157Y16114D01*
X5129Y16057D01*
X5100Y15971D01*
Y15829D01*
X5129Y15743D01*
X5157Y15686D01*
X5214Y15629D01*
X5271Y15600D01*
X5386D01*
X5443Y15629D01*
X5500Y15686D01*
X5528Y15743D01*
X5840Y16000D02*
X5783Y15971D01*
X5726Y15914D01*
X5697Y15829D01*
Y15771D01*
X5726Y15686D01*
X5783Y15629D01*
X5840Y15600D01*
X5926D01*
X5983Y15629D01*
X6040Y15686D01*
X6068Y15771D01*
Y15829D01*
X6040Y15914D01*
X5983Y15971D01*
X5926Y16000D01*
X5840D01*
X6200D02*
Y15600D01*
Y15886D02*
X6285Y15971D01*
X6343Y16000D01*
X6428D01*
X6485Y15971D01*
X6514Y15886D01*
Y15600D01*
Y15886D02*
X6600Y15971D01*
X6657Y16000D01*
X6743D01*
X6800Y15971D01*
X6828Y15886D01*
Y15600D01*
X7017Y16000D02*
Y15400D01*
Y15914D02*
X7074Y15971D01*
X7131Y16000D01*
X7217D01*
X7274Y15971D01*
X7331Y15914D01*
X7360Y15829D01*
Y15771D01*
X7331Y15686D01*
X7274Y15629D01*
X7217Y15600D01*
X7131D01*
X7074Y15629D01*
X7017Y15686D01*
X7488Y16000D02*
Y15714D01*
X7517Y15629D01*
X7574Y15600D01*
X7659D01*
X7717Y15629D01*
X7802Y15714D01*
Y16000D02*
Y15600D01*
X8045Y16200D02*
Y15714D01*
X8074Y15629D01*
X8131Y15600D01*
X8188D01*
X7959Y16000D02*
X8159D01*
X8274Y15829D02*
X8616D01*
Y15886D01*
X8588Y15943D01*
X8559Y15971D01*
X8502Y16000D01*
X8416D01*
X8359Y15971D01*
X8302Y15914D01*
X8274Y15829D01*
Y15771D01*
X8302Y15686D01*
X8359Y15629D01*
X8416Y15600D01*
X8502D01*
X8559Y15629D01*
X8616Y15686D01*
X8745Y16000D02*
Y15600D01*
Y15829D02*
X8773Y15914D01*
X8831Y15971D01*
X8888Y16000D01*
X8973D01*
X29900Y27900D02*
X29300D01*
X29900D02*
Y27643D01*
X29871Y27557D01*
X29843Y27529D01*
X29786Y27500D01*
X29728D01*
X29671Y27529D01*
X29643Y27557D01*
X29614Y27643D01*
Y27900D02*
Y27643D01*
X29586Y27557D01*
X29557Y27529D01*
X29500Y27500D01*
X29414D01*
X29357Y27529D01*
X29329Y27557D01*
X29300Y27643D01*
Y27900D01*
X29700Y27023D02*
X29300D01*
X29614D02*
X29671Y27080D01*
X29700Y27137D01*
Y27223D01*
X29671Y27280D01*
X29614Y27337D01*
X29529Y27366D01*
X29471D01*
X29386Y27337D01*
X29329Y27280D01*
X29300Y27223D01*
Y27137D01*
X29329Y27080D01*
X29386Y27023D01*
X29900Y26777D02*
X29414D01*
X29329Y26749D01*
X29300Y26692D01*
Y26635D01*
X29700Y26863D02*
Y26663D01*
X29900Y26463D02*
X29414D01*
X29329Y26435D01*
X29300Y26377D01*
Y26320D01*
X29700Y26549D02*
Y26349D01*
X29300Y25778D02*
X29900Y26006D01*
X29300Y26235D01*
X29500Y26149D02*
Y25863D01*
X29900Y25166D02*
X29300D01*
X29900D02*
Y24795D01*
X29614Y25166D02*
Y24938D01*
X29700Y24726D02*
X29414D01*
X29329Y24698D01*
X29300Y24641D01*
Y24555D01*
X29329Y24498D01*
X29414Y24412D01*
X29700D02*
X29300D01*
X29614Y23941D02*
X29671Y23969D01*
X29700Y24055D01*
Y24141D01*
X29671Y24227D01*
X29614Y24255D01*
X29557Y24227D01*
X29529Y24169D01*
X29500Y24027D01*
X29471Y23969D01*
X29414Y23941D01*
X29386D01*
X29329Y23969D01*
X29300Y24055D01*
Y24141D01*
X29329Y24227D01*
X29386Y24255D01*
X29529Y23815D02*
Y23472D01*
X29586D01*
X29643Y23501D01*
X29671Y23530D01*
X29700Y23587D01*
Y23672D01*
X29671Y23729D01*
X29614Y23787D01*
X29529Y23815D01*
X29471D01*
X29386Y23787D01*
X29329Y23729D01*
X29300Y23672D01*
Y23587D01*
X29329Y23530D01*
X29386Y23472D01*
X18800Y23400D02*
X19400D01*
X18800D02*
Y23657D01*
X18829Y23743D01*
X18857Y23771D01*
X18914Y23800D01*
X18972D01*
X19029Y23771D01*
X19057Y23743D01*
X19086Y23657D01*
Y23400D02*
Y23657D01*
X19114Y23743D01*
X19143Y23771D01*
X19200Y23800D01*
X19286D01*
X19343Y23771D01*
X19371Y23743D01*
X19400Y23657D01*
Y23400D01*
X19000Y24277D02*
X19400D01*
X19086D02*
X19029Y24220D01*
X19000Y24163D01*
Y24077D01*
X19029Y24020D01*
X19086Y23963D01*
X19171Y23934D01*
X19229D01*
X19314Y23963D01*
X19371Y24020D01*
X19400Y24077D01*
Y24163D01*
X19371Y24220D01*
X19314Y24277D01*
X18800Y24523D02*
X19286D01*
X19371Y24551D01*
X19400Y24608D01*
Y24665D01*
X19000Y24437D02*
Y24637D01*
X18800Y24837D02*
X19286D01*
X19371Y24865D01*
X19400Y24923D01*
Y24980D01*
X19000Y24751D02*
Y24951D01*
X18800Y25065D02*
X19400D01*
X18800D02*
Y25322D01*
X18829Y25408D01*
X18857Y25437D01*
X18914Y25465D01*
X18972D01*
X19029Y25437D01*
X19057Y25408D01*
X19086Y25322D01*
Y25065D02*
Y25322D01*
X19114Y25408D01*
X19143Y25437D01*
X19200Y25465D01*
X19286D01*
X19343Y25437D01*
X19371Y25408D01*
X19400Y25322D01*
Y25065D01*
X18800Y26071D02*
X19400D01*
X18800D02*
Y26442D01*
X19086Y26071D02*
Y26299D01*
X19000Y26511D02*
X19286D01*
X19371Y26539D01*
X19400Y26596D01*
Y26682D01*
X19371Y26739D01*
X19286Y26825D01*
X19000D02*
X19400D01*
X19086Y27296D02*
X19029Y27268D01*
X19000Y27182D01*
Y27096D01*
X19029Y27011D01*
X19086Y26982D01*
X19143Y27011D01*
X19171Y27068D01*
X19200Y27211D01*
X19229Y27268D01*
X19286Y27296D01*
X19314D01*
X19371Y27268D01*
X19400Y27182D01*
Y27096D01*
X19371Y27011D01*
X19314Y26982D01*
X19171Y27422D02*
Y27765D01*
X19114D01*
X19057Y27736D01*
X19029Y27708D01*
X19000Y27651D01*
Y27565D01*
X19029Y27508D01*
X19086Y27451D01*
X19171Y27422D01*
X19229D01*
X19314Y27451D01*
X19371Y27508D01*
X19400Y27565D01*
Y27651D01*
X19371Y27708D01*
X19314Y27765D01*
X26200Y31500D02*
X26800D01*
X26200Y31300D02*
Y31700D01*
Y31771D02*
X26800D01*
X26514D02*
X26429Y31857D01*
X26400Y31914D01*
Y32000D01*
X26429Y32057D01*
X26514Y32086D01*
X26800D01*
X26400Y32243D02*
X26800D01*
X26571D02*
X26486Y32271D01*
X26429Y32328D01*
X26400Y32385D01*
Y32471D01*
Y32525D02*
X26686D01*
X26771Y32554D01*
X26800Y32611D01*
Y32697D01*
X26771Y32754D01*
X26686Y32840D01*
X26400D02*
X26800D01*
X26486Y33311D02*
X26429Y33282D01*
X26400Y33197D01*
Y33111D01*
X26429Y33025D01*
X26486Y32997D01*
X26543Y33025D01*
X26571Y33082D01*
X26600Y33225D01*
X26629Y33282D01*
X26686Y33311D01*
X26714D01*
X26771Y33282D01*
X26800Y33197D01*
Y33111D01*
X26771Y33025D01*
X26714Y32997D01*
X26200Y33522D02*
X26686D01*
X26771Y33551D01*
X26800Y33608D01*
Y33665D01*
X26400Y33437D02*
Y33637D01*
X26571Y33751D02*
Y34094D01*
X26514D01*
X26457Y34065D01*
X26429Y34037D01*
X26400Y33979D01*
Y33894D01*
X26429Y33837D01*
X26486Y33779D01*
X26571Y33751D01*
X26629D01*
X26714Y33779D01*
X26771Y33837D01*
X26800Y33894D01*
Y33979D01*
X26771Y34037D01*
X26714Y34094D01*
X26400Y34222D02*
X26800D01*
X26571D02*
X26486Y34251D01*
X26429Y34308D01*
X26400Y34365D01*
Y34451D01*
X26200Y34976D02*
X26800D01*
X26200D02*
Y35348D01*
X26486Y34976D02*
Y35205D01*
X26400Y35416D02*
X26686D01*
X26771Y35445D01*
X26800Y35502D01*
Y35588D01*
X26771Y35645D01*
X26686Y35730D01*
X26400D02*
X26800D01*
X26486Y36202D02*
X26429Y36173D01*
X26400Y36088D01*
Y36002D01*
X26429Y35916D01*
X26486Y35888D01*
X26543Y35916D01*
X26571Y35973D01*
X26600Y36116D01*
X26629Y36173D01*
X26686Y36202D01*
X26714D01*
X26771Y36173D01*
X26800Y36088D01*
Y36002D01*
X26771Y35916D01*
X26714Y35888D01*
X26571Y36328D02*
Y36670D01*
X26514D01*
X26457Y36642D01*
X26429Y36613D01*
X26400Y36556D01*
Y36470D01*
X26429Y36413D01*
X26486Y36356D01*
X26571Y36328D01*
X26629D01*
X26714Y36356D01*
X26771Y36413D01*
X26800Y36470D01*
Y36556D01*
X26771Y36613D01*
X26714Y36670D01*
D24*
X8070Y73618D02*
Y73318D01*
X8270D01*
X8420D02*
X8520D01*
X8570Y73368D01*
Y73468D01*
X8520Y73518D01*
X8420D01*
X8370Y73468D01*
Y73368D01*
X8420Y73318D01*
X8870Y73518D02*
X8720D01*
X8670Y73468D01*
Y73368D01*
X8720Y73318D01*
X8870D01*
X9020Y73518D02*
X9120D01*
X9170Y73468D01*
Y73318D01*
X9020D01*
X8970Y73368D01*
X9020Y73418D01*
X9170D01*
X9270Y73318D02*
X9370D01*
X9320D01*
Y73618D01*
X9270D01*
X10019Y73518D02*
X9869D01*
X9819Y73468D01*
Y73368D01*
X9869Y73318D01*
X10019D01*
X10169D02*
X10269D01*
X10319Y73368D01*
Y73468D01*
X10269Y73518D01*
X10169D01*
X10119Y73468D01*
Y73368D01*
X10169Y73318D01*
X10419D02*
Y73518D01*
X10469D01*
X10519Y73468D01*
Y73318D01*
Y73468D01*
X10569Y73518D01*
X10619Y73468D01*
Y73318D01*
X10719Y73218D02*
Y73518D01*
X10869D01*
X10919Y73468D01*
Y73368D01*
X10869Y73318D01*
X10719D01*
X11019Y73518D02*
Y73368D01*
X11069Y73318D01*
X11219D01*
Y73518D01*
X11369Y73568D02*
Y73518D01*
X11319D01*
X11419D01*
X11369D01*
Y73368D01*
X11419Y73318D01*
X11719D02*
X11619D01*
X11569Y73368D01*
Y73468D01*
X11619Y73518D01*
X11719D01*
X11769Y73468D01*
Y73418D01*
X11569D01*
X11869Y73518D02*
Y73318D01*
Y73418D01*
X11919Y73468D01*
X11969Y73518D01*
X12019D01*
X8070Y72570D02*
Y72870D01*
X8220D01*
X8270Y72820D01*
Y72720D01*
X8220Y72670D01*
X8070D01*
X8420D02*
X8520D01*
X8570Y72720D01*
Y72820D01*
X8520Y72870D01*
X8420D01*
X8370Y72820D01*
Y72720D01*
X8420Y72670D01*
X8670Y72870D02*
Y72720D01*
X8720Y72670D01*
X8770Y72720D01*
X8820Y72670D01*
X8870Y72720D01*
Y72870D01*
X9120Y72670D02*
X9020D01*
X8970Y72720D01*
Y72820D01*
X9020Y72870D01*
X9120D01*
X9170Y72820D01*
Y72770D01*
X8970D01*
X9270Y72870D02*
Y72670D01*
Y72770D01*
X9320Y72820D01*
X9370Y72870D01*
X9420D01*
X9869Y72670D02*
X9969D01*
X9919D01*
Y72970D01*
X9869D01*
X10119Y72670D02*
X10219D01*
X10169D01*
Y72870D01*
X10119D01*
X10369Y72670D02*
Y72870D01*
X10519D01*
X10569Y72820D01*
Y72670D01*
X10819D02*
X10719D01*
X10669Y72720D01*
Y72820D01*
X10719Y72870D01*
X10819D01*
X10869Y72820D01*
Y72770D01*
X10669D01*
X11269Y72670D02*
X11419D01*
X11469Y72720D01*
X11419Y72770D01*
X11319D01*
X11269Y72820D01*
X11319Y72870D01*
X11469D01*
X11719Y72670D02*
X11619D01*
X11569Y72720D01*
Y72820D01*
X11619Y72870D01*
X11719D01*
X11769Y72820D01*
Y72770D01*
X11569D01*
X11869Y72670D02*
Y72870D01*
X12019D01*
X12069Y72820D01*
Y72670D01*
X12169D02*
X12319D01*
X12369Y72720D01*
X12319Y72770D01*
X12219D01*
X12169Y72820D01*
X12219Y72870D01*
X12369D01*
X12619Y72670D02*
X12519D01*
X12469Y72720D01*
Y72820D01*
X12519Y72870D01*
X12619D01*
X12669Y72820D01*
Y72770D01*
X12469D01*
X24170Y66208D02*
X24070Y66308D01*
Y66408D01*
X24170Y66508D01*
X24520Y66458D02*
X24470Y66508D01*
X24370D01*
X24320Y66458D01*
Y66408D01*
X24370Y66358D01*
X24470D01*
X24520Y66308D01*
Y66258D01*
X24470Y66208D01*
X24370D01*
X24320Y66258D01*
X24770Y66208D02*
X24670D01*
X24620Y66258D01*
Y66358D01*
X24670Y66408D01*
X24770D01*
X24820Y66358D01*
Y66308D01*
X24620D01*
X25120Y66408D02*
X24970D01*
X24920Y66358D01*
Y66258D01*
X24970Y66208D01*
X25120D01*
X25270D02*
X25370D01*
X25420Y66258D01*
Y66358D01*
X25370Y66408D01*
X25270D01*
X25220Y66358D01*
Y66258D01*
X25270Y66208D01*
X25520D02*
Y66408D01*
X25669D01*
X25719Y66358D01*
Y66208D01*
X26019Y66508D02*
Y66208D01*
X25869D01*
X25819Y66258D01*
Y66358D01*
X25869Y66408D01*
X26019D01*
X26169D02*
X26269D01*
X26319Y66358D01*
Y66208D01*
X26169D01*
X26119Y66258D01*
X26169Y66308D01*
X26319D01*
X26419Y66408D02*
Y66208D01*
Y66308D01*
X26469Y66358D01*
X26519Y66408D01*
X26569D01*
X26719D02*
Y66258D01*
X26769Y66208D01*
X26919D01*
Y66158D01*
X26869Y66108D01*
X26819D01*
X26919Y66208D02*
Y66408D01*
X27019Y66208D02*
X27119Y66308D01*
Y66408D01*
X27019Y66508D01*
X24070Y65570D02*
Y65870D01*
X24220D01*
X24270Y65820D01*
Y65720D01*
X24220Y65670D01*
X24070D01*
X24170D02*
X24270Y65570D01*
X24520D02*
X24420D01*
X24370Y65620D01*
Y65720D01*
X24420Y65770D01*
X24520D01*
X24570Y65720D01*
Y65670D01*
X24370D01*
X24670Y65570D02*
Y65770D01*
X24720D01*
X24770Y65720D01*
Y65570D01*
Y65720D01*
X24820Y65770D01*
X24870Y65720D01*
Y65570D01*
X25020D02*
X25120D01*
X25170Y65620D01*
Y65720D01*
X25120Y65770D01*
X25020D01*
X24970Y65720D01*
Y65620D01*
X25020Y65570D01*
X25320Y65820D02*
Y65770D01*
X25270D01*
X25370D01*
X25320D01*
Y65620D01*
X25370Y65570D01*
X25669D02*
X25570D01*
X25520Y65620D01*
Y65720D01*
X25570Y65770D01*
X25669D01*
X25719Y65720D01*
Y65670D01*
X25520D01*
X26119Y65870D02*
Y65570D01*
Y65670D01*
X26319Y65870D01*
X26169Y65720D01*
X26319Y65570D01*
X26419D02*
X26519D01*
X26469D01*
Y65770D01*
X26419D01*
X26669Y65570D02*
X26769D01*
X26719D01*
Y65870D01*
X26669D01*
X26919Y65570D02*
X27019D01*
X26969D01*
Y65870D01*
X26919D01*
X27669Y65820D02*
X27619Y65870D01*
X27519D01*
X27469Y65820D01*
Y65770D01*
X27519Y65720D01*
X27619D01*
X27669Y65670D01*
Y65620D01*
X27619Y65570D01*
X27519D01*
X27469Y65620D01*
X27769Y65770D02*
Y65620D01*
X27819Y65570D01*
X27869Y65620D01*
X27919Y65570D01*
X27969Y65620D01*
Y65770D01*
X28069Y65570D02*
X28169D01*
X28119D01*
Y65770D01*
X28069D01*
X28369Y65820D02*
Y65770D01*
X28319D01*
X28419D01*
X28369D01*
Y65620D01*
X28419Y65570D01*
X28768Y65770D02*
X28619D01*
X28569Y65720D01*
Y65620D01*
X28619Y65570D01*
X28768D01*
X28868Y65870D02*
Y65570D01*
Y65720D01*
X28918Y65770D01*
X29018D01*
X29068Y65720D01*
Y65570D01*
X24070Y73598D02*
Y73898D01*
X24220D01*
X24270Y73848D01*
Y73748D01*
X24220Y73698D01*
X24070D01*
X24170D02*
X24270Y73598D01*
X24520D02*
X24420D01*
X24370Y73648D01*
Y73748D01*
X24420Y73798D01*
X24520D01*
X24570Y73748D01*
Y73698D01*
X24370D01*
X24670Y73598D02*
Y73798D01*
X24720D01*
X24770Y73748D01*
Y73598D01*
Y73748D01*
X24820Y73798D01*
X24870Y73748D01*
Y73598D01*
X25020D02*
X25120D01*
X25170Y73648D01*
Y73748D01*
X25120Y73798D01*
X25020D01*
X24970Y73748D01*
Y73648D01*
X25020Y73598D01*
X25320Y73848D02*
Y73798D01*
X25270D01*
X25370D01*
X25320D01*
Y73648D01*
X25370Y73598D01*
X25669D02*
X25570D01*
X25520Y73648D01*
Y73748D01*
X25570Y73798D01*
X25669D01*
X25719Y73748D01*
Y73698D01*
X25520D01*
X26319Y73898D02*
X26119D01*
Y73598D01*
X26319D01*
X26119Y73748D02*
X26219D01*
X26419Y73598D02*
X26519D01*
X26469D01*
Y73898D01*
X26419D01*
X26819Y73598D02*
X26719D01*
X26669Y73648D01*
Y73748D01*
X26719Y73798D01*
X26819D01*
X26869Y73748D01*
Y73698D01*
X26669D01*
X27169Y73798D02*
X27019D01*
X26969Y73748D01*
Y73648D01*
X27019Y73598D01*
X27169D01*
X27319Y73848D02*
Y73798D01*
X27269D01*
X27369D01*
X27319D01*
Y73648D01*
X27369Y73598D01*
X27519Y73798D02*
Y73598D01*
Y73698D01*
X27569Y73748D01*
X27619Y73798D01*
X27669D01*
X27819Y73598D02*
X27919D01*
X27869D01*
Y73798D01*
X27819D01*
X28269D02*
X28119D01*
X28069Y73748D01*
Y73648D01*
X28119Y73598D01*
X28269D01*
X28419Y73798D02*
X28519D01*
X28569Y73748D01*
Y73598D01*
X28419D01*
X28369Y73648D01*
X28419Y73698D01*
X28569D01*
X28669Y73598D02*
X28768D01*
X28719D01*
Y73898D01*
X28669D01*
X29418Y73848D02*
X29368Y73898D01*
X29268D01*
X29218Y73848D01*
Y73798D01*
X29268Y73748D01*
X29368D01*
X29418Y73698D01*
Y73648D01*
X29368Y73598D01*
X29268D01*
X29218Y73648D01*
X29518Y73798D02*
Y73648D01*
X29568Y73598D01*
X29618Y73648D01*
X29668Y73598D01*
X29718Y73648D01*
Y73798D01*
X29818Y73598D02*
X29918D01*
X29868D01*
Y73798D01*
X29818D01*
X30118Y73848D02*
Y73798D01*
X30068D01*
X30168D01*
X30118D01*
Y73648D01*
X30168Y73598D01*
X30518Y73798D02*
X30368D01*
X30318Y73748D01*
Y73648D01*
X30368Y73598D01*
X30518D01*
X30618Y73898D02*
Y73598D01*
Y73748D01*
X30668Y73798D01*
X30768D01*
X30818Y73748D01*
Y73598D01*
X24170Y73070D02*
X24070Y73170D01*
Y73270D01*
X24170Y73370D01*
X24320Y73070D02*
Y73370D01*
X24470D01*
X24520Y73320D01*
Y73220D01*
X24470Y73170D01*
X24320D01*
X24670Y73070D02*
X24770D01*
X24820Y73120D01*
Y73220D01*
X24770Y73270D01*
X24670D01*
X24620Y73220D01*
Y73120D01*
X24670Y73070D01*
X24920Y73270D02*
Y73070D01*
Y73170D01*
X24970Y73220D01*
X25020Y73270D01*
X25070D01*
X25270Y73320D02*
Y73270D01*
X25220D01*
X25320D01*
X25270D01*
Y73120D01*
X25320Y73070D01*
X25470D02*
X25570Y73170D01*
Y73270D01*
X25470Y73370D01*
X24000Y71528D02*
Y71828D01*
X24150D01*
X24200Y71778D01*
Y71678D01*
X24150Y71628D01*
X24000D01*
X24100D02*
X24200Y71528D01*
X24450D02*
X24350D01*
X24300Y71578D01*
Y71678D01*
X24350Y71728D01*
X24450D01*
X24500Y71678D01*
Y71628D01*
X24300D01*
X24600Y71528D02*
Y71728D01*
X24650D01*
X24700Y71678D01*
Y71528D01*
Y71678D01*
X24750Y71728D01*
X24800Y71678D01*
Y71528D01*
X24950D02*
X25050D01*
X25100Y71578D01*
Y71678D01*
X25050Y71728D01*
X24950D01*
X24900Y71678D01*
Y71578D01*
X24950Y71528D01*
X25250Y71778D02*
Y71728D01*
X25200D01*
X25300D01*
X25250D01*
Y71578D01*
X25300Y71528D01*
X25599D02*
X25500D01*
X25450Y71578D01*
Y71678D01*
X25500Y71728D01*
X25599D01*
X25649Y71678D01*
Y71628D01*
X25450D01*
X26049Y71528D02*
Y71828D01*
X26149Y71728D01*
X26249Y71828D01*
Y71528D01*
X26399Y71728D02*
X26499D01*
X26549Y71678D01*
Y71528D01*
X26399D01*
X26349Y71578D01*
X26399Y71628D01*
X26549D01*
X26649Y71528D02*
X26799D01*
X26849Y71578D01*
X26799Y71628D01*
X26699D01*
X26649Y71678D01*
X26699Y71728D01*
X26849D01*
X26999Y71778D02*
Y71728D01*
X26949D01*
X27049D01*
X26999D01*
Y71578D01*
X27049Y71528D01*
X27349D02*
X27249D01*
X27199Y71578D01*
Y71678D01*
X27249Y71728D01*
X27349D01*
X27399Y71678D01*
Y71628D01*
X27199D01*
X27499Y71728D02*
Y71528D01*
Y71628D01*
X27549Y71678D01*
X27599Y71728D01*
X27649D01*
X28299Y71778D02*
X28249Y71828D01*
X28149D01*
X28099Y71778D01*
Y71728D01*
X28149Y71678D01*
X28249D01*
X28299Y71628D01*
Y71578D01*
X28249Y71528D01*
X28149D01*
X28099Y71578D01*
X28399Y71728D02*
Y71578D01*
X28449Y71528D01*
X28499Y71578D01*
X28549Y71528D01*
X28599Y71578D01*
Y71728D01*
X28698Y71528D02*
X28798D01*
X28748D01*
Y71728D01*
X28698D01*
X28998Y71778D02*
Y71728D01*
X28948D01*
X29048D01*
X28998D01*
Y71578D01*
X29048Y71528D01*
X29398Y71728D02*
X29248D01*
X29198Y71678D01*
Y71578D01*
X29248Y71528D01*
X29398D01*
X29498Y71828D02*
Y71528D01*
Y71678D01*
X29548Y71728D01*
X29648D01*
X29698Y71678D01*
Y71528D01*
X24100Y71000D02*
X24000Y71100D01*
Y71200D01*
X24100Y71300D01*
X24250Y71000D02*
Y71300D01*
X24400D01*
X24450Y71250D01*
Y71150D01*
X24400Y71100D01*
X24250D01*
X24600Y71000D02*
X24700D01*
X24750Y71050D01*
Y71150D01*
X24700Y71200D01*
X24600D01*
X24550Y71150D01*
Y71050D01*
X24600Y71000D01*
X24850Y71200D02*
Y71000D01*
Y71100D01*
X24900Y71150D01*
X24950Y71200D01*
X25000D01*
X25200Y71250D02*
Y71200D01*
X25150D01*
X25250D01*
X25200D01*
Y71050D01*
X25250Y71000D01*
X25400D02*
X25500Y71100D01*
Y71200D01*
X25400Y71300D01*
X24200Y68300D02*
X24000D01*
Y68000D01*
X24200D01*
X24000Y68150D02*
X24100D01*
X24300Y68000D02*
X24400D01*
X24350D01*
Y68300D01*
X24300D01*
X24700Y68000D02*
X24600D01*
X24550Y68050D01*
Y68150D01*
X24600Y68200D01*
X24700D01*
X24750Y68150D01*
Y68100D01*
X24550D01*
X25050Y68200D02*
X24900D01*
X24850Y68150D01*
Y68050D01*
X24900Y68000D01*
X25050D01*
X25150D02*
Y68050D01*
X25200D01*
Y68000D01*
X25150D01*
X25899Y68250D02*
X25849Y68300D01*
X25749D01*
X25699Y68250D01*
Y68200D01*
X25749Y68150D01*
X25849D01*
X25899Y68100D01*
Y68050D01*
X25849Y68000D01*
X25749D01*
X25699Y68050D01*
X25999Y68300D02*
Y68000D01*
Y68150D01*
X26199D01*
Y68300D01*
Y68000D01*
X26299Y68300D02*
Y68000D01*
X26449D01*
X26499Y68050D01*
Y68250D01*
X26449Y68300D01*
X26299D01*
X26599Y68000D02*
Y68300D01*
X26799Y68000D01*
Y68300D01*
X27349D02*
X27249D01*
X27199Y68250D01*
Y68050D01*
X27249Y68000D01*
X27349D01*
X27399Y68050D01*
Y68250D01*
X27349Y68300D01*
X27499Y68200D02*
Y68050D01*
X27549Y68000D01*
X27699D01*
Y68200D01*
X27849Y68250D02*
Y68200D01*
X27799D01*
X27899D01*
X27849D01*
Y68050D01*
X27899Y68000D01*
X28049Y67900D02*
Y68200D01*
X28199D01*
X28249Y68150D01*
Y68050D01*
X28199Y68000D01*
X28049D01*
X28349Y68200D02*
Y68050D01*
X28399Y68000D01*
X28549D01*
Y68200D01*
X28698Y68250D02*
Y68200D01*
X28649D01*
X28748D01*
X28698D01*
Y68050D01*
X28748Y68000D01*
D25*
X36900Y27400D02*
X38700D01*
X36900Y26800D02*
Y28000D01*
Y28214D02*
X38700D01*
X37843D02*
X37586Y28471D01*
X37500Y28642D01*
Y28900D01*
X37586Y29071D01*
X37843Y29157D01*
X38700D01*
X37500Y29628D02*
X38700D01*
X38014D02*
X37757Y29714D01*
X37586Y29885D01*
X37500Y30056D01*
Y30314D01*
Y30476D02*
X38357D01*
X38614Y30562D01*
X38700Y30733D01*
Y30991D01*
X38614Y31162D01*
X38357Y31419D01*
X37500D02*
X38700D01*
X37757Y32833D02*
X37586Y32747D01*
X37500Y32490D01*
Y32233D01*
X37586Y31976D01*
X37757Y31890D01*
X37929Y31976D01*
X38014Y32147D01*
X38100Y32576D01*
X38186Y32747D01*
X38357Y32833D01*
X38443D01*
X38614Y32747D01*
X38700Y32490D01*
Y32233D01*
X38614Y31976D01*
X38443Y31890D01*
X36900Y33467D02*
X38357D01*
X38614Y33553D01*
X38700Y33724D01*
Y33896D01*
X37500Y33210D02*
Y33810D01*
X38014Y34153D02*
Y35181D01*
X37843D01*
X37672Y35095D01*
X37586Y35010D01*
X37500Y34838D01*
Y34581D01*
X37586Y34410D01*
X37757Y34238D01*
X38014Y34153D01*
X38186D01*
X38443Y34238D01*
X38614Y34410D01*
X38700Y34581D01*
Y34838D01*
X38614Y35010D01*
X38443Y35181D01*
X37500Y35567D02*
X38700D01*
X38014D02*
X37757Y35652D01*
X37586Y35824D01*
X37500Y35995D01*
Y36252D01*
X36900Y37829D02*
X38700D01*
X36900D02*
Y38600D01*
X36986Y38857D01*
X37072Y38943D01*
X37243Y39029D01*
X37415D01*
X37586Y38943D01*
X37672Y38857D01*
X37757Y38600D01*
Y37829D02*
Y38600D01*
X37843Y38857D01*
X37929Y38943D01*
X38100Y39029D01*
X38357D01*
X38529Y38943D01*
X38614Y38857D01*
X38700Y38600D01*
Y37829D01*
X37500Y39860D02*
X37586Y39689D01*
X37757Y39517D01*
X38014Y39432D01*
X38186D01*
X38443Y39517D01*
X38614Y39689D01*
X38700Y39860D01*
Y40117D01*
X38614Y40289D01*
X38443Y40460D01*
X38186Y40546D01*
X38014D01*
X37757Y40460D01*
X37586Y40289D01*
X37500Y40117D01*
Y39860D01*
Y41968D02*
X38700D01*
X37757D02*
X37586Y41797D01*
X37500Y41625D01*
Y41368D01*
X37586Y41197D01*
X37757Y41026D01*
X38014Y40940D01*
X38186D01*
X38443Y41026D01*
X38614Y41197D01*
X38700Y41368D01*
Y41625D01*
X38614Y41797D01*
X38443Y41968D01*
X37500Y42448D02*
X38700D01*
X38014D02*
X37757Y42534D01*
X37586Y42705D01*
X37500Y42877D01*
Y43134D01*
X36900Y44325D02*
X38700D01*
X37757D02*
X37586Y44153D01*
X37500Y43982D01*
Y43725D01*
X37586Y43554D01*
X37757Y43382D01*
X38014Y43296D01*
X38186D01*
X38443Y43382D01*
X38614Y43554D01*
X38700Y43725D01*
Y43982D01*
X38614Y44153D01*
X38443Y44325D01*
X45157Y36000D02*
X44986Y35828D01*
X44900Y35571D01*
Y35228D01*
X44986Y34971D01*
X45157Y34800D01*
X45329D01*
X45500Y34886D01*
X45586Y34971D01*
X45672Y35143D01*
X45843Y35657D01*
X45929Y35828D01*
X46014Y35914D01*
X46186Y36000D01*
X46443D01*
X46614Y35828D01*
X46700Y35571D01*
Y35228D01*
X46614Y34971D01*
X46443Y34800D01*
X46014Y36403D02*
Y37431D01*
X45843D01*
X45672Y37345D01*
X45586Y37259D01*
X45500Y37088D01*
Y36831D01*
X45586Y36660D01*
X45757Y36488D01*
X46014Y36403D01*
X46186D01*
X46443Y36488D01*
X46614Y36660D01*
X46700Y36831D01*
Y37088D01*
X46614Y37259D01*
X46443Y37431D01*
X45500Y37817D02*
X46700D01*
X45843D02*
X45586Y38074D01*
X45500Y38245D01*
Y38502D01*
X45586Y38673D01*
X45843Y38759D01*
X46700D01*
X45757Y40173D02*
X45586Y40087D01*
X45500Y39830D01*
Y39573D01*
X45586Y39316D01*
X45757Y39230D01*
X45929Y39316D01*
X46014Y39488D01*
X46100Y39916D01*
X46186Y40087D01*
X46357Y40173D01*
X46443D01*
X46614Y40087D01*
X46700Y39830D01*
Y39573D01*
X46614Y39316D01*
X46443Y39230D01*
X45500Y40979D02*
X45586Y40807D01*
X45757Y40636D01*
X46014Y40550D01*
X46186D01*
X46443Y40636D01*
X46614Y40807D01*
X46700Y40979D01*
Y41236D01*
X46614Y41407D01*
X46443Y41579D01*
X46186Y41664D01*
X46014D01*
X45757Y41579D01*
X45586Y41407D01*
X45500Y41236D01*
Y40979D01*
Y42058D02*
X46700D01*
X46014D02*
X45757Y42144D01*
X45586Y42316D01*
X45500Y42487D01*
Y42744D01*
X44900Y44321D02*
X46700D01*
X44900D02*
Y45092D01*
X44986Y45349D01*
X45072Y45435D01*
X45243Y45521D01*
X45415D01*
X45586Y45435D01*
X45672Y45349D01*
X45757Y45092D01*
Y44321D02*
Y45092D01*
X45843Y45349D01*
X45929Y45435D01*
X46100Y45521D01*
X46357D01*
X46529Y45435D01*
X46614Y45349D01*
X46700Y45092D01*
Y44321D01*
X45500Y46352D02*
X45586Y46180D01*
X45757Y46009D01*
X46014Y45923D01*
X46186D01*
X46443Y46009D01*
X46614Y46180D01*
X46700Y46352D01*
Y46609D01*
X46614Y46780D01*
X46443Y46952D01*
X46186Y47037D01*
X46014D01*
X45757Y46952D01*
X45586Y46780D01*
X45500Y46609D01*
Y46352D01*
Y48460D02*
X46700D01*
X45757D02*
X45586Y48289D01*
X45500Y48117D01*
Y47860D01*
X45586Y47689D01*
X45757Y47517D01*
X46014Y47432D01*
X46186D01*
X46443Y47517D01*
X46614Y47689D01*
X46700Y47860D01*
Y48117D01*
X46614Y48289D01*
X46443Y48460D01*
X45500Y48940D02*
X46700D01*
X46014D02*
X45757Y49026D01*
X45586Y49197D01*
X45500Y49368D01*
Y49625D01*
X44900Y50817D02*
X46700D01*
X45757D02*
X45586Y50645D01*
X45500Y50474D01*
Y50217D01*
X45586Y50045D01*
X45757Y49874D01*
X46014Y49788D01*
X46186D01*
X46443Y49874D01*
X46614Y50045D01*
X46700Y50217D01*
Y50474D01*
X46614Y50645D01*
X46443Y50817D01*
X2700Y83000D02*
X1843Y81200D01*
X1500Y83000D02*
X2700D01*
X3188Y81371D02*
X3103Y81286D01*
X3188Y81200D01*
X3274Y81286D01*
X3188Y81371D01*
X3754Y82571D02*
Y82657D01*
X3839Y82828D01*
X3925Y82914D01*
X4097Y83000D01*
X4439D01*
X4611Y82914D01*
X4696Y82828D01*
X4782Y82657D01*
Y82485D01*
X4696Y82314D01*
X4525Y82057D01*
X3668Y81200D01*
X4868D01*
X6685Y82400D02*
X7627Y81200D01*
Y82400D02*
X6685Y81200D01*
X9847Y83000D02*
X9590Y82914D01*
X9504Y82743D01*
Y82571D01*
X9590Y82400D01*
X9761Y82314D01*
X10104Y82228D01*
X10361Y82143D01*
X10532Y81971D01*
X10618Y81800D01*
Y81543D01*
X10532Y81371D01*
X10447Y81286D01*
X10190Y81200D01*
X9847D01*
X9590Y81286D01*
X9504Y81371D01*
X9418Y81543D01*
Y81800D01*
X9504Y81971D01*
X9675Y82143D01*
X9932Y82228D01*
X10275Y82314D01*
X10447Y82400D01*
X10532Y82571D01*
Y82743D01*
X10447Y82914D01*
X10190Y83000D01*
X9847D01*
X11107Y81371D02*
X11021Y81286D01*
X11107Y81200D01*
X11192Y81286D01*
X11107Y81371D01*
X12101Y83000D02*
X11844Y82914D01*
X11672Y82657D01*
X11586Y82228D01*
Y81971D01*
X11672Y81543D01*
X11844Y81286D01*
X12101Y81200D01*
X12272D01*
X12529Y81286D01*
X12700Y81543D01*
X12786Y81971D01*
Y82228D01*
X12700Y82657D01*
X12529Y82914D01*
X12272Y83000D01*
X12101D01*
X14774D02*
X14860Y82914D01*
X14946Y83000D01*
X14860Y83085D01*
X14774Y83000D01*
X14860Y82400D02*
Y81200D01*
X15263Y82400D02*
Y81200D01*
Y82057D02*
X15520Y82314D01*
X15691Y82400D01*
X15948D01*
X16120Y82314D01*
X16205Y82057D01*
Y81200D01*
X17705Y82143D02*
X17534Y82314D01*
X17362Y82400D01*
X17105D01*
X16934Y82314D01*
X16762Y82143D01*
X16677Y81886D01*
Y81714D01*
X16762Y81457D01*
X16934Y81286D01*
X17105Y81200D01*
X17362D01*
X17534Y81286D01*
X17705Y81457D01*
X18091Y83000D02*
Y81200D01*
Y82057D02*
X18348Y82314D01*
X18519Y82400D01*
X18776D01*
X18948Y82314D01*
X19033Y82057D01*
Y81200D01*
X4500Y23357D02*
X5271D01*
X5528Y23443D01*
X5614Y23528D01*
X5700Y23700D01*
Y23957D01*
X5614Y24128D01*
X5528Y24214D01*
X5271Y24300D01*
X4500D01*
Y22500D01*
X6531Y23700D02*
X6360Y23614D01*
X6188Y23443D01*
X6103Y23186D01*
Y23014D01*
X6188Y22757D01*
X6360Y22586D01*
X6531Y22500D01*
X6788D01*
X6959Y22586D01*
X7131Y22757D01*
X7217Y23014D01*
Y23186D01*
X7131Y23443D01*
X6959Y23614D01*
X6788Y23700D01*
X6531D01*
X7611D02*
X7954Y22500D01*
X8296Y23700D02*
X7954Y22500D01*
X8296Y23700D02*
X8639Y22500D01*
X8982Y23700D02*
X8639Y22500D01*
X9402Y23186D02*
X10430D01*
Y23357D01*
X10344Y23528D01*
X10259Y23614D01*
X10087Y23700D01*
X9830D01*
X9659Y23614D01*
X9488Y23443D01*
X9402Y23186D01*
Y23014D01*
X9488Y22757D01*
X9659Y22586D01*
X9830Y22500D01*
X10087D01*
X10259Y22586D01*
X10430Y22757D01*
X10816Y23700D02*
Y22500D01*
Y23186D02*
X10901Y23443D01*
X11073Y23614D01*
X11244Y23700D01*
X11501D01*
X58957Y47200D02*
X58786Y47028D01*
X58700Y46771D01*
Y46428D01*
X58786Y46171D01*
X58957Y46000D01*
X59129D01*
X59300Y46086D01*
X59386Y46171D01*
X59472Y46343D01*
X59643Y46857D01*
X59729Y47028D01*
X59814Y47114D01*
X59986Y47200D01*
X60243D01*
X60414Y47028D01*
X60500Y46771D01*
Y46428D01*
X60414Y46171D01*
X60243Y46000D01*
X59814Y47603D02*
Y48631D01*
X59643D01*
X59472Y48545D01*
X59386Y48459D01*
X59300Y48288D01*
Y48031D01*
X59386Y47860D01*
X59557Y47688D01*
X59814Y47603D01*
X59986D01*
X60243Y47688D01*
X60414Y47860D01*
X60500Y48031D01*
Y48288D01*
X60414Y48459D01*
X60243Y48631D01*
X59300Y49016D02*
X60500D01*
X59814D02*
X59557Y49102D01*
X59386Y49274D01*
X59300Y49445D01*
Y49702D01*
X58700Y50036D02*
X58786Y50122D01*
X58700Y50208D01*
X58615Y50122D01*
X58700Y50036D01*
X59300Y50122D02*
X60500D01*
X59300Y51553D02*
X60500D01*
X59557D02*
X59386Y51382D01*
X59300Y51210D01*
Y50953D01*
X59386Y50782D01*
X59557Y50610D01*
X59814Y50525D01*
X59986D01*
X60243Y50610D01*
X60414Y50782D01*
X60500Y50953D01*
Y51210D01*
X60414Y51382D01*
X60243Y51553D01*
X58700Y52033D02*
X60500D01*
X58700Y53824D02*
X60500D01*
X58700D02*
Y54595D01*
X58786Y54852D01*
X58872Y54938D01*
X59043Y55024D01*
X59215D01*
X59386Y54938D01*
X59472Y54852D01*
X59557Y54595D01*
Y53824D02*
Y54595D01*
X59643Y54852D01*
X59729Y54938D01*
X59900Y55024D01*
X60157D01*
X60329Y54938D01*
X60414Y54852D01*
X60500Y54595D01*
Y53824D01*
X59300Y55855D02*
X59386Y55684D01*
X59557Y55512D01*
X59814Y55427D01*
X59986D01*
X60243Y55512D01*
X60414Y55684D01*
X60500Y55855D01*
Y56112D01*
X60414Y56284D01*
X60243Y56455D01*
X59986Y56541D01*
X59814D01*
X59557Y56455D01*
X59386Y56284D01*
X59300Y56112D01*
Y55855D01*
Y57963D02*
X60500D01*
X59557D02*
X59386Y57792D01*
X59300Y57620D01*
Y57363D01*
X59386Y57192D01*
X59557Y57021D01*
X59814Y56935D01*
X59986D01*
X60243Y57021D01*
X60414Y57192D01*
X60500Y57363D01*
Y57620D01*
X60414Y57792D01*
X60243Y57963D01*
X59300Y58443D02*
X60500D01*
X59814D02*
X59557Y58529D01*
X59386Y58700D01*
X59300Y58872D01*
Y59129D01*
X58700Y60320D02*
X60500D01*
X59557D02*
X59386Y60148D01*
X59300Y59977D01*
Y59720D01*
X59386Y59549D01*
X59557Y59377D01*
X59814Y59291D01*
X59986D01*
X60243Y59377D01*
X60414Y59549D01*
X60500Y59720D01*
Y59977D01*
X60414Y60148D01*
X60243Y60320D01*
X16143Y39000D02*
Y39771D01*
X16057Y40028D01*
X15972Y40114D01*
X15800Y40200D01*
X15543D01*
X15372Y40114D01*
X15286Y40028D01*
X15200Y39771D01*
Y39000D01*
X17000D01*
X15800Y41031D02*
X15886Y40860D01*
X16057Y40688D01*
X16314Y40603D01*
X16486D01*
X16743Y40688D01*
X16914Y40860D01*
X17000Y41031D01*
Y41288D01*
X16914Y41459D01*
X16743Y41631D01*
X16486Y41717D01*
X16314D01*
X16057Y41631D01*
X15886Y41459D01*
X15800Y41288D01*
Y41031D01*
Y42111D02*
X17000Y42454D01*
X15800Y42796D02*
X17000Y42454D01*
X15800Y42796D02*
X17000Y43139D01*
X15800Y43482D02*
X17000Y43139D01*
X16314Y43902D02*
Y44930D01*
X16143D01*
X15972Y44844D01*
X15886Y44759D01*
X15800Y44587D01*
Y44330D01*
X15886Y44159D01*
X16057Y43987D01*
X16314Y43902D01*
X16486D01*
X16743Y43987D01*
X16914Y44159D01*
X17000Y44330D01*
Y44587D01*
X16914Y44759D01*
X16743Y44930D01*
X15800Y45316D02*
X17000D01*
X16314D02*
X16057Y45401D01*
X15886Y45573D01*
X15800Y45744D01*
Y46001D01*
X15200Y47578D02*
X17000D01*
X15200D02*
Y48349D01*
X15286Y48607D01*
X15372Y48692D01*
X15543Y48778D01*
X15715D01*
X15886Y48692D01*
X15972Y48607D01*
X16057Y48349D01*
Y47578D02*
Y48349D01*
X16143Y48607D01*
X16229Y48692D01*
X16400Y48778D01*
X16657D01*
X16829Y48692D01*
X16914Y48607D01*
X17000Y48349D01*
Y47578D01*
X15800Y49609D02*
X15886Y49438D01*
X16057Y49266D01*
X16314Y49181D01*
X16486D01*
X16743Y49266D01*
X16914Y49438D01*
X17000Y49609D01*
Y49866D01*
X16914Y50038D01*
X16743Y50209D01*
X16486Y50295D01*
X16314D01*
X16057Y50209D01*
X15886Y50038D01*
X15800Y49866D01*
Y49609D01*
Y51717D02*
X17000D01*
X16057D02*
X15886Y51546D01*
X15800Y51374D01*
Y51117D01*
X15886Y50946D01*
X16057Y50775D01*
X16314Y50689D01*
X16486D01*
X16743Y50775D01*
X16914Y50946D01*
X17000Y51117D01*
Y51374D01*
X16914Y51546D01*
X16743Y51717D01*
X15800Y52197D02*
X17000D01*
X16314D02*
X16057Y52283D01*
X15886Y52454D01*
X15800Y52626D01*
Y52883D01*
X15200Y54074D02*
X17000D01*
X16057D02*
X15886Y53903D01*
X15800Y53731D01*
Y53474D01*
X15886Y53303D01*
X16057Y53131D01*
X16314Y53046D01*
X16486D01*
X16743Y53131D01*
X16914Y53303D01*
X17000Y53474D01*
Y53731D01*
X16914Y53903D01*
X16743Y54074D01*
X6629Y48785D02*
X6457Y48700D01*
X6286Y48528D01*
X6200Y48357D01*
Y48014D01*
X6286Y47843D01*
X6457Y47671D01*
X6629Y47586D01*
X6886Y47500D01*
X7314D01*
X7572Y47586D01*
X7743Y47671D01*
X7914Y47843D01*
X8000Y48014D01*
Y48357D01*
X7914Y48528D01*
X7743Y48700D01*
X7572Y48785D01*
X6800Y49720D02*
X6886Y49548D01*
X7057Y49377D01*
X7314Y49291D01*
X7486D01*
X7743Y49377D01*
X7914Y49548D01*
X8000Y49720D01*
Y49977D01*
X7914Y50148D01*
X7743Y50319D01*
X7486Y50405D01*
X7314D01*
X7057Y50319D01*
X6886Y50148D01*
X6800Y49977D01*
Y49720D01*
Y50799D02*
X8000D01*
X7143D02*
X6886Y51056D01*
X6800Y51228D01*
Y51485D01*
X6886Y51656D01*
X7143Y51742D01*
X8000D01*
X6800Y52213D02*
X8000Y52727D01*
X6800Y53242D02*
X8000Y52727D01*
X7314Y53533D02*
Y54561D01*
X7143D01*
X6972Y54476D01*
X6886Y54390D01*
X6800Y54219D01*
Y53961D01*
X6886Y53790D01*
X7057Y53619D01*
X7314Y53533D01*
X7486D01*
X7743Y53619D01*
X7914Y53790D01*
X8000Y53961D01*
Y54219D01*
X7914Y54390D01*
X7743Y54561D01*
X6800Y54947D02*
X8000D01*
X7314D02*
X7057Y55033D01*
X6886Y55204D01*
X6800Y55375D01*
Y55633D01*
X7057Y56738D02*
X6886Y56652D01*
X6800Y56395D01*
Y56138D01*
X6886Y55881D01*
X7057Y55795D01*
X7229Y55881D01*
X7314Y56052D01*
X7400Y56481D01*
X7486Y56652D01*
X7657Y56738D01*
X7743D01*
X7914Y56652D01*
X8000Y56395D01*
Y56138D01*
X7914Y55881D01*
X7743Y55795D01*
X6200Y57286D02*
X6286Y57372D01*
X6200Y57458D01*
X6115Y57372D01*
X6200Y57286D01*
X6800Y57372D02*
X8000D01*
X6800Y58203D02*
X6886Y58032D01*
X7057Y57861D01*
X7314Y57775D01*
X7486D01*
X7743Y57861D01*
X7914Y58032D01*
X8000Y58203D01*
Y58461D01*
X7914Y58632D01*
X7743Y58803D01*
X7486Y58889D01*
X7314D01*
X7057Y58803D01*
X6886Y58632D01*
X6800Y58461D01*
Y58203D01*
Y59283D02*
X8000D01*
X7143D02*
X6886Y59540D01*
X6800Y59712D01*
Y59969D01*
X6886Y60140D01*
X7143Y60226D01*
X8000D01*
X6200Y62111D02*
X8000D01*
X6200D02*
Y62882D01*
X6286Y63140D01*
X6372Y63225D01*
X6543Y63311D01*
X6715D01*
X6886Y63225D01*
X6972Y63140D01*
X7057Y62882D01*
Y62111D02*
Y62882D01*
X7143Y63140D01*
X7229Y63225D01*
X7400Y63311D01*
X7657D01*
X7829Y63225D01*
X7914Y63140D01*
X8000Y62882D01*
Y62111D01*
X6800Y64142D02*
X6886Y63971D01*
X7057Y63799D01*
X7314Y63714D01*
X7486D01*
X7743Y63799D01*
X7914Y63971D01*
X8000Y64142D01*
Y64399D01*
X7914Y64571D01*
X7743Y64742D01*
X7486Y64828D01*
X7314D01*
X7057Y64742D01*
X6886Y64571D01*
X6800Y64399D01*
Y64142D01*
Y66250D02*
X8000D01*
X7057D02*
X6886Y66079D01*
X6800Y65907D01*
Y65650D01*
X6886Y65479D01*
X7057Y65308D01*
X7314Y65222D01*
X7486D01*
X7743Y65308D01*
X7914Y65479D01*
X8000Y65650D01*
Y65907D01*
X7914Y66079D01*
X7743Y66250D01*
X6800Y66730D02*
X8000D01*
X7314D02*
X7057Y66816D01*
X6886Y66987D01*
X6800Y67159D01*
Y67416D01*
X6200Y68607D02*
X8000D01*
X7057D02*
X6886Y68436D01*
X6800Y68264D01*
Y68007D01*
X6886Y67836D01*
X7057Y67664D01*
X7314Y67579D01*
X7486D01*
X7743Y67664D01*
X7914Y67836D01*
X8000Y68007D01*
Y68264D01*
X7914Y68436D01*
X7743Y68607D01*
M02*
