G04 Layer_Physical_Order=1*
G04 Layer_Color=255*
%FSLAX24Y24*%
%MOIN*%
G70*
G01*
G75*
%ADD10R,0.0748X0.0256*%
%ADD11R,0.1500X0.0620*%
%ADD12C,0.0200*%
%ADD13C,0.0400*%
%ADD14C,0.1000*%
%ADD15C,0.0100*%
%ADD16C,0.0600*%
%ADD17C,0.0799*%
%ADD18C,0.0950*%
%ADD19C,0.0644*%
%ADD20R,0.0644X0.0644*%
%ADD21C,0.0650*%
%ADD22C,0.0290*%
G36*
X23000Y29000D02*
X24000D01*
Y26500D01*
X19000Y26500D01*
Y40500D01*
X23000D01*
Y29000D01*
D02*
G37*
G36*
X26898Y40958D02*
X26898Y35000D01*
X26906Y34961D01*
X26928Y34928D01*
X26961Y34906D01*
X27000Y34898D01*
X27000Y29500D01*
X29000D01*
Y26500D01*
X24152Y26500D01*
X24102Y26550D01*
Y29000D01*
X24094Y29039D01*
X24072Y29072D01*
X24039Y29094D01*
X24000Y29102D01*
X23102D01*
Y40500D01*
X23094Y40539D01*
X23072Y40572D01*
X23039Y40594D01*
X23000Y40602D01*
X19000D01*
Y44500D01*
X23356Y44500D01*
X26898Y40958D01*
D02*
G37*
G36*
X33306Y33000D02*
X33319Y32993D01*
X33432Y32959D01*
X33550Y32947D01*
X36100D01*
Y29900D01*
X35100D01*
Y30500D01*
X27102D01*
X27102Y33000D01*
X33306Y33000D01*
D02*
G37*
G36*
X22800Y49200D02*
X24906Y47094D01*
X24912Y47066D01*
X24956Y47000D01*
X31500Y40456D01*
X31500Y35000D01*
X27000D01*
X27000Y41000D01*
X22503Y45497D01*
X22504Y45500D01*
X22487Y45630D01*
X22436Y45752D01*
X22356Y45856D01*
X22252Y45936D01*
X22130Y45987D01*
X22000Y46004D01*
X21870Y45987D01*
X21748Y45936D01*
X21644Y45856D01*
X21602Y45803D01*
X20398D01*
X20356Y45856D01*
X20252Y45936D01*
X20130Y45987D01*
X20000Y46004D01*
X19870Y45987D01*
X19748Y45936D01*
X19644Y45856D01*
X19602Y45803D01*
X19000D01*
X19000Y50200D01*
X22800D01*
Y49200D01*
D02*
G37*
G36*
X29500Y16500D02*
X24500D01*
Y25000D01*
X29500D01*
Y16500D01*
D02*
G37*
G36*
X24000D02*
X20000Y16500D01*
Y17075D01*
X20010Y17100D01*
X20030Y17250D01*
X20010Y17400D01*
X20000Y17425D01*
X20000Y18325D01*
X20010Y18350D01*
X20030Y18500D01*
X20010Y18650D01*
X20000Y18675D01*
Y18700D01*
X19990D01*
X19952Y18790D01*
X19860Y18910D01*
X19740Y19002D01*
X19600Y19060D01*
X19500Y19073D01*
X19500Y25000D01*
X24000D01*
Y16500D01*
D02*
G37*
%LPC*%
G36*
X26460Y27800D02*
X25810D01*
Y27590D01*
X26460D01*
Y27800D01*
D02*
G37*
G36*
X27800D02*
X27150D01*
Y27590D01*
X27800D01*
Y27800D01*
D02*
G37*
G36*
X20410Y28410D02*
X19760D01*
Y28200D01*
X20410D01*
Y28410D01*
D02*
G37*
G36*
X22800D02*
X22150D01*
Y28200D01*
X22800D01*
Y28410D01*
D02*
G37*
G36*
X28850Y27800D02*
X28200D01*
Y27590D01*
X28850D01*
Y27800D01*
D02*
G37*
G36*
X25410D02*
X24760D01*
Y27590D01*
X25410D01*
Y27800D01*
D02*
G37*
G36*
X20410D02*
X19760D01*
Y27590D01*
X20410D01*
Y27800D01*
D02*
G37*
G36*
X28850Y24510D02*
X28200D01*
Y24300D01*
X28850D01*
Y24510D01*
D02*
G37*
G36*
X26460D02*
X25810D01*
Y24300D01*
X26460D01*
Y24510D01*
D02*
G37*
G36*
X23850Y27800D02*
X23200D01*
Y27590D01*
X23850D01*
Y27800D01*
D02*
G37*
G36*
X22800D02*
X22150D01*
Y27590D01*
X22800D01*
Y27800D01*
D02*
G37*
G36*
X21460D02*
X20810D01*
Y27590D01*
X21460D01*
Y27800D01*
D02*
G37*
G36*
X25410Y28410D02*
X24760D01*
Y28200D01*
X25410D01*
Y28410D01*
D02*
G37*
G36*
X27910Y31800D02*
X27260D01*
Y31590D01*
X27910D01*
Y31800D01*
D02*
G37*
G36*
X35958Y31300D02*
X35700D01*
Y31042D01*
X35752Y31064D01*
X35856Y31144D01*
X35936Y31248D01*
X35958Y31300D01*
D02*
G37*
G36*
X33958D02*
X33700D01*
Y31042D01*
X33752Y31064D01*
X33856Y31144D01*
X33936Y31248D01*
X33958Y31300D01*
D02*
G37*
G36*
X28960Y31800D02*
X28310D01*
Y31590D01*
X28960D01*
Y31800D01*
D02*
G37*
G36*
X33300Y31958D02*
X33248Y31936D01*
X33144Y31856D01*
X33064Y31752D01*
X33042Y31700D01*
X33300D01*
Y31958D01*
D02*
G37*
G36*
X31350Y31800D02*
X30700D01*
Y31590D01*
X31350D01*
Y31800D01*
D02*
G37*
G36*
X30300D02*
X29650D01*
Y31590D01*
X30300D01*
Y31800D01*
D02*
G37*
G36*
X23850Y28410D02*
X23200D01*
Y28200D01*
X23850D01*
Y28410D01*
D02*
G37*
G36*
X21460D02*
X20810D01*
Y28200D01*
X21460D01*
Y28410D01*
D02*
G37*
G36*
X27800D02*
X27150D01*
Y28200D01*
X27800D01*
Y28410D01*
D02*
G37*
G36*
X26460D02*
X25810D01*
Y28200D01*
X26460D01*
Y28410D01*
D02*
G37*
G36*
X35300Y31300D02*
X35042D01*
X35064Y31248D01*
X35144Y31144D01*
X35248Y31064D01*
X35300Y31042D01*
Y31300D01*
D02*
G37*
G36*
X33300D02*
X33042D01*
X33064Y31248D01*
X33144Y31144D01*
X33248Y31064D01*
X33300Y31042D01*
Y31300D01*
D02*
G37*
G36*
X28850Y28410D02*
X28200D01*
Y28200D01*
X28850D01*
Y28410D01*
D02*
G37*
G36*
X25150Y18300D02*
X24810D01*
X24848Y18210D01*
X24940Y18090D01*
X25060Y17998D01*
X25150Y17960D01*
Y18300D01*
D02*
G37*
G36*
X22200D02*
X21860D01*
X21898Y18210D01*
X21990Y18090D01*
X22110Y17998D01*
X22200Y17960D01*
Y18300D01*
D02*
G37*
G36*
X27220Y19293D02*
X27085Y19280D01*
X26955Y19241D01*
X26835Y19176D01*
X26730Y19090D01*
X26644Y18985D01*
X26579Y18865D01*
X26540Y18735D01*
X26527Y18600D01*
X26540Y18465D01*
X26579Y18335D01*
X26644Y18215D01*
X26730Y18110D01*
X26835Y18024D01*
X26955Y17959D01*
X27085Y17920D01*
X27220Y17907D01*
X27355Y17920D01*
X27485Y17959D01*
X27605Y18024D01*
X27710Y18110D01*
X27796Y18215D01*
X27861Y18335D01*
X27900Y18465D01*
X27913Y18600D01*
X27900Y18735D01*
X27861Y18865D01*
X27796Y18985D01*
X27710Y19090D01*
X27605Y19176D01*
X27485Y19241D01*
X27355Y19280D01*
X27220Y19293D01*
D02*
G37*
G36*
X22940Y18300D02*
X22600D01*
Y17960D01*
X22690Y17998D01*
X22810Y18090D01*
X22902Y18210D01*
X22940Y18300D01*
D02*
G37*
G36*
X25150Y19040D02*
X25060Y19002D01*
X24940Y18910D01*
X24848Y18790D01*
X24810Y18700D01*
X25150D01*
Y19040D01*
D02*
G37*
G36*
X22200D02*
X22110Y19002D01*
X21990Y18910D01*
X21898Y18790D01*
X21860Y18700D01*
X22200D01*
Y19040D01*
D02*
G37*
G36*
X25890Y18300D02*
X25550D01*
Y17960D01*
X25640Y17998D01*
X25760Y18090D01*
X25852Y18210D01*
X25890Y18300D01*
D02*
G37*
G36*
X25550Y17790D02*
Y17450D01*
X25890D01*
X25852Y17540D01*
X25760Y17660D01*
X25640Y17752D01*
X25550Y17790D01*
D02*
G37*
G36*
X22940Y17050D02*
X22600D01*
Y16710D01*
X22690Y16748D01*
X22810Y16840D01*
X22902Y16960D01*
X22940Y17050D01*
D02*
G37*
G36*
X25150D02*
X24810D01*
X24848Y16960D01*
X24940Y16840D01*
X25060Y16748D01*
X25150Y16710D01*
Y17050D01*
D02*
G37*
G36*
X22200D02*
X21860D01*
X21898Y16960D01*
X21990Y16840D01*
X22110Y16748D01*
X22200Y16710D01*
Y17050D01*
D02*
G37*
G36*
X25890D02*
X25550D01*
Y16710D01*
X25640Y16748D01*
X25760Y16840D01*
X25852Y16960D01*
X25890Y17050D01*
D02*
G37*
G36*
X22600Y17790D02*
Y17450D01*
X22940D01*
X22902Y17540D01*
X22810Y17660D01*
X22690Y17752D01*
X22600Y17790D01*
D02*
G37*
G36*
X25150D02*
X25060Y17752D01*
X24940Y17660D01*
X24848Y17540D01*
X24810Y17450D01*
X25150D01*
Y17790D01*
D02*
G37*
G36*
X22200D02*
X22110Y17752D01*
X21990Y17660D01*
X21898Y17540D01*
X21860Y17450D01*
X22200D01*
Y17790D01*
D02*
G37*
G36*
X22600Y19040D02*
Y18700D01*
X22940D01*
X22902Y18790D01*
X22810Y18910D01*
X22690Y19002D01*
X22600Y19040D01*
D02*
G37*
G36*
X22800Y24510D02*
X22150D01*
Y24300D01*
X22800D01*
Y24510D01*
D02*
G37*
G36*
X20410D02*
X19760D01*
Y24300D01*
X20410D01*
Y24510D01*
D02*
G37*
G36*
X28850Y23900D02*
X28200D01*
Y23690D01*
X28850D01*
Y23900D01*
D02*
G37*
G36*
X25410Y24510D02*
X24760D01*
Y24300D01*
X25410D01*
Y24510D01*
D02*
G37*
G36*
X23850D02*
X23200D01*
Y24300D01*
X23850D01*
Y24510D01*
D02*
G37*
G36*
X21460D02*
X20810D01*
Y24300D01*
X21460D01*
Y24510D01*
D02*
G37*
G36*
X27800D02*
X27150D01*
Y24300D01*
X27800D01*
Y24510D01*
D02*
G37*
G36*
Y23900D02*
X27150D01*
Y23690D01*
X27800D01*
Y23900D01*
D02*
G37*
G36*
X21460D02*
X20810D01*
Y23690D01*
X21460D01*
Y23900D01*
D02*
G37*
G36*
X20410D02*
X19760D01*
Y23690D01*
X20410D01*
Y23900D01*
D02*
G37*
G36*
X25550Y19040D02*
Y18700D01*
X25890D01*
X25852Y18790D01*
X25760Y18910D01*
X25640Y19002D01*
X25550Y19040D01*
D02*
G37*
G36*
X22800Y23900D02*
X22150D01*
Y23690D01*
X22800D01*
Y23900D01*
D02*
G37*
G36*
X26460D02*
X25810D01*
Y23690D01*
X26460D01*
Y23900D01*
D02*
G37*
G36*
X25410D02*
X24760D01*
Y23690D01*
X25410D01*
Y23900D01*
D02*
G37*
G36*
X23850D02*
X23200D01*
Y23690D01*
X23850D01*
Y23900D01*
D02*
G37*
G36*
X22458Y43300D02*
X22200D01*
Y43042D01*
X22252Y43064D01*
X22356Y43144D01*
X22436Y43248D01*
X22458Y43300D01*
D02*
G37*
G36*
X20458D02*
X20200D01*
Y43042D01*
X20252Y43064D01*
X20356Y43144D01*
X20436Y43248D01*
X20458Y43300D01*
D02*
G37*
G36*
X21800D02*
X21542D01*
X21564Y43248D01*
X21644Y43144D01*
X21748Y43064D01*
X21800Y43042D01*
Y43300D01*
D02*
G37*
G36*
X19800Y43958D02*
X19748Y43936D01*
X19644Y43856D01*
X19564Y43752D01*
X19542Y43700D01*
X19800D01*
Y43958D01*
D02*
G37*
G36*
X22200D02*
Y43700D01*
X22458D01*
X22436Y43752D01*
X22356Y43856D01*
X22252Y43936D01*
X22200Y43958D01*
D02*
G37*
G36*
X20200D02*
Y43700D01*
X20458D01*
X20436Y43752D01*
X20356Y43856D01*
X20252Y43936D01*
X20200Y43958D01*
D02*
G37*
G36*
X21800D02*
X21748Y43936D01*
X21644Y43856D01*
X21564Y43752D01*
X21542Y43700D01*
X21800D01*
Y43958D01*
D02*
G37*
G36*
X19800Y43300D02*
X19542D01*
X19564Y43248D01*
X19644Y43144D01*
X19748Y43064D01*
X19800Y43042D01*
Y43300D01*
D02*
G37*
G36*
X22458Y41300D02*
X22200D01*
Y41042D01*
X22252Y41064D01*
X22356Y41144D01*
X22436Y41248D01*
X22458Y41300D01*
D02*
G37*
G36*
X20458D02*
X20200D01*
Y41042D01*
X20252Y41064D01*
X20356Y41144D01*
X20436Y41248D01*
X20458Y41300D01*
D02*
G37*
G36*
X21800D02*
X21542D01*
X21564Y41248D01*
X21644Y41144D01*
X21748Y41064D01*
X21800Y41042D01*
Y41300D01*
D02*
G37*
G36*
X19800Y41958D02*
X19748Y41936D01*
X19644Y41856D01*
X19564Y41752D01*
X19542Y41700D01*
X19800D01*
Y41958D01*
D02*
G37*
G36*
X22200D02*
Y41700D01*
X22458D01*
X22436Y41752D01*
X22356Y41856D01*
X22252Y41936D01*
X22200Y41958D01*
D02*
G37*
G36*
X20200D02*
Y41700D01*
X20458D01*
X20436Y41752D01*
X20356Y41856D01*
X20252Y41936D01*
X20200Y41958D01*
D02*
G37*
G36*
X21800D02*
X21748Y41936D01*
X21644Y41856D01*
X21564Y41752D01*
X21542Y41700D01*
X21800D01*
Y41958D01*
D02*
G37*
G36*
X19800Y47300D02*
X19542D01*
X19564Y47248D01*
X19644Y47144D01*
X19748Y47064D01*
X19800Y47042D01*
Y47300D01*
D02*
G37*
G36*
X22458Y49300D02*
X22200D01*
Y49042D01*
X22252Y49064D01*
X22356Y49144D01*
X22436Y49248D01*
X22458Y49300D01*
D02*
G37*
G36*
X20458D02*
X20200D01*
Y49042D01*
X20252Y49064D01*
X20356Y49144D01*
X20436Y49248D01*
X20458Y49300D01*
D02*
G37*
G36*
X21800D02*
X21542D01*
X21564Y49248D01*
X21644Y49144D01*
X21748Y49064D01*
X21800Y49042D01*
Y49300D01*
D02*
G37*
G36*
X19800Y49958D02*
X19748Y49936D01*
X19644Y49856D01*
X19564Y49752D01*
X19542Y49700D01*
X19800D01*
Y49958D01*
D02*
G37*
G36*
X22200D02*
Y49700D01*
X22458D01*
X22436Y49752D01*
X22356Y49856D01*
X22252Y49936D01*
X22200Y49958D01*
D02*
G37*
G36*
X20200D02*
Y49700D01*
X20458D01*
X20436Y49752D01*
X20356Y49856D01*
X20252Y49936D01*
X20200Y49958D01*
D02*
G37*
G36*
X21800D02*
X21748Y49936D01*
X21644Y49856D01*
X21564Y49752D01*
X21542Y49700D01*
X21800D01*
Y49958D01*
D02*
G37*
G36*
X19800Y49300D02*
X19542D01*
X19564Y49248D01*
X19644Y49144D01*
X19748Y49064D01*
X19800Y49042D01*
Y49300D01*
D02*
G37*
G36*
X22458Y47300D02*
X22200D01*
Y47042D01*
X22252Y47064D01*
X22356Y47144D01*
X22436Y47248D01*
X22458Y47300D01*
D02*
G37*
G36*
X20458D02*
X20200D01*
Y47042D01*
X20252Y47064D01*
X20356Y47144D01*
X20436Y47248D01*
X20458Y47300D01*
D02*
G37*
G36*
X21800D02*
X21542D01*
X21564Y47248D01*
X21644Y47144D01*
X21748Y47064D01*
X21800Y47042D01*
Y47300D01*
D02*
G37*
G36*
X19800Y47958D02*
X19748Y47936D01*
X19644Y47856D01*
X19564Y47752D01*
X19542Y47700D01*
X19800D01*
Y47958D01*
D02*
G37*
G36*
X22200D02*
Y47700D01*
X22458D01*
X22436Y47752D01*
X22356Y47856D01*
X22252Y47936D01*
X22200Y47958D01*
D02*
G37*
G36*
X20200D02*
Y47700D01*
X20458D01*
X20436Y47752D01*
X20356Y47856D01*
X20252Y47936D01*
X20200Y47958D01*
D02*
G37*
G36*
X21800D02*
X21748Y47936D01*
X21644Y47856D01*
X21564Y47752D01*
X21542Y47700D01*
X21800D01*
Y47958D01*
D02*
G37*
G36*
X19800Y41300D02*
X19542D01*
X19564Y41248D01*
X19644Y41144D01*
X19748Y41064D01*
X19800Y41042D01*
Y41300D01*
D02*
G37*
G36*
X31350Y35700D02*
X30700D01*
Y35490D01*
X31350D01*
Y35700D01*
D02*
G37*
G36*
X30300D02*
X29650D01*
Y35490D01*
X30300D01*
Y35700D01*
D02*
G37*
G36*
X28960D02*
X28310D01*
Y35490D01*
X28960D01*
Y35700D01*
D02*
G37*
G36*
X27910Y36310D02*
X27260D01*
Y36100D01*
X27910D01*
Y36310D01*
D02*
G37*
G36*
X31350D02*
X30700D01*
Y36100D01*
X31350D01*
Y36310D01*
D02*
G37*
G36*
X28960D02*
X28310D01*
Y36100D01*
X28960D01*
Y36310D01*
D02*
G37*
G36*
X30300D02*
X29650D01*
Y36100D01*
X30300D01*
Y36310D01*
D02*
G37*
G36*
X27910Y35700D02*
X27260D01*
Y35490D01*
X27910D01*
Y35700D01*
D02*
G37*
G36*
X35700Y31958D02*
Y31700D01*
X35958D01*
X35936Y31752D01*
X35856Y31856D01*
X35752Y31936D01*
X35700Y31958D01*
D02*
G37*
G36*
X33700D02*
Y31700D01*
X33958D01*
X33936Y31752D01*
X33856Y31856D01*
X33752Y31936D01*
X33700Y31958D01*
D02*
G37*
G36*
X35300D02*
X35248Y31936D01*
X35144Y31856D01*
X35064Y31752D01*
X35042Y31700D01*
X35300D01*
Y31958D01*
D02*
G37*
G36*
X27910Y32410D02*
X27260D01*
Y32200D01*
X27910D01*
Y32410D01*
D02*
G37*
G36*
X31350D02*
X30700D01*
Y32200D01*
X31350D01*
Y32410D01*
D02*
G37*
G36*
X28960D02*
X28310D01*
Y32200D01*
X28960D01*
Y32410D01*
D02*
G37*
G36*
X30300D02*
X29650D01*
Y32200D01*
X30300D01*
Y32410D01*
D02*
G37*
G36*
X19800Y37300D02*
X19542D01*
X19564Y37248D01*
X19644Y37144D01*
X19748Y37064D01*
X19800Y37042D01*
Y37300D01*
D02*
G37*
G36*
X22458Y39300D02*
X22200D01*
Y39042D01*
X22252Y39064D01*
X22356Y39144D01*
X22436Y39248D01*
X22458Y39300D01*
D02*
G37*
G36*
X20458D02*
X20200D01*
Y39042D01*
X20252Y39064D01*
X20356Y39144D01*
X20436Y39248D01*
X20458Y39300D01*
D02*
G37*
G36*
X21800D02*
X21542D01*
X21564Y39248D01*
X21644Y39144D01*
X21748Y39064D01*
X21800Y39042D01*
Y39300D01*
D02*
G37*
G36*
X19800Y39958D02*
X19748Y39936D01*
X19644Y39856D01*
X19564Y39752D01*
X19542Y39700D01*
X19800D01*
Y39958D01*
D02*
G37*
G36*
X22200D02*
Y39700D01*
X22458D01*
X22436Y39752D01*
X22356Y39856D01*
X22252Y39936D01*
X22200Y39958D01*
D02*
G37*
G36*
X20200D02*
Y39700D01*
X20458D01*
X20436Y39752D01*
X20356Y39856D01*
X20252Y39936D01*
X20200Y39958D01*
D02*
G37*
G36*
X21800D02*
X21748Y39936D01*
X21644Y39856D01*
X21564Y39752D01*
X21542Y39700D01*
X21800D01*
Y39958D01*
D02*
G37*
G36*
X19800Y39300D02*
X19542D01*
X19564Y39248D01*
X19644Y39144D01*
X19748Y39064D01*
X19800Y39042D01*
Y39300D01*
D02*
G37*
G36*
X22458Y37300D02*
X22200D01*
Y37042D01*
X22252Y37064D01*
X22356Y37144D01*
X22436Y37248D01*
X22458Y37300D01*
D02*
G37*
G36*
X20458D02*
X20200D01*
Y37042D01*
X20252Y37064D01*
X20356Y37144D01*
X20436Y37248D01*
X20458Y37300D01*
D02*
G37*
G36*
X21800D02*
X21542D01*
X21564Y37248D01*
X21644Y37144D01*
X21748Y37064D01*
X21800Y37042D01*
Y37300D01*
D02*
G37*
G36*
X19800Y37958D02*
X19748Y37936D01*
X19644Y37856D01*
X19564Y37752D01*
X19542Y37700D01*
X19800D01*
Y37958D01*
D02*
G37*
G36*
X22200D02*
Y37700D01*
X22458D01*
X22436Y37752D01*
X22356Y37856D01*
X22252Y37936D01*
X22200Y37958D01*
D02*
G37*
G36*
X20200D02*
Y37700D01*
X20458D01*
X20436Y37752D01*
X20356Y37856D01*
X20252Y37936D01*
X20200Y37958D01*
D02*
G37*
G36*
X21800D02*
X21748Y37936D01*
X21644Y37856D01*
X21564Y37752D01*
X21542Y37700D01*
X21800D01*
Y37958D01*
D02*
G37*
%LPD*%
D10*
X65200Y51500D02*
D03*
Y52000D02*
D03*
Y52500D02*
D03*
Y53000D02*
D03*
Y53500D02*
D03*
Y54000D02*
D03*
Y54500D02*
D03*
Y55000D02*
D03*
Y55500D02*
D03*
Y56000D02*
D03*
X63665Y51500D02*
D03*
Y52000D02*
D03*
Y52500D02*
D03*
Y53000D02*
D03*
Y53500D02*
D03*
Y54000D02*
D03*
Y54500D02*
D03*
Y55000D02*
D03*
Y55500D02*
D03*
Y56000D02*
D03*
X49665Y46300D02*
D03*
Y45800D02*
D03*
Y45300D02*
D03*
Y44800D02*
D03*
Y44300D02*
D03*
Y43800D02*
D03*
Y43300D02*
D03*
Y42800D02*
D03*
Y42300D02*
D03*
Y41800D02*
D03*
X51200Y46300D02*
D03*
Y45800D02*
D03*
Y45300D02*
D03*
Y44800D02*
D03*
Y44300D02*
D03*
Y43800D02*
D03*
Y43300D02*
D03*
Y42800D02*
D03*
Y42300D02*
D03*
Y41800D02*
D03*
D11*
X28110Y35900D02*
D03*
Y32000D02*
D03*
X30500D02*
D03*
Y35900D02*
D03*
X23000Y28000D02*
D03*
Y24100D02*
D03*
X20610D02*
D03*
Y28000D02*
D03*
X25610D02*
D03*
Y24100D02*
D03*
X28000D02*
D03*
Y28000D02*
D03*
D12*
X61000Y53000D02*
X63380D01*
X59902Y53345D02*
X60747Y52500D01*
X59345Y53345D02*
X59902D01*
X60747Y52500D02*
X63665D01*
X52700Y46700D02*
X59345Y53345D01*
X59500Y53000D02*
X59750D01*
X46400Y59174D02*
X47600Y60374D01*
X46400Y45176D02*
Y59174D01*
X46700Y58949D02*
X47950Y60199D01*
X46700Y45300D02*
Y58949D01*
X47000Y58824D02*
X48400Y60224D01*
X47000Y45600D02*
Y58824D01*
X48750Y60150D02*
Y61050D01*
X47300Y58700D02*
X48750Y60150D01*
X47300Y46521D02*
Y58700D01*
X47950Y60199D02*
Y60550D01*
X48000Y60600D01*
X47600Y60374D02*
Y60600D01*
X8370Y15450D02*
X46974D01*
X8826Y15750D02*
X46850D01*
X7680Y16896D02*
X8826Y15750D01*
X7680Y16896D02*
Y17320D01*
X9550Y16050D02*
X46650D01*
X8860Y16740D02*
X9550Y16050D01*
X8860Y16740D02*
Y17320D01*
X25100Y47144D02*
X32800Y39444D01*
Y38200D02*
Y39444D01*
Y38200D02*
X33350Y37650D01*
Y37450D02*
Y37650D01*
X25100Y47144D02*
Y53000D01*
X22000Y51500D02*
X25000D01*
X20000D02*
X22000D01*
X20000Y53500D02*
X22000D01*
X46850Y15750D02*
X61000Y29900D01*
X62217Y51500D02*
X63665D01*
X61000Y50283D02*
X62217Y51500D01*
X61000Y47500D02*
Y50283D01*
X46650Y16050D02*
X60500Y29900D01*
Y47000D02*
X65600D01*
X66000Y47400D01*
X66900Y47027D02*
Y53274D01*
X66600Y47151D02*
Y53074D01*
X66300Y47276D02*
Y52200D01*
X66000Y47400D02*
Y51800D01*
X65800Y52000D02*
X66000Y51800D01*
X65674Y54500D02*
X66900Y53274D01*
X65674Y54000D02*
X66600Y53074D01*
X66000Y52500D02*
X66300Y52200D01*
X65200Y52500D02*
X66000D01*
X47000Y45600D02*
X48800Y43800D01*
X46700Y45300D02*
X48700Y43300D01*
X46400Y45176D02*
X48776Y42800D01*
X47300Y46521D02*
X49021Y44800D01*
X48400Y60224D02*
Y60600D01*
X50751Y46300D02*
X51200D01*
X50251Y45800D02*
X50751Y46300D01*
X50600Y45300D02*
X51200D01*
X50100Y44800D02*
X50600Y45300D01*
X49665Y44800D02*
X50100D01*
X64300Y55000D02*
X64800Y55500D01*
X63665Y55000D02*
X64300D01*
X64700Y56000D02*
X65200D01*
X64200Y55500D02*
X64700Y56000D01*
X63665Y55500D02*
X64200D01*
X64800D02*
X65200D01*
X64724Y55000D02*
X65200D01*
X49665Y45800D02*
X50251D01*
X64800Y54000D02*
X65200D01*
X49665Y45300D02*
X50176D01*
X50676Y45800D01*
X51200D01*
X64700Y54500D02*
X65200D01*
X63665D02*
X64224D01*
X64724Y55000D01*
X63665Y54000D02*
X64200D01*
X64700Y54500D01*
X63665Y53500D02*
X64300D01*
X64800Y54000D01*
X6500Y17320D02*
X8370Y15450D01*
X64224Y52000D02*
X64724Y52500D01*
X63665Y52000D02*
X64224D01*
X64724Y52500D02*
X65200D01*
Y54000D02*
X65674D01*
X65200Y54500D02*
X65674D01*
X65200Y52000D02*
X65800D01*
X50776Y44300D02*
X51200D01*
X50700Y43800D02*
X51200D01*
X49665Y42800D02*
X50251D01*
X49665Y43800D02*
X50276D01*
X50776Y44300D01*
X49665Y43300D02*
X50200D01*
X50700Y43800D01*
X50251Y42800D02*
X50751Y43300D01*
X51200D01*
X49665Y41800D02*
X50200D01*
X50700Y42300D01*
X51200D01*
X51900D01*
X53200Y43600D01*
Y45400D01*
X63665Y53000D02*
X64224D01*
X64724Y53500D01*
X65200D01*
X49665Y42300D02*
X50176D01*
X50676Y42800D01*
X51200D01*
X51900D01*
X52700Y43600D01*
Y45400D01*
X63665Y52500D02*
X64300D01*
X64800Y53000D01*
X65200D01*
X48776Y42800D02*
X49665D01*
X48700Y43300D02*
X49665D01*
X49021Y44800D02*
X49665D01*
X48800Y43800D02*
X49665D01*
X33219Y39450D02*
X33450D01*
X65624Y46600D02*
X66300Y47276D01*
X61500Y46600D02*
X65624D01*
X51200Y46300D02*
X61100D01*
X65649Y46200D02*
X66600Y47151D01*
X61100Y46300D02*
X61200Y46200D01*
X65649D01*
X61000Y29900D02*
Y45400D01*
X60500Y29900D02*
Y45400D01*
X46974Y15450D02*
X61500Y29976D01*
X65673Y45800D02*
X66900Y47027D01*
X51200Y45800D02*
X65673D01*
X61500Y29976D02*
Y45400D01*
X53200Y46700D02*
X59500Y53000D01*
X22000Y53500D02*
X25400D01*
X25500Y47169D02*
X33219Y39450D01*
X25500Y47169D02*
Y60500D01*
X25100Y53900D02*
Y60500D01*
D13*
X6000Y22500D02*
Y69207D01*
X7000Y70207D01*
Y72500D01*
Y73500D01*
X14000Y70000D02*
X18500Y65500D01*
X8207Y70000D02*
X14000D01*
X7000Y68793D02*
X8207Y70000D01*
X14207Y70500D02*
X18707Y66000D01*
X8000Y70500D02*
X14207D01*
X6500Y69000D02*
X8000Y70500D01*
X7500Y57700D02*
X9100Y59300D01*
X4700Y17800D02*
X10500Y12000D01*
X4200Y17593D02*
X10293Y11500D01*
X10500Y12000D02*
X26000D01*
X26122Y12122D01*
X27946D01*
X60286Y54500D02*
X63665D01*
X58500Y56286D02*
Y59086D01*
X60493Y55000D02*
X63665D01*
X59000Y56493D02*
Y59293D01*
X58500Y56286D02*
X60286Y54500D01*
X59000Y56493D02*
X60493Y55000D01*
X60700Y55500D02*
X63665D01*
X59500Y56700D02*
X60700Y55500D01*
X59500Y56700D02*
Y59500D01*
X56036Y61550D02*
X58500Y59086D01*
X56243Y62050D02*
X59000Y59293D01*
X56450Y62550D02*
X59500Y59500D01*
X16443Y61550D02*
X56036D01*
X25000Y62050D02*
X56243D01*
X25400Y62550D02*
X56450D01*
X47414Y61050D02*
X48750D01*
X16646Y61046D02*
X47410D01*
X16400Y60800D02*
X16646Y61046D01*
X14500Y60800D02*
X16400D01*
X14500Y58100D02*
Y60800D01*
X16193Y61300D02*
X16443Y61550D01*
X13100Y61300D02*
X16193D01*
X37500Y36000D02*
Y60500D01*
X47410Y61046D02*
X47414Y61050D01*
X16000Y62000D02*
X18900Y64900D01*
X15000Y62000D02*
X16000D01*
X21500Y65500D02*
X22000Y65000D01*
X18500Y65500D02*
X21500D01*
X18707Y66000D02*
X22000D01*
X27946Y12122D02*
X28484Y11584D01*
Y11500D02*
Y11584D01*
X10293Y11500D02*
X27500D01*
X20500Y66500D02*
X22000Y68000D01*
X11100Y63300D02*
X13100D01*
X20000Y55500D02*
X22000D01*
X20000Y45500D02*
X22000D01*
X16500D02*
X20000D01*
X15500Y46500D02*
X16500Y45500D01*
X33350Y37450D02*
X35350D01*
X33450Y39450D02*
X35450D01*
X15500Y46500D02*
Y60000D01*
X13100Y55300D02*
X15000Y57200D01*
Y60000D01*
X13700Y57300D02*
X14500Y58100D01*
X13100Y57300D02*
X13700D01*
X9100Y59300D02*
X11100D01*
X13100D01*
Y63300D02*
X14700D01*
X15500Y62500D01*
X11100Y57300D02*
X13100D01*
X11100Y55300D02*
X13100D01*
X11100Y53300D02*
X13100D01*
X33750Y35500D02*
X37000D01*
X37500Y36000D01*
X7000Y21914D02*
Y68793D01*
X6500Y22121D02*
Y69000D01*
X4200Y17593D02*
Y19821D01*
X6500Y22121D01*
X4700Y17800D02*
Y19614D01*
X7000Y21914D01*
X7500Y21707D02*
Y57700D01*
X6500Y18500D02*
Y20707D01*
X7500Y21707D01*
Y21000D02*
X7680Y20820D01*
Y18500D02*
Y20820D01*
X11100Y61300D02*
X13100D01*
D14*
X36950Y33550D02*
X42500Y28000D01*
X33550Y33550D02*
X36950D01*
X42500Y19250D02*
Y28000D01*
X39550Y18000D02*
Y19250D01*
X42500Y18000D02*
Y19250D01*
X35600Y30000D02*
X39550Y26050D01*
Y19250D02*
Y26050D01*
D15*
X51200Y41800D02*
X52000D01*
X48865Y46300D02*
X49665D01*
X65200Y50700D02*
Y51500D01*
X62865Y56000D02*
X63665D01*
D16*
X7000Y73500D02*
D03*
Y72500D02*
D03*
X23000Y65000D02*
D03*
X22000D02*
D03*
X23000Y66000D02*
D03*
X22000D02*
D03*
X23000Y70000D02*
D03*
X22000D02*
D03*
X23000Y71000D02*
D03*
X22000D02*
D03*
X23000Y72500D02*
D03*
X22000D02*
D03*
X23000Y73500D02*
D03*
X22000D02*
D03*
X23000Y68000D02*
D03*
X22000D02*
D03*
D17*
X20000Y53500D02*
D03*
Y51500D02*
D03*
X35500Y41500D02*
D03*
Y39500D02*
D03*
Y37500D02*
D03*
Y35500D02*
D03*
Y33500D02*
D03*
Y31500D02*
D03*
X33500D02*
D03*
Y33500D02*
D03*
Y35500D02*
D03*
Y37500D02*
D03*
Y39500D02*
D03*
Y41500D02*
D03*
X20000Y43500D02*
D03*
Y41500D02*
D03*
Y39500D02*
D03*
X22000D02*
D03*
Y41500D02*
D03*
Y43500D02*
D03*
Y37500D02*
D03*
X20000D02*
D03*
X22000Y55500D02*
D03*
Y53500D02*
D03*
Y51500D02*
D03*
Y49500D02*
D03*
Y47500D02*
D03*
Y45500D02*
D03*
X20000D02*
D03*
Y47500D02*
D03*
Y49500D02*
D03*
Y55500D02*
D03*
X13100Y63300D02*
D03*
Y61300D02*
D03*
Y59300D02*
D03*
Y57300D02*
D03*
Y55300D02*
D03*
Y53300D02*
D03*
X11100D02*
D03*
Y55300D02*
D03*
Y57300D02*
D03*
Y59300D02*
D03*
Y61300D02*
D03*
Y63300D02*
D03*
D18*
X14630Y18600D02*
D03*
X27220D02*
D03*
X25350Y17250D02*
D03*
X22400D02*
D03*
X19450D02*
D03*
X16500D02*
D03*
Y18500D02*
D03*
X19450D02*
D03*
X22400D02*
D03*
X25350D02*
D03*
X34730Y17900D02*
D03*
X44370D02*
D03*
X42500Y19250D02*
D03*
X39550D02*
D03*
X36600D02*
D03*
Y18000D02*
D03*
X39550D02*
D03*
X42500D02*
D03*
D19*
X28484Y11500D02*
D03*
D20*
X27500D02*
D03*
D21*
X8860Y18500D02*
D03*
Y17320D02*
D03*
X10040D02*
D03*
X7680D02*
D03*
X6500D02*
D03*
X10040Y18500D02*
D03*
X7680D02*
D03*
X6500Y18500D02*
D03*
D22*
X61000Y53000D02*
D03*
X59750D02*
D03*
X48000Y62550D02*
D03*
X25400D02*
D03*
X47600Y62050D02*
D03*
X25000D02*
D03*
X48400Y61550D02*
D03*
X48000Y60600D02*
D03*
X47600D02*
D03*
X37500Y61546D02*
D03*
X18900Y64900D02*
D03*
X20500Y66500D02*
D03*
X25100Y53000D02*
D03*
X15500Y60000D02*
D03*
X15000D02*
D03*
Y62000D02*
D03*
X61000Y47500D02*
D03*
X60500Y47000D02*
D03*
X37500Y60500D02*
D03*
X53200Y46700D02*
D03*
Y45400D02*
D03*
X52700Y46700D02*
D03*
Y45400D02*
D03*
X48400Y60600D02*
D03*
X15500Y62500D02*
D03*
X6000Y22500D02*
D03*
X7500Y21000D02*
D03*
X52000Y41800D02*
D03*
X48865Y46300D02*
D03*
X65200Y50700D02*
D03*
X62865Y56000D02*
D03*
X25100Y60500D02*
D03*
X61500Y46600D02*
D03*
X61000Y45400D02*
D03*
X60500D02*
D03*
X61500D02*
D03*
X25500Y60500D02*
D03*
X25100Y53900D02*
D03*
M02*
