G04 Layer_Physical_Order=2*
G04 Layer_Color=16711680*
%FSLAX24Y24*%
%MOIN*%
G70*
G01*
G75*
%ADD12C,0.0200*%
%ADD13C,0.0400*%
%ADD16C,0.0600*%
%ADD17C,0.0799*%
%ADD18C,0.0950*%
%ADD19C,0.0644*%
%ADD20R,0.0644X0.0644*%
%ADD21C,0.0650*%
%ADD22C,0.0290*%
%ADD23R,0.3000X0.3000*%
G36*
X71796Y204D02*
X56204D01*
Y4750D01*
X56188Y4828D01*
X56144Y4894D01*
X56078Y4938D01*
X56000Y4954D01*
X19750D01*
X19672Y4938D01*
X19606Y4894D01*
X19562Y4828D01*
X19546Y4750D01*
Y204D01*
X204D01*
Y79796D01*
X71796D01*
Y204D01*
D02*
G37*
%LPC*%
G36*
X34000Y29102D02*
X31000D01*
X30961Y29094D01*
X30928Y29072D01*
X30906Y29039D01*
X30898Y29000D01*
Y26000D01*
X30906Y25961D01*
X30928Y25928D01*
X30961Y25906D01*
X31000Y25898D01*
X34000D01*
X34039Y25906D01*
X34072Y25928D01*
X34094Y25961D01*
X34102Y26000D01*
Y29000D01*
X34094Y29039D01*
X34072Y29072D01*
X34039Y29094D01*
X34000Y29102D01*
D02*
G37*
G36*
X33500Y32004D02*
X33370Y31987D01*
X33248Y31936D01*
X33144Y31856D01*
X33064Y31752D01*
X33013Y31630D01*
X32996Y31500D01*
X33013Y31370D01*
X33064Y31248D01*
X33144Y31144D01*
X33248Y31064D01*
X33370Y31013D01*
X33500Y30996D01*
X33630Y31013D01*
X33752Y31064D01*
X33856Y31144D01*
X33936Y31248D01*
X33987Y31370D01*
X34004Y31500D01*
X33987Y31630D01*
X33936Y31752D01*
X33856Y31856D01*
X33752Y31936D01*
X33630Y31987D01*
X33500Y32004D01*
D02*
G37*
G36*
X6000Y22803D02*
X5922Y22792D01*
X5849Y22762D01*
X5786Y22714D01*
X5738Y22651D01*
X5708Y22578D01*
X5697Y22500D01*
X5708Y22422D01*
X5738Y22349D01*
X5786Y22286D01*
X7286Y20786D01*
X7349Y20738D01*
X7422Y20708D01*
X7500Y20697D01*
X7578Y20708D01*
X7651Y20738D01*
X7714Y20786D01*
X7762Y20849D01*
X7792Y20922D01*
X7803Y21000D01*
X7792Y21078D01*
X7762Y21151D01*
X7714Y21214D01*
X6214Y22714D01*
X6151Y22762D01*
X6078Y22792D01*
X6000Y22803D01*
D02*
G37*
G36*
X36550Y19823D02*
X36450Y19810D01*
X36310Y19752D01*
X36190Y19660D01*
X36098Y19540D01*
X36040Y19400D01*
X36027Y19300D01*
X36550D01*
Y19823D01*
D02*
G37*
G36*
X36650D02*
Y19300D01*
X37173D01*
X37160Y19400D01*
X37102Y19540D01*
X37010Y19660D01*
X36890Y19752D01*
X36750Y19810D01*
X36650Y19823D01*
D02*
G37*
G36*
X35500Y34004D02*
X35370Y33987D01*
X35248Y33936D01*
X35144Y33856D01*
X35064Y33752D01*
X35013Y33630D01*
X34996Y33500D01*
X35013Y33370D01*
X35064Y33248D01*
X35144Y33144D01*
X35248Y33064D01*
X35370Y33013D01*
X35500Y32996D01*
X35630Y33013D01*
X35752Y33064D01*
X35856Y33144D01*
X35936Y33248D01*
X35987Y33370D01*
X36004Y33500D01*
X35987Y33630D01*
X35936Y33752D01*
X35856Y33856D01*
X35752Y33936D01*
X35630Y33987D01*
X35500Y34004D01*
D02*
G37*
G36*
X33500Y36004D02*
X33370Y35987D01*
X33248Y35936D01*
X33144Y35856D01*
X33064Y35752D01*
X33013Y35630D01*
X32996Y35500D01*
X33013Y35370D01*
X33064Y35248D01*
X33144Y35144D01*
X33248Y35064D01*
X33370Y35013D01*
X33500Y34996D01*
X33630Y35013D01*
X33752Y35064D01*
X33856Y35144D01*
X33936Y35248D01*
X33987Y35370D01*
X34004Y35500D01*
X33987Y35630D01*
X33936Y35752D01*
X33856Y35856D01*
X33752Y35936D01*
X33630Y35987D01*
X33500Y36004D01*
D02*
G37*
G36*
Y34004D02*
X33370Y33987D01*
X33248Y33936D01*
X33144Y33856D01*
X33064Y33752D01*
X33013Y33630D01*
X32996Y33500D01*
X33013Y33370D01*
X33064Y33248D01*
X33144Y33144D01*
X33248Y33064D01*
X33370Y33013D01*
X33500Y32996D01*
X33630Y33013D01*
X33752Y33064D01*
X33856Y33144D01*
X33936Y33248D01*
X33987Y33370D01*
X34004Y33500D01*
X33987Y33630D01*
X33936Y33752D01*
X33856Y33856D01*
X33752Y33936D01*
X33630Y33987D01*
X33500Y34004D01*
D02*
G37*
G36*
X35500Y32004D02*
X35370Y31987D01*
X35248Y31936D01*
X35144Y31856D01*
X35064Y31752D01*
X35013Y31630D01*
X34996Y31500D01*
X35013Y31370D01*
X35064Y31248D01*
X35144Y31144D01*
X35248Y31064D01*
X35370Y31013D01*
X35500Y30996D01*
X35630Y31013D01*
X35752Y31064D01*
X35856Y31144D01*
X35936Y31248D01*
X35987Y31370D01*
X36004Y31500D01*
X35987Y31630D01*
X35936Y31752D01*
X35856Y31856D01*
X35752Y31936D01*
X35630Y31987D01*
X35500Y32004D01*
D02*
G37*
G36*
X20000Y35602D02*
X17000D01*
X16961Y35594D01*
X16928Y35572D01*
X16906Y35539D01*
X16898Y35500D01*
Y32500D01*
X16906Y32461D01*
X16928Y32428D01*
X16961Y32406D01*
X17000Y32398D01*
X20000D01*
X20039Y32406D01*
X20072Y32428D01*
X20094Y32461D01*
X20102Y32500D01*
Y35500D01*
X20094Y35539D01*
X20072Y35572D01*
X20039Y35594D01*
X20000Y35602D01*
D02*
G37*
G36*
X11220Y19173D02*
X11142Y19162D01*
X11069Y19132D01*
X11006Y19084D01*
X10958Y19021D01*
X10928Y18948D01*
X10917Y18870D01*
X10928Y18792D01*
X10958Y18719D01*
X11006Y18656D01*
X11069Y18608D01*
X11142Y18578D01*
X11220Y18567D01*
X11298Y18578D01*
X11371Y18608D01*
X11434Y18656D01*
X11482Y18719D01*
X11512Y18792D01*
X11523Y18870D01*
X11512Y18948D01*
X11482Y19021D01*
X11434Y19084D01*
X11371Y19132D01*
X11298Y19162D01*
X11220Y19173D01*
D02*
G37*
G36*
X39550Y19830D02*
X39400Y19810D01*
X39260Y19752D01*
X39140Y19660D01*
X39048Y19540D01*
X38990Y19400D01*
X38970Y19250D01*
X38990Y19100D01*
X39048Y18960D01*
X39140Y18840D01*
X39260Y18748D01*
X39400Y18690D01*
X39550Y18670D01*
X39700Y18690D01*
X39840Y18748D01*
X39960Y18840D01*
X40052Y18960D01*
X40110Y19100D01*
X40130Y19250D01*
X40110Y19400D01*
X40052Y19540D01*
X39960Y19660D01*
X39840Y19752D01*
X39700Y19810D01*
X39550Y19830D01*
D02*
G37*
G36*
X5320Y19173D02*
X5242Y19162D01*
X5169Y19132D01*
X5106Y19084D01*
X5058Y19021D01*
X5028Y18948D01*
X5017Y18870D01*
X5028Y18792D01*
X5058Y18719D01*
X5106Y18656D01*
X5169Y18608D01*
X5242Y18578D01*
X5320Y18567D01*
X5398Y18578D01*
X5471Y18608D01*
X5534Y18656D01*
X5582Y18719D01*
X5612Y18792D01*
X5623Y18870D01*
X5612Y18948D01*
X5582Y19021D01*
X5534Y19084D01*
X5471Y19132D01*
X5398Y19162D01*
X5320Y19173D01*
D02*
G37*
G36*
X15977Y18740D02*
X15940Y18650D01*
X15920Y18500D01*
X15940Y18350D01*
X15977Y18260D01*
X16217Y18500D01*
X15977Y18740D01*
D02*
G37*
G36*
X18927D02*
X18890Y18650D01*
X18870Y18500D01*
X18890Y18350D01*
X18927Y18260D01*
X19167Y18500D01*
X18927Y18740D01*
D02*
G37*
G36*
X16500Y19080D02*
X16350Y19060D01*
X16260Y19023D01*
X16500Y18783D01*
X16740Y19023D01*
X16650Y19060D01*
X16500Y19080D01*
D02*
G37*
G36*
X19450D02*
X19300Y19060D01*
X19210Y19023D01*
X19450Y18783D01*
X19690Y19023D01*
X19600Y19060D01*
X19450Y19080D01*
D02*
G37*
G36*
X37173Y19200D02*
X36650D01*
Y18677D01*
X36750Y18690D01*
X36890Y18748D01*
X37010Y18840D01*
X37102Y18960D01*
X37160Y19100D01*
X37173Y19200D01*
D02*
G37*
G36*
X42500Y19830D02*
X42350Y19810D01*
X42210Y19752D01*
X42090Y19660D01*
X41998Y19540D01*
X41940Y19400D01*
X41920Y19250D01*
X41940Y19100D01*
X41998Y18960D01*
X42090Y18840D01*
X42210Y18748D01*
X42350Y18690D01*
X42500Y18670D01*
X42650Y18690D01*
X42790Y18748D01*
X42910Y18840D01*
X43002Y18960D01*
X43060Y19100D01*
X43080Y19250D01*
X43060Y19400D01*
X43002Y19540D01*
X42910Y19660D01*
X42790Y19752D01*
X42650Y19810D01*
X42500Y19830D01*
D02*
G37*
G36*
X36550Y19200D02*
X36027D01*
X36040Y19100D01*
X36098Y18960D01*
X36190Y18840D01*
X36310Y18748D01*
X36450Y18690D01*
X36550Y18677D01*
Y19200D01*
D02*
G37*
G36*
X33450Y41450D02*
X33003D01*
X33013Y41370D01*
X33064Y41248D01*
X33144Y41144D01*
X33248Y41064D01*
X33370Y41013D01*
X33450Y41003D01*
Y41450D01*
D02*
G37*
G36*
X35450D02*
X35003D01*
X35013Y41370D01*
X35064Y41248D01*
X35144Y41144D01*
X35248Y41064D01*
X35370Y41013D01*
X35450Y41003D01*
Y41450D01*
D02*
G37*
G36*
X22000Y42004D02*
X21870Y41987D01*
X21748Y41936D01*
X21644Y41856D01*
X21564Y41752D01*
X21513Y41630D01*
X21496Y41500D01*
X21513Y41370D01*
X21564Y41248D01*
X21644Y41144D01*
X21748Y41064D01*
X21870Y41013D01*
X22000Y40996D01*
X22130Y41013D01*
X22252Y41064D01*
X22356Y41144D01*
X22436Y41248D01*
X22487Y41370D01*
X22504Y41500D01*
X22487Y41630D01*
X22436Y41752D01*
X22356Y41856D01*
X22252Y41936D01*
X22130Y41987D01*
X22000Y42004D01*
D02*
G37*
G36*
X50432Y41509D02*
X50347Y41497D01*
X50267Y41464D01*
X50199Y41412D01*
X50146Y41343D01*
X50113Y41264D01*
X50102Y41178D01*
X50113Y41092D01*
X50146Y41013D01*
X50199Y40944D01*
X50267Y40892D01*
X50347Y40859D01*
X50432Y40847D01*
X50518Y40859D01*
X50598Y40892D01*
X50666Y40944D01*
X50719Y41013D01*
X50752Y41092D01*
X50763Y41178D01*
X50752Y41264D01*
X50719Y41343D01*
X50666Y41412D01*
X50598Y41464D01*
X50518Y41497D01*
X50432Y41509D01*
D02*
G37*
G36*
X20000Y42004D02*
X19870Y41987D01*
X19748Y41936D01*
X19644Y41856D01*
X19564Y41752D01*
X19513Y41630D01*
X19496Y41500D01*
X19513Y41370D01*
X19564Y41248D01*
X19644Y41144D01*
X19748Y41064D01*
X19870Y41013D01*
X20000Y40996D01*
X20130Y41013D01*
X20252Y41064D01*
X20356Y41144D01*
X20436Y41248D01*
X20487Y41370D01*
X20504Y41500D01*
X20487Y41630D01*
X20436Y41752D01*
X20356Y41856D01*
X20252Y41936D01*
X20130Y41987D01*
X20000Y42004D01*
D02*
G37*
G36*
X35450Y41997D02*
X35370Y41987D01*
X35248Y41936D01*
X35144Y41856D01*
X35064Y41752D01*
X35013Y41630D01*
X35003Y41550D01*
X35450D01*
Y41997D01*
D02*
G37*
G36*
X33550D02*
Y41550D01*
X33997D01*
X33987Y41630D01*
X33936Y41752D01*
X33856Y41856D01*
X33752Y41936D01*
X33630Y41987D01*
X33550Y41997D01*
D02*
G37*
G36*
X33450D02*
X33370Y41987D01*
X33248Y41936D01*
X33144Y41856D01*
X33064Y41752D01*
X33013Y41630D01*
X33003Y41550D01*
X33450D01*
Y41997D01*
D02*
G37*
G36*
X33997Y41450D02*
X33550D01*
Y41003D01*
X33630Y41013D01*
X33752Y41064D01*
X33856Y41144D01*
X33936Y41248D01*
X33987Y41370D01*
X33997Y41450D01*
D02*
G37*
G36*
X35997D02*
X35550D01*
Y41003D01*
X35630Y41013D01*
X35752Y41064D01*
X35856Y41144D01*
X35936Y41248D01*
X35987Y41370D01*
X35997Y41450D01*
D02*
G37*
G36*
X33500Y38004D02*
X33370Y37987D01*
X33248Y37936D01*
X33144Y37856D01*
X33064Y37752D01*
X33013Y37630D01*
X32996Y37500D01*
X33013Y37370D01*
X33064Y37248D01*
X33144Y37144D01*
X33248Y37064D01*
X33370Y37013D01*
X33500Y36996D01*
X33630Y37013D01*
X33752Y37064D01*
X33856Y37144D01*
X33936Y37248D01*
X33987Y37370D01*
X34004Y37500D01*
X33987Y37630D01*
X33936Y37752D01*
X33856Y37856D01*
X33752Y37936D01*
X33630Y37987D01*
X33500Y38004D01*
D02*
G37*
G36*
X35500D02*
X35370Y37987D01*
X35248Y37936D01*
X35144Y37856D01*
X35064Y37752D01*
X35013Y37630D01*
X34996Y37500D01*
X35013Y37370D01*
X35064Y37248D01*
X35144Y37144D01*
X35248Y37064D01*
X35370Y37013D01*
X35500Y36996D01*
X35630Y37013D01*
X35752Y37064D01*
X35856Y37144D01*
X35936Y37248D01*
X35987Y37370D01*
X36004Y37500D01*
X35987Y37630D01*
X35936Y37752D01*
X35856Y37856D01*
X35752Y37936D01*
X35630Y37987D01*
X35500Y38004D01*
D02*
G37*
G36*
X22000D02*
X21870Y37987D01*
X21748Y37936D01*
X21644Y37856D01*
X21564Y37752D01*
X21513Y37630D01*
X21496Y37500D01*
X21513Y37370D01*
X21564Y37248D01*
X21644Y37144D01*
X21748Y37064D01*
X21870Y37013D01*
X22000Y36996D01*
X22130Y37013D01*
X22252Y37064D01*
X22356Y37144D01*
X22436Y37248D01*
X22487Y37370D01*
X22504Y37500D01*
X22487Y37630D01*
X22436Y37752D01*
X22356Y37856D01*
X22252Y37936D01*
X22130Y37987D01*
X22000Y38004D01*
D02*
G37*
G36*
X35500Y36004D02*
X35370Y35987D01*
X35248Y35936D01*
X35144Y35856D01*
X35064Y35752D01*
X35013Y35630D01*
X34996Y35500D01*
X35013Y35370D01*
X35064Y35248D01*
X35144Y35144D01*
X35248Y35064D01*
X35370Y35013D01*
X35500Y34996D01*
X35630Y35013D01*
X35752Y35064D01*
X35856Y35144D01*
X35936Y35248D01*
X35987Y35370D01*
X36004Y35500D01*
X35987Y35630D01*
X35936Y35752D01*
X35856Y35856D01*
X35752Y35936D01*
X35630Y35987D01*
X35500Y36004D01*
D02*
G37*
G36*
X20000Y38004D02*
X19870Y37987D01*
X19748Y37936D01*
X19644Y37856D01*
X19564Y37752D01*
X19513Y37630D01*
X19496Y37500D01*
X19513Y37370D01*
X19564Y37248D01*
X19644Y37144D01*
X19748Y37064D01*
X19870Y37013D01*
X20000Y36996D01*
X20130Y37013D01*
X20252Y37064D01*
X20356Y37144D01*
X20436Y37248D01*
X20487Y37370D01*
X20504Y37500D01*
X20487Y37630D01*
X20436Y37752D01*
X20356Y37856D01*
X20252Y37936D01*
X20130Y37987D01*
X20000Y38004D01*
D02*
G37*
G36*
X33500Y40004D02*
X33370Y39987D01*
X33248Y39936D01*
X33144Y39856D01*
X33064Y39752D01*
X33013Y39630D01*
X32996Y39500D01*
X33013Y39370D01*
X33064Y39248D01*
X33144Y39144D01*
X33248Y39064D01*
X33370Y39013D01*
X33500Y38996D01*
X33630Y39013D01*
X33752Y39064D01*
X33856Y39144D01*
X33936Y39248D01*
X33987Y39370D01*
X34004Y39500D01*
X33987Y39630D01*
X33936Y39752D01*
X33856Y39856D01*
X33752Y39936D01*
X33630Y39987D01*
X33500Y40004D01*
D02*
G37*
G36*
X35500D02*
X35370Y39987D01*
X35248Y39936D01*
X35144Y39856D01*
X35064Y39752D01*
X35013Y39630D01*
X34996Y39500D01*
X35013Y39370D01*
X35064Y39248D01*
X35144Y39144D01*
X35248Y39064D01*
X35370Y39013D01*
X35500Y38996D01*
X35630Y39013D01*
X35752Y39064D01*
X35856Y39144D01*
X35936Y39248D01*
X35987Y39370D01*
X36004Y39500D01*
X35987Y39630D01*
X35936Y39752D01*
X35856Y39856D01*
X35752Y39936D01*
X35630Y39987D01*
X35500Y40004D01*
D02*
G37*
G36*
X22000D02*
X21870Y39987D01*
X21748Y39936D01*
X21644Y39856D01*
X21564Y39752D01*
X21513Y39630D01*
X21496Y39500D01*
X21513Y39370D01*
X21564Y39248D01*
X21644Y39144D01*
X21748Y39064D01*
X21870Y39013D01*
X22000Y38996D01*
X22130Y39013D01*
X22252Y39064D01*
X22356Y39144D01*
X22436Y39248D01*
X22487Y39370D01*
X22504Y39500D01*
X22487Y39630D01*
X22436Y39752D01*
X22356Y39856D01*
X22252Y39936D01*
X22130Y39987D01*
X22000Y40004D01*
D02*
G37*
G36*
X50500Y40602D02*
X47500D01*
X47461Y40594D01*
X47428Y40572D01*
X47406Y40539D01*
X47398Y40500D01*
Y37500D01*
X47406Y37461D01*
X47428Y37428D01*
X47461Y37406D01*
X47500Y37398D01*
X50500D01*
X50539Y37406D01*
X50572Y37428D01*
X50594Y37461D01*
X50602Y37500D01*
Y40500D01*
X50594Y40539D01*
X50572Y40572D01*
X50539Y40594D01*
X50500Y40602D01*
D02*
G37*
G36*
X20000Y40004D02*
X19870Y39987D01*
X19748Y39936D01*
X19644Y39856D01*
X19564Y39752D01*
X19513Y39630D01*
X19496Y39500D01*
X19513Y39370D01*
X19564Y39248D01*
X19644Y39144D01*
X19748Y39064D01*
X19870Y39013D01*
X20000Y38996D01*
X20130Y39013D01*
X20252Y39064D01*
X20356Y39144D01*
X20436Y39248D01*
X20487Y39370D01*
X20504Y39500D01*
X20487Y39630D01*
X20436Y39752D01*
X20356Y39856D01*
X20252Y39936D01*
X20130Y39987D01*
X20000Y40004D01*
D02*
G37*
G36*
X19973Y17490D02*
X19733Y17250D01*
X19973Y17010D01*
X20010Y17100D01*
X20030Y17250D01*
X20010Y17400D01*
X19973Y17490D01*
D02*
G37*
G36*
X15977Y17490D02*
X15940Y17400D01*
X15920Y17250D01*
X15940Y17100D01*
X15977Y17010D01*
X16217Y17250D01*
X15977Y17490D01*
D02*
G37*
G36*
X17023Y17490D02*
X16783Y17250D01*
X17023Y17010D01*
X17060Y17100D01*
X17080Y17250D01*
X17060Y17400D01*
X17023Y17490D01*
D02*
G37*
G36*
X9990Y17270D02*
X9618D01*
X9626Y17209D01*
X9669Y17106D01*
X9737Y17017D01*
X9826Y16949D01*
X9929Y16906D01*
X9990Y16898D01*
Y17270D01*
D02*
G37*
G36*
X10462D02*
X10090D01*
Y16898D01*
X10151Y16906D01*
X10254Y16949D01*
X10343Y17017D01*
X10411Y17106D01*
X10454Y17209D01*
X10462Y17270D01*
D02*
G37*
G36*
X9990Y17742D02*
X9929Y17734D01*
X9826Y17691D01*
X9737Y17623D01*
X9669Y17534D01*
X9626Y17431D01*
X9618Y17370D01*
X9990D01*
Y17742D01*
D02*
G37*
G36*
X10090D02*
Y17370D01*
X10462D01*
X10454Y17431D01*
X10411Y17534D01*
X10343Y17623D01*
X10254Y17691D01*
X10151Y17734D01*
X10090Y17742D01*
D02*
G37*
G36*
X44370Y18593D02*
X44235Y18580D01*
X44105Y18541D01*
X43985Y18476D01*
X43880Y18390D01*
X43794Y18285D01*
X43729Y18165D01*
X43690Y18035D01*
X43677Y17900D01*
X43690Y17765D01*
X43729Y17635D01*
X43794Y17515D01*
X43880Y17410D01*
X43985Y17324D01*
X44105Y17259D01*
X44235Y17220D01*
X44370Y17207D01*
X44505Y17220D01*
X44635Y17259D01*
X44755Y17324D01*
X44860Y17410D01*
X44946Y17515D01*
X45011Y17635D01*
X45050Y17765D01*
X45063Y17900D01*
X45050Y18035D01*
X45011Y18165D01*
X44946Y18285D01*
X44860Y18390D01*
X44755Y18476D01*
X44635Y18541D01*
X44505Y18580D01*
X44370Y18593D01*
D02*
G37*
G36*
X18927Y17490D02*
X18890Y17400D01*
X18870Y17250D01*
X18890Y17100D01*
X18927Y17010D01*
X19167Y17250D01*
X18927Y17490D01*
D02*
G37*
G36*
X34730Y18593D02*
X34595Y18580D01*
X34465Y18541D01*
X34345Y18476D01*
X34240Y18390D01*
X34154Y18285D01*
X34089Y18165D01*
X34050Y18035D01*
X34037Y17900D01*
X34050Y17765D01*
X34089Y17635D01*
X34154Y17515D01*
X34240Y17410D01*
X34345Y17324D01*
X34465Y17259D01*
X34595Y17220D01*
X34730Y17207D01*
X34865Y17220D01*
X34995Y17259D01*
X35115Y17324D01*
X35220Y17410D01*
X35306Y17515D01*
X35371Y17635D01*
X35410Y17765D01*
X35423Y17900D01*
X35410Y18035D01*
X35371Y18165D01*
X35306Y18285D01*
X35220Y18390D01*
X35115Y18476D01*
X34995Y18541D01*
X34865Y18580D01*
X34730Y18593D01*
D02*
G37*
G36*
X16500Y16967D02*
X16260Y16727D01*
X16350Y16690D01*
X16500Y16670D01*
X16650Y16690D01*
X16740Y16727D01*
X16500Y16967D01*
D02*
G37*
G36*
X19450D02*
X19210Y16727D01*
X19300Y16690D01*
X19450Y16670D01*
X19600Y16690D01*
X19690Y16727D01*
X19450Y16967D01*
D02*
G37*
G36*
X27922Y11922D02*
X27078D01*
Y11078D01*
X27922D01*
Y11922D01*
D02*
G37*
G36*
X29114Y10973D02*
X29026Y10961D01*
X28945Y10928D01*
X28874Y10874D01*
X28820Y10803D01*
X28787Y10722D01*
X28775Y10634D01*
X28787Y10546D01*
X28820Y10464D01*
X28874Y10394D01*
X28945Y10340D01*
X29026Y10306D01*
X29114Y10295D01*
X29202Y10306D01*
X29284Y10340D01*
X29354Y10394D01*
X29408Y10464D01*
X29442Y10546D01*
X29453Y10634D01*
X29442Y10722D01*
X29408Y10803D01*
X29354Y10874D01*
X29284Y10928D01*
X29202Y10961D01*
X29114Y10973D01*
D02*
G37*
G36*
X28484Y11925D02*
X28374Y11911D01*
X28272Y11868D01*
X28183Y11801D01*
X28116Y11713D01*
X28073Y11610D01*
X28059Y11500D01*
X28073Y11390D01*
X28116Y11287D01*
X28183Y11199D01*
X28272Y11132D01*
X28374Y11089D01*
X28484Y11075D01*
X28594Y11089D01*
X28697Y11132D01*
X28785Y11199D01*
X28853Y11287D01*
X28895Y11390D01*
X28910Y11500D01*
X28895Y11610D01*
X28853Y11713D01*
X28785Y11801D01*
X28697Y11868D01*
X28594Y11911D01*
X28484Y11925D01*
D02*
G37*
G36*
X7680Y17749D02*
X7569Y17734D01*
X7466Y17691D01*
X7377Y17623D01*
X7309Y17534D01*
X7266Y17431D01*
X7251Y17320D01*
X7266Y17209D01*
X7309Y17106D01*
X7377Y17017D01*
X7466Y16949D01*
X7569Y16906D01*
X7680Y16891D01*
X7791Y16906D01*
X7894Y16949D01*
X7983Y17017D01*
X8051Y17106D01*
X8094Y17209D01*
X8109Y17320D01*
X8094Y17431D01*
X8051Y17534D01*
X7983Y17623D01*
X7894Y17691D01*
X7791Y17734D01*
X7680Y17749D01*
D02*
G37*
G36*
X8860D02*
X8749Y17734D01*
X8646Y17691D01*
X8557Y17623D01*
X8489Y17534D01*
X8446Y17431D01*
X8431Y17320D01*
X8446Y17209D01*
X8489Y17106D01*
X8557Y17017D01*
X8646Y16949D01*
X8749Y16906D01*
X8860Y16891D01*
X8971Y16906D01*
X9074Y16949D01*
X9163Y17017D01*
X9231Y17106D01*
X9274Y17209D01*
X9289Y17320D01*
X9274Y17431D01*
X9231Y17534D01*
X9163Y17623D01*
X9074Y17691D01*
X8971Y17734D01*
X8860Y17749D01*
D02*
G37*
G36*
X6500D02*
X6389Y17734D01*
X6286Y17691D01*
X6197Y17623D01*
X6129Y17534D01*
X6086Y17431D01*
X6071Y17320D01*
X6086Y17209D01*
X6129Y17106D01*
X6197Y17017D01*
X6286Y16949D01*
X6389Y16906D01*
X6500Y16891D01*
X6611Y16906D01*
X6714Y16949D01*
X6803Y17017D01*
X6871Y17106D01*
X6914Y17209D01*
X6929Y17320D01*
X6914Y17431D01*
X6871Y17534D01*
X6803Y17623D01*
X6714Y17691D01*
X6611Y17734D01*
X6500Y17749D01*
D02*
G37*
G36*
X22400Y17830D02*
X22250Y17810D01*
X22110Y17752D01*
X21990Y17660D01*
X21898Y17540D01*
X21840Y17400D01*
X21820Y17250D01*
X21840Y17100D01*
X21898Y16960D01*
X21990Y16840D01*
X22110Y16748D01*
X22250Y16690D01*
X22400Y16670D01*
X22550Y16690D01*
X22690Y16748D01*
X22810Y16840D01*
X22902Y16960D01*
X22960Y17100D01*
X22980Y17250D01*
X22960Y17400D01*
X22902Y17540D01*
X22810Y17660D01*
X22690Y17752D01*
X22550Y17810D01*
X22400Y17830D01*
D02*
G37*
G36*
X25350D02*
X25200Y17810D01*
X25060Y17752D01*
X24940Y17660D01*
X24848Y17540D01*
X24790Y17400D01*
X24770Y17250D01*
X24790Y17100D01*
X24848Y16960D01*
X24940Y16840D01*
X25060Y16748D01*
X25200Y16690D01*
X25350Y16670D01*
X25500Y16690D01*
X25640Y16748D01*
X25760Y16840D01*
X25852Y16960D01*
X25910Y17100D01*
X25930Y17250D01*
X25910Y17400D01*
X25852Y17540D01*
X25760Y17660D01*
X25640Y17752D01*
X25500Y17810D01*
X25350Y17830D01*
D02*
G37*
G36*
X36650Y18573D02*
Y18050D01*
X37173D01*
X37160Y18150D01*
X37102Y18290D01*
X37010Y18410D01*
X36890Y18502D01*
X36750Y18560D01*
X36650Y18573D01*
D02*
G37*
G36*
X6500Y18929D02*
X6389Y18914D01*
X6286Y18871D01*
X6197Y18803D01*
X6129Y18714D01*
X6086Y18611D01*
X6071Y18500D01*
X6086Y18389D01*
X6129Y18286D01*
X6197Y18197D01*
X6286Y18129D01*
X6389Y18086D01*
X6500Y18071D01*
X6611Y18086D01*
X6714Y18129D01*
X6803Y18197D01*
X6871Y18286D01*
X6914Y18389D01*
X6929Y18500D01*
X6914Y18611D01*
X6871Y18714D01*
X6803Y18803D01*
X6714Y18871D01*
X6611Y18914D01*
X6500Y18929D01*
D02*
G37*
G36*
X36550Y18573D02*
X36450Y18560D01*
X36310Y18502D01*
X36190Y18410D01*
X36098Y18290D01*
X36040Y18150D01*
X36027Y18050D01*
X36550D01*
Y18573D01*
D02*
G37*
G36*
X22400Y19080D02*
X22250Y19060D01*
X22110Y19002D01*
X21990Y18910D01*
X21898Y18790D01*
X21840Y18650D01*
X21820Y18500D01*
X21840Y18350D01*
X21898Y18210D01*
X21990Y18090D01*
X22110Y17998D01*
X22250Y17940D01*
X22400Y17920D01*
X22550Y17940D01*
X22690Y17998D01*
X22810Y18090D01*
X22902Y18210D01*
X22960Y18350D01*
X22980Y18500D01*
X22960Y18650D01*
X22902Y18790D01*
X22810Y18910D01*
X22690Y19002D01*
X22550Y19060D01*
X22400Y19080D01*
D02*
G37*
G36*
X25350D02*
X25200Y19060D01*
X25060Y19002D01*
X24940Y18910D01*
X24848Y18790D01*
X24790Y18650D01*
X24770Y18500D01*
X24790Y18350D01*
X24848Y18210D01*
X24940Y18090D01*
X25060Y17998D01*
X25200Y17940D01*
X25350Y17920D01*
X25500Y17940D01*
X25640Y17998D01*
X25760Y18090D01*
X25852Y18210D01*
X25910Y18350D01*
X25930Y18500D01*
X25910Y18650D01*
X25852Y18790D01*
X25760Y18910D01*
X25640Y19002D01*
X25500Y19060D01*
X25350Y19080D01*
D02*
G37*
G36*
X17023Y18740D02*
X16783Y18500D01*
X17023Y18260D01*
X17060Y18350D01*
X17080Y18500D01*
X17060Y18650D01*
X17023Y18740D01*
D02*
G37*
G36*
X19973D02*
X19733Y18500D01*
X19973Y18260D01*
X20010Y18350D01*
X20030Y18500D01*
X20010Y18650D01*
X19973Y18740D01*
D02*
G37*
G36*
X10040Y18929D02*
X9929Y18914D01*
X9826Y18871D01*
X9737Y18803D01*
X9669Y18714D01*
X9626Y18611D01*
X9611Y18500D01*
X9626Y18389D01*
X9669Y18286D01*
X9737Y18197D01*
X9826Y18129D01*
X9929Y18086D01*
X10040Y18071D01*
X10151Y18086D01*
X10254Y18129D01*
X10343Y18197D01*
X10411Y18286D01*
X10454Y18389D01*
X10469Y18500D01*
X10454Y18611D01*
X10411Y18714D01*
X10343Y18803D01*
X10254Y18871D01*
X10151Y18914D01*
X10040Y18929D01*
D02*
G37*
G36*
X7680D02*
X7569Y18914D01*
X7466Y18871D01*
X7377Y18803D01*
X7309Y18714D01*
X7266Y18611D01*
X7251Y18500D01*
X7266Y18389D01*
X7309Y18286D01*
X7377Y18197D01*
X7466Y18129D01*
X7569Y18086D01*
X7680Y18071D01*
X7791Y18086D01*
X7894Y18129D01*
X7983Y18197D01*
X8051Y18286D01*
X8094Y18389D01*
X8109Y18500D01*
X8094Y18611D01*
X8051Y18714D01*
X7983Y18803D01*
X7894Y18871D01*
X7791Y18914D01*
X7680Y18929D01*
D02*
G37*
G36*
X8860D02*
X8749Y18914D01*
X8646Y18871D01*
X8557Y18803D01*
X8489Y18714D01*
X8446Y18611D01*
X8431Y18500D01*
X8446Y18389D01*
X8489Y18286D01*
X8557Y18197D01*
X8646Y18129D01*
X8749Y18086D01*
X8860Y18071D01*
X8971Y18086D01*
X9074Y18129D01*
X9163Y18197D01*
X9231Y18286D01*
X9274Y18389D01*
X9289Y18500D01*
X9274Y18611D01*
X9231Y18714D01*
X9163Y18803D01*
X9074Y18871D01*
X8971Y18914D01*
X8860Y18929D01*
D02*
G37*
G36*
X37173Y17950D02*
X36650D01*
Y17427D01*
X36750Y17440D01*
X36890Y17498D01*
X37010Y17590D01*
X37102Y17710D01*
X37160Y17850D01*
X37173Y17950D01*
D02*
G37*
G36*
X16500Y17830D02*
X16350Y17810D01*
X16260Y17773D01*
X16500Y17533D01*
X16740Y17773D01*
X16650Y17810D01*
X16500Y17830D01*
D02*
G37*
G36*
X36550Y17950D02*
X36027D01*
X36040Y17850D01*
X36098Y17710D01*
X36190Y17590D01*
X36310Y17498D01*
X36450Y17440D01*
X36550Y17427D01*
Y17950D01*
D02*
G37*
G36*
X39550Y18580D02*
X39400Y18560D01*
X39260Y18502D01*
X39140Y18410D01*
X39048Y18290D01*
X38990Y18150D01*
X38970Y18000D01*
X38990Y17850D01*
X39048Y17710D01*
X39140Y17590D01*
X39260Y17498D01*
X39400Y17440D01*
X39550Y17420D01*
X39700Y17440D01*
X39840Y17498D01*
X39960Y17590D01*
X40052Y17710D01*
X40110Y17850D01*
X40130Y18000D01*
X40110Y18150D01*
X40052Y18290D01*
X39960Y18410D01*
X39840Y18502D01*
X39700Y18560D01*
X39550Y18580D01*
D02*
G37*
G36*
X42500D02*
X42350Y18560D01*
X42210Y18502D01*
X42090Y18410D01*
X41998Y18290D01*
X41940Y18150D01*
X41920Y18000D01*
X41940Y17850D01*
X41998Y17710D01*
X42090Y17590D01*
X42210Y17498D01*
X42350Y17440D01*
X42500Y17420D01*
X42650Y17440D01*
X42790Y17498D01*
X42910Y17590D01*
X43002Y17710D01*
X43060Y17850D01*
X43080Y18000D01*
X43060Y18150D01*
X43002Y18290D01*
X42910Y18410D01*
X42790Y18502D01*
X42650Y18560D01*
X42500Y18580D01*
D02*
G37*
G36*
X16500Y18217D02*
X16260Y17977D01*
X16350Y17940D01*
X16500Y17920D01*
X16650Y17940D01*
X16740Y17977D01*
X16500Y18217D01*
D02*
G37*
G36*
X19450D02*
X19210Y17977D01*
X19300Y17940D01*
X19450Y17920D01*
X19600Y17940D01*
X19690Y17977D01*
X19450Y18217D01*
D02*
G37*
G36*
X27220Y19293D02*
X27085Y19280D01*
X26955Y19241D01*
X26835Y19176D01*
X26730Y19090D01*
X26644Y18985D01*
X26579Y18865D01*
X26540Y18735D01*
X26527Y18600D01*
X26540Y18465D01*
X26579Y18335D01*
X26644Y18215D01*
X26730Y18110D01*
X26835Y18024D01*
X26955Y17959D01*
X27085Y17920D01*
X27220Y17907D01*
X27355Y17920D01*
X27485Y17959D01*
X27605Y18024D01*
X27710Y18110D01*
X27796Y18215D01*
X27861Y18335D01*
X27900Y18465D01*
X27913Y18600D01*
X27900Y18735D01*
X27861Y18865D01*
X27796Y18985D01*
X27710Y19090D01*
X27605Y19176D01*
X27485Y19241D01*
X27355Y19280D01*
X27220Y19293D01*
D02*
G37*
G36*
X19450Y17830D02*
X19300Y17810D01*
X19210Y17773D01*
X19450Y17533D01*
X19690Y17773D01*
X19600Y17810D01*
X19450Y17830D01*
D02*
G37*
G36*
X14630Y19293D02*
X14495Y19280D01*
X14365Y19241D01*
X14245Y19176D01*
X14140Y19090D01*
X14054Y18985D01*
X13989Y18865D01*
X13950Y18735D01*
X13937Y18600D01*
X13950Y18465D01*
X13989Y18335D01*
X14054Y18215D01*
X14140Y18110D01*
X14245Y18024D01*
X14365Y17959D01*
X14495Y17920D01*
X14630Y17907D01*
X14765Y17920D01*
X14895Y17959D01*
X15015Y18024D01*
X15120Y18110D01*
X15206Y18215D01*
X15271Y18335D01*
X15310Y18465D01*
X15323Y18600D01*
X15310Y18735D01*
X15271Y18865D01*
X15206Y18985D01*
X15120Y19090D01*
X15015Y19176D01*
X14895Y19241D01*
X14765Y19280D01*
X14630Y19293D01*
D02*
G37*
G36*
X35550Y41997D02*
Y41550D01*
X35997D01*
X35987Y41630D01*
X35936Y41752D01*
X35856Y41856D01*
X35752Y41936D01*
X35630Y41987D01*
X35550Y41997D01*
D02*
G37*
G36*
X62915Y56240D02*
Y56050D01*
X63104D01*
X63095Y56096D01*
X63041Y56177D01*
X62960Y56231D01*
X62915Y56240D01*
D02*
G37*
G36*
X64500Y60102D02*
X61500D01*
X61461Y60094D01*
X61428Y60072D01*
X61406Y60039D01*
X61398Y60000D01*
Y57000D01*
X61406Y56961D01*
X61428Y56928D01*
X61461Y56906D01*
X61500Y56898D01*
X64086D01*
X64108Y56853D01*
X64082Y56820D01*
X64042Y56723D01*
X64028Y56618D01*
X64042Y56514D01*
X64082Y56416D01*
X64147Y56332D01*
X64230Y56268D01*
X64328Y56228D01*
X64432Y56214D01*
X64537Y56228D01*
X64634Y56268D01*
X64718Y56332D01*
X64782Y56416D01*
X64823Y56514D01*
X64836Y56618D01*
X64823Y56723D01*
X64782Y56820D01*
X64718Y56904D01*
X64634Y56968D01*
X64599Y56983D01*
X64602Y57000D01*
Y60000D01*
X64594Y60039D01*
X64572Y60072D01*
X64539Y60094D01*
X64500Y60102D01*
D02*
G37*
G36*
X62815Y56240D02*
X62769Y56231D01*
X62688Y56177D01*
X62634Y56096D01*
X62625Y56050D01*
X62815D01*
Y56240D01*
D02*
G37*
G36*
Y55950D02*
X62625D01*
X62634Y55904D01*
X62688Y55823D01*
X62769Y55769D01*
X62815Y55760D01*
Y55950D01*
D02*
G37*
G36*
X63104D02*
X62915D01*
Y55760D01*
X62960Y55769D01*
X63041Y55823D01*
X63095Y55904D01*
X63104Y55950D01*
D02*
G37*
G36*
X11100Y59804D02*
X10970Y59787D01*
X10848Y59736D01*
X10744Y59656D01*
X10664Y59552D01*
X10613Y59430D01*
X10596Y59300D01*
X10613Y59170D01*
X10664Y59048D01*
X10744Y58944D01*
X10848Y58864D01*
X10970Y58813D01*
X11100Y58796D01*
X11230Y58813D01*
X11352Y58864D01*
X11456Y58944D01*
X11536Y59048D01*
X11587Y59170D01*
X11604Y59300D01*
X11587Y59430D01*
X11536Y59552D01*
X11456Y59656D01*
X11352Y59736D01*
X11230Y59787D01*
X11100Y59804D01*
D02*
G37*
G36*
X13100D02*
X12970Y59787D01*
X12848Y59736D01*
X12744Y59656D01*
X12664Y59552D01*
X12613Y59430D01*
X12596Y59300D01*
X12613Y59170D01*
X12664Y59048D01*
X12744Y58944D01*
X12848Y58864D01*
X12970Y58813D01*
X13100Y58796D01*
X13230Y58813D01*
X13352Y58864D01*
X13456Y58944D01*
X13536Y59048D01*
X13587Y59170D01*
X13604Y59300D01*
X13587Y59430D01*
X13536Y59552D01*
X13456Y59656D01*
X13352Y59736D01*
X13230Y59787D01*
X13100Y59804D01*
D02*
G37*
G36*
X20500Y60602D02*
X17500D01*
X17461Y60594D01*
X17428Y60572D01*
X17406Y60539D01*
X17398Y60500D01*
Y57500D01*
X17406Y57461D01*
X17428Y57428D01*
X17461Y57406D01*
X17500Y57398D01*
X20500D01*
X20539Y57406D01*
X20572Y57428D01*
X20594Y57461D01*
X20602Y57500D01*
Y60500D01*
X20594Y60539D01*
X20572Y60572D01*
X20539Y60594D01*
X20500Y60602D01*
D02*
G37*
G36*
X11100Y57804D02*
X10970Y57787D01*
X10848Y57736D01*
X10744Y57656D01*
X10664Y57552D01*
X10613Y57430D01*
X10596Y57300D01*
X10613Y57170D01*
X10664Y57048D01*
X10744Y56944D01*
X10848Y56864D01*
X10970Y56813D01*
X11100Y56796D01*
X11230Y56813D01*
X11352Y56864D01*
X11456Y56944D01*
X11536Y57048D01*
X11587Y57170D01*
X11604Y57300D01*
X11587Y57430D01*
X11536Y57552D01*
X11456Y57656D01*
X11352Y57736D01*
X11230Y57787D01*
X11100Y57804D01*
D02*
G37*
G36*
X13100D02*
X12970Y57787D01*
X12848Y57736D01*
X12744Y57656D01*
X12664Y57552D01*
X12613Y57430D01*
X12596Y57300D01*
X12613Y57170D01*
X12664Y57048D01*
X12744Y56944D01*
X12848Y56864D01*
X12970Y56813D01*
X13100Y56796D01*
X13230Y56813D01*
X13352Y56864D01*
X13456Y56944D01*
X13536Y57048D01*
X13587Y57170D01*
X13604Y57300D01*
X13587Y57430D01*
X13536Y57552D01*
X13456Y57656D01*
X13352Y57736D01*
X13230Y57787D01*
X13100Y57804D01*
D02*
G37*
G36*
X21950Y55450D02*
X21503D01*
X21513Y55370D01*
X21564Y55248D01*
X21644Y55144D01*
X21748Y55064D01*
X21870Y55013D01*
X21950Y55003D01*
Y55450D01*
D02*
G37*
G36*
X20497D02*
X20050D01*
Y55003D01*
X20130Y55013D01*
X20252Y55064D01*
X20356Y55144D01*
X20436Y55248D01*
X20487Y55370D01*
X20497Y55450D01*
D02*
G37*
G36*
X19950D02*
X19503D01*
X19513Y55370D01*
X19564Y55248D01*
X19644Y55144D01*
X19748Y55064D01*
X19870Y55013D01*
X19950Y55003D01*
Y55450D01*
D02*
G37*
G36*
X11100Y55804D02*
X10970Y55787D01*
X10848Y55736D01*
X10744Y55656D01*
X10664Y55552D01*
X10613Y55430D01*
X10596Y55300D01*
X10613Y55170D01*
X10664Y55048D01*
X10744Y54944D01*
X10848Y54864D01*
X10970Y54813D01*
X11100Y54796D01*
X11230Y54813D01*
X11352Y54864D01*
X11456Y54944D01*
X11536Y55048D01*
X11587Y55170D01*
X11604Y55300D01*
X11587Y55430D01*
X11536Y55552D01*
X11456Y55656D01*
X11352Y55736D01*
X11230Y55787D01*
X11100Y55804D01*
D02*
G37*
G36*
X13100D02*
X12970Y55787D01*
X12848Y55736D01*
X12744Y55656D01*
X12664Y55552D01*
X12613Y55430D01*
X12596Y55300D01*
X12613Y55170D01*
X12664Y55048D01*
X12744Y54944D01*
X12848Y54864D01*
X12970Y54813D01*
X13100Y54796D01*
X13230Y54813D01*
X13352Y54864D01*
X13456Y54944D01*
X13536Y55048D01*
X13587Y55170D01*
X13604Y55300D01*
X13587Y55430D01*
X13536Y55552D01*
X13456Y55656D01*
X13352Y55736D01*
X13230Y55787D01*
X13100Y55804D01*
D02*
G37*
G36*
X20050Y55997D02*
Y55550D01*
X20497D01*
X20487Y55630D01*
X20436Y55752D01*
X20356Y55856D01*
X20252Y55936D01*
X20130Y55987D01*
X20050Y55997D01*
D02*
G37*
G36*
X22050D02*
Y55550D01*
X22497D01*
X22487Y55630D01*
X22436Y55752D01*
X22356Y55856D01*
X22252Y55936D01*
X22130Y55987D01*
X22050Y55997D01*
D02*
G37*
G36*
X21950D02*
X21870Y55987D01*
X21748Y55936D01*
X21644Y55856D01*
X21564Y55752D01*
X21513Y55630D01*
X21503Y55550D01*
X21950D01*
Y55997D01*
D02*
G37*
G36*
X22497Y55450D02*
X22050D01*
Y55003D01*
X22130Y55013D01*
X22252Y55064D01*
X22356Y55144D01*
X22436Y55248D01*
X22487Y55370D01*
X22497Y55450D01*
D02*
G37*
G36*
X19950Y55997D02*
X19870Y55987D01*
X19748Y55936D01*
X19644Y55856D01*
X19564Y55752D01*
X19513Y55630D01*
X19503Y55550D01*
X19950D01*
Y55997D01*
D02*
G37*
G36*
X23000Y68403D02*
X22896Y68390D01*
X22798Y68349D01*
X22715Y68285D01*
X22651Y68202D01*
X22610Y68104D01*
X22597Y68000D01*
X22610Y67896D01*
X22651Y67798D01*
X22715Y67715D01*
X22798Y67651D01*
X22896Y67610D01*
X23000Y67597D01*
X23104Y67610D01*
X23202Y67651D01*
X23285Y67715D01*
X23349Y67798D01*
X23390Y67896D01*
X23403Y68000D01*
X23390Y68104D01*
X23349Y68202D01*
X23285Y68285D01*
X23202Y68349D01*
X23104Y68390D01*
X23000Y68403D01*
D02*
G37*
G36*
Y70403D02*
X22896Y70390D01*
X22798Y70349D01*
X22737Y70303D01*
X22263D01*
X22202Y70349D01*
X22104Y70390D01*
X22000Y70403D01*
X21896Y70390D01*
X21798Y70349D01*
X21715Y70285D01*
X21651Y70202D01*
X21610Y70104D01*
X21597Y70000D01*
X21610Y69896D01*
X21651Y69798D01*
X21715Y69715D01*
X21798Y69651D01*
X21896Y69610D01*
X22000Y69597D01*
X22104Y69610D01*
X22202Y69651D01*
X22263Y69697D01*
X22737D01*
X22798Y69651D01*
X22896Y69610D01*
X23000Y69597D01*
X23104Y69610D01*
X23202Y69651D01*
X23285Y69715D01*
X23349Y69798D01*
X23390Y69896D01*
X23403Y70000D01*
X23390Y70104D01*
X23349Y70202D01*
X23285Y70285D01*
X23202Y70349D01*
X23104Y70390D01*
X23000Y70403D01*
D02*
G37*
G36*
X22000Y68403D02*
X21896Y68390D01*
X21798Y68349D01*
X21715Y68285D01*
X21651Y68202D01*
X21610Y68104D01*
X21597Y68000D01*
X21610Y67896D01*
X21651Y67798D01*
X21715Y67715D01*
X21798Y67651D01*
X21896Y67610D01*
X22000Y67597D01*
X22104Y67610D01*
X22202Y67651D01*
X22285Y67715D01*
X22349Y67798D01*
X22390Y67896D01*
X22403Y68000D01*
X22390Y68104D01*
X22349Y68202D01*
X22285Y68285D01*
X22202Y68349D01*
X22104Y68390D01*
X22000Y68403D01*
D02*
G37*
G36*
X11500Y68602D02*
X8500D01*
X8461Y68594D01*
X8428Y68572D01*
X8406Y68539D01*
X8398Y68500D01*
Y65500D01*
X8406Y65461D01*
X8428Y65428D01*
X8461Y65406D01*
X8500Y65398D01*
X11500D01*
X11539Y65406D01*
X11572Y65428D01*
X11594Y65461D01*
X11602Y65500D01*
Y68500D01*
X11594Y68539D01*
X11572Y68572D01*
X11539Y68594D01*
X11500Y68602D01*
D02*
G37*
G36*
X23000Y66403D02*
X22896Y66390D01*
X22798Y66349D01*
X22737Y66303D01*
X22263D01*
X22202Y66349D01*
X22104Y66390D01*
X22000Y66403D01*
X21896Y66390D01*
X21798Y66349D01*
X21715Y66285D01*
X21651Y66202D01*
X21610Y66104D01*
X21597Y66000D01*
X21610Y65896D01*
X21651Y65798D01*
X21715Y65715D01*
X21798Y65651D01*
X21896Y65610D01*
X22000Y65597D01*
X22104Y65610D01*
X22202Y65651D01*
X22263Y65697D01*
X22737D01*
X22798Y65651D01*
X22896Y65610D01*
X23000Y65597D01*
X23104Y65610D01*
X23202Y65651D01*
X23285Y65715D01*
X23349Y65798D01*
X23390Y65896D01*
X23403Y66000D01*
X23390Y66104D01*
X23349Y66202D01*
X23285Y66285D01*
X23202Y66349D01*
X23104Y66390D01*
X23000Y66403D01*
D02*
G37*
G36*
X7000Y73903D02*
X6896Y73890D01*
X6798Y73849D01*
X6715Y73785D01*
X6651Y73702D01*
X6610Y73604D01*
X6597Y73500D01*
X6610Y73396D01*
X6651Y73298D01*
X6715Y73215D01*
X6798Y73151D01*
X6896Y73110D01*
X7000Y73097D01*
X7104Y73110D01*
X7202Y73151D01*
X7285Y73215D01*
X7349Y73298D01*
X7390Y73396D01*
X7403Y73500D01*
X7390Y73604D01*
X7349Y73702D01*
X7285Y73785D01*
X7202Y73849D01*
X7104Y73890D01*
X7000Y73903D01*
D02*
G37*
G36*
X23000D02*
X22896Y73890D01*
X22798Y73849D01*
X22737Y73803D01*
X22263D01*
X22202Y73849D01*
X22104Y73890D01*
X22000Y73903D01*
X21896Y73890D01*
X21798Y73849D01*
X21715Y73785D01*
X21651Y73702D01*
X21610Y73604D01*
X21597Y73500D01*
X21610Y73396D01*
X21651Y73298D01*
X21715Y73215D01*
X21798Y73151D01*
X21896Y73110D01*
X22000Y73097D01*
X22104Y73110D01*
X22202Y73151D01*
X22263Y73197D01*
X22737D01*
X22798Y73151D01*
X22896Y73110D01*
X23000Y73097D01*
X23104Y73110D01*
X23202Y73151D01*
X23285Y73215D01*
X23349Y73298D01*
X23390Y73396D01*
X23403Y73500D01*
X23390Y73604D01*
X23349Y73702D01*
X23285Y73785D01*
X23202Y73849D01*
X23104Y73890D01*
X23000Y73903D01*
D02*
G37*
G36*
Y72903D02*
X22896Y72890D01*
X22798Y72849D01*
X22737Y72803D01*
X22263D01*
X22202Y72849D01*
X22104Y72890D01*
X22000Y72903D01*
X21896Y72890D01*
X21798Y72849D01*
X21715Y72785D01*
X21651Y72702D01*
X21610Y72604D01*
X21597Y72500D01*
X21610Y72396D01*
X21651Y72298D01*
X21715Y72215D01*
X21798Y72151D01*
X21896Y72110D01*
X22000Y72097D01*
X22104Y72110D01*
X22202Y72151D01*
X22263Y72197D01*
X22737D01*
X22798Y72151D01*
X22896Y72110D01*
X23000Y72097D01*
X23104Y72110D01*
X23202Y72151D01*
X23285Y72215D01*
X23349Y72298D01*
X23390Y72396D01*
X23403Y72500D01*
X23390Y72604D01*
X23349Y72702D01*
X23285Y72785D01*
X23202Y72849D01*
X23104Y72890D01*
X23000Y72903D01*
D02*
G37*
G36*
Y71403D02*
X22896Y71390D01*
X22798Y71349D01*
X22737Y71303D01*
X22263D01*
X22202Y71349D01*
X22104Y71390D01*
X22000Y71403D01*
X21896Y71390D01*
X21798Y71349D01*
X21715Y71285D01*
X21651Y71202D01*
X21610Y71104D01*
X21597Y71000D01*
X21610Y70896D01*
X21651Y70798D01*
X21715Y70715D01*
X21798Y70651D01*
X21896Y70610D01*
X22000Y70597D01*
X22104Y70610D01*
X22202Y70651D01*
X22263Y70697D01*
X22737D01*
X22798Y70651D01*
X22896Y70610D01*
X23000Y70597D01*
X23104Y70610D01*
X23202Y70651D01*
X23285Y70715D01*
X23349Y70798D01*
X23390Y70896D01*
X23403Y71000D01*
X23390Y71104D01*
X23349Y71202D01*
X23285Y71285D01*
X23202Y71349D01*
X23104Y71390D01*
X23000Y71403D01*
D02*
G37*
G36*
X7000Y72903D02*
X6896Y72890D01*
X6798Y72849D01*
X6715Y72785D01*
X6651Y72702D01*
X6610Y72604D01*
X6597Y72500D01*
X6610Y72396D01*
X6651Y72298D01*
X6715Y72215D01*
X6798Y72151D01*
X6896Y72110D01*
X7000Y72097D01*
X7104Y72110D01*
X7202Y72151D01*
X7285Y72215D01*
X7349Y72298D01*
X7390Y72396D01*
X7403Y72500D01*
X7390Y72604D01*
X7349Y72702D01*
X7285Y72785D01*
X7202Y72849D01*
X7104Y72890D01*
X7000Y72903D01*
D02*
G37*
G36*
X25400Y62800D02*
X25304Y62781D01*
X25223Y62727D01*
X25169Y62646D01*
X25150Y62550D01*
X25169Y62454D01*
X25223Y62373D01*
X25296Y62325D01*
Y62158D01*
X25246Y62131D01*
X25232Y62139D01*
X25231Y62146D01*
X25177Y62227D01*
X25096Y62281D01*
X25000Y62300D01*
X24904Y62281D01*
X24823Y62227D01*
X24769Y62146D01*
X24750Y62050D01*
X24769Y61954D01*
X24823Y61873D01*
X24896Y61825D01*
Y60636D01*
X24869Y60596D01*
X24850Y60500D01*
X24869Y60404D01*
X24923Y60323D01*
X25004Y60269D01*
X25100Y60250D01*
X25196Y60269D01*
X25277Y60323D01*
X25323D01*
X25404Y60269D01*
X25500Y60250D01*
X25596Y60269D01*
X25677Y60323D01*
X25731Y60404D01*
X25750Y60500D01*
X25731Y60596D01*
X25704Y60636D01*
Y62450D01*
X25688Y62528D01*
X25644Y62594D01*
X25640Y62598D01*
X25631Y62646D01*
X25577Y62727D01*
X25496Y62781D01*
X25400Y62800D01*
D02*
G37*
G36*
X48000D02*
X47904Y62781D01*
X47823Y62727D01*
X47769Y62646D01*
X47750Y62550D01*
X47769Y62454D01*
X47796Y62414D01*
Y62274D01*
X47746Y62247D01*
X47696Y62281D01*
X47600Y62300D01*
X47504Y62281D01*
X47423Y62227D01*
X47369Y62146D01*
X47350Y62050D01*
X47369Y61954D01*
X47396Y61914D01*
Y60736D01*
X47369Y60696D01*
X47350Y60600D01*
X47369Y60504D01*
X47423Y60423D01*
X47504Y60369D01*
X47600Y60350D01*
X47696Y60369D01*
X47777Y60423D01*
X47823D01*
X47904Y60369D01*
X48000Y60350D01*
X48096Y60369D01*
X48167Y60417D01*
X48200Y60421D01*
X48233Y60417D01*
X48304Y60369D01*
X48400Y60350D01*
X48496Y60369D01*
X48577Y60423D01*
X48631Y60504D01*
X48650Y60600D01*
X48631Y60696D01*
X48604Y60736D01*
Y61414D01*
X48631Y61454D01*
X48650Y61550D01*
X48631Y61646D01*
X48577Y61727D01*
X48496Y61781D01*
X48400Y61800D01*
X48304Y61781D01*
X48254Y61747D01*
X48204Y61774D01*
Y62414D01*
X48231Y62454D01*
X48250Y62550D01*
X48231Y62646D01*
X48177Y62727D01*
X48096Y62781D01*
X48000Y62800D01*
D02*
G37*
G36*
X13100Y61804D02*
X12970Y61787D01*
X12848Y61736D01*
X12744Y61656D01*
X12664Y61552D01*
X12613Y61430D01*
X12596Y61300D01*
X12613Y61170D01*
X12664Y61048D01*
X12744Y60944D01*
X12848Y60864D01*
X12970Y60813D01*
X13100Y60796D01*
X13230Y60813D01*
X13352Y60864D01*
X13456Y60944D01*
X13536Y61048D01*
X13587Y61170D01*
X13604Y61300D01*
X13587Y61430D01*
X13536Y61552D01*
X13456Y61656D01*
X13352Y61736D01*
X13230Y61787D01*
X13100Y61804D01*
D02*
G37*
G36*
X37500Y61849D02*
X37422Y61839D01*
X37349Y61809D01*
X37286Y61760D01*
X37238Y61698D01*
X37208Y61625D01*
X37197Y61546D01*
Y60500D01*
X37208Y60422D01*
X37238Y60349D01*
X37286Y60286D01*
X37349Y60238D01*
X37422Y60208D01*
X37500Y60197D01*
X37578Y60208D01*
X37651Y60238D01*
X37714Y60286D01*
X37762Y60349D01*
X37792Y60422D01*
X37803Y60500D01*
Y61546D01*
X37792Y61625D01*
X37762Y61698D01*
X37714Y61760D01*
X37651Y61809D01*
X37578Y61839D01*
X37500Y61849D01*
D02*
G37*
G36*
X11100Y61804D02*
X10970Y61787D01*
X10848Y61736D01*
X10744Y61656D01*
X10664Y61552D01*
X10613Y61430D01*
X10596Y61300D01*
X10613Y61170D01*
X10664Y61048D01*
X10744Y60944D01*
X10848Y60864D01*
X10970Y60813D01*
X11100Y60796D01*
X11230Y60813D01*
X11352Y60864D01*
X11456Y60944D01*
X11536Y61048D01*
X11587Y61170D01*
X11604Y61300D01*
X11587Y61430D01*
X11536Y61552D01*
X11456Y61656D01*
X11352Y61736D01*
X11230Y61787D01*
X11100Y61804D01*
D02*
G37*
G36*
X20500Y66803D02*
X20422Y66792D01*
X20349Y66762D01*
X20286Y66714D01*
X18686Y65114D01*
X18638Y65051D01*
X18608Y64978D01*
X18597Y64900D01*
X18608Y64822D01*
X18638Y64749D01*
X18686Y64686D01*
X18749Y64638D01*
X18822Y64608D01*
X18900Y64597D01*
X18978Y64608D01*
X19051Y64638D01*
X19114Y64686D01*
X20714Y66286D01*
X20762Y66349D01*
X20792Y66422D01*
X20803Y66500D01*
X20792Y66578D01*
X20762Y66651D01*
X20714Y66714D01*
X20651Y66762D01*
X20578Y66792D01*
X20500Y66803D01*
D02*
G37*
G36*
X23000Y65403D02*
X22896Y65390D01*
X22798Y65349D01*
X22737Y65303D01*
X22263D01*
X22202Y65349D01*
X22104Y65390D01*
X22000Y65403D01*
X21896Y65390D01*
X21798Y65349D01*
X21715Y65285D01*
X21651Y65202D01*
X21610Y65104D01*
X21597Y65000D01*
X21610Y64896D01*
X21651Y64798D01*
X21715Y64715D01*
X21798Y64651D01*
X21896Y64610D01*
X22000Y64597D01*
X22104Y64610D01*
X22202Y64651D01*
X22263Y64697D01*
X22737D01*
X22798Y64651D01*
X22896Y64610D01*
X23000Y64597D01*
X23104Y64610D01*
X23202Y64651D01*
X23285Y64715D01*
X23349Y64798D01*
X23390Y64896D01*
X23403Y65000D01*
X23390Y65104D01*
X23349Y65202D01*
X23285Y65285D01*
X23202Y65349D01*
X23104Y65390D01*
X23000Y65403D01*
D02*
G37*
G36*
X13100Y63804D02*
X12970Y63787D01*
X12848Y63736D01*
X12744Y63656D01*
X12664Y63552D01*
X12613Y63430D01*
X12596Y63300D01*
X12613Y63170D01*
X12664Y63048D01*
X12744Y62944D01*
X12848Y62864D01*
X12970Y62813D01*
X13100Y62796D01*
X13230Y62813D01*
X13352Y62864D01*
X13456Y62944D01*
X13536Y63048D01*
X13587Y63170D01*
X13604Y63300D01*
X13587Y63430D01*
X13536Y63552D01*
X13456Y63656D01*
X13352Y63736D01*
X13230Y63787D01*
X13100Y63804D01*
D02*
G37*
G36*
X15500Y62803D02*
X15422Y62792D01*
X15349Y62762D01*
X15286Y62714D01*
X15238Y62651D01*
X15208Y62578D01*
X15197Y62500D01*
Y62283D01*
X15184Y62276D01*
X15147Y62264D01*
X15078Y62292D01*
X15000Y62303D01*
X14922Y62292D01*
X14849Y62262D01*
X14786Y62214D01*
X14738Y62151D01*
X14708Y62078D01*
X14697Y62000D01*
Y60000D01*
X14708Y59922D01*
X14738Y59849D01*
X14786Y59786D01*
X14849Y59738D01*
X14922Y59708D01*
X15000Y59697D01*
X15078Y59708D01*
X15151Y59738D01*
X15214Y59786D01*
X15225Y59800D01*
X15275D01*
X15286Y59786D01*
X15349Y59738D01*
X15422Y59708D01*
X15500Y59697D01*
X15578Y59708D01*
X15651Y59738D01*
X15714Y59786D01*
X15762Y59849D01*
X15792Y59922D01*
X15803Y60000D01*
Y62500D01*
X15792Y62578D01*
X15762Y62651D01*
X15714Y62714D01*
X15651Y62762D01*
X15578Y62792D01*
X15500Y62803D01*
D02*
G37*
G36*
X11100Y63804D02*
X10970Y63787D01*
X10848Y63736D01*
X10744Y63656D01*
X10664Y63552D01*
X10613Y63430D01*
X10596Y63300D01*
X10613Y63170D01*
X10664Y63048D01*
X10744Y62944D01*
X10848Y62864D01*
X10970Y62813D01*
X11100Y62796D01*
X11230Y62813D01*
X11352Y62864D01*
X11456Y62944D01*
X11536Y63048D01*
X11587Y63170D01*
X11604Y63300D01*
X11587Y63430D01*
X11536Y63552D01*
X11456Y63656D01*
X11352Y63736D01*
X11230Y63787D01*
X11100Y63804D01*
D02*
G37*
G36*
X13150Y53797D02*
Y53350D01*
X13597D01*
X13587Y53430D01*
X13536Y53552D01*
X13456Y53656D01*
X13352Y53736D01*
X13230Y53787D01*
X13150Y53797D01*
D02*
G37*
G36*
X50432Y47322D02*
X50328Y47308D01*
X50230Y47268D01*
X50147Y47204D01*
X50082Y47120D01*
X50042Y47023D01*
X50028Y46918D01*
X50042Y46814D01*
X50082Y46716D01*
X50147Y46632D01*
X50230Y46568D01*
X50328Y46528D01*
X50432Y46514D01*
X50537Y46528D01*
X50634Y46568D01*
X50718Y46632D01*
X50782Y46716D01*
X50823Y46814D01*
X50836Y46918D01*
X50823Y47023D01*
X50782Y47120D01*
X50718Y47204D01*
X50634Y47268D01*
X50537Y47308D01*
X50432Y47322D01*
D02*
G37*
G36*
X53200Y46950D02*
X53104Y46931D01*
X53023Y46877D01*
X52978Y46808D01*
X52967Y46806D01*
X52933D01*
X52922Y46808D01*
X52877Y46877D01*
X52796Y46931D01*
X52700Y46950D01*
X52604Y46931D01*
X52523Y46877D01*
X52469Y46796D01*
X52450Y46700D01*
X52469Y46604D01*
X52496Y46564D01*
Y45536D01*
X52469Y45496D01*
X52450Y45400D01*
X52469Y45304D01*
X52523Y45223D01*
X52604Y45169D01*
X52700Y45150D01*
X52796Y45169D01*
X52877Y45223D01*
X52922Y45292D01*
X52933Y45294D01*
X52967D01*
X52978Y45292D01*
X53023Y45223D01*
X53104Y45169D01*
X53200Y45150D01*
X53296Y45169D01*
X53377Y45223D01*
X53431Y45304D01*
X53450Y45400D01*
X53431Y45496D01*
X53404Y45536D01*
Y46564D01*
X53431Y46604D01*
X53450Y46700D01*
X53431Y46796D01*
X53377Y46877D01*
X53296Y46931D01*
X53200Y46950D01*
D02*
G37*
G36*
X48915Y46540D02*
Y46350D01*
X49104D01*
X49095Y46396D01*
X49041Y46477D01*
X48960Y46531D01*
X48915Y46540D01*
D02*
G37*
G36*
X49104Y46250D02*
X48915D01*
Y46060D01*
X48960Y46069D01*
X49041Y46123D01*
X49095Y46204D01*
X49104Y46250D01*
D02*
G37*
G36*
X48815Y46540D02*
X48769Y46531D01*
X48688Y46477D01*
X48634Y46396D01*
X48625Y46350D01*
X48815D01*
Y46540D01*
D02*
G37*
G36*
X50500Y50602D02*
X47500D01*
X47461Y50594D01*
X47428Y50572D01*
X47406Y50539D01*
X47398Y50500D01*
Y47500D01*
X47406Y47461D01*
X47428Y47428D01*
X47461Y47406D01*
X47500Y47398D01*
X50500D01*
X50539Y47406D01*
X50572Y47428D01*
X50594Y47461D01*
X50602Y47500D01*
Y50500D01*
X50594Y50539D01*
X50572Y50572D01*
X50539Y50594D01*
X50500Y50602D01*
D02*
G37*
G36*
X64432Y51209D02*
X64347Y51197D01*
X64267Y51164D01*
X64199Y51112D01*
X64146Y51043D01*
X64113Y50964D01*
X64102Y50878D01*
X64113Y50792D01*
X64146Y50713D01*
X64193Y50652D01*
X64179Y50602D01*
X61500D01*
X61461Y50594D01*
X61428Y50572D01*
X61406Y50539D01*
X61398Y50500D01*
Y47500D01*
X61406Y47461D01*
X61428Y47428D01*
X61461Y47406D01*
X61500Y47398D01*
X64500D01*
X64539Y47406D01*
X64572Y47428D01*
X64594Y47461D01*
X64602Y47500D01*
Y50500D01*
X64594Y50539D01*
X64598Y50592D01*
X64609Y50600D01*
X64666Y50644D01*
X64719Y50713D01*
X64752Y50792D01*
X64763Y50878D01*
X64752Y50964D01*
X64719Y51043D01*
X64666Y51112D01*
X64598Y51164D01*
X64518Y51197D01*
X64432Y51209D01*
D02*
G37*
G36*
X61000Y47750D02*
X60904Y47731D01*
X60823Y47677D01*
X60769Y47596D01*
X60750Y47500D01*
X60769Y47404D01*
X60796Y47364D01*
Y47027D01*
X60796Y47024D01*
X60746Y47019D01*
X60744Y47029D01*
X60731Y47096D01*
X60677Y47177D01*
X60596Y47231D01*
X60500Y47250D01*
X60404Y47231D01*
X60323Y47177D01*
X60269Y47096D01*
X60250Y47000D01*
X60269Y46904D01*
X60296Y46864D01*
Y45536D01*
X60269Y45496D01*
X60250Y45400D01*
X60269Y45304D01*
X60323Y45223D01*
X60404Y45169D01*
X60500Y45150D01*
X60596Y45169D01*
X60677Y45223D01*
X60722Y45292D01*
X60733Y45294D01*
X60767D01*
X60778Y45292D01*
X60823Y45223D01*
X60904Y45169D01*
X61000Y45150D01*
X61096Y45169D01*
X61177Y45223D01*
X61222Y45292D01*
X61233Y45294D01*
X61267D01*
X61278Y45292D01*
X61323Y45223D01*
X61404Y45169D01*
X61500Y45150D01*
X61596Y45169D01*
X61677Y45223D01*
X61731Y45304D01*
X61750Y45400D01*
X61731Y45496D01*
X61704Y45536D01*
Y46464D01*
X61731Y46504D01*
X61750Y46600D01*
X61731Y46696D01*
X61677Y46777D01*
X61596Y46831D01*
X61500Y46850D01*
X61404Y46831D01*
X61323Y46777D01*
X61269Y46696D01*
X61256Y46629D01*
X61254Y46619D01*
X61204Y46624D01*
X61204Y46627D01*
Y47364D01*
X61231Y47404D01*
X61250Y47500D01*
X61231Y47596D01*
X61177Y47677D01*
X61096Y47731D01*
X61000Y47750D01*
D02*
G37*
G36*
X20000Y48004D02*
X19870Y47987D01*
X19748Y47936D01*
X19644Y47856D01*
X19564Y47752D01*
X19513Y47630D01*
X19496Y47500D01*
X19513Y47370D01*
X19564Y47248D01*
X19644Y47144D01*
X19748Y47064D01*
X19870Y47013D01*
X20000Y46996D01*
X20130Y47013D01*
X20252Y47064D01*
X20356Y47144D01*
X20436Y47248D01*
X20487Y47370D01*
X20504Y47500D01*
X20487Y47630D01*
X20436Y47752D01*
X20356Y47856D01*
X20252Y47936D01*
X20130Y47987D01*
X20000Y48004D01*
D02*
G37*
G36*
X22000D02*
X21870Y47987D01*
X21748Y47936D01*
X21644Y47856D01*
X21564Y47752D01*
X21513Y47630D01*
X21496Y47500D01*
X21513Y47370D01*
X21564Y47248D01*
X21644Y47144D01*
X21748Y47064D01*
X21870Y47013D01*
X22000Y46996D01*
X22130Y47013D01*
X22252Y47064D01*
X22356Y47144D01*
X22436Y47248D01*
X22487Y47370D01*
X22504Y47500D01*
X22487Y47630D01*
X22436Y47752D01*
X22356Y47856D01*
X22252Y47936D01*
X22130Y47987D01*
X22000Y48004D01*
D02*
G37*
G36*
X52050Y42040D02*
Y41850D01*
X52240D01*
X52231Y41896D01*
X52177Y41977D01*
X52096Y42031D01*
X52050Y42040D01*
D02*
G37*
G36*
X20000Y44004D02*
X19870Y43987D01*
X19748Y43936D01*
X19644Y43856D01*
X19564Y43752D01*
X19513Y43630D01*
X19496Y43500D01*
X19513Y43370D01*
X19564Y43248D01*
X19644Y43144D01*
X19748Y43064D01*
X19870Y43013D01*
X20000Y42996D01*
X20130Y43013D01*
X20252Y43064D01*
X20356Y43144D01*
X20436Y43248D01*
X20487Y43370D01*
X20504Y43500D01*
X20487Y43630D01*
X20436Y43752D01*
X20356Y43856D01*
X20252Y43936D01*
X20130Y43987D01*
X20000Y44004D01*
D02*
G37*
G36*
X51950Y42040D02*
X51904Y42031D01*
X51823Y41977D01*
X51769Y41896D01*
X51760Y41850D01*
X51950D01*
Y42040D01*
D02*
G37*
G36*
Y41750D02*
X51760D01*
X51769Y41704D01*
X51823Y41623D01*
X51904Y41569D01*
X51950Y41560D01*
Y41750D01*
D02*
G37*
G36*
X52240D02*
X52050D01*
Y41560D01*
X52096Y41569D01*
X52177Y41623D01*
X52231Y41704D01*
X52240Y41750D01*
D02*
G37*
G36*
X22000Y46004D02*
X21870Y45987D01*
X21748Y45936D01*
X21644Y45856D01*
X21564Y45752D01*
X21513Y45630D01*
X21496Y45500D01*
X21513Y45370D01*
X21564Y45248D01*
X21644Y45144D01*
X21748Y45064D01*
X21870Y45013D01*
X22000Y44996D01*
X22130Y45013D01*
X22252Y45064D01*
X22356Y45144D01*
X22436Y45248D01*
X22487Y45370D01*
X22504Y45500D01*
X22487Y45630D01*
X22436Y45752D01*
X22356Y45856D01*
X22252Y45936D01*
X22130Y45987D01*
X22000Y46004D01*
D02*
G37*
G36*
X48815Y46250D02*
X48625D01*
X48634Y46204D01*
X48688Y46123D01*
X48769Y46069D01*
X48815Y46060D01*
Y46250D01*
D02*
G37*
G36*
X20000Y46004D02*
X19870Y45987D01*
X19748Y45936D01*
X19644Y45856D01*
X19564Y45752D01*
X19513Y45630D01*
X19496Y45500D01*
X19513Y45370D01*
X19564Y45248D01*
X19644Y45144D01*
X19748Y45064D01*
X19870Y45013D01*
X20000Y44996D01*
X20130Y45013D01*
X20252Y45064D01*
X20356Y45144D01*
X20436Y45248D01*
X20487Y45370D01*
X20504Y45500D01*
X20487Y45630D01*
X20436Y45752D01*
X20356Y45856D01*
X20252Y45936D01*
X20130Y45987D01*
X20000Y46004D01*
D02*
G37*
G36*
X22000Y44004D02*
X21870Y43987D01*
X21748Y43936D01*
X21644Y43856D01*
X21564Y43752D01*
X21513Y43630D01*
X21496Y43500D01*
X21513Y43370D01*
X21564Y43248D01*
X21644Y43144D01*
X21748Y43064D01*
X21870Y43013D01*
X22000Y42996D01*
X22130Y43013D01*
X22252Y43064D01*
X22356Y43144D01*
X22436Y43248D01*
X22487Y43370D01*
X22504Y43500D01*
X22487Y43630D01*
X22436Y43752D01*
X22356Y43856D01*
X22252Y43936D01*
X22130Y43987D01*
X22000Y44004D01*
D02*
G37*
G36*
X34000Y46602D02*
X31000D01*
X30961Y46594D01*
X30928Y46572D01*
X30906Y46539D01*
X30898Y46500D01*
Y43500D01*
X30906Y43461D01*
X30928Y43428D01*
X30961Y43406D01*
X31000Y43398D01*
X34000D01*
X34039Y43406D01*
X34072Y43428D01*
X34094Y43461D01*
X34102Y43500D01*
Y46500D01*
X34094Y46539D01*
X34072Y46572D01*
X34039Y46594D01*
X34000Y46602D01*
D02*
G37*
G36*
X13597Y53250D02*
X13150D01*
Y52803D01*
X13230Y52813D01*
X13352Y52864D01*
X13456Y52944D01*
X13536Y53048D01*
X13587Y53170D01*
X13597Y53250D01*
D02*
G37*
G36*
X20000Y54004D02*
X19870Y53987D01*
X19748Y53936D01*
X19644Y53856D01*
X19564Y53752D01*
X19513Y53630D01*
X19496Y53500D01*
X19513Y53370D01*
X19564Y53248D01*
X19644Y53144D01*
X19748Y53064D01*
X19870Y53013D01*
X20000Y52996D01*
X20130Y53013D01*
X20252Y53064D01*
X20356Y53144D01*
X20436Y53248D01*
X20487Y53370D01*
X20504Y53500D01*
X20487Y53630D01*
X20436Y53752D01*
X20356Y53856D01*
X20252Y53936D01*
X20130Y53987D01*
X20000Y54004D01*
D02*
G37*
G36*
X11597Y53250D02*
X11150D01*
Y52803D01*
X11230Y52813D01*
X11352Y52864D01*
X11456Y52944D01*
X11536Y53048D01*
X11587Y53170D01*
X11597Y53250D01*
D02*
G37*
G36*
X11050D02*
X10603D01*
X10613Y53170D01*
X10664Y53048D01*
X10744Y52944D01*
X10848Y52864D01*
X10970Y52813D01*
X11050Y52803D01*
Y53250D01*
D02*
G37*
G36*
X13050D02*
X12603D01*
X12613Y53170D01*
X12664Y53048D01*
X12744Y52944D01*
X12848Y52864D01*
X12970Y52813D01*
X13050Y52803D01*
Y53250D01*
D02*
G37*
G36*
Y53797D02*
X12970Y53787D01*
X12848Y53736D01*
X12744Y53656D01*
X12664Y53552D01*
X12613Y53430D01*
X12603Y53350D01*
X13050D01*
Y53797D01*
D02*
G37*
G36*
X11150D02*
Y53350D01*
X11597D01*
X11587Y53430D01*
X11536Y53552D01*
X11456Y53656D01*
X11352Y53736D01*
X11230Y53787D01*
X11150Y53797D01*
D02*
G37*
G36*
X11050D02*
X10970Y53787D01*
X10848Y53736D01*
X10744Y53656D01*
X10664Y53552D01*
X10613Y53430D01*
X10603Y53350D01*
X11050D01*
Y53797D01*
D02*
G37*
G36*
X22000Y54004D02*
X21870Y53987D01*
X21748Y53936D01*
X21644Y53856D01*
X21564Y53752D01*
X21513Y53630D01*
X21496Y53500D01*
X21513Y53370D01*
X21564Y53248D01*
X21644Y53144D01*
X21748Y53064D01*
X21870Y53013D01*
X22000Y52996D01*
X22130Y53013D01*
X22252Y53064D01*
X22356Y53144D01*
X22436Y53248D01*
X22487Y53370D01*
X22504Y53500D01*
X22487Y53630D01*
X22436Y53752D01*
X22356Y53856D01*
X22252Y53936D01*
X22130Y53987D01*
X22000Y54004D01*
D02*
G37*
G36*
X61000Y53250D02*
X60904Y53231D01*
X60864Y53204D01*
X59886D01*
X59846Y53231D01*
X59750Y53250D01*
X59654Y53231D01*
X59573Y53177D01*
X59519Y53096D01*
X59500Y53000D01*
X59519Y52904D01*
X59573Y52823D01*
X59654Y52769D01*
X59750Y52750D01*
X59846Y52769D01*
X59886Y52796D01*
X60864D01*
X60904Y52769D01*
X61000Y52750D01*
X61096Y52769D01*
X61177Y52823D01*
X61231Y52904D01*
X61250Y53000D01*
X61231Y53096D01*
X61177Y53177D01*
X61096Y53231D01*
X61000Y53250D01*
D02*
G37*
G36*
X65150Y50650D02*
X64960D01*
X64969Y50604D01*
X65023Y50523D01*
X65104Y50469D01*
X65150Y50460D01*
Y50650D01*
D02*
G37*
G36*
X65440D02*
X65250D01*
Y50460D01*
X65296Y50469D01*
X65377Y50523D01*
X65431Y50604D01*
X65440Y50650D01*
D02*
G37*
G36*
X22000Y50004D02*
X21870Y49987D01*
X21748Y49936D01*
X21644Y49856D01*
X21564Y49752D01*
X21513Y49630D01*
X21496Y49500D01*
X21513Y49370D01*
X21564Y49248D01*
X21644Y49144D01*
X21748Y49064D01*
X21870Y49013D01*
X22000Y48996D01*
X22130Y49013D01*
X22252Y49064D01*
X22356Y49144D01*
X22436Y49248D01*
X22487Y49370D01*
X22504Y49500D01*
X22487Y49630D01*
X22436Y49752D01*
X22356Y49856D01*
X22252Y49936D01*
X22130Y49987D01*
X22000Y50004D01*
D02*
G37*
G36*
X11500Y51102D02*
X8500D01*
X8461Y51094D01*
X8428Y51072D01*
X8406Y51039D01*
X8398Y51000D01*
Y48000D01*
X8406Y47961D01*
X8428Y47928D01*
X8461Y47906D01*
X8500Y47898D01*
X11500D01*
X11539Y47906D01*
X11572Y47928D01*
X11594Y47961D01*
X11602Y48000D01*
Y51000D01*
X11594Y51039D01*
X11572Y51072D01*
X11539Y51094D01*
X11500Y51102D01*
D02*
G37*
G36*
X20000Y50004D02*
X19870Y49987D01*
X19748Y49936D01*
X19644Y49856D01*
X19564Y49752D01*
X19513Y49630D01*
X19496Y49500D01*
X19513Y49370D01*
X19564Y49248D01*
X19644Y49144D01*
X19748Y49064D01*
X19870Y49013D01*
X20000Y48996D01*
X20130Y49013D01*
X20252Y49064D01*
X20356Y49144D01*
X20436Y49248D01*
X20487Y49370D01*
X20504Y49500D01*
X20487Y49630D01*
X20436Y49752D01*
X20356Y49856D01*
X20252Y49936D01*
X20130Y49987D01*
X20000Y50004D01*
D02*
G37*
G36*
X22000Y52004D02*
X21870Y51987D01*
X21748Y51936D01*
X21644Y51856D01*
X21564Y51752D01*
X21513Y51630D01*
X21496Y51500D01*
X21513Y51370D01*
X21564Y51248D01*
X21644Y51144D01*
X21748Y51064D01*
X21870Y51013D01*
X22000Y50996D01*
X22130Y51013D01*
X22252Y51064D01*
X22356Y51144D01*
X22436Y51248D01*
X22487Y51370D01*
X22504Y51500D01*
X22487Y51630D01*
X22436Y51752D01*
X22356Y51856D01*
X22252Y51936D01*
X22130Y51987D01*
X22000Y52004D01*
D02*
G37*
G36*
X25100Y54150D02*
X25004Y54131D01*
X24923Y54077D01*
X24869Y53996D01*
X24850Y53900D01*
X24869Y53804D01*
X24896Y53764D01*
Y53136D01*
X24869Y53096D01*
X24850Y53000D01*
X24869Y52904D01*
X24923Y52823D01*
X25004Y52769D01*
X25100Y52750D01*
X25196Y52769D01*
X25277Y52823D01*
X25331Y52904D01*
X25350Y53000D01*
X25331Y53096D01*
X25304Y53136D01*
Y53764D01*
X25331Y53804D01*
X25350Y53900D01*
X25331Y53996D01*
X25277Y54077D01*
X25196Y54131D01*
X25100Y54150D01*
D02*
G37*
G36*
X20000Y52004D02*
X19870Y51987D01*
X19748Y51936D01*
X19644Y51856D01*
X19564Y51752D01*
X19513Y51630D01*
X19496Y51500D01*
X19513Y51370D01*
X19564Y51248D01*
X19644Y51144D01*
X19748Y51064D01*
X19870Y51013D01*
X20000Y50996D01*
X20130Y51013D01*
X20252Y51064D01*
X20356Y51144D01*
X20436Y51248D01*
X20487Y51370D01*
X20504Y51500D01*
X20487Y51630D01*
X20436Y51752D01*
X20356Y51856D01*
X20252Y51936D01*
X20130Y51987D01*
X20000Y52004D01*
D02*
G37*
G36*
X65150Y50940D02*
X65104Y50931D01*
X65023Y50877D01*
X64969Y50796D01*
X64960Y50750D01*
X65150D01*
Y50940D01*
D02*
G37*
G36*
X65250D02*
Y50750D01*
X65440D01*
X65431Y50796D01*
X65377Y50877D01*
X65296Y50931D01*
X65250Y50940D01*
D02*
G37*
%LPD*%
D12*
X59750Y53000D02*
X61000D01*
X48000Y60600D02*
Y62550D01*
X47600Y60600D02*
Y62050D01*
X48400Y60600D02*
Y61550D01*
X53200Y45400D02*
Y46700D01*
X52700Y45400D02*
Y46700D01*
X25000Y62050D02*
X25100Y61950D01*
Y60500D02*
Y61950D01*
X61000Y45400D02*
Y47500D01*
X60500Y45400D02*
Y47000D01*
X61500Y45400D02*
Y46600D01*
X25400Y62550D02*
X25500Y62450D01*
Y60500D02*
Y62450D01*
X25100Y53000D02*
Y53900D01*
D13*
X37500Y60500D02*
Y61546D01*
X18900Y64900D02*
X20500Y66500D01*
X22000Y65000D02*
X23000D01*
X22000Y66000D02*
X23000D01*
X22000Y73500D02*
X23000D01*
X22000Y72500D02*
X23000D01*
X22000Y71000D02*
X23000D01*
X22000Y70000D02*
X23000D01*
X15500Y60000D02*
Y62500D01*
X15000Y60000D02*
Y62000D01*
X6000Y22500D02*
X7500Y21000D01*
D16*
X7000Y73500D02*
D03*
Y72500D02*
D03*
X23000Y65000D02*
D03*
X22000D02*
D03*
X23000Y66000D02*
D03*
X22000D02*
D03*
X23000Y70000D02*
D03*
X22000D02*
D03*
X23000Y71000D02*
D03*
X22000D02*
D03*
X23000Y72500D02*
D03*
X22000D02*
D03*
X23000Y73500D02*
D03*
X22000D02*
D03*
X23000Y68000D02*
D03*
X22000D02*
D03*
D17*
X20000Y53500D02*
D03*
Y51500D02*
D03*
X35500Y41500D02*
D03*
Y39500D02*
D03*
Y37500D02*
D03*
Y35500D02*
D03*
Y33500D02*
D03*
Y31500D02*
D03*
X33500D02*
D03*
Y33500D02*
D03*
Y35500D02*
D03*
Y37500D02*
D03*
Y39500D02*
D03*
Y41500D02*
D03*
X20000Y43500D02*
D03*
Y41500D02*
D03*
Y39500D02*
D03*
X22000D02*
D03*
Y41500D02*
D03*
Y43500D02*
D03*
Y37500D02*
D03*
X20000D02*
D03*
X22000Y55500D02*
D03*
Y53500D02*
D03*
Y51500D02*
D03*
Y49500D02*
D03*
Y47500D02*
D03*
Y45500D02*
D03*
X20000D02*
D03*
Y47500D02*
D03*
Y49500D02*
D03*
Y55500D02*
D03*
X13100Y63300D02*
D03*
Y61300D02*
D03*
Y59300D02*
D03*
Y57300D02*
D03*
Y55300D02*
D03*
Y53300D02*
D03*
X11100D02*
D03*
Y55300D02*
D03*
Y57300D02*
D03*
Y59300D02*
D03*
Y61300D02*
D03*
Y63300D02*
D03*
D18*
X14630Y18600D02*
D03*
X27220D02*
D03*
X25350Y17250D02*
D03*
X22400D02*
D03*
X19450D02*
D03*
X16500D02*
D03*
Y18500D02*
D03*
X19450D02*
D03*
X22400D02*
D03*
X25350D02*
D03*
X34730Y17900D02*
D03*
X44370D02*
D03*
X42500Y19250D02*
D03*
X39550D02*
D03*
X36600D02*
D03*
Y18000D02*
D03*
X39550D02*
D03*
X42500D02*
D03*
D19*
X28484Y11500D02*
D03*
D20*
X27500D02*
D03*
D21*
X8860Y18500D02*
D03*
Y17320D02*
D03*
X10040D02*
D03*
X7680D02*
D03*
X6500D02*
D03*
X10040Y18500D02*
D03*
X7680D02*
D03*
X6500Y18500D02*
D03*
D22*
X61000Y53000D02*
D03*
X59750D02*
D03*
X48000Y62550D02*
D03*
X25400D02*
D03*
X47600Y62050D02*
D03*
X25000D02*
D03*
X48400Y61550D02*
D03*
X48000Y60600D02*
D03*
X47600D02*
D03*
X37500Y61546D02*
D03*
X18900Y64900D02*
D03*
X20500Y66500D02*
D03*
X25100Y53000D02*
D03*
X15500Y60000D02*
D03*
X15000D02*
D03*
Y62000D02*
D03*
X61000Y47500D02*
D03*
X60500Y47000D02*
D03*
X37500Y60500D02*
D03*
X53200Y46700D02*
D03*
Y45400D02*
D03*
X52700Y46700D02*
D03*
Y45400D02*
D03*
X48400Y60600D02*
D03*
X15500Y62500D02*
D03*
X6000Y22500D02*
D03*
X7500Y21000D02*
D03*
X52000Y41800D02*
D03*
X48865Y46300D02*
D03*
X65200Y50700D02*
D03*
X62865Y56000D02*
D03*
X25100Y60500D02*
D03*
X61500Y46600D02*
D03*
X61000Y45400D02*
D03*
X60500D02*
D03*
X61500D02*
D03*
X25500Y60500D02*
D03*
X25100Y53900D02*
D03*
D23*
X63000Y58500D02*
D03*
Y49000D02*
D03*
X49000D02*
D03*
Y39000D02*
D03*
X32500Y27500D02*
D03*
Y45000D02*
D03*
X10000Y67000D02*
D03*
Y49500D02*
D03*
X19000Y59000D02*
D03*
X18500Y34000D02*
D03*
M02*
