M48
;Layer_Color=9474304
;FILE_FORMAT=2:4
INCH,TZ
;TYPE=PLATED
T1F00S00C0.0150
T2F00S00C0.0400
T3F00S00C0.0444
T4F00S00C0.0450
T5F00S00C0.0456
T6F00S00C0.0472
T7F00S00C0.0601
T8F00S00C0.0602
T9F00S00C0.0750
T10F00S00C0.1180
%
T01
X6000Y22500
X7500Y21000
X52000Y41800
X52700Y45400
X53200
Y46700
X52700
X60500Y47000
X61000Y47500
X61500Y46600
Y45400
X61000
X60500
X48865Y46300
X15500Y60000
X15000
Y62000
X15500Y62500
X25400Y62550
X25000Y62050
X25100Y60500
X25500
X25100Y53900
Y53000
X37500Y60500
Y61546
X47600Y62050
X48000Y62550
X48400Y61550
Y60600
X48000
X47600
X59750Y53000
X61000
X62865Y56000
X65200Y50700
X18900Y64900
X20500Y66500
T02
X5320Y18870
X11220
X22000Y65000
X23000
Y66000
X22000
Y68000
X23000
Y70000
X22000
Y71000
X23000
Y72500
X22000
Y73500
X23000
X7000
Y72500
T03
X27500Y11500
X28484
T04
X6500Y17320
Y18500
X7680Y18500
X8860
Y17320
X10040
Y18500
X7680Y17320
T05
X50432Y41178
X64432Y50878
T06
X29114Y10634
T07
X50432Y46918
X64432Y56618
T08
X33500Y31500
X35500
Y33500
Y35500
Y37500
Y39500
Y41500
X33500
Y39500
Y37500
Y35500
Y33500
X22000Y37500
Y39500
X20000
Y41500
Y43500
X22000
Y41500
Y45500
Y47500
X20000
Y45500
Y37500
X13100Y53300
Y55300
Y57300
Y59300
Y61300
Y63300
X11100
Y61300
Y59300
Y57300
Y55300
Y53300
X20000Y53500
Y51500
X22000
Y53500
Y55500
X20000
Y49500
X22000
T09
X16500Y17250
Y18500
X19450
Y17250
X22400
Y18500
X25350
Y17250
X36600Y18000
Y19250
X39550
Y18000
X42500
Y19250
T10
X14630Y18600
X27220
X34730Y17900
X44370
M30
