G04 Layer_Color=16711935*
%FSLAX24Y24*%
%MOIN*%
G70*
G01*
G75*
%ADD28C,0.0680*%
%ADD29C,0.0879*%
%ADD30C,0.1030*%
%ADD31C,0.0080*%
%ADD32C,0.0724*%
%ADD33R,0.0724X0.0724*%
%ADD34C,0.0730*%
D28*
X7000Y73500D02*
D03*
Y72500D02*
D03*
X23000Y65000D02*
D03*
X22000D02*
D03*
X23000Y66000D02*
D03*
X22000D02*
D03*
X23000Y70000D02*
D03*
X22000D02*
D03*
X23000Y71000D02*
D03*
X22000D02*
D03*
X23000Y72500D02*
D03*
X22000D02*
D03*
X23000Y73500D02*
D03*
X22000D02*
D03*
X23000Y68000D02*
D03*
X22000D02*
D03*
D29*
X20000Y53500D02*
D03*
Y51500D02*
D03*
X35500Y41500D02*
D03*
Y39500D02*
D03*
Y37500D02*
D03*
Y35500D02*
D03*
Y33500D02*
D03*
Y31500D02*
D03*
X33500D02*
D03*
Y33500D02*
D03*
Y35500D02*
D03*
Y37500D02*
D03*
Y39500D02*
D03*
Y41500D02*
D03*
X20000Y43500D02*
D03*
Y41500D02*
D03*
Y39500D02*
D03*
X22000D02*
D03*
Y41500D02*
D03*
Y43500D02*
D03*
Y37500D02*
D03*
X20000D02*
D03*
X22000Y55500D02*
D03*
Y53500D02*
D03*
Y51500D02*
D03*
Y49500D02*
D03*
Y47500D02*
D03*
Y45500D02*
D03*
X20000D02*
D03*
Y47500D02*
D03*
Y49500D02*
D03*
Y55500D02*
D03*
X13100Y63300D02*
D03*
Y61300D02*
D03*
Y59300D02*
D03*
Y57300D02*
D03*
Y55300D02*
D03*
Y53300D02*
D03*
X11100D02*
D03*
Y55300D02*
D03*
Y57300D02*
D03*
Y59300D02*
D03*
Y61300D02*
D03*
Y63300D02*
D03*
D30*
X14630Y18600D02*
D03*
X27220D02*
D03*
X25350Y17250D02*
D03*
X22400D02*
D03*
X19450D02*
D03*
X16500D02*
D03*
Y18500D02*
D03*
X19450D02*
D03*
X22400D02*
D03*
X25350D02*
D03*
X34730Y17900D02*
D03*
X44370D02*
D03*
X42500Y19250D02*
D03*
X39550D02*
D03*
X36600D02*
D03*
Y18000D02*
D03*
X39550D02*
D03*
X42500D02*
D03*
D31*
X29114Y10634D02*
D03*
X11220Y18870D02*
D03*
X5320D02*
D03*
X64432Y56618D02*
D03*
Y50878D02*
D03*
X50432Y41178D02*
D03*
Y46918D02*
D03*
D32*
X28484Y11500D02*
D03*
D33*
X27500D02*
D03*
D34*
X8860Y18500D02*
D03*
Y17320D02*
D03*
X10040D02*
D03*
X7680D02*
D03*
X6500D02*
D03*
X10040Y18500D02*
D03*
X7680D02*
D03*
X6500Y18500D02*
D03*
M02*
