G04 Layer_Color=8421504*
%FSLAX24Y24*%
%MOIN*%
G70*
G01*
G75*
%ADD10R,0.0492X0.0472*%
%ADD11R,0.0315X0.0374*%
%ADD12R,0.0374X0.0315*%
%ADD13R,0.0236X0.0433*%
%ADD14R,0.0591X0.0315*%
%ADD15O,0.0689X0.0217*%
%ADD16O,0.0217X0.0689*%
D10*
X59000Y5800D02*
D03*
X58311D02*
D03*
X59044Y4800D02*
D03*
X58356D02*
D03*
D11*
X56100Y4700D02*
D03*
X55431D02*
D03*
X56100Y5800D02*
D03*
X55431D02*
D03*
D12*
X61700Y9985D02*
D03*
Y9315D02*
D03*
X53200Y9985D02*
D03*
Y9315D02*
D03*
X44700Y9985D02*
D03*
Y9315D02*
D03*
X36200Y9985D02*
D03*
Y9315D02*
D03*
X27700Y9985D02*
D03*
Y9315D02*
D03*
X19200Y9985D02*
D03*
Y9315D02*
D03*
X57177Y10485D02*
D03*
Y9815D02*
D03*
X48677Y10485D02*
D03*
Y9815D02*
D03*
X40177Y10485D02*
D03*
Y9815D02*
D03*
X31677Y10485D02*
D03*
Y9815D02*
D03*
X23177Y10485D02*
D03*
Y9815D02*
D03*
X14677Y10573D02*
D03*
Y9904D02*
D03*
X61700Y11315D02*
D03*
Y11985D02*
D03*
X53200Y11315D02*
D03*
Y11985D02*
D03*
X44700Y11315D02*
D03*
Y11985D02*
D03*
X36200Y11315D02*
D03*
Y11985D02*
D03*
X27700Y11315D02*
D03*
Y11985D02*
D03*
X19200Y11315D02*
D03*
Y11985D02*
D03*
X57200Y11985D02*
D03*
Y11315D02*
D03*
X48700Y11985D02*
D03*
Y11315D02*
D03*
X40200Y11985D02*
D03*
Y11315D02*
D03*
X31700Y11985D02*
D03*
Y11315D02*
D03*
X23200Y11985D02*
D03*
Y11315D02*
D03*
X14700Y11985D02*
D03*
Y11315D02*
D03*
X40500Y5335D02*
D03*
Y4665D02*
D03*
D13*
X39374Y4449D02*
D03*
X39000D02*
D03*
X38626D02*
D03*
Y5551D02*
D03*
X39374D02*
D03*
D14*
X15600Y11550D02*
D03*
Y11050D02*
D03*
Y10550D02*
D03*
Y10050D02*
D03*
X18061Y11550D02*
D03*
Y11050D02*
D03*
Y10550D02*
D03*
Y10050D02*
D03*
X24100Y11550D02*
D03*
Y11050D02*
D03*
Y10550D02*
D03*
Y10050D02*
D03*
X26561Y11550D02*
D03*
Y11050D02*
D03*
Y10550D02*
D03*
Y10050D02*
D03*
X32600Y11550D02*
D03*
Y11050D02*
D03*
Y10550D02*
D03*
Y10050D02*
D03*
X35061Y11550D02*
D03*
Y11050D02*
D03*
Y10550D02*
D03*
Y10050D02*
D03*
X41100Y11550D02*
D03*
Y11050D02*
D03*
Y10550D02*
D03*
Y10050D02*
D03*
X43561Y11550D02*
D03*
Y11050D02*
D03*
Y10550D02*
D03*
Y10050D02*
D03*
X49600Y11550D02*
D03*
Y11050D02*
D03*
Y10550D02*
D03*
Y10050D02*
D03*
X52061Y11550D02*
D03*
Y11050D02*
D03*
Y10550D02*
D03*
Y10050D02*
D03*
X58100Y11550D02*
D03*
Y11050D02*
D03*
Y10550D02*
D03*
Y10050D02*
D03*
X60561Y11550D02*
D03*
Y11050D02*
D03*
Y10550D02*
D03*
Y10050D02*
D03*
D15*
X45276Y1425D02*
D03*
Y1740D02*
D03*
Y2055D02*
D03*
Y2370D02*
D03*
Y2685D02*
D03*
Y3000D02*
D03*
Y3315D02*
D03*
Y3630D02*
D03*
Y3945D02*
D03*
Y4260D02*
D03*
Y4575D02*
D03*
X49724D02*
D03*
Y4260D02*
D03*
Y3945D02*
D03*
Y3630D02*
D03*
Y3315D02*
D03*
Y3000D02*
D03*
Y2685D02*
D03*
Y2370D02*
D03*
Y2055D02*
D03*
Y1740D02*
D03*
Y1425D02*
D03*
D16*
X45925Y5224D02*
D03*
X46240D02*
D03*
X46555D02*
D03*
X46870D02*
D03*
X47185D02*
D03*
X47500D02*
D03*
X47815D02*
D03*
X48130D02*
D03*
X48445D02*
D03*
X48760D02*
D03*
X49075D02*
D03*
Y776D02*
D03*
X48760D02*
D03*
X48445D02*
D03*
X48130D02*
D03*
X47815D02*
D03*
X47500D02*
D03*
X47185D02*
D03*
X46870D02*
D03*
X46555D02*
D03*
X46240D02*
D03*
X45925D02*
D03*
M02*
