G04 Layer_Color=32896*
%FSLAX24Y24*%
%MOIN*%
G70*
G01*
G75*
%ADD18C,0.0100*%
%ADD37C,0.0079*%
%ADD41C,0.0070*%
D18*
X58500Y18000D02*
Y22000D01*
X50000Y18000D02*
Y22000D01*
X41500Y18000D02*
Y22000D01*
X33000Y18000D02*
Y22000D01*
X24500Y18000D02*
Y22000D01*
X16000Y18000D02*
Y22000D01*
X28293Y4572D02*
X28236Y4600D01*
X28179Y4657D01*
X28150Y4714D01*
Y4829D01*
X28179Y4886D01*
X28236Y4943D01*
X28293Y4971D01*
X28379Y5000D01*
X28521D01*
X28607Y4971D01*
X28664Y4943D01*
X28721Y4886D01*
X28750Y4829D01*
Y4714D01*
X28721Y4657D01*
X28664Y4600D01*
X28607Y4572D01*
X28521D01*
Y4714D02*
Y4572D01*
X28150Y4434D02*
X28750D01*
X28150D02*
X28750Y4034D01*
X28150D02*
X28750D01*
X28150Y3869D02*
X28750D01*
X28150D02*
Y3669D01*
X28179Y3583D01*
X28236Y3526D01*
X28293Y3497D01*
X28379Y3469D01*
X28521D01*
X28607Y3497D01*
X28664Y3526D01*
X28721Y3583D01*
X28750Y3669D01*
Y3869D01*
X26236Y4600D02*
X26179Y4657D01*
X26150Y4743D01*
Y4857D01*
X26179Y4943D01*
X26236Y5000D01*
X26293D01*
X26350Y4971D01*
X26379Y4943D01*
X26407Y4886D01*
X26464Y4714D01*
X26493Y4657D01*
X26521Y4629D01*
X26579Y4600D01*
X26664D01*
X26721Y4657D01*
X26750Y4743D01*
Y4857D01*
X26721Y4943D01*
X26664Y5000D01*
X26293Y4037D02*
X26236Y4066D01*
X26179Y4123D01*
X26150Y4180D01*
Y4294D01*
X26179Y4352D01*
X26236Y4409D01*
X26293Y4437D01*
X26379Y4466D01*
X26521D01*
X26607Y4437D01*
X26664Y4409D01*
X26721Y4352D01*
X26750Y4294D01*
Y4180D01*
X26721Y4123D01*
X26664Y4066D01*
X26607Y4037D01*
X26150Y3869D02*
X26750D01*
Y3526D01*
X24236Y4600D02*
X24179Y4657D01*
X24150Y4743D01*
Y4857D01*
X24179Y4943D01*
X24236Y5000D01*
X24293D01*
X24350Y4971D01*
X24379Y4943D01*
X24407Y4886D01*
X24464Y4714D01*
X24493Y4657D01*
X24521Y4629D01*
X24579Y4600D01*
X24664D01*
X24721Y4657D01*
X24750Y4743D01*
Y4857D01*
X24721Y4943D01*
X24664Y5000D01*
X24150Y4466D02*
X24750D01*
X24150D02*
Y4266D01*
X24179Y4180D01*
X24236Y4123D01*
X24293Y4094D01*
X24379Y4066D01*
X24521D01*
X24607Y4094D01*
X24664Y4123D01*
X24721Y4180D01*
X24750Y4266D01*
Y4466D01*
Y3475D02*
X24150Y3703D01*
X24750Y3932D01*
X24550Y3846D02*
Y3560D01*
X22150Y4657D02*
Y4943D01*
X22407Y4971D01*
X22379Y4943D01*
X22350Y4857D01*
Y4771D01*
X22379Y4686D01*
X22436Y4629D01*
X22521Y4600D01*
X22579D01*
X22664Y4629D01*
X22721Y4686D01*
X22750Y4771D01*
Y4857D01*
X22721Y4943D01*
X22693Y4971D01*
X22636Y5000D01*
X22150Y4466D02*
X22750Y4237D01*
X22150Y4009D02*
X22750Y4237D01*
X22150Y3460D02*
X22750D01*
X22150Y3335D02*
X22750D01*
X22150D02*
X22750Y2935D01*
X22150D02*
X22750D01*
X20264Y5000D02*
X20236Y4943D01*
X20150Y4857D01*
X20750D01*
X20293Y4532D02*
X20264D01*
X20207Y4503D01*
X20179Y4474D01*
X20150Y4417D01*
Y4303D01*
X20179Y4246D01*
X20207Y4217D01*
X20264Y4189D01*
X20322D01*
X20379Y4217D01*
X20464Y4274D01*
X20750Y4560D01*
Y4160D01*
X20150Y4026D02*
X20750Y3797D01*
X20150Y3569D02*
X20750Y3797D01*
X20150Y3020D02*
X20750D01*
X20150Y2895D02*
X20750D01*
X20150D02*
X20750Y2495D01*
X20150D02*
X20750D01*
X18293Y4971D02*
X18264D01*
X18207Y4943D01*
X18179Y4914D01*
X18150Y4857D01*
Y4743D01*
X18179Y4686D01*
X18207Y4657D01*
X18264Y4629D01*
X18322D01*
X18379Y4657D01*
X18464Y4714D01*
X18750Y5000D01*
Y4600D01*
X18150Y4180D02*
X18550Y4466D01*
Y4037D01*
X18150Y4180D02*
X18750D01*
X18150Y3932D02*
X18750Y3703D01*
X18150Y3475D02*
X18750Y3703D01*
X18150Y2926D02*
X18750D01*
X18150Y2800D02*
X18750D01*
X18150D02*
X18750Y2401D01*
X18150D02*
X18750D01*
D37*
X38138Y4961D02*
Y5039D01*
X37862Y4961D02*
Y5039D01*
X39138Y4961D02*
Y5039D01*
X38862Y4961D02*
Y5039D01*
X48101Y2022D02*
X48179D01*
X48101Y2298D02*
X48179D01*
D41*
X15602Y8300D02*
X15402D01*
Y8450D01*
X15502D01*
X15402D01*
Y8600D01*
X15702D02*
X15802D01*
X15752D01*
Y8300D01*
X15702Y8350D01*
X16152Y8300D02*
X15952D01*
Y8450D01*
X16052D01*
X15952D01*
Y8600D01*
X16252Y8650D02*
X16452D01*
X16552Y8600D02*
Y8300D01*
X16652Y8400D01*
X16751Y8300D01*
Y8600D01*
X16851D02*
X16951D01*
X16901D01*
Y8300D01*
X16851Y8350D01*
X24102Y8300D02*
X23902D01*
Y8450D01*
X24002D01*
X23902D01*
Y8600D01*
X24202D02*
X24302D01*
X24252D01*
Y8300D01*
X24202Y8350D01*
X24652Y8300D02*
X24452D01*
Y8450D01*
X24552D01*
X24452D01*
Y8600D01*
X24752Y8650D02*
X24952D01*
X25052Y8600D02*
Y8300D01*
X25152Y8400D01*
X25251Y8300D01*
Y8600D01*
X25551D02*
X25351D01*
X25551Y8400D01*
Y8350D01*
X25501Y8300D01*
X25401D01*
X25351Y8350D01*
X32602Y8300D02*
X32402D01*
Y8450D01*
X32502D01*
X32402D01*
Y8600D01*
X32702D02*
X32802D01*
X32752D01*
Y8300D01*
X32702Y8350D01*
X33152Y8300D02*
X32952D01*
Y8450D01*
X33052D01*
X32952D01*
Y8600D01*
X33252Y8650D02*
X33452D01*
X33552Y8600D02*
Y8300D01*
X33652Y8400D01*
X33751Y8300D01*
Y8600D01*
X33851Y8350D02*
X33901Y8300D01*
X34001D01*
X34051Y8350D01*
Y8400D01*
X34001Y8450D01*
X33951D01*
X34001D01*
X34051Y8500D01*
Y8550D01*
X34001Y8600D01*
X33901D01*
X33851Y8550D01*
X41102Y8300D02*
X40902D01*
Y8450D01*
X41002D01*
X40902D01*
Y8600D01*
X41202D02*
X41302D01*
X41252D01*
Y8300D01*
X41202Y8350D01*
X41652Y8300D02*
X41452D01*
Y8450D01*
X41552D01*
X41452D01*
Y8600D01*
X41752Y8650D02*
X41952D01*
X42052Y8600D02*
Y8300D01*
X42152Y8400D01*
X42251Y8300D01*
Y8600D01*
X42501D02*
Y8300D01*
X42351Y8450D01*
X42551D01*
X48380Y2920D02*
X48430Y2970D01*
X48530D01*
X48580Y2920D01*
Y2720D01*
X48530Y2670D01*
X48430D01*
X48380Y2720D01*
X48280Y2920D02*
X48230Y2970D01*
X48130D01*
X48080Y2920D01*
Y2870D01*
X48130Y2820D01*
X48180D01*
X48130D01*
X48080Y2770D01*
Y2720D01*
X48130Y2670D01*
X48230D01*
X48280Y2720D01*
X47780Y2970D02*
X47980D01*
Y2820D01*
X47880D01*
X47980D01*
Y2670D01*
X38060Y6090D02*
X38110Y6140D01*
X38210D01*
X38260Y6090D01*
Y5890D01*
X38210Y5840D01*
X38110D01*
X38060Y5890D01*
X37760Y5840D02*
X37960D01*
X37760Y6040D01*
Y6090D01*
X37810Y6140D01*
X37910D01*
X37960Y6090D01*
X37460Y6140D02*
X37660D01*
Y5990D01*
X37560D01*
X37660D01*
Y5840D01*
X39060Y6090D02*
X39110Y6140D01*
X39210D01*
X39260Y6090D01*
Y5890D01*
X39210Y5840D01*
X39110D01*
X39060Y5890D01*
X38960Y5840D02*
X38860D01*
X38910D01*
Y6140D01*
X38960Y6090D01*
X38510Y6140D02*
X38710D01*
Y5990D01*
X38610D01*
X38710D01*
Y5840D01*
X58102Y8300D02*
X57902D01*
Y8450D01*
X58002D01*
X57902D01*
Y8600D01*
X58202D02*
X58302D01*
X58252D01*
Y8300D01*
X58202Y8350D01*
X58652Y8300D02*
X58452D01*
Y8450D01*
X58552D01*
X58452D01*
Y8600D01*
X58752Y8650D02*
X58952D01*
X59052Y8600D02*
Y8300D01*
X59152Y8400D01*
X59251Y8300D01*
Y8600D01*
X59551Y8300D02*
X59451Y8350D01*
X59351Y8450D01*
Y8550D01*
X59401Y8600D01*
X59501D01*
X59551Y8550D01*
Y8500D01*
X59501Y8450D01*
X59351D01*
X49602Y8300D02*
X49402D01*
Y8450D01*
X49502D01*
X49402D01*
Y8600D01*
X49702D02*
X49802D01*
X49752D01*
Y8300D01*
X49702Y8350D01*
X50152Y8300D02*
X49952D01*
Y8450D01*
X50052D01*
X49952D01*
Y8600D01*
X50252Y8650D02*
X50452D01*
X50552Y8600D02*
Y8300D01*
X50652Y8400D01*
X50751Y8300D01*
Y8600D01*
X51051Y8300D02*
X50851D01*
Y8450D01*
X50951Y8400D01*
X51001D01*
X51051Y8450D01*
Y8550D01*
X51001Y8600D01*
X50901D01*
X50851Y8550D01*
X15340Y21050D02*
Y21150D01*
Y21100D01*
X15590D01*
X15640Y21150D01*
Y21200D01*
X15590Y21250D01*
X15740Y20950D02*
X15440D01*
Y20800D01*
X15490Y20750D01*
X15590D01*
X15640Y20800D01*
Y20950D01*
Y20650D02*
Y20550D01*
Y20600D01*
X15340D01*
X15390Y20650D01*
X15340Y20200D02*
Y20400D01*
X15490D01*
Y20300D01*
Y20400D01*
X15640D01*
X15690Y20100D02*
Y19900D01*
X15640Y19800D02*
X15340D01*
X15440Y19700D01*
X15340Y19601D01*
X15640D01*
Y19501D02*
Y19401D01*
Y19451D01*
X15340D01*
X15390Y19501D01*
X23840Y21050D02*
Y21150D01*
Y21100D01*
X24090D01*
X24140Y21150D01*
Y21200D01*
X24090Y21250D01*
X24240Y20950D02*
X23940D01*
Y20800D01*
X23990Y20750D01*
X24090D01*
X24140Y20800D01*
Y20950D01*
Y20650D02*
Y20550D01*
Y20600D01*
X23840D01*
X23890Y20650D01*
X23840Y20200D02*
Y20400D01*
X23990D01*
Y20300D01*
Y20400D01*
X24140D01*
X24190Y20100D02*
Y19900D01*
X24140Y19800D02*
X23840D01*
X23940Y19700D01*
X23840Y19601D01*
X24140D01*
Y19301D02*
Y19501D01*
X23940Y19301D01*
X23890D01*
X23840Y19351D01*
Y19451D01*
X23890Y19501D01*
X32340Y21050D02*
Y21150D01*
Y21100D01*
X32590D01*
X32640Y21150D01*
Y21200D01*
X32590Y21250D01*
X32740Y20950D02*
X32440D01*
Y20800D01*
X32490Y20750D01*
X32590D01*
X32640Y20800D01*
Y20950D01*
Y20650D02*
Y20550D01*
Y20600D01*
X32340D01*
X32390Y20650D01*
X32340Y20200D02*
Y20400D01*
X32490D01*
Y20300D01*
Y20400D01*
X32640D01*
X32690Y20100D02*
Y19900D01*
X32640Y19800D02*
X32340D01*
X32440Y19700D01*
X32340Y19601D01*
X32640D01*
X32390Y19501D02*
X32340Y19451D01*
Y19351D01*
X32390Y19301D01*
X32440D01*
X32490Y19351D01*
Y19401D01*
Y19351D01*
X32540Y19301D01*
X32590D01*
X32640Y19351D01*
Y19451D01*
X32590Y19501D01*
X40840Y21050D02*
Y21150D01*
Y21100D01*
X41090D01*
X41140Y21150D01*
Y21200D01*
X41090Y21250D01*
X41240Y20950D02*
X40940D01*
Y20800D01*
X40990Y20750D01*
X41090D01*
X41140Y20800D01*
Y20950D01*
Y20650D02*
Y20550D01*
Y20600D01*
X40840D01*
X40890Y20650D01*
X40840Y20200D02*
Y20400D01*
X40990D01*
Y20300D01*
Y20400D01*
X41140D01*
X41190Y20100D02*
Y19900D01*
X41140Y19800D02*
X40840D01*
X40940Y19700D01*
X40840Y19601D01*
X41140D01*
Y19351D02*
X40840D01*
X40990Y19501D01*
Y19301D01*
X49340Y21050D02*
Y21150D01*
Y21100D01*
X49590D01*
X49640Y21150D01*
Y21200D01*
X49590Y21250D01*
X49740Y20950D02*
X49440D01*
Y20800D01*
X49490Y20750D01*
X49590D01*
X49640Y20800D01*
Y20950D01*
Y20650D02*
Y20550D01*
Y20600D01*
X49340D01*
X49390Y20650D01*
X49340Y20200D02*
Y20400D01*
X49490D01*
Y20300D01*
Y20400D01*
X49640D01*
X49690Y20100D02*
Y19900D01*
X49640Y19800D02*
X49340D01*
X49440Y19700D01*
X49340Y19601D01*
X49640D01*
X49340Y19301D02*
Y19501D01*
X49490D01*
X49440Y19401D01*
Y19351D01*
X49490Y19301D01*
X49590D01*
X49640Y19351D01*
Y19451D01*
X49590Y19501D01*
X57840Y21050D02*
Y21150D01*
Y21100D01*
X58090D01*
X58140Y21150D01*
Y21200D01*
X58090Y21250D01*
X58240Y20950D02*
X57940D01*
Y20800D01*
X57990Y20750D01*
X58090D01*
X58140Y20800D01*
Y20950D01*
Y20650D02*
Y20550D01*
Y20600D01*
X57840D01*
X57890Y20650D01*
X57840Y20200D02*
Y20400D01*
X57990D01*
Y20300D01*
Y20400D01*
X58140D01*
X58190Y20100D02*
Y19900D01*
X58140Y19800D02*
X57840D01*
X57940Y19700D01*
X57840Y19601D01*
X58140D01*
X57840Y19301D02*
X57890Y19401D01*
X57990Y19501D01*
X58090D01*
X58140Y19451D01*
Y19351D01*
X58090Y19301D01*
X58040D01*
X57990Y19351D01*
Y19501D01*
M02*
