G04 Layer_Physical_Order=2*
G04 Layer_Color=16711680*
%FSLAX25Y25*%
%MOIN*%
G70*
G01*
G75*
%ADD10R,0.03740X0.03150*%
%ADD16R,0.03543X0.02953*%
%ADD17C,0.04000*%
%ADD18C,0.01000*%
%ADD19C,0.02000*%
%ADD20C,0.06000*%
%ADD21C,0.07874*%
%ADD22C,0.07992*%
%ADD23C,0.02900*%
%ADD24R,0.02800X0.02800*%
%ADD25R,0.05512X0.08268*%
%ADD26R,0.11000X0.10000*%
%ADD27R,0.02756X0.02756*%
%ADD28R,0.06693X0.04331*%
%ADD29R,0.06693X0.09843*%
%ADD30R,0.48031X0.38386*%
%ADD31R,0.06299X0.13780*%
%ADD32R,0.07874X0.16142*%
%ADD33C,0.26400*%
%ADD34R,0.02362X0.02953*%
G36*
X297961Y2039D02*
X2039D01*
Y99961D01*
X68000D01*
X68780Y100116D01*
X69442Y100558D01*
X69884Y101220D01*
X70039Y102000D01*
Y169961D01*
X201000D01*
X201780Y170116D01*
X202442Y170558D01*
X202884Y171220D01*
X203039Y172000D01*
Y197961D01*
X297961D01*
Y2039D01*
D02*
G37*
%LPC*%
G36*
X219500Y81055D02*
X217228D01*
Y79079D01*
X219500D01*
Y81055D01*
D02*
G37*
G36*
X195000Y79035D02*
X193956Y78897D01*
X192983Y78494D01*
X192147Y77853D01*
X191506Y77017D01*
X191103Y76044D01*
X190965Y75000D01*
X191103Y73956D01*
X191506Y72983D01*
X192147Y72147D01*
X192983Y71506D01*
X193956Y71103D01*
X195000Y70965D01*
X196044Y71103D01*
X197017Y71506D01*
X197853Y72147D01*
X198494Y72983D01*
X198897Y73956D01*
X199035Y75000D01*
X198897Y76044D01*
X198494Y77017D01*
X197853Y77853D01*
X197017Y78494D01*
X196044Y78897D01*
X195000Y79035D01*
D02*
G37*
G36*
X262575Y97220D02*
X255063D01*
Y86953D01*
X257471D01*
Y84925D01*
X257234Y84766D01*
X256692Y83956D01*
X256502Y83000D01*
X256692Y82044D01*
X257234Y81234D01*
X258044Y80692D01*
X259000Y80502D01*
X259956Y80692D01*
X260766Y81234D01*
X260925Y81471D01*
X273075D01*
X273234Y81234D01*
X274044Y80692D01*
X275000Y80502D01*
X275956Y80692D01*
X276766Y81234D01*
X277308Y82044D01*
X277498Y83000D01*
X277308Y83956D01*
X276766Y84766D01*
X275956Y85308D01*
X275000Y85498D01*
X274044Y85308D01*
X273234Y84766D01*
X273075Y84529D01*
X260925D01*
X260766Y84766D01*
X260529Y84925D01*
Y86953D01*
X262575D01*
Y97220D01*
D02*
G37*
G36*
X222772Y81055D02*
X220500D01*
Y79079D01*
X222772D01*
Y81055D01*
D02*
G37*
G36*
X289347Y73480D02*
X285500D01*
Y70815D01*
X289347D01*
Y73480D01*
D02*
G37*
G36*
X284500Y69815D02*
X280654D01*
Y67150D01*
X284500D01*
Y69815D01*
D02*
G37*
G36*
X52000Y69579D02*
Y67000D01*
X54579D01*
X54364Y67520D01*
X53563Y68563D01*
X52520Y69364D01*
X52000Y69579D01*
D02*
G37*
G36*
X284500Y73480D02*
X280654D01*
Y70815D01*
X284500D01*
Y73480D01*
D02*
G37*
G36*
X289347Y69815D02*
X285500D01*
Y67150D01*
X289347D01*
Y69815D01*
D02*
G37*
G36*
X219500Y84031D02*
X217228D01*
Y82055D01*
X219500D01*
Y84031D01*
D02*
G37*
G36*
X172772Y89031D02*
X170500D01*
Y87055D01*
X172772D01*
Y89031D01*
D02*
G37*
G36*
X169500D02*
X167228D01*
Y87055D01*
X169500D01*
Y89031D01*
D02*
G37*
G36*
X288268Y101161D02*
X286979Y100991D01*
X285778Y100494D01*
X284747Y99702D01*
X283955Y98671D01*
X283458Y97470D01*
X283288Y96181D01*
X283458Y94892D01*
X283955Y93691D01*
X284747Y92660D01*
X285778Y91869D01*
X286979Y91371D01*
X288268Y91202D01*
X289557Y91371D01*
X290757Y91869D01*
X291789Y92660D01*
X292580Y93691D01*
X293078Y94892D01*
X293247Y96181D01*
X293078Y97470D01*
X292580Y98671D01*
X291789Y99702D01*
X290757Y100494D01*
X289557Y100991D01*
X288268Y101161D01*
D02*
G37*
G36*
X226000Y99498D02*
X225044Y99308D01*
X224234Y98766D01*
X223692Y97956D01*
X223502Y97000D01*
X223558Y96720D01*
X218919Y92081D01*
X218587Y91585D01*
X218486Y91076D01*
X218386Y91096D01*
X209150D01*
Y97457D01*
X200850D01*
Y81677D01*
X209150D01*
Y88038D01*
X217228D01*
Y85969D01*
X222772D01*
Y90921D01*
X222737D01*
X222546Y91383D01*
X225721Y94558D01*
X226000Y94502D01*
X226956Y94692D01*
X227766Y95234D01*
X228308Y96044D01*
X228498Y97000D01*
X228308Y97956D01*
X227766Y98766D01*
X226956Y99308D01*
X226000Y99498D01*
D02*
G37*
G36*
X244937Y91587D02*
X241681D01*
Y86953D01*
X244937D01*
Y91587D01*
D02*
G37*
G36*
X169500Y86055D02*
X167228D01*
Y84079D01*
X169500D01*
Y86055D01*
D02*
G37*
G36*
X222772Y84031D02*
X220500D01*
Y82055D01*
X222772D01*
Y84031D01*
D02*
G37*
G36*
X240681Y91587D02*
X237425D01*
Y86953D01*
X240681D01*
Y91587D01*
D02*
G37*
G36*
X172772Y86055D02*
X170500D01*
Y84079D01*
X172772D01*
Y86055D01*
D02*
G37*
G36*
X212768Y51095D02*
X211979Y50991D01*
X210778Y50494D01*
X209747Y49702D01*
X208955Y48671D01*
X208458Y47470D01*
X208354Y46681D01*
X212768D01*
Y51095D01*
D02*
G37*
G36*
X218181Y45681D02*
X213768D01*
Y41267D01*
X214557Y41371D01*
X215757Y41869D01*
X216789Y42660D01*
X217580Y43691D01*
X218078Y44892D01*
X218181Y45681D01*
D02*
G37*
G36*
X70000Y70039D02*
X68696Y69867D01*
X67480Y69364D01*
X66437Y68563D01*
X65636Y67520D01*
X65132Y66304D01*
X64961Y65000D01*
X65132Y63696D01*
X65636Y62480D01*
X66437Y61437D01*
X67480Y60636D01*
X68696Y60132D01*
X70000Y59961D01*
X71304Y60132D01*
X72520Y60636D01*
X73563Y61437D01*
X74364Y62480D01*
X74867Y63696D01*
X75039Y65000D01*
X74867Y66304D01*
X74364Y67520D01*
X73563Y68563D01*
X72520Y69364D01*
X71304Y69867D01*
X70000Y70039D01*
D02*
G37*
G36*
X213768Y51095D02*
Y46681D01*
X218181D01*
X218078Y47470D01*
X217580Y48671D01*
X216789Y49702D01*
X215757Y50494D01*
X214557Y50991D01*
X213768Y51095D01*
D02*
G37*
G36*
X212768Y45681D02*
X208354D01*
X208458Y44892D01*
X208955Y43691D01*
X209747Y42660D01*
X210778Y41869D01*
X211979Y41371D01*
X212768Y41267D01*
Y45681D01*
D02*
G37*
G36*
X180000Y37244D02*
X177772Y37069D01*
X175598Y36547D01*
X173533Y35691D01*
X171628Y34524D01*
X169928Y33072D01*
X168476Y31372D01*
X167309Y29467D01*
X166453Y27402D01*
X165931Y25228D01*
X165756Y23000D01*
X165931Y20772D01*
X166453Y18598D01*
X167309Y16533D01*
X168476Y14628D01*
X169928Y12928D01*
X171628Y11476D01*
X173533Y10309D01*
X175598Y9453D01*
X177772Y8931D01*
X180000Y8756D01*
X182228Y8931D01*
X184402Y9453D01*
X186467Y10309D01*
X188372Y11476D01*
X190072Y12928D01*
X191524Y14628D01*
X192691Y16533D01*
X193547Y18598D01*
X194069Y20772D01*
X194244Y23000D01*
X194069Y25228D01*
X193547Y27402D01*
X192691Y29467D01*
X191524Y31372D01*
X190072Y33072D01*
X188372Y34524D01*
X186467Y35691D01*
X184402Y36547D01*
X182228Y37069D01*
X180000Y37244D01*
D02*
G37*
G36*
X20000D02*
X17772Y37069D01*
X15598Y36547D01*
X13533Y35691D01*
X11628Y34524D01*
X9928Y33072D01*
X8476Y31372D01*
X7309Y29467D01*
X6453Y27402D01*
X5931Y25228D01*
X5756Y23000D01*
X5931Y20772D01*
X6453Y18598D01*
X7309Y16533D01*
X8476Y14628D01*
X9928Y12928D01*
X11628Y11476D01*
X13533Y10309D01*
X15598Y9453D01*
X17772Y8931D01*
X20000Y8756D01*
X22228Y8931D01*
X24402Y9453D01*
X26467Y10309D01*
X28372Y11476D01*
X30072Y12928D01*
X31524Y14628D01*
X32691Y16533D01*
X33547Y18598D01*
X34069Y20772D01*
X34244Y23000D01*
X34069Y25228D01*
X33547Y27402D01*
X32691Y29467D01*
X31524Y31372D01*
X30072Y33072D01*
X28372Y34524D01*
X26467Y35691D01*
X24402Y36547D01*
X22228Y37069D01*
X20000Y37244D01*
D02*
G37*
G36*
X289347Y62850D02*
X280654D01*
Y56520D01*
X281974D01*
Y49449D01*
X281762Y49207D01*
X275181D01*
X274398Y49104D01*
X273668Y48802D01*
X273042Y48321D01*
X270921Y46200D01*
X262700D01*
Y34200D01*
X266174D01*
Y26000D01*
X262700D01*
Y14000D01*
X275700D01*
Y26000D01*
X272226D01*
Y34200D01*
X275700D01*
Y42421D01*
X276434Y43155D01*
X284367D01*
X284747Y42660D01*
X285778Y41869D01*
X286979Y41371D01*
X288268Y41201D01*
X289557Y41371D01*
X290757Y41869D01*
X291789Y42660D01*
X292580Y43691D01*
X293078Y44892D01*
X293247Y46181D01*
X293078Y47470D01*
X292580Y48671D01*
X291789Y49702D01*
X290757Y50494D01*
X289557Y50991D01*
X288268Y51161D01*
X288026Y51373D01*
Y56520D01*
X289347D01*
Y62850D01*
D02*
G37*
G36*
X150000Y70039D02*
X148696Y69867D01*
X147480Y69364D01*
X146437Y68563D01*
X145636Y67520D01*
X145133Y66304D01*
X144961Y65000D01*
X145133Y63696D01*
X145636Y62480D01*
X146437Y61437D01*
X147480Y60636D01*
X148696Y60132D01*
X150000Y59961D01*
X151304Y60132D01*
X152520Y60636D01*
X152839Y60881D01*
X169179Y44541D01*
X169806Y44061D01*
X170536Y43758D01*
X171319Y43655D01*
X189066D01*
X206860Y25860D01*
X207487Y25379D01*
X208217Y25077D01*
X209000Y24974D01*
X229747D01*
X232500Y22221D01*
Y14000D01*
X245500D01*
Y26000D01*
X242026D01*
Y34200D01*
X245500D01*
Y46200D01*
X232500D01*
Y34200D01*
X235974D01*
Y27958D01*
X235512Y27767D01*
X233140Y30140D01*
X232513Y30621D01*
X231783Y30923D01*
X231000Y31026D01*
X210253D01*
X192458Y48821D01*
X191832Y49302D01*
X191102Y49604D01*
X190319Y49707D01*
X172572D01*
X155140Y67140D01*
X154513Y67620D01*
X154181Y67758D01*
X153563Y68563D01*
X152520Y69364D01*
X151304Y69867D01*
X150000Y70039D01*
D02*
G37*
G36*
X90000D02*
X88696Y69867D01*
X87480Y69364D01*
X86437Y68563D01*
X85636Y67520D01*
X85132Y66304D01*
X84961Y65000D01*
X85132Y63696D01*
X85636Y62480D01*
X86437Y61437D01*
X87480Y60636D01*
X88696Y60132D01*
X90000Y59961D01*
X91304Y60132D01*
X92520Y60636D01*
X93563Y61437D01*
X94364Y62480D01*
X94867Y63696D01*
X95039Y65000D01*
X94867Y66304D01*
X94364Y67520D01*
X93563Y68563D01*
X92520Y69364D01*
X91304Y69867D01*
X90000Y70039D01*
D02*
G37*
G36*
X194500Y68969D02*
X193956Y68897D01*
X192983Y68494D01*
X192147Y67853D01*
X191506Y67017D01*
X191103Y66044D01*
X191031Y65500D01*
X194500D01*
Y68969D01*
D02*
G37*
G36*
X198969Y64500D02*
X195500D01*
Y61031D01*
X196044Y61103D01*
X197017Y61506D01*
X197853Y62147D01*
X198494Y62983D01*
X198897Y63956D01*
X198969Y64500D01*
D02*
G37*
G36*
X48000Y69579D02*
X47480Y69364D01*
X46437Y68563D01*
X45636Y67520D01*
X45421Y67000D01*
X48000D01*
Y69579D01*
D02*
G37*
G36*
X195500Y68969D02*
Y65500D01*
X198969D01*
X198897Y66044D01*
X198494Y67017D01*
X197853Y67853D01*
X197017Y68494D01*
X196044Y68897D01*
X195500Y68969D01*
D02*
G37*
G36*
X194500Y64500D02*
X191031D01*
X191103Y63956D01*
X191506Y62983D01*
X192147Y62147D01*
X192983Y61506D01*
X193956Y61103D01*
X194500Y61031D01*
Y64500D01*
D02*
G37*
G36*
X130000Y70039D02*
X128696Y69867D01*
X127480Y69364D01*
X126437Y68563D01*
X125636Y67520D01*
X125133Y66304D01*
X124961Y65000D01*
X125133Y63696D01*
X125636Y62480D01*
X126437Y61437D01*
X127480Y60636D01*
X128696Y60132D01*
X130000Y59961D01*
X131304Y60132D01*
X132520Y60636D01*
X133563Y61437D01*
X134364Y62480D01*
X134868Y63696D01*
X135039Y65000D01*
X134868Y66304D01*
X134364Y67520D01*
X133563Y68563D01*
X132520Y69364D01*
X131304Y69867D01*
X130000Y70039D01*
D02*
G37*
G36*
X110000D02*
X108696Y69867D01*
X107480Y69364D01*
X106437Y68563D01*
X105636Y67520D01*
X105132Y66304D01*
X104961Y65000D01*
X105132Y63696D01*
X105636Y62480D01*
X106437Y61437D01*
X107480Y60636D01*
X108696Y60132D01*
X110000Y59961D01*
X111304Y60132D01*
X112520Y60636D01*
X113563Y61437D01*
X114364Y62480D01*
X114867Y63696D01*
X115039Y65000D01*
X114867Y66304D01*
X114364Y67520D01*
X113563Y68563D01*
X112520Y69364D01*
X111304Y69867D01*
X110000Y70039D01*
D02*
G37*
G36*
X54579Y63000D02*
X52000D01*
Y60421D01*
X52520Y60636D01*
X53563Y61437D01*
X54364Y62480D01*
X54579Y63000D01*
D02*
G37*
G36*
X48000D02*
X45421D01*
X45636Y62480D01*
X46437Y61437D01*
X47480Y60636D01*
X48000Y60421D01*
Y63000D01*
D02*
G37*
G36*
X194500Y150193D02*
X169984D01*
Y130500D01*
X194500D01*
Y150193D01*
D02*
G37*
G36*
X244937Y133047D02*
X241681D01*
Y128413D01*
X244937D01*
Y133047D01*
D02*
G37*
G36*
X289000Y143035D02*
X287956Y142897D01*
X286983Y142494D01*
X286147Y141853D01*
X285506Y141017D01*
X285103Y140044D01*
X284965Y139000D01*
X285103Y137956D01*
X285506Y136983D01*
X286147Y136147D01*
X286983Y135506D01*
X287956Y135103D01*
X289000Y134966D01*
X290044Y135103D01*
X291017Y135506D01*
X291853Y136147D01*
X292494Y136983D01*
X292897Y137956D01*
X293035Y139000D01*
X292897Y140044D01*
X292494Y141017D01*
X291853Y141853D01*
X291017Y142494D01*
X290044Y142897D01*
X289000Y143035D01*
D02*
G37*
G36*
X220016Y150193D02*
X195500D01*
Y130500D01*
X220016D01*
Y150193D01*
D02*
G37*
G36*
X240681Y133047D02*
X237425D01*
Y128413D01*
X240681D01*
Y133047D01*
D02*
G37*
G36*
Y127413D02*
X237425D01*
Y122780D01*
X240681D01*
Y127413D01*
D02*
G37*
G36*
X154347Y138795D02*
X145653D01*
Y130690D01*
X141327Y126364D01*
X141044Y126308D01*
X140234Y125766D01*
X139692Y124956D01*
X139502Y124000D01*
X139692Y123044D01*
X140234Y122234D01*
X141044Y121692D01*
X142000Y121502D01*
X142956Y121692D01*
X143766Y122234D01*
X144308Y123044D01*
X144498Y124000D01*
X144308Y124956D01*
X144283Y124994D01*
X146242Y126953D01*
X154347D01*
Y138795D01*
D02*
G37*
G36*
X262575Y133047D02*
X255063D01*
Y122780D01*
X262575D01*
Y133047D01*
D02*
G37*
G36*
X244937Y127413D02*
X241681D01*
Y122780D01*
X244937D01*
Y127413D01*
D02*
G37*
G36*
X259500Y147374D02*
X255063D01*
Y138803D01*
X259500D01*
Y147374D01*
D02*
G37*
G36*
X218181Y183319D02*
X213768D01*
Y178905D01*
X214557Y179009D01*
X215757Y179506D01*
X216789Y180298D01*
X217580Y181329D01*
X218078Y182530D01*
X218181Y183319D01*
D02*
G37*
G36*
X212768D02*
X208354D01*
X208458Y182530D01*
X208955Y181329D01*
X209747Y180298D01*
X210778Y179506D01*
X211979Y179009D01*
X212768Y178905D01*
Y183319D01*
D02*
G37*
G36*
X213768Y188733D02*
Y184319D01*
X218181D01*
X218078Y185108D01*
X217580Y186309D01*
X216789Y187340D01*
X215757Y188131D01*
X214557Y188629D01*
X213768Y188733D01*
D02*
G37*
G36*
X212768D02*
X211979Y188629D01*
X210778Y188131D01*
X209747Y187340D01*
X208955Y186309D01*
X208458Y185108D01*
X208354Y184319D01*
X212768D01*
Y188733D01*
D02*
G37*
G36*
X264937Y191197D02*
X255063D01*
Y173055D01*
X264937D01*
Y182290D01*
X283557D01*
X283955Y181329D01*
X284747Y180298D01*
X285778Y179506D01*
X286979Y179009D01*
X288268Y178839D01*
X289557Y179009D01*
X290757Y179506D01*
X291789Y180298D01*
X292580Y181329D01*
X293078Y182530D01*
X293247Y183819D01*
X293078Y185108D01*
X292580Y186309D01*
X291789Y187340D01*
X290757Y188131D01*
X289557Y188629D01*
X288268Y188798D01*
X286979Y188629D01*
X285778Y188131D01*
X284747Y187340D01*
X283955Y186309D01*
X283557Y185348D01*
X264937D01*
Y191197D01*
D02*
G37*
G36*
X289000Y153034D02*
X287956Y152897D01*
X286983Y152494D01*
X286147Y151853D01*
X285506Y151017D01*
X285103Y150044D01*
X284965Y149000D01*
X285103Y147956D01*
X285506Y146983D01*
X286147Y146147D01*
X286983Y145506D01*
X287956Y145103D01*
X289000Y144966D01*
X290044Y145103D01*
X291017Y145506D01*
X291853Y146147D01*
X292494Y146983D01*
X292897Y147956D01*
X293035Y149000D01*
X292897Y150044D01*
X292494Y151017D01*
X291853Y151853D01*
X291017Y152494D01*
X290044Y152897D01*
X289000Y153034D01*
D02*
G37*
G36*
X264937Y147374D02*
X260500D01*
Y138803D01*
X264937D01*
Y147374D01*
D02*
G37*
G36*
Y156945D02*
X260500D01*
Y148374D01*
X264937D01*
Y156945D01*
D02*
G37*
G36*
X259500D02*
X255063D01*
Y148374D01*
X259500D01*
Y156945D01*
D02*
G37*
G36*
X117500Y124998D02*
X116544Y124808D01*
X115734Y124266D01*
X115192Y123456D01*
X115002Y122500D01*
X115058Y122221D01*
X113919Y121081D01*
X113587Y120585D01*
X113471Y120000D01*
Y110921D01*
X112228D01*
Y110171D01*
X105000D01*
X104415Y110055D01*
X104239Y109937D01*
X102819D01*
Y104984D01*
Y103039D01*
X105000D01*
X107181D01*
Y104984D01*
Y107112D01*
X112228D01*
Y105968D01*
X117772D01*
Y110921D01*
X116529D01*
Y119367D01*
X117220Y120058D01*
X117500Y120002D01*
X118456Y120192D01*
X119266Y120734D01*
X119808Y121544D01*
X119998Y122500D01*
X119808Y123456D01*
X119266Y124266D01*
X118456Y124808D01*
X117500Y124998D01*
D02*
G37*
G36*
X127870Y101154D02*
X125500D01*
Y99079D01*
X127870D01*
Y101154D01*
D02*
G37*
G36*
X124500D02*
X122130D01*
Y99079D01*
X124500D01*
Y101154D01*
D02*
G37*
G36*
X107181Y102039D02*
X105500D01*
Y100063D01*
X107181D01*
Y102039D01*
D02*
G37*
G36*
X104500D02*
X102819D01*
Y100063D01*
X104500D01*
Y102039D01*
D02*
G37*
G36*
X277378Y97138D02*
X275500D01*
Y95260D01*
X277378D01*
Y97138D01*
D02*
G37*
G36*
X244937Y97220D02*
X241681D01*
Y92587D01*
X244937D01*
Y97220D01*
D02*
G37*
G36*
X240681D02*
X237425D01*
Y92587D01*
X240681D01*
Y97220D01*
D02*
G37*
G36*
X274500Y97138D02*
X272622D01*
Y95260D01*
X274500D01*
Y97138D01*
D02*
G37*
G36*
X189150Y97457D02*
X180850D01*
Y94529D01*
X172772D01*
Y95921D01*
X167228D01*
Y90969D01*
X172772D01*
Y91471D01*
X180850D01*
Y81677D01*
X182961D01*
Y77358D01*
X182692Y76956D01*
X182502Y76000D01*
X182692Y75044D01*
X183234Y74234D01*
X184044Y73692D01*
X185000Y73502D01*
X185956Y73692D01*
X186766Y74234D01*
X187308Y75044D01*
X187498Y76000D01*
X187308Y76956D01*
X187039Y77358D01*
Y81677D01*
X189150D01*
Y97457D01*
D02*
G37*
G36*
X127870Y110921D02*
X122130D01*
Y108525D01*
X117636Y104032D01*
X112228D01*
Y99079D01*
X117772D01*
Y99986D01*
X118207Y100277D01*
X121668Y103737D01*
X122130Y103546D01*
Y102154D01*
X124500D01*
Y104228D01*
X122812D01*
X122621Y104690D01*
X123702Y105772D01*
X127870D01*
Y110921D01*
D02*
G37*
G36*
X267000Y127498D02*
X266044Y127308D01*
X265234Y126766D01*
X264692Y125956D01*
X264502Y125000D01*
X264692Y124044D01*
X265234Y123234D01*
X266044Y122692D01*
X267000Y122502D01*
X267956Y122692D01*
X268766Y123234D01*
X268925Y123471D01*
X270800D01*
Y122600D01*
X279200D01*
Y123471D01*
X283373D01*
X283651Y123055D01*
X283458Y122588D01*
X283288Y121299D01*
X283458Y120010D01*
X283955Y118809D01*
X284747Y117778D01*
X285778Y116987D01*
X286979Y116489D01*
X288268Y116320D01*
X289557Y116489D01*
X290757Y116987D01*
X291789Y117778D01*
X292580Y118809D01*
X293078Y120010D01*
X293247Y121299D01*
X293078Y122588D01*
X292580Y123789D01*
X291789Y124820D01*
X290757Y125612D01*
X289557Y126109D01*
X288268Y126279D01*
X286979Y126109D01*
X286018Y125711D01*
X285648Y126081D01*
X285152Y126413D01*
X284567Y126529D01*
X279200D01*
Y127400D01*
X270800D01*
Y126529D01*
X268925D01*
X268766Y126766D01*
X267956Y127308D01*
X267000Y127498D01*
D02*
G37*
G36*
X154347Y116626D02*
X150500D01*
Y111205D01*
X154347D01*
Y116626D01*
D02*
G37*
G36*
Y123047D02*
X150500D01*
Y117626D01*
X154347D01*
Y123047D01*
D02*
G37*
G36*
X149500D02*
X145653D01*
Y117626D01*
X149500D01*
Y123047D01*
D02*
G37*
G36*
Y116626D02*
X145653D01*
Y111205D01*
X149500D01*
Y116626D01*
D02*
G37*
G36*
X288268Y113759D02*
X286979Y113590D01*
X285778Y113092D01*
X284747Y112301D01*
X283955Y111269D01*
X283557Y110309D01*
X279547D01*
X278962Y110193D01*
X278466Y109861D01*
X273919Y105314D01*
X273587Y104818D01*
X273572Y104740D01*
X272622D01*
Y99984D01*
Y98138D01*
X275000D01*
X277378D01*
Y99984D01*
Y104447D01*
X280181Y107250D01*
X283557D01*
X283955Y106290D01*
X284747Y105258D01*
X285778Y104467D01*
X286979Y103970D01*
X288268Y103800D01*
X289557Y103970D01*
X290757Y104467D01*
X291789Y105258D01*
X292580Y106290D01*
X293078Y107491D01*
X293247Y108780D01*
X293078Y110068D01*
X292580Y111269D01*
X291789Y112301D01*
X290757Y113092D01*
X289557Y113590D01*
X288268Y113759D01*
D02*
G37*
G36*
X127870Y104228D02*
X125500D01*
Y102154D01*
X127870D01*
Y104228D01*
D02*
G37*
G36*
X220016Y129500D02*
X195500D01*
Y109807D01*
X220016D01*
Y129500D01*
D02*
G37*
G36*
X194500D02*
X169984D01*
Y109807D01*
X194500D01*
Y129500D01*
D02*
G37*
%LPD*%
D10*
X125000Y108346D02*
D03*
Y101654D02*
D03*
D16*
X220000Y81555D02*
D03*
Y88445D02*
D03*
X170000Y86555D02*
D03*
Y93445D02*
D03*
X115000Y101555D02*
D03*
Y108445D02*
D03*
D17*
X231000Y28000D02*
X239000Y20000D01*
X285000Y49449D02*
Y59685D01*
Y49449D02*
X288268Y46181D01*
X239000Y20000D02*
Y40200D01*
X269200Y20000D02*
Y40200D01*
X275181Y46181D01*
X288268D01*
X209000Y28000D02*
X231000D01*
X150000Y65000D02*
X153000D01*
X171319Y46681D01*
X190319D01*
X209000Y28000D01*
D18*
X267000Y125000D02*
X273200D01*
X276800D02*
X284567D01*
X288268Y121299D01*
X275000Y102362D02*
Y104232D01*
X259000Y83000D02*
X275000D01*
X258819Y92087D02*
X259000Y91905D01*
Y83000D02*
Y91905D01*
X275000Y104232D02*
X279547Y108780D01*
X288268D01*
X170047Y93000D02*
X181567D01*
X185000Y89567D01*
X218386D02*
X220000Y87953D01*
X205000Y89567D02*
X218386D01*
X105000Y108642D02*
X115000D01*
Y101358D02*
X117126D01*
X142000Y124000D02*
Y124874D01*
X150000Y132874D01*
X117126Y101358D02*
X125000Y109232D01*
X115000Y108642D02*
Y120000D01*
X117500Y122500D01*
X261693Y183819D02*
X288268D01*
X260000Y182126D02*
X261693Y183819D01*
X220000Y91000D02*
X226000Y97000D01*
X220000Y87953D02*
Y91000D01*
D19*
X185000Y76000D02*
Y89567D01*
D20*
X289000Y149000D02*
D03*
Y139000D02*
D03*
X195000Y65000D02*
D03*
Y75000D02*
D03*
D21*
X288268Y108780D02*
D03*
Y121299D02*
D03*
Y96181D02*
D03*
Y46181D02*
D03*
Y183819D02*
D03*
X213268D02*
D03*
Y46181D02*
D03*
D22*
X130000Y65000D02*
D03*
X110000D02*
D03*
X90000D02*
D03*
X70000D02*
D03*
X50000D02*
D03*
X150000D02*
D03*
D23*
X267000Y125000D02*
D03*
X275000Y83000D02*
D03*
X259000D02*
D03*
X185000Y76000D02*
D03*
X142000Y124000D02*
D03*
X83000Y135000D02*
D03*
Y125000D02*
D03*
Y115000D02*
D03*
Y105000D02*
D03*
X125000Y85083D02*
D03*
X122000Y124000D02*
D03*
X117500Y122500D02*
D03*
X226000Y97000D02*
D03*
D24*
X276800Y125000D02*
D03*
X273200D02*
D03*
D25*
X241181Y127913D02*
D03*
X258819D02*
D03*
Y92087D02*
D03*
X241181D02*
D03*
D26*
X239000Y20000D02*
D03*
Y40200D02*
D03*
X269200D02*
D03*
Y20000D02*
D03*
D27*
X275000Y102362D02*
D03*
Y97638D02*
D03*
D28*
X285000Y59685D02*
D03*
Y70315D02*
D03*
D29*
X150000Y132874D02*
D03*
Y117126D02*
D03*
D30*
X195000Y130000D02*
D03*
D31*
X205000Y89567D02*
D03*
X185000D02*
D03*
D32*
X260000Y147874D02*
D03*
Y182126D02*
D03*
D33*
X20000Y23000D02*
D03*
X180000D02*
D03*
D34*
X105000Y102539D02*
D03*
Y107461D02*
D03*
M02*
