G04 Layer_Physical_Order=1*
G04 Layer_Color=255*
%FSLAX25Y25*%
%MOIN*%
G70*
G01*
G75*
%ADD10R,0.03740X0.03150*%
%ADD11R,0.10236X0.04331*%
%ADD12R,0.04528X0.05512*%
%ADD13R,0.02953X0.03543*%
%ADD14R,0.21260X0.11417*%
%ADD15O,0.02362X0.08661*%
%ADD16R,0.03543X0.02953*%
%ADD17C,0.04000*%
%ADD18C,0.01000*%
%ADD19C,0.02000*%
%ADD20C,0.06000*%
%ADD21C,0.07874*%
%ADD22C,0.07992*%
%ADD23C,0.02900*%
D10*
X125000Y98347D02*
D03*
Y91654D02*
D03*
X115000Y98347D02*
D03*
Y91654D02*
D03*
D11*
X135000Y89685D02*
D03*
Y100315D02*
D03*
D12*
X98642Y135000D02*
D03*
X91358D02*
D03*
X98642Y125000D02*
D03*
X91358D02*
D03*
D13*
X91555Y115000D02*
D03*
X98445D02*
D03*
X91555Y105000D02*
D03*
X98445D02*
D03*
D14*
X170000Y90512D02*
D03*
Y129488D02*
D03*
D15*
X112500Y115551D02*
D03*
X117500D02*
D03*
X122500D02*
D03*
X127500D02*
D03*
X112500Y134449D02*
D03*
X117500D02*
D03*
X122500D02*
D03*
X127500D02*
D03*
D16*
X135000Y128445D02*
D03*
Y121555D02*
D03*
D17*
X289000Y139000D02*
Y149000D01*
Y122031D02*
Y139000D01*
X288268Y121299D02*
X289000Y122031D01*
X267000Y99000D02*
Y162551D01*
X288268Y183819D01*
X189495Y39244D02*
X262244D01*
X267000Y44000D01*
Y99000D01*
X187539Y41200D02*
X189495Y39244D01*
X110000Y65000D02*
X133800Y41200D01*
X187539D01*
D18*
X202289Y21500D02*
X249450D01*
X270500Y42550D01*
X251000Y75000D02*
X259000Y83000D01*
X195000Y75000D02*
X251000D01*
X137209Y101791D02*
X141618Y97382D01*
Y76618D02*
Y97382D01*
X130000Y65000D02*
X141618Y76618D01*
X135000Y101791D02*
X137209D01*
X270500Y42550D02*
Y78413D01*
X288268Y96181D01*
X98642Y135000D02*
X105642Y142000D01*
X98642Y115000D02*
Y125000D01*
Y135000D01*
X110350Y95417D02*
X115000Y90768D01*
X116535D01*
X125000Y99232D01*
X127500Y134449D02*
X129193D01*
X135000Y128642D01*
X127500Y115551D02*
X129193D01*
X135000Y121358D01*
X169488Y130000D02*
X170000Y129488D01*
X135000Y121358D02*
X139358D01*
X148000Y130000D02*
X169488D01*
X139358Y121358D02*
X142000Y124000D01*
X148000Y130000D01*
X83000Y135000D02*
X91358D01*
X83000Y125000D02*
X91358D01*
X83000Y115000D02*
X91358D01*
X83000Y105000D02*
X91358D01*
X115000Y99232D02*
X118173Y102406D01*
X125000Y85083D02*
Y90768D01*
X122000Y116051D02*
X122500Y115551D01*
X132441Y90768D02*
X135000Y88209D01*
X125000Y90768D02*
X132441D01*
X135000Y101791D02*
X158721D01*
X170000Y90512D01*
X118173Y102406D02*
X134386D01*
X135000Y101791D01*
X107449Y134449D02*
X112500D01*
X110350Y113402D02*
X112500Y115551D01*
X110350Y95417D02*
Y113402D01*
X104000Y131000D02*
X107449Y134449D01*
X104000Y110358D02*
Y131000D01*
X98642Y105000D02*
X104000Y110358D01*
X122000Y116051D02*
Y124000D01*
X117500Y115551D02*
Y122500D01*
X120000Y142000D02*
X122500Y139500D01*
X105642Y142000D02*
X120000D01*
X122500Y136390D02*
Y139500D01*
X255598Y143000D02*
X266799Y131799D01*
X122500Y135000D02*
Y139500D01*
X126000Y143000D01*
X255598D01*
X228000Y99000D02*
X267000D01*
X226000Y97000D02*
X228000Y99000D01*
X70000Y65000D02*
X97300Y37700D01*
X186089D01*
X202289Y21500D01*
D19*
X90000Y65000D02*
X98000Y73000D01*
X135000Y58000D02*
Y58480D01*
X152520Y76000D01*
X185000D01*
X125480Y58000D02*
X135000D01*
X98000Y73000D02*
X110480D01*
X125480Y58000D01*
D20*
X289000Y149000D02*
D03*
Y139000D02*
D03*
X195000Y65000D02*
D03*
Y75000D02*
D03*
D21*
X288268Y108780D02*
D03*
Y121299D02*
D03*
Y96181D02*
D03*
Y46181D02*
D03*
Y183819D02*
D03*
X213268D02*
D03*
Y46181D02*
D03*
D22*
X130000Y65000D02*
D03*
X110000D02*
D03*
X90000D02*
D03*
X70000D02*
D03*
X50000D02*
D03*
X150000D02*
D03*
D23*
X267000Y125000D02*
D03*
X275000Y83000D02*
D03*
X259000D02*
D03*
X185000Y76000D02*
D03*
X142000Y124000D02*
D03*
X83000Y135000D02*
D03*
Y125000D02*
D03*
Y115000D02*
D03*
Y105000D02*
D03*
X125000Y85083D02*
D03*
X122000Y124000D02*
D03*
X117500Y122500D02*
D03*
X226000Y97000D02*
D03*
M02*
