G04 Layer_Color=16711935*
%FSLAX25Y25*%
%MOIN*%
G70*
G01*
G75*
%ADD40R,0.04540X0.03950*%
%ADD46R,0.04343X0.03753*%
%ADD47C,0.00800*%
%ADD48C,0.06800*%
%ADD49C,0.08674*%
%ADD50C,0.08792*%
%ADD51R,0.03600X0.03600*%
%ADD52R,0.06312X0.09068*%
%ADD53R,0.11800X0.10800*%
%ADD54R,0.03556X0.03556*%
%ADD55R,0.07493X0.05131*%
%ADD56R,0.07493X0.10642*%
%ADD57R,0.48832X0.39186*%
%ADD58R,0.07099X0.14579*%
%ADD59R,0.08674X0.16942*%
%ADD60R,0.03162X0.03753*%
D40*
X125000Y108346D02*
D03*
Y101654D02*
D03*
D46*
X220000Y81555D02*
D03*
Y88445D02*
D03*
X170000Y86555D02*
D03*
Y93445D02*
D03*
X115000Y101555D02*
D03*
Y108445D02*
D03*
D47*
X180000Y23000D02*
D03*
X20000D02*
D03*
D48*
X289000Y149000D02*
D03*
Y139000D02*
D03*
X195000Y65000D02*
D03*
Y75000D02*
D03*
D49*
X288268Y108780D02*
D03*
Y121299D02*
D03*
Y96181D02*
D03*
Y46181D02*
D03*
Y183819D02*
D03*
X213268D02*
D03*
Y46181D02*
D03*
D50*
X130000Y65000D02*
D03*
X110000D02*
D03*
X90000D02*
D03*
X70000D02*
D03*
X50000D02*
D03*
X150000D02*
D03*
D51*
X276800Y125000D02*
D03*
X273200D02*
D03*
D52*
X241181Y127913D02*
D03*
X258819D02*
D03*
Y92087D02*
D03*
X241181D02*
D03*
D53*
X239000Y20000D02*
D03*
Y40200D02*
D03*
X269200D02*
D03*
Y20000D02*
D03*
D54*
X275000Y102362D02*
D03*
Y97638D02*
D03*
D55*
X285000Y59685D02*
D03*
Y70315D02*
D03*
D56*
X150000Y132874D02*
D03*
Y117126D02*
D03*
D57*
X195000Y130000D02*
D03*
D58*
X205000Y89567D02*
D03*
X185000D02*
D03*
D59*
X260000Y147874D02*
D03*
Y182126D02*
D03*
D60*
X105000Y102539D02*
D03*
Y107461D02*
D03*
M02*
