G04 Layer_Physical_Order=2*
G04 Layer_Color=16711680*
%FSLAX24Y24*%
%MOIN*%
G70*
G01*
G75*
%ADD18C,0.0100*%
%ADD19C,0.0400*%
%ADD20C,0.0600*%
%ADD21C,0.0591*%
%ADD22R,0.0591X0.0591*%
%ADD23C,0.0799*%
%ADD24R,0.0591X0.0591*%
%ADD25C,0.1058*%
%ADD26C,0.0850*%
%ADD27C,0.0801*%
%ADD28C,0.0500*%
%ADD29R,0.0500X0.0500*%
%ADD30C,0.0290*%
%ADD31R,0.1100X0.1000*%
%ADD32R,0.0295X0.0354*%
%ADD33R,0.0354X0.0295*%
%ADD34C,0.2640*%
G36*
X64796Y15203D02*
X64746Y15182D01*
X62714Y17214D01*
X62651Y17262D01*
X62578Y17292D01*
X62500Y17303D01*
X59051D01*
X59026Y17351D01*
X58947Y17447D01*
X58851Y17526D01*
X58742Y17584D01*
X58623Y17620D01*
X58500Y17632D01*
X58377Y17620D01*
X58258Y17584D01*
X58149Y17526D01*
X58053Y17447D01*
X57974Y17351D01*
X57916Y17242D01*
X57880Y17123D01*
X57868Y17000D01*
X57880Y16877D01*
X57916Y16758D01*
X57974Y16649D01*
X58053Y16553D01*
X58149Y16474D01*
X58258Y16416D01*
X58377Y16380D01*
X58500Y16368D01*
X58623Y16380D01*
X58742Y16416D01*
X58851Y16474D01*
X58947Y16553D01*
X59026Y16649D01*
X59051Y16697D01*
X62375D01*
X64247Y14825D01*
Y13808D01*
X64203Y13786D01*
X64177Y13806D01*
X64091Y13841D01*
X64000Y13853D01*
X63909Y13841D01*
X63823Y13806D01*
X63750Y13750D01*
X63694Y13677D01*
X63659Y13591D01*
X63647Y13500D01*
X63659Y13409D01*
X63694Y13323D01*
X63750Y13250D01*
X63823Y13194D01*
X63909Y13159D01*
X64000Y13147D01*
X64091Y13159D01*
X64177Y13194D01*
X64203Y13214D01*
X64247Y13192D01*
Y12423D01*
X64172D01*
Y12620D01*
X64164Y12659D01*
X64142Y12692D01*
X64109Y12714D01*
X64070Y12722D01*
X62970D01*
X62931Y12714D01*
X62898Y12692D01*
X62876Y12659D01*
X62868Y12620D01*
Y11620D01*
X62876Y11581D01*
X62898Y11548D01*
X62931Y11526D01*
X62970Y11518D01*
X63217D01*
Y10702D01*
X62970D01*
X62931Y10694D01*
X62898Y10672D01*
X62876Y10639D01*
X62868Y10600D01*
Y9600D01*
X62876Y9561D01*
X62898Y9528D01*
X62931Y9506D01*
X62970Y9498D01*
X64070D01*
X64109Y9506D01*
X64142Y9528D01*
X64164Y9561D01*
X64172Y9600D01*
Y10600D01*
X64164Y10639D01*
X64142Y10672D01*
X64109Y10694D01*
X64070Y10702D01*
X63823D01*
Y11518D01*
X64070D01*
X64109Y11526D01*
X64142Y11548D01*
X64164Y11581D01*
X64172Y11620D01*
Y11817D01*
X64550D01*
X64628Y11828D01*
X64701Y11858D01*
X64746Y11892D01*
X64796Y11869D01*
Y204D01*
X204D01*
Y28096D01*
X64796D01*
Y15203D01*
D02*
G37*
%LPC*%
G36*
X16500Y13853D02*
X16409Y13841D01*
X16323Y13806D01*
X16250Y13750D01*
X16194Y13677D01*
X16159Y13591D01*
X16147Y13500D01*
X16159Y13409D01*
X16194Y13323D01*
X16250Y13250D01*
X16323Y13194D01*
X16409Y13159D01*
X16500Y13147D01*
X16591Y13159D01*
X16677Y13194D01*
X16750Y13250D01*
X16806Y13323D01*
X16841Y13409D01*
X16853Y13500D01*
X16841Y13591D01*
X16806Y13677D01*
X16750Y13750D01*
X16677Y13806D01*
X16591Y13841D01*
X16500Y13853D01*
D02*
G37*
G36*
X17500D02*
X17409Y13841D01*
X17323Y13806D01*
X17250Y13750D01*
X17194Y13677D01*
X17159Y13591D01*
X17147Y13500D01*
X17159Y13409D01*
X17194Y13323D01*
X17250Y13250D01*
X17323Y13194D01*
X17409Y13159D01*
X17500Y13147D01*
X17591Y13159D01*
X17677Y13194D01*
X17750Y13250D01*
X17806Y13323D01*
X17841Y13409D01*
X17853Y13500D01*
X17841Y13591D01*
X17806Y13677D01*
X17750Y13750D01*
X17677Y13806D01*
X17591Y13841D01*
X17500Y13853D01*
D02*
G37*
G36*
X51000Y12950D02*
X50904Y12931D01*
X50823Y12877D01*
X50808Y12853D01*
X50092D01*
X50077Y12877D01*
X49996Y12931D01*
X49900Y12950D01*
X49804Y12931D01*
X49723Y12877D01*
X49708Y12853D01*
X49292D01*
X49277Y12877D01*
X49196Y12931D01*
X49100Y12950D01*
X49004Y12931D01*
X48923Y12877D01*
X48869Y12796D01*
X48850Y12700D01*
X48869Y12604D01*
X48923Y12523D01*
X49004Y12469D01*
X49100Y12450D01*
X49196Y12469D01*
X49277Y12523D01*
X49292Y12547D01*
X49708D01*
X49723Y12523D01*
X49804Y12469D01*
X49900Y12450D01*
X49996Y12469D01*
X50077Y12523D01*
X50092Y12547D01*
X50808D01*
X50823Y12523D01*
X50904Y12469D01*
X51000Y12450D01*
X51096Y12469D01*
X51177Y12523D01*
X51231Y12604D01*
X51250Y12700D01*
X51231Y12796D01*
X51177Y12877D01*
X51096Y12931D01*
X51000Y12950D01*
D02*
G37*
G36*
X58400D02*
X58304Y12931D01*
X58223Y12877D01*
X58208Y12853D01*
X57792D01*
X57777Y12877D01*
X57696Y12931D01*
X57600Y12950D01*
X57504Y12931D01*
X57423Y12877D01*
X57369Y12796D01*
X57350Y12700D01*
X57369Y12604D01*
X57423Y12523D01*
X57504Y12469D01*
X57600Y12450D01*
X57696Y12469D01*
X57777Y12523D01*
X57792Y12547D01*
X58208D01*
X58223Y12523D01*
X58304Y12469D01*
X58400Y12450D01*
X58496Y12469D01*
X58577Y12523D01*
X58631Y12604D01*
X58650Y12700D01*
X58631Y12796D01*
X58577Y12877D01*
X58496Y12931D01*
X58400Y12950D01*
D02*
G37*
G36*
X15500Y13853D02*
X15409Y13841D01*
X15323Y13806D01*
X15250Y13750D01*
X15194Y13677D01*
X15159Y13591D01*
X15147Y13500D01*
X15159Y13409D01*
X15194Y13323D01*
X15250Y13250D01*
X15323Y13194D01*
X15409Y13159D01*
X15500Y13147D01*
X15591Y13159D01*
X15677Y13194D01*
X15750Y13250D01*
X15806Y13323D01*
X15841Y13409D01*
X15853Y13500D01*
X15841Y13591D01*
X15806Y13677D01*
X15750Y13750D01*
X15677Y13806D01*
X15591Y13841D01*
X15500Y13853D01*
D02*
G37*
G36*
X18500D02*
X18409Y13841D01*
X18323Y13806D01*
X18250Y13750D01*
X18194Y13677D01*
X18159Y13591D01*
X18147Y13500D01*
X18159Y13409D01*
X18194Y13323D01*
X18250Y13250D01*
X18323Y13194D01*
X18409Y13159D01*
X18500Y13147D01*
X18591Y13159D01*
X18677Y13194D01*
X18750Y13250D01*
X18806Y13323D01*
X18841Y13409D01*
X18853Y13500D01*
X18841Y13591D01*
X18806Y13677D01*
X18750Y13750D01*
X18677Y13806D01*
X18591Y13841D01*
X18500Y13853D01*
D02*
G37*
G36*
X25000D02*
X24909Y13841D01*
X24823Y13806D01*
X24750Y13750D01*
X24694Y13677D01*
X24659Y13591D01*
X24647Y13500D01*
X24659Y13409D01*
X24694Y13323D01*
X24750Y13250D01*
X24823Y13194D01*
X24909Y13159D01*
X25000Y13147D01*
X25091Y13159D01*
X25177Y13194D01*
X25250Y13250D01*
X25306Y13323D01*
X25341Y13409D01*
X25353Y13500D01*
X25341Y13591D01*
X25306Y13677D01*
X25250Y13750D01*
X25177Y13806D01*
X25091Y13841D01*
X25000Y13853D01*
D02*
G37*
G36*
X26000D02*
X25909Y13841D01*
X25823Y13806D01*
X25750Y13750D01*
X25694Y13677D01*
X25659Y13591D01*
X25647Y13500D01*
X25659Y13409D01*
X25694Y13323D01*
X25750Y13250D01*
X25823Y13194D01*
X25909Y13159D01*
X26000Y13147D01*
X26091Y13159D01*
X26177Y13194D01*
X26250Y13250D01*
X26306Y13323D01*
X26341Y13409D01*
X26353Y13500D01*
X26341Y13591D01*
X26306Y13677D01*
X26250Y13750D01*
X26177Y13806D01*
X26091Y13841D01*
X26000Y13853D01*
D02*
G37*
G36*
X24000D02*
X23909Y13841D01*
X23823Y13806D01*
X23750Y13750D01*
X23694Y13677D01*
X23659Y13591D01*
X23647Y13500D01*
X23659Y13409D01*
X23694Y13323D01*
X23750Y13250D01*
X23823Y13194D01*
X23909Y13159D01*
X24000Y13147D01*
X24091Y13159D01*
X24177Y13194D01*
X24250Y13250D01*
X24306Y13323D01*
X24341Y13409D01*
X24353Y13500D01*
X24341Y13591D01*
X24306Y13677D01*
X24250Y13750D01*
X24177Y13806D01*
X24091Y13841D01*
X24000Y13853D01*
D02*
G37*
G36*
X19500D02*
X19409Y13841D01*
X19323Y13806D01*
X19250Y13750D01*
X19194Y13677D01*
X19159Y13591D01*
X19147Y13500D01*
X19159Y13409D01*
X19194Y13323D01*
X19250Y13250D01*
X19323Y13194D01*
X19409Y13159D01*
X19500Y13147D01*
X19591Y13159D01*
X19677Y13194D01*
X19750Y13250D01*
X19806Y13323D01*
X19841Y13409D01*
X19853Y13500D01*
X19841Y13591D01*
X19806Y13677D01*
X19750Y13750D01*
X19677Y13806D01*
X19591Y13841D01*
X19500Y13853D01*
D02*
G37*
G36*
X20500D02*
X20409Y13841D01*
X20323Y13806D01*
X20250Y13750D01*
X20194Y13677D01*
X20159Y13591D01*
X20147Y13500D01*
X20159Y13409D01*
X20194Y13323D01*
X20250Y13250D01*
X20323Y13194D01*
X20409Y13159D01*
X20500Y13147D01*
X20591Y13159D01*
X20677Y13194D01*
X20750Y13250D01*
X20806Y13323D01*
X20841Y13409D01*
X20853Y13500D01*
X20841Y13591D01*
X20806Y13677D01*
X20750Y13750D01*
X20677Y13806D01*
X20591Y13841D01*
X20500Y13853D01*
D02*
G37*
G36*
X8040Y7631D02*
X8033Y7630D01*
X8027Y7631D01*
X7890Y7613D01*
X7877Y7608D01*
X7864Y7606D01*
X7736Y7553D01*
X7725Y7545D01*
X7713Y7539D01*
X7603Y7455D01*
X7595Y7445D01*
X7585Y7437D01*
X7501Y7327D01*
X7495Y7315D01*
X7487Y7304D01*
X7434Y7176D01*
X7432Y7163D01*
X7427Y7150D01*
X7409Y7013D01*
X7410Y7000D01*
X7409Y6987D01*
X7427Y6850D01*
X7432Y6837D01*
X7434Y6824D01*
X7487Y6696D01*
X7495Y6685D01*
X7501Y6673D01*
X7585Y6564D01*
X7595Y6555D01*
X7603Y6545D01*
X7713Y6461D01*
X7725Y6455D01*
X7736Y6447D01*
X7864Y6394D01*
X7877Y6392D01*
X7890Y6387D01*
X8027Y6369D01*
X8033Y6370D01*
X8040Y6369D01*
X8047Y6370D01*
X8053Y6369D01*
X8190Y6387D01*
X8203Y6392D01*
X8216Y6394D01*
X8344Y6447D01*
X8355Y6455D01*
X8367Y6461D01*
X8476Y6545D01*
X8485Y6555D01*
X8495Y6564D01*
X8579Y6673D01*
X8585Y6685D01*
X8593Y6696D01*
X8646Y6824D01*
X8648Y6837D01*
X8653Y6850D01*
X8671Y6987D01*
X8670Y7000D01*
X8671Y7013D01*
X8653Y7150D01*
X8648Y7163D01*
X8646Y7176D01*
X8593Y7304D01*
X8585Y7315D01*
X8579Y7327D01*
X8495Y7437D01*
X8485Y7445D01*
X8476Y7455D01*
X8367Y7539D01*
X8355Y7545D01*
X8344Y7553D01*
X8216Y7606D01*
X8203Y7608D01*
X8190Y7613D01*
X8053Y7631D01*
X8047Y7630D01*
X8040Y7631D01*
D02*
G37*
G36*
X9622Y12103D02*
X9491Y12086D01*
X9370Y12036D01*
X9265Y11955D01*
X9185Y11851D01*
X9134Y11729D01*
X9117Y11598D01*
X9134Y11468D01*
X9185Y11346D01*
X9265Y11241D01*
X9370Y11161D01*
X9491Y11111D01*
X9622Y11094D01*
X9753Y11111D01*
X9875Y11161D01*
X9979Y11241D01*
X10059Y11346D01*
X10110Y11468D01*
X10127Y11598D01*
X10110Y11729D01*
X10059Y11851D01*
X9979Y11955D01*
X9875Y12036D01*
X9753Y12086D01*
X9622Y12103D01*
D02*
G37*
G36*
X11000D02*
X10869Y12086D01*
X10748Y12036D01*
X10643Y11955D01*
X10563Y11851D01*
X10512Y11729D01*
X10495Y11598D01*
X10512Y11468D01*
X10563Y11346D01*
X10643Y11241D01*
X10748Y11161D01*
X10869Y11111D01*
X11000Y11094D01*
X11131Y11111D01*
X11252Y11161D01*
X11357Y11241D01*
X11437Y11346D01*
X11488Y11468D01*
X11505Y11598D01*
X11488Y11729D01*
X11437Y11851D01*
X11357Y11955D01*
X11252Y12036D01*
X11131Y12086D01*
X11000Y12103D01*
D02*
G37*
G36*
X4480Y7530D02*
X4343Y7511D01*
X4215Y7459D01*
X4106Y7374D01*
X4021Y7265D01*
X3969Y7137D01*
X3950Y7000D01*
X3969Y6863D01*
X4021Y6735D01*
X4106Y6626D01*
X4215Y6541D01*
X4343Y6489D01*
X4480Y6470D01*
X4617Y6489D01*
X4745Y6541D01*
X4854Y6626D01*
X4939Y6735D01*
X4991Y6863D01*
X5010Y7000D01*
X4991Y7137D01*
X4939Y7265D01*
X4854Y7374D01*
X4745Y7459D01*
X4617Y7511D01*
X4480Y7530D01*
D02*
G37*
G36*
X6460D02*
X6323Y7511D01*
X6195Y7459D01*
X6086Y7374D01*
X6001Y7265D01*
X5949Y7137D01*
X5930Y7000D01*
X5949Y6863D01*
X6001Y6735D01*
X6086Y6626D01*
X6195Y6541D01*
X6323Y6489D01*
X6460Y6470D01*
X6597Y6489D01*
X6725Y6541D01*
X6834Y6626D01*
X6919Y6735D01*
X6971Y6863D01*
X6990Y7000D01*
X6971Y7137D01*
X6919Y7265D01*
X6834Y7374D01*
X6725Y7459D01*
X6597Y7511D01*
X6460Y7530D01*
D02*
G37*
G36*
X48222Y7948D02*
X44595D01*
X44536Y7936D01*
X44487Y7903D01*
X43728Y7144D01*
X43700Y7150D01*
X43604Y7131D01*
X43523Y7077D01*
X43469Y6996D01*
X43450Y6900D01*
X43469Y6804D01*
X43523Y6723D01*
X43604Y6669D01*
X43700Y6650D01*
X43796Y6669D01*
X43877Y6723D01*
X43903Y6763D01*
X43963D01*
X43996Y6713D01*
X43996Y6713D01*
X43997Y6713D01*
X44023Y6677D01*
X43969Y6596D01*
X43950Y6500D01*
X43969Y6404D01*
X44023Y6323D01*
X44104Y6269D01*
X44200Y6250D01*
X44296Y6269D01*
X44356Y6310D01*
X44369Y6304D01*
X44423Y6223D01*
Y6177D01*
X44369Y6096D01*
X44350Y6000D01*
X44369Y5904D01*
X44423Y5823D01*
X44504Y5769D01*
X44600Y5750D01*
X44696Y5769D01*
X44777Y5823D01*
X44831Y5904D01*
X44850Y6000D01*
X44847Y6014D01*
X45181Y6347D01*
X46008D01*
X46023Y6323D01*
X46104Y6269D01*
X46200Y6250D01*
X46296Y6269D01*
X46377Y6323D01*
X46431Y6404D01*
X46450Y6500D01*
X46431Y6592D01*
X46432Y6603D01*
X46453Y6642D01*
X46611D01*
X46623Y6623D01*
X46704Y6569D01*
X46800Y6550D01*
X46896Y6569D01*
X46977Y6623D01*
X47031Y6704D01*
X47050Y6800D01*
X47031Y6896D01*
X47026Y6903D01*
X47049Y6947D01*
X47308D01*
X47323Y6923D01*
X47404Y6869D01*
X47500Y6850D01*
X47596Y6869D01*
X47677Y6923D01*
X47731Y7004D01*
X47750Y7100D01*
X47731Y7196D01*
X47677Y7277D01*
X47646Y7297D01*
X47661Y7347D01*
X47908D01*
X47923Y7323D01*
X48004Y7269D01*
X48100Y7250D01*
X48196Y7269D01*
X48277Y7323D01*
X48331Y7404D01*
X48334Y7420D01*
X48391Y7452D01*
X48417Y7447D01*
X48508D01*
X48523Y7423D01*
X48604Y7369D01*
X48700Y7350D01*
X48796Y7369D01*
X48877Y7423D01*
X48931Y7504D01*
X48950Y7600D01*
X48931Y7696D01*
X48877Y7777D01*
X48796Y7831D01*
X48700Y7850D01*
X48604Y7831D01*
X48523Y7777D01*
X48522Y7774D01*
X48464Y7770D01*
X48330Y7903D01*
X48281Y7936D01*
X48222Y7948D01*
D02*
G37*
G36*
X25500Y12950D02*
X25404Y12931D01*
X25323Y12877D01*
X25308Y12853D01*
X24592D01*
X24577Y12877D01*
X24496Y12931D01*
X24400Y12950D01*
X24304Y12931D01*
X24223Y12877D01*
X24208Y12853D01*
X23792D01*
X23777Y12877D01*
X23696Y12931D01*
X23600Y12950D01*
X23504Y12931D01*
X23423Y12877D01*
X23369Y12796D01*
X23350Y12700D01*
X23369Y12604D01*
X23423Y12523D01*
X23504Y12469D01*
X23600Y12450D01*
X23696Y12469D01*
X23777Y12523D01*
X23792Y12547D01*
X24208D01*
X24223Y12523D01*
X24304Y12469D01*
X24400Y12450D01*
X24496Y12469D01*
X24577Y12523D01*
X24592Y12547D01*
X25308D01*
X25323Y12523D01*
X25404Y12469D01*
X25500Y12450D01*
X25596Y12469D01*
X25677Y12523D01*
X25731Y12604D01*
X25750Y12700D01*
X25731Y12796D01*
X25677Y12877D01*
X25596Y12931D01*
X25500Y12950D01*
D02*
G37*
G36*
X34000D02*
X33904Y12931D01*
X33823Y12877D01*
X33808Y12853D01*
X33092D01*
X33077Y12877D01*
X32996Y12931D01*
X32900Y12950D01*
X32804Y12931D01*
X32723Y12877D01*
X32708Y12853D01*
X32292D01*
X32277Y12877D01*
X32196Y12931D01*
X32100Y12950D01*
X32004Y12931D01*
X31923Y12877D01*
X31869Y12796D01*
X31850Y12700D01*
X31869Y12604D01*
X31923Y12523D01*
X32004Y12469D01*
X32100Y12450D01*
X32196Y12469D01*
X32277Y12523D01*
X32292Y12547D01*
X32708D01*
X32723Y12523D01*
X32804Y12469D01*
X32900Y12450D01*
X32996Y12469D01*
X33077Y12523D01*
X33092Y12547D01*
X33808D01*
X33823Y12523D01*
X33904Y12469D01*
X34000Y12450D01*
X34096Y12469D01*
X34177Y12523D01*
X34231Y12604D01*
X34250Y12700D01*
X34231Y12796D01*
X34177Y12877D01*
X34096Y12931D01*
X34000Y12950D01*
D02*
G37*
G36*
X42500D02*
X42404Y12931D01*
X42323Y12877D01*
X42308Y12853D01*
X41592D01*
X41577Y12877D01*
X41496Y12931D01*
X41400Y12950D01*
X41304Y12931D01*
X41223Y12877D01*
X41208Y12853D01*
X40792D01*
X40777Y12877D01*
X40696Y12931D01*
X40600Y12950D01*
X40504Y12931D01*
X40423Y12877D01*
X40369Y12796D01*
X40350Y12700D01*
X40369Y12604D01*
X40423Y12523D01*
X40504Y12469D01*
X40600Y12450D01*
X40696Y12469D01*
X40777Y12523D01*
X40792Y12547D01*
X41208D01*
X41223Y12523D01*
X41304Y12469D01*
X41400Y12450D01*
X41496Y12469D01*
X41577Y12523D01*
X41592Y12547D01*
X42308D01*
X42323Y12523D01*
X42404Y12469D01*
X42500Y12450D01*
X42596Y12469D01*
X42677Y12523D01*
X42731Y12604D01*
X42750Y12700D01*
X42731Y12796D01*
X42677Y12877D01*
X42596Y12931D01*
X42500Y12950D01*
D02*
G37*
G36*
X9622Y13481D02*
X9491Y13464D01*
X9370Y13414D01*
X9265Y13333D01*
X9185Y13229D01*
X9134Y13107D01*
X9117Y12976D01*
X9134Y12846D01*
X9185Y12724D01*
X9265Y12619D01*
X9370Y12539D01*
X9491Y12489D01*
X9622Y12471D01*
X9753Y12489D01*
X9875Y12539D01*
X9979Y12619D01*
X10059Y12724D01*
X10110Y12846D01*
X10127Y12976D01*
X10110Y13107D01*
X10059Y13229D01*
X9979Y13333D01*
X9875Y13414D01*
X9753Y13464D01*
X9622Y13481D01*
D02*
G37*
G36*
X11000D02*
X10869Y13464D01*
X10748Y13414D01*
X10643Y13333D01*
X10563Y13229D01*
X10512Y13107D01*
X10495Y12976D01*
X10512Y12846D01*
X10563Y12724D01*
X10643Y12619D01*
X10748Y12539D01*
X10869Y12489D01*
X11000Y12471D01*
X11131Y12489D01*
X11252Y12539D01*
X11357Y12619D01*
X11437Y12724D01*
X11488Y12846D01*
X11505Y12976D01*
X11488Y13107D01*
X11437Y13229D01*
X11357Y13333D01*
X11252Y13414D01*
X11131Y13464D01*
X11000Y13481D01*
D02*
G37*
G36*
X17000Y12950D02*
X16904Y12931D01*
X16823Y12877D01*
X16808Y12853D01*
X16092D01*
X16077Y12877D01*
X15996Y12931D01*
X15900Y12950D01*
X15804Y12931D01*
X15723Y12877D01*
X15669Y12796D01*
X15650Y12700D01*
X15669Y12604D01*
X15723Y12523D01*
X15804Y12469D01*
X15900Y12450D01*
X15996Y12469D01*
X16077Y12523D01*
X16092Y12547D01*
X16808D01*
X16823Y12523D01*
X16904Y12469D01*
X17000Y12450D01*
X17096Y12469D01*
X17177Y12523D01*
X17231Y12604D01*
X17250Y12700D01*
X17231Y12796D01*
X17177Y12877D01*
X17096Y12931D01*
X17000Y12950D01*
D02*
G37*
G36*
X27000Y13853D02*
X26909Y13841D01*
X26823Y13806D01*
X26750Y13750D01*
X26694Y13677D01*
X26659Y13591D01*
X26647Y13500D01*
X26659Y13409D01*
X26694Y13323D01*
X26750Y13250D01*
X26823Y13194D01*
X26909Y13159D01*
X27000Y13147D01*
X27091Y13159D01*
X27177Y13194D01*
X27250Y13250D01*
X27306Y13323D01*
X27341Y13409D01*
X27353Y13500D01*
X27341Y13591D01*
X27306Y13677D01*
X27250Y13750D01*
X27177Y13806D01*
X27091Y13841D01*
X27000Y13853D01*
D02*
G37*
G36*
X50500D02*
X50409Y13841D01*
X50323Y13806D01*
X50250Y13750D01*
X50194Y13677D01*
X50159Y13591D01*
X50147Y13500D01*
X50159Y13409D01*
X50194Y13323D01*
X50250Y13250D01*
X50323Y13194D01*
X50409Y13159D01*
X50500Y13147D01*
X50591Y13159D01*
X50677Y13194D01*
X50750Y13250D01*
X50806Y13323D01*
X50841Y13409D01*
X50853Y13500D01*
X50841Y13591D01*
X50806Y13677D01*
X50750Y13750D01*
X50677Y13806D01*
X50591Y13841D01*
X50500Y13853D01*
D02*
G37*
G36*
X51500D02*
X51409Y13841D01*
X51323Y13806D01*
X51250Y13750D01*
X51194Y13677D01*
X51159Y13591D01*
X51147Y13500D01*
X51159Y13409D01*
X51194Y13323D01*
X51250Y13250D01*
X51323Y13194D01*
X51409Y13159D01*
X51500Y13147D01*
X51591Y13159D01*
X51677Y13194D01*
X51750Y13250D01*
X51806Y13323D01*
X51841Y13409D01*
X51853Y13500D01*
X51841Y13591D01*
X51806Y13677D01*
X51750Y13750D01*
X51677Y13806D01*
X51591Y13841D01*
X51500Y13853D01*
D02*
G37*
G36*
X52500D02*
X52409Y13841D01*
X52323Y13806D01*
X52250Y13750D01*
X52194Y13677D01*
X52159Y13591D01*
X52147Y13500D01*
X52159Y13409D01*
X52194Y13323D01*
X52250Y13250D01*
X52323Y13194D01*
X52409Y13159D01*
X52500Y13147D01*
X52591Y13159D01*
X52677Y13194D01*
X52750Y13250D01*
X52806Y13323D01*
X52841Y13409D01*
X52853Y13500D01*
X52841Y13591D01*
X52806Y13677D01*
X52750Y13750D01*
X52677Y13806D01*
X52591Y13841D01*
X52500Y13853D01*
D02*
G37*
G36*
X45000D02*
X44909Y13841D01*
X44823Y13806D01*
X44750Y13750D01*
X44694Y13677D01*
X44659Y13591D01*
X44647Y13500D01*
X44659Y13409D01*
X44694Y13323D01*
X44750Y13250D01*
X44823Y13194D01*
X44909Y13159D01*
X45000Y13147D01*
X45091Y13159D01*
X45177Y13194D01*
X45250Y13250D01*
X45306Y13323D01*
X45341Y13409D01*
X45353Y13500D01*
X45341Y13591D01*
X45306Y13677D01*
X45250Y13750D01*
X45177Y13806D01*
X45091Y13841D01*
X45000Y13853D01*
D02*
G37*
G36*
X46000D02*
X45909Y13841D01*
X45823Y13806D01*
X45750Y13750D01*
X45694Y13677D01*
X45659Y13591D01*
X45647Y13500D01*
X45659Y13409D01*
X45694Y13323D01*
X45750Y13250D01*
X45823Y13194D01*
X45909Y13159D01*
X46000Y13147D01*
X46091Y13159D01*
X46177Y13194D01*
X46250Y13250D01*
X46306Y13323D01*
X46341Y13409D01*
X46353Y13500D01*
X46341Y13591D01*
X46306Y13677D01*
X46250Y13750D01*
X46177Y13806D01*
X46091Y13841D01*
X46000Y13853D01*
D02*
G37*
G36*
X49500D02*
X49409Y13841D01*
X49323Y13806D01*
X49250Y13750D01*
X49194Y13677D01*
X49159Y13591D01*
X49147Y13500D01*
X49159Y13409D01*
X49194Y13323D01*
X49250Y13250D01*
X49323Y13194D01*
X49409Y13159D01*
X49500Y13147D01*
X49591Y13159D01*
X49677Y13194D01*
X49750Y13250D01*
X49806Y13323D01*
X49841Y13409D01*
X49853Y13500D01*
X49841Y13591D01*
X49806Y13677D01*
X49750Y13750D01*
X49677Y13806D01*
X49591Y13841D01*
X49500Y13853D01*
D02*
G37*
G36*
X59000D02*
X58909Y13841D01*
X58823Y13806D01*
X58750Y13750D01*
X58694Y13677D01*
X58659Y13591D01*
X58647Y13500D01*
X58659Y13409D01*
X58694Y13323D01*
X58750Y13250D01*
X58823Y13194D01*
X58909Y13159D01*
X59000Y13147D01*
X59091Y13159D01*
X59177Y13194D01*
X59250Y13250D01*
X59306Y13323D01*
X59341Y13409D01*
X59353Y13500D01*
X59341Y13591D01*
X59306Y13677D01*
X59250Y13750D01*
X59177Y13806D01*
X59091Y13841D01*
X59000Y13853D01*
D02*
G37*
G36*
X60000D02*
X59909Y13841D01*
X59823Y13806D01*
X59750Y13750D01*
X59694Y13677D01*
X59659Y13591D01*
X59647Y13500D01*
X59659Y13409D01*
X59694Y13323D01*
X59750Y13250D01*
X59823Y13194D01*
X59909Y13159D01*
X60000Y13147D01*
X60091Y13159D01*
X60177Y13194D01*
X60250Y13250D01*
X60306Y13323D01*
X60341Y13409D01*
X60353Y13500D01*
X60341Y13591D01*
X60306Y13677D01*
X60250Y13750D01*
X60177Y13806D01*
X60091Y13841D01*
X60000Y13853D01*
D02*
G37*
G36*
X61000D02*
X60909Y13841D01*
X60823Y13806D01*
X60750Y13750D01*
X60694Y13677D01*
X60659Y13591D01*
X60647Y13500D01*
X60659Y13409D01*
X60694Y13323D01*
X60750Y13250D01*
X60823Y13194D01*
X60909Y13159D01*
X61000Y13147D01*
X61091Y13159D01*
X61177Y13194D01*
X61250Y13250D01*
X61306Y13323D01*
X61341Y13409D01*
X61353Y13500D01*
X61341Y13591D01*
X61306Y13677D01*
X61250Y13750D01*
X61177Y13806D01*
X61091Y13841D01*
X61000Y13853D01*
D02*
G37*
G36*
X53500D02*
X53409Y13841D01*
X53323Y13806D01*
X53250Y13750D01*
X53194Y13677D01*
X53159Y13591D01*
X53147Y13500D01*
X53159Y13409D01*
X53194Y13323D01*
X53250Y13250D01*
X53323Y13194D01*
X53409Y13159D01*
X53500Y13147D01*
X53591Y13159D01*
X53677Y13194D01*
X53750Y13250D01*
X53806Y13323D01*
X53841Y13409D01*
X53853Y13500D01*
X53841Y13591D01*
X53806Y13677D01*
X53750Y13750D01*
X53677Y13806D01*
X53591Y13841D01*
X53500Y13853D01*
D02*
G37*
G36*
X54500D02*
X54409Y13841D01*
X54323Y13806D01*
X54250Y13750D01*
X54194Y13677D01*
X54159Y13591D01*
X54147Y13500D01*
X54159Y13409D01*
X54194Y13323D01*
X54250Y13250D01*
X54323Y13194D01*
X54409Y13159D01*
X54500Y13147D01*
X54591Y13159D01*
X54677Y13194D01*
X54750Y13250D01*
X54806Y13323D01*
X54841Y13409D01*
X54853Y13500D01*
X54841Y13591D01*
X54806Y13677D01*
X54750Y13750D01*
X54677Y13806D01*
X54591Y13841D01*
X54500Y13853D01*
D02*
G37*
G36*
X58000D02*
X57909Y13841D01*
X57823Y13806D01*
X57750Y13750D01*
X57694Y13677D01*
X57659Y13591D01*
X57647Y13500D01*
X57659Y13409D01*
X57694Y13323D01*
X57750Y13250D01*
X57823Y13194D01*
X57909Y13159D01*
X58000Y13147D01*
X58091Y13159D01*
X58177Y13194D01*
X58250Y13250D01*
X58306Y13323D01*
X58341Y13409D01*
X58353Y13500D01*
X58341Y13591D01*
X58306Y13677D01*
X58250Y13750D01*
X58177Y13806D01*
X58091Y13841D01*
X58000Y13853D01*
D02*
G37*
G36*
X33500D02*
X33409Y13841D01*
X33323Y13806D01*
X33250Y13750D01*
X33194Y13677D01*
X33159Y13591D01*
X33147Y13500D01*
X33159Y13409D01*
X33194Y13323D01*
X33250Y13250D01*
X33323Y13194D01*
X33409Y13159D01*
X33500Y13147D01*
X33591Y13159D01*
X33677Y13194D01*
X33750Y13250D01*
X33806Y13323D01*
X33841Y13409D01*
X33853Y13500D01*
X33841Y13591D01*
X33806Y13677D01*
X33750Y13750D01*
X33677Y13806D01*
X33591Y13841D01*
X33500Y13853D01*
D02*
G37*
G36*
X34500D02*
X34409Y13841D01*
X34323Y13806D01*
X34250Y13750D01*
X34194Y13677D01*
X34159Y13591D01*
X34147Y13500D01*
X34159Y13409D01*
X34194Y13323D01*
X34250Y13250D01*
X34323Y13194D01*
X34409Y13159D01*
X34500Y13147D01*
X34591Y13159D01*
X34677Y13194D01*
X34750Y13250D01*
X34806Y13323D01*
X34841Y13409D01*
X34853Y13500D01*
X34841Y13591D01*
X34806Y13677D01*
X34750Y13750D01*
X34677Y13806D01*
X34591Y13841D01*
X34500Y13853D01*
D02*
G37*
G36*
X35500D02*
X35409Y13841D01*
X35323Y13806D01*
X35250Y13750D01*
X35194Y13677D01*
X35159Y13591D01*
X35147Y13500D01*
X35159Y13409D01*
X35194Y13323D01*
X35250Y13250D01*
X35323Y13194D01*
X35409Y13159D01*
X35500Y13147D01*
X35591Y13159D01*
X35677Y13194D01*
X35750Y13250D01*
X35806Y13323D01*
X35841Y13409D01*
X35853Y13500D01*
X35841Y13591D01*
X35806Y13677D01*
X35750Y13750D01*
X35677Y13806D01*
X35591Y13841D01*
X35500Y13853D01*
D02*
G37*
G36*
X28000D02*
X27909Y13841D01*
X27823Y13806D01*
X27750Y13750D01*
X27694Y13677D01*
X27659Y13591D01*
X27647Y13500D01*
X27659Y13409D01*
X27694Y13323D01*
X27750Y13250D01*
X27823Y13194D01*
X27909Y13159D01*
X28000Y13147D01*
X28091Y13159D01*
X28177Y13194D01*
X28250Y13250D01*
X28306Y13323D01*
X28341Y13409D01*
X28353Y13500D01*
X28341Y13591D01*
X28306Y13677D01*
X28250Y13750D01*
X28177Y13806D01*
X28091Y13841D01*
X28000Y13853D01*
D02*
G37*
G36*
X29000D02*
X28909Y13841D01*
X28823Y13806D01*
X28750Y13750D01*
X28694Y13677D01*
X28659Y13591D01*
X28647Y13500D01*
X28659Y13409D01*
X28694Y13323D01*
X28750Y13250D01*
X28823Y13194D01*
X28909Y13159D01*
X29000Y13147D01*
X29091Y13159D01*
X29177Y13194D01*
X29250Y13250D01*
X29306Y13323D01*
X29341Y13409D01*
X29353Y13500D01*
X29341Y13591D01*
X29306Y13677D01*
X29250Y13750D01*
X29177Y13806D01*
X29091Y13841D01*
X29000Y13853D01*
D02*
G37*
G36*
X32500D02*
X32409Y13841D01*
X32323Y13806D01*
X32250Y13750D01*
X32194Y13677D01*
X32159Y13591D01*
X32147Y13500D01*
X32159Y13409D01*
X32194Y13323D01*
X32250Y13250D01*
X32323Y13194D01*
X32409Y13159D01*
X32500Y13147D01*
X32591Y13159D01*
X32677Y13194D01*
X32750Y13250D01*
X32806Y13323D01*
X32841Y13409D01*
X32853Y13500D01*
X32841Y13591D01*
X32806Y13677D01*
X32750Y13750D01*
X32677Y13806D01*
X32591Y13841D01*
X32500Y13853D01*
D02*
G37*
G36*
X42000D02*
X41909Y13841D01*
X41823Y13806D01*
X41750Y13750D01*
X41694Y13677D01*
X41659Y13591D01*
X41647Y13500D01*
X41659Y13409D01*
X41694Y13323D01*
X41750Y13250D01*
X41823Y13194D01*
X41909Y13159D01*
X42000Y13147D01*
X42091Y13159D01*
X42177Y13194D01*
X42250Y13250D01*
X42306Y13323D01*
X42341Y13409D01*
X42353Y13500D01*
X42341Y13591D01*
X42306Y13677D01*
X42250Y13750D01*
X42177Y13806D01*
X42091Y13841D01*
X42000Y13853D01*
D02*
G37*
G36*
X43000D02*
X42909Y13841D01*
X42823Y13806D01*
X42750Y13750D01*
X42694Y13677D01*
X42659Y13591D01*
X42647Y13500D01*
X42659Y13409D01*
X42694Y13323D01*
X42750Y13250D01*
X42823Y13194D01*
X42909Y13159D01*
X43000Y13147D01*
X43091Y13159D01*
X43177Y13194D01*
X43250Y13250D01*
X43306Y13323D01*
X43341Y13409D01*
X43353Y13500D01*
X43341Y13591D01*
X43306Y13677D01*
X43250Y13750D01*
X43177Y13806D01*
X43091Y13841D01*
X43000Y13853D01*
D02*
G37*
G36*
X44000D02*
X43909Y13841D01*
X43823Y13806D01*
X43750Y13750D01*
X43694Y13677D01*
X43659Y13591D01*
X43647Y13500D01*
X43659Y13409D01*
X43694Y13323D01*
X43750Y13250D01*
X43823Y13194D01*
X43909Y13159D01*
X44000Y13147D01*
X44091Y13159D01*
X44177Y13194D01*
X44250Y13250D01*
X44306Y13323D01*
X44341Y13409D01*
X44353Y13500D01*
X44341Y13591D01*
X44306Y13677D01*
X44250Y13750D01*
X44177Y13806D01*
X44091Y13841D01*
X44000Y13853D01*
D02*
G37*
G36*
X36500D02*
X36409Y13841D01*
X36323Y13806D01*
X36250Y13750D01*
X36194Y13677D01*
X36159Y13591D01*
X36147Y13500D01*
X36159Y13409D01*
X36194Y13323D01*
X36250Y13250D01*
X36323Y13194D01*
X36409Y13159D01*
X36500Y13147D01*
X36591Y13159D01*
X36677Y13194D01*
X36750Y13250D01*
X36806Y13323D01*
X36841Y13409D01*
X36853Y13500D01*
X36841Y13591D01*
X36806Y13677D01*
X36750Y13750D01*
X36677Y13806D01*
X36591Y13841D01*
X36500Y13853D01*
D02*
G37*
G36*
X37500D02*
X37409Y13841D01*
X37323Y13806D01*
X37250Y13750D01*
X37194Y13677D01*
X37159Y13591D01*
X37147Y13500D01*
X37159Y13409D01*
X37194Y13323D01*
X37250Y13250D01*
X37323Y13194D01*
X37409Y13159D01*
X37500Y13147D01*
X37591Y13159D01*
X37677Y13194D01*
X37750Y13250D01*
X37806Y13323D01*
X37841Y13409D01*
X37853Y13500D01*
X37841Y13591D01*
X37806Y13677D01*
X37750Y13750D01*
X37677Y13806D01*
X37591Y13841D01*
X37500Y13853D01*
D02*
G37*
G36*
X41000D02*
X40909Y13841D01*
X40823Y13806D01*
X40750Y13750D01*
X40694Y13677D01*
X40659Y13591D01*
X40647Y13500D01*
X40659Y13409D01*
X40694Y13323D01*
X40750Y13250D01*
X40823Y13194D01*
X40909Y13159D01*
X41000Y13147D01*
X41091Y13159D01*
X41177Y13194D01*
X41250Y13250D01*
X41306Y13323D01*
X41341Y13409D01*
X41353Y13500D01*
X41341Y13591D01*
X41306Y13677D01*
X41250Y13750D01*
X41177Y13806D01*
X41091Y13841D01*
X41000Y13853D01*
D02*
G37*
G36*
X42300Y3050D02*
X42204Y3031D01*
X42123Y2977D01*
X42069Y2896D01*
X42050Y2800D01*
X42069Y2704D01*
X42123Y2623D01*
X42154Y2603D01*
X42139Y2555D01*
X42092Y2553D01*
X42077Y2577D01*
X41996Y2631D01*
X41900Y2650D01*
X41804Y2631D01*
X41723Y2577D01*
X41669Y2496D01*
X41650Y2400D01*
X41669Y2304D01*
X41723Y2223D01*
X41804Y2169D01*
X41900Y2150D01*
X41996Y2169D01*
X42077Y2223D01*
X42092Y2247D01*
X46708D01*
X46723Y2223D01*
X46804Y2169D01*
X46900Y2150D01*
X46996Y2169D01*
X47077Y2223D01*
X47131Y2304D01*
X47150Y2400D01*
X47131Y2496D01*
X47077Y2577D01*
X46996Y2631D01*
X46900Y2650D01*
X46804Y2631D01*
X46784Y2617D01*
X46739Y2647D01*
X46750Y2700D01*
X46731Y2796D01*
X46677Y2877D01*
X46596Y2931D01*
X46500Y2950D01*
X46404Y2931D01*
X46323Y2877D01*
X46308Y2853D01*
X42539D01*
X42531Y2896D01*
X42477Y2977D01*
X42396Y3031D01*
X42300Y3050D01*
D02*
G37*
G36*
X38500Y2700D02*
X38404D01*
X38411Y2666D01*
X38433Y2633D01*
X38466Y2611D01*
X38500Y2604D01*
Y2700D01*
D02*
G37*
G36*
X39700D02*
X39604D01*
X39611Y2666D01*
X39633Y2633D01*
X39666Y2611D01*
X39700Y2604D01*
Y2700D01*
D02*
G37*
G36*
X11500Y3132D02*
X11377Y3120D01*
X11258Y3084D01*
X11149Y3026D01*
X11053Y2947D01*
X10974Y2851D01*
X10916Y2742D01*
X10880Y2623D01*
X10868Y2500D01*
X10880Y2377D01*
X10916Y2258D01*
X10974Y2149D01*
X11053Y2053D01*
X11149Y1974D01*
X11258Y1916D01*
X11377Y1880D01*
X11500Y1868D01*
X11623Y1880D01*
X11742Y1916D01*
X11851Y1974D01*
X11947Y2053D01*
X12026Y2149D01*
X12084Y2258D01*
X12120Y2377D01*
X12132Y2500D01*
X12120Y2623D01*
X12084Y2742D01*
X12026Y2851D01*
X11947Y2947D01*
X11851Y3026D01*
X11742Y3084D01*
X11623Y3120D01*
X11500Y3132D01*
D02*
G37*
G36*
X53000Y2899D02*
X52897Y2885D01*
X52801Y2845D01*
X52718Y2782D01*
X52655Y2699D01*
X52615Y2603D01*
X52601Y2500D01*
X52615Y2397D01*
X52655Y2301D01*
X52718Y2218D01*
X52801Y2155D01*
X52897Y2115D01*
X53000Y2101D01*
X53103Y2115D01*
X53199Y2155D01*
X53282Y2218D01*
X53345Y2301D01*
X53385Y2397D01*
X53399Y2500D01*
X53385Y2603D01*
X53345Y2699D01*
X53282Y2782D01*
X53199Y2845D01*
X53103Y2885D01*
X53000Y2899D01*
D02*
G37*
G36*
X54295Y2897D02*
X53705D01*
X53666Y2889D01*
X53633Y2867D01*
X53611Y2834D01*
X53603Y2795D01*
Y2205D01*
X53611Y2166D01*
X53633Y2133D01*
X53666Y2111D01*
X53705Y2103D01*
X54295D01*
X54334Y2111D01*
X54367Y2133D01*
X54389Y2166D01*
X54397Y2205D01*
Y2795D01*
X54389Y2834D01*
X54367Y2867D01*
X54334Y2889D01*
X54295Y2897D01*
D02*
G37*
G36*
X4520Y3930D02*
X4383Y3911D01*
X4255Y3859D01*
X4146Y3774D01*
X4061Y3665D01*
X4009Y3537D01*
X3990Y3400D01*
X4009Y3263D01*
X4061Y3135D01*
X4146Y3026D01*
X4255Y2941D01*
X4383Y2889D01*
X4520Y2870D01*
X4657Y2889D01*
X4785Y2941D01*
X4894Y3026D01*
X4979Y3135D01*
X5031Y3263D01*
X5050Y3400D01*
X5031Y3537D01*
X4979Y3665D01*
X4894Y3774D01*
X4785Y3859D01*
X4657Y3911D01*
X4520Y3930D01*
D02*
G37*
G36*
X6500D02*
X6363Y3911D01*
X6235Y3859D01*
X6126Y3774D01*
X6041Y3665D01*
X5989Y3537D01*
X5970Y3400D01*
X5989Y3263D01*
X6041Y3135D01*
X6126Y3026D01*
X6235Y2941D01*
X6363Y2889D01*
X6500Y2870D01*
X6637Y2889D01*
X6765Y2941D01*
X6874Y3026D01*
X6959Y3135D01*
X7011Y3263D01*
X7030Y3400D01*
X7011Y3537D01*
X6959Y3665D01*
X6874Y3774D01*
X6765Y3859D01*
X6637Y3911D01*
X6500Y3930D01*
D02*
G37*
G36*
X38500Y3396D02*
X38466Y3389D01*
X38433Y3367D01*
X38411Y3334D01*
X38404Y3300D01*
X38500D01*
Y3396D01*
D02*
G37*
G36*
X39196Y2700D02*
X39100D01*
Y2604D01*
X39134Y2611D01*
X39167Y2633D01*
X39189Y2666D01*
X39196Y2700D01*
D02*
G37*
G36*
X40396D02*
X40300D01*
Y2604D01*
X40334Y2611D01*
X40367Y2633D01*
X40389Y2666D01*
X40396Y2700D01*
D02*
G37*
G36*
X2540Y3930D02*
X2403Y3911D01*
X2275Y3859D01*
X2166Y3774D01*
X2081Y3665D01*
X2029Y3537D01*
X2010Y3400D01*
X2029Y3263D01*
X2081Y3135D01*
X2166Y3026D01*
X2275Y2941D01*
X2403Y2889D01*
X2540Y2870D01*
X2677Y2889D01*
X2805Y2941D01*
X2914Y3026D01*
X2999Y3135D01*
X3051Y3263D01*
X3070Y3400D01*
X3051Y3537D01*
X2999Y3665D01*
X2914Y3774D01*
X2805Y3859D01*
X2677Y3911D01*
X2540Y3930D01*
D02*
G37*
G36*
X54295Y1397D02*
X53705D01*
X53666Y1389D01*
X53633Y1367D01*
X53611Y1334D01*
X53603Y1295D01*
Y705D01*
X53611Y666D01*
X53633Y633D01*
X53666Y611D01*
X53705Y603D01*
X54295D01*
X54334Y611D01*
X54367Y633D01*
X54389Y666D01*
X54397Y705D01*
Y1295D01*
X54389Y1334D01*
X54367Y1367D01*
X54334Y1389D01*
X54295Y1397D01*
D02*
G37*
G36*
X12200Y1200D02*
X11947D01*
X11974Y1149D01*
X12053Y1053D01*
X12149Y974D01*
X12200Y947D01*
Y1200D01*
D02*
G37*
G36*
X13053D02*
X12800D01*
Y947D01*
X12851Y974D01*
X12947Y1053D01*
X13026Y1149D01*
X13053Y1200D01*
D02*
G37*
G36*
X38800Y1399D02*
X38697Y1385D01*
X38601Y1345D01*
X38518Y1282D01*
X38455Y1199D01*
X38415Y1103D01*
X38401Y1000D01*
X38415Y897D01*
X38455Y801D01*
X38518Y718D01*
X38601Y655D01*
X38697Y615D01*
X38800Y601D01*
X38903Y615D01*
X38999Y655D01*
X39082Y718D01*
X39145Y801D01*
X39185Y897D01*
X39199Y1000D01*
X39185Y1103D01*
X39145Y1199D01*
X39082Y1282D01*
X38999Y1345D01*
X38903Y1385D01*
X38800Y1399D01*
D02*
G37*
G36*
X40000D02*
X39897Y1385D01*
X39801Y1345D01*
X39718Y1282D01*
X39655Y1199D01*
X39615Y1103D01*
X39601Y1000D01*
X39615Y897D01*
X39655Y801D01*
X39718Y718D01*
X39801Y655D01*
X39897Y615D01*
X40000Y601D01*
X40103Y615D01*
X40199Y655D01*
X40282Y718D01*
X40345Y801D01*
X40385Y897D01*
X40399Y1000D01*
X40385Y1103D01*
X40345Y1199D01*
X40282Y1282D01*
X40199Y1345D01*
X40103Y1385D01*
X40000Y1399D01*
D02*
G37*
G36*
X53000D02*
X52897Y1385D01*
X52801Y1345D01*
X52718Y1282D01*
X52655Y1199D01*
X52615Y1103D01*
X52601Y1000D01*
X52615Y897D01*
X52655Y801D01*
X52718Y718D01*
X52801Y655D01*
X52897Y615D01*
X53000Y601D01*
X53103Y615D01*
X53199Y655D01*
X53282Y718D01*
X53345Y801D01*
X53385Y897D01*
X53399Y1000D01*
X53385Y1103D01*
X53345Y1199D01*
X53282Y1282D01*
X53199Y1345D01*
X53103Y1385D01*
X53000Y1399D01*
D02*
G37*
G36*
X40000Y2399D02*
X39897Y2385D01*
X39801Y2345D01*
X39718Y2282D01*
X39655Y2199D01*
X39615Y2103D01*
X39601Y2000D01*
X39615Y1897D01*
X39655Y1801D01*
X39718Y1718D01*
X39801Y1655D01*
X39897Y1615D01*
X40000Y1601D01*
X40103Y1615D01*
X40199Y1655D01*
X40282Y1718D01*
X40345Y1801D01*
X40385Y1897D01*
X40399Y2000D01*
X40385Y2103D01*
X40345Y2199D01*
X40282Y2282D01*
X40199Y2345D01*
X40103Y2385D01*
X40000Y2399D01*
D02*
G37*
G36*
X12200Y2053D02*
X12149Y2026D01*
X12053Y1947D01*
X11974Y1851D01*
X11947Y1800D01*
X12200D01*
Y2053D01*
D02*
G37*
G36*
X12800D02*
Y1800D01*
X13053D01*
X13026Y1851D01*
X12947Y1947D01*
X12851Y2026D01*
X12800Y2053D01*
D02*
G37*
G36*
X15500Y3924D02*
X15277Y3907D01*
X15060Y3855D01*
X14853Y3769D01*
X14663Y3652D01*
X14493Y3507D01*
X14348Y3337D01*
X14231Y3147D01*
X14145Y2940D01*
X14093Y2723D01*
X14076Y2500D01*
X14093Y2277D01*
X14145Y2060D01*
X14231Y1853D01*
X14348Y1663D01*
X14493Y1493D01*
X14663Y1348D01*
X14853Y1231D01*
X15060Y1145D01*
X15277Y1093D01*
X15500Y1076D01*
X15723Y1093D01*
X15940Y1145D01*
X16147Y1231D01*
X16337Y1348D01*
X16507Y1493D01*
X16652Y1663D01*
X16769Y1853D01*
X16855Y2060D01*
X16907Y2277D01*
X16924Y2500D01*
X16907Y2723D01*
X16855Y2940D01*
X16769Y3147D01*
X16652Y3337D01*
X16507Y3507D01*
X16337Y3652D01*
X16147Y3769D01*
X15940Y3855D01*
X15723Y3907D01*
X15500Y3924D01*
D02*
G37*
G36*
X31500D02*
X31277Y3907D01*
X31060Y3855D01*
X30853Y3769D01*
X30663Y3652D01*
X30493Y3507D01*
X30348Y3337D01*
X30231Y3147D01*
X30145Y2940D01*
X30093Y2723D01*
X30076Y2500D01*
X30093Y2277D01*
X30145Y2060D01*
X30231Y1853D01*
X30348Y1663D01*
X30493Y1493D01*
X30663Y1348D01*
X30853Y1231D01*
X31060Y1145D01*
X31277Y1093D01*
X31500Y1076D01*
X31723Y1093D01*
X31940Y1145D01*
X32147Y1231D01*
X32337Y1348D01*
X32507Y1493D01*
X32652Y1663D01*
X32769Y1853D01*
X32855Y2060D01*
X32907Y2277D01*
X32924Y2500D01*
X32907Y2723D01*
X32855Y2940D01*
X32769Y3147D01*
X32652Y3337D01*
X32507Y3507D01*
X32337Y3652D01*
X32147Y3769D01*
X31940Y3855D01*
X31723Y3907D01*
X31500Y3924D01*
D02*
G37*
G36*
X38800Y2399D02*
X38697Y2385D01*
X38601Y2345D01*
X38518Y2282D01*
X38455Y2199D01*
X38415Y2103D01*
X38401Y2000D01*
X38415Y1897D01*
X38455Y1801D01*
X38518Y1718D01*
X38601Y1655D01*
X38697Y1615D01*
X38800Y1601D01*
X38903Y1615D01*
X38999Y1655D01*
X39082Y1718D01*
X39145Y1801D01*
X39185Y1897D01*
X39199Y2000D01*
X39185Y2103D01*
X39145Y2199D01*
X39082Y2282D01*
X38999Y2345D01*
X38903Y2385D01*
X38800Y2399D01*
D02*
G37*
G36*
X39700Y3396D02*
X39666Y3389D01*
X39633Y3367D01*
X39611Y3334D01*
X39604Y3300D01*
X39700D01*
Y3396D01*
D02*
G37*
G36*
X24500Y6504D02*
X24370Y6487D01*
X24248Y6436D01*
X24144Y6356D01*
X24064Y6252D01*
X24013Y6130D01*
X23996Y6000D01*
X24013Y5870D01*
X24064Y5748D01*
X24144Y5644D01*
X24248Y5564D01*
X24370Y5513D01*
X24500Y5496D01*
X24630Y5513D01*
X24752Y5564D01*
X24856Y5644D01*
X24936Y5748D01*
X24987Y5870D01*
X25004Y6000D01*
X24987Y6130D01*
X24936Y6252D01*
X24856Y6356D01*
X24752Y6436D01*
X24630Y6487D01*
X24500Y6504D01*
D02*
G37*
G36*
X26500D02*
X26370Y6487D01*
X26248Y6436D01*
X26144Y6356D01*
X26064Y6252D01*
X26013Y6130D01*
X25996Y6000D01*
X26013Y5870D01*
X26064Y5748D01*
X26144Y5644D01*
X26248Y5564D01*
X26370Y5513D01*
X26500Y5496D01*
X26630Y5513D01*
X26752Y5564D01*
X26856Y5644D01*
X26936Y5748D01*
X26987Y5870D01*
X27004Y6000D01*
X26987Y6130D01*
X26936Y6252D01*
X26856Y6356D01*
X26752Y6436D01*
X26630Y6487D01*
X26500Y6504D01*
D02*
G37*
G36*
X54600Y6050D02*
X54504Y6031D01*
X54423Y5977D01*
X54369Y5896D01*
X54350Y5800D01*
X54356Y5772D01*
X53637Y5053D01*
X53517D01*
X53459Y5041D01*
X53409Y5008D01*
X49859Y1458D01*
X48453D01*
X48432Y1497D01*
X48431Y1508D01*
X48450Y1600D01*
X48444Y1628D01*
X48593Y1776D01*
X48626Y1826D01*
X48637Y1882D01*
X48671Y1889D01*
X48704Y1911D01*
X48726Y1944D01*
X48734Y1983D01*
Y2337D01*
X48726Y2376D01*
X48704Y2409D01*
X48671Y2431D01*
X48632Y2439D01*
X48541D01*
X48525Y2489D01*
X48577Y2523D01*
X48631Y2604D01*
X48650Y2700D01*
X48631Y2796D01*
X48577Y2877D01*
X48553Y2892D01*
Y3176D01*
X48603Y3191D01*
X48638Y3138D01*
X48719Y3084D01*
X48815Y3065D01*
Y3565D01*
X48719Y3546D01*
X48638Y3492D01*
X48603Y3439D01*
X48553Y3454D01*
Y4008D01*
X48577Y4023D01*
X48631Y4104D01*
X48650Y4200D01*
X48631Y4296D01*
X48577Y4377D01*
X48496Y4431D01*
X48400Y4450D01*
X48304Y4431D01*
X48223Y4377D01*
X48169Y4296D01*
X48150Y4200D01*
X48169Y4104D01*
X48223Y4023D01*
X48247Y4008D01*
Y2892D01*
X48223Y2877D01*
X48169Y2796D01*
X48150Y2700D01*
X48169Y2604D01*
X48223Y2523D01*
X48288Y2480D01*
X48291Y2463D01*
X48289Y2427D01*
X48288Y2425D01*
X48265Y2409D01*
X48243Y2376D01*
X48235Y2337D01*
Y1983D01*
X48243Y1944D01*
X48265Y1911D01*
X48267Y1884D01*
X48228Y1844D01*
X48200Y1850D01*
X48104Y1831D01*
X48023Y1777D01*
X47994Y1733D01*
X47941Y1744D01*
X47931Y1796D01*
X47907Y1831D01*
X47934Y1881D01*
X47796D01*
Y1860D01*
X47512D01*
X47469Y1796D01*
X47450Y1700D01*
X47462Y1643D01*
X47416Y1618D01*
X47130Y1903D01*
X47081Y1936D01*
X47022Y1948D01*
X46778D01*
X46719Y1936D01*
X46670Y1903D01*
X46497Y1730D01*
X46496Y1731D01*
X46400Y1750D01*
X46304Y1731D01*
X46223Y1677D01*
X46169Y1596D01*
X46150Y1500D01*
X46169Y1404D01*
X46223Y1323D01*
X46304Y1269D01*
X46400Y1250D01*
X46496Y1269D01*
X46577Y1323D01*
X46622Y1392D01*
X46633Y1394D01*
X46667D01*
X46678Y1392D01*
X46723Y1323D01*
X46804Y1269D01*
X46900Y1250D01*
X46928Y1256D01*
X47187Y997D01*
X47236Y964D01*
X47295Y952D01*
X50005D01*
X50064Y964D01*
X50113Y997D01*
X53663Y4547D01*
X54408D01*
X54423Y4523D01*
X54504Y4469D01*
X54600Y4450D01*
X54696Y4469D01*
X54777Y4523D01*
X54831Y4604D01*
X54850Y4700D01*
X54831Y4796D01*
X54777Y4877D01*
X54696Y4931D01*
X54600Y4950D01*
X54504Y4931D01*
X54423Y4877D01*
X54408Y4853D01*
X53935D01*
X53915Y4899D01*
X54572Y5556D01*
X54600Y5550D01*
X54696Y5569D01*
X54777Y5623D01*
X54831Y5704D01*
X54850Y5800D01*
X54831Y5896D01*
X54777Y5977D01*
X54696Y6031D01*
X54600Y6050D01*
D02*
G37*
G36*
X18500Y6504D02*
X18370Y6487D01*
X18248Y6436D01*
X18144Y6356D01*
X18064Y6252D01*
X18013Y6130D01*
X17996Y6000D01*
X18013Y5870D01*
X18064Y5748D01*
X18144Y5644D01*
X18248Y5564D01*
X18370Y5513D01*
X18500Y5496D01*
X18630Y5513D01*
X18752Y5564D01*
X18856Y5644D01*
X18936Y5748D01*
X18987Y5870D01*
X19004Y6000D01*
X18987Y6130D01*
X18936Y6252D01*
X18856Y6356D01*
X18752Y6436D01*
X18630Y6487D01*
X18500Y6504D01*
D02*
G37*
G36*
X20500D02*
X20370Y6487D01*
X20248Y6436D01*
X20144Y6356D01*
X20064Y6252D01*
X20013Y6130D01*
X19996Y6000D01*
X20013Y5870D01*
X20064Y5748D01*
X20144Y5644D01*
X20248Y5564D01*
X20370Y5513D01*
X20500Y5496D01*
X20630Y5513D01*
X20752Y5564D01*
X20856Y5644D01*
X20936Y5748D01*
X20987Y5870D01*
X21004Y6000D01*
X20987Y6130D01*
X20936Y6252D01*
X20856Y6356D01*
X20752Y6436D01*
X20630Y6487D01*
X20500Y6504D01*
D02*
G37*
G36*
X22500Y8250D02*
X22404Y8231D01*
X22323Y8177D01*
X22269Y8096D01*
X22250Y8000D01*
X22269Y7904D01*
X22323Y7823D01*
X22347Y7808D01*
Y6477D01*
X22248Y6436D01*
X22144Y6356D01*
X22064Y6252D01*
X22013Y6130D01*
X21996Y6000D01*
X22013Y5870D01*
X22064Y5748D01*
X22144Y5644D01*
X22248Y5564D01*
X22370Y5513D01*
X22500Y5496D01*
X22630Y5513D01*
X22752Y5564D01*
X22856Y5644D01*
X22936Y5748D01*
X22987Y5870D01*
X23004Y6000D01*
X22987Y6130D01*
X22936Y6252D01*
X22856Y6356D01*
X22752Y6436D01*
X22653Y6477D01*
Y7808D01*
X22677Y7823D01*
X22731Y7904D01*
X22750Y8000D01*
X22731Y8096D01*
X22677Y8177D01*
X22596Y8231D01*
X22500Y8250D01*
D02*
G37*
G36*
X28200Y6400D02*
X28144Y6356D01*
X28100Y6300D01*
X28200D01*
Y6400D01*
D02*
G37*
G36*
X28800D02*
Y6300D01*
X28900D01*
X28856Y6356D01*
X28800Y6400D01*
D02*
G37*
G36*
X2500Y7530D02*
X2363Y7511D01*
X2235Y7459D01*
X2126Y7374D01*
X2041Y7265D01*
X1989Y7137D01*
X1970Y7000D01*
X1989Y6863D01*
X2041Y6735D01*
X2126Y6626D01*
X2235Y6541D01*
X2363Y6489D01*
X2500Y6470D01*
X2637Y6489D01*
X2765Y6541D01*
X2874Y6626D01*
X2959Y6735D01*
X3011Y6863D01*
X3030Y7000D01*
X3011Y7137D01*
X2959Y7265D01*
X2874Y7374D01*
X2765Y7459D01*
X2637Y7511D01*
X2500Y7530D01*
D02*
G37*
G36*
X28200Y5700D02*
X28100D01*
X28144Y5644D01*
X28200Y5600D01*
Y5700D01*
D02*
G37*
G36*
X28900D02*
X28800D01*
Y5600D01*
X28856Y5644D01*
X28900Y5700D01*
D02*
G37*
G36*
X42900Y6250D02*
X42804Y6231D01*
X42723Y6177D01*
X42669Y6096D01*
X42650Y6000D01*
X42666Y5918D01*
X42638Y5887D01*
X42627Y5880D01*
X42604Y5890D01*
X42500Y5903D01*
X42396Y5890D01*
X42298Y5849D01*
X42215Y5785D01*
X42151Y5702D01*
X42110Y5604D01*
X42097Y5500D01*
X42110Y5396D01*
X42151Y5298D01*
X42215Y5215D01*
X42295Y5153D01*
X42295Y5148D01*
X42270Y5103D01*
X42113D01*
X41870Y5347D01*
X41890Y5396D01*
X41903Y5500D01*
X41890Y5604D01*
X41849Y5702D01*
X41785Y5785D01*
X41702Y5849D01*
X41604Y5890D01*
X41500Y5903D01*
X41396Y5890D01*
X41298Y5849D01*
X41215Y5785D01*
X41151Y5702D01*
X41110Y5604D01*
X41097Y5500D01*
X41110Y5396D01*
X41151Y5298D01*
X41215Y5215D01*
X41298Y5151D01*
X41396Y5110D01*
X41500Y5097D01*
X41604Y5110D01*
X41653Y5131D01*
X41942Y4842D01*
X41991Y4809D01*
X42050Y4797D01*
X42161D01*
X42185Y4747D01*
X42151Y4702D01*
X42110Y4604D01*
X42097Y4500D01*
X42110Y4396D01*
X42151Y4298D01*
X42185Y4253D01*
X42161Y4203D01*
X42050D01*
X41991Y4191D01*
X41942Y4158D01*
X41653Y3869D01*
X41604Y3890D01*
X41500Y3903D01*
X41396Y3890D01*
X41298Y3849D01*
X41215Y3785D01*
X41151Y3702D01*
X41110Y3604D01*
X41097Y3500D01*
X41110Y3396D01*
X41151Y3298D01*
X41215Y3215D01*
X41298Y3151D01*
X41396Y3110D01*
X41500Y3097D01*
X41604Y3110D01*
X41702Y3151D01*
X41785Y3215D01*
X41849Y3298D01*
X41890Y3396D01*
X41903Y3500D01*
X41890Y3604D01*
X41870Y3653D01*
X42113Y3897D01*
X42270D01*
X42295Y3852D01*
X42295Y3847D01*
X42234Y3800D01*
X42500D01*
X42766D01*
X42705Y3847D01*
X42705Y3852D01*
X42730Y3897D01*
X43186D01*
X43245Y3909D01*
X43295Y3942D01*
X43400Y4047D01*
X44508D01*
X44523Y4023D01*
X44604Y3969D01*
X44700Y3950D01*
X44796Y3969D01*
X44877Y4023D01*
X44931Y4104D01*
X44950Y4200D01*
X44931Y4296D01*
X44877Y4377D01*
Y4423D01*
X44931Y4504D01*
X44950Y4600D01*
X44938Y4660D01*
X44941Y4664D01*
X44983Y4688D01*
X45019Y4664D01*
X45078Y4652D01*
X46032D01*
X46649Y4035D01*
X46643Y4007D01*
X46662Y3911D01*
X46716Y3830D01*
X46797Y3776D01*
X46893Y3757D01*
X46989Y3776D01*
X47070Y3830D01*
X47124Y3911D01*
X47135Y3966D01*
X47188Y3977D01*
X47223Y3923D01*
X47247Y3908D01*
Y3192D01*
X47223Y3177D01*
X47169Y3096D01*
X47150Y3000D01*
X47169Y2904D01*
X47223Y2823D01*
X47304Y2769D01*
X47400Y2750D01*
X47496Y2769D01*
X47577Y2823D01*
X47631Y2904D01*
X47650Y3000D01*
X47631Y3096D01*
X47577Y3177D01*
X47553Y3192D01*
Y3908D01*
X47577Y3923D01*
X47631Y4004D01*
X47650Y4100D01*
X47631Y4196D01*
X47577Y4277D01*
X47496Y4331D01*
X47400Y4350D01*
X47304Y4331D01*
X47223Y4277D01*
X47169Y4196D01*
X47158Y4141D01*
X47105Y4130D01*
X47070Y4184D01*
X46989Y4238D01*
X46893Y4257D01*
X46865Y4251D01*
X46203Y4913D01*
X46154Y4946D01*
X46095Y4958D01*
X45453D01*
X45432Y4997D01*
X45431Y5008D01*
X45450Y5100D01*
X45431Y5196D01*
X45377Y5277D01*
X45333Y5306D01*
X45344Y5359D01*
X45396Y5369D01*
X45477Y5423D01*
X45531Y5504D01*
X45550Y5600D01*
X45531Y5696D01*
X45477Y5777D01*
X45396Y5831D01*
X45300Y5850D01*
X45204Y5831D01*
X45123Y5777D01*
X45108Y5753D01*
X45100D01*
X45041Y5741D01*
X44992Y5708D01*
X44900Y5616D01*
X44017D01*
X43525Y6108D01*
X43476Y6141D01*
X43417Y6153D01*
X43092D01*
X43077Y6177D01*
X42996Y6231D01*
X42900Y6250D01*
D02*
G37*
G36*
X13053Y4200D02*
X12800D01*
Y3947D01*
X12851Y3974D01*
X12947Y4053D01*
X13026Y4149D01*
X13053Y4200D01*
D02*
G37*
G36*
X960Y4031D02*
X953Y4030D01*
X947Y4031D01*
X810Y4013D01*
X797Y4008D01*
X784Y4006D01*
X656Y3953D01*
X645Y3945D01*
X633Y3939D01*
X523Y3855D01*
X515Y3845D01*
X505Y3837D01*
X421Y3727D01*
X415Y3715D01*
X407Y3704D01*
X354Y3576D01*
X352Y3563D01*
X347Y3550D01*
X329Y3413D01*
X330Y3400D01*
X329Y3387D01*
X347Y3250D01*
X352Y3237D01*
X354Y3224D01*
X407Y3096D01*
X415Y3085D01*
X421Y3073D01*
X505Y2964D01*
X515Y2955D01*
X523Y2945D01*
X633Y2861D01*
X645Y2855D01*
X656Y2847D01*
X784Y2794D01*
X797Y2792D01*
X810Y2787D01*
X947Y2769D01*
X953Y2770D01*
X960Y2769D01*
X967Y2770D01*
X973Y2769D01*
X1110Y2787D01*
X1123Y2792D01*
X1136Y2794D01*
X1264Y2847D01*
X1275Y2855D01*
X1287Y2861D01*
X1397Y2945D01*
X1405Y2955D01*
X1415Y2964D01*
X1499Y3073D01*
X1505Y3085D01*
X1513Y3096D01*
X1566Y3224D01*
X1568Y3237D01*
X1573Y3250D01*
X1591Y3387D01*
X1590Y3400D01*
X1591Y3413D01*
X1573Y3550D01*
X1568Y3563D01*
X1566Y3576D01*
X1513Y3704D01*
X1505Y3715D01*
X1499Y3727D01*
X1415Y3837D01*
X1405Y3845D01*
X1397Y3855D01*
X1287Y3939D01*
X1275Y3945D01*
X1264Y3953D01*
X1136Y4006D01*
X1123Y4008D01*
X1110Y4013D01*
X973Y4031D01*
X967Y4030D01*
X960Y4031D01*
D02*
G37*
G36*
X41500Y4903D02*
X41396Y4890D01*
X41298Y4849D01*
X41215Y4785D01*
X41151Y4702D01*
X41110Y4604D01*
X41097Y4500D01*
X41110Y4396D01*
X41151Y4298D01*
X41215Y4215D01*
X41298Y4151D01*
X41396Y4110D01*
X41500Y4097D01*
X41604Y4110D01*
X41702Y4151D01*
X41785Y4215D01*
X41849Y4298D01*
X41890Y4396D01*
X41903Y4500D01*
X41890Y4604D01*
X41849Y4702D01*
X41785Y4785D01*
X41702Y4849D01*
X41604Y4890D01*
X41500Y4903D01*
D02*
G37*
G36*
X39100Y3396D02*
Y3300D01*
X39196D01*
X39189Y3334D01*
X39167Y3367D01*
X39134Y3389D01*
X39100Y3396D01*
D02*
G37*
G36*
X40300D02*
Y3300D01*
X40396D01*
X40389Y3334D01*
X40367Y3367D01*
X40334Y3389D01*
X40300Y3396D01*
D02*
G37*
G36*
X12200Y4200D02*
X11947D01*
X11974Y4149D01*
X12053Y4053D01*
X12149Y3974D01*
X12200Y3947D01*
Y4200D01*
D02*
G37*
G36*
X37300Y6025D02*
X37204Y6006D01*
X37123Y5951D01*
X37069Y5870D01*
X37050Y5775D01*
X37069Y5679D01*
X37123Y5598D01*
X37204Y5544D01*
X37300Y5525D01*
X37328Y5531D01*
X37671Y5187D01*
X37721Y5154D01*
X37733Y5152D01*
X37751Y5125D01*
X37784Y5103D01*
X37823Y5095D01*
X38177D01*
X38216Y5103D01*
X38249Y5125D01*
X38271Y5158D01*
X38279Y5197D01*
Y5492D01*
X38271Y5531D01*
X38249Y5564D01*
X38216Y5586D01*
X38177Y5594D01*
X37823D01*
X37784Y5586D01*
X37751Y5564D01*
X37729Y5562D01*
X37544Y5747D01*
X37550Y5775D01*
X37531Y5870D01*
X37477Y5951D01*
X37396Y6006D01*
X37300Y6025D01*
D02*
G37*
G36*
X39000Y6150D02*
X38904Y6131D01*
X38823Y6077D01*
X38769Y5996D01*
X38750Y5900D01*
X38769Y5804D01*
X38823Y5723D01*
X38847Y5708D01*
Y5594D01*
X38823D01*
X38784Y5586D01*
X38751Y5564D01*
X38729Y5531D01*
X38721Y5492D01*
Y5197D01*
X38729Y5158D01*
X38751Y5125D01*
X38784Y5103D01*
X38823Y5095D01*
X39177D01*
X39216Y5103D01*
X39249Y5125D01*
X39271Y5158D01*
X39279Y5197D01*
Y5492D01*
X39271Y5531D01*
X39249Y5564D01*
X39216Y5586D01*
X39177Y5594D01*
X39153D01*
Y5708D01*
X39177Y5723D01*
X39231Y5804D01*
X39250Y5900D01*
X39231Y5996D01*
X39177Y6077D01*
X39096Y6131D01*
X39000Y6150D01*
D02*
G37*
G36*
X50600Y7850D02*
X50504Y7831D01*
X50423Y7777D01*
X50369Y7696D01*
X50350Y7600D01*
X50369Y7504D01*
X50423Y7423D01*
X50447Y7408D01*
Y5692D01*
X50423Y5677D01*
X50369Y5596D01*
X50350Y5500D01*
X50369Y5404D01*
X50423Y5323D01*
X50504Y5269D01*
X50600Y5250D01*
X50696Y5269D01*
X50777Y5323D01*
X50831Y5404D01*
X50850Y5500D01*
X50849Y5504D01*
X50884Y5545D01*
X50916D01*
X50951Y5504D01*
X50950Y5500D01*
X50969Y5404D01*
X51023Y5323D01*
X51104Y5269D01*
X51200Y5250D01*
X51296Y5269D01*
X51377Y5323D01*
X51431Y5404D01*
X51450Y5500D01*
X51449Y5504D01*
X51484Y5545D01*
X51516D01*
X51551Y5504D01*
X51550Y5500D01*
X51569Y5404D01*
X51623Y5323D01*
X51704Y5269D01*
X51800Y5250D01*
X51896Y5269D01*
X51977Y5323D01*
X52031Y5404D01*
X52050Y5500D01*
X52041Y5542D01*
X52053Y5600D01*
Y6208D01*
X52077Y6223D01*
X52131Y6304D01*
X52150Y6400D01*
X52131Y6496D01*
X52077Y6577D01*
X51996Y6631D01*
X51900Y6650D01*
X51804Y6631D01*
X51769Y6607D01*
X51733Y6643D01*
X51757Y6679D01*
X51776Y6774D01*
X51757Y6870D01*
X51702Y6951D01*
X51621Y7005D01*
X51526Y7024D01*
X51454Y7010D01*
X51436Y7101D01*
X51382Y7182D01*
X51301Y7236D01*
X51205Y7255D01*
X51182Y7250D01*
X51147Y7286D01*
X51150Y7300D01*
X51131Y7396D01*
X51077Y7477D01*
X50996Y7531D01*
X50900Y7550D01*
X50881Y7546D01*
X50846Y7581D01*
X50850Y7600D01*
X50831Y7696D01*
X50777Y7777D01*
X50696Y7831D01*
X50600Y7850D01*
D02*
G37*
G36*
X12200Y5053D02*
X12149Y5026D01*
X12053Y4947D01*
X11974Y4851D01*
X11947Y4800D01*
X12200D01*
Y5053D01*
D02*
G37*
G36*
X12800D02*
Y4800D01*
X13053D01*
X13026Y4851D01*
X12947Y4947D01*
X12851Y5026D01*
X12800Y5053D01*
D02*
G37*
G36*
X11500Y6132D02*
X11377Y6120D01*
X11258Y6084D01*
X11149Y6026D01*
X11053Y5947D01*
X10974Y5851D01*
X10916Y5742D01*
X10880Y5623D01*
X10868Y5500D01*
X10880Y5377D01*
X10916Y5258D01*
X10974Y5149D01*
X11053Y5053D01*
X11149Y4974D01*
X11258Y4916D01*
X11377Y4880D01*
X11500Y4868D01*
X11623Y4880D01*
X11742Y4916D01*
X11851Y4974D01*
X11947Y5053D01*
X12026Y5149D01*
X12084Y5258D01*
X12120Y5377D01*
X12132Y5500D01*
X12120Y5623D01*
X12084Y5742D01*
X12026Y5851D01*
X11947Y5947D01*
X11851Y6026D01*
X11742Y6084D01*
X11623Y6120D01*
X11500Y6132D01*
D02*
G37*
G36*
X59000Y24853D02*
X58909Y24841D01*
X58823Y24806D01*
X58750Y24750D01*
X58694Y24677D01*
X58659Y24591D01*
X58647Y24500D01*
X58659Y24409D01*
X58694Y24323D01*
X58750Y24250D01*
X58823Y24194D01*
X58909Y24159D01*
X59000Y24147D01*
X59091Y24159D01*
X59177Y24194D01*
X59250Y24250D01*
X59306Y24323D01*
X59341Y24409D01*
X59353Y24500D01*
X59341Y24591D01*
X59306Y24677D01*
X59250Y24750D01*
X59177Y24806D01*
X59091Y24841D01*
X59000Y24853D01*
D02*
G37*
G36*
X60000D02*
X59909Y24841D01*
X59823Y24806D01*
X59750Y24750D01*
X59694Y24677D01*
X59659Y24591D01*
X59647Y24500D01*
X59659Y24409D01*
X59694Y24323D01*
X59750Y24250D01*
X59823Y24194D01*
X59909Y24159D01*
X60000Y24147D01*
X60091Y24159D01*
X60177Y24194D01*
X60250Y24250D01*
X60306Y24323D01*
X60341Y24409D01*
X60353Y24500D01*
X60341Y24591D01*
X60306Y24677D01*
X60250Y24750D01*
X60177Y24806D01*
X60091Y24841D01*
X60000Y24853D01*
D02*
G37*
G36*
X61000D02*
X60909Y24841D01*
X60823Y24806D01*
X60750Y24750D01*
X60694Y24677D01*
X60659Y24591D01*
X60647Y24500D01*
X60659Y24409D01*
X60694Y24323D01*
X60750Y24250D01*
X60823Y24194D01*
X60909Y24159D01*
X61000Y24147D01*
X61091Y24159D01*
X61177Y24194D01*
X61250Y24250D01*
X61306Y24323D01*
X61341Y24409D01*
X61353Y24500D01*
X61341Y24591D01*
X61306Y24677D01*
X61250Y24750D01*
X61177Y24806D01*
X61091Y24841D01*
X61000Y24853D01*
D02*
G37*
G36*
X51500D02*
X51409Y24841D01*
X51323Y24806D01*
X51250Y24750D01*
X51194Y24677D01*
X51159Y24591D01*
X51147Y24500D01*
X51159Y24409D01*
X51194Y24323D01*
X51250Y24250D01*
X51323Y24194D01*
X51409Y24159D01*
X51500Y24147D01*
X51591Y24159D01*
X51677Y24194D01*
X51750Y24250D01*
X51806Y24323D01*
X51841Y24409D01*
X51853Y24500D01*
X51841Y24591D01*
X51806Y24677D01*
X51750Y24750D01*
X51677Y24806D01*
X51591Y24841D01*
X51500Y24853D01*
D02*
G37*
G36*
X52500D02*
X52409Y24841D01*
X52323Y24806D01*
X52250Y24750D01*
X52194Y24677D01*
X52159Y24591D01*
X52147Y24500D01*
X52159Y24409D01*
X52194Y24323D01*
X52250Y24250D01*
X52323Y24194D01*
X52409Y24159D01*
X52500Y24147D01*
X52591Y24159D01*
X52677Y24194D01*
X52750Y24250D01*
X52806Y24323D01*
X52841Y24409D01*
X52853Y24500D01*
X52841Y24591D01*
X52806Y24677D01*
X52750Y24750D01*
X52677Y24806D01*
X52591Y24841D01*
X52500Y24853D01*
D02*
G37*
G36*
X53500D02*
X53409Y24841D01*
X53323Y24806D01*
X53250Y24750D01*
X53194Y24677D01*
X53159Y24591D01*
X53147Y24500D01*
X53159Y24409D01*
X53194Y24323D01*
X53250Y24250D01*
X53323Y24194D01*
X53409Y24159D01*
X53500Y24147D01*
X53591Y24159D01*
X53677Y24194D01*
X53750Y24250D01*
X53806Y24323D01*
X53841Y24409D01*
X53853Y24500D01*
X53841Y24591D01*
X53806Y24677D01*
X53750Y24750D01*
X53677Y24806D01*
X53591Y24841D01*
X53500Y24853D01*
D02*
G37*
G36*
X31200Y24200D02*
X31163D01*
X31178Y24178D01*
X31200Y24163D01*
Y24200D01*
D02*
G37*
G36*
X39700D02*
X39663D01*
X39678Y24178D01*
X39700Y24163D01*
Y24200D01*
D02*
G37*
G36*
X48200D02*
X48163D01*
X48178Y24178D01*
X48200Y24163D01*
Y24200D01*
D02*
G37*
G36*
X62000Y24853D02*
X61909Y24841D01*
X61823Y24806D01*
X61750Y24750D01*
X61694Y24677D01*
X61659Y24591D01*
X61647Y24500D01*
X61659Y24409D01*
X61694Y24323D01*
X61750Y24250D01*
X61823Y24194D01*
X61909Y24159D01*
X62000Y24147D01*
X62091Y24159D01*
X62177Y24194D01*
X62250Y24250D01*
X62306Y24323D01*
X62341Y24409D01*
X62353Y24500D01*
X62341Y24591D01*
X62306Y24677D01*
X62250Y24750D01*
X62177Y24806D01*
X62091Y24841D01*
X62000Y24853D01*
D02*
G37*
G36*
X14200Y24200D02*
X14163D01*
X14178Y24178D01*
X14200Y24163D01*
Y24200D01*
D02*
G37*
G36*
X22700D02*
X22663D01*
X22678Y24178D01*
X22700Y24163D01*
Y24200D01*
D02*
G37*
G36*
X33500Y24853D02*
X33409Y24841D01*
X33323Y24806D01*
X33250Y24750D01*
X33194Y24677D01*
X33159Y24591D01*
X33147Y24500D01*
X33159Y24409D01*
X33194Y24323D01*
X33250Y24250D01*
X33323Y24194D01*
X33409Y24159D01*
X33500Y24147D01*
X33591Y24159D01*
X33677Y24194D01*
X33750Y24250D01*
X33806Y24323D01*
X33841Y24409D01*
X33853Y24500D01*
X33841Y24591D01*
X33806Y24677D01*
X33750Y24750D01*
X33677Y24806D01*
X33591Y24841D01*
X33500Y24853D01*
D02*
G37*
G36*
X34500D02*
X34409Y24841D01*
X34323Y24806D01*
X34250Y24750D01*
X34194Y24677D01*
X34159Y24591D01*
X34147Y24500D01*
X34159Y24409D01*
X34194Y24323D01*
X34250Y24250D01*
X34323Y24194D01*
X34409Y24159D01*
X34500Y24147D01*
X34591Y24159D01*
X34677Y24194D01*
X34750Y24250D01*
X34806Y24323D01*
X34841Y24409D01*
X34853Y24500D01*
X34841Y24591D01*
X34806Y24677D01*
X34750Y24750D01*
X34677Y24806D01*
X34591Y24841D01*
X34500Y24853D01*
D02*
G37*
G36*
X35500D02*
X35409Y24841D01*
X35323Y24806D01*
X35250Y24750D01*
X35194Y24677D01*
X35159Y24591D01*
X35147Y24500D01*
X35159Y24409D01*
X35194Y24323D01*
X35250Y24250D01*
X35323Y24194D01*
X35409Y24159D01*
X35500Y24147D01*
X35591Y24159D01*
X35677Y24194D01*
X35750Y24250D01*
X35806Y24323D01*
X35841Y24409D01*
X35853Y24500D01*
X35841Y24591D01*
X35806Y24677D01*
X35750Y24750D01*
X35677Y24806D01*
X35591Y24841D01*
X35500Y24853D01*
D02*
G37*
G36*
X26000D02*
X25909Y24841D01*
X25823Y24806D01*
X25750Y24750D01*
X25694Y24677D01*
X25659Y24591D01*
X25647Y24500D01*
X25659Y24409D01*
X25694Y24323D01*
X25750Y24250D01*
X25823Y24194D01*
X25909Y24159D01*
X26000Y24147D01*
X26091Y24159D01*
X26177Y24194D01*
X26250Y24250D01*
X26306Y24323D01*
X26341Y24409D01*
X26353Y24500D01*
X26341Y24591D01*
X26306Y24677D01*
X26250Y24750D01*
X26177Y24806D01*
X26091Y24841D01*
X26000Y24853D01*
D02*
G37*
G36*
X27000D02*
X26909Y24841D01*
X26823Y24806D01*
X26750Y24750D01*
X26694Y24677D01*
X26659Y24591D01*
X26647Y24500D01*
X26659Y24409D01*
X26694Y24323D01*
X26750Y24250D01*
X26823Y24194D01*
X26909Y24159D01*
X27000Y24147D01*
X27091Y24159D01*
X27177Y24194D01*
X27250Y24250D01*
X27306Y24323D01*
X27341Y24409D01*
X27353Y24500D01*
X27341Y24591D01*
X27306Y24677D01*
X27250Y24750D01*
X27177Y24806D01*
X27091Y24841D01*
X27000Y24853D01*
D02*
G37*
G36*
X28000D02*
X27909Y24841D01*
X27823Y24806D01*
X27750Y24750D01*
X27694Y24677D01*
X27659Y24591D01*
X27647Y24500D01*
X27659Y24409D01*
X27694Y24323D01*
X27750Y24250D01*
X27823Y24194D01*
X27909Y24159D01*
X28000Y24147D01*
X28091Y24159D01*
X28177Y24194D01*
X28250Y24250D01*
X28306Y24323D01*
X28341Y24409D01*
X28353Y24500D01*
X28341Y24591D01*
X28306Y24677D01*
X28250Y24750D01*
X28177Y24806D01*
X28091Y24841D01*
X28000Y24853D01*
D02*
G37*
G36*
X44000D02*
X43909Y24841D01*
X43823Y24806D01*
X43750Y24750D01*
X43694Y24677D01*
X43659Y24591D01*
X43647Y24500D01*
X43659Y24409D01*
X43694Y24323D01*
X43750Y24250D01*
X43823Y24194D01*
X43909Y24159D01*
X44000Y24147D01*
X44091Y24159D01*
X44177Y24194D01*
X44250Y24250D01*
X44306Y24323D01*
X44341Y24409D01*
X44353Y24500D01*
X44341Y24591D01*
X44306Y24677D01*
X44250Y24750D01*
X44177Y24806D01*
X44091Y24841D01*
X44000Y24853D01*
D02*
G37*
G36*
X45000D02*
X44909Y24841D01*
X44823Y24806D01*
X44750Y24750D01*
X44694Y24677D01*
X44659Y24591D01*
X44647Y24500D01*
X44659Y24409D01*
X44694Y24323D01*
X44750Y24250D01*
X44823Y24194D01*
X44909Y24159D01*
X45000Y24147D01*
X45091Y24159D01*
X45177Y24194D01*
X45250Y24250D01*
X45306Y24323D01*
X45341Y24409D01*
X45353Y24500D01*
X45341Y24591D01*
X45306Y24677D01*
X45250Y24750D01*
X45177Y24806D01*
X45091Y24841D01*
X45000Y24853D01*
D02*
G37*
G36*
X50500D02*
X50409Y24841D01*
X50323Y24806D01*
X50250Y24750D01*
X50194Y24677D01*
X50159Y24591D01*
X50147Y24500D01*
X50159Y24409D01*
X50194Y24323D01*
X50250Y24250D01*
X50323Y24194D01*
X50409Y24159D01*
X50500Y24147D01*
X50591Y24159D01*
X50677Y24194D01*
X50750Y24250D01*
X50806Y24323D01*
X50841Y24409D01*
X50853Y24500D01*
X50841Y24591D01*
X50806Y24677D01*
X50750Y24750D01*
X50677Y24806D01*
X50591Y24841D01*
X50500Y24853D01*
D02*
G37*
G36*
X36500D02*
X36409Y24841D01*
X36323Y24806D01*
X36250Y24750D01*
X36194Y24677D01*
X36159Y24591D01*
X36147Y24500D01*
X36159Y24409D01*
X36194Y24323D01*
X36250Y24250D01*
X36323Y24194D01*
X36409Y24159D01*
X36500Y24147D01*
X36591Y24159D01*
X36677Y24194D01*
X36750Y24250D01*
X36806Y24323D01*
X36841Y24409D01*
X36853Y24500D01*
X36841Y24591D01*
X36806Y24677D01*
X36750Y24750D01*
X36677Y24806D01*
X36591Y24841D01*
X36500Y24853D01*
D02*
G37*
G36*
X42000D02*
X41909Y24841D01*
X41823Y24806D01*
X41750Y24750D01*
X41694Y24677D01*
X41659Y24591D01*
X41647Y24500D01*
X41659Y24409D01*
X41694Y24323D01*
X41750Y24250D01*
X41823Y24194D01*
X41909Y24159D01*
X42000Y24147D01*
X42091Y24159D01*
X42177Y24194D01*
X42250Y24250D01*
X42306Y24323D01*
X42341Y24409D01*
X42353Y24500D01*
X42341Y24591D01*
X42306Y24677D01*
X42250Y24750D01*
X42177Y24806D01*
X42091Y24841D01*
X42000Y24853D01*
D02*
G37*
G36*
X43000D02*
X42909Y24841D01*
X42823Y24806D01*
X42750Y24750D01*
X42694Y24677D01*
X42659Y24591D01*
X42647Y24500D01*
X42659Y24409D01*
X42694Y24323D01*
X42750Y24250D01*
X42823Y24194D01*
X42909Y24159D01*
X43000Y24147D01*
X43091Y24159D01*
X43177Y24194D01*
X43250Y24250D01*
X43306Y24323D01*
X43341Y24409D01*
X43353Y24500D01*
X43341Y24591D01*
X43306Y24677D01*
X43250Y24750D01*
X43177Y24806D01*
X43091Y24841D01*
X43000Y24853D01*
D02*
G37*
G36*
X56700Y24200D02*
X56663D01*
X56678Y24178D01*
X56700Y24163D01*
Y24200D01*
D02*
G37*
G36*
X40300Y24837D02*
Y24800D01*
X40337D01*
X40322Y24822D01*
X40300Y24837D01*
D02*
G37*
G36*
X48800D02*
Y24800D01*
X48837D01*
X48822Y24822D01*
X48800Y24837D01*
D02*
G37*
G36*
X57300D02*
Y24800D01*
X57337D01*
X57322Y24822D01*
X57300Y24837D01*
D02*
G37*
G36*
X14800D02*
Y24800D01*
X14837D01*
X14822Y24822D01*
X14800Y24837D01*
D02*
G37*
G36*
X23300D02*
Y24800D01*
X23337D01*
X23322Y24822D01*
X23300Y24837D01*
D02*
G37*
G36*
X31800D02*
Y24800D01*
X31837D01*
X31822Y24822D01*
X31800Y24837D01*
D02*
G37*
G36*
X47000Y24853D02*
X46909Y24841D01*
X46823Y24806D01*
X46819Y24803D01*
X46181D01*
X46177Y24806D01*
X46091Y24841D01*
X46000Y24853D01*
X45909Y24841D01*
X45823Y24806D01*
X45750Y24750D01*
X45694Y24677D01*
X45659Y24591D01*
X45658Y24586D01*
X44375Y23303D01*
X42051D01*
X42026Y23351D01*
X41947Y23447D01*
X41851Y23526D01*
X41742Y23584D01*
X41623Y23620D01*
X41500Y23632D01*
X41377Y23620D01*
X41258Y23584D01*
X41149Y23526D01*
X41053Y23447D01*
X40974Y23351D01*
X40916Y23242D01*
X40880Y23123D01*
X40868Y23000D01*
X40880Y22877D01*
X40916Y22758D01*
X40974Y22649D01*
X41053Y22553D01*
X41149Y22474D01*
X41258Y22416D01*
X41377Y22380D01*
X41500Y22368D01*
X41623Y22380D01*
X41742Y22416D01*
X41851Y22474D01*
X41947Y22553D01*
X42026Y22649D01*
X42051Y22697D01*
X44500D01*
X44578Y22708D01*
X44651Y22738D01*
X44714Y22786D01*
X46086Y24158D01*
X46091Y24159D01*
X46177Y24194D01*
X46181Y24197D01*
X46819D01*
X46823Y24194D01*
X46909Y24159D01*
X47000Y24147D01*
X47091Y24159D01*
X47177Y24194D01*
X47250Y24250D01*
X47306Y24323D01*
X47341Y24409D01*
X47353Y24500D01*
X47341Y24591D01*
X47306Y24677D01*
X47250Y24750D01*
X47177Y24806D01*
X47091Y24841D01*
X47000Y24853D01*
D02*
G37*
G36*
X55500D02*
X55409Y24841D01*
X55323Y24806D01*
X55319Y24803D01*
X54681D01*
X54677Y24806D01*
X54591Y24841D01*
X54500Y24853D01*
X54409Y24841D01*
X54323Y24806D01*
X54250Y24750D01*
X54194Y24677D01*
X54159Y24591D01*
X54158Y24586D01*
X52875Y23303D01*
X50551D01*
X50526Y23351D01*
X50447Y23447D01*
X50351Y23526D01*
X50242Y23584D01*
X50123Y23620D01*
X50000Y23632D01*
X49877Y23620D01*
X49758Y23584D01*
X49649Y23526D01*
X49553Y23447D01*
X49474Y23351D01*
X49416Y23242D01*
X49380Y23123D01*
X49368Y23000D01*
X49380Y22877D01*
X49416Y22758D01*
X49474Y22649D01*
X49553Y22553D01*
X49649Y22474D01*
X49758Y22416D01*
X49877Y22380D01*
X50000Y22368D01*
X50123Y22380D01*
X50242Y22416D01*
X50351Y22474D01*
X50447Y22553D01*
X50526Y22649D01*
X50551Y22697D01*
X53000D01*
X53078Y22708D01*
X53151Y22738D01*
X53214Y22786D01*
X54586Y24158D01*
X54591Y24159D01*
X54677Y24194D01*
X54681Y24197D01*
X55319D01*
X55323Y24194D01*
X55409Y24159D01*
X55500Y24147D01*
X55591Y24159D01*
X55677Y24194D01*
X55750Y24250D01*
X55806Y24323D01*
X55841Y24409D01*
X55853Y24500D01*
X55841Y24591D01*
X55806Y24677D01*
X55750Y24750D01*
X55677Y24806D01*
X55591Y24841D01*
X55500Y24853D01*
D02*
G37*
G36*
X64000D02*
X63909Y24841D01*
X63823Y24806D01*
X63819Y24803D01*
X63181D01*
X63177Y24806D01*
X63091Y24841D01*
X63000Y24853D01*
X62909Y24841D01*
X62823Y24806D01*
X62750Y24750D01*
X62694Y24677D01*
X62659Y24591D01*
X62658Y24586D01*
X61375Y23303D01*
X59051D01*
X59026Y23351D01*
X58947Y23447D01*
X58851Y23526D01*
X58742Y23584D01*
X58623Y23620D01*
X58500Y23632D01*
X58377Y23620D01*
X58258Y23584D01*
X58149Y23526D01*
X58053Y23447D01*
X57974Y23351D01*
X57916Y23242D01*
X57880Y23123D01*
X57868Y23000D01*
X57880Y22877D01*
X57916Y22758D01*
X57974Y22649D01*
X58053Y22553D01*
X58149Y22474D01*
X58258Y22416D01*
X58377Y22380D01*
X58500Y22368D01*
X58623Y22380D01*
X58742Y22416D01*
X58851Y22474D01*
X58947Y22553D01*
X59026Y22649D01*
X59051Y22697D01*
X61500D01*
X61578Y22708D01*
X61651Y22738D01*
X61714Y22786D01*
X63086Y24158D01*
X63091Y24159D01*
X63177Y24194D01*
X63181Y24197D01*
X63819D01*
X63823Y24194D01*
X63909Y24159D01*
X64000Y24147D01*
X64091Y24159D01*
X64177Y24194D01*
X64250Y24250D01*
X64306Y24323D01*
X64341Y24409D01*
X64353Y24500D01*
X64341Y24591D01*
X64306Y24677D01*
X64250Y24750D01*
X64177Y24806D01*
X64091Y24841D01*
X64000Y24853D01*
D02*
G37*
G36*
X21500D02*
X21409Y24841D01*
X21323Y24806D01*
X21319Y24803D01*
X20681D01*
X20677Y24806D01*
X20591Y24841D01*
X20500Y24853D01*
X20409Y24841D01*
X20323Y24806D01*
X20250Y24750D01*
X20194Y24677D01*
X20159Y24591D01*
X20158Y24586D01*
X18875Y23303D01*
X16551D01*
X16526Y23351D01*
X16447Y23447D01*
X16351Y23526D01*
X16242Y23584D01*
X16123Y23620D01*
X16000Y23632D01*
X15877Y23620D01*
X15758Y23584D01*
X15649Y23526D01*
X15553Y23447D01*
X15474Y23351D01*
X15416Y23242D01*
X15380Y23123D01*
X15368Y23000D01*
X15380Y22877D01*
X15416Y22758D01*
X15474Y22649D01*
X15553Y22553D01*
X15649Y22474D01*
X15758Y22416D01*
X15877Y22380D01*
X16000Y22368D01*
X16123Y22380D01*
X16242Y22416D01*
X16351Y22474D01*
X16447Y22553D01*
X16526Y22649D01*
X16551Y22697D01*
X19000D01*
X19078Y22708D01*
X19151Y22738D01*
X19214Y22786D01*
X20586Y24158D01*
X20591Y24159D01*
X20677Y24194D01*
X20681Y24197D01*
X21319D01*
X21323Y24194D01*
X21409Y24159D01*
X21500Y24147D01*
X21591Y24159D01*
X21677Y24194D01*
X21750Y24250D01*
X21806Y24323D01*
X21841Y24409D01*
X21853Y24500D01*
X21841Y24591D01*
X21806Y24677D01*
X21750Y24750D01*
X21677Y24806D01*
X21591Y24841D01*
X21500Y24853D01*
D02*
G37*
G36*
X30000D02*
X29909Y24841D01*
X29823Y24806D01*
X29819Y24803D01*
X29181D01*
X29177Y24806D01*
X29091Y24841D01*
X29000Y24853D01*
X28909Y24841D01*
X28823Y24806D01*
X28750Y24750D01*
X28694Y24677D01*
X28659Y24591D01*
X28658Y24586D01*
X27375Y23303D01*
X25051D01*
X25026Y23351D01*
X24947Y23447D01*
X24851Y23526D01*
X24742Y23584D01*
X24623Y23620D01*
X24500Y23632D01*
X24377Y23620D01*
X24258Y23584D01*
X24149Y23526D01*
X24053Y23447D01*
X23974Y23351D01*
X23916Y23242D01*
X23880Y23123D01*
X23868Y23000D01*
X23880Y22877D01*
X23916Y22758D01*
X23974Y22649D01*
X24053Y22553D01*
X24149Y22474D01*
X24258Y22416D01*
X24377Y22380D01*
X24500Y22368D01*
X24623Y22380D01*
X24742Y22416D01*
X24851Y22474D01*
X24947Y22553D01*
X25026Y22649D01*
X25051Y22697D01*
X27500D01*
X27578Y22708D01*
X27651Y22738D01*
X27714Y22786D01*
X29086Y24158D01*
X29091Y24159D01*
X29177Y24194D01*
X29181Y24197D01*
X29819D01*
X29823Y24194D01*
X29909Y24159D01*
X30000Y24147D01*
X30091Y24159D01*
X30177Y24194D01*
X30250Y24250D01*
X30306Y24323D01*
X30341Y24409D01*
X30353Y24500D01*
X30341Y24591D01*
X30306Y24677D01*
X30250Y24750D01*
X30177Y24806D01*
X30091Y24841D01*
X30000Y24853D01*
D02*
G37*
G36*
X38500D02*
X38409Y24841D01*
X38323Y24806D01*
X38319Y24803D01*
X37681D01*
X37677Y24806D01*
X37591Y24841D01*
X37500Y24853D01*
X37409Y24841D01*
X37323Y24806D01*
X37250Y24750D01*
X37194Y24677D01*
X37159Y24591D01*
X37158Y24586D01*
X35875Y23303D01*
X33551D01*
X33526Y23351D01*
X33447Y23447D01*
X33351Y23526D01*
X33242Y23584D01*
X33123Y23620D01*
X33000Y23632D01*
X32877Y23620D01*
X32758Y23584D01*
X32649Y23526D01*
X32553Y23447D01*
X32474Y23351D01*
X32416Y23242D01*
X32380Y23123D01*
X32368Y23000D01*
X32380Y22877D01*
X32416Y22758D01*
X32474Y22649D01*
X32553Y22553D01*
X32649Y22474D01*
X32758Y22416D01*
X32877Y22380D01*
X33000Y22368D01*
X33123Y22380D01*
X33242Y22416D01*
X33351Y22474D01*
X33447Y22553D01*
X33526Y22649D01*
X33551Y22697D01*
X36000D01*
X36078Y22708D01*
X36151Y22738D01*
X36214Y22786D01*
X37586Y24158D01*
X37591Y24159D01*
X37677Y24194D01*
X37681Y24197D01*
X38319D01*
X38323Y24194D01*
X38409Y24159D01*
X38500Y24147D01*
X38591Y24159D01*
X38677Y24194D01*
X38750Y24250D01*
X38806Y24323D01*
X38841Y24409D01*
X38853Y24500D01*
X38841Y24591D01*
X38806Y24677D01*
X38750Y24750D01*
X38677Y24806D01*
X38591Y24841D01*
X38500Y24853D01*
D02*
G37*
G36*
X57337Y24200D02*
X57300D01*
Y24163D01*
X57322Y24178D01*
X57337Y24200D01*
D02*
G37*
G36*
X14837D02*
X14800D01*
Y24163D01*
X14822Y24178D01*
X14837Y24200D01*
D02*
G37*
G36*
X23337D02*
X23300D01*
Y24163D01*
X23322Y24178D01*
X23337Y24200D01*
D02*
G37*
G36*
X31837D02*
X31800D01*
Y24163D01*
X31822Y24178D01*
X31837Y24200D01*
D02*
G37*
G36*
X40337D02*
X40300D01*
Y24163D01*
X40322Y24178D01*
X40337Y24200D01*
D02*
G37*
G36*
X48837D02*
X48800D01*
Y24163D01*
X48822Y24178D01*
X48837Y24200D01*
D02*
G37*
G36*
X39700Y24837D02*
X39678Y24822D01*
X39663Y24800D01*
X39700D01*
Y24837D01*
D02*
G37*
G36*
X48200D02*
X48178Y24822D01*
X48163Y24800D01*
X48200D01*
Y24837D01*
D02*
G37*
G36*
X56700D02*
X56678Y24822D01*
X56663Y24800D01*
X56700D01*
Y24837D01*
D02*
G37*
G36*
X14200D02*
X14178Y24822D01*
X14163Y24800D01*
X14200D01*
Y24837D01*
D02*
G37*
G36*
X22700D02*
X22678Y24822D01*
X22663Y24800D01*
X22700D01*
Y24837D01*
D02*
G37*
G36*
X31200D02*
X31178Y24822D01*
X31163Y24800D01*
X31200D01*
Y24837D01*
D02*
G37*
G36*
X22700Y13837D02*
X22678Y13822D01*
X22663Y13800D01*
X22700D01*
Y13837D01*
D02*
G37*
G36*
X31200D02*
X31178Y13822D01*
X31163Y13800D01*
X31200D01*
Y13837D01*
D02*
G37*
G36*
X39700D02*
X39678Y13822D01*
X39663Y13800D01*
X39700D01*
Y13837D01*
D02*
G37*
G36*
X23337Y13200D02*
X23300D01*
Y13163D01*
X23322Y13178D01*
X23337Y13200D01*
D02*
G37*
G36*
X50000Y17632D02*
X49877Y17620D01*
X49758Y17584D01*
X49649Y17526D01*
X49553Y17447D01*
X49474Y17351D01*
X49416Y17242D01*
X49380Y17123D01*
X49368Y17000D01*
X49380Y16877D01*
X49416Y16758D01*
X49474Y16649D01*
X49553Y16553D01*
X49649Y16474D01*
X49758Y16416D01*
X49877Y16380D01*
X50000Y16368D01*
X50123Y16380D01*
X50242Y16416D01*
X50351Y16474D01*
X50447Y16553D01*
X50526Y16649D01*
X50551Y16697D01*
X53875D01*
X55747Y14825D01*
Y13808D01*
X55703Y13786D01*
X55677Y13806D01*
X55591Y13841D01*
X55500Y13853D01*
X55409Y13841D01*
X55323Y13806D01*
X55250Y13750D01*
X55194Y13677D01*
X55159Y13591D01*
X55147Y13500D01*
X55159Y13409D01*
X55194Y13323D01*
X55250Y13250D01*
X55323Y13194D01*
X55409Y13159D01*
X55500Y13147D01*
X55591Y13159D01*
X55677Y13194D01*
X55703Y13214D01*
X55747Y13192D01*
Y12423D01*
X55672D01*
Y12620D01*
X55664Y12659D01*
X55642Y12692D01*
X55609Y12714D01*
X55570Y12722D01*
X54470D01*
X54431Y12714D01*
X54398Y12692D01*
X54376Y12659D01*
X54368Y12620D01*
Y11620D01*
X54376Y11581D01*
X54398Y11548D01*
X54431Y11526D01*
X54470Y11518D01*
X54717D01*
Y10702D01*
X54470D01*
X54431Y10694D01*
X54398Y10672D01*
X54376Y10639D01*
X54368Y10600D01*
Y9600D01*
X54376Y9561D01*
X54381Y9553D01*
X54355Y9503D01*
X52665D01*
X52639Y9553D01*
X52644Y9561D01*
X52652Y9600D01*
Y10600D01*
X52644Y10639D01*
X52622Y10672D01*
X52589Y10694D01*
X52550Y10702D01*
X52303D01*
Y11518D01*
X52550D01*
X52589Y11526D01*
X52622Y11548D01*
X52644Y11581D01*
X52652Y11620D01*
Y12620D01*
X52644Y12659D01*
X52622Y12692D01*
X52589Y12714D01*
X52550Y12722D01*
X51450D01*
X51411Y12714D01*
X51378Y12692D01*
X51356Y12659D01*
X51348Y12620D01*
Y11620D01*
X51356Y11581D01*
X51378Y11548D01*
X51411Y11526D01*
X51450Y11518D01*
X51697D01*
Y10702D01*
X51450D01*
X51411Y10694D01*
X51378Y10672D01*
X51356Y10639D01*
X51348Y10600D01*
Y9876D01*
X50975Y9503D01*
X47185D01*
X47159Y9553D01*
X47164Y9561D01*
X47172Y9600D01*
Y10600D01*
X47164Y10639D01*
X47142Y10672D01*
X47109Y10694D01*
X47070Y10702D01*
X46823D01*
Y11518D01*
X47070D01*
X47109Y11526D01*
X47142Y11548D01*
X47164Y11581D01*
X47172Y11620D01*
Y11817D01*
X47550D01*
X47628Y11828D01*
X47701Y11858D01*
X47764Y11906D01*
X47812Y11969D01*
X47842Y12042D01*
X47853Y12120D01*
Y14950D01*
X47853Y14950D01*
X47847Y14989D01*
X47842Y15028D01*
X47812Y15101D01*
X47764Y15164D01*
X45714Y17214D01*
X45651Y17262D01*
X45578Y17292D01*
X45500Y17303D01*
X42051D01*
X42026Y17351D01*
X41947Y17447D01*
X41851Y17526D01*
X41742Y17584D01*
X41623Y17620D01*
X41500Y17632D01*
X41377Y17620D01*
X41258Y17584D01*
X41149Y17526D01*
X41053Y17447D01*
X40974Y17351D01*
X40916Y17242D01*
X40880Y17123D01*
X40868Y17000D01*
X40880Y16877D01*
X40916Y16758D01*
X40974Y16649D01*
X41053Y16553D01*
X41149Y16474D01*
X41258Y16416D01*
X41377Y16380D01*
X41500Y16368D01*
X41623Y16380D01*
X41742Y16416D01*
X41851Y16474D01*
X41947Y16553D01*
X42026Y16649D01*
X42051Y16697D01*
X45375D01*
X47247Y14825D01*
Y13808D01*
X47203Y13786D01*
X47177Y13806D01*
X47091Y13841D01*
X47000Y13853D01*
X46909Y13841D01*
X46823Y13806D01*
X46750Y13750D01*
X46694Y13677D01*
X46659Y13591D01*
X46647Y13500D01*
X46659Y13409D01*
X46694Y13323D01*
X46750Y13250D01*
X46823Y13194D01*
X46909Y13159D01*
X47000Y13147D01*
X47091Y13159D01*
X47177Y13194D01*
X47203Y13214D01*
X47247Y13192D01*
Y12423D01*
X47172D01*
Y12620D01*
X47164Y12659D01*
X47142Y12692D01*
X47109Y12714D01*
X47070Y12722D01*
X45970D01*
X45931Y12714D01*
X45898Y12692D01*
X45876Y12659D01*
X45868Y12620D01*
Y11620D01*
X45876Y11581D01*
X45898Y11548D01*
X45931Y11526D01*
X45970Y11518D01*
X46217D01*
Y10702D01*
X45970D01*
X45931Y10694D01*
X45898Y10672D01*
X45876Y10639D01*
X45868Y10600D01*
Y9600D01*
X45876Y9561D01*
X45881Y9553D01*
X45855Y9503D01*
X44165D01*
X44139Y9553D01*
X44144Y9561D01*
X44152Y9600D01*
Y10600D01*
X44144Y10639D01*
X44122Y10672D01*
X44089Y10694D01*
X44050Y10702D01*
X43803D01*
Y11518D01*
X44050D01*
X44089Y11526D01*
X44122Y11548D01*
X44144Y11581D01*
X44152Y11620D01*
Y12620D01*
X44144Y12659D01*
X44122Y12692D01*
X44089Y12714D01*
X44050Y12722D01*
X42950D01*
X42911Y12714D01*
X42878Y12692D01*
X42856Y12659D01*
X42848Y12620D01*
Y11620D01*
X42856Y11581D01*
X42878Y11548D01*
X42911Y11526D01*
X42950Y11518D01*
X43197D01*
Y10702D01*
X42950D01*
X42911Y10694D01*
X42878Y10672D01*
X42856Y10639D01*
X42848Y10600D01*
Y9876D01*
X42475Y9503D01*
X38685D01*
X38659Y9553D01*
X38664Y9561D01*
X38672Y9600D01*
Y10600D01*
X38664Y10639D01*
X38642Y10672D01*
X38609Y10694D01*
X38570Y10702D01*
X38323D01*
Y11518D01*
X38570D01*
X38609Y11526D01*
X38642Y11548D01*
X38664Y11581D01*
X38672Y11620D01*
Y11817D01*
X39050D01*
X39128Y11828D01*
X39201Y11858D01*
X39264Y11906D01*
X39312Y11969D01*
X39342Y12042D01*
X39353Y12120D01*
Y14950D01*
X39353Y14950D01*
X39347Y14989D01*
X39342Y15028D01*
X39312Y15101D01*
X39264Y15164D01*
X37214Y17214D01*
X37151Y17262D01*
X37078Y17292D01*
X37000Y17303D01*
X33551D01*
X33526Y17351D01*
X33447Y17447D01*
X33351Y17526D01*
X33242Y17584D01*
X33123Y17620D01*
X33000Y17632D01*
X32877Y17620D01*
X32758Y17584D01*
X32649Y17526D01*
X32553Y17447D01*
X32474Y17351D01*
X32416Y17242D01*
X32380Y17123D01*
X32368Y17000D01*
X32380Y16877D01*
X32416Y16758D01*
X32474Y16649D01*
X32553Y16553D01*
X32649Y16474D01*
X32758Y16416D01*
X32877Y16380D01*
X33000Y16368D01*
X33123Y16380D01*
X33242Y16416D01*
X33351Y16474D01*
X33447Y16553D01*
X33526Y16649D01*
X33551Y16697D01*
X36875D01*
X38747Y14825D01*
Y13808D01*
X38703Y13786D01*
X38677Y13806D01*
X38591Y13841D01*
X38500Y13853D01*
X38409Y13841D01*
X38323Y13806D01*
X38250Y13750D01*
X38194Y13677D01*
X38159Y13591D01*
X38147Y13500D01*
X38159Y13409D01*
X38194Y13323D01*
X38250Y13250D01*
X38323Y13194D01*
X38409Y13159D01*
X38500Y13147D01*
X38591Y13159D01*
X38677Y13194D01*
X38703Y13214D01*
X38747Y13192D01*
Y12423D01*
X38672D01*
Y12620D01*
X38664Y12659D01*
X38642Y12692D01*
X38609Y12714D01*
X38570Y12722D01*
X37470D01*
X37431Y12714D01*
X37398Y12692D01*
X37376Y12659D01*
X37368Y12620D01*
Y11620D01*
X37376Y11581D01*
X37398Y11548D01*
X37431Y11526D01*
X37470Y11518D01*
X37717D01*
Y10702D01*
X37470D01*
X37431Y10694D01*
X37398Y10672D01*
X37376Y10639D01*
X37368Y10600D01*
Y9600D01*
X37376Y9561D01*
X37381Y9553D01*
X37355Y9503D01*
X35665D01*
X35639Y9553D01*
X35644Y9561D01*
X35652Y9600D01*
Y10600D01*
X35644Y10639D01*
X35622Y10672D01*
X35589Y10694D01*
X35550Y10702D01*
X35303D01*
Y11518D01*
X35550D01*
X35589Y11526D01*
X35622Y11548D01*
X35644Y11581D01*
X35652Y11620D01*
Y12620D01*
X35644Y12659D01*
X35622Y12692D01*
X35589Y12714D01*
X35550Y12722D01*
X34450D01*
X34411Y12714D01*
X34378Y12692D01*
X34356Y12659D01*
X34348Y12620D01*
Y11620D01*
X34356Y11581D01*
X34378Y11548D01*
X34411Y11526D01*
X34450Y11518D01*
X34697D01*
Y10702D01*
X34450D01*
X34411Y10694D01*
X34378Y10672D01*
X34356Y10639D01*
X34348Y10600D01*
Y9876D01*
X33975Y9503D01*
X30185D01*
X30159Y9553D01*
X30164Y9561D01*
X30172Y9600D01*
Y10600D01*
X30164Y10639D01*
X30142Y10672D01*
X30109Y10694D01*
X30070Y10702D01*
X29823D01*
Y11518D01*
X30070D01*
X30109Y11526D01*
X30142Y11548D01*
X30164Y11581D01*
X30172Y11620D01*
Y11817D01*
X30550D01*
X30628Y11828D01*
X30701Y11858D01*
X30764Y11906D01*
X30812Y11969D01*
X30842Y12042D01*
X30853Y12120D01*
Y14950D01*
X30853Y14950D01*
X30847Y14989D01*
X30842Y15028D01*
X30812Y15101D01*
X30764Y15164D01*
X28714Y17214D01*
X28651Y17262D01*
X28578Y17292D01*
X28500Y17303D01*
X25051D01*
X25026Y17351D01*
X24947Y17447D01*
X24851Y17526D01*
X24742Y17584D01*
X24623Y17620D01*
X24500Y17632D01*
X24377Y17620D01*
X24258Y17584D01*
X24149Y17526D01*
X24053Y17447D01*
X23974Y17351D01*
X23916Y17242D01*
X23880Y17123D01*
X23868Y17000D01*
X23880Y16877D01*
X23916Y16758D01*
X23974Y16649D01*
X24053Y16553D01*
X24149Y16474D01*
X24258Y16416D01*
X24377Y16380D01*
X24500Y16368D01*
X24623Y16380D01*
X24742Y16416D01*
X24851Y16474D01*
X24947Y16553D01*
X25026Y16649D01*
X25051Y16697D01*
X28375D01*
X30247Y14825D01*
Y13808D01*
X30203Y13786D01*
X30177Y13806D01*
X30091Y13841D01*
X30000Y13853D01*
X29909Y13841D01*
X29823Y13806D01*
X29750Y13750D01*
X29694Y13677D01*
X29659Y13591D01*
X29647Y13500D01*
X29659Y13409D01*
X29694Y13323D01*
X29750Y13250D01*
X29823Y13194D01*
X29909Y13159D01*
X30000Y13147D01*
X30091Y13159D01*
X30177Y13194D01*
X30203Y13214D01*
X30247Y13192D01*
Y12423D01*
X30172D01*
Y12620D01*
X30164Y12659D01*
X30142Y12692D01*
X30109Y12714D01*
X30070Y12722D01*
X28970D01*
X28931Y12714D01*
X28898Y12692D01*
X28876Y12659D01*
X28868Y12620D01*
Y11620D01*
X28876Y11581D01*
X28898Y11548D01*
X28931Y11526D01*
X28970Y11518D01*
X29217D01*
Y10702D01*
X28970D01*
X28931Y10694D01*
X28898Y10672D01*
X28876Y10639D01*
X28868Y10600D01*
Y9600D01*
X28876Y9561D01*
X28881Y9553D01*
X28855Y9503D01*
X27165D01*
X27139Y9553D01*
X27144Y9561D01*
X27152Y9600D01*
Y10600D01*
X27144Y10639D01*
X27122Y10672D01*
X27089Y10694D01*
X27050Y10702D01*
X26803D01*
Y11518D01*
X27050D01*
X27089Y11526D01*
X27122Y11548D01*
X27144Y11581D01*
X27152Y11620D01*
Y12620D01*
X27144Y12659D01*
X27122Y12692D01*
X27089Y12714D01*
X27050Y12722D01*
X25950D01*
X25911Y12714D01*
X25878Y12692D01*
X25856Y12659D01*
X25848Y12620D01*
Y11620D01*
X25856Y11581D01*
X25878Y11548D01*
X25911Y11526D01*
X25950Y11518D01*
X26197D01*
Y10702D01*
X25950D01*
X25911Y10694D01*
X25878Y10672D01*
X25856Y10639D01*
X25848Y10600D01*
Y9876D01*
X25475Y9503D01*
X21685D01*
X21659Y9553D01*
X21664Y9561D01*
X21672Y9600D01*
Y10600D01*
X21664Y10639D01*
X21642Y10672D01*
X21609Y10694D01*
X21570Y10702D01*
X21323D01*
Y11518D01*
X21570D01*
X21609Y11526D01*
X21642Y11548D01*
X21664Y11581D01*
X21672Y11620D01*
Y11817D01*
X22050D01*
X22128Y11828D01*
X22201Y11858D01*
X22264Y11906D01*
X22312Y11969D01*
X22342Y12042D01*
X22353Y12120D01*
Y14950D01*
X22353Y14950D01*
X22347Y14989D01*
X22342Y15028D01*
X22312Y15101D01*
X22264Y15164D01*
X20214Y17214D01*
X20151Y17262D01*
X20078Y17292D01*
X20000Y17303D01*
X16551D01*
X16526Y17351D01*
X16447Y17447D01*
X16351Y17526D01*
X16242Y17584D01*
X16123Y17620D01*
X16000Y17632D01*
X15877Y17620D01*
X15758Y17584D01*
X15649Y17526D01*
X15553Y17447D01*
X15474Y17351D01*
X15416Y17242D01*
X15380Y17123D01*
X15368Y17000D01*
X15380Y16877D01*
X15416Y16758D01*
X15474Y16649D01*
X15553Y16553D01*
X15649Y16474D01*
X15758Y16416D01*
X15877Y16380D01*
X16000Y16368D01*
X16123Y16380D01*
X16242Y16416D01*
X16351Y16474D01*
X16447Y16553D01*
X16526Y16649D01*
X16551Y16697D01*
X19875D01*
X21747Y14825D01*
Y13808D01*
X21703Y13786D01*
X21677Y13806D01*
X21591Y13841D01*
X21500Y13853D01*
X21409Y13841D01*
X21323Y13806D01*
X21250Y13750D01*
X21194Y13677D01*
X21159Y13591D01*
X21147Y13500D01*
X21159Y13409D01*
X21194Y13323D01*
X21250Y13250D01*
X21323Y13194D01*
X21409Y13159D01*
X21500Y13147D01*
X21591Y13159D01*
X21677Y13194D01*
X21703Y13214D01*
X21747Y13192D01*
Y12423D01*
X21672D01*
Y12620D01*
X21664Y12659D01*
X21642Y12692D01*
X21609Y12714D01*
X21570Y12722D01*
X20470D01*
X20431Y12714D01*
X20398Y12692D01*
X20376Y12659D01*
X20368Y12620D01*
Y11620D01*
X20376Y11581D01*
X20398Y11548D01*
X20431Y11526D01*
X20470Y11518D01*
X20717D01*
Y10702D01*
X20470D01*
X20431Y10694D01*
X20398Y10672D01*
X20376Y10639D01*
X20368Y10600D01*
Y9600D01*
X20376Y9561D01*
X20381Y9553D01*
X20355Y9503D01*
X18665D01*
X18639Y9553D01*
X18644Y9561D01*
X18652Y9600D01*
Y10600D01*
X18644Y10639D01*
X18622Y10672D01*
X18589Y10694D01*
X18550Y10702D01*
X18303D01*
Y11518D01*
X18550D01*
X18589Y11526D01*
X18622Y11548D01*
X18644Y11581D01*
X18652Y11620D01*
Y12620D01*
X18644Y12659D01*
X18622Y12692D01*
X18589Y12714D01*
X18550Y12722D01*
X17450D01*
X17411Y12714D01*
X17378Y12692D01*
X17356Y12659D01*
X17348Y12620D01*
Y11620D01*
X17356Y11581D01*
X17378Y11548D01*
X17411Y11526D01*
X17450Y11518D01*
X17697D01*
Y10702D01*
X17450D01*
X17411Y10694D01*
X17378Y10672D01*
X17356Y10639D01*
X17348Y10600D01*
Y9876D01*
X16975Y9503D01*
X14002D01*
Y9600D01*
X13994Y9639D01*
X13972Y9672D01*
X13939Y9694D01*
X13900Y9702D01*
X12100D01*
X12061Y9694D01*
X12028Y9672D01*
X12006Y9639D01*
X11998Y9600D01*
Y7000D01*
X12006Y6961D01*
X12028Y6928D01*
X12061Y6906D01*
X12100Y6898D01*
X13900D01*
X13939Y6906D01*
X13972Y6928D01*
X13994Y6961D01*
X14002Y7000D01*
Y7461D01*
X14031Y7504D01*
X14050Y7600D01*
X14031Y7696D01*
X14002Y7739D01*
Y8261D01*
X14031Y8304D01*
X14050Y8400D01*
X14031Y8496D01*
X14002Y8539D01*
Y8897D01*
X59600D01*
X59678Y8908D01*
X59751Y8938D01*
X59814Y8986D01*
X60326Y9498D01*
X61050D01*
X61089Y9506D01*
X61122Y9528D01*
X61144Y9561D01*
X61152Y9600D01*
Y10600D01*
X61144Y10639D01*
X61122Y10672D01*
X61089Y10694D01*
X61050Y10702D01*
X60803D01*
Y11518D01*
X61050D01*
X61089Y11526D01*
X61122Y11548D01*
X61144Y11581D01*
X61152Y11620D01*
Y12620D01*
X61144Y12659D01*
X61122Y12692D01*
X61089Y12714D01*
X61050Y12722D01*
X59950D01*
X59911Y12714D01*
X59878Y12692D01*
X59856Y12659D01*
X59848Y12620D01*
Y11620D01*
X59856Y11581D01*
X59878Y11548D01*
X59911Y11526D01*
X59950Y11518D01*
X60197D01*
Y10702D01*
X59950D01*
X59911Y10694D01*
X59878Y10672D01*
X59856Y10639D01*
X59848Y10600D01*
Y9876D01*
X59475Y9503D01*
X55685D01*
X55659Y9553D01*
X55664Y9561D01*
X55672Y9600D01*
Y10600D01*
X55664Y10639D01*
X55642Y10672D01*
X55609Y10694D01*
X55570Y10702D01*
X55323D01*
Y11518D01*
X55570D01*
X55609Y11526D01*
X55642Y11548D01*
X55664Y11581D01*
X55672Y11620D01*
Y11817D01*
X56050D01*
X56128Y11828D01*
X56201Y11858D01*
X56264Y11906D01*
X56312Y11969D01*
X56342Y12042D01*
X56353Y12120D01*
Y14950D01*
X56353Y14950D01*
X56347Y14989D01*
X56342Y15028D01*
X56312Y15101D01*
X56264Y15164D01*
X54214Y17214D01*
X54151Y17262D01*
X54078Y17292D01*
X54000Y17303D01*
X50551D01*
X50526Y17351D01*
X50447Y17447D01*
X50351Y17526D01*
X50242Y17584D01*
X50123Y17620D01*
X50000Y17632D01*
D02*
G37*
G36*
X14200Y13837D02*
X14178Y13822D01*
X14163Y13800D01*
X14200D01*
Y13837D01*
D02*
G37*
G36*
X23300D02*
Y13800D01*
X23337D01*
X23322Y13822D01*
X23300Y13837D01*
D02*
G37*
G36*
X31800D02*
Y13800D01*
X31837D01*
X31822Y13822D01*
X31800Y13837D01*
D02*
G37*
G36*
X40300D02*
Y13800D01*
X40337D01*
X40322Y13822D01*
X40300Y13837D01*
D02*
G37*
G36*
X48200D02*
X48178Y13822D01*
X48163Y13800D01*
X48200D01*
Y13837D01*
D02*
G37*
G36*
X56700D02*
X56678Y13822D01*
X56663Y13800D01*
X56700D01*
Y13837D01*
D02*
G37*
G36*
X14800D02*
Y13800D01*
X14837D01*
X14822Y13822D01*
X14800Y13837D01*
D02*
G37*
G36*
X57337Y13200D02*
X57300D01*
Y13163D01*
X57322Y13178D01*
X57337Y13200D01*
D02*
G37*
G36*
X22700D02*
X22663D01*
X22678Y13178D01*
X22700Y13163D01*
Y13200D01*
D02*
G37*
G36*
X31200D02*
X31163D01*
X31178Y13178D01*
X31200Y13163D01*
Y13200D01*
D02*
G37*
G36*
X39700D02*
X39663D01*
X39678Y13178D01*
X39700Y13163D01*
Y13200D01*
D02*
G37*
G36*
X62000Y13853D02*
X61909Y13841D01*
X61823Y13806D01*
X61750Y13750D01*
X61694Y13677D01*
X61659Y13591D01*
X61647Y13500D01*
X61659Y13409D01*
X61694Y13323D01*
X61750Y13250D01*
X61823Y13194D01*
X61909Y13159D01*
X62000Y13147D01*
X62091Y13159D01*
X62177Y13194D01*
X62250Y13250D01*
X62306Y13323D01*
X62341Y13409D01*
X62353Y13500D01*
X62341Y13591D01*
X62306Y13677D01*
X62250Y13750D01*
X62177Y13806D01*
X62091Y13841D01*
X62000Y13853D01*
D02*
G37*
G36*
X63000D02*
X62909Y13841D01*
X62823Y13806D01*
X62750Y13750D01*
X62694Y13677D01*
X62659Y13591D01*
X62647Y13500D01*
X62659Y13409D01*
X62694Y13323D01*
X62750Y13250D01*
X62823Y13194D01*
X62909Y13159D01*
X63000Y13147D01*
X63091Y13159D01*
X63177Y13194D01*
X63250Y13250D01*
X63306Y13323D01*
X63341Y13409D01*
X63353Y13500D01*
X63341Y13591D01*
X63306Y13677D01*
X63250Y13750D01*
X63177Y13806D01*
X63091Y13841D01*
X63000Y13853D01*
D02*
G37*
G36*
X14200Y13200D02*
X14163D01*
X14178Y13178D01*
X14200Y13163D01*
Y13200D01*
D02*
G37*
G36*
X31837D02*
X31800D01*
Y13163D01*
X31822Y13178D01*
X31837Y13200D01*
D02*
G37*
G36*
X40337D02*
X40300D01*
Y13163D01*
X40322Y13178D01*
X40337Y13200D01*
D02*
G37*
G36*
X48837D02*
X48800D01*
Y13163D01*
X48822Y13178D01*
X48837Y13200D01*
D02*
G37*
G36*
X48200D02*
X48163D01*
X48178Y13178D01*
X48200Y13163D01*
Y13200D01*
D02*
G37*
G36*
X56700D02*
X56663D01*
X56678Y13178D01*
X56700Y13163D01*
Y13200D01*
D02*
G37*
G36*
X14837D02*
X14800D01*
Y13163D01*
X14822Y13178D01*
X14837Y13200D01*
D02*
G37*
G36*
X48800Y13837D02*
Y13800D01*
X48837D01*
X48822Y13822D01*
X48800Y13837D01*
D02*
G37*
G36*
X11000Y23127D02*
X10869Y23110D01*
X10748Y23059D01*
X10643Y22979D01*
X10563Y22875D01*
X10512Y22753D01*
X10495Y22622D01*
X10512Y22491D01*
X10563Y22370D01*
X10643Y22265D01*
X10748Y22185D01*
X10869Y22134D01*
X11000Y22117D01*
X11131Y22134D01*
X11252Y22185D01*
X11357Y22265D01*
X11437Y22370D01*
X11488Y22491D01*
X11505Y22622D01*
X11488Y22753D01*
X11437Y22875D01*
X11357Y22979D01*
X11252Y23059D01*
X11131Y23110D01*
X11000Y23127D01*
D02*
G37*
G36*
X9622Y24505D02*
X9491Y24488D01*
X9370Y24437D01*
X9265Y24357D01*
X9185Y24252D01*
X9134Y24131D01*
X9117Y24000D01*
X9134Y23869D01*
X9185Y23748D01*
X9265Y23643D01*
X9370Y23563D01*
X9491Y23512D01*
X9622Y23495D01*
X9753Y23512D01*
X9875Y23563D01*
X9979Y23643D01*
X10059Y23748D01*
X10110Y23869D01*
X10127Y24000D01*
X10110Y24131D01*
X10059Y24252D01*
X9979Y24357D01*
X9875Y24437D01*
X9753Y24488D01*
X9622Y24505D01*
D02*
G37*
G36*
Y23127D02*
X9491Y23110D01*
X9370Y23059D01*
X9265Y22979D01*
X9185Y22875D01*
X9134Y22753D01*
X9117Y22622D01*
X9134Y22491D01*
X9185Y22370D01*
X9265Y22265D01*
X9370Y22185D01*
X9491Y22134D01*
X9622Y22117D01*
X9753Y22134D01*
X9875Y22185D01*
X9979Y22265D01*
X10059Y22370D01*
X10110Y22491D01*
X10127Y22622D01*
X10110Y22753D01*
X10059Y22875D01*
X9979Y22979D01*
X9875Y23059D01*
X9753Y23110D01*
X9622Y23127D01*
D02*
G37*
G36*
Y21749D02*
X9491Y21732D01*
X9370Y21681D01*
X9265Y21601D01*
X9185Y21497D01*
X9134Y21375D01*
X9117Y21244D01*
X9134Y21113D01*
X9185Y20992D01*
X9265Y20887D01*
X9370Y20807D01*
X9491Y20756D01*
X9622Y20739D01*
X9753Y20756D01*
X9875Y20807D01*
X9979Y20887D01*
X10059Y20992D01*
X10110Y21113D01*
X10127Y21244D01*
X10110Y21375D01*
X10059Y21497D01*
X9979Y21601D01*
X9875Y21681D01*
X9753Y21732D01*
X9622Y21749D01*
D02*
G37*
G36*
X11000D02*
X10869Y21732D01*
X10748Y21681D01*
X10643Y21601D01*
X10563Y21497D01*
X10512Y21375D01*
X10495Y21244D01*
X10512Y21113D01*
X10563Y20992D01*
X10643Y20887D01*
X10748Y20807D01*
X10869Y20756D01*
X11000Y20739D01*
X11131Y20756D01*
X11252Y20807D01*
X11357Y20887D01*
X11437Y20992D01*
X11488Y21113D01*
X11505Y21244D01*
X11488Y21375D01*
X11437Y21497D01*
X11357Y21601D01*
X11252Y21681D01*
X11131Y21732D01*
X11000Y21749D01*
D02*
G37*
G36*
Y24505D02*
X10869Y24488D01*
X10748Y24437D01*
X10643Y24357D01*
X10563Y24252D01*
X10512Y24131D01*
X10495Y24000D01*
X10512Y23869D01*
X10563Y23748D01*
X10643Y23643D01*
X10748Y23563D01*
X10869Y23512D01*
X11000Y23495D01*
X11131Y23512D01*
X11252Y23563D01*
X11357Y23643D01*
X11437Y23748D01*
X11488Y23869D01*
X11505Y24000D01*
X11488Y24131D01*
X11437Y24252D01*
X11357Y24357D01*
X11252Y24437D01*
X11131Y24488D01*
X11000Y24505D01*
D02*
G37*
G36*
X19500Y24853D02*
X19409Y24841D01*
X19323Y24806D01*
X19250Y24750D01*
X19194Y24677D01*
X19159Y24591D01*
X19147Y24500D01*
X19159Y24409D01*
X19194Y24323D01*
X19250Y24250D01*
X19323Y24194D01*
X19409Y24159D01*
X19500Y24147D01*
X19591Y24159D01*
X19677Y24194D01*
X19750Y24250D01*
X19806Y24323D01*
X19841Y24409D01*
X19853Y24500D01*
X19841Y24591D01*
X19806Y24677D01*
X19750Y24750D01*
X19677Y24806D01*
X19591Y24841D01*
X19500Y24853D01*
D02*
G37*
G36*
X25000D02*
X24909Y24841D01*
X24823Y24806D01*
X24750Y24750D01*
X24694Y24677D01*
X24659Y24591D01*
X24647Y24500D01*
X24659Y24409D01*
X24694Y24323D01*
X24750Y24250D01*
X24823Y24194D01*
X24909Y24159D01*
X25000Y24147D01*
X25091Y24159D01*
X25177Y24194D01*
X25250Y24250D01*
X25306Y24323D01*
X25341Y24409D01*
X25353Y24500D01*
X25341Y24591D01*
X25306Y24677D01*
X25250Y24750D01*
X25177Y24806D01*
X25091Y24841D01*
X25000Y24853D01*
D02*
G37*
G36*
X18500D02*
X18409Y24841D01*
X18323Y24806D01*
X18250Y24750D01*
X18194Y24677D01*
X18159Y24591D01*
X18147Y24500D01*
X18159Y24409D01*
X18194Y24323D01*
X18250Y24250D01*
X18323Y24194D01*
X18409Y24159D01*
X18500Y24147D01*
X18591Y24159D01*
X18677Y24194D01*
X18750Y24250D01*
X18806Y24323D01*
X18841Y24409D01*
X18853Y24500D01*
X18841Y24591D01*
X18806Y24677D01*
X18750Y24750D01*
X18677Y24806D01*
X18591Y24841D01*
X18500Y24853D01*
D02*
G37*
G36*
X16500D02*
X16409Y24841D01*
X16323Y24806D01*
X16250Y24750D01*
X16194Y24677D01*
X16159Y24591D01*
X16147Y24500D01*
X16159Y24409D01*
X16194Y24323D01*
X16250Y24250D01*
X16323Y24194D01*
X16409Y24159D01*
X16500Y24147D01*
X16591Y24159D01*
X16677Y24194D01*
X16750Y24250D01*
X16806Y24323D01*
X16841Y24409D01*
X16853Y24500D01*
X16841Y24591D01*
X16806Y24677D01*
X16750Y24750D01*
X16677Y24806D01*
X16591Y24841D01*
X16500Y24853D01*
D02*
G37*
G36*
X17500D02*
X17409Y24841D01*
X17323Y24806D01*
X17250Y24750D01*
X17194Y24677D01*
X17159Y24591D01*
X17147Y24500D01*
X17159Y24409D01*
X17194Y24323D01*
X17250Y24250D01*
X17323Y24194D01*
X17409Y24159D01*
X17500Y24147D01*
X17591Y24159D01*
X17677Y24194D01*
X17750Y24250D01*
X17806Y24323D01*
X17841Y24409D01*
X17853Y24500D01*
X17841Y24591D01*
X17806Y24677D01*
X17750Y24750D01*
X17677Y24806D01*
X17591Y24841D01*
X17500Y24853D01*
D02*
G37*
G36*
X11000Y20371D02*
X10869Y20354D01*
X10748Y20303D01*
X10643Y20223D01*
X10563Y20119D01*
X10512Y19997D01*
X10495Y19866D01*
X10512Y19735D01*
X10563Y19614D01*
X10643Y19509D01*
X10748Y19429D01*
X10869Y19378D01*
X11000Y19361D01*
X11131Y19378D01*
X11252Y19429D01*
X11357Y19509D01*
X11437Y19614D01*
X11488Y19735D01*
X11505Y19866D01*
X11488Y19997D01*
X11437Y20119D01*
X11357Y20223D01*
X11252Y20303D01*
X11131Y20354D01*
X11000Y20371D01*
D02*
G37*
G36*
X9622Y16237D02*
X9491Y16220D01*
X9370Y16170D01*
X9265Y16089D01*
X9185Y15985D01*
X9134Y15863D01*
X9117Y15732D01*
X9134Y15602D01*
X9185Y15480D01*
X9265Y15375D01*
X9370Y15295D01*
X9491Y15245D01*
X9622Y15227D01*
X9753Y15245D01*
X9875Y15295D01*
X9979Y15375D01*
X10059Y15480D01*
X10110Y15602D01*
X10127Y15732D01*
X10110Y15863D01*
X10059Y15985D01*
X9979Y16089D01*
X9875Y16170D01*
X9753Y16220D01*
X9622Y16237D01*
D02*
G37*
G36*
X11000D02*
X10869Y16220D01*
X10748Y16170D01*
X10643Y16089D01*
X10563Y15985D01*
X10512Y15863D01*
X10495Y15732D01*
X10512Y15602D01*
X10563Y15480D01*
X10643Y15375D01*
X10748Y15295D01*
X10869Y15245D01*
X11000Y15227D01*
X11131Y15245D01*
X11252Y15295D01*
X11357Y15375D01*
X11437Y15480D01*
X11488Y15602D01*
X11505Y15732D01*
X11488Y15863D01*
X11437Y15985D01*
X11357Y16089D01*
X11252Y16170D01*
X11131Y16220D01*
X11000Y16237D01*
D02*
G37*
G36*
Y14859D02*
X10869Y14842D01*
X10748Y14792D01*
X10643Y14711D01*
X10563Y14607D01*
X10512Y14485D01*
X10495Y14354D01*
X10512Y14224D01*
X10563Y14102D01*
X10643Y13997D01*
X10748Y13917D01*
X10869Y13867D01*
X11000Y13849D01*
X11131Y13867D01*
X11252Y13917D01*
X11357Y13997D01*
X11437Y14102D01*
X11488Y14224D01*
X11505Y14354D01*
X11488Y14485D01*
X11437Y14607D01*
X11357Y14711D01*
X11252Y14792D01*
X11131Y14842D01*
X11000Y14859D01*
D02*
G37*
G36*
X57300Y13837D02*
Y13800D01*
X57337D01*
X57322Y13822D01*
X57300Y13837D01*
D02*
G37*
G36*
X9622Y14859D02*
X9491Y14842D01*
X9370Y14792D01*
X9265Y14711D01*
X9185Y14607D01*
X9134Y14485D01*
X9117Y14354D01*
X9134Y14224D01*
X9185Y14102D01*
X9265Y13997D01*
X9370Y13917D01*
X9491Y13867D01*
X9622Y13849D01*
X9753Y13867D01*
X9875Y13917D01*
X9979Y13997D01*
X10059Y14102D01*
X10110Y14224D01*
X10127Y14354D01*
X10110Y14485D01*
X10059Y14607D01*
X9979Y14711D01*
X9875Y14792D01*
X9753Y14842D01*
X9622Y14859D01*
D02*
G37*
G36*
X11000Y18993D02*
X10869Y18976D01*
X10748Y18925D01*
X10643Y18845D01*
X10563Y18741D01*
X10512Y18619D01*
X10495Y18488D01*
X10512Y18358D01*
X10563Y18236D01*
X10643Y18131D01*
X10748Y18051D01*
X10869Y18000D01*
X11000Y17983D01*
X11131Y18000D01*
X11252Y18051D01*
X11357Y18131D01*
X11437Y18236D01*
X11488Y18358D01*
X11505Y18488D01*
X11488Y18619D01*
X11437Y18741D01*
X11357Y18845D01*
X11252Y18925D01*
X11131Y18976D01*
X11000Y18993D01*
D02*
G37*
G36*
X9622D02*
X9491Y18976D01*
X9370Y18925D01*
X9265Y18845D01*
X9185Y18741D01*
X9134Y18619D01*
X9117Y18488D01*
X9134Y18358D01*
X9185Y18236D01*
X9265Y18131D01*
X9370Y18051D01*
X9491Y18000D01*
X9622Y17983D01*
X9753Y18000D01*
X9875Y18051D01*
X9979Y18131D01*
X10059Y18236D01*
X10110Y18358D01*
X10127Y18488D01*
X10110Y18619D01*
X10059Y18741D01*
X9979Y18845D01*
X9875Y18925D01*
X9753Y18976D01*
X9622Y18993D01*
D02*
G37*
G36*
X11000Y17615D02*
X10869Y17598D01*
X10748Y17548D01*
X10643Y17467D01*
X10563Y17363D01*
X10512Y17241D01*
X10495Y17110D01*
X10512Y16980D01*
X10563Y16858D01*
X10643Y16753D01*
X10748Y16673D01*
X10869Y16623D01*
X11000Y16605D01*
X11131Y16623D01*
X11252Y16673D01*
X11357Y16753D01*
X11437Y16858D01*
X11488Y16980D01*
X11505Y17110D01*
X11488Y17241D01*
X11437Y17363D01*
X11357Y17467D01*
X11252Y17548D01*
X11131Y17598D01*
X11000Y17615D01*
D02*
G37*
G36*
X9622Y20371D02*
X9491Y20354D01*
X9370Y20303D01*
X9265Y20223D01*
X9185Y20119D01*
X9134Y19997D01*
X9117Y19866D01*
X9134Y19735D01*
X9185Y19614D01*
X9265Y19509D01*
X9370Y19429D01*
X9491Y19378D01*
X9622Y19361D01*
X9753Y19378D01*
X9875Y19429D01*
X9979Y19509D01*
X10059Y19614D01*
X10110Y19735D01*
X10127Y19866D01*
X10110Y19997D01*
X10059Y20119D01*
X9979Y20223D01*
X9875Y20303D01*
X9753Y20354D01*
X9622Y20371D01*
D02*
G37*
G36*
Y17615D02*
X9491Y17598D01*
X9370Y17548D01*
X9265Y17467D01*
X9185Y17363D01*
X9134Y17241D01*
X9117Y17110D01*
X9134Y16980D01*
X9185Y16858D01*
X9265Y16753D01*
X9370Y16673D01*
X9491Y16623D01*
X9622Y16605D01*
X9753Y16623D01*
X9875Y16673D01*
X9979Y16753D01*
X10059Y16858D01*
X10110Y16980D01*
X10127Y17110D01*
X10110Y17241D01*
X10059Y17363D01*
X9979Y17467D01*
X9875Y17548D01*
X9753Y17598D01*
X9622Y17615D01*
D02*
G37*
%LPD*%
G36*
X42959Y4559D02*
X43017Y4547D01*
X43373D01*
X43428Y4492D01*
X43478Y4459D01*
X43536Y4447D01*
X44508D01*
X44523Y4423D01*
Y4396D01*
X44483Y4353D01*
X43336D01*
X43278Y4341D01*
X43228Y4308D01*
X43123Y4203D01*
X42839D01*
X42815Y4253D01*
X42849Y4298D01*
X42890Y4396D01*
X42903Y4500D01*
X42898Y4539D01*
X42945Y4568D01*
X42959Y4559D01*
D02*
G37*
G36*
X43061Y5753D02*
X43050Y5700D01*
X43069Y5604D01*
X43123Y5523D01*
X43204Y5469D01*
X43300Y5450D01*
X43328Y5456D01*
X43685Y5099D01*
X43665Y5053D01*
X43163D01*
X42870Y5347D01*
X42890Y5396D01*
X42903Y5500D01*
X42890Y5604D01*
X42849Y5702D01*
X42843Y5711D01*
X42871Y5756D01*
X42900Y5750D01*
X42996Y5769D01*
X43016Y5783D01*
X43061Y5753D01*
D02*
G37*
G36*
X13900Y7000D02*
X12100D01*
Y9600D01*
X13900D01*
Y7000D01*
D02*
G37*
D18*
X39000Y5344D02*
Y5900D01*
X43300Y5700D02*
X43900Y5100D01*
X43262Y5738D02*
X43300Y5700D01*
X51900Y5600D02*
Y6400D01*
X51505Y6753D02*
X51526Y6774D01*
X51205Y5505D02*
Y7005D01*
X50900Y5800D02*
Y7300D01*
X50600Y5500D02*
Y7600D01*
X48417D02*
X48700D01*
X46795Y6795D02*
X46800Y6800D01*
X44800Y7100D02*
X47500D01*
X44783Y7500D02*
X48100D01*
X51500Y5800D02*
X51505Y5805D01*
Y6753D01*
X51800Y5500D02*
X51900Y5600D01*
X44995Y6795D02*
X46795D01*
X51200Y5500D02*
X51205Y5505D01*
X48222Y7795D02*
X48417Y7600D01*
X42900Y6000D02*
X43417D01*
X43954Y5463D01*
X43336Y4200D02*
X44700D01*
X43186Y4050D02*
X43336Y4200D01*
X43536Y4600D02*
X44700D01*
X43100Y4900D02*
X44983D01*
X43900Y5100D02*
X45200D01*
X44983Y4900D02*
X45078Y4805D01*
X46095D01*
X43436Y4700D02*
X43536Y4600D01*
X43017Y4700D02*
X43436D01*
X42767Y4950D02*
X43017Y4700D01*
X44617Y6000D02*
X45117Y6500D01*
X44600Y6000D02*
X44617D01*
X45117Y6500D02*
X46200D01*
X44595Y7795D02*
X48222D01*
X43700Y6900D02*
X44595Y7795D01*
X44173Y6890D02*
X44783Y7500D01*
X44173Y6890D02*
X44173D01*
X44200Y6500D02*
X44800Y7100D01*
X44200Y6500D02*
X44200D01*
X44600Y6400D02*
X44995Y6795D01*
X46095Y4805D02*
X46893Y4007D01*
X44963Y5463D02*
X45100Y5600D01*
X43954Y5463D02*
X44963D01*
X45100Y5600D02*
X45300D01*
X42050Y4950D02*
X42767D01*
X41500Y3500D02*
X42050Y4050D01*
X40600Y12700D02*
X41400D01*
X42500D01*
X24400D02*
X25500D01*
X23600D02*
X24400D01*
X32900D02*
X34000D01*
X32100D02*
X32900D01*
X49100D02*
X49900D01*
X57600D02*
X58400D01*
X49900D02*
X51000D01*
X15900D02*
X17000D01*
X42050Y4050D02*
X43186D01*
X37300Y5775D02*
X37780Y5295D01*
X22500Y6000D02*
Y8000D01*
X39000Y5295D02*
Y5344D01*
X48484Y1884D02*
Y2160D01*
X42500Y5500D02*
X43100Y4900D01*
X41500Y5500D02*
X42050Y4950D01*
X37780Y5295D02*
X38000D01*
X47400Y3000D02*
Y4100D01*
X53600Y4700D02*
X54600D01*
X48400Y2700D02*
Y4200D01*
X48200Y1600D02*
X48484Y1884D01*
X42300Y2800D02*
X42400Y2700D01*
X46500D01*
X41900Y2400D02*
X46900D01*
X46400Y1500D02*
X46483D01*
X46778Y1795D01*
X47022D01*
X50005Y1105D02*
X53600Y4700D01*
X46900Y1500D02*
X47295Y1105D01*
X50005D01*
X47512Y1305D02*
X49922D01*
X53517Y4900D01*
X53700D01*
X54600Y5800D01*
X47022Y1795D02*
X47512Y1305D01*
D19*
X13800Y9200D02*
X17100D01*
X13500D02*
X13800D01*
X39050Y12120D02*
Y14950D01*
X38020Y12120D02*
X39050D01*
X37000Y17000D02*
X39050Y14950D01*
X38020Y10100D02*
Y12120D01*
X63520D02*
X64550D01*
X58500Y17000D02*
X62500D01*
X64550Y14950D01*
Y12120D02*
Y14950D01*
X63520Y10100D02*
Y12120D01*
X55020D02*
X56050D01*
X50000Y17000D02*
X54000D01*
X56050Y14950D01*
Y12120D02*
Y14950D01*
X55020Y10100D02*
Y12120D01*
X46520D02*
X47550D01*
X41500Y17000D02*
X45500D01*
X47550Y14950D01*
Y12120D02*
Y14950D01*
X46520Y10100D02*
Y12120D01*
X33000Y17000D02*
X37000D01*
X29520Y12120D02*
X30550D01*
X24500Y17000D02*
X28500D01*
X30550Y14950D01*
Y12120D02*
Y14950D01*
X29520Y10100D02*
Y12120D01*
X21020Y10100D02*
Y12120D01*
X22050D02*
Y14950D01*
X20000Y17000D02*
X22050Y14950D01*
X16000Y17000D02*
X20000D01*
X21020Y12120D02*
X22050D01*
X17100Y9200D02*
X25600D01*
X58500Y23000D02*
X61500D01*
X63000Y24500D01*
X64000D01*
X50000Y23000D02*
X53000D01*
X54500Y24500D01*
X55500D01*
X41500Y23000D02*
X44500D01*
X46000Y24500D01*
X47000D01*
X33000Y23000D02*
X36000D01*
X37500Y24500D01*
X38500D01*
X24500Y23000D02*
X27500D01*
X29000Y24500D01*
X30000D01*
X20500D02*
X21500D01*
X19000Y23000D02*
X20500Y24500D01*
X16000Y23000D02*
X19000D01*
X60500Y10100D02*
Y12120D01*
X52000Y10100D02*
Y12120D01*
X43500Y10100D02*
Y12120D01*
X35000Y10100D02*
Y12120D01*
X26500Y10100D02*
Y12120D01*
X18000Y10100D02*
Y12120D01*
X17100Y9200D02*
X18000Y10100D01*
X25600Y9200D02*
X34100D01*
X25600D02*
X26500Y10100D01*
X34100Y9200D02*
X35000Y10100D01*
X42600Y9200D02*
X51100D01*
X42600D02*
X43500Y10100D01*
X51100Y9200D02*
X59600D01*
X51100D02*
X52000Y10100D01*
X59600Y9200D02*
X60500Y10100D01*
X34100Y9200D02*
X42600D01*
D20*
X41500Y3500D02*
D03*
Y4500D02*
D03*
Y5500D02*
D03*
X42500Y3500D02*
D03*
Y4500D02*
D03*
Y5500D02*
D03*
D21*
X40000Y1000D02*
D03*
Y2000D02*
D03*
X38800Y1000D02*
D03*
Y2000D02*
D03*
X53000Y2500D02*
D03*
Y1000D02*
D03*
D22*
X40000Y3000D02*
D03*
X38800D02*
D03*
D23*
X28500Y6000D02*
D03*
X18500D02*
D03*
X20500D02*
D03*
X22500D02*
D03*
X24500D02*
D03*
X26500D02*
D03*
D24*
X54000Y2500D02*
D03*
Y1000D02*
D03*
D25*
X12500Y1500D02*
D03*
X11500Y2500D02*
D03*
X12500Y4500D02*
D03*
X11500Y5500D02*
D03*
X16000Y23000D02*
D03*
Y17000D02*
D03*
X24500Y23000D02*
D03*
Y17000D02*
D03*
X33000Y23000D02*
D03*
Y17000D02*
D03*
X41500Y23000D02*
D03*
Y17000D02*
D03*
X50000Y23000D02*
D03*
Y17000D02*
D03*
X58500Y23000D02*
D03*
Y17000D02*
D03*
D26*
X6460Y7000D02*
D03*
X4480D02*
D03*
X2500D02*
D03*
X2540Y3400D02*
D03*
X4520D02*
D03*
X6500D02*
D03*
D27*
X9622Y11598D02*
D03*
X11000D02*
D03*
Y24000D02*
D03*
X9622D02*
D03*
X11000Y22622D02*
D03*
X9622D02*
D03*
X11000Y21244D02*
D03*
X9622D02*
D03*
X11000Y19866D02*
D03*
X9622D02*
D03*
X11000Y18488D02*
D03*
X9622D02*
D03*
X11000Y17110D02*
D03*
X9622D02*
D03*
X11000Y15732D02*
D03*
X9622D02*
D03*
X11000Y14354D02*
D03*
X9622D02*
D03*
X11000Y12976D02*
D03*
X9622D02*
D03*
D28*
X21500Y24500D02*
D03*
X20500D02*
D03*
X19500D02*
D03*
X18500D02*
D03*
X17500D02*
D03*
X16500D02*
D03*
X15500D02*
D03*
X21500Y13500D02*
D03*
X20500D02*
D03*
X19500D02*
D03*
X18500D02*
D03*
X17500D02*
D03*
X16500D02*
D03*
X15500D02*
D03*
X24000D02*
D03*
X25000D02*
D03*
X26000D02*
D03*
X27000D02*
D03*
X28000D02*
D03*
X29000D02*
D03*
X30000D02*
D03*
X24000Y24500D02*
D03*
X25000D02*
D03*
X26000D02*
D03*
X27000D02*
D03*
X28000D02*
D03*
X29000D02*
D03*
X30000D02*
D03*
X38500D02*
D03*
X37500D02*
D03*
X36500D02*
D03*
X35500D02*
D03*
X34500D02*
D03*
X33500D02*
D03*
X32500D02*
D03*
X38500Y13500D02*
D03*
X37500D02*
D03*
X36500D02*
D03*
X35500D02*
D03*
X34500D02*
D03*
X33500D02*
D03*
X32500D02*
D03*
X41000D02*
D03*
X42000D02*
D03*
X43000D02*
D03*
X44000D02*
D03*
X45000D02*
D03*
X46000D02*
D03*
X47000D02*
D03*
X41000Y24500D02*
D03*
X42000D02*
D03*
X43000D02*
D03*
X44000D02*
D03*
X45000D02*
D03*
X46000D02*
D03*
X47000D02*
D03*
X64000D02*
D03*
X63000D02*
D03*
X62000D02*
D03*
X61000D02*
D03*
X60000D02*
D03*
X59000D02*
D03*
X58000D02*
D03*
X64000Y13500D02*
D03*
X63000D02*
D03*
X62000D02*
D03*
X61000D02*
D03*
X60000D02*
D03*
X59000D02*
D03*
X58000D02*
D03*
X49500D02*
D03*
X50500D02*
D03*
X51500D02*
D03*
X52500D02*
D03*
X53500D02*
D03*
X54500D02*
D03*
X55500D02*
D03*
X49500Y24500D02*
D03*
X50500D02*
D03*
X51500D02*
D03*
X52500D02*
D03*
X53500D02*
D03*
X54500D02*
D03*
X55500D02*
D03*
X59000Y7000D02*
D03*
D29*
X14500Y24500D02*
D03*
Y13500D02*
D03*
X23000D02*
D03*
Y24500D02*
D03*
X31500D02*
D03*
Y13500D02*
D03*
X40000D02*
D03*
Y24500D02*
D03*
X57000D02*
D03*
Y13500D02*
D03*
X48500D02*
D03*
Y24500D02*
D03*
D30*
X50200Y10527D02*
D03*
X24700D02*
D03*
X51900Y6400D02*
D03*
X51526Y6774D02*
D03*
X51205Y7005D02*
D03*
X50900Y7300D02*
D03*
X50600Y7600D02*
D03*
X48700D02*
D03*
X50900Y5800D02*
D03*
X50600Y5500D02*
D03*
X46800Y6800D02*
D03*
X47500Y7100D02*
D03*
X48100Y7500D02*
D03*
X51500Y5800D02*
D03*
X51800Y5500D02*
D03*
X51200D02*
D03*
X44700Y4200D02*
D03*
Y4600D02*
D03*
X43700Y6900D02*
D03*
X44173Y6890D02*
D03*
X44200Y6500D02*
D03*
X44600Y6400D02*
D03*
Y6000D02*
D03*
X43300Y5700D02*
D03*
X42900Y6000D02*
D03*
X45200Y5100D02*
D03*
X45300Y5600D02*
D03*
X46200Y6500D02*
D03*
X58700Y10527D02*
D03*
X41700D02*
D03*
X33200D02*
D03*
X16200D02*
D03*
X41400Y12700D02*
D03*
X61700Y10700D02*
D03*
X53200D02*
D03*
X44700D02*
D03*
X36200D02*
D03*
X27700D02*
D03*
X19200D02*
D03*
X40600Y12700D02*
D03*
X42500D02*
D03*
X15900D02*
D03*
X25500D02*
D03*
X23600D02*
D03*
X24400D02*
D03*
X34000D02*
D03*
X32100D02*
D03*
X32900D02*
D03*
X49100D02*
D03*
X49900D02*
D03*
X57600D02*
D03*
X58400D02*
D03*
X51000D02*
D03*
X17000D02*
D03*
X39000Y3900D02*
D03*
X46893Y4007D02*
D03*
X48815Y3315D02*
D03*
X39000Y5900D02*
D03*
X41900Y2400D02*
D03*
X37300Y5775D02*
D03*
X22500Y8000D02*
D03*
X12400Y7200D02*
D03*
X12600Y7600D02*
D03*
X12400Y8000D02*
D03*
X12600Y8400D02*
D03*
X12400Y8800D02*
D03*
X12600Y9200D02*
D03*
X12800Y7200D02*
D03*
X13000Y7600D02*
D03*
X12800Y8000D02*
D03*
X13000Y8400D02*
D03*
X12800Y8800D02*
D03*
X13000Y9200D02*
D03*
X13200Y7200D02*
D03*
X13400Y7600D02*
D03*
X13200Y8000D02*
D03*
X13400Y8400D02*
D03*
X13200Y8800D02*
D03*
X13400Y9200D02*
D03*
X13600Y7200D02*
D03*
X13800Y7600D02*
D03*
X13600Y8000D02*
D03*
X13800Y8400D02*
D03*
X13600Y8800D02*
D03*
X13800Y9200D02*
D03*
X48400Y4200D02*
D03*
X47400Y3000D02*
D03*
Y4100D02*
D03*
X46400Y1500D02*
D03*
X54600Y4700D02*
D03*
Y5800D02*
D03*
X48400Y2700D02*
D03*
X48200Y1600D02*
D03*
X46100Y3300D02*
D03*
X42300Y2800D02*
D03*
X46500Y2700D02*
D03*
X46900Y2400D02*
D03*
Y1500D02*
D03*
X47700Y1700D02*
D03*
X46870Y4700D02*
D03*
D31*
X55020Y10100D02*
D03*
Y12120D02*
D03*
X52000D02*
D03*
Y10100D02*
D03*
X63520D02*
D03*
Y12120D02*
D03*
X60500D02*
D03*
Y10100D02*
D03*
X46520D02*
D03*
Y12120D02*
D03*
X43500D02*
D03*
Y10100D02*
D03*
X38020D02*
D03*
Y12120D02*
D03*
X35000D02*
D03*
Y10100D02*
D03*
X29520D02*
D03*
Y12120D02*
D03*
X26500D02*
D03*
Y10100D02*
D03*
X21020D02*
D03*
Y12120D02*
D03*
X18000D02*
D03*
Y10100D02*
D03*
D32*
X48484Y2160D02*
D03*
X47796D02*
D03*
D33*
X39000Y5344D02*
D03*
Y4656D02*
D03*
X38000Y5344D02*
D03*
Y4656D02*
D03*
D34*
X31500Y2500D02*
D03*
X15500D02*
D03*
M02*
