G04 Layer_Color=16711935*
%FSLAX24Y24*%
%MOIN*%
G70*
G01*
G75*
%ADD51C,0.0680*%
%ADD52C,0.0671*%
%ADD53R,0.0671X0.0671*%
%ADD54C,0.0879*%
%ADD55R,0.0671X0.0671*%
%ADD56C,0.1138*%
%ADD57C,0.0080*%
%ADD58C,0.0930*%
%ADD59C,0.0881*%
%ADD60C,0.0580*%
%ADD61R,0.0580X0.0580*%
%ADD62R,0.1180X0.1080*%
%ADD63R,0.0375X0.0434*%
%ADD64R,0.0434X0.0375*%
D51*
X41500Y3500D02*
D03*
Y4500D02*
D03*
Y5500D02*
D03*
X42500Y3500D02*
D03*
Y4500D02*
D03*
Y5500D02*
D03*
D52*
X40000Y1000D02*
D03*
Y2000D02*
D03*
X38800Y1000D02*
D03*
Y2000D02*
D03*
X53000Y2500D02*
D03*
Y1000D02*
D03*
D53*
X40000Y3000D02*
D03*
X38800D02*
D03*
D54*
X28500Y6000D02*
D03*
X18500D02*
D03*
X20500D02*
D03*
X22500D02*
D03*
X24500D02*
D03*
X26500D02*
D03*
D55*
X54000Y2500D02*
D03*
Y1000D02*
D03*
D56*
X12500Y1500D02*
D03*
X11500Y2500D02*
D03*
X12500Y4500D02*
D03*
X11500Y5500D02*
D03*
X16000Y23000D02*
D03*
Y17000D02*
D03*
X24500Y23000D02*
D03*
Y17000D02*
D03*
X33000Y23000D02*
D03*
Y17000D02*
D03*
X41500Y23000D02*
D03*
Y17000D02*
D03*
X50000Y23000D02*
D03*
Y17000D02*
D03*
X58500Y23000D02*
D03*
Y17000D02*
D03*
D57*
X31500Y2500D02*
D03*
X15500D02*
D03*
X8040Y7000D02*
D03*
X960Y3400D02*
D03*
D58*
X6460Y7000D02*
D03*
X4480D02*
D03*
X2500D02*
D03*
X2540Y3400D02*
D03*
X4520D02*
D03*
X6500D02*
D03*
D59*
X9622Y11598D02*
D03*
X11000D02*
D03*
Y24000D02*
D03*
X9622D02*
D03*
X11000Y22622D02*
D03*
X9622D02*
D03*
X11000Y21244D02*
D03*
X9622D02*
D03*
X11000Y19866D02*
D03*
X9622D02*
D03*
X11000Y18488D02*
D03*
X9622D02*
D03*
X11000Y17110D02*
D03*
X9622D02*
D03*
X11000Y15732D02*
D03*
X9622D02*
D03*
X11000Y14354D02*
D03*
X9622D02*
D03*
X11000Y12976D02*
D03*
X9622D02*
D03*
D60*
X21500Y24500D02*
D03*
X20500D02*
D03*
X19500D02*
D03*
X18500D02*
D03*
X17500D02*
D03*
X16500D02*
D03*
X15500D02*
D03*
X21500Y13500D02*
D03*
X20500D02*
D03*
X19500D02*
D03*
X18500D02*
D03*
X17500D02*
D03*
X16500D02*
D03*
X15500D02*
D03*
X24000D02*
D03*
X25000D02*
D03*
X26000D02*
D03*
X27000D02*
D03*
X28000D02*
D03*
X29000D02*
D03*
X30000D02*
D03*
X24000Y24500D02*
D03*
X25000D02*
D03*
X26000D02*
D03*
X27000D02*
D03*
X28000D02*
D03*
X29000D02*
D03*
X30000D02*
D03*
X38500D02*
D03*
X37500D02*
D03*
X36500D02*
D03*
X35500D02*
D03*
X34500D02*
D03*
X33500D02*
D03*
X32500D02*
D03*
X38500Y13500D02*
D03*
X37500D02*
D03*
X36500D02*
D03*
X35500D02*
D03*
X34500D02*
D03*
X33500D02*
D03*
X32500D02*
D03*
X41000D02*
D03*
X42000D02*
D03*
X43000D02*
D03*
X44000D02*
D03*
X45000D02*
D03*
X46000D02*
D03*
X47000D02*
D03*
X41000Y24500D02*
D03*
X42000D02*
D03*
X43000D02*
D03*
X44000D02*
D03*
X45000D02*
D03*
X46000D02*
D03*
X47000D02*
D03*
X64000D02*
D03*
X63000D02*
D03*
X62000D02*
D03*
X61000D02*
D03*
X60000D02*
D03*
X59000D02*
D03*
X58000D02*
D03*
X64000Y13500D02*
D03*
X63000D02*
D03*
X62000D02*
D03*
X61000D02*
D03*
X60000D02*
D03*
X59000D02*
D03*
X58000D02*
D03*
X49500D02*
D03*
X50500D02*
D03*
X51500D02*
D03*
X52500D02*
D03*
X53500D02*
D03*
X54500D02*
D03*
X55500D02*
D03*
X49500Y24500D02*
D03*
X50500D02*
D03*
X51500D02*
D03*
X52500D02*
D03*
X53500D02*
D03*
X54500D02*
D03*
X55500D02*
D03*
D61*
X14500D02*
D03*
Y13500D02*
D03*
X23000D02*
D03*
Y24500D02*
D03*
X31500D02*
D03*
Y13500D02*
D03*
X40000D02*
D03*
Y24500D02*
D03*
X57000D02*
D03*
Y13500D02*
D03*
X48500D02*
D03*
Y24500D02*
D03*
D62*
X55020Y10100D02*
D03*
Y12120D02*
D03*
X52000D02*
D03*
Y10100D02*
D03*
X63520D02*
D03*
Y12120D02*
D03*
X60500D02*
D03*
Y10100D02*
D03*
X46520D02*
D03*
Y12120D02*
D03*
X43500D02*
D03*
Y10100D02*
D03*
X38020D02*
D03*
Y12120D02*
D03*
X35000D02*
D03*
Y10100D02*
D03*
X29520D02*
D03*
Y12120D02*
D03*
X26500D02*
D03*
Y10100D02*
D03*
X21020D02*
D03*
Y12120D02*
D03*
X18000D02*
D03*
Y10100D02*
D03*
D63*
X48484Y2160D02*
D03*
X47796D02*
D03*
D64*
X39000Y5344D02*
D03*
Y4656D02*
D03*
X38000Y5344D02*
D03*
Y4656D02*
D03*
M02*
