G04 Layer_Color=32896*
%FSLAX24Y24*%
%MOIN*%
G70*
G01*
G75*
%ADD14C,0.0100*%
%ADD25C,0.0070*%
%ADD26C,0.0079*%
%ADD27C,0.0039*%
D14*
X10513Y18087D02*
Y18599D01*
X11969D01*
X10513Y16001D02*
X11969D01*
X10513D02*
Y16513D01*
X12800Y19550D02*
Y19050D01*
X12700Y18950D01*
X12500D01*
X12400Y19050D01*
Y19550D01*
X12200Y19450D02*
X12100Y19550D01*
X11900D01*
X11800Y19450D01*
Y19350D01*
X11900Y19250D01*
X12000D01*
X11900D01*
X11800Y19150D01*
Y19050D01*
X11900Y18950D01*
X12100D01*
X12200Y19050D01*
X11201Y19550D02*
X11600D01*
Y18950D01*
X11201D01*
X11600Y19250D02*
X11400D01*
X28500Y20400D02*
Y20800D01*
X28300Y21000D01*
X28100Y20800D01*
Y20400D01*
Y20700D01*
X28500D01*
X27500Y20800D02*
X27800D01*
X27900Y20700D01*
Y20500D01*
X27800Y20400D01*
X27500D01*
X27200D02*
X27000D01*
X26901Y20500D01*
Y20700D01*
X27000Y20800D01*
X27200D01*
X27300Y20700D01*
Y20500D01*
X27200Y20400D01*
X26701Y20800D02*
Y20500D01*
X26601Y20400D01*
X26301D01*
Y20800D01*
X26101Y20400D02*
X25801D01*
X25701Y20500D01*
X25801Y20600D01*
X26001D01*
X26101Y20700D01*
X26001Y20800D01*
X25701D01*
X25401Y20900D02*
Y20800D01*
X25501D01*
X25301D01*
X25401D01*
Y20500D01*
X25301Y20400D01*
X25001D02*
X24801D01*
X24901D01*
Y20800D01*
X25001D01*
X24101D02*
X24401D01*
X24501Y20700D01*
Y20500D01*
X24401Y20400D01*
X24101D01*
X23901D02*
X23602D01*
X23502Y20500D01*
X23602Y20600D01*
X23802D01*
X23901Y20700D01*
X23802Y20800D01*
X23502D01*
D25*
X13620Y18220D02*
X13670Y18270D01*
X13770D01*
X13820Y18220D01*
Y18020D01*
X13770Y17970D01*
X13670D01*
X13620Y18020D01*
X13520Y17970D02*
X13420D01*
X13470D01*
Y18270D01*
X13520Y18220D01*
X13070Y18270D02*
X13270D01*
Y17970D01*
X13070D01*
X13270Y18120D02*
X13170D01*
X23286Y18479D02*
X23300Y18507D01*
X23329Y18536D01*
X23357Y18550D01*
X23414D01*
X23443Y18536D01*
X23471Y18507D01*
X23486Y18479D01*
X23500Y18436D01*
Y18364D01*
X23486Y18321D01*
X23471Y18293D01*
X23443Y18264D01*
X23414Y18250D01*
X23357D01*
X23329Y18264D01*
X23300Y18293D01*
X23286Y18321D01*
Y18364D01*
X23357D02*
X23286D01*
X23217Y18550D02*
Y18250D01*
Y18550D02*
X23017Y18250D01*
Y18550D02*
Y18250D01*
X22934Y18550D02*
Y18250D01*
Y18550D02*
X22834D01*
X22792Y18536D01*
X22763Y18507D01*
X22749Y18479D01*
X22734Y18436D01*
Y18364D01*
X22749Y18321D01*
X22763Y18293D01*
X22792Y18264D01*
X22834Y18250D01*
X22934D01*
X23271Y17250D02*
X23386Y17550D01*
X23500Y17250D01*
X23457Y17350D02*
X23314D01*
X22987Y17479D02*
X23002Y17507D01*
X23030Y17536D01*
X23059Y17550D01*
X23116D01*
X23144Y17536D01*
X23173Y17507D01*
X23187Y17479D01*
X23201Y17436D01*
Y17364D01*
X23187Y17321D01*
X23173Y17293D01*
X23144Y17264D01*
X23116Y17250D01*
X23059D01*
X23030Y17264D01*
X23002Y17293D01*
X22987Y17321D01*
X22817Y17550D02*
X22846Y17536D01*
X22874Y17507D01*
X22889Y17479D01*
X22903Y17436D01*
Y17364D01*
X22889Y17321D01*
X22874Y17293D01*
X22846Y17264D01*
X22817Y17250D01*
X22760D01*
X22732Y17264D01*
X22703Y17293D01*
X22689Y17321D01*
X22674Y17364D01*
Y17436D01*
X22689Y17479D01*
X22703Y17507D01*
X22732Y17536D01*
X22760Y17550D01*
X22817D01*
X22604D02*
Y17336D01*
X22590Y17293D01*
X22562Y17264D01*
X22519Y17250D01*
X22490D01*
X22447Y17264D01*
X22419Y17293D01*
X22405Y17336D01*
Y17550D01*
X22122Y17507D02*
X22150Y17536D01*
X22193Y17550D01*
X22250D01*
X22293Y17536D01*
X22322Y17507D01*
Y17479D01*
X22307Y17450D01*
X22293Y17436D01*
X22265Y17421D01*
X22179Y17393D01*
X22150Y17379D01*
X22136Y17364D01*
X22122Y17336D01*
Y17293D01*
X22150Y17264D01*
X22193Y17250D01*
X22250D01*
X22293Y17264D01*
X22322Y17293D01*
X21955Y17550D02*
Y17250D01*
X22055Y17550D02*
X21855D01*
X21819D02*
Y17250D01*
X21542Y17479D02*
X21556Y17507D01*
X21585Y17536D01*
X21613Y17550D01*
X21670D01*
X21699Y17536D01*
X21728Y17507D01*
X21742Y17479D01*
X21756Y17436D01*
Y17364D01*
X21742Y17321D01*
X21728Y17293D01*
X21699Y17264D01*
X21670Y17250D01*
X21613D01*
X21585Y17264D01*
X21556Y17293D01*
X21542Y17321D01*
X21258Y17507D02*
X21286Y17536D01*
X21329Y17550D01*
X21386D01*
X21429Y17536D01*
X21458Y17507D01*
Y17479D01*
X21443Y17450D01*
X21429Y17436D01*
X21400Y17421D01*
X21315Y17393D01*
X21286Y17379D01*
X21272Y17364D01*
X21258Y17336D01*
Y17293D01*
X21286Y17264D01*
X21329Y17250D01*
X21386D01*
X21429Y17264D01*
X21458Y17293D01*
X20955Y17550D02*
Y17250D01*
Y17550D02*
X20826D01*
X20783Y17536D01*
X20769Y17521D01*
X20755Y17493D01*
Y17464D01*
X20769Y17436D01*
X20783Y17421D01*
X20826Y17407D01*
X20955D01*
X20855D02*
X20755Y17250D01*
X20688Y17550D02*
X20488Y17250D01*
Y17550D02*
X20688Y17250D01*
X23271Y16250D02*
X23386Y16550D01*
X23500Y16250D01*
X23457Y16350D02*
X23314D01*
X22987Y16479D02*
X23002Y16507D01*
X23030Y16536D01*
X23059Y16550D01*
X23116D01*
X23144Y16536D01*
X23173Y16507D01*
X23187Y16479D01*
X23201Y16436D01*
Y16364D01*
X23187Y16321D01*
X23173Y16293D01*
X23144Y16264D01*
X23116Y16250D01*
X23059D01*
X23030Y16264D01*
X23002Y16293D01*
X22987Y16321D01*
X22817Y16550D02*
X22846Y16536D01*
X22874Y16507D01*
X22889Y16479D01*
X22903Y16436D01*
Y16364D01*
X22889Y16321D01*
X22874Y16293D01*
X22846Y16264D01*
X22817Y16250D01*
X22760D01*
X22732Y16264D01*
X22703Y16293D01*
X22689Y16321D01*
X22674Y16364D01*
Y16436D01*
X22689Y16479D01*
X22703Y16507D01*
X22732Y16536D01*
X22760Y16550D01*
X22817D01*
X22604D02*
Y16336D01*
X22590Y16293D01*
X22562Y16264D01*
X22519Y16250D01*
X22490D01*
X22447Y16264D01*
X22419Y16293D01*
X22405Y16336D01*
Y16550D01*
X22122Y16507D02*
X22150Y16536D01*
X22193Y16550D01*
X22250D01*
X22293Y16536D01*
X22322Y16507D01*
Y16479D01*
X22307Y16450D01*
X22293Y16436D01*
X22265Y16421D01*
X22179Y16393D01*
X22150Y16379D01*
X22136Y16364D01*
X22122Y16336D01*
Y16293D01*
X22150Y16264D01*
X22193Y16250D01*
X22250D01*
X22293Y16264D01*
X22322Y16293D01*
X21955Y16550D02*
Y16250D01*
X22055Y16550D02*
X21855D01*
X21819D02*
Y16250D01*
X21542Y16479D02*
X21556Y16507D01*
X21585Y16536D01*
X21613Y16550D01*
X21670D01*
X21699Y16536D01*
X21728Y16507D01*
X21742Y16479D01*
X21756Y16436D01*
Y16364D01*
X21742Y16321D01*
X21728Y16293D01*
X21699Y16264D01*
X21670Y16250D01*
X21613D01*
X21585Y16264D01*
X21556Y16293D01*
X21542Y16321D01*
X21258Y16507D02*
X21286Y16536D01*
X21329Y16550D01*
X21386D01*
X21429Y16536D01*
X21458Y16507D01*
Y16479D01*
X21443Y16450D01*
X21429Y16436D01*
X21400Y16421D01*
X21315Y16393D01*
X21286Y16379D01*
X21272Y16364D01*
X21258Y16336D01*
Y16293D01*
X21286Y16264D01*
X21329Y16250D01*
X21386D01*
X21429Y16264D01*
X21458Y16293D01*
X20855Y16550D02*
Y16250D01*
X20955Y16550D02*
X20755D01*
X20719D02*
X20519Y16250D01*
Y16550D02*
X20719Y16250D01*
X23314Y15450D02*
X23329Y15407D01*
X23357Y15379D01*
X23400Y15364D01*
X23414D01*
X23457Y15379D01*
X23486Y15407D01*
X23500Y15450D01*
Y15464D01*
X23486Y15507D01*
X23457Y15536D01*
X23414Y15550D01*
X23400D01*
X23357Y15536D01*
X23329Y15507D01*
X23314Y15450D01*
Y15379D01*
X23329Y15307D01*
X23357Y15264D01*
X23400Y15250D01*
X23429D01*
X23471Y15264D01*
X23486Y15293D01*
X23233Y15550D02*
X23119Y15250D01*
X23004Y15550D02*
X23119Y15250D01*
D26*
X13736Y16941D02*
Y17059D01*
X13264Y16941D02*
Y17059D01*
D27*
X23835Y14047D02*
Y17071D01*
Y14047D02*
X24819D01*
X23835Y19953D02*
X24819D01*
X23835Y17071D02*
Y19953D01*
X24819Y14047D02*
Y19953D01*
M02*
