G04 Layer_Physical_Order=2*
G04 Layer_Color=16711680*
%FSLAX24Y24*%
%MOIN*%
G70*
G01*
G75*
%ADD14C,0.0100*%
%ADD15C,0.0406*%
%ADD16C,0.1496*%
%ADD17C,0.0591*%
%ADD18C,0.0290*%
%ADD19R,0.0846X0.1280*%
%ADD20R,0.0846X0.0374*%
%ADD21R,0.0551X0.0453*%
%ADD22C,0.2640*%
G36*
X42796Y204D02*
X204D01*
Y26000D01*
Y26796D01*
X42796D01*
Y204D01*
D02*
G37*
%LPC*%
G36*
X4951Y10969D02*
X4898Y10962D01*
X4801Y10922D01*
X4719Y10859D01*
X4656Y10776D01*
X4616Y10680D01*
X4609Y10627D01*
X4951D01*
Y10969D01*
D02*
G37*
G36*
X5051D02*
Y10627D01*
X5393D01*
X5386Y10680D01*
X5346Y10776D01*
X5283Y10859D01*
X5200Y10922D01*
X5104Y10962D01*
X5051Y10969D01*
D02*
G37*
G36*
X1599Y11980D02*
X1433Y11964D01*
X1273Y11915D01*
X1126Y11836D01*
X997Y11731D01*
X891Y11601D01*
X812Y11454D01*
X763Y11294D01*
X747Y11128D01*
X763Y10962D01*
X812Y10802D01*
X891Y10655D01*
X997Y10525D01*
X1126Y10419D01*
X1273Y10341D01*
X1433Y10292D01*
X1599Y10276D01*
X1765Y10292D01*
X1925Y10341D01*
X2073Y10419D01*
X2202Y10525D01*
X2308Y10655D01*
X2386Y10802D01*
X2435Y10962D01*
X2451Y11128D01*
X2435Y11294D01*
X2386Y11454D01*
X2308Y11601D01*
X2202Y11731D01*
X2073Y11836D01*
X1925Y11915D01*
X1765Y11964D01*
X1599Y11980D01*
D02*
G37*
G36*
X4951Y10527D02*
X4609D01*
X4616Y10474D01*
X4656Y10377D01*
X4719Y10295D01*
X4801Y10231D01*
X4898Y10192D01*
X4951Y10185D01*
Y10527D01*
D02*
G37*
G36*
X5393D02*
X5051D01*
Y10185D01*
X5104Y10192D01*
X5200Y10231D01*
X5283Y10295D01*
X5346Y10377D01*
X5386Y10474D01*
X5393Y10527D01*
D02*
G37*
G36*
X8490Y12340D02*
X8394Y12321D01*
X8313Y12267D01*
X8259Y12186D01*
X8240Y12090D01*
X8259Y11994D01*
X8313Y11913D01*
X8337Y11898D01*
Y11686D01*
X8323Y11677D01*
X8269Y11596D01*
X8250Y11500D01*
X8269Y11404D01*
X8323Y11323D01*
X8404Y11269D01*
X8500Y11250D01*
X8596Y11269D01*
X8677Y11323D01*
X8731Y11404D01*
X8750Y11500D01*
X8731Y11596D01*
X8677Y11677D01*
X8643Y11699D01*
Y11898D01*
X8667Y11913D01*
X8721Y11994D01*
X8740Y12090D01*
X8721Y12186D01*
X8667Y12267D01*
X8586Y12321D01*
X8490Y12340D01*
D02*
G37*
G36*
X13450Y16586D02*
X13124D01*
Y16309D01*
X13450D01*
Y16586D01*
D02*
G37*
G36*
X13876D02*
X13550D01*
Y16309D01*
X13876D01*
Y16586D01*
D02*
G37*
G36*
X24299Y16899D02*
X24196Y16885D01*
X24100Y16845D01*
X24017Y16782D01*
X23954Y16699D01*
X23914Y16603D01*
X23901Y16500D01*
X23914Y16397D01*
X23954Y16301D01*
X24017Y16218D01*
X24100Y16155D01*
X24196Y16115D01*
X24299Y16101D01*
X24402Y16115D01*
X24499Y16155D01*
X24581Y16218D01*
X24644Y16301D01*
X24684Y16397D01*
X24698Y16500D01*
X24684Y16603D01*
X24644Y16699D01*
X24581Y16782D01*
X24499Y16845D01*
X24402Y16885D01*
X24299Y16899D01*
D02*
G37*
G36*
X27701Y15801D02*
X27535Y15785D01*
X27375Y15736D01*
X27227Y15657D01*
X27098Y15551D01*
X26992Y15422D01*
X26914Y15275D01*
X26865Y15115D01*
X26849Y14949D01*
X26865Y14783D01*
X26914Y14623D01*
X26992Y14475D01*
X27098Y14346D01*
X27227Y14240D01*
X27375Y14162D01*
X27535Y14113D01*
X27701Y14097D01*
X27867Y14113D01*
X28027Y14162D01*
X28174Y14240D01*
X28303Y14346D01*
X28409Y14475D01*
X28488Y14623D01*
X28537Y14783D01*
X28553Y14949D01*
X28537Y15115D01*
X28488Y15275D01*
X28409Y15422D01*
X28303Y15551D01*
X28174Y15657D01*
X28027Y15736D01*
X27867Y15785D01*
X27701Y15801D01*
D02*
G37*
G36*
X24299Y15899D02*
X24196Y15885D01*
X24100Y15845D01*
X24017Y15782D01*
X23954Y15699D01*
X23914Y15603D01*
X23901Y15500D01*
X23914Y15397D01*
X23954Y15301D01*
X24017Y15218D01*
X24100Y15155D01*
X24196Y15115D01*
X24299Y15101D01*
X24402Y15115D01*
X24499Y15155D01*
X24581Y15218D01*
X24644Y15301D01*
X24684Y15397D01*
X24698Y15500D01*
X24684Y15603D01*
X24644Y15699D01*
X24581Y15782D01*
X24499Y15845D01*
X24402Y15885D01*
X24299Y15899D01*
D02*
G37*
G36*
X15450Y2799D02*
X15421Y2795D01*
X15347Y2765D01*
X15284Y2716D01*
X15235Y2653D01*
X15205Y2579D01*
X15201Y2550D01*
X15450D01*
Y2799D01*
D02*
G37*
G36*
X20000Y2806D02*
X19921Y2795D01*
X19847Y2765D01*
X19784Y2716D01*
X19775Y2704D01*
X19725D01*
X19716Y2716D01*
X19653Y2765D01*
X19579Y2795D01*
X19500Y2806D01*
X19421Y2795D01*
X19347Y2765D01*
X19284Y2716D01*
X19275Y2704D01*
X19225D01*
X19216Y2716D01*
X19153Y2765D01*
X19079Y2795D01*
X19000Y2806D01*
X18921Y2795D01*
X18847Y2765D01*
X18784Y2716D01*
X18775Y2704D01*
X18725D01*
X18716Y2716D01*
X18653Y2765D01*
X18579Y2795D01*
X18500Y2806D01*
X18421Y2795D01*
X18347Y2765D01*
X18284Y2716D01*
X18275Y2704D01*
X18225D01*
X18216Y2716D01*
X18153Y2765D01*
X18079Y2795D01*
X18000Y2806D01*
X17921Y2795D01*
X17847Y2765D01*
X17784Y2716D01*
X17775Y2704D01*
X17725D01*
X17716Y2716D01*
X17653Y2765D01*
X17579Y2795D01*
X17500Y2806D01*
X17421Y2795D01*
X17347Y2765D01*
X17284Y2716D01*
X17275Y2704D01*
X17225D01*
X17216Y2716D01*
X17153Y2765D01*
X17079Y2795D01*
X17000Y2806D01*
X16921Y2795D01*
X16847Y2765D01*
X16784Y2716D01*
X16775Y2704D01*
X16725D01*
X16716Y2716D01*
X16653Y2765D01*
X16579Y2795D01*
X16500Y2806D01*
X16421Y2795D01*
X16347Y2765D01*
X16284Y2716D01*
X16275Y2704D01*
X16225D01*
X16216Y2716D01*
X16153Y2765D01*
X16079Y2795D01*
X16000Y2806D01*
X15921Y2795D01*
X15847Y2765D01*
X15784Y2716D01*
X15775Y2704D01*
X15725D01*
X15716Y2716D01*
X15653Y2765D01*
X15579Y2795D01*
X15550Y2799D01*
Y2500D01*
X15500D01*
Y2450D01*
X15201D01*
X15205Y2421D01*
X15235Y2347D01*
X15284Y2284D01*
X15296Y2275D01*
Y2225D01*
X15284Y2216D01*
X15235Y2153D01*
X15205Y2079D01*
X15194Y2000D01*
X15205Y1921D01*
X15235Y1847D01*
X15284Y1784D01*
X15347Y1735D01*
X15421Y1705D01*
X15500Y1694D01*
X15579Y1705D01*
X15653Y1735D01*
X15716Y1784D01*
X15725Y1796D01*
X15775D01*
X15784Y1784D01*
X15847Y1735D01*
X15921Y1705D01*
X16000Y1694D01*
X16079Y1705D01*
X16153Y1735D01*
X16216Y1784D01*
X16225Y1796D01*
X16275D01*
X16284Y1784D01*
X16347Y1735D01*
X16421Y1705D01*
X16500Y1694D01*
X16579Y1705D01*
X16653Y1735D01*
X16716Y1784D01*
X16725Y1796D01*
X16775D01*
X16784Y1784D01*
X16847Y1735D01*
X16921Y1705D01*
X17000Y1694D01*
X17079Y1705D01*
X17153Y1735D01*
X17216Y1784D01*
X17225Y1796D01*
X17275D01*
X17284Y1784D01*
X17347Y1735D01*
X17421Y1705D01*
X17500Y1694D01*
X17579Y1705D01*
X17653Y1735D01*
X17716Y1784D01*
X17725Y1796D01*
X17775D01*
X17784Y1784D01*
X17847Y1735D01*
X17921Y1705D01*
X18000Y1694D01*
X18079Y1705D01*
X18153Y1735D01*
X18216Y1784D01*
X18225Y1796D01*
X18275D01*
X18284Y1784D01*
X18347Y1735D01*
X18421Y1705D01*
X18500Y1694D01*
X18579Y1705D01*
X18653Y1735D01*
X18716Y1784D01*
X18725Y1796D01*
X18775D01*
X18784Y1784D01*
X18847Y1735D01*
X18921Y1705D01*
X19000Y1694D01*
X19079Y1705D01*
X19153Y1735D01*
X19216Y1784D01*
X19225Y1796D01*
X19275D01*
X19284Y1784D01*
X19347Y1735D01*
X19421Y1705D01*
X19500Y1694D01*
X19579Y1705D01*
X19653Y1735D01*
X19716Y1784D01*
X19725Y1796D01*
X19775D01*
X19784Y1784D01*
X19847Y1735D01*
X19921Y1705D01*
X19950Y1701D01*
Y2000D01*
X20000D01*
Y2050D01*
X20299D01*
X20295Y2079D01*
X20265Y2153D01*
X20216Y2216D01*
X20204Y2225D01*
Y2275D01*
X20216Y2284D01*
X20265Y2347D01*
X20295Y2421D01*
X20306Y2500D01*
X20295Y2579D01*
X20265Y2653D01*
X20216Y2716D01*
X20153Y2765D01*
X20079Y2795D01*
X20000Y2806D01*
D02*
G37*
G36*
X20299Y1950D02*
X20050D01*
Y1701D01*
X20079Y1705D01*
X20153Y1735D01*
X20216Y1784D01*
X20265Y1847D01*
X20295Y1921D01*
X20299Y1950D01*
D02*
G37*
G36*
X12700Y3424D02*
X12477Y3407D01*
X12260Y3355D01*
X12053Y3269D01*
X11863Y3152D01*
X11693Y3007D01*
X11548Y2837D01*
X11431Y2647D01*
X11345Y2440D01*
X11293Y2223D01*
X11276Y2000D01*
X11293Y1777D01*
X11345Y1560D01*
X11431Y1353D01*
X11548Y1163D01*
X11693Y993D01*
X11863Y848D01*
X12053Y731D01*
X12260Y645D01*
X12477Y593D01*
X12700Y576D01*
X12923Y593D01*
X13140Y645D01*
X13347Y731D01*
X13537Y848D01*
X13707Y993D01*
X13852Y1163D01*
X13969Y1353D01*
X14055Y1560D01*
X14107Y1777D01*
X14124Y2000D01*
X14107Y2223D01*
X14055Y2440D01*
X13969Y2647D01*
X13852Y2837D01*
X13707Y3007D01*
X13537Y3152D01*
X13347Y3269D01*
X13140Y3355D01*
X12923Y3407D01*
X12700Y3424D01*
D02*
G37*
G36*
X22700D02*
X22477Y3407D01*
X22260Y3355D01*
X22053Y3269D01*
X21863Y3152D01*
X21693Y3007D01*
X21548Y2837D01*
X21431Y2647D01*
X21345Y2440D01*
X21293Y2223D01*
X21276Y2000D01*
X21293Y1777D01*
X21345Y1560D01*
X21431Y1353D01*
X21548Y1163D01*
X21693Y993D01*
X21863Y848D01*
X22053Y731D01*
X22260Y645D01*
X22477Y593D01*
X22700Y576D01*
X22923Y593D01*
X23140Y645D01*
X23347Y731D01*
X23537Y848D01*
X23707Y993D01*
X23852Y1163D01*
X23969Y1353D01*
X24055Y1560D01*
X24107Y1777D01*
X24124Y2000D01*
X24107Y2223D01*
X24055Y2440D01*
X23969Y2647D01*
X23852Y2837D01*
X23707Y3007D01*
X23537Y3152D01*
X23347Y3269D01*
X23140Y3355D01*
X22923Y3407D01*
X22700Y3424D01*
D02*
G37*
G36*
X37650Y5703D02*
X37523Y5691D01*
X37400Y5653D01*
X37287Y5593D01*
X37188Y5512D01*
X37107Y5413D01*
X37047Y5300D01*
X37009Y5177D01*
X36997Y5050D01*
X37009Y4923D01*
X37047Y4800D01*
X37107Y4687D01*
X37188Y4588D01*
X37287Y4507D01*
X37400Y4447D01*
X37523Y4409D01*
X37650Y4397D01*
X37777Y4409D01*
X37900Y4447D01*
X38013Y4507D01*
X38112Y4588D01*
X38193Y4687D01*
X38253Y4800D01*
X38291Y4923D01*
X38303Y5050D01*
X38291Y5177D01*
X38253Y5300D01*
X38193Y5413D01*
X38112Y5512D01*
X38013Y5593D01*
X37900Y5653D01*
X37777Y5691D01*
X37650Y5703D01*
D02*
G37*
G36*
X5001Y8975D02*
X4898Y8962D01*
X4801Y8922D01*
X4719Y8859D01*
X4656Y8776D01*
X4616Y8680D01*
X4602Y8577D01*
X4616Y8474D01*
X4656Y8377D01*
X4719Y8295D01*
X4801Y8231D01*
X4898Y8192D01*
X5001Y8178D01*
X5104Y8192D01*
X5200Y8231D01*
X5283Y8295D01*
X5346Y8377D01*
X5386Y8474D01*
X5399Y8577D01*
X5386Y8680D01*
X5346Y8776D01*
X5283Y8859D01*
X5200Y8922D01*
X5104Y8962D01*
X5001Y8975D01*
D02*
G37*
G36*
Y9975D02*
X4898Y9962D01*
X4801Y9922D01*
X4719Y9859D01*
X4656Y9776D01*
X4616Y9680D01*
X4602Y9577D01*
X4616Y9474D01*
X4656Y9377D01*
X4719Y9295D01*
X4801Y9232D01*
X4898Y9192D01*
X5001Y9178D01*
X5104Y9192D01*
X5200Y9232D01*
X5283Y9295D01*
X5346Y9377D01*
X5386Y9474D01*
X5399Y9577D01*
X5386Y9680D01*
X5346Y9776D01*
X5283Y9859D01*
X5200Y9922D01*
X5104Y9962D01*
X5001Y9975D01*
D02*
G37*
G36*
Y7975D02*
X4898Y7962D01*
X4801Y7922D01*
X4719Y7859D01*
X4656Y7776D01*
X4616Y7680D01*
X4602Y7577D01*
X4616Y7474D01*
X4656Y7377D01*
X4719Y7295D01*
X4801Y7232D01*
X4898Y7192D01*
X5001Y7178D01*
X5104Y7192D01*
X5200Y7232D01*
X5283Y7295D01*
X5346Y7377D01*
X5386Y7474D01*
X5399Y7577D01*
X5386Y7680D01*
X5346Y7776D01*
X5283Y7859D01*
X5200Y7922D01*
X5104Y7962D01*
X5001Y7975D01*
D02*
G37*
G36*
X11650Y6953D02*
X11523Y6941D01*
X11400Y6903D01*
X11287Y6843D01*
X11188Y6762D01*
X11107Y6663D01*
X11047Y6550D01*
X11009Y6427D01*
X10997Y6300D01*
X11009Y6173D01*
X11047Y6050D01*
X11107Y5937D01*
X11188Y5838D01*
X11287Y5757D01*
X11400Y5697D01*
X11523Y5659D01*
X11650Y5647D01*
X11777Y5659D01*
X11900Y5697D01*
X12013Y5757D01*
X12112Y5838D01*
X12193Y5937D01*
X12253Y6050D01*
X12291Y6173D01*
X12303Y6300D01*
X12291Y6427D01*
X12253Y6550D01*
X12193Y6663D01*
X12112Y6762D01*
X12013Y6843D01*
X11900Y6903D01*
X11777Y6941D01*
X11650Y6953D01*
D02*
G37*
G36*
X1599Y7878D02*
X1433Y7861D01*
X1273Y7813D01*
X1126Y7734D01*
X997Y7628D01*
X891Y7499D01*
X812Y7352D01*
X763Y7192D01*
X747Y7026D01*
X763Y6859D01*
X812Y6699D01*
X891Y6552D01*
X997Y6423D01*
X1126Y6317D01*
X1273Y6238D01*
X1433Y6190D01*
X1599Y6173D01*
X1765Y6190D01*
X1925Y6238D01*
X2073Y6317D01*
X2202Y6423D01*
X2308Y6552D01*
X2386Y6699D01*
X2435Y6859D01*
X2451Y7026D01*
X2435Y7192D01*
X2386Y7352D01*
X2308Y7499D01*
X2202Y7628D01*
X2073Y7734D01*
X1925Y7813D01*
X1765Y7861D01*
X1599Y7878D01*
D02*
G37*
G36*
X10681Y18040D02*
X9635D01*
Y16560D01*
X10681D01*
Y18040D01*
D02*
G37*
G36*
X5000Y22399D02*
X4897Y22385D01*
X4801Y22345D01*
X4718Y22282D01*
X4655Y22199D01*
X4615Y22103D01*
X4601Y22000D01*
X4615Y21897D01*
X4655Y21801D01*
X4718Y21718D01*
X4801Y21655D01*
X4897Y21615D01*
X5000Y21601D01*
X5103Y21615D01*
X5199Y21655D01*
X5282Y21718D01*
X5345Y21801D01*
X5385Y21897D01*
X5399Y22000D01*
X5385Y22103D01*
X5345Y22199D01*
X5282Y22282D01*
X5199Y22345D01*
X5103Y22385D01*
X5000Y22399D01*
D02*
G37*
G36*
X11650Y23453D02*
X11523Y23441D01*
X11400Y23403D01*
X11287Y23343D01*
X11188Y23262D01*
X11107Y23163D01*
X11047Y23050D01*
X11009Y22927D01*
X10997Y22800D01*
X11009Y22673D01*
X11047Y22550D01*
X11107Y22437D01*
X11188Y22338D01*
X11287Y22257D01*
X11400Y22197D01*
X11523Y22159D01*
X11650Y22147D01*
X11777Y22159D01*
X11900Y22197D01*
X12013Y22257D01*
X12112Y22338D01*
X12193Y22437D01*
X12253Y22550D01*
X12291Y22673D01*
X12303Y22800D01*
X12291Y22927D01*
X12253Y23050D01*
X12193Y23163D01*
X12112Y23262D01*
X12013Y23343D01*
X11900Y23403D01*
X11777Y23441D01*
X11650Y23453D01*
D02*
G37*
G36*
X5000Y21399D02*
X4897Y21385D01*
X4801Y21345D01*
X4718Y21282D01*
X4655Y21199D01*
X4615Y21103D01*
X4601Y21000D01*
X4615Y20897D01*
X4655Y20801D01*
X4718Y20718D01*
X4801Y20655D01*
X4897Y20615D01*
X5000Y20601D01*
X5103Y20615D01*
X5199Y20655D01*
X5282Y20718D01*
X5345Y20801D01*
X5385Y20897D01*
X5399Y21000D01*
X5385Y21103D01*
X5345Y21199D01*
X5282Y21282D01*
X5199Y21345D01*
X5103Y21385D01*
X5000Y21399D01*
D02*
G37*
G36*
X24349Y18892D02*
Y18550D01*
X24691D01*
X24684Y18603D01*
X24644Y18699D01*
X24581Y18782D01*
X24499Y18845D01*
X24402Y18885D01*
X24349Y18892D01*
D02*
G37*
G36*
X1598Y21301D02*
X1432Y21285D01*
X1272Y21236D01*
X1125Y21157D01*
X996Y21051D01*
X890Y20922D01*
X811Y20775D01*
X763Y20615D01*
X746Y20449D01*
X763Y20283D01*
X811Y20123D01*
X890Y19975D01*
X996Y19846D01*
X1125Y19740D01*
X1272Y19662D01*
X1432Y19613D01*
X1598Y19597D01*
X1765Y19613D01*
X1925Y19662D01*
X2072Y19740D01*
X2201Y19846D01*
X2307Y19975D01*
X2386Y20123D01*
X2434Y20283D01*
X2451Y20449D01*
X2434Y20615D01*
X2386Y20775D01*
X2307Y20922D01*
X2201Y21051D01*
X2072Y21157D01*
X1925Y21236D01*
X1765Y21285D01*
X1598Y21301D01*
D02*
G37*
G36*
X4950Y22950D02*
X4608D01*
X4615Y22897D01*
X4655Y22801D01*
X4718Y22718D01*
X4801Y22655D01*
X4897Y22615D01*
X4950Y22608D01*
Y22950D01*
D02*
G37*
G36*
X5050Y23392D02*
Y23050D01*
X5392D01*
X5385Y23103D01*
X5345Y23199D01*
X5282Y23282D01*
X5199Y23345D01*
X5103Y23385D01*
X5050Y23392D01*
D02*
G37*
G36*
X37650Y24703D02*
X37523Y24691D01*
X37400Y24653D01*
X37287Y24593D01*
X37188Y24512D01*
X37107Y24413D01*
X37047Y24300D01*
X37009Y24177D01*
X36997Y24050D01*
X37009Y23923D01*
X37047Y23800D01*
X37107Y23687D01*
X37188Y23588D01*
X37287Y23507D01*
X37400Y23447D01*
X37523Y23409D01*
X37650Y23397D01*
X37777Y23409D01*
X37900Y23447D01*
X38013Y23507D01*
X38112Y23588D01*
X38193Y23687D01*
X38253Y23800D01*
X38291Y23923D01*
X38303Y24050D01*
X38291Y24177D01*
X38253Y24300D01*
X38193Y24413D01*
X38112Y24512D01*
X38013Y24593D01*
X37900Y24653D01*
X37777Y24691D01*
X37650Y24703D01*
D02*
G37*
G36*
X4950Y23392D02*
X4897Y23385D01*
X4801Y23345D01*
X4718Y23282D01*
X4655Y23199D01*
X4615Y23103D01*
X4608Y23050D01*
X4950D01*
Y23392D01*
D02*
G37*
G36*
X5392Y22950D02*
X5050D01*
Y22608D01*
X5103Y22615D01*
X5199Y22655D01*
X5282Y22718D01*
X5345Y22801D01*
X5385Y22897D01*
X5392Y22950D01*
D02*
G37*
G36*
X1598Y24403D02*
X1432Y24387D01*
X1272Y24338D01*
X1125Y24260D01*
X996Y24154D01*
X890Y24025D01*
X811Y23877D01*
X763Y23717D01*
X746Y23551D01*
X763Y23385D01*
X811Y23225D01*
X890Y23078D01*
X996Y22949D01*
X1125Y22843D01*
X1272Y22764D01*
X1432Y22715D01*
X1598Y22699D01*
X1765Y22715D01*
X1925Y22764D01*
X2072Y22843D01*
X2201Y22949D01*
X2307Y23078D01*
X2386Y23225D01*
X2434Y23385D01*
X2451Y23551D01*
X2434Y23717D01*
X2386Y23877D01*
X2307Y24025D01*
X2201Y24154D01*
X2072Y24260D01*
X1925Y24338D01*
X1765Y24387D01*
X1598Y24403D01*
D02*
G37*
G36*
X24249Y18892D02*
X24196Y18885D01*
X24100Y18845D01*
X24017Y18782D01*
X23954Y18699D01*
X23914Y18603D01*
X23907Y18550D01*
X24249D01*
Y18892D01*
D02*
G37*
G36*
X13876Y17691D02*
X13124D01*
Y17453D01*
X12965D01*
Y17587D01*
X11918D01*
Y17035D01*
X11760Y16877D01*
X11727Y16827D01*
X11716Y16768D01*
Y15532D01*
X11727Y15473D01*
X11756Y15430D01*
X11750Y15400D01*
X11769Y15304D01*
X11823Y15223D01*
X11904Y15169D01*
X12000Y15150D01*
X12096Y15169D01*
X12177Y15223D01*
X12231Y15304D01*
X12239Y15345D01*
X12289Y15340D01*
Y14720D01*
X12223Y14677D01*
X12169Y14596D01*
X12150Y14500D01*
X12169Y14404D01*
X12223Y14323D01*
X12304Y14269D01*
X12400Y14250D01*
X12496Y14269D01*
X12577Y14323D01*
X12631Y14404D01*
X12650Y14500D01*
X12631Y14596D01*
X12595Y14650D01*
Y16107D01*
X12965D01*
Y16681D01*
X12069D01*
X12048Y16731D01*
X12329Y17013D01*
X12965D01*
Y17147D01*
X13124D01*
Y17038D01*
X13876D01*
Y17691D01*
D02*
G37*
G36*
X12392Y18156D02*
X11918D01*
Y17918D01*
X12392D01*
Y18156D01*
D02*
G37*
G36*
X24299Y17899D02*
X24196Y17885D01*
X24100Y17845D01*
X24017Y17782D01*
X23954Y17699D01*
X23914Y17603D01*
X23901Y17500D01*
X23914Y17397D01*
X23954Y17301D01*
X24017Y17218D01*
X24100Y17155D01*
X24196Y17115D01*
X24299Y17101D01*
X24402Y17115D01*
X24499Y17155D01*
X24581Y17218D01*
X24644Y17301D01*
X24684Y17397D01*
X24698Y17500D01*
X24684Y17603D01*
X24644Y17699D01*
X24581Y17782D01*
X24499Y17845D01*
X24402Y17885D01*
X24299Y17899D01*
D02*
G37*
G36*
X13450Y16962D02*
X13124D01*
Y16686D01*
X13450D01*
Y16962D01*
D02*
G37*
G36*
X13876D02*
X13550D01*
Y16686D01*
X13876D01*
Y16962D01*
D02*
G37*
G36*
X12965Y18156D02*
X12492D01*
Y17918D01*
X12965D01*
Y18156D01*
D02*
G37*
G36*
X12392Y18493D02*
X11918D01*
Y18256D01*
X12392D01*
Y18493D01*
D02*
G37*
G36*
X12965D02*
X12492D01*
Y18256D01*
X12965D01*
Y18493D01*
D02*
G37*
G36*
X27701Y19903D02*
X27535Y19887D01*
X27375Y19838D01*
X27227Y19760D01*
X27098Y19654D01*
X26992Y19525D01*
X26914Y19377D01*
X26865Y19217D01*
X26849Y19051D01*
X26865Y18885D01*
X26914Y18725D01*
X26992Y18578D01*
X27098Y18449D01*
X27227Y18343D01*
X27375Y18264D01*
X27535Y18215D01*
X27701Y18199D01*
X27867Y18215D01*
X28027Y18264D01*
X28174Y18343D01*
X28303Y18449D01*
X28409Y18578D01*
X28488Y18725D01*
X28537Y18885D01*
X28553Y19051D01*
X28537Y19217D01*
X28488Y19377D01*
X28409Y19525D01*
X28303Y19654D01*
X28174Y19760D01*
X28027Y19838D01*
X27867Y19887D01*
X27701Y19903D01*
D02*
G37*
G36*
X24691Y18450D02*
X24349D01*
Y18108D01*
X24402Y18115D01*
X24499Y18155D01*
X24581Y18218D01*
X24644Y18301D01*
X24684Y18397D01*
X24691Y18450D01*
D02*
G37*
G36*
X24249D02*
X23907D01*
X23914Y18397D01*
X23954Y18301D01*
X24017Y18218D01*
X24100Y18155D01*
X24196Y18115D01*
X24249Y18108D01*
Y18450D01*
D02*
G37*
%LPD*%
D14*
X8490Y11510D02*
Y12090D01*
Y11510D02*
X8500Y11500D01*
X12442Y14542D02*
Y16394D01*
X12400Y14500D02*
X12442Y14542D01*
Y17300D02*
X13336D01*
X11868Y15532D02*
X12000Y15400D01*
X11868Y15532D02*
Y16768D01*
X12400Y17300D01*
X12442D01*
D15*
X20000Y2000D02*
D03*
Y2500D02*
D03*
X19500D02*
D03*
X19000D02*
D03*
X18500D02*
D03*
X18000D02*
D03*
X17500D02*
D03*
X17000D02*
D03*
X16500D02*
D03*
X16000D02*
D03*
X15500D02*
D03*
Y2000D02*
D03*
X16000D02*
D03*
X17000D02*
D03*
X16500D02*
D03*
X17500D02*
D03*
X18000D02*
D03*
X18500D02*
D03*
X19000D02*
D03*
X19500D02*
D03*
D16*
X1599Y11128D02*
D03*
Y7026D02*
D03*
X1598Y20449D02*
D03*
Y23551D02*
D03*
X27701Y14949D02*
D03*
Y19051D02*
D03*
D17*
X5001Y10577D02*
D03*
Y9577D02*
D03*
Y8577D02*
D03*
Y7577D02*
D03*
X5000Y21000D02*
D03*
Y22000D02*
D03*
Y23000D02*
D03*
X24299Y15500D02*
D03*
Y16500D02*
D03*
Y17500D02*
D03*
Y18500D02*
D03*
D18*
X8490Y12090D02*
D03*
X5500Y17000D02*
D03*
X8500Y11500D02*
D03*
Y15000D02*
D03*
X12400Y14500D02*
D03*
X12000Y15400D02*
D03*
X11400Y15700D02*
D03*
D19*
X10158Y17300D02*
D03*
D20*
X12442Y18206D02*
D03*
Y16394D02*
D03*
Y17300D02*
D03*
D21*
X13500Y16636D02*
D03*
Y17364D02*
D03*
D22*
X22700Y2000D02*
D03*
X12700D02*
D03*
M02*
