M48
;Layer_Color=9474304
;FILE_FORMAT=2:4
INCH,TZ
;TYPE=PLATED
T1F00S00C0.0150
T2F00S00C0.0206
T3F00S00C0.0429
T4F00S00C0.1100
T5F00S00C0.1339
%
T01
X8500Y11500
X8490Y12090
X8500Y15000
X12400Y14500
X12000Y15400
X11400Y15700
X5500Y17000
T02
X15500Y2000
Y2500
X16000
X16500
X17000
X17500
X18000
X18500
X19000
X19500
X20000
Y2000
X19500
X19000
X18500
X18000
X17500
X17000
X16500
X16000
T03
X5001Y7577
Y8577
Y9577
Y10577
X24299Y15500
Y16500
Y17500
Y18500
X5000Y21000
Y22000
Y23000
T04
X12700Y2000
X11650Y6300
X22700Y2000
X37650Y5050
Y24050
X11650Y22800
T05
X1599Y7026
Y11128
X27701Y14949
Y19051
X1598Y20449
Y23551
M30
