M48
;Layer_Color=9474304
;FILE_FORMAT=2:4
INCH,TZ
;TYPE=PLATED
T1F00S00C0.0354
T2F00S00C0.0400
%
T01
X4700Y2300
Y3300
Y4300
X6400
Y3300
Y2300
X8100
Y3300
Y4300
X9900
Y3300
Y2300
X11700
Y3300
Y4300
X13500
Y3300
Y2300
T02
X6400Y7100
X7400
X8400
X9400
X10400
X11400
X12400
X13400
X14400
X15400
X16400
Y13100
X15400
X14400
X13400
X12400
X11400
X10400
X9400
X8400
X7400
X6400
X5400
X4400
X3400
X2400
Y7100
X3400
X4400
X5400
M30
