G04 Layer_Physical_Order=2*
G04 Layer_Color=16711680*
%FSLAX24Y24*%
%MOIN*%
G70*
G01*
G75*
%ADD11C,0.0600*%
%ADD12R,0.0591X0.0591*%
%ADD13C,0.0591*%
G36*
X17796Y204D02*
X204D01*
Y14796D01*
X17796D01*
Y204D01*
D02*
G37*
%LPC*%
G36*
X5095Y2695D02*
X4750D01*
Y2350D01*
X5095D01*
Y2695D01*
D02*
G37*
G36*
X13895D02*
X13550D01*
Y2350D01*
X13895D01*
Y2695D01*
D02*
G37*
G36*
X4700Y3699D02*
X4597Y3685D01*
X4501Y3645D01*
X4418Y3582D01*
X4355Y3499D01*
X4315Y3403D01*
X4301Y3300D01*
X4315Y3197D01*
X4355Y3101D01*
X4418Y3018D01*
X4501Y2955D01*
X4597Y2915D01*
X4700Y2901D01*
X4803Y2915D01*
X4899Y2955D01*
X4982Y3018D01*
X5045Y3101D01*
X5085Y3197D01*
X5099Y3300D01*
X5085Y3403D01*
X5045Y3499D01*
X4982Y3582D01*
X4899Y3645D01*
X4803Y3685D01*
X4700Y3699D01*
D02*
G37*
G36*
X6795Y2695D02*
X6450D01*
Y2350D01*
X6795D01*
Y2695D01*
D02*
G37*
G36*
X8495D02*
X8150D01*
Y2350D01*
X8495D01*
Y2695D01*
D02*
G37*
G36*
X6350D02*
X6005D01*
Y2350D01*
X6350D01*
Y2695D01*
D02*
G37*
G36*
X12095D02*
X11750D01*
Y2350D01*
X12095D01*
Y2695D01*
D02*
G37*
G36*
X10295D02*
X9950D01*
Y2350D01*
X10295D01*
Y2695D01*
D02*
G37*
G36*
X6400Y3699D02*
X6297Y3685D01*
X6201Y3645D01*
X6118Y3582D01*
X6055Y3499D01*
X6015Y3403D01*
X6001Y3300D01*
X6015Y3197D01*
X6055Y3101D01*
X6118Y3018D01*
X6201Y2955D01*
X6297Y2915D01*
X6400Y2901D01*
X6503Y2915D01*
X6599Y2955D01*
X6682Y3018D01*
X6745Y3101D01*
X6785Y3197D01*
X6799Y3300D01*
X6785Y3403D01*
X6745Y3499D01*
X6682Y3582D01*
X6599Y3645D01*
X6503Y3685D01*
X6400Y3699D01*
D02*
G37*
G36*
Y4699D02*
X6297Y4685D01*
X6201Y4645D01*
X6118Y4582D01*
X6055Y4499D01*
X6015Y4403D01*
X6001Y4300D01*
X6015Y4197D01*
X6055Y4101D01*
X6118Y4018D01*
X6201Y3955D01*
X6297Y3915D01*
X6400Y3901D01*
X6503Y3915D01*
X6599Y3955D01*
X6682Y4018D01*
X6745Y4101D01*
X6785Y4197D01*
X6799Y4300D01*
X6785Y4403D01*
X6745Y4499D01*
X6682Y4582D01*
X6599Y4645D01*
X6503Y4685D01*
X6400Y4699D01*
D02*
G37*
G36*
X4700D02*
X4597Y4685D01*
X4501Y4645D01*
X4418Y4582D01*
X4355Y4499D01*
X4315Y4403D01*
X4301Y4300D01*
X4315Y4197D01*
X4355Y4101D01*
X4418Y4018D01*
X4501Y3955D01*
X4597Y3915D01*
X4700Y3901D01*
X4803Y3915D01*
X4899Y3955D01*
X4982Y4018D01*
X5045Y4101D01*
X5085Y4197D01*
X5099Y4300D01*
X5085Y4403D01*
X5045Y4499D01*
X4982Y4582D01*
X4899Y4645D01*
X4803Y4685D01*
X4700Y4699D01*
D02*
G37*
G36*
X9900D02*
X9797Y4685D01*
X9701Y4645D01*
X9618Y4582D01*
X9555Y4499D01*
X9515Y4403D01*
X9501Y4300D01*
X9515Y4197D01*
X9555Y4101D01*
X9618Y4018D01*
X9701Y3955D01*
X9797Y3915D01*
X9900Y3901D01*
X10003Y3915D01*
X10099Y3955D01*
X10182Y4018D01*
X10245Y4101D01*
X10285Y4197D01*
X10299Y4300D01*
X10285Y4403D01*
X10245Y4499D01*
X10182Y4582D01*
X10099Y4645D01*
X10003Y4685D01*
X9900Y4699D01*
D02*
G37*
G36*
X8100D02*
X7997Y4685D01*
X7901Y4645D01*
X7818Y4582D01*
X7755Y4499D01*
X7715Y4403D01*
X7701Y4300D01*
X7715Y4197D01*
X7755Y4101D01*
X7818Y4018D01*
X7901Y3955D01*
X7997Y3915D01*
X8100Y3901D01*
X8203Y3915D01*
X8299Y3955D01*
X8382Y4018D01*
X8445Y4101D01*
X8485Y4197D01*
X8499Y4300D01*
X8485Y4403D01*
X8445Y4499D01*
X8382Y4582D01*
X8299Y4645D01*
X8203Y4685D01*
X8100Y4699D01*
D02*
G37*
G36*
X9900Y3699D02*
X9797Y3685D01*
X9701Y3645D01*
X9618Y3582D01*
X9555Y3499D01*
X9515Y3403D01*
X9501Y3300D01*
X9515Y3197D01*
X9555Y3101D01*
X9618Y3018D01*
X9701Y2955D01*
X9797Y2915D01*
X9900Y2901D01*
X10003Y2915D01*
X10099Y2955D01*
X10182Y3018D01*
X10245Y3101D01*
X10285Y3197D01*
X10299Y3300D01*
X10285Y3403D01*
X10245Y3499D01*
X10182Y3582D01*
X10099Y3645D01*
X10003Y3685D01*
X9900Y3699D01*
D02*
G37*
G36*
X8100D02*
X7997Y3685D01*
X7901Y3645D01*
X7818Y3582D01*
X7755Y3499D01*
X7715Y3403D01*
X7701Y3300D01*
X7715Y3197D01*
X7755Y3101D01*
X7818Y3018D01*
X7901Y2955D01*
X7997Y2915D01*
X8100Y2901D01*
X8203Y2915D01*
X8299Y2955D01*
X8382Y3018D01*
X8445Y3101D01*
X8485Y3197D01*
X8499Y3300D01*
X8485Y3403D01*
X8445Y3499D01*
X8382Y3582D01*
X8299Y3645D01*
X8203Y3685D01*
X8100Y3699D01*
D02*
G37*
G36*
X13500D02*
X13397Y3685D01*
X13301Y3645D01*
X13218Y3582D01*
X13155Y3499D01*
X13115Y3403D01*
X13101Y3300D01*
X13115Y3197D01*
X13155Y3101D01*
X13218Y3018D01*
X13301Y2955D01*
X13397Y2915D01*
X13500Y2901D01*
X13603Y2915D01*
X13699Y2955D01*
X13782Y3018D01*
X13845Y3101D01*
X13885Y3197D01*
X13899Y3300D01*
X13885Y3403D01*
X13845Y3499D01*
X13782Y3582D01*
X13699Y3645D01*
X13603Y3685D01*
X13500Y3699D01*
D02*
G37*
G36*
X11700D02*
X11597Y3685D01*
X11501Y3645D01*
X11418Y3582D01*
X11355Y3499D01*
X11315Y3403D01*
X11301Y3300D01*
X11315Y3197D01*
X11355Y3101D01*
X11418Y3018D01*
X11501Y2955D01*
X11597Y2915D01*
X11700Y2901D01*
X11803Y2915D01*
X11899Y2955D01*
X11982Y3018D01*
X12045Y3101D01*
X12085Y3197D01*
X12099Y3300D01*
X12085Y3403D01*
X12045Y3499D01*
X11982Y3582D01*
X11899Y3645D01*
X11803Y3685D01*
X11700Y3699D01*
D02*
G37*
G36*
X8495Y2250D02*
X8150D01*
Y1905D01*
X8495D01*
Y2250D01*
D02*
G37*
G36*
X8050D02*
X7705D01*
Y1905D01*
X8050D01*
Y2250D01*
D02*
G37*
G36*
X10295D02*
X9950D01*
Y1905D01*
X10295D01*
Y2250D01*
D02*
G37*
G36*
X9850D02*
X9505D01*
Y1905D01*
X9850D01*
Y2250D01*
D02*
G37*
G36*
X5095D02*
X4750D01*
Y1905D01*
X5095D01*
Y2250D01*
D02*
G37*
G36*
X4650D02*
X4305D01*
Y1905D01*
X4650D01*
Y2250D01*
D02*
G37*
G36*
X6795D02*
X6450D01*
Y1905D01*
X6795D01*
Y2250D01*
D02*
G37*
G36*
X6350D02*
X6005D01*
Y1905D01*
X6350D01*
Y2250D01*
D02*
G37*
G36*
X11650D02*
X11305D01*
Y1905D01*
X11650D01*
Y2250D01*
D02*
G37*
G36*
Y2695D02*
X11305D01*
Y2350D01*
X11650D01*
Y2695D01*
D02*
G37*
G36*
X9850D02*
X9505D01*
Y2350D01*
X9850D01*
Y2695D01*
D02*
G37*
G36*
X4650D02*
X4305D01*
Y2350D01*
X4650D01*
Y2695D01*
D02*
G37*
G36*
X13450D02*
X13105D01*
Y2350D01*
X13450D01*
Y2695D01*
D02*
G37*
G36*
Y2250D02*
X13105D01*
Y1905D01*
X13450D01*
Y2250D01*
D02*
G37*
G36*
X12095D02*
X11750D01*
Y1905D01*
X12095D01*
Y2250D01*
D02*
G37*
G36*
X8050Y2695D02*
X7705D01*
Y2350D01*
X8050D01*
Y2695D01*
D02*
G37*
G36*
X13895Y2250D02*
X13550D01*
Y1905D01*
X13895D01*
Y2250D01*
D02*
G37*
G36*
X5400Y13503D02*
X5296Y13490D01*
X5198Y13449D01*
X5115Y13385D01*
X5051Y13302D01*
X5010Y13204D01*
X4997Y13100D01*
X5010Y12996D01*
X5051Y12898D01*
X5115Y12815D01*
X5198Y12751D01*
X5296Y12710D01*
X5400Y12697D01*
X5504Y12710D01*
X5602Y12751D01*
X5685Y12815D01*
X5749Y12898D01*
X5790Y12996D01*
X5803Y13100D01*
X5790Y13204D01*
X5749Y13302D01*
X5685Y13385D01*
X5602Y13449D01*
X5504Y13490D01*
X5400Y13503D01*
D02*
G37*
G36*
X4400D02*
X4296Y13490D01*
X4198Y13449D01*
X4115Y13385D01*
X4051Y13302D01*
X4010Y13204D01*
X3997Y13100D01*
X4010Y12996D01*
X4051Y12898D01*
X4115Y12815D01*
X4198Y12751D01*
X4296Y12710D01*
X4400Y12697D01*
X4504Y12710D01*
X4602Y12751D01*
X4685Y12815D01*
X4749Y12898D01*
X4790Y12996D01*
X4803Y13100D01*
X4790Y13204D01*
X4749Y13302D01*
X4685Y13385D01*
X4602Y13449D01*
X4504Y13490D01*
X4400Y13503D01*
D02*
G37*
G36*
X7400D02*
X7296Y13490D01*
X7198Y13449D01*
X7115Y13385D01*
X7051Y13302D01*
X7010Y13204D01*
X6997Y13100D01*
X7010Y12996D01*
X7051Y12898D01*
X7115Y12815D01*
X7198Y12751D01*
X7296Y12710D01*
X7400Y12697D01*
X7504Y12710D01*
X7602Y12751D01*
X7685Y12815D01*
X7749Y12898D01*
X7790Y12996D01*
X7803Y13100D01*
X7790Y13204D01*
X7749Y13302D01*
X7685Y13385D01*
X7602Y13449D01*
X7504Y13490D01*
X7400Y13503D01*
D02*
G37*
G36*
X6400D02*
X6296Y13490D01*
X6198Y13449D01*
X6115Y13385D01*
X6051Y13302D01*
X6010Y13204D01*
X5997Y13100D01*
X6010Y12996D01*
X6051Y12898D01*
X6115Y12815D01*
X6198Y12751D01*
X6296Y12710D01*
X6400Y12697D01*
X6504Y12710D01*
X6602Y12751D01*
X6685Y12815D01*
X6749Y12898D01*
X6790Y12996D01*
X6803Y13100D01*
X6790Y13204D01*
X6749Y13302D01*
X6685Y13385D01*
X6602Y13449D01*
X6504Y13490D01*
X6400Y13503D01*
D02*
G37*
G36*
X15450Y7497D02*
Y7150D01*
X15797D01*
X15790Y7204D01*
X15749Y7302D01*
X15685Y7385D01*
X15602Y7449D01*
X15504Y7490D01*
X15450Y7497D01*
D02*
G37*
G36*
X15350D02*
X15296Y7490D01*
X15198Y7449D01*
X15115Y7385D01*
X15051Y7302D01*
X15010Y7204D01*
X15003Y7150D01*
X15350D01*
Y7497D01*
D02*
G37*
G36*
X3400Y13503D02*
X3296Y13490D01*
X3198Y13449D01*
X3115Y13385D01*
X3051Y13302D01*
X3010Y13204D01*
X2997Y13100D01*
X3010Y12996D01*
X3051Y12898D01*
X3115Y12815D01*
X3198Y12751D01*
X3296Y12710D01*
X3400Y12697D01*
X3504Y12710D01*
X3602Y12751D01*
X3685Y12815D01*
X3749Y12898D01*
X3790Y12996D01*
X3803Y13100D01*
X3790Y13204D01*
X3749Y13302D01*
X3685Y13385D01*
X3602Y13449D01*
X3504Y13490D01*
X3400Y13503D01*
D02*
G37*
G36*
X2400D02*
X2296Y13490D01*
X2198Y13449D01*
X2115Y13385D01*
X2051Y13302D01*
X2010Y13204D01*
X1997Y13100D01*
X2010Y12996D01*
X2051Y12898D01*
X2115Y12815D01*
X2198Y12751D01*
X2296Y12710D01*
X2400Y12697D01*
X2504Y12710D01*
X2602Y12751D01*
X2685Y12815D01*
X2749Y12898D01*
X2790Y12996D01*
X2803Y13100D01*
X2790Y13204D01*
X2749Y13302D01*
X2685Y13385D01*
X2602Y13449D01*
X2504Y13490D01*
X2400Y13503D01*
D02*
G37*
G36*
X8400D02*
X8296Y13490D01*
X8198Y13449D01*
X8115Y13385D01*
X8051Y13302D01*
X8010Y13204D01*
X7997Y13100D01*
X8010Y12996D01*
X8051Y12898D01*
X8115Y12815D01*
X8198Y12751D01*
X8296Y12710D01*
X8400Y12697D01*
X8504Y12710D01*
X8602Y12751D01*
X8685Y12815D01*
X8749Y12898D01*
X8790Y12996D01*
X8803Y13100D01*
X8790Y13204D01*
X8749Y13302D01*
X8685Y13385D01*
X8602Y13449D01*
X8504Y13490D01*
X8400Y13503D01*
D02*
G37*
G36*
X14400D02*
X14296Y13490D01*
X14198Y13449D01*
X14115Y13385D01*
X14051Y13302D01*
X14010Y13204D01*
X13997Y13100D01*
X14010Y12996D01*
X14051Y12898D01*
X14115Y12815D01*
X14198Y12751D01*
X14296Y12710D01*
X14400Y12697D01*
X14504Y12710D01*
X14602Y12751D01*
X14685Y12815D01*
X14749Y12898D01*
X14790Y12996D01*
X14803Y13100D01*
X14790Y13204D01*
X14749Y13302D01*
X14685Y13385D01*
X14602Y13449D01*
X14504Y13490D01*
X14400Y13503D01*
D02*
G37*
G36*
X13400D02*
X13296Y13490D01*
X13198Y13449D01*
X13115Y13385D01*
X13051Y13302D01*
X13010Y13204D01*
X12997Y13100D01*
X13010Y12996D01*
X13051Y12898D01*
X13115Y12815D01*
X13198Y12751D01*
X13296Y12710D01*
X13400Y12697D01*
X13504Y12710D01*
X13602Y12751D01*
X13685Y12815D01*
X13749Y12898D01*
X13790Y12996D01*
X13803Y13100D01*
X13790Y13204D01*
X13749Y13302D01*
X13685Y13385D01*
X13602Y13449D01*
X13504Y13490D01*
X13400Y13503D01*
D02*
G37*
G36*
X16400D02*
X16296Y13490D01*
X16198Y13449D01*
X16115Y13385D01*
X16051Y13302D01*
X16010Y13204D01*
X15997Y13100D01*
X16010Y12996D01*
X16051Y12898D01*
X16115Y12815D01*
X16198Y12751D01*
X16296Y12710D01*
X16400Y12697D01*
X16504Y12710D01*
X16602Y12751D01*
X16685Y12815D01*
X16749Y12898D01*
X16790Y12996D01*
X16803Y13100D01*
X16790Y13204D01*
X16749Y13302D01*
X16685Y13385D01*
X16602Y13449D01*
X16504Y13490D01*
X16400Y13503D01*
D02*
G37*
G36*
X15400D02*
X15296Y13490D01*
X15198Y13449D01*
X15115Y13385D01*
X15051Y13302D01*
X15010Y13204D01*
X14997Y13100D01*
X15010Y12996D01*
X15051Y12898D01*
X15115Y12815D01*
X15198Y12751D01*
X15296Y12710D01*
X15400Y12697D01*
X15504Y12710D01*
X15602Y12751D01*
X15685Y12815D01*
X15749Y12898D01*
X15790Y12996D01*
X15803Y13100D01*
X15790Y13204D01*
X15749Y13302D01*
X15685Y13385D01*
X15602Y13449D01*
X15504Y13490D01*
X15400Y13503D01*
D02*
G37*
G36*
X10400D02*
X10296Y13490D01*
X10198Y13449D01*
X10115Y13385D01*
X10051Y13302D01*
X10010Y13204D01*
X9997Y13100D01*
X10010Y12996D01*
X10051Y12898D01*
X10115Y12815D01*
X10198Y12751D01*
X10296Y12710D01*
X10400Y12697D01*
X10504Y12710D01*
X10602Y12751D01*
X10685Y12815D01*
X10749Y12898D01*
X10790Y12996D01*
X10803Y13100D01*
X10790Y13204D01*
X10749Y13302D01*
X10685Y13385D01*
X10602Y13449D01*
X10504Y13490D01*
X10400Y13503D01*
D02*
G37*
G36*
X9400D02*
X9296Y13490D01*
X9198Y13449D01*
X9115Y13385D01*
X9051Y13302D01*
X9010Y13204D01*
X8997Y13100D01*
X9010Y12996D01*
X9051Y12898D01*
X9115Y12815D01*
X9198Y12751D01*
X9296Y12710D01*
X9400Y12697D01*
X9504Y12710D01*
X9602Y12751D01*
X9685Y12815D01*
X9749Y12898D01*
X9790Y12996D01*
X9803Y13100D01*
X9790Y13204D01*
X9749Y13302D01*
X9685Y13385D01*
X9602Y13449D01*
X9504Y13490D01*
X9400Y13503D01*
D02*
G37*
G36*
X12400D02*
X12296Y13490D01*
X12198Y13449D01*
X12115Y13385D01*
X12051Y13302D01*
X12010Y13204D01*
X11997Y13100D01*
X12010Y12996D01*
X12051Y12898D01*
X12115Y12815D01*
X12198Y12751D01*
X12296Y12710D01*
X12400Y12697D01*
X12504Y12710D01*
X12602Y12751D01*
X12685Y12815D01*
X12749Y12898D01*
X12790Y12996D01*
X12803Y13100D01*
X12790Y13204D01*
X12749Y13302D01*
X12685Y13385D01*
X12602Y13449D01*
X12504Y13490D01*
X12400Y13503D01*
D02*
G37*
G36*
X11400D02*
X11296Y13490D01*
X11198Y13449D01*
X11115Y13385D01*
X11051Y13302D01*
X11010Y13204D01*
X10997Y13100D01*
X11010Y12996D01*
X11051Y12898D01*
X11115Y12815D01*
X11198Y12751D01*
X11296Y12710D01*
X11400Y12697D01*
X11504Y12710D01*
X11602Y12751D01*
X11685Y12815D01*
X11749Y12898D01*
X11790Y12996D01*
X11803Y13100D01*
X11790Y13204D01*
X11749Y13302D01*
X11685Y13385D01*
X11602Y13449D01*
X11504Y13490D01*
X11400Y13503D01*
D02*
G37*
G36*
X15797Y7050D02*
X15450D01*
Y6703D01*
X15504Y6710D01*
X15602Y6751D01*
X15685Y6815D01*
X15749Y6898D01*
X15790Y6996D01*
X15797Y7050D01*
D02*
G37*
G36*
X5400Y7503D02*
X5296Y7490D01*
X5198Y7449D01*
X5115Y7385D01*
X5051Y7302D01*
X5010Y7204D01*
X4997Y7100D01*
X5010Y6996D01*
X5051Y6898D01*
X5115Y6815D01*
X5198Y6751D01*
X5296Y6710D01*
X5400Y6697D01*
X5504Y6710D01*
X5602Y6751D01*
X5685Y6815D01*
X5749Y6898D01*
X5790Y6996D01*
X5803Y7100D01*
X5790Y7204D01*
X5749Y7302D01*
X5685Y7385D01*
X5602Y7449D01*
X5504Y7490D01*
X5400Y7503D01*
D02*
G37*
G36*
X4400D02*
X4296Y7490D01*
X4198Y7449D01*
X4115Y7385D01*
X4051Y7302D01*
X4010Y7204D01*
X3997Y7100D01*
X4010Y6996D01*
X4051Y6898D01*
X4115Y6815D01*
X4198Y6751D01*
X4296Y6710D01*
X4400Y6697D01*
X4504Y6710D01*
X4602Y6751D01*
X4685Y6815D01*
X4749Y6898D01*
X4790Y6996D01*
X4803Y7100D01*
X4790Y7204D01*
X4749Y7302D01*
X4685Y7385D01*
X4602Y7449D01*
X4504Y7490D01*
X4400Y7503D01*
D02*
G37*
G36*
X7400D02*
X7296Y7490D01*
X7198Y7449D01*
X7115Y7385D01*
X7051Y7302D01*
X7010Y7204D01*
X6997Y7100D01*
X7010Y6996D01*
X7051Y6898D01*
X7115Y6815D01*
X7198Y6751D01*
X7296Y6710D01*
X7400Y6697D01*
X7504Y6710D01*
X7602Y6751D01*
X7685Y6815D01*
X7749Y6898D01*
X7790Y6996D01*
X7803Y7100D01*
X7790Y7204D01*
X7749Y7302D01*
X7685Y7385D01*
X7602Y7449D01*
X7504Y7490D01*
X7400Y7503D01*
D02*
G37*
G36*
X6400D02*
X6296Y7490D01*
X6198Y7449D01*
X6115Y7385D01*
X6051Y7302D01*
X6010Y7204D01*
X5997Y7100D01*
X6010Y6996D01*
X6051Y6898D01*
X6115Y6815D01*
X6198Y6751D01*
X6296Y6710D01*
X6400Y6697D01*
X6504Y6710D01*
X6602Y6751D01*
X6685Y6815D01*
X6749Y6898D01*
X6790Y6996D01*
X6803Y7100D01*
X6790Y7204D01*
X6749Y7302D01*
X6685Y7385D01*
X6602Y7449D01*
X6504Y7490D01*
X6400Y7503D01*
D02*
G37*
G36*
X13500Y4699D02*
X13397Y4685D01*
X13301Y4645D01*
X13218Y4582D01*
X13155Y4499D01*
X13115Y4403D01*
X13101Y4300D01*
X13115Y4197D01*
X13155Y4101D01*
X13218Y4018D01*
X13301Y3955D01*
X13397Y3915D01*
X13500Y3901D01*
X13603Y3915D01*
X13699Y3955D01*
X13782Y4018D01*
X13845Y4101D01*
X13885Y4197D01*
X13899Y4300D01*
X13885Y4403D01*
X13845Y4499D01*
X13782Y4582D01*
X13699Y4645D01*
X13603Y4685D01*
X13500Y4699D01*
D02*
G37*
G36*
X11700D02*
X11597Y4685D01*
X11501Y4645D01*
X11418Y4582D01*
X11355Y4499D01*
X11315Y4403D01*
X11301Y4300D01*
X11315Y4197D01*
X11355Y4101D01*
X11418Y4018D01*
X11501Y3955D01*
X11597Y3915D01*
X11700Y3901D01*
X11803Y3915D01*
X11899Y3955D01*
X11982Y4018D01*
X12045Y4101D01*
X12085Y4197D01*
X12099Y4300D01*
X12085Y4403D01*
X12045Y4499D01*
X11982Y4582D01*
X11899Y4645D01*
X11803Y4685D01*
X11700Y4699D01*
D02*
G37*
G36*
X3400Y7503D02*
X3296Y7490D01*
X3198Y7449D01*
X3115Y7385D01*
X3051Y7302D01*
X3010Y7204D01*
X2997Y7100D01*
X3010Y6996D01*
X3051Y6898D01*
X3115Y6815D01*
X3198Y6751D01*
X3296Y6710D01*
X3400Y6697D01*
X3504Y6710D01*
X3602Y6751D01*
X3685Y6815D01*
X3749Y6898D01*
X3790Y6996D01*
X3803Y7100D01*
X3790Y7204D01*
X3749Y7302D01*
X3685Y7385D01*
X3602Y7449D01*
X3504Y7490D01*
X3400Y7503D01*
D02*
G37*
G36*
X2400D02*
X2296Y7490D01*
X2198Y7449D01*
X2115Y7385D01*
X2051Y7302D01*
X2010Y7204D01*
X1997Y7100D01*
X2010Y6996D01*
X2051Y6898D01*
X2115Y6815D01*
X2198Y6751D01*
X2296Y6710D01*
X2400Y6697D01*
X2504Y6710D01*
X2602Y6751D01*
X2685Y6815D01*
X2749Y6898D01*
X2790Y6996D01*
X2803Y7100D01*
X2790Y7204D01*
X2749Y7302D01*
X2685Y7385D01*
X2602Y7449D01*
X2504Y7490D01*
X2400Y7503D01*
D02*
G37*
G36*
X8400D02*
X8296Y7490D01*
X8198Y7449D01*
X8115Y7385D01*
X8051Y7302D01*
X8010Y7204D01*
X7997Y7100D01*
X8010Y6996D01*
X8051Y6898D01*
X8115Y6815D01*
X8198Y6751D01*
X8296Y6710D01*
X8400Y6697D01*
X8504Y6710D01*
X8602Y6751D01*
X8685Y6815D01*
X8749Y6898D01*
X8790Y6996D01*
X8803Y7100D01*
X8790Y7204D01*
X8749Y7302D01*
X8685Y7385D01*
X8602Y7449D01*
X8504Y7490D01*
X8400Y7503D01*
D02*
G37*
G36*
X14400D02*
X14296Y7490D01*
X14198Y7449D01*
X14115Y7385D01*
X14051Y7302D01*
X14010Y7204D01*
X13997Y7100D01*
X14010Y6996D01*
X14051Y6898D01*
X14115Y6815D01*
X14198Y6751D01*
X14296Y6710D01*
X14400Y6697D01*
X14504Y6710D01*
X14602Y6751D01*
X14685Y6815D01*
X14749Y6898D01*
X14790Y6996D01*
X14803Y7100D01*
X14790Y7204D01*
X14749Y7302D01*
X14685Y7385D01*
X14602Y7449D01*
X14504Y7490D01*
X14400Y7503D01*
D02*
G37*
G36*
X13400D02*
X13296Y7490D01*
X13198Y7449D01*
X13115Y7385D01*
X13051Y7302D01*
X13010Y7204D01*
X12997Y7100D01*
X13010Y6996D01*
X13051Y6898D01*
X13115Y6815D01*
X13198Y6751D01*
X13296Y6710D01*
X13400Y6697D01*
X13504Y6710D01*
X13602Y6751D01*
X13685Y6815D01*
X13749Y6898D01*
X13790Y6996D01*
X13803Y7100D01*
X13790Y7204D01*
X13749Y7302D01*
X13685Y7385D01*
X13602Y7449D01*
X13504Y7490D01*
X13400Y7503D01*
D02*
G37*
G36*
X15350Y7050D02*
X15003D01*
X15010Y6996D01*
X15051Y6898D01*
X15115Y6815D01*
X15198Y6751D01*
X15296Y6710D01*
X15350Y6703D01*
Y7050D01*
D02*
G37*
G36*
X16400Y7503D02*
X16296Y7490D01*
X16198Y7449D01*
X16115Y7385D01*
X16051Y7302D01*
X16010Y7204D01*
X15997Y7100D01*
X16010Y6996D01*
X16051Y6898D01*
X16115Y6815D01*
X16198Y6751D01*
X16296Y6710D01*
X16400Y6697D01*
X16504Y6710D01*
X16602Y6751D01*
X16685Y6815D01*
X16749Y6898D01*
X16790Y6996D01*
X16803Y7100D01*
X16790Y7204D01*
X16749Y7302D01*
X16685Y7385D01*
X16602Y7449D01*
X16504Y7490D01*
X16400Y7503D01*
D02*
G37*
G36*
X10400D02*
X10296Y7490D01*
X10198Y7449D01*
X10115Y7385D01*
X10051Y7302D01*
X10010Y7204D01*
X9997Y7100D01*
X10010Y6996D01*
X10051Y6898D01*
X10115Y6815D01*
X10198Y6751D01*
X10296Y6710D01*
X10400Y6697D01*
X10504Y6710D01*
X10602Y6751D01*
X10685Y6815D01*
X10749Y6898D01*
X10790Y6996D01*
X10803Y7100D01*
X10790Y7204D01*
X10749Y7302D01*
X10685Y7385D01*
X10602Y7449D01*
X10504Y7490D01*
X10400Y7503D01*
D02*
G37*
G36*
X9400D02*
X9296Y7490D01*
X9198Y7449D01*
X9115Y7385D01*
X9051Y7302D01*
X9010Y7204D01*
X8997Y7100D01*
X9010Y6996D01*
X9051Y6898D01*
X9115Y6815D01*
X9198Y6751D01*
X9296Y6710D01*
X9400Y6697D01*
X9504Y6710D01*
X9602Y6751D01*
X9685Y6815D01*
X9749Y6898D01*
X9790Y6996D01*
X9803Y7100D01*
X9790Y7204D01*
X9749Y7302D01*
X9685Y7385D01*
X9602Y7449D01*
X9504Y7490D01*
X9400Y7503D01*
D02*
G37*
G36*
X12400D02*
X12296Y7490D01*
X12198Y7449D01*
X12115Y7385D01*
X12051Y7302D01*
X12010Y7204D01*
X11997Y7100D01*
X12010Y6996D01*
X12051Y6898D01*
X12115Y6815D01*
X12198Y6751D01*
X12296Y6710D01*
X12400Y6697D01*
X12504Y6710D01*
X12602Y6751D01*
X12685Y6815D01*
X12749Y6898D01*
X12790Y6996D01*
X12803Y7100D01*
X12790Y7204D01*
X12749Y7302D01*
X12685Y7385D01*
X12602Y7449D01*
X12504Y7490D01*
X12400Y7503D01*
D02*
G37*
G36*
X11400D02*
X11296Y7490D01*
X11198Y7449D01*
X11115Y7385D01*
X11051Y7302D01*
X11010Y7204D01*
X10997Y7100D01*
X11010Y6996D01*
X11051Y6898D01*
X11115Y6815D01*
X11198Y6751D01*
X11296Y6710D01*
X11400Y6697D01*
X11504Y6710D01*
X11602Y6751D01*
X11685Y6815D01*
X11749Y6898D01*
X11790Y6996D01*
X11803Y7100D01*
X11790Y7204D01*
X11749Y7302D01*
X11685Y7385D01*
X11602Y7449D01*
X11504Y7490D01*
X11400Y7503D01*
D02*
G37*
%LPD*%
D11*
X2400Y13100D02*
D03*
X3400D02*
D03*
X4400D02*
D03*
X5400D02*
D03*
X6400D02*
D03*
X7400D02*
D03*
X8400D02*
D03*
X9400D02*
D03*
X10400D02*
D03*
X11400D02*
D03*
X12400D02*
D03*
X13400D02*
D03*
X15400D02*
D03*
X16400D02*
D03*
X14400D02*
D03*
X16400Y7100D02*
D03*
X15400D02*
D03*
X14400D02*
D03*
X13400D02*
D03*
X12400D02*
D03*
X11400D02*
D03*
X10400D02*
D03*
X9400D02*
D03*
X8400D02*
D03*
X7400D02*
D03*
X6400D02*
D03*
X5400D02*
D03*
X3400D02*
D03*
X2400D02*
D03*
X4400D02*
D03*
D12*
X8100Y2300D02*
D03*
X6400D02*
D03*
X4700D02*
D03*
X11700D02*
D03*
X9900D02*
D03*
X13500D02*
D03*
D13*
X8100Y3300D02*
D03*
Y4300D02*
D03*
X6400Y3300D02*
D03*
Y4300D02*
D03*
X4700Y3300D02*
D03*
Y4300D02*
D03*
X11700Y3300D02*
D03*
Y4300D02*
D03*
X9900Y3300D02*
D03*
Y4300D02*
D03*
X13500D02*
D03*
Y3300D02*
D03*
M02*
