G04 Layer_Physical_Order=1*
G04 Layer_Color=255*
%FSLAX24Y24*%
%MOIN*%
G70*
G01*
G75*
%ADD10C,0.0100*%
%ADD11C,0.0600*%
%ADD12R,0.0591X0.0591*%
%ADD13C,0.0591*%
D10*
X4700Y3300D02*
X11700D01*
X13450D01*
X13500D02*
Y3670D01*
X13945Y4116D01*
Y6555D01*
X13400Y7100D02*
X13945Y6555D01*
X13500Y4300D02*
Y6000D01*
X12400Y7100D02*
X13500Y6000D01*
X11700Y4300D02*
Y6800D01*
X11400Y7100D02*
X11700Y6800D01*
X9900Y4300D02*
Y6600D01*
X10400Y7100D01*
X8100Y4300D02*
Y5800D01*
X9400Y7100D01*
X6400Y4300D02*
Y5100D01*
X8400Y7100D01*
X4700Y4300D02*
X7400Y7000D01*
D11*
X2400Y13100D02*
D03*
X3400D02*
D03*
X4400D02*
D03*
X5400D02*
D03*
X6400D02*
D03*
X7400D02*
D03*
X8400D02*
D03*
X9400D02*
D03*
X10400D02*
D03*
X11400D02*
D03*
X12400D02*
D03*
X13400D02*
D03*
X15400D02*
D03*
X16400D02*
D03*
X14400D02*
D03*
X16400Y7100D02*
D03*
X15400D02*
D03*
X14400D02*
D03*
X13400D02*
D03*
X12400D02*
D03*
X11400D02*
D03*
X10400D02*
D03*
X9400D02*
D03*
X8400D02*
D03*
X7400D02*
D03*
X6400D02*
D03*
X5400D02*
D03*
X3400D02*
D03*
X2400D02*
D03*
X4400D02*
D03*
D12*
X8100Y2300D02*
D03*
X6400D02*
D03*
X4700D02*
D03*
X11700D02*
D03*
X9900D02*
D03*
X13500D02*
D03*
D13*
X8100Y3300D02*
D03*
Y4300D02*
D03*
X6400Y3300D02*
D03*
Y4300D02*
D03*
X4700Y3300D02*
D03*
Y4300D02*
D03*
X11700Y3300D02*
D03*
Y4300D02*
D03*
X9900Y3300D02*
D03*
Y4300D02*
D03*
X13500D02*
D03*
Y3300D02*
D03*
M02*
